<?xml version="1.0" encoding="utf-8"?>
<!-- Generator: Adobe Illustrator 16.0.0, SVG Export Plug-In . SVG Version: 6.00 Build 0)  -->
<!DOCTYPE svg PUBLIC "-//W3C//DTD SVG 1.1//EN" "http://www.w3.org/Graphics/SVG/1.1/DTD/svg11.dtd">
<svg version="1.1" id="Layer_1" xmlns="http://www.w3.org/2000/svg" xmlns:xlink="http://www.w3.org/1999/xlink" x="0px" y="0px"
	 width="280px" height="60px" viewBox="0 0 280 60" enable-background="new 0 0 280 60" xml:space="preserve">
<g id="Layer_1_1_">
</g>
<g id="GMM_BX_x2B_">
</g>
<g id="AUTO">
</g>
<g id="VIDA">
</g>
<g id="HOGAR">
</g>
<g id="A_PERSONALES">
</g>
<g id="Layer_9">
</g>
<g id="Layer_8">
	
		<linearGradient id="SVGID_1_" gradientUnits="userSpaceOnUse" x1="1141.8662" y1="551.7285" x2="1179.3066" y2="551.7285" gradientTransform="matrix(1 0 0 -1 0 61)">
		<stop  offset="0" style="stop-color:#FFFFFF;stop-opacity:0"/>
		<stop  offset="0.6222" style="stop-color:#808082;stop-opacity:0.6"/>
		<stop  offset="0.6305" style="stop-color:#7D7D7F;stop-opacity:0.6088"/>
		<stop  offset="0.7247" style="stop-color:#616162;stop-opacity:0.7085"/>
		<stop  offset="0.8184" style="stop-color:#4C4C4E;stop-opacity:0.8078"/>
		<stop  offset="0.9108" style="stop-color:#404041;stop-opacity:0.9055"/>
		<stop  offset="1" style="stop-color:#3C3C3D"/>
	</linearGradient>
	
		<rect x="1141.866" y="-598.002" display="none" opacity="0.54" fill="url(#SVGID_1_)" enable-background="new    " width="37.44" height="214.548"/>
</g>
<g enable-background="new    ">
	<path fill="#C8D51E" d="M27.07,16.22h0.59l0.16,0.49l8.65,26.94h2.28v3H28.42v-3h3.81l-1.86-6H18.23l-1.91,6h3.91v3h-10.1v-3h2.29
		l5.5-17.041l0.59-1.83l5.45-5.45l-0.57,1.81l-4.07,13.03h9.96l-4.47-14.45l-0.3-0.94L27.07,16.22z"/>
	<path fill="#C8D51E" d="M59.71,23.84l-0.19,0.67c-0.16,0.44-0.32,1.08-0.48,1.9c-0.16,0.83-0.25,1.62-0.28,2.38
		c-1.08-3.65-3.84-5.47-8.29-5.47c-2.76,0-5.07,0.99-6.93,2.97c-1.86,1.99-2.79,4.62-2.79,7.88v0.05c0,3.5,0.84,6.271,2.53,8.311
		c1.68,2.05,4.03,3.08,7.05,3.08c4.51,0,7.32-1.891,8.43-5.67v3.38c0,2.54-0.7,4.42-2.1,5.64c-1.4,1.23-3.28,1.84-5.67,1.84
		c-3.33,0-6.08-0.96-8.24-2.859v3.239c1.56,1.9,4.43,2.86,8.63,2.86c3.42,0,6.18-0.93,8.26-2.79s3.12-4.6,3.12-8.22V27.32h2.95
		v-3.48H59.71z M58.76,35.17c0,2.36-0.74,4.2-2.22,5.53c-1.47,1.33-3.26,2-5.36,2c-2.06,0-3.63-0.65-4.71-1.95
		c-1.08-1.3-1.62-3.16-1.62-5.58v-1.52c0-2.351,0.58-4.13,1.74-5.331c1.16-1.21,2.75-1.81,4.79-1.81c2.09,0,3.84,0.68,5.26,2.04
		c1.41,1.37,2.12,3.32,2.12,5.86V35.17z"/>
	<path fill="#C8D51E" d="M88.38,32.89c0-2.729-0.77-5.02-2.31-6.86c-1.54-1.84-3.9-2.76-7.07-2.76c-3.18,0-5.75,1.09-7.72,3.26
		c-1.97,2.18-2.95,5.041-2.95,8.6v0.04c0,3.88,1.04,6.85,3.12,8.91c2.08,2.07,4.91,3.1,8.5,3.1c1.91,0,3.56-0.239,4.95-0.72
		c1.4-0.47,2.35-1.04,2.86-1.71v-2.57c-1.81,1.24-4.25,1.851-7.33,1.851c-2.64,0-4.61-0.601-5.93-1.811
		c-1.32-1.2-2.01-3.22-2.07-6.04h15.62C88.27,35.16,88.38,34.06,88.38,32.89z M84.76,33.65H72.43c0.03-2.32,0.65-4.141,1.85-5.48
		c1.21-1.33,2.78-2,4.72-2c1.75,0,3.14,0.59,4.19,1.77c1.05,1.17,1.57,2.92,1.57,5.23V33.65z"/>
	<path fill="#C8D51E" d="M113.86,43.65V31.08c0-2.54-0.66-4.48-1.97-5.81c-1.32-1.33-3.12-2-5.41-2c-2.03,0-3.81,0.6-5.33,1.81
		c-1.53,1.21-2.48,2.87-2.86,5v-0.67c0-1.9-0.32-3.76-0.95-5.57h-6.01v3.48h2.96V43.65h-2.96v3h10.58v-3h-3.62v-9.62
		c0.06-2.32,0.75-4.13,2.07-5.45c1.32-1.32,2.99-1.98,5.02-1.98c2.99,0,4.48,1.29,4.48,3.86v13.19h-3.48v3h10.2v-3H113.86z"/>
	<path fill="#C8D51E" d="M129.44,44.13c-1.24,0-2.17-0.3-2.79-0.91c-0.62-0.6-0.93-1.66-0.93-3.189v-13h7.34v-3.19h-7.34v-6.67
		h-2.57c-0.03,0.19-0.06,0.46-0.1,0.81c-0.19,1.3-0.35,2.33-0.5,3.07c-0.14,0.75-0.37,1.41-0.69,1.98
		c-0.31,0.57-0.75,0.98-1.31,1.22c-0.55,0.23-1.31,0.37-2.26,0.4v2.38h3.43V40.32c0,1.75,0.36,3.16,1.07,4.239
		c0.72,1.08,1.56,1.801,2.53,2.16c0.96,0.37,2.08,0.55,3.35,0.55c2.39,0,3.97-0.63,4.77-1.899v-2
		C132.1,43.88,130.77,44.13,129.44,44.13z"/>
	<path fill="#C8D51E" d="M155.82,32.89c0-2.729-0.771-5.02-2.311-6.86c-1.54-1.84-3.899-2.76-7.069-2.76
		c-3.181,0-5.75,1.09-7.72,3.26c-1.97,2.18-2.95,5.041-2.95,8.6v0.04c0,3.88,1.04,6.85,3.12,8.91c2.08,2.07,4.91,3.1,8.5,3.1
		c1.91,0,3.561-0.239,4.95-0.72c1.4-0.47,2.351-1.04,2.86-1.71v-2.57c-1.811,1.24-4.25,1.851-7.33,1.851
		c-2.64,0-4.61-0.601-5.93-1.811c-1.32-1.2-2.01-3.22-2.07-6.04h15.62C155.71,35.16,155.82,34.06,155.82,32.89z M152.2,33.65h-12.33
		c0.03-2.32,0.649-4.141,1.85-5.48c1.21-1.33,2.78-2,4.721-2c1.75,0,3.14,0.59,4.189,1.77c1.05,1.17,1.57,2.92,1.57,5.23V33.65z"/>
	<path fill="#C8D51E" d="M173.02,34.84c-0.859-0.6-2.289-1.07-4.289-1.399c-2-0.341-3.381-0.681-4.15-1.03
		c-1.01-0.47-1.521-1.38-1.521-2.71c0-2.38,1.671-3.57,5-3.57c0.83,0,1.761,0.11,2.811,0.33v3.14h3.57v-4.62
		c-1.58-1.14-3.82-1.71-6.71-1.71c-2.511,0-4.521,0.57-6.03,1.71c-1.5,1.15-2.26,2.83-2.26,5.05c0,1.46,0.26,2.61,0.79,3.451
		c0.52,0.85,1.34,1.539,2.449,2.079c0.761,0.381,2.15,0.761,4.17,1.141c2.011,0.38,3.311,0.75,3.881,1.09
		c0.789,0.51,1.189,1.39,1.189,2.62c0,2.64-1.75,3.96-5.24,3.96c-1.59,0-2.97-0.21-4.14-0.62v-3.53h-3.58v4.58
		c2.2,1.58,4.93,2.38,8.2,2.38c2.5,0,4.55-0.609,6.14-1.81c1.59-1.21,2.38-2.92,2.38-5.15C175.68,37.81,174.79,36.02,173.02,34.84z"
		/>
	<path fill="#C8D51E" d="M209.73,33.6c-1.36-1.109-3.271-1.739-5.711-1.899V31.56c4.44-0.479,6.671-2.93,6.671-7.339
		c0-2.6-0.841-4.59-2.5-5.95c-1.671-1.37-3.95-2.05-6.841-2.05h-13.76v3.19h3.141v24.24h-3.141v3h13.57
		c3.91,0,6.649-0.71,8.24-2.141c1.59-1.43,2.38-3.52,2.38-6.29C211.78,36.25,211.1,34.71,209.73,33.6z M194.88,19.74h6
		c1.93,0,3.38,0.39,4.33,1.17c0.95,0.78,1.43,2.06,1.43,3.84c0,1.8-0.489,3.12-1.479,3.95c-0.98,0.82-2.521,1.24-4.62,1.24h-5.66
		V19.74z M206.16,42.2c-0.98,0.78-2.82,1.17-5.521,1.17h-5.76v-9.96h5.66c2.58,0,4.4,0.35,5.479,1.05c1.08,0.7,1.62,1.99,1.62,3.86
		C207.64,40.13,207.15,41.42,206.16,42.2z"/>
	<path fill="#C8D51E" d="M233.17,25.94l-2.38-2.39l-6.05,6.05l-6.05-6.05l-2.381,2.39l6.051,6.041l-6.051,6.05l2.381,2.38l6.05-6.04
		l6.05,6.04l2.38-2.38l-6.05-6.05L233.17,25.94z"/>
	<path fill="#C8D51E" d="M248.69,29.94v-7.72h-3.62v7.72h-7.19v3.43h7.19v7.76h3.62v-7.76h7.189v-3.43H248.69z"/>
</g>
<polygon fill="#6DAFC6" points="39.47,5.06 27.82,16.71 24.81,19.72 23.39,21.14 17.92,26.61 4.76,39.77 4.14,39.15 18.51,24.78 
	23.96,19.33 24.51,18.78 27.07,16.22 38.85,4.44 "/>
<rect x="257.761" y="9.808" transform="matrix(-0.7068 -0.7074 0.7074 -0.7068 416.3978 241.2759)" fill="#6DAFC6" width="0.872" height="49.086"/>
</svg>
