<?xml version="1.0" encoding="utf-8"?>
<!-- Generator: Adobe Illustrator 17.0.2, SVG Export Plug-In . SVG Version: 6.00 Build 0)  -->
<!DOCTYPE svg PUBLIC "-//W3C//DTD SVG 1.1//EN" "http://www.w3.org/Graphics/SVG/1.1/DTD/svg11.dtd">
<svg version="1.1" xmlns="http://www.w3.org/2000/svg" xmlns:xlink="http://www.w3.org/1999/xlink" x="0px" y="0px"
	 width="92.865px" height="91.758px" viewBox="0 0 92.865 91.758" enable-background="new 0 0 92.865 91.758" xml:space="preserve">
<g id="Layer_1">
</g>
<g id="GMM_BX_x2B_">
</g>
<g id="AUTO">
</g>
<g id="VIDA">
</g>
<g id="HOGAR">
</g>
<g id="A_PERSONALES">
</g>
<g id="Layer_9">
</g>
<g id="Layer_8">
	<linearGradient id="SVGID_1_" gradientUnits="userSpaceOnUse" x1="310.6303" y1="-218.0878" x2="348.0717" y2="-218.0878">
		<stop  offset="0" style="stop-color:#FFFFFF;stop-opacity:0"/>
		<stop  offset="0.6222" style="stop-color:#808082;stop-opacity:0.6"/>
		<stop  offset="0.6305" style="stop-color:#7D7D7F;stop-opacity:0.6088"/>
		<stop  offset="0.7247" style="stop-color:#616162;stop-opacity:0.7085"/>
		<stop  offset="0.8184" style="stop-color:#4C4C4E;stop-opacity:0.8078"/>
		<stop  offset="0.9108" style="stop-color:#404041;stop-opacity:0.9055"/>
		<stop  offset="1" style="stop-color:#3C3C3D"/>
	</linearGradient>
	<rect x="310.63" y="-325.362" display="none" opacity="0.54" fill="url(#SVGID_1_)" width="37.441" height="214.548"/>
</g>
<g id="VIÑETA">
	<g>
		<g>
			<linearGradient id="SVGID_2_" gradientUnits="userSpaceOnUse" x1="272.3006" y1="269.8535" x2="272.3006" y2="221.6332">
				<stop  offset="0" style="stop-color:#394049;stop-opacity:0"/>
				<stop  offset="0.0101" style="stop-color:#394048;stop-opacity:0.0101"/>
				<stop  offset="0.6342" style="stop-color:#2A2A2D;stop-opacity:0.6342"/>
				<stop  offset="1" style="stop-color:#252223"/>
			</linearGradient>
			<rect x="-327.243" y="227.011" fill="url(#SVGID_2_)" width="1199.086" height="48.345"/>
		</g>
	</g>
	<rect x="-328" y="194.323" fill="#394049" width="1199.964" height="56.868"/>
	<rect x="549.364" y="200.417" fill="#C8D51E" width="113.529" height="50.766"/>
	<g>
		<path fill="#FFFFFF" d="M-101.227,225.113c2.281-1.136,3.83-3.242,3.83-5.839c0-6.034-5.493-7.33-10.502-7.251h-13.597v28.936
			h13.964c6.225,0,11.316-2.107,11.316-8.997C-96.216,228.678-98.129,226.004-101.227,225.113 M-113.924,217.858h5.86
			c1.591,0,3.095,0.688,3.095,2.797c0,2.068-1.789,2.757-3.095,2.757h-5.86V217.858z M-107.859,234.921h-6.065v-6.646h6.065
			c2.278,0,4.072,0.85,4.072,3.403C-103.787,234.071-105.456,234.921-107.859,234.921"/>
		<polygon fill="#FFFFFF" points="-93.718,235.018 -84.925,226.268 -93.718,217.52 -88.094,211.918 -79.304,220.668 
			-70.514,211.918 -64.889,217.52 -73.678,226.268 -64.889,235.018 -70.514,240.622 -79.304,231.869 -88.094,240.622 		"/>
		<polygon fill="#FFFFFF" points="-52.371,230.23 -62.81,230.23 -62.81,222.31 -52.371,222.31 -52.371,211.918 -44.416,211.918 
			-44.416,222.31 -33.981,222.31 -33.981,230.23 -44.416,230.23 -44.416,240.622 -52.371,240.622 		"/>
	</g>
	<text transform="matrix(1 0 0 1 -3.4062 229.0126)" fill="#FFFFFF" font-family="'DuplicateSlab-Regular'" font-size="13.6068">Quiero una cuenta</text>
	<text transform="matrix(1 0 0 1 124.7266 229.0126)" fill="#FFFFFF" font-family="'DuplicateSlab-Regular'" font-size="13.6068">Quiero invertir</text>
	<text transform="matrix(1 0 0 1 340.1671 229.0126)" fill="#FFFFFF" font-family="'DuplicateSlab-Regular'" font-size="13.6068">Quiero un Seguro</text>
	<text transform="matrix(1 0 0 1 232.4464 229.0126)" fill="#FFFFFF" font-family="'DuplicateSlab-Regular'" font-size="13.6068">Quiero crédito</text>
	<text transform="matrix(1 0 0 1 466.0421 229.0126)" fill="#FFFFFF" font-family="'DuplicateSlab-Regular'" font-size="13.6068">Servicios</text>
	<text transform="matrix(1 0 0 1 565.5821 229.0126)" fill="#394049" font-family="'DuplicateSlab-Light'" font-size="13.6068">Acceso en Línea</text>
	<g>
		<defs>
			<rect id="SVGID_3_" x="-330.829" y="200.417" width="1205.387" height="778.054"/>
		</defs>
		<clipPath id="SVGID_4_">
			<use xlink:href="#SVGID_3_"  overflow="visible"/>
		</clipPath>
		<defs>
			<filter id="Adobe_OpacityMaskFilter" filterUnits="userSpaceOnUse" x="-329.93" y="252.003" width="1219.653" height="813.986">
				<feFlood  style="flood-color:white;flood-opacity:1" result="back"/>
				<feBlend  in="SourceGraphic" in2="back" mode="normal"/>
			</filter>
		</defs>
		
			<mask maskUnits="userSpaceOnUse" x="-329.93" y="252.003" width="1219.653" height="813.986" id="shutterstock_x5F_342193553_x5F_color.psd_2_">
			<g filter="url(#Adobe_OpacityMaskFilter)">
				<linearGradient id="SVGID_5_" gradientUnits="userSpaceOnUse" x1="-329.7234" y1="707.6068" x2="339.3848" y2="707.6068">
					<stop  offset="0.1786" style="stop-color:#262424"/>
					<stop  offset="0.313" style="stop-color:#292727"/>
					<stop  offset="0.4264" style="stop-color:#343232"/>
					<stop  offset="0.5323" style="stop-color:#454343"/>
					<stop  offset="0.6335" style="stop-color:#5D5C5C"/>
					<stop  offset="0.7314" style="stop-color:#7D7C7C"/>
					<stop  offset="0.8268" style="stop-color:#A4A3A3"/>
					<stop  offset="0.9185" style="stop-color:#D0D0D0"/>
					<stop  offset="1" style="stop-color:#FFFFFF"/>
				</linearGradient>
				
					<rect x="-329.723" y="245.668" opacity="0.8" clip-path="url(#SVGID_4_)" fill="url(#SVGID_5_)" width="669.108" height="923.878"/>
			</g>
		</mask>
		<g clip-path="url(#SVGID_4_)" mask="url(#shutterstock_x5F_342193553_x5F_color.psd_2_)">
			
				<image overflow="visible" width="3680" height="2456" id="shutterstock_x5F_342193553_x5F_color.psd" xlink:href="../../referencias/shutterstock_342193553_color.png"  transform="matrix(0.3314 0 0 0.3314 -329.9298 252.0032)">
			</image>
		</g>
	</g>
	<g>
		<g>
			<linearGradient id="SVGID_6_" gradientUnits="userSpaceOnUse" x1="272.3006" y1="269.8535" x2="272.3006" y2="221.6332">
				<stop  offset="0.0663" style="stop-color:#394049;stop-opacity:0"/>
				<stop  offset="0.4702" style="stop-color:#32353B;stop-opacity:0.4326"/>
				<stop  offset="1" style="stop-color:#252223"/>
			</linearGradient>
			<rect x="-327.243" y="227.011" fill="url(#SVGID_6_)" width="1199.086" height="48.345"/>
		</g>
	</g>
	<g>
		<g>
			<linearGradient id="SVGID_7_" gradientUnits="userSpaceOnUse" x1="272.2679" y1="295.3665" x2="272.2679" y2="247.1446">
				<stop  offset="0" style="stop-color:#394049;stop-opacity:0"/>
				<stop  offset="0.0101" style="stop-color:#394048;stop-opacity:0.0101"/>
				<stop  offset="0.6342" style="stop-color:#2A2A2D;stop-opacity:0.6342"/>
				<stop  offset="1" style="stop-color:#252223"/>
			</linearGradient>
			<rect x="-327.243" y="252.522" fill="url(#SVGID_7_)" width="1199.021" height="48.346"/>
		</g>
	</g>
	<rect x="-328" y="194" fill="#394049" width="1200" height="91.758"/>
	<path fill="#394049" d="M15.433,271.433c17.736-17.736,35.473-35.473,53.209-53.209L92.865,194H-328v91.758H1.107L15.433,271.433z"
		/>
	<path fill="#343E48" d="M0,0v91.758h1.107l14.325-14.325C33.169,59.697,50.905,41.96,68.642,24.224L92.865,0H0z"/>
	<polygon fill="#7A8590" points="93.007,194 1.249,285.758 872,285.758 872,194 	"/>
	<rect x="589.333" y="194" fill="#6DAFC6" width="146" height="91.758"/>
	<text transform="matrix(1 0 0 1 93.3608 243.9603)" fill="#FFFFFF" font-family="'DuplicateSlab-Regular'" font-size="13.6068">Principal</text>
	<g>
		<text transform="matrix(1 0 0 1 180.6502 243.9603)" fill="#FFFFFF" font-family="'DuplicateSlab-Regular'" font-size="13.6068">Autos</text>
	</g>
	<text transform="matrix(1 0 0 1 250.9834 243.9603)" fill="#FFFFFF" font-family="'DuplicateSlab-Regular'" font-size="13.6068">Hogar</text>
	<text transform="matrix(1 0 0 1 319.666 243.9603)" fill="#FFFFFF" font-family="'DuplicateSlab-Regular'" font-size="13.6068">Accidentes Personales</text>
	<text transform="matrix(1 0 0 1 480.5212 243.9603)" fill="#FFFFFF" font-family="'DuplicateSlab-Regular'" font-size="13.6068">Vida +</text>
	<text transform="matrix(1 0 0 1 759.7311 243.9603)" fill="#FFFFFF" font-family="'DuplicateSlab-Regular'" font-size="13.6068">Cerrar sesión</text>
	<g>
		<g>
			<path fill="#C8D51E" d="M-240.096,244.363l2.477-0.579c0.708,3.957,3.185,5.436,6.626,5.436c2.992,0,5.34-1.48,5.34-3.924
				c0-2.123-1.19-3.345-4.729-4.31l-2.509-0.676c-4.15-1.126-5.951-3.12-5.951-6.305c0-3.313,2.734-6.047,7.913-6.047
				c4.182,0,6.884,2.187,7.72,6.144l-2.413,0.547c-0.675-2.927-2.477-4.536-5.307-4.536c-3.474,0-5.211,1.512-5.211,3.667
				c0,1.994,0.965,3.185,3.892,3.957l2.542,0.676c4.986,1.319,6.884,3.603,6.884,6.658c0,3.892-3.635,6.369-8.171,6.369
				C-236.108,251.44-239.325,249.06-240.096,244.363z"/>
			<path fill="#C8D51E" d="M-220.958,243.109v-0.129c0-4.857,2.798-8.331,7.527-8.331c4.6,0,7.077,3.024,7.077,8.267v0.45h-11.999
				c0.096,3.86,2.059,6.144,5.147,6.144c1.705,0,3.217-0.901,4.503-3.345l2.187,0.868c-1.319,3.088-4.149,4.407-6.723,4.407
				C-218.031,251.44-220.958,248.159-220.958,243.109z M-218.256,241.533h9.264c-0.257-3.281-1.705-4.954-4.439-4.954
				C-216.005,236.579-217.806,238.541-218.256,241.533z"/>
			<path fill="#C8D51E" d="M-197.927,257.552c-4.857,0-7.527-1.64-7.527-4.407c0-1.737,0.997-2.96,3.313-3.539
				c-1.029-0.515-1.609-1.351-1.609-2.252c0-1.029,0.772-1.898,2.284-2.348c-1.93-0.965-3.023-2.734-3.023-4.793v-0.032
				c0-3.12,2.477-5.533,6.562-5.533c1.608,0,2.927,0.354,3.989,0.997c0.772-1.415,2.155-2.284,4.15-2.284h0.064v2.026
				c-1.48,0.032-2.412,0.418-3.12,1.126c0.965,0.965,1.48,2.252,1.48,3.667v0.032c0,3.12-2.477,5.533-6.562,5.533
				c-0.579,0-1.126-0.064-1.641-0.129c-1.319,0.418-1.705,0.868-1.705,1.383c0,0.579,0.451,0.965,1.673,0.997
				c4.021,0.096,5.887,0.386,7.302,1.061c1.48,0.708,2.316,2.027,2.316,3.442C-189.982,255.429-192.909,257.552-197.927,257.552z
				 M-192.491,252.888c0-1.48-1.769-2.541-6.337-2.541c-2.831,0-4.053,1.126-4.053,2.605c0,1.866,1.769,2.67,5.114,2.67
				C-194.357,255.622-192.491,254.399-192.491,252.888z M-193.875,240.214v-0.032c0-2.059-1.448-3.699-4.053-3.699
				c-2.606,0-4.053,1.641-4.053,3.699v0.032c0,2.059,1.448,3.699,4.053,3.699C-195.322,243.913-193.875,242.273-193.875,240.214z"/>
			<path fill="#C8D51E" d="M-177.341,247.677c-1.158,2.477-3.185,3.764-5.565,3.764c-3.732,0-5.436-2.606-5.436-5.694v-10.615h2.541
				v10.036c0,2.863,1.029,4.246,3.442,4.246c3.088,0,5.018-2.477,5.018-6.208v-8.074h2.541v15.826h-2.541V247.677z"/>
			<path fill="#C8D51E" d="M-171.553,250.958v-15.826h2.541v3.796c1.029-2.67,2.992-3.989,5.565-3.989
				c0.193,0,0.45,0.032,0.579,0.064v2.348c-0.258-0.032-0.611-0.064-0.901-0.064c-3.088,0-5.243,1.93-5.243,5.983v7.688H-171.553z"
				/>
			<path fill="#C8D51E" d="M-146.527,243.109c0,5.05-2.927,8.331-7.656,8.331c-4.729,0-7.656-3.281-7.656-8.331v-0.129
				c0-5.05,2.927-8.331,7.656-8.331c4.729,0,7.656,3.281,7.656,8.331V243.109z M-149.133,243.109v-0.129
				c0-4.085-2.091-6.401-5.05-6.401c-2.959,0-5.05,2.316-5.05,6.401v0.129c0,4.085,2.091,6.401,5.05,6.401
				C-151.224,249.51-149.133,247.194-149.133,243.109z"/>
			<path fill="#C8D51E" d="M-145.305,246.422l2.252-0.579c0.579,2.38,2.155,3.667,4.664,3.667c2.895,0,4.214-1.094,4.214-2.541
				c0-1.223-0.772-2.027-3.249-2.573l-2.091-0.451c-3.442-0.74-4.857-2.316-4.857-4.696c0-2.509,2.316-4.6,6.08-4.6
				c3.346,0,5.501,1.737,6.337,4.439l-2.219,0.579c-0.515-1.93-2.187-3.088-4.117-3.088c-2.252,0-3.603,1.029-3.603,2.413
				c0,1.287,0.643,2.091,2.831,2.573l2.091,0.451c3.764,0.804,5.34,2.316,5.34,4.729c0,2.638-2.573,4.696-6.755,4.696
				C-142.024,251.44-144.63,249.607-145.305,246.422z"/>
		</g>
		<g>
			<path fill="#FFFFFF" d="M-94.137,238.646c2.431-1.211,4.081-3.454,4.081-6.222c0-6.429-5.853-7.81-11.19-7.727h-14.488v30.833
				h14.88c6.633,0,12.058-2.246,12.058-9.587C-88.797,242.445-90.837,239.596-94.137,238.646 M-107.667,230.916h6.244
				c1.696,0,3.298,0.733,3.298,2.98c0,2.204-1.906,2.938-3.298,2.938h-6.244V230.916z M-101.204,249.098h-6.463v-7.081h6.463
				c2.427,0,4.339,0.906,4.339,3.626C-96.865,248.191-98.643,249.098-101.204,249.098"/>
			<polygon fill="#FFFFFF" points="-86.136,249.201 -76.766,239.877 -86.136,230.556 -80.144,224.586 -70.777,233.91 
				-61.41,224.586 -55.418,230.556 -64.782,239.877 -55.418,249.201 -61.41,255.172 -70.777,245.845 -80.144,255.172 			"/>
			<polygon fill="#FFFFFF" points="-42.079,244.099 -53.201,244.099 -53.201,235.66 -42.079,235.66 -42.079,224.586 
				-33.602,224.586 -33.602,235.66 -22.483,235.66 -22.483,244.099 -33.602,244.099 -33.602,255.172 -42.079,255.172 			"/>
		</g>
	</g>
	<g>
		<defs>
			<filter id="Adobe_OpacityMaskFilter_1_" filterUnits="userSpaceOnUse" x="-235.962" y="341.907" width="262.23" height="47.937">
				<feFlood  style="flood-color:white;flood-opacity:1" result="back"/>
				<feBlend  in="SourceGraphic" in2="back" mode="normal"/>
			</filter>
		</defs>
		<mask maskUnits="userSpaceOnUse" x="-235.962" y="341.907" width="262.23" height="47.937" id="SVGID_8_">
			<g filter="url(#Adobe_OpacityMaskFilter_1_)">
				<polygon fill="#000100" points="3.29,378.891 21.631,360.549 34.042,374.697 22.182,380.585 				"/>
				<polygon fill="#000100" points="-209.682,344.256 -228.023,362.597 -240.434,348.45 -228.574,342.562 				"/>
			</g>
		</mask>
		<g mask="url(#SVGID_8_)">
			
				<text transform="matrix(1 0 0 1 -235.2954 380.9374)" fill="#C8D51E" font-family="'DuplicateSlab-MediumItalic'" font-size="47.627">Agentes B×+</text>
		</g>
		
			<rect x="-222.869" y="331.843" transform="matrix(0.7071 0.7071 -0.7071 0.7071 186.8543 261.6671)" fill="#6DAFC6" width="0.872" height="49.087"/>
		
			<rect x="13.526" y="344.093" transform="matrix(0.7071 0.7071 -0.7071 0.7071 264.7549 98.0983)" fill="#6DAFC6" width="0.872" height="49.087"/>
	</g>
	<rect x="-240.096" y="440.982" fill="none" width="371.919" height="60.475"/>
	<text transform="matrix(1 0 0 1 -240.0972 461.3308)"><tspan x="0" y="0" fill="#394049" font-family="'DuplicateSlab-Regular'" font-size="30.2373">Bienvenido al Portal de </tspan><tspan x="0" y="36.285" fill="#394049" font-family="'DuplicateSlab-Regular'" font-size="30.2373">Agentes de </tspan><tspan x="151.941" y="36.285" fill="#6DAFC6" font-family="'DuplicateSlab-BoldItalic'" font-size="30.2373">Seguros B×+</tspan></text>
	<rect x="-240.096" y="549.809" fill="none" width="372.675" height="219.746"/>
	<text transform="matrix(1 0 0 1 -240.0962 561.4495)"><tspan x="0" y="0" fill="#394049" font-family="'Balto-Book'" font-size="16.6305">Nuestro objetivo es ofrecerte una nueva forma  </tspan><tspan x="0" y="19.957" fill="#394049" font-family="'Balto-Book'" font-size="16.6305">de administrar dinámicamente los recursos  </tspan><tspan x="0" y="39.914" fill="#394049" font-family="'Balto-Book'" font-size="16.6305">necesarios para </tspan><tspan x="118.989" y="39.914" fill="#394049" font-family="'Balto-Bold'" font-size="16.6305">solucionar tus necesidades  </tspan><tspan x="0" y="59.87" fill="#394049" font-family="'Balto-Bold'" font-size="16.6305">de ventas.</tspan><tspan x="0" y="99.783" fill="#394049" font-family="'Balto-Book'" font-size="16.6305">Hemos coordinado nuestros esfuerzos para  </tspan><tspan x="0" y="119.74" fill="#394049" font-family="'Balto-Book'" font-size="16.6305">brindarte una </tspan><tspan x="101.145" y="119.74" fill="#394049" font-family="'Balto-Bold'" font-size="16.6305">amplia gama de herramientas,  </tspan><tspan x="0" y="139.696" fill="#394049" font-family="'Balto-Bold'" font-size="16.6305">servicios y productos</tspan><tspan x="167.567" y="139.696" fill="#394049" font-family="'Balto-Book'" font-size="16.6305"> que te apoyarán en  </tspan><tspan x="0" y="159.653" fill="#394049" font-family="'Balto-Book'" font-size="16.6305">tu labor diaria.</tspan><tspan x="0" y="199.566" fill="#394049" font-family="'Balto-Bold'" font-size="16.6305">¡Te invitamos a participar!</tspan></text>
	<rect x="-328" y="1027.118" fill="none" width="1200" height="9.03"/>
	<text transform="matrix(1 0 0 1 215.5095 1035.8667)" fill="#394049" font-family="'DuplicateSlab-Medium'" font-size="13">Aviso de Privacidad</text>
	<rect x="-328" y="1044.487" fill="none" width="1200" height="26.667"/>
	<text transform="matrix(1 0 0 1 -32.1946 1053.5867)"><tspan x="0" y="0" fill="#394049" font-family="'Balto-Book'" font-size="13">Seguros Ve por Más S.A., Grupo Financiero Ve por Más, Paseo de la Reforma 243, piso 16, Col. Cuauhtémoc,  </tspan><tspan x="185.058" y="15.6" fill="#394049" font-family="'Balto-Book'" font-size="13">C.P. 06500, CDMX / Tel. 01 800 830 3676</tspan></text>
	<rect x="-337.389" y="962.487" fill="#394049" width="1213.389" height="52.5"/>
	<text transform="matrix(1 0 0 1 -240.0967 993.8575)" fill="#FFFFFF" font-family="'Balto-Book'" font-size="12">00 – Euro Compra: $21.800, Venta: $22.800 – Libra Esterlina Compra: $25.500, Venta: $26.500 – Yen Compra: $0.180, Venta: $0.190 – Dolar Canadiense Compra: $15.500, Venta: $16.500</text>
	<g>
		<g>
			<linearGradient id="SVGID_9_" gradientUnits="userSpaceOnUse" x1="272.2679" y1="207.878" x2="272.2679" y2="159.6561">
				<stop  offset="0" style="stop-color:#394049;stop-opacity:0"/>
				<stop  offset="0.0101" style="stop-color:#394048;stop-opacity:0.0101"/>
				<stop  offset="0.6342" style="stop-color:#2A2A2D;stop-opacity:0.6342"/>
				<stop  offset="1" style="stop-color:#252223"/>
			</linearGradient>
			<rect x="-327.243" y="165.034" fill="url(#SVGID_9_)" width="1199.021" height="48.346"/>
		</g>
	</g>
	<rect x="-328" y="143.017" fill="#7A8590" width="1200.004" height="50.983"/>
	<path fill="#FFFFFF" d="M295.716,163.552c-2.7,0-4.89,2.039-4.89,4.739c0,0.554,0.092,1.087,0.262,1.583h0
		c0.001,0.003,0.002,0.007,0.004,0.01c0.047,0.137,0.1,0.271,0.159,0.402c0.858,1.994,3.146,5.115,4.117,6.036
		c0.159,0.151,0.269,0.15,0.348,0.15c0.095,0,0.225-0.022,0.386-0.16c1.092-0.938,2.651-3.44,3.548-5.035
		c0.234-0.404,0.496-0.853,0.667-1.325c0.023-0.057,0.027-0.078,0.027-0.078c0.17-0.497,0.262-1.029,0.262-1.583
		C300.605,165.59,298.416,163.552,295.716,163.552z M295.716,170.284c-1.101,0-1.993-0.893-1.993-1.993s0.892-1.993,1.993-1.993
		s1.993,0.893,1.993,1.993S296.817,170.284,295.716,170.284z"/>
	<text transform="matrix(1 0 0 1 307.1554 175.9409)" fill="#FFFFFF" font-family="'DuplicateSlab-Regular'" font-size="17.4212">Sucursales</text>
	<text transform="matrix(1 0 0 1 514.501 175.9409)" fill="#FFFFFF" font-family="'DuplicateSlab-Regular'" font-size="17.4212">Chat</text>
	<text transform="matrix(1 0 0 1 430.589 175.9409)" fill="#FFFFFF" font-family="'DuplicateSlab-Regular'" font-size="17.4212">Blog</text>
	<path fill="#FFFFFF" d="M504.262,168.622c0-2.711-2.754-4.92-6.133-4.92c-3.38,0-6.128,2.209-6.128,4.92
		c0,1.377,0.688,2.652,1.908,3.573l0.1,3.148l2.599-1.96c0.494,0.106,1.005,0.157,1.521,0.157
		C501.508,173.54,504.262,171.333,504.262,168.622z M504.762,166.944c0.289,0.602,0.455,1.265,0.455,1.959
		c0.002,1.533-0.782,2.907-1.986,3.873c-1.208,0.966-2.85,1.55-4.65,1.553c-0.036,0-0.074-0.004-0.113-0.004
		c1.021,0.782,2.394,1.269,3.911,1.269c0.475,0,0.946-0.05,1.407-0.145l2.398,1.805l0.087-2.903c1.13-0.849,1.762-2.026,1.762-3.298
		C508.034,169.234,506.693,167.668,504.762,166.944z"/>
	<path fill="#FFFFFF" d="M573.942,169.776l0.337-2.61h-2.584v-1.666c0-0.756,0.211-1.27,1.294-1.27l1.381-0.001v-2.334
		c-0.238-0.032-1.058-0.103-2.013-0.103c-1.992,0-3.356,1.216-3.356,3.45v1.924h-2.254v2.61H569v6.696h2.694v-6.696H573.942z"/>
	<path fill="#FFFFFF" d="M602.482,165.421c-0.517,0.229-1.072,0.384-1.655,0.454c0.595-0.356,1.052-0.921,1.267-1.594
		c-0.556,0.33-1.172,0.57-1.829,0.699c-0.526-0.56-1.275-0.91-2.103-0.91c-1.591,0-2.881,1.29-2.881,2.881
		c0,0.226,0.025,0.446,0.074,0.656c-2.394-0.12-4.517-1.267-5.938-3.01c-0.247,0.426-0.39,0.921-0.39,1.449
		c0,0.999,0.508,1.882,1.281,2.398c-0.472-0.014-0.916-0.145-1.304-0.361v0.036c0,1.396,0.993,2.56,2.311,2.825
		c-0.242,0.066-0.497,0.102-0.759,0.102c-0.185,0-0.366-0.019-0.542-0.052c0.367,1.145,1.43,1.977,2.691,2.001
		c-0.985,0.772-2.227,1.233-3.578,1.233c-0.232,0-0.461-0.014-0.687-0.04c1.275,0.816,2.789,1.294,4.417,1.294
		c5.299,0,8.196-4.389,8.196-8.196c0-0.124-0.003-0.249-0.008-0.373C601.607,166.506,602.095,165.999,602.482,165.421z"/>
	<g>
		<path fill="#FFFFFF" d="M620.927,161.355h-0.937l-0.632,2.431l-0.658-2.431h-0.976c0.195,0.573,0.399,1.15,0.594,1.725
			c0.297,0.863,0.483,1.514,0.567,1.959v2.507h0.927v-2.507L620.927,161.355z M623.405,166.052v-1.616
			c0-0.493-0.084-0.853-0.26-1.087c-0.231-0.315-0.556-0.473-0.975-0.473c-0.417,0-0.742,0.158-0.973,0.473
			c-0.178,0.234-0.262,0.594-0.262,1.087v1.616c0,0.49,0.084,0.854,0.262,1.085c0.231,0.314,0.557,0.472,0.973,0.472
			c0.419,0,0.744-0.158,0.975-0.472C623.321,166.906,623.405,166.542,623.405,166.052z M622.569,166.209
			c0,0.427-0.129,0.64-0.398,0.64c-0.27,0-0.399-0.214-0.399-0.64v-1.941c0-0.427,0.13-0.639,0.399-0.639
			c0.269,0,0.398,0.212,0.398,0.639V166.209z M626.497,167.546v-4.613h-0.836v3.526c-0.186,0.262-0.361,0.391-0.528,0.391
			c-0.112,0-0.177-0.066-0.196-0.196c-0.01-0.027-0.01-0.129-0.01-0.325v-3.396h-0.833v3.648c0,0.325,0.028,0.546,0.075,0.686
			c0.083,0.234,0.269,0.343,0.538,0.343c0.305,0,0.622-0.185,0.955-0.567v0.503H626.497z"/>
		<g>
			<path fill="#FFFFFF" d="M623.876,172.229c-0.136,0-0.274,0.065-0.412,0.201v2.783c0.138,0.138,0.276,0.203,0.412,0.203
				c0.238,0,0.36-0.203,0.36-0.615v-1.949C624.236,172.441,624.114,172.229,623.876,172.229z"/>
			<path opacity="0.7" fill="#FFFFFF" d="M626.946,172.229c-0.277,0-0.415,0.212-0.415,0.634v0.422h0.827v-0.422
				C627.357,172.441,627.219,172.229,626.946,172.229z"/>
			<path fill="#FFFFFF" d="M628.967,169.908c-0.167-0.727-0.762-1.264-1.479-1.344c-1.698-0.19-3.416-0.19-5.126-0.19
				c-1.71,0-3.428,0-5.125,0.19c-0.717,0.08-1.312,0.617-1.479,1.344c-0.239,1.038-0.241,2.168-0.241,3.236
				c0,1.067,0,2.2,0.238,3.236c0.167,0.727,0.762,1.264,1.479,1.345c1.697,0.189,3.415,0.19,5.125,0.189
				c1.71,0.001,3.428,0,5.125-0.189c0.717-0.081,1.312-0.618,1.479-1.345c0.239-1.036,0.24-2.169,0.24-3.236
				C629.205,172.077,629.206,170.946,628.967,169.908z M619.421,170.842h-0.991v5.264h-0.92v-5.264h-0.973v-0.863h2.885V170.842z
				 M621.92,176.106h-0.828v-0.498c-0.328,0.377-0.641,0.561-0.945,0.561c-0.267,0-0.451-0.108-0.533-0.339
				c-0.046-0.139-0.073-0.356-0.073-0.679v-3.61h0.827v3.361c0,0.194,0,0.295,0.008,0.322c0.02,0.128,0.083,0.193,0.194,0.193
				c0.166,0,0.34-0.128,0.523-0.387v-3.489h0.828V176.106z M625.062,174.736c0,0.422-0.028,0.726-0.083,0.92
				c-0.111,0.339-0.332,0.513-0.661,0.513c-0.294,0-0.578-0.164-0.854-0.505v0.442h-0.827v-6.127h0.827v2.001
				c0.267-0.328,0.551-0.495,0.854-0.495c0.33,0,0.551,0.173,0.661,0.515c0.055,0.183,0.083,0.486,0.083,0.918V174.736z
				 M628.185,173.974h-1.654v0.809c0,0.423,0.138,0.634,0.422,0.634c0.203,0,0.322-0.111,0.37-0.332
				c0.008-0.045,0.018-0.228,0.018-0.559h0.844v0.12c0,0.266-0.011,0.45-0.018,0.533c-0.028,0.183-0.093,0.349-0.193,0.496
				c-0.229,0.331-0.569,0.495-1,0.495c-0.434,0-0.763-0.156-1.002-0.468c-0.176-0.228-0.265-0.589-0.265-1.073v-1.599
				c0-0.488,0.079-0.845,0.256-1.076c0.238-0.313,0.568-0.468,0.99-0.468c0.415,0,0.744,0.155,0.975,0.468
				c0.173,0.231,0.256,0.588,0.256,1.076V173.974z"/>
		</g>
	</g>
	<g>
		<path fill="#F0F1F1" d="M656.146,171.317v5.276h-3.059v-4.923c0-1.236-0.442-2.08-1.549-2.08c-0.845,0-1.347,0.568-1.569,1.119
			c-0.081,0.197-0.101,0.47-0.101,0.746v5.139h-3.059c0,0,0.041-8.338,0-9.201h3.059v1.304c-0.006,0.01-0.015,0.02-0.02,0.03h0.02
			v-0.03c0.407-0.626,1.132-1.52,2.757-1.52C654.638,167.177,656.146,168.491,656.146,171.317L656.146,171.317z M643.608,162.958
			c-1.047,0-1.731,0.687-1.731,1.589c0,0.883,0.665,1.59,1.691,1.59h0.02c1.067,0,1.73-0.707,1.73-1.59
			C645.298,163.644,644.655,162.958,643.608,162.958L643.608,162.958z M642.059,176.593h3.058v-9.201h-3.058V176.593z
			 M642.059,176.593"/>
	</g>
	<path fill="#FFFFFF" d="M423.215,175.284l-3.728-7.313v-3.899h0.391c0.4,0,0.724-0.257,0.724-0.573s-0.324-0.573-0.724-0.573
		h-0.391h-5.419h-0.395c-0.4,0-0.724,0.257-0.724,0.573s0.324,0.573,0.724,0.573h0.395v3.858l-3.734,7.357
		c-0.224,0.441-0.157,0.942,0.18,1.336c0.337,0.394,0.899,0.63,1.5,0.63h9.522c0.602,0,1.164-0.237,1.5-0.631
		S423.44,175.726,423.215,175.284z M415.412,168.357l0.104-0.206v-0.222v-3.858h2.522v3.899v0.222l0.105,0.206l0.859,1.685h-4.468
		L415.412,168.357z"/>
	<rect x="135.022" y="143.232" fill="#6DAFC6" width="140.24" height="50.768"/>
	<text transform="matrix(1 0 0 1 144.5391 176.605)" fill="#FFFFFF" font-family="'DuplicateSlab-Regular'" font-size="16.6446">Llámenme ahora</text>
	<g>
		<text transform="matrix(1 0 0 1 -105.7304 166.8315)"><tspan x="0" y="0" fill="#FFFFFF" font-family="'DuplicateSlab-Regular'" font-size="13.7772">Contáctanos al</tspan><tspan x="88.324" y="0" fill="#FFFFFF" font-family="'DuplicateSlab-Regular'" font-size="16.7722"> </tspan><tspan x="91.343" y="0" fill="#FFFFFF" font-family="'DuplicateSlab-Medium'" font-size="16.7722">01800</tspan><tspan x="137.918" y="0" fill="#FFFFFF" font-family="'DuplicateSlab-Regular'" font-size="16.7722"> </tspan><tspan x="140.938" y="0" fill="#C8D51E" font-family="'DuplicateSlab-RegularItalic'" font-size="16.7722">Ve por Más</tspan></text>
		<g>
			<text transform="matrix(1 0 0 1 37.939 180.1411)" fill="#C8D51E" font-family="'DuplicateSlab-Regular'" font-size="10.2634">8</text>
		</g>
		<g>
			<text transform="matrix(1 0 0 1 47.38 180.1411)" fill="#C8D51E" font-family="'DuplicateSlab-Regular'" font-size="10.2634">3</text>
		</g>
		<g>
			<text transform="matrix(1 0 0 1 58.3287 180.1411)" fill="#C8D51E" font-family="'DuplicateSlab-Regular'" font-size="10.2634">7</text>
		</g>
		<g>
			<text transform="matrix(1 0 0 1 66.9747 180.1411)" fill="#C8D51E" font-family="'DuplicateSlab-Regular'" font-size="10.2634">6</text>
		</g>
		<g>
			<text transform="matrix(1 0 0 1 76.3907 180.1411)" fill="#C8D51E" font-family="'DuplicateSlab-Regular'" font-size="10.2634">7</text>
		</g>
		<g>
			<text transform="matrix(1 0 0 1 88.9825 180.1411)" fill="#C8D51E" font-family="'DuplicateSlab-Regular'" font-size="10.2634">6</text>
		</g>
		<g>
			<text transform="matrix(1 0 0 1 99.1427 180.1411)" fill="#C8D51E" font-family="'DuplicateSlab-Regular'" font-size="10.2634">2</text>
		</g>
		<g>
			<text transform="matrix(1 0 0 1 108.6866 180.1411)" fill="#C8D51E" font-family="'DuplicateSlab-Regular'" font-size="10.2634">7</text>
		</g>
	</g>
	<text transform="matrix(1 0 0 1 614.9975 243.9603)" fill="#FFFFFF" font-family="'DuplicateSlab-Bold'" font-size="13.6068">Hola, Omar José</text>
</g>
</svg>
