<?xml version="1.0" encoding="utf-8"?>
<!-- Generator: Adobe Illustrator 16.0.0, SVG Export Plug-In . SVG Version: 6.00 Build 0)  -->
<!DOCTYPE svg PUBLIC "-//W3C//DTD SVG 1.1//EN" "http://www.w3.org/Graphics/SVG/1.1/DTD/svg11.dtd">
<svg version="1.1" id="Layer_1" xmlns="http://www.w3.org/2000/svg" xmlns:xlink="http://www.w3.org/1999/xlink" x="0px" y="0px"
	 width="222px" height="35px" viewBox="0 0 222 35" enable-background="new 0 0 222 35" xml:space="preserve">
<g id="Layer_1_1_">
</g>
<g id="GMM_BX_x2B_">
</g>
<g id="AUTO">
</g>
<g id="VIDA">
</g>
<g id="HOGAR">
</g>
<g id="A_PERSONALES">
</g>
<g id="Layer_9">
</g>
<g id="Layer_8">
	
		<linearGradient id="SVGID_1_" gradientUnits="userSpaceOnUse" x1="960.2529" y1="134.7588" x2="997.6943" y2="134.7588" gradientTransform="matrix(1 0 0 -1 0 36)">
		<stop  offset="0" style="stop-color:#FFFFFF;stop-opacity:0"/>
		<stop  offset="0.6222" style="stop-color:#808082;stop-opacity:0.6"/>
		<stop  offset="0.6305" style="stop-color:#7D7D7F;stop-opacity:0.6088"/>
		<stop  offset="0.7247" style="stop-color:#616162;stop-opacity:0.7085"/>
		<stop  offset="0.8184" style="stop-color:#4C4C4E;stop-opacity:0.8078"/>
		<stop  offset="0.9108" style="stop-color:#404041;stop-opacity:0.9055"/>
		<stop  offset="1" style="stop-color:#3C3C3D"/>
	</linearGradient>
	
		<rect x="960.253" y="-206.033" display="none" opacity="0.54" fill="url(#SVGID_1_)" enable-background="new    " width="37.441" height="214.548"/>
</g>
<g>
	<g>
		<path fill="#C8D51E" d="M2.193,20.794l2.477-0.579c0.708,3.957,3.185,5.436,6.626,5.436c2.992,0,5.34-1.479,5.34-3.924
			c0-2.123-1.19-3.345-4.729-4.31l-2.509-0.676c-4.15-1.126-5.951-3.12-5.951-6.305c0-3.313,2.734-6.047,7.913-6.047
			c4.182,0,6.884,2.187,7.72,6.144l-2.413,0.547c-0.675-2.927-2.477-4.536-5.307-4.536c-3.474,0-5.211,1.512-5.211,3.667
			c0,1.994,0.965,3.185,3.892,3.957l2.541,0.676c4.986,1.319,6.884,3.604,6.884,6.658c0,3.893-3.635,6.369-8.171,6.369
			C6.182,27.871,2.965,25.491,2.193,20.794z"/>
		<path fill="#C8D51E" d="M21.331,19.54v-0.129c0-4.857,2.798-8.331,7.527-8.331c4.6,0,7.077,3.024,7.077,8.268v0.449H23.937
			c0.096,3.86,2.059,6.145,5.147,6.145c1.705,0,3.217-0.901,4.503-3.346l2.187,0.868c-1.319,3.088-4.149,4.407-6.723,4.407
			C24.258,27.871,21.331,24.59,21.331,19.54z M24.033,17.964h9.264c-0.257-3.281-1.705-4.954-4.439-4.954
			C26.285,13.01,24.484,14.972,24.033,17.964z"/>
		<path fill="#C8D51E" d="M44.362,33.982c-4.857,0-7.527-1.641-7.527-4.406c0-1.737,0.997-2.959,3.313-3.539
			c-1.029-0.516-1.609-1.352-1.609-2.252c0-1.029,0.772-1.898,2.284-2.348c-1.93-0.965-3.023-2.734-3.023-4.793v-0.032
			c0-3.12,2.477-5.533,6.562-5.533c1.608,0,2.927,0.354,3.989,0.997c0.772-1.415,2.155-2.284,4.15-2.284h0.064v2.026
			c-1.48,0.032-2.412,0.418-3.12,1.126c0.965,0.965,1.48,2.252,1.48,3.667v0.032c0,3.121-2.477,5.533-6.562,5.533
			c-0.579,0-1.126-0.064-1.641-0.129c-1.319,0.418-1.705,0.868-1.705,1.383c0,0.579,0.45,0.965,1.673,0.997
			c4.021,0.097,5.887,0.386,7.302,1.062c1.48,0.707,2.316,2.027,2.316,3.441C52.308,31.859,49.38,33.982,44.362,33.982z
			 M49.798,29.318c0-1.479-1.769-2.541-6.337-2.541c-2.831,0-4.053,1.127-4.053,2.605c0,1.866,1.769,2.67,5.114,2.67
			C47.933,32.053,49.798,30.831,49.798,29.318z M48.415,16.645v-0.032c0-2.059-1.448-3.699-4.053-3.699
			c-2.606,0-4.053,1.641-4.053,3.699v0.032c0,2.059,1.448,3.699,4.053,3.699C46.968,20.344,48.415,18.704,48.415,16.645z"/>
		<path fill="#C8D51E" d="M64.948,24.107c-1.158,2.478-3.185,3.765-5.565,3.765c-3.732,0-5.436-2.606-5.436-5.694V11.562h2.541
			v10.036c0,2.863,1.029,4.246,3.442,4.246c3.088,0,5.018-2.477,5.018-6.208v-8.074h2.541v15.827h-2.541V24.107z"/>
		<path fill="#C8D51E" d="M70.737,27.389V11.562h2.542v3.796c1.029-2.67,2.992-3.989,5.565-3.989c0.193,0,0.45,0.032,0.579,0.064
			v2.348c-0.258-0.032-0.611-0.064-0.901-0.064c-3.088,0-5.243,1.93-5.243,5.983v7.688H70.737L70.737,27.389z"/>
		<path fill="#C8D51E" d="M95.763,19.54c0,5.05-2.927,8.331-7.656,8.331s-7.656-3.281-7.656-8.331v-0.129
			c0-5.05,2.927-8.331,7.656-8.331s7.656,3.281,7.656,8.331V19.54z M93.157,19.54v-0.129c0-4.085-2.091-6.401-5.05-6.401
			s-5.05,2.316-5.05,6.401v0.129c0,4.085,2.091,6.401,5.05,6.401S93.157,23.625,93.157,19.54z"/>
		<path fill="#C8D51E" d="M96.984,22.854l2.252-0.58c0.579,2.381,2.155,3.668,4.664,3.668c2.895,0,4.214-1.094,4.214-2.541
			c0-1.224-0.772-2.027-3.249-2.573l-2.091-0.45c-3.442-0.74-4.857-2.316-4.857-4.696c0-2.509,2.316-4.6,6.08-4.6
			c3.346,0,5.501,1.737,6.337,4.439l-2.219,0.579c-0.515-1.93-2.187-3.088-4.117-3.088c-2.252,0-3.603,1.029-3.603,2.413
			c0,1.287,0.643,2.091,2.831,2.573l2.091,0.45c3.764,0.804,5.34,2.316,5.34,4.729c0,2.639-2.573,4.696-6.755,4.696
			C100.265,27.871,97.66,26.038,96.984,22.854z"/>
	</g>
	<g>
		<path fill="#FFFFFF" d="M148.152,15.077c2.431-1.211,4.08-3.454,4.08-6.222c0-6.429-5.853-7.81-11.189-7.727h-14.488v30.833
			h14.881c6.633,0,12.058-2.246,12.058-9.587C153.492,18.876,151.453,16.027,148.152,15.077 M134.623,7.347h6.244
			c1.695,0,3.298,0.733,3.298,2.98c0,2.204-1.906,2.938-3.298,2.938h-6.244V7.347z M141.086,25.529h-6.463v-7.081h6.463
			c2.428,0,4.339,0.905,4.339,3.626C145.424,24.622,143.646,25.529,141.086,25.529"/>
		<polygon fill="#FFFFFF" points="156.154,25.632 165.523,16.308 156.154,6.987 162.146,1.017 171.514,10.341 180.879,1.017 
			186.872,6.987 177.508,16.308 186.872,25.632 180.879,31.604 171.514,22.275 162.146,31.604 		"/>
		<polygon fill="#FFFFFF" points="200.211,20.53 189.088,20.53 189.088,12.091 200.211,12.091 200.211,1.017 208.688,1.017 
			208.688,12.091 219.807,12.091 219.807,20.53 208.688,20.53 208.688,31.604 200.211,31.604 		"/>
	</g>
</g>
</svg>
