<?xml version="1.0" encoding="utf-8"?>
<!-- Generator: Adobe Illustrator 16.0.0, SVG Export Plug-In . SVG Version: 6.00 Build 0)  -->
<!DOCTYPE svg PUBLIC "-//W3C//DTD SVG 1.1//EN" "http://www.w3.org/Graphics/SVG/1.1/DTD/svg11.dtd">
<svg version="1.1" id="Layer_1" xmlns="http://www.w3.org/2000/svg" xmlns:xlink="http://www.w3.org/1999/xlink" x="0px" y="0px"
	 width="80px" height="28px" viewBox="0 0 80 28" enable-background="new 0 0 80 28" xml:space="preserve">
<g id="Layer_1_1_">
</g>
<g id="GMM_BX_x2B_">
</g>
<g id="AUTO">
</g>
<g id="VIDA">
</g>
<g id="HOGAR">
</g>
<g id="A_PERSONALES">
</g>
<g id="Layer_9">
</g>
<g id="Layer_8">
	
		<linearGradient id="SVGID_1_" gradientUnits="userSpaceOnUse" x1="291.3301" y1="326.1621" x2="328.7715" y2="326.1621" gradientTransform="matrix(1 0 0 -1 0 29)">
		<stop  offset="0" style="stop-color:#FFFFFF;stop-opacity:0"/>
		<stop  offset="0.6222" style="stop-color:#808082;stop-opacity:0.6"/>
		<stop  offset="0.6305" style="stop-color:#7D7D7F;stop-opacity:0.6088"/>
		<stop  offset="0.7247" style="stop-color:#616162;stop-opacity:0.7085"/>
		<stop  offset="0.8184" style="stop-color:#4C4C4E;stop-opacity:0.8078"/>
		<stop  offset="0.9108" style="stop-color:#404041;stop-opacity:0.9055"/>
		<stop  offset="1" style="stop-color:#3C3C3D"/>
	</linearGradient>
	
		<rect x="291.33" y="-404.436" display="none" opacity="0.54" fill="url(#SVGID_1_)" enable-background="new    " width="37.441" height="214.548"/>
</g>
<g>
	<g enable-background="new    ">
		<path fill="#C8D51E" d="M8.091,4.164L8.259,3.04h3.572l-0.167,1.124h-0.822l-4.512,9.594H4.083L2.171,4.164H1.349L1.517,3.04H5.14
			L4.972,4.164H3.647l1.694,8.906L9.45,4.164H8.091z"/>
		<path fill="#C8D51E" d="M14.583,13.942c-1.118,0-2.043-0.296-2.776-0.889s-1.099-1.499-1.099-2.718
			c0-1.442,0.397-2.604,1.191-3.488c0.794-0.883,1.778-1.325,2.952-1.325c1.018,0,1.792,0.26,2.323,0.78
			c0.531,0.52,0.796,1.21,0.796,2.071c0,0.503-0.101,1.067-0.302,1.694h-5.552v0.368c0,1.61,0.895,2.416,2.684,2.416
			c0.995,0,1.812-0.219,2.449-0.654l-0.117,0.905c-0.212,0.235-0.545,0.434-0.998,0.596C15.681,13.861,15.164,13.942,14.583,13.942z
			 M14.784,6.546c-0.738,0-1.314,0.246-1.728,0.738s-0.693,1.123-0.838,1.895h4.394c0.034-0.224,0.05-0.447,0.05-0.671
			C16.662,7.2,16.036,6.546,14.784,6.546z"/>
		<path fill="#C8D51E" d="M22.264,6.948l0.167-1.225h2.046c0.022,0.067,0.047,0.157,0.076,0.269c0.027,0.112,0.061,0.35,0.101,0.713
			c0.039,0.363,0.025,0.702-0.042,1.015c0.235-0.682,0.615-1.219,1.141-1.61c0.525-0.391,1.146-0.587,1.861-0.587
			c0.928,0,1.671,0.3,2.231,0.897c0.559,0.599,0.838,1.468,0.838,2.608c0,1.521-0.347,2.72-1.04,3.598
			c-0.694,0.878-1.61,1.316-2.751,1.316c-0.85,0-1.509-0.201-1.979-0.604c-0.47-0.403-0.76-0.934-0.872-1.594l-0.503,3.472h1.292
			l-0.151,0.99h-3.723l0.151-0.99h1.023l1.157-8.269H22.264z M26.675,12.936c0.85,0,1.498-0.354,1.945-1.064
			s0.671-1.691,0.671-2.943c0-1.543-0.71-2.314-2.13-2.314c-0.716,0-1.375,0.315-1.979,0.947c-0.604,0.632-0.906,1.518-0.906,2.658
			c0,0.861,0.221,1.529,0.663,2.005C25.381,12.698,25.959,12.936,26.675,12.936z"/>
		<path fill="#C8D51E" d="M35.329,13.942c-1.096,0-1.965-0.321-2.608-0.965c-0.644-0.643-0.965-1.567-0.965-2.775
			c0-1.286,0.38-2.387,1.141-3.304s1.778-1.376,3.053-1.376c1.151,0,2.038,0.327,2.658,0.981s0.931,1.546,0.931,2.675
			c0,1.477-0.392,2.64-1.174,3.489S36.57,13.942,35.329,13.942z M35.329,12.936c0.85,0,1.535-0.341,2.055-1.022
			s0.78-1.711,0.78-3.086c0-0.738-0.204-1.303-0.612-1.694s-0.948-0.587-1.618-0.587c-0.839,0-1.516,0.327-2.03,0.981
			c-0.514,0.653-0.771,1.663-0.771,3.027c0,0.816,0.207,1.417,0.621,1.803S34.692,12.936,35.329,12.936z"/>
		<path fill="#C8D51E" d="M40.98,6.948l0.168-1.225h2.063c0.135,0.839,0.135,1.768,0,2.784c0.291-0.928,0.668-1.644,1.133-2.146
			c0.464-0.503,0.931-0.755,1.4-0.755c0.402,0,0.671,0.106,0.805,0.318l-0.15,1.04c-1.018-0.044-1.803,0.216-2.356,0.78
			s-0.937,1.596-1.149,3.095l-0.268,1.861h1.476l-0.151,1.057h-3.924l0.151-1.057h1.04l0.805-5.753H40.98z"/>
		<path fill="#C8D51E" d="M58.441,13.758l0.15-1.057h1.375l1.174-8.285l-4.41,9.342h-1.594L53.325,4.5l-1.174,8.201h1.409
			l-0.151,1.057h-3.858l0.151-1.057h1.091L52,4.164h-1.107l0.168-1.124h3.355l1.727,9.393l4.395-9.393h3.371L63.74,4.164h-1.106
			l-1.208,8.537h1.124l-0.151,1.057H58.441z"/>
		<path fill="#C8D51E" d="M66.206,13.976c-0.683,0-1.253-0.179-1.71-0.536c-0.459-0.358-0.688-0.867-0.688-1.526
			c0-0.738,0.269-1.286,0.806-1.644c0.536-0.358,1.414-0.654,2.633-0.89c0.794-0.145,1.328-0.327,1.602-0.545
			s0.411-0.545,0.411-0.981c0-0.38-0.143-0.692-0.428-0.938s-0.724-0.369-1.317-0.369c-0.447,0-0.838,0.056-1.174,0.168
			l-0.184,1.375h-1.275l0.219-1.61c0.614-0.637,1.515-0.956,2.699-0.956c1.052,0,1.809,0.274,2.273,0.822
			c0.464,0.548,0.635,1.269,0.512,2.163l-0.486,3.506c-0.045,0.279-0.02,0.486,0.075,0.62c0.095,0.135,0.282,0.201,0.562,0.201
			c0.156,0,0.269-0.005,0.336-0.017l-0.117,0.822c-0.191,0.123-0.465,0.185-0.822,0.185c-1.018,0-1.51-0.521-1.477-1.561
			C68.207,13.405,67.391,13.976,66.206,13.976z M66.592,13.02c0.548,0,1.043-0.224,1.484-0.671c0.441-0.446,0.707-1,0.797-1.66
			l0.168-1.208c-0.213,0.168-0.738,0.392-1.577,0.671c-0.078,0.023-0.212,0.064-0.402,0.126s-0.321,0.106-0.394,0.135
			c-0.073,0.027-0.186,0.069-0.336,0.125c-0.15,0.057-0.258,0.104-0.318,0.143c-0.063,0.04-0.146,0.09-0.252,0.151
			c-0.106,0.062-0.18,0.126-0.219,0.193c-0.039,0.066-0.086,0.145-0.143,0.234c-0.055,0.09-0.092,0.188-0.108,0.294
			c-0.017,0.105-0.024,0.226-0.024,0.36c0,0.357,0.125,0.632,0.377,0.821C65.896,12.925,66.211,13.02,66.592,13.02z M67.263,4.718
			l1.175-2.248h2.012l-2.23,2.248H67.263z"/>
		<path fill="#C8D51E" d="M78.114,7.753h-1.258l0.151-1.006c-0.369-0.146-0.777-0.218-1.225-0.218c-1.118,0-1.678,0.464-1.678,1.392
			c0,0.369,0.151,0.644,0.453,0.822c0.269,0.146,0.725,0.291,1.367,0.436c0.643,0.146,1.088,0.313,1.333,0.504
			c0.503,0.391,0.755,0.928,0.755,1.609c0,0.816-0.273,1.462-0.822,1.938c-0.547,0.476-1.285,0.713-2.213,0.713
			c-1.365,0-2.354-0.341-2.969-1.023l0.201-1.426h1.258l-0.168,1.157c0.402,0.202,0.928,0.303,1.576,0.303
			c0.615,0,1.074-0.12,1.376-0.361c0.302-0.24,0.452-0.623,0.452-1.148c0-0.347-0.129-0.604-0.385-0.771
			c-0.168-0.123-0.576-0.263-1.225-0.42C74.447,10.096,74,9.939,73.754,9.783c-0.604-0.358-0.906-0.95-0.906-1.778
			c0-0.782,0.271-1.392,0.814-1.828c0.541-0.437,1.249-0.654,2.121-0.654c1.096,0,1.939,0.274,2.532,0.822L78.114,7.753z"/>
	</g>
	<g enable-background="new    ">
		<path fill="#C8D51E" d="M5.922,25.688c-0.438,0.349-0.975,0.523-1.611,0.523s-1.175-0.175-1.617-0.523
			c-0.441-0.349-0.662-0.814-0.662-1.396v-0.082c0-0.404,0.123-0.749,0.369-1.037c0.247-0.287,0.588-0.489,1.026-0.605
			c-0.363-0.109-0.651-0.289-0.867-0.539c-0.215-0.249-0.323-0.559-0.323-0.929V21.05c0-0.486,0.193-0.887,0.58-1.201
			c0.386-0.314,0.884-0.472,1.493-0.472c0.602,0,1.097,0.155,1.483,0.467c0.387,0.312,0.58,0.71,0.58,1.195v0.062
			c0,0.363-0.108,0.669-0.323,0.919c-0.216,0.25-0.505,0.433-0.867,0.549c0.431,0.116,0.771,0.316,1.021,0.601
			c0.25,0.284,0.375,0.628,0.375,1.031v0.082C6.579,24.871,6.36,25.34,5.922,25.688z M4.311,25.504c0.417,0,0.749-0.101,0.996-0.303
			c0.246-0.202,0.37-0.512,0.37-0.929v-0.164c0-0.377-0.122-0.676-0.365-0.898c-0.243-0.223-0.576-0.334-1-0.334
			s-0.759,0.111-1.006,0.334c-0.246,0.223-0.37,0.521-0.37,0.898v0.164c0,0.417,0.124,0.727,0.37,0.929
			C3.552,25.403,3.887,25.504,4.311,25.504z M4.311,22.302c0.376,0,0.674-0.091,0.893-0.272c0.219-0.181,0.328-0.449,0.328-0.806
			V21.07c0-0.288-0.109-0.525-0.328-0.714c-0.219-0.188-0.517-0.282-0.893-0.282c-0.383,0-0.684,0.095-0.903,0.282
			C3.189,20.545,3.08,20.782,3.08,21.07v0.153c0,0.356,0.109,0.625,0.328,0.806C3.627,22.211,3.928,22.302,4.311,22.302z"/>
	</g>
	<g enable-background="new    ">
		<path fill="#C8D51E" d="M13.372,19.366c0.602,0,1.102,0.163,1.499,0.487c0.397,0.325,0.595,0.744,0.595,1.258
			c0,0.431-0.122,0.78-0.364,1.047s-0.594,0.431-1.052,0.492v0.031c0.52,0.055,0.927,0.229,1.221,0.523
			c0.294,0.294,0.441,0.688,0.441,1.18c0,0.548-0.206,0.982-0.616,1.304c-0.411,0.322-0.965,0.482-1.663,0.482
			c-0.917,0-1.611-0.25-2.083-0.749v-0.678c0.513,0.459,1.191,0.688,2.032,0.688c0.472,0,0.83-0.105,1.073-0.317
			c0.243-0.212,0.364-0.514,0.364-0.903c0-0.787-0.506-1.181-1.519-1.181h-0.872v-0.708H13.3c0.862,0,1.293-0.366,1.293-1.099
			c0-0.355-0.113-0.626-0.339-0.811s-0.547-0.277-0.965-0.277c-0.636,0-1.214,0.192-1.734,0.575v-0.667
			C11.993,19.592,12.599,19.366,13.372,19.366z"/>
	</g>
	<g enable-background="new    ">
		<path fill="#C8D51E" d="M23.007,21.214h-0.76V19.51h4.291v1.067l-2.197,5.491h-0.903l2.35-5.799h-2.781V21.214z"/>
	</g>
	<g enable-background="new    ">
		<path fill="#C8D51E" d="M35.379,19.51v0.052c-0.821,0.383-1.531,0.845-2.13,1.386c-0.599,0.54-0.983,1.136-1.154,1.785
			c0.314-0.567,0.855-0.852,1.622-0.852c0.691,0,1.229,0.202,1.616,0.605c0.387,0.404,0.58,0.91,0.58,1.52v0.051
			c0,0.65-0.207,1.174-0.621,1.57c-0.414,0.397-0.983,0.596-1.709,0.596c-0.746,0-1.344-0.228-1.796-0.683s-0.677-1.063-0.677-1.822
			v-0.185c0-0.431,0.072-0.845,0.215-1.242c0.144-0.396,0.318-0.735,0.523-1.016c0.206-0.28,0.447-0.546,0.724-0.796
			c0.277-0.249,0.527-0.446,0.749-0.59c0.223-0.144,0.443-0.271,0.662-0.38H35.379z M33.562,22.527
			c-0.451,0-0.821,0.118-1.108,0.354c-0.287,0.235-0.438,0.542-0.452,0.918v0.257c0,0.452,0.142,0.811,0.426,1.078
			c0.284,0.267,0.668,0.399,1.154,0.399c0.472,0,0.83-0.131,1.073-0.395c0.243-0.264,0.364-0.617,0.364-1.063v-0.082
			c0-0.424-0.118-0.774-0.354-1.052S34.062,22.527,33.562,22.527z"/>
	</g>
	<g enable-background="new    ">
		<path fill="#C8D51E" d="M41.069,21.214h-0.76V19.51h4.29v1.067l-2.196,5.491H41.5l2.351-5.799h-2.781V21.214z"/>
	</g>
	<g enable-background="new    ">
		<path fill="#C8D51E" d="M57.387,19.51v0.052c-0.821,0.383-1.531,0.845-2.13,1.386c-0.599,0.54-0.983,1.136-1.154,1.785
			c0.314-0.567,0.854-0.852,1.622-0.852c0.69,0,1.229,0.202,1.615,0.605c0.387,0.404,0.58,0.91,0.58,1.52v0.051
			c0,0.65-0.207,1.174-0.621,1.57c-0.414,0.397-0.982,0.596-1.709,0.596c-0.745,0-1.344-0.228-1.795-0.683
			c-0.452-0.455-0.678-1.063-0.678-1.822v-0.185c0-0.431,0.072-0.845,0.215-1.242c0.145-0.396,0.318-0.735,0.523-1.016
			c0.206-0.28,0.447-0.546,0.725-0.796c0.277-0.249,0.526-0.446,0.748-0.59c0.223-0.144,0.443-0.271,0.662-0.38H57.387z
			 M55.57,22.527c-0.451,0-0.821,0.118-1.109,0.354c-0.287,0.235-0.438,0.542-0.451,0.918v0.257c0,0.452,0.143,0.811,0.426,1.078
			c0.284,0.267,0.669,0.399,1.154,0.399c0.473,0,0.83-0.131,1.073-0.395s0.364-0.617,0.364-1.063v-0.082
			c0-0.424-0.118-0.774-0.354-1.052C56.438,22.666,56.069,22.527,55.57,22.527z"/>
	</g>
	<g enable-background="new    ">
		<path fill="#C8D51E" d="M63.186,26.068v-1.058c1.107-0.738,1.922-1.392,2.441-1.96c0.521-0.567,0.781-1.129,0.781-1.683
			c0-0.821-0.428-1.232-1.283-1.232c-0.637,0-1.238,0.209-1.807,0.626v-0.677c0.451-0.479,1.07-0.719,1.857-0.719
			c0.637,0,1.15,0.163,1.539,0.487c0.391,0.325,0.586,0.837,0.586,1.535c0,0.684-0.297,1.334-0.889,1.949
			c-0.592,0.616-1.473,1.28-2.643,1.991v0.011h2.895v-0.77h0.76v1.498H63.186z"/>
	</g>
	<g enable-background="new    ">
		<path fill="#C8D51E" d="M73.365,21.214h-0.76V19.51h4.291v1.067l-2.197,5.491h-0.902l2.35-5.799h-2.781V21.214z"/>
	</g>
</g>
</svg>
