<?xml version="1.0" standalone="no"?>
<!DOCTYPE svg PUBLIC "-//W3C//DTD SVG 1.1//EN" "http://www.w3.org/Graphics/SVG/1.1/DTD/svg11.dtd" >
<svg>
<metadata>
Created by FontForge 20090622 at Tue Aug  4 23:50:36 2015
 By deploy user
Copyright 2013 Type Supply LLC. All rights reserved.
</metadata>
<defs>
<font id="Balto-BookItalic" horiz-adv-x="590" >
  <font-face 
    font-family="Balto Book"
    font-weight="400"
    font-style="italic"
    font-stretch="normal"
    units-per-em="1000"
    panose-1="2 11 5 3 4 5 2 9 2 3"
    ascent="810"
    descent="-190"
    x-height="492"
    cap-height="700"
    bbox="-156 -209 1202 956"
    underline-thickness="71"
    underline-position="-67"
    slope="-12"
    unicode-range="U+0020-U+FB02"
  />
<missing-glyph horiz-adv-x="208" 
 />
    <glyph glyph-name=".notdef" horiz-adv-x="208" 
 />
    <glyph glyph-name=".null" horiz-adv-x="0" 
 />
    <glyph glyph-name="nonmarkingreturn" horiz-adv-x="333" 
 />
    <glyph glyph-name="space" unicode=" " horiz-adv-x="208" 
 />
    <glyph glyph-name="exclam" unicode="!" horiz-adv-x="305" 
d="M159 198h-69l92 502h99zM134 0h-103l23 110h103z" />
    <glyph glyph-name="quotedbl" unicode="&#x22;" horiz-adv-x="383" 
d="M107 479l41 221h79l-53 -221h-67zM273 479l41 221h79l-53 -221h-67z" />
    <glyph glyph-name="numbersign" unicode="#" horiz-adv-x="543" 
d="M365 420h-123l-62 -174h123zM24 0l68 188h-103l21 58h103l62 174h-103l22 58h102l68 188h67l-68 -188h123l68 188h67l-68 -188h103l-22 -58h-102l-62 -174h102l-21 -58h-102l-68 -188h-67l68 188h-123l-68 -188h-67z" />
    <glyph glyph-name="dollar" unicode="$" horiz-adv-x="553" 
d="M262 395l4 -2l48 223q-65 -1 -99 -32.5t-34 -84.5q0 -70 81 -104zM397 175q0 34 -20 60t-71 50l-50 -235q63 3 102 36.5t39 88.5zM220 -119h-62l23 110q-73 16 -120 69t-58 135l78 17q18 -128 114 -155l54 253l-29 13q-122 54 -122 174q0 79 60.5 131.5t162.5 52.5h7
l22 104h62l-24 -113q58 -17 96.5 -62.5t51.5 -112.5l-75 -15q-22 98 -87 124l-51 -237l16 -7q79 -34 111.5 -80t32.5 -109q0 -81 -70.5 -134.5t-170.5 -53.5z" />
    <glyph glyph-name="percent" unicode="%" horiz-adv-x="816" 
d="M210 308q-68 0 -108.5 41.5t-40.5 112.5q0 78 53 148.5t138 70.5q68 0 108.5 -41.5t40.5 -112.5q0 -78 -53 -148.5t-138 -70.5zM100 0l543 666h74l-543 -666h-74zM213 368q35 0 64 29q50 50 50 132q0 92 -78 92q-35 0 -64 -29q-50 -50 -50 -132q0 -92 78 -92zM565 -15
q-68 0 -108.5 41.5t-40.5 112.5q0 78 53 148.5t138 70.5q68 0 108.5 -41.5t40.5 -112.5q0 -78 -53 -148.5t-138 -70.5zM568 45q35 0 64 29q50 50 50 132q0 92 -78 92q-35 0 -64 -29q-50 -50 -50 -132q0 -92 78 -92z" />
    <glyph glyph-name="ampersand" unicode="&#x26;" horiz-adv-x="667" 
d="M235 519q0 -45 19 -99q91 31 129 68t38 83q0 36 -22.5 56.5t-61.5 20.5q-44 0 -73 -36.5t-29 -92.5zM204 52q82 0 158 58q-105 118 -159 229q-134 -45 -134 -160q0 -57 37.5 -92t97.5 -35zM415 52l-7 7q-97 -74 -208 -74q-98 0 -157.5 52t-59.5 139q0 73 48.5 130
t146.5 91q-25 65 -25 119q0 83 51.5 141t134.5 58q73 0 117 -41t44 -99q0 -66 -55 -122t-166 -92q48 -98 141 -198q72 76 131 201l66 -24q-68 -141 -148 -226l10 -10q22 -21 40 -28.5t45 -7.5h23l-14 -68h-19q-87 0 -139 52z" />
    <glyph glyph-name="quotesingle" unicode="'" horiz-adv-x="217" 
d="M107 479l41 221h79l-53 -221h-67z" />
    <glyph glyph-name="parenleft" unicode="(" horiz-adv-x="357" 
d="M219 -132h-79q-95 146 -95 331q0 140 76.5 294.5t208.5 266.5h79q-143 -132 -212.5 -281t-69.5 -284q0 -180 92 -327z" />
    <glyph glyph-name="parenright" unicode=")" horiz-adv-x="357" 
d="M19 -132h-79q143 132 212.5 281t69.5 284q0 180 -92 327h79q95 -146 95 -331q0 -140 -76.5 -294.5t-208.5 -266.5z" />
    <glyph glyph-name="asterisk" unicode="*" horiz-adv-x="431" 
d="M291 375l-39 123l-95 -123l-56 48l120 97l-128 27l32 74l118 -62l12 141h77l-48 -141l133 58l17 -71l-145 -26l73 -105z" />
    <glyph glyph-name="plus" unicode="+" horiz-adv-x="561" 
d="M499 309h-192l-42 -195h-61l42 195h-192l12 60h192l42 196h61l-42 -196h192z" />
    <glyph glyph-name="comma" unicode="," horiz-adv-x="240" 
d="M-31 -135l76 135h-46l23 110h102l-23 -110l-81 -135h-51z" />
    <glyph glyph-name="hyphen" unicode="-" horiz-adv-x="367" 
d="M43 323l15 71h279l-15 -71h-279z" />
    <glyph glyph-name="period" unicode="." horiz-adv-x="240" 
d="M101 0h-102l23 110h102z" />
    <glyph glyph-name="slash" unicode="/" horiz-adv-x="445" 
d="M-100 -140l537 920h81l-537 -920h-81z" />
    <glyph glyph-name="zero" unicode="0" horiz-adv-x="624" 
d="M592 430q0 -78 -22 -156t-62 -143t-104 -105.5t-140 -40.5q-103 0 -166.5 68t-63.5 183q0 78 22 156t62 143t104 105.5t140 40.5q103 0 166.5 -68t63.5 -183zM117 233q0 -88 41 -135.5t109 -47.5q70 0 127 57q54 54 84.5 144t30.5 182q0 88 -41 135.5t-109 47.5
q-70 0 -127 -57q-54 -54 -84.5 -144t-30.5 -182z" />
    <glyph glyph-name="one" unicode="1" horiz-adv-x="429" 
d="M-33 0l14 66h143l109 511q-84 -43 -155 -56l13 64q78 22 180 81h62l-128 -600h143l-14 -66h-367z" />
    <glyph glyph-name="two" unicode="2" horiz-adv-x="513" 
d="M401 0h-432l14 65l276 208q96 72 130.5 124t34.5 108q0 49 -32 80t-84 31q-116 0 -188 -162l-67 25q37 94 105.5 148t151.5 54q90 0 143.5 -52.5t53.5 -125.5t-42 -135t-147 -139l-223 -163h320z" />
    <glyph glyph-name="three" unicode="3" horiz-adv-x="527" 
d="M228 -15q-96 0 -159.5 53t-80.5 148l72 22q35 -158 172 -158q71 0 113 38.5t42 106.5q0 112 -132 112h-54l14 63h44q85 0 129.5 35.5t44.5 97.5q0 50 -34 81.5t-96 31.5q-57 0 -102.5 -39.5t-69.5 -110.5l-67 24q25 83 91.5 137t152.5 54q97 0 153.5 -53.5t56.5 -126.5
q0 -55 -43.5 -101t-114.5 -62q54 -16 82 -56.5t28 -89.5q0 -88 -69 -147.5t-173 -59.5z" />
    <glyph glyph-name="four" unicode="4" horiz-adv-x="547" 
d="M282 0l32 153h-342l12 57l424 456h98l-96 -450h88l-13 -63h-88l-33 -153h-82zM328 216l74 349l-325 -349h251z" />
    <glyph glyph-name="five" unicode="5" horiz-adv-x="547" 
d="M232 -15q-94 0 -154.5 50t-76.5 138l77 21q30 -144 159 -144q70 0 118.5 53t48.5 141q0 59 -31.5 94.5t-88.5 35.5q-46 0 -85 -20.5t-82 -65.5l-71 19l94 359h395l-14 -66h-324l-64 -242q76 81 169 81q86 0 136.5 -54.5t50.5 -142.5q0 -110 -76 -183.5t-181 -73.5z" />
    <glyph glyph-name="six" unicode="6" horiz-adv-x="578" 
d="M527 240q0 -107 -76.5 -181t-191.5 -74q-102 0 -163.5 65t-61.5 187q0 111 39.5 211.5t116.5 166.5t174 66q76 0 125.5 -40t71.5 -109l-74 -23q-34 107 -127 107q-81 0 -143 -74t-89 -209q35 51 87.5 79t107.5 28q90 0 147 -59t57 -141zM261 50q82 0 132 53t50 139
q0 56 -38.5 94.5t-99.5 38.5q-80 0 -134.5 -53t-54.5 -130q0 -64 41 -103t104 -39z" />
    <glyph glyph-name="seven" unicode="7" horiz-adv-x="470" 
d="M160 0h-87q112 362 363 600h-373l14 66h455l-15 -69q-134 -125 -219 -267t-138 -330z" />
    <glyph glyph-name="eight" unicode="8" horiz-adv-x="560" 
d="M237 -15q-110 0 -177 53t-67 133q0 63 48.5 113.5t135.5 65.5q-49 23 -75 60.5t-26 80.5q0 77 67.5 133.5t176.5 56.5q110 0 167.5 -50t57.5 -125q0 -57 -45.5 -101.5t-113.5 -59.5q52 -22 84.5 -65t32.5 -90q0 -87 -72 -146t-194 -59zM305 377q71 0 115 37t44 95
q0 48 -38.5 77.5t-107.5 29.5q-72 0 -117.5 -37.5t-45.5 -93.5q0 -49 40.5 -78.5t109.5 -29.5zM242 50q81 0 130.5 39.5t49.5 96.5q0 56 -44 92.5t-122 36.5q-83 0 -132 -40.5t-49 -98.5q0 -54 45 -90t122 -36z" />
    <glyph glyph-name="nine" unicode="9" horiz-adv-x="578" 
d="M275 298q83 0 137.5 48.5t54.5 120.5q0 65 -43.5 107t-110.5 42q-77 0 -125.5 -52.5t-48.5 -130.5q0 -63 37.5 -99t98.5 -36zM220 -15q-173 0 -216 161l76 24q33 -120 144 -120q81 0 144 76t89 215q-33 -51 -83 -79.5t-110 -28.5q-92 0 -150.5 55t-58.5 148
q0 98 73.5 171.5t187.5 73.5q105 0 169 -64.5t64 -184.5q0 -187 -95.5 -317t-233.5 -130z" />
    <glyph glyph-name="colon" unicode=":" horiz-adv-x="260" 
d="M75 312l24 110h102l-24 -110h-102zM9 0l23 110h102l-23 -110h-102z" />
    <glyph glyph-name="semicolon" unicode=";" horiz-adv-x="260" 
d="M75 312l24 110h102l-24 -110h-102zM-21 -135l76 135h-46l23 110h102l-23 -110l-81 -135h-51z" />
    <glyph glyph-name="less" unicode="&#x3c;" horiz-adv-x="561" 
d="M441 99l-395 209l13 61l484 209l-17 -73l-402 -170l330 -171z" />
    <glyph glyph-name="equal" unicode="=" horiz-adv-x="561" 
d="M92 410l13 60h411l-13 -60h-411zM49 207l13 60h411l-13 -60h-411z" />
    <glyph glyph-name="greater" unicode="&#x3e;" horiz-adv-x="561" 
d="M21 99l17 73l402 170l-330 171l13 65l395 -209l-13 -61z" />
    <glyph glyph-name="question" unicode="?" horiz-adv-x="534" 
d="M172 198l31 146h17q103 0 161.5 46t58.5 133q0 58 -30.5 93t-85.5 35q-115 0 -179 -163l-68 23q34 94 99 149t150 55q93 0 144.5 -53t51.5 -137q0 -101 -71.5 -166t-179.5 -74l-18 -87h-81zM222 0h-103l23 110h103z" />
    <glyph glyph-name="at" unicode="@" horiz-adv-x="933" 
d="M439 -171q-197 0 -302.5 90.5t-105.5 266.5q0 127 59.5 237.5t170 179t247.5 68.5q174 0 272 -89.5t98 -241.5q0 -145 -75.5 -238t-173.5 -93q-40 0 -66.5 23.5t-29.5 69.5q-60 -93 -142 -93q-70 0 -111 48t-41 130q0 114 66 198t159 84q41 0 69.5 -26.5t41.5 -69.5
l17 82h79l-64 -301q-9 -40 1 -60.5t33 -20.5q62 0 113 75.5t51 191.5q0 128 -78 199.5t-219 71.5q-175 0 -289.5 -126t-114.5 -299q0 -145 86 -219.5t249 -74.5q69 0 165 22l10 -61q-99 -24 -175 -24zM401 69q48 0 86 38q63 63 63 180q0 58 -21.5 90t-59.5 32q-41 0 -80 -37
q-69 -69 -69 -191q0 -54 22 -83t59 -29z" />
    <glyph glyph-name="A" unicode="A" horiz-adv-x="634" 
d="M424 282l-47 333l-188 -333h235zM463 0l-30 212h-283l-120 -212h-85l404 700h93l107 -700h-86z" />
    <glyph glyph-name="B" unicode="B" horiz-adv-x="619" 
d="M268 0h-265l149 700h231q100 0 152.5 -43.5t52.5 -116.5q0 -68 -47 -116t-123 -63q61 -12 94.5 -49t33.5 -90q0 -106 -78 -164t-200 -58zM221 634l-52 -242h159q80 0 126 38t46 106q0 98 -133 98h-146zM100 66h170q86 0 137.5 38.5t51.5 118.5q0 103 -138 103h-166z" />
    <glyph glyph-name="C" unicode="C" horiz-adv-x="642" 
d="M579 204q-44 -107 -118 -163t-169 -56q-121 0 -186 78t-65 211q0 56 14 116.5t44 118.5t70.5 104t99 74t124.5 28q93 0 153 -57t79 -164l-80 -11q-14 81 -53.5 123t-100.5 42q-81 0 -146 -65q-55 -56 -87 -142.5t-32 -169.5q0 -102 44.5 -160.5t123.5 -58.5
q139 0 216 180z" />
    <glyph glyph-name="D" unicode="D" horiz-adv-x="681" 
d="M3 0l149 700h205q149 0 221 -73t72 -196q0 -85 -25.5 -161.5t-73 -137t-123.5 -96.5t-170 -36h-255zM100 68h163q120 0 199 79q103 102 103 287q0 198 -217 198h-128z" />
    <glyph glyph-name="E" unicode="E" 
d="M469 69l-15 -69h-451l149 700h451l-15 -69h-368l-50 -238h323l-15 -68h-323l-54 -256h368z" />
    <glyph glyph-name="F" unicode="F" horiz-adv-x="549" 
d="M456 309h-304l-66 -309h-83l149 700h436l-15 -69h-353l-54 -254h304z" />
    <glyph glyph-name="G" unicode="G" horiz-adv-x="684" 
d="M481 0l23 107q-84 -122 -217 -122q-115 0 -181 79.5t-66 209.5q0 56 14.5 116.5t45 118.5t73 104t103 74t129.5 28q94 0 157 -56.5t80 -150.5l-77 -13q-30 153 -163 153q-91 0 -162 -71q-54 -54 -84.5 -137.5t-30.5 -168.5q0 -101 45.5 -160t130.5 -59q75 0 139 55
t87 157l4 18h-205l14 67h289l-74 -349h-74z" />
    <glyph glyph-name="H" unicode="H" horiz-adv-x="663" 
d="M3 0l149 700h83l-66 -308h351l66 308h83l-149 -700h-83l69 322h-351l-69 -322h-83z" />
    <glyph glyph-name="I" unicode="I" horiz-adv-x="237" 
d="M7 0l149 700h83l-149 -700h-83z" />
    <glyph glyph-name="J" unicode="J" horiz-adv-x="417" 
d="M99 -14q-87 0 -148 59l44 59q56 -48 109 -48q98 0 123 119l112 525h83l-113 -530q-19 -93 -75 -138.5t-135 -45.5z" />
    <glyph glyph-name="K" unicode="K" horiz-adv-x="642" 
d="M449 0l-148 356l-175 -167l-40 -189h-83l149 700h83l-85 -401l415 401h99l-300 -288l176 -412h-91z" />
    <glyph glyph-name="L" unicode="L" horiz-adv-x="554" 
d="M3 0l149 700h83l-134 -631h354l-15 -69h-437z" />
    <glyph glyph-name="M" unicode="M" horiz-adv-x="825" 
d="M81 0h-78l149 700h120l86 -605l344 605h129l-149 -700h-83l131 615l-350 -615h-80l-89 611z" />
    <glyph glyph-name="N" unicode="N" horiz-adv-x="670" 
d="M80 0h-77l149 700h96l225 -591l126 591h77l-149 -700h-94l-227 596z" />
    <glyph glyph-name="O" unicode="O" horiz-adv-x="700" 
d="M669 426q0 -56 -14.5 -116.5t-44.5 -118.5t-72 -104t-102.5 -74t-130.5 -28q-130 0 -197.5 77.5t-67.5 211.5q0 56 14.5 116.5t44.5 118.5t72 104t102.5 74t130.5 28q130 0 197.5 -77.5t67.5 -211.5zM125 271q0 -104 46 -161.5t137 -57.5t159 70q55 55 86 139.5t31 167.5
q0 104 -46 161.5t-137 57.5t-159 -70q-55 -55 -86 -139.5t-31 -167.5z" />
    <glyph glyph-name="P" unicode="P" horiz-adv-x="613" 
d="M221 633l-61 -286h180q95 0 142.5 46.5t47.5 116.5q0 123 -154 123h-155zM328 280h-182l-60 -280h-83l149 700h235q115 0 173.5 -47t58.5 -136q0 -102 -74.5 -169.5t-216.5 -67.5z" />
    <glyph glyph-name="Q" unicode="Q" horiz-adv-x="700" 
d="M502 -133q-58 0 -89.5 25.5t-45.5 89.5l-2 9q-29 -6 -60 -6q-130 0 -197.5 77.5t-67.5 211.5q0 56 14.5 116.5t44.5 118.5t72 104t102.5 74t130.5 28q130 0 197.5 -77.5t67.5 -211.5q0 -121 -62.5 -242.5t-172.5 -171.5q12 -45 31.5 -60.5t59.5 -15.5q11 0 29 2l-15 -68
q-17 -3 -37 -3zM125 271q0 -104 46 -161.5t137 -57.5t159 70q55 55 86 139.5t31 167.5q0 104 -46 161.5t-137 57.5t-159 -70q-55 -55 -86 -139.5t-31 -167.5z" />
    <glyph glyph-name="R" unicode="R" horiz-adv-x="626" 
d="M221 633l-56 -262h174q85 0 132 40.5t47 106.5q0 54 -34 84.5t-97 30.5h-166zM434 0l-121 304h-162l-65 -304h-83l149 700h246q100 0 153.5 -49t53.5 -129q0 -88 -56 -142.5t-154 -69.5l126 -310h-87z" />
    <glyph glyph-name="S" unicode="S" horiz-adv-x="610" 
d="M532 190q0 -92 -70 -148.5t-182 -56.5q-113 0 -184 60t-89 163l81 16q14 -83 66.5 -127.5t132.5 -44.5q71 0 115 35.5t44 87.5q0 42 -25.5 70.5t-95.5 60.5l-73 33q-78 35 -111.5 78.5t-33.5 106.5q0 80 64.5 135.5t175.5 55.5q92 0 153.5 -50t81.5 -142l-77 -16
q-14 68 -56 104.5t-104 36.5q-73 0 -113.5 -33.5t-40.5 -83.5q0 -39 22 -66.5t73 -50.5l82 -36q91 -40 127.5 -84.5t36.5 -103.5z" />
    <glyph glyph-name="T" unicode="T" horiz-adv-x="551" 
d="M599 631h-218l-134 -631h-83l134 631h-218l15 69h519z" />
    <glyph glyph-name="U" unicode="U" horiz-adv-x="659" 
d="M568 250q-30 -139 -104.5 -202t-191.5 -63q-120 0 -181.5 70.5t-34.5 195.5l96 449h83l-96 -451q-20 -97 17.5 -145.5t121.5 -48.5q167 0 209 194l96 451h81z" />
    <glyph glyph-name="V" unicode="V" horiz-adv-x="597" 
d="M277 0h-97l-86 700h83l69 -611l329 611h86z" />
    <glyph glyph-name="W" unicode="W" horiz-adv-x="923" 
d="M549 0l-26 610l-286 -610h-108l-21 700h82l13 -611l289 611h98l29 -615l275 615h79l-319 -700h-105z" />
    <glyph glyph-name="X" unicode="X" horiz-adv-x="616" 
d="M431 0l-131 296l-255 -296h-95l316 362l-153 338h89l122 -275l237 275h95l-298 -342l162 -358h-89z" />
    <glyph glyph-name="Y" unicode="Y" horiz-adv-x="582" 
d="M262 0h-83l50 234l-135 466h83l107 -385l272 385h90l-334 -466z" />
    <glyph glyph-name="Z" unicode="Z" horiz-adv-x="547" 
d="M-39 0l16 75l493 556h-366l15 69h464l-16 -75l-493 -556h387l-15 -69h-485z" />
    <glyph glyph-name="bracketleft" unicode="[" horiz-adv-x="380" 
d="M2 -132l190 892h218l-14 -66h-137l-162 -760h137l-14 -66h-218z" />
    <glyph glyph-name="backslash" unicode="\" horiz-adv-x="445" 
d="M345 -140h-72l-154 920h72z" />
    <glyph glyph-name="bracketright" unicode="]" horiz-adv-x="381" 
d="M-38 -132l14 66h137l162 760h-137l14 66h218l-190 -892h-218z" />
    <glyph glyph-name="asciicircum" unicode="^" horiz-adv-x="505" 
d="M390 317l-71 305l-202 -305h-76l259 383h63l95 -383h-68z" />
    <glyph glyph-name="underscore" unicode="_" horiz-adv-x="549" 
d="M-106 -137l15 71h563l-15 -71h-563z" />
    <glyph glyph-name="grave" unicode="`" horiz-adv-x="552" 
d="M362 566h-62l-85 128h99z" />
    <glyph glyph-name="a" unicode="a" horiz-adv-x="500" 
d="M160 45q61 0 113 46.5t65 108.5l11 50h-68q-216 0 -216 -123q0 -38 26 -60t69 -22zM297 0l19 89q-71 -104 -179 -104q-68 0 -110 37.5t-42 96.5q0 84 71.5 134t230.5 50h73l2 10q13 65 -11 99.5t-81 34.5q-38 0 -75 -25t-64 -69l-64 32q73 122 210 122q90 0 135.5 -55.5
t25.5 -150.5l-64 -301h-77z" />
    <glyph glyph-name="b" unicode="b" horiz-adv-x="573" 
d="M265 -15q-60 0 -105 37t-63 95l-25 -117h-79l149 700h79l-62 -292q32 46 78 72.5t97 26.5q77 0 132 -59t55 -152q0 -77 -28.5 -146.5t-88.5 -117t-139 -47.5zM261 45q57 0 104 47q36 36 56.5 91t20.5 116q0 69 -35 108.5t-97 39.5q-63 0 -115 -52q-36 -36 -57 -86.5
t-21 -98.5q0 -78 39.5 -121.5t104.5 -43.5z" />
    <glyph glyph-name="c" unicode="c" horiz-adv-x="520" 
d="M444 147q-34 -77 -93.5 -119.5t-135.5 -42.5q-85 0 -141.5 59t-56.5 152q0 120 77.5 215.5t196.5 95.5q80 0 130 -44t64 -124l-76 -9q-19 117 -121 117q-62 0 -112 -50q-37 -38 -58.5 -93t-21.5 -111q0 -69 33 -108.5t89 -39.5q97 0 164 132z" />
    <glyph glyph-name="d" unicode="d" horiz-adv-x="573" 
d="M227 45q63 0 115 52q36 36 57 86.5t21 98.5q0 78 -39.5 121.5t-104.5 43.5q-57 0 -104 -47q-36 -36 -56.5 -91t-20.5 -116q0 -69 35 -108.5t97 -39.5zM361 0l18 84q-70 -99 -176 -99q-77 0 -132 59t-55 152q0 77 28.5 146.5t88.5 117t139 47.5q60 0 105 -37t63 -95
l70 325h79l-149 -700h-79z" />
    <glyph glyph-name="e" unicode="e" horiz-adv-x="538" 
d="M229 -15q-96 0 -154 57.5t-58 153.5q0 120 77.5 215.5t196.5 95.5q84 0 140 -50.5t56 -134.5q0 -31 -10 -86h-378q-3 -21 -3 -43q0 -73 35 -110.5t102 -37.5q42 0 87 28t80 79l61 -35q-42 -64 -103.5 -98t-128.5 -34zM176 397q-41 -41 -63 -104h298q2 20 2 27
q0 127 -124 127q-63 0 -113 -50z" />
    <glyph glyph-name="f" unicode="f" horiz-adv-x="336" 
d="M333 433h-134l-92 -433h-79l92 433h-78l13 59h77l15 70q15 74 59.5 110t127.5 36q32 0 56 -6l-12 -59q-25 5 -50 5q-43 0 -67 -19.5t-34 -63.5l-16 -73h135z" />
    <glyph glyph-name="g" unicode="g" horiz-adv-x="509" 
d="M232 219q61 0 101 40q38 38 38 90q0 47 -30.5 74t-84.5 27q-61 0 -101 -40q-38 -38 -38 -90q0 -47 30.5 -74t84.5 -27zM415 -44q0 -76 -71 -118.5t-190 -42.5q-110 0 -169 36.5t-59 95.5q0 99 130 124q-38 21 -38 62q0 62 93 80q-70 45 -70 128q0 72 63 129t157 57
q74 0 125 -37q41 77 140 77h2l-13 -63q-67 -1 -98 -45q30 -37 30 -91q0 -72 -63 -129t-157 -57q-30 0 -57 6q-75 -14 -75 -46q0 -16 12 -22.5t46 -7.5q141 -4 201 -37q61 -34 61 -99zM160 -145q80 0 128.5 24.5t48.5 63.5q0 77 -199 77q-64 0 -98 -24.5t-34 -63.5
q0 -36 38.5 -56.5t115.5 -20.5z" />
    <glyph glyph-name="h" unicode="h" horiz-adv-x="536" 
d="M72 0h-79l149 700h79l-65 -306q74 113 181 113q77 0 117 -51.5t22 -136.5l-68 -319h-79l66 312q28 132 -86 132q-60 0 -113.5 -57.5t-70.5 -135.5z" />
    <glyph glyph-name="i" unicode="i" horiz-adv-x="215" 
d="M200 579h-79l22 104h79zM77 0h-79l105 492h79z" />
    <glyph glyph-name="j" unicode="j" horiz-adv-x="215" 
d="M200 579h-79l22 104h79zM-112 -196q-24 0 -44 3l13 59q18 -2 37 -2q41 0 62 19t31 64l116 545h79l-114 -532q-17 -79 -59 -117.5t-121 -38.5z" />
    <glyph glyph-name="k" unicode="k" horiz-adv-x="508" 
d="M72 0h-79l149 700h79l-98 -461l282 253h94l-215 -192l134 -300h-86l-108 251l-121 -106z" />
    <glyph glyph-name="l" unicode="l" horiz-adv-x="215" 
d="M77 0h-79l149 700h79z" />
    <glyph glyph-name="m" unicode="m" horiz-adv-x="840" 
d="M72 0h-79l105 492h79l-21 -98q75 113 174 113q56 0 93.5 -36.5t40.5 -91.5q37 60 85.5 94t98.5 34q75 0 112 -53t21 -129l-69 -325h-79l67 316q13 62 -7 95t-71 33q-55 0 -107.5 -58t-69.5 -135l-53 -251h-79l67 316q13 62 -7 95t-71 33q-55 0 -107.5 -58t-69.5 -135z
" />
    <glyph glyph-name="n" unicode="n" horiz-adv-x="536" 
d="M72 0h-79l105 492h79l-21 -97q74 112 181 112q77 0 117 -51.5t22 -136.5l-68 -319h-79l66 312q28 132 -86 132q-60 0 -113.5 -57.5t-70.5 -135.5z" />
    <glyph glyph-name="o" unicode="o" horiz-adv-x="552" 
d="M500 296q0 -77 -33 -147.5t-97.5 -117t-144.5 -46.5q-92 0 -150 58.5t-58 152.5q0 77 33 147.5t97.5 117t144.5 46.5q92 0 150 -58.5t58 -152.5zM96 193q0 -70 34.5 -109t97.5 -39q61 0 113 50q37 37 58.5 92.5t21.5 111.5q0 70 -34.5 109t-97.5 39q-61 0 -113 -50
q-37 -37 -58.5 -92.5t-21.5 -111.5z" />
    <glyph glyph-name="p" unicode="p" horiz-adv-x="573" 
d="M261 45q57 0 104 47q36 36 56.5 91t20.5 116q0 69 -35 108.5t-97 39.5q-63 0 -115 -52q-36 -36 -57 -86.5t-21 -98.5q0 -78 39.5 -121.5t104.5 -43.5zM265 -15q-60 0 -104.5 36.5t-62.5 93.5l-66 -305h-79l145 682h79l-17 -82q32 45 77.5 71t96.5 26q77 0 132 -59
t55 -152q0 -77 -28.5 -146.5t-88.5 -117t-139 -47.5z" />
    <glyph glyph-name="q" unicode="q" horiz-adv-x="573" 
d="M400 -190h-79l57 274q-32 -46 -78 -72.5t-97 -26.5q-77 0 -132 59t-55 152q0 77 28.5 146.5t88.5 117t139 47.5q60 0 105 -37t63 -95l25 117h80zM227 45q63 0 115 52q36 36 57 86.5t21 98.5q0 78 -39.5 121.5t-104.5 43.5q-57 0 -104 -47q-36 -36 -56.5 -91t-20.5 -116
q0 -69 35 -108.5t97 -39.5z" />
    <glyph glyph-name="r" unicode="r" horiz-adv-x="367" 
d="M72 0h-79l105 492h79l-24 -110q66 116 198 116q9 0 17 -2l-15 -73q-16 2 -28 2q-76 0 -129.5 -48t-72.5 -138z" />
    <glyph glyph-name="s" unicode="s" horiz-adv-x="489" 
d="M409 126q0 -61 -56.5 -101t-137.5 -40q-94 0 -154 43t-73 117l73 20q27 -120 159 -120q47 0 78.5 21.5t31.5 52.5q0 27 -18 44t-69 36l-69 26q-113 43 -113 133q0 63 50.5 106t136.5 43q74 0 125.5 -38t67.5 -107l-72 -18q-26 103 -127 103q-46 0 -75 -21.5t-29 -52.5
q0 -27 14.5 -44t54.5 -32l62 -24q79 -30 109.5 -63t30.5 -84z" />
    <glyph glyph-name="t" unicode="t" horiz-adv-x="363" 
d="M159 -5q-64 0 -90 37.5t-12 104.5l63 296h-78l13 59h78l31 147h78l-31 -147h149l-13 -59h-149l-65 -303q-8 -38 3.5 -55.5t42.5 -17.5q30 0 89 8l-13 -62q-53 -8 -96 -8z" />
    <glyph glyph-name="u" unicode="u" horiz-adv-x="534" 
d="M322 0l21 97q-74 -112 -180 -112q-76 0 -116 51.5t-22 136.5l68 319h79l-66 -312q-28 -132 85 -132q59 0 112.5 57.5t70.5 135.5l53 251h79l-105 -492h-79z" />
    <glyph glyph-name="v" unicode="v" horiz-adv-x="481" 
d="M120 0l-66 492h79l52 -419l231 419h81l-276 -492h-101z" />
    <glyph glyph-name="w" unicode="w" horiz-adv-x="742" 
d="M417 0l-27 421l-206 -421h-98l-22 492h76l13 -419l205 419h97l27 -421l192 421h74l-232 -492h-99z" />
    <glyph glyph-name="x" unicode="x" horiz-adv-x="504" 
d="M39 0h-90l244 260l-121 232h87l89 -179l165 179h90l-221 -236l133 -256h-87l-102 203z" />
    <glyph glyph-name="y" unicode="y" horiz-adv-x="481" 
d="M-13 -198q-35 0 -54 4l13 62q23 -3 49 -3q43 0 63.5 13t45.5 57l31 54l-81 503h79l60 -408l223 408h81l-319 -570q-38 -69 -80 -94.5t-111 -25.5z" />
    <glyph glyph-name="z" unicode="z" horiz-adv-x="460" 
d="M351 0h-382l13 59l356 374h-265l13 59h364l-13 -59l-356 -374h283z" />
    <glyph glyph-name="braceleft" unicode="{" horiz-adv-x="426" 
d="M199 -132q-77 0 -104.5 39.5t-9.5 122.5l41 191q9 43 -1 57.5t-46 14.5h-49l15 69h44q40 0 57 16t27 64l36 169q17 80 59 114.5t116 34.5h72l-14 -66h-59q-45 0 -64 -18.5t-31 -74.5l-33 -154q-11 -51 -30.5 -79t-54.5 -41q55 -23 35 -118l-40 -188q-11 -52 -0.5 -69.5
t51.5 -17.5h64l-14 -66h-67z" />
    <glyph glyph-name="bar" unicode="|" horiz-adv-x="315" 
d="M20 -140l196 920h75l-196 -920h-75z" />
    <glyph glyph-name="braceright" unicode="}" horiz-adv-x="426" 
d="M-38 -132l14 66h59q45 0 64 18.5t31 74.5l38 181q20 97 85 120q-57 23 -35 118l35 161q11 52 0.5 69.5t-51.5 17.5h-64l14 66h67q77 0 104.5 -39.5t9.5 -122.5l-36 -164q-9 -43 1 -57.5t46 -14.5h49l-15 -69h-44q-40 0 -57 -16t-27 -64l-41 -196q-17 -80 -59 -114.5
t-116 -34.5h-72z" />
    <glyph glyph-name="asciitilde" unicode="~" horiz-adv-x="528" 
d="M556 675q-68 -114 -149 -114q-49 0 -93 38l-20 17q-35 29 -56 29q-36 0 -92 -81l-45 29q68 114 149 114q49 0 93 -38l20 -17q35 -29 56 -29q36 0 92 81z" />
    <glyph glyph-name="uni00A0" unicode="&#xa0;" horiz-adv-x="208" 
 />
    <glyph glyph-name="exclamdown" unicode="&#xa1;" horiz-adv-x="305" 
d="M158 600h103l-23 -110h-103zM133 402h69l-92 -502h-99z" />
    <glyph glyph-name="cent" unicode="&#xa2;" horiz-adv-x="518" 
d="M96 193q0 -56 22.5 -93t61.5 -49l84 394q-49 -9 -88 -48q-37 -38 -58.5 -93t-21.5 -111zM444 147q-32 -74 -88 -116t-128 -46l-22 -104h-62l23 109q-67 16 -108.5 71.5t-41.5 134.5q0 74 31.5 143t92 116.5t135.5 51.5l23 104h62l-23 -108q60 -12 97.5 -54t49.5 -110
l-76 -9q-15 94 -84 112l-84 -395q81 14 141 130z" />
    <glyph glyph-name="sterling" unicode="&#xa3;" horiz-adv-x="540" 
d="M447 66l-14 -66h-464l13 62q64 23 106.5 77t42.5 114q0 14 -3 29h-99l14 66h65q-22 68 -22 106q0 95 68 161t173 66q84 0 139.5 -52.5t72.5 -144.5l-73 -20q-30 152 -143 152q-70 0 -114 -44.5t-44 -115.5q0 -38 26 -108h199l-14 -66h-166q2 -18 2 -27
q0 -55 -31.5 -104.5t-85.5 -84.5h352z" />
    <glyph glyph-name="yen" unicode="&#xa5;" horiz-adv-x="558" 
d="M447 100h-177l-21 -100h-81l21 100h-177l14 66h177l16 74h-177l14 66h149l-119 360h80l109 -339l254 339h87l-272 -360h147l-14 -66h-177l-16 -74h177z" />
    <glyph glyph-name="brokenbar" unicode="&#xa6;" horiz-adv-x="315" 
d="M135 401l81 379h75l-81 -379h-75zM20 -140l81 379h75l-81 -379h-75z" />
    <glyph glyph-name="section" unicode="&#xa7;" horiz-adv-x="587" 
d="M333 153q27 -14 44 -30q55 31 55 74q0 44 -60 76l-157 87q-28 15 -46 33q-55 -30 -55 -75t61 -78zM205 -167q-93 0 -155 53.5t-76 150.5l75 14q11 -72 53.5 -112.5t105.5 -40.5q61 0 97.5 28.5t36.5 70.5q0 53 -59 85l-150 83q-105 57 -105 135q0 42 29 77.5t81 54.5
q-21 38 -21 78q0 71 58.5 121t159.5 50q84 0 144 -53t74 -138l-75 -16q-34 142 -147 142q-60 0 -94.5 -28.5t-34.5 -72.5q0 -52 59 -83l153 -84q103 -55 103 -130q0 -41 -28.5 -78t-77.5 -57q17 -32 17 -70q0 -74 -64.5 -127t-158.5 -53z" />
    <glyph glyph-name="dieresis" unicode="&#xa8;" horiz-adv-x="552" 
d="M287 584h-86l20 94h86zM457 584h-86l20 94h86z" />
    <glyph glyph-name="copyright" unicode="&#xa9;" horiz-adv-x="828" 
d="M423 -15h-10q-153 0 -256.5 103.5t-103.5 256.5v10q0 153 103.5 256.5t256.5 103.5h10q153 0 256.5 -103.5t103.5 -256.5v-10q0 -153 -103.5 -256.5t-256.5 -103.5zM118 346q0 -127 85 -213.5t211 -86.5h8q126 0 211 86.5t85 213.5v8q0 127 -85 213.5t-211 86.5h-8
q-126 0 -211 -86.5t-85 -213.5v-8zM583 277q-16 -60 -61.5 -95t-102.5 -35q-82 0 -133.5 55t-51.5 145v6q0 90 51.5 145t133.5 55q58 0 101.5 -33t58.5 -94l-69 -15q-20 82 -91 82q-48 0 -76 -36t-28 -104v-6q0 -68 28 -104t76 -36q33 0 58.5 23t36.5 62z" />
    <glyph glyph-name="ordfeminine" unicode="&#xaa;" horiz-adv-x="416" 
d="M175 337q50 0 84.5 29t44.5 76l7 35h-40q-82 0 -118.5 -23t-36.5 -60q0 -27 16 -42t43 -15zM273 293l13 62q-50 -72 -124 -72q-52 0 -84.5 29.5t-32.5 75.5q0 63 56 100.5t174 37.5h47l2 12q19 88 -58 88q-58 0 -100 -67l-51 26q26 44 65.5 69t86.5 25q74 0 106.5 -42
t15.5 -121l-48 -223h-68z" />
    <glyph glyph-name="guillemotleft" unicode="&#xab;" horiz-adv-x="458" 
d="M345 96h-75l-84 175l171 189h86l-180 -196zM190 96h-75l-87 182l163 182h86l-172 -189z" />
    <glyph glyph-name="registered" unicode="&#xae;" horiz-adv-x="579" 
d="M324 228h-7q-102 0 -171 69t-69 171v7q0 102 69 171t171 69h7q102 0 171 -69t69 -171v-7q0 -102 -69 -171t-171 -69zM127 468q0 -81 54.5 -137.5t135.5 -56.5h7q81 0 135.5 56.5t54.5 137.5v7q0 81 -54.5 137.5t-135.5 56.5h-7q-81 0 -135.5 -56.5t-54.5 -137.5v-7z
M282 556v-74h34q51 0 51 37t-51 37h-34zM369 346l-52 93h-35v-93h-51v251h84q52 0 78.5 -21.5t26.5 -57.5q0 -53 -52 -70l58 -102h-57z" />
    <glyph glyph-name="macron" unicode="&#xaf;" horiz-adv-x="552" 
d="M197 598l14 66h256l-14 -66h-256z" />
    <glyph glyph-name="degree" unicode="&#xb0;" horiz-adv-x="404" 
d="M245 385q-64 0 -106 42.5t-42 105.5t42 105.5t106 42.5t106 -42.5t42 -105.5t-42 -105.5t-106 -42.5zM245 440q39 0 64.5 27t25.5 66t-25.5 66t-64.5 27t-64.5 -27t-25.5 -66t25.5 -66t64.5 -27z" />
    <glyph glyph-name="plusminus" unicode="&#xb1;" horiz-adv-x="561" 
d="M506 376h-185l-35 -166h-61l35 166h-185l13 60h185l35 167h61l-35 -167h185zM16 100l13 60h431l-13 -60h-431z" />
    <glyph glyph-name="acute" unicode="&#xb4;" horiz-adv-x="552" 
d="M290 566l97 128h110l-141 -128h-66z" />
    <glyph glyph-name="paragraph" unicode="&#xb6;" horiz-adv-x="704" 
d="M602 600h-108l-159 -752h-81l65 309h-24q-122 0 -187 56t-65 152q0 133 92.5 217t255.5 84h306l-174 -818h-81z" />
    <glyph glyph-name="periodcentered" unicode="&#xb7;" horiz-adv-x="260" 
d="M75 312l24 110h102l-24 -110h-102z" />
    <glyph glyph-name="cedilla" unicode="&#xb8;" horiz-adv-x="552" 
d="M189 -209q-55 0 -97 22l20 44q37 -17 77 -17q57 0 57 34q0 12 -10 20.5t-28 8.5q-19 0 -37 -6l-32 22l62 81h55l-35 -52h7q39 0 60.5 -20t21.5 -51q0 -39 -34 -62.5t-87 -23.5z" />
    <glyph glyph-name="ordmasculine" unicode="&#xba;" horiz-adv-x="448" 
d="M437 517q0 -94 -61 -164t-146 -70q-73 0 -114 45.5t-41 116.5q0 94 61 164t146 70q73 0 114 -45.5t41 -116.5zM146 443q0 -52 22.5 -79.5t62.5 -27.5q43 0 79 36q56 56 56 147q0 52 -22.5 79.5t-62.5 27.5q-43 0 -79 -36q-56 -56 -56 -147z" />
    <glyph glyph-name="guillemotright" unicode="&#xbb;" horiz-adv-x="458" 
d="M79 96h-86l180 196l-82 168h75l84 -175zM245 96h-86l172 189l-85 175h75l87 -182z" />
    <glyph glyph-name="questiondown" unicode="&#xbf;" horiz-adv-x="534" 
d="M299 600h103l-23 -110h-103zM349 402l-31 -146h-17q-103 0 -161.5 -46t-58.5 -133q0 -58 30.5 -93t85.5 -35q115 0 179 163l68 -23q-34 -94 -99 -149t-150 -55q-93 0 -144.5 53t-51.5 137q0 101 71.5 166t179.5 74l18 87h81z" />
    <glyph glyph-name="Agrave" unicode="&#xc0;" horiz-adv-x="634" 
d="M424 282l-47 333l-188 -333h235zM463 0l-30 212h-283l-120 -212h-85l404 700h93l107 -700h-86zM439 766h-59l-84 112h100z" />
    <glyph glyph-name="Aacute" unicode="&#xc1;" horiz-adv-x="634" 
d="M424 282l-47 333l-188 -333h235zM463 0l-30 212h-283l-120 -212h-85l404 700h93l107 -700h-86zM381 766l91 112h106l-128 -112h-69z" />
    <glyph glyph-name="Acircumflex" unicode="&#xc2;" horiz-adv-x="634" 
d="M424 282l-47 333l-188 -333h235zM463 0l-30 212h-283l-120 -212h-85l404 700h93l107 -700h-86zM348 765h-81l134 115h74l86 -115h-69l-60 65z" />
    <glyph glyph-name="Atilde" unicode="&#xc3;" horiz-adv-x="634" 
d="M424 282l-47 333l-188 -333h235zM463 0l-30 212h-283l-120 -212h-85l404 700h93l107 -700h-86zM599 851q-23 -40 -55 -63.5t-58 -23.5q-35 0 -70 25l-15 11q-26 20 -40 20q-26 0 -64 -54l-41 28q23 40 55 63.5t58 23.5q35 0 70 -25l15 -11q26 -20 40 -20q26 0 64 54z" />
    <glyph glyph-name="Adieresis" unicode="&#xc4;" horiz-adv-x="634" 
d="M424 282l-47 333l-188 -333h235zM463 0l-30 212h-283l-120 -212h-85l404 700h93l107 -700h-86zM546 776h-86l20 94h86zM376 776h-86l20 94h86z" />
    <glyph glyph-name="Aring" unicode="&#xc5;" horiz-adv-x="634" 
d="M424 282l-47 333l-188 -333h235zM463 0l-30 212h-283l-120 -212h-85l404 700h93l107 -700h-86zM416 750q-43 0 -70 26t-27 69q0 44 33.5 77.5t79.5 33.5q43 0 70 -26t27 -69q0 -44 -33.5 -77.5t-79.5 -33.5zM416 795q28 0 46 19.5t18 46.5q0 23 -13 36.5t-35 13.5
q-28 0 -46 -19.5t-18 -46.5q0 -23 13 -36.5t35 -13.5z" />
    <glyph glyph-name="AE" unicode="&#xc6;" horiz-adv-x="1005" 
d="M502 631l-258 -349h234l74 349h-50zM418 0l45 212h-270l-157 -212h-91l521 700h552l-15 -69h-368l-50 -238h323l-15 -68h-323l-54 -256h368l-15 -69h-451z" />
    <glyph glyph-name="Ccedilla" unicode="&#xc7;" horiz-adv-x="642" 
d="M244 -209q-55 0 -97 22l20 44q37 -17 77 -17q57 0 57 34q0 12 -10 20.5t-28 8.5q-19 0 -37 -6l-32 22l53 69q-100 15 -153 91t-53 195q0 56 14 116.5t44 118.5t70.5 104t99 74t124.5 28q93 0 153 -57t79 -164l-80 -11q-14 81 -53.5 123t-100.5 42q-81 0 -146 -65
q-55 -56 -87 -142.5t-32 -169.5q0 -102 44.5 -160.5t123.5 -58.5q139 0 216 180l69 -28q-43 -105 -114.5 -160.5t-163.5 -58.5l-25 -37h7q39 0 60.5 -20t21.5 -51q0 -39 -34 -62.5t-87 -23.5z" />
    <glyph glyph-name="Egrave" unicode="&#xc8;" 
d="M469 69l-15 -69h-451l149 700h451l-15 -69h-368l-50 -238h323l-15 -68h-323l-54 -256h368zM415 766h-59l-84 112h100z" />
    <glyph glyph-name="Eacute" unicode="&#xc9;" 
d="M469 69l-15 -69h-451l149 700h451l-15 -69h-368l-50 -238h323l-15 -68h-323l-54 -256h368zM357 766l91 112h106l-128 -112h-69z" />
    <glyph glyph-name="Ecircumflex" unicode="&#xca;" 
d="M469 69l-15 -69h-451l149 700h451l-15 -69h-368l-50 -238h323l-15 -68h-323l-54 -256h368zM324 765h-81l134 115h74l86 -115h-69l-60 65z" />
    <glyph glyph-name="Edieresis" unicode="&#xcb;" 
d="M469 69l-15 -69h-451l149 700h451l-15 -69h-368l-50 -238h323l-15 -68h-323l-54 -256h368zM522 776h-86l20 94h86zM352 776h-86l20 94h86z" />
    <glyph glyph-name="Igrave" unicode="&#xcc;" horiz-adv-x="237" 
d="M7 0l149 700h83l-149 -700h-83zM235 766h-59l-84 112h100z" />
    <glyph glyph-name="Iacute" unicode="&#xcd;" horiz-adv-x="237" 
d="M7 0l149 700h83l-149 -700h-83zM177 766l91 112h106l-128 -112h-69z" />
    <glyph glyph-name="Icircumflex" unicode="&#xce;" horiz-adv-x="237" 
d="M7 0l149 700h83l-149 -700h-83zM144 765h-81l134 115h74l86 -115h-69l-60 65z" />
    <glyph glyph-name="Idieresis" unicode="&#xcf;" horiz-adv-x="237" 
d="M7 0l149 700h83l-149 -700h-83zM342 776h-86l20 94h86zM172 776h-86l20 94h86z" />
    <glyph glyph-name="Eth" unicode="&#xd0;" horiz-adv-x="681" 
d="M258 0h-255l70 327h-69l13 64h69l66 309h205q149 0 221 -73t72 -196q0 -85 -25.5 -161.5t-73 -137t-123.5 -96.5t-170 -36zM100 68h163q120 0 199 79q103 102 103 287q0 198 -217 198h-128l-51 -241h167l-13 -64h-168z" />
    <glyph glyph-name="Ntilde" unicode="&#xd1;" horiz-adv-x="670" 
d="M80 0h-77l149 700h96l225 -591l126 591h77l-149 -700h-94l-227 596zM618 851q-23 -40 -55 -63.5t-58 -23.5q-35 0 -70 25l-15 11q-26 20 -40 20q-26 0 -64 -54l-41 28q23 40 55 63.5t58 23.5q35 0 70 -25l15 -11q26 -20 40 -20q26 0 64 54z" />
    <glyph glyph-name="Ograve" unicode="&#xd2;" horiz-adv-x="700" 
d="M669 426q0 -56 -14.5 -116.5t-44.5 -118.5t-72 -104t-102.5 -74t-130.5 -28q-130 0 -197.5 77.5t-67.5 211.5q0 56 14.5 116.5t44.5 118.5t72 104t102.5 74t130.5 28q130 0 197.5 -77.5t67.5 -211.5zM125 271q0 -104 46 -161.5t137 -57.5t159 70q55 55 86 139.5t31 167.5
q0 104 -46 161.5t-137 57.5t-159 -70q-55 -55 -86 -139.5t-31 -167.5zM466 766h-59l-84 112h100z" />
    <glyph glyph-name="Oacute" unicode="&#xd3;" horiz-adv-x="700" 
d="M669 426q0 -56 -14.5 -116.5t-44.5 -118.5t-72 -104t-102.5 -74t-130.5 -28q-130 0 -197.5 77.5t-67.5 211.5q0 56 14.5 116.5t44.5 118.5t72 104t102.5 74t130.5 28q130 0 197.5 -77.5t67.5 -211.5zM125 271q0 -104 46 -161.5t137 -57.5t159 70q55 55 86 139.5t31 167.5
q0 104 -46 161.5t-137 57.5t-159 -70q-55 -55 -86 -139.5t-31 -167.5zM408 766l91 112h106l-128 -112h-69z" />
    <glyph glyph-name="Ocircumflex" unicode="&#xd4;" horiz-adv-x="700" 
d="M669 426q0 -56 -14.5 -116.5t-44.5 -118.5t-72 -104t-102.5 -74t-130.5 -28q-130 0 -197.5 77.5t-67.5 211.5q0 56 14.5 116.5t44.5 118.5t72 104t102.5 74t130.5 28q130 0 197.5 -77.5t67.5 -211.5zM125 271q0 -104 46 -161.5t137 -57.5t159 70q55 55 86 139.5t31 167.5
q0 104 -46 161.5t-137 57.5t-159 -70q-55 -55 -86 -139.5t-31 -167.5zM375 765h-81l134 115h74l86 -115h-69l-60 65z" />
    <glyph glyph-name="Otilde" unicode="&#xd5;" horiz-adv-x="700" 
d="M669 426q0 -56 -14.5 -116.5t-44.5 -118.5t-72 -104t-102.5 -74t-130.5 -28q-130 0 -197.5 77.5t-67.5 211.5q0 56 14.5 116.5t44.5 118.5t72 104t102.5 74t130.5 28q130 0 197.5 -77.5t67.5 -211.5zM125 271q0 -104 46 -161.5t137 -57.5t159 70q55 55 86 139.5t31 167.5
q0 104 -46 161.5t-137 57.5t-159 -70q-55 -55 -86 -139.5t-31 -167.5zM626 851q-23 -40 -55 -63.5t-58 -23.5q-35 0 -70 25l-15 11q-26 20 -40 20q-26 0 -64 -54l-41 28q23 40 55 63.5t58 23.5q35 0 70 -25l15 -11q26 -20 40 -20q26 0 64 54z" />
    <glyph glyph-name="Odieresis" unicode="&#xd6;" horiz-adv-x="700" 
d="M669 426q0 -56 -14.5 -116.5t-44.5 -118.5t-72 -104t-102.5 -74t-130.5 -28q-130 0 -197.5 77.5t-67.5 211.5q0 56 14.5 116.5t44.5 118.5t72 104t102.5 74t130.5 28q130 0 197.5 -77.5t67.5 -211.5zM125 271q0 -104 46 -161.5t137 -57.5t159 70q55 55 86 139.5t31 167.5
q0 104 -46 161.5t-137 57.5t-159 -70q-55 -55 -86 -139.5t-31 -167.5zM573 776h-86l20 94h86zM403 776h-86l20 94h86z" />
    <glyph glyph-name="multiply" unicode="&#xd7;" horiz-adv-x="561" 
d="M407 135l-131 162l-202 -165l-37 45l203 165l-130 162l48 40l130 -162l203 165l36 -45l-202 -165l130 -162z" />
    <glyph glyph-name="Oslash" unicode="&#xd8;" horiz-adv-x="700" 
d="M125 271q0 -67 20 -118l381 450q-45 45 -125 45q-91 0 -159 -70q-55 -55 -86 -139.5t-31 -167.5zM308 52q91 0 159 70q55 55 86 139.5t31 167.5q0 67 -20 118l-381 -450q45 -45 125 -45zM305 -15q-107 0 -172 54l-65 -77l-48 43l69 81q-49 73 -49 188q0 56 14.5 116.5
t44.5 118.5t72 104t102.5 74t130.5 28q107 0 172 -54l65 77l48 -43l-69 -81q49 -73 49 -188q0 -56 -14.5 -116.5t-44.5 -118.5t-72 -104t-102.5 -74t-130.5 -28z" />
    <glyph glyph-name="Ugrave" unicode="&#xd9;" horiz-adv-x="659" 
d="M568 250q-30 -139 -104.5 -202t-191.5 -63q-120 0 -181.5 70.5t-34.5 195.5l96 449h83l-96 -451q-20 -97 17.5 -145.5t121.5 -48.5q167 0 209 194l96 451h81zM443 766h-59l-84 112h100z" />
    <glyph glyph-name="Uacute" unicode="&#xda;" horiz-adv-x="659" 
d="M568 250q-30 -139 -104.5 -202t-191.5 -63q-120 0 -181.5 70.5t-34.5 195.5l96 449h83l-96 -451q-20 -97 17.5 -145.5t121.5 -48.5q167 0 209 194l96 451h81zM385 766l91 112h106l-128 -112h-69z" />
    <glyph glyph-name="Ucircumflex" unicode="&#xdb;" horiz-adv-x="659" 
d="M568 250q-30 -139 -104.5 -202t-191.5 -63q-120 0 -181.5 70.5t-34.5 195.5l96 449h83l-96 -451q-20 -97 17.5 -145.5t121.5 -48.5q167 0 209 194l96 451h81zM352 765h-81l134 115h74l86 -115h-69l-60 65z" />
    <glyph glyph-name="Udieresis" unicode="&#xdc;" horiz-adv-x="659" 
d="M568 250q-30 -139 -104.5 -202t-191.5 -63q-120 0 -181.5 70.5t-34.5 195.5l96 449h83l-96 -451q-20 -97 17.5 -145.5t121.5 -48.5q167 0 209 194l96 451h81zM549 776h-86l20 94h86zM379 776h-86l20 94h86z" />
    <glyph glyph-name="Yacute" unicode="&#xdd;" horiz-adv-x="582" 
d="M262 0h-83l50 234l-135 466h83l107 -385l272 385h90l-334 -466zM344 766l91 112h106l-128 -112h-69z" />
    <glyph glyph-name="Thorn" unicode="&#xde;" horiz-adv-x="615" 
d="M3 0l149 700h83l-28 -131h152q115 0 173.5 -47t58.5 -136q0 -102 -74.5 -169.5t-216.5 -67.5h-182l-32 -149h-83zM348 502h-155l-61 -286h180q95 0 142.5 46.5t47.5 116.5q0 123 -154 123z" />
    <glyph glyph-name="germandbls" unicode="&#xdf;" horiz-adv-x="545" 
d="M231 -11q-52 0 -87 7l13 60q33 -7 77 -7q72 0 116 45q52 50 52 147q0 53 -34 82.5t-98 29.5h-50l13 59h54q72 0 115 43q38 36 38 94q0 50 -27.5 78t-79.5 28q-122 0 -156 -162l-105 -493h-79l103 486q23 110 84.5 169.5t154.5 59.5q84 0 134.5 -47.5t50.5 -113.5
q0 -63 -40 -107.5t-106 -61.5q50 -16 79 -55.5t29 -92.5q0 -115 -71 -181.5t-180 -66.5z" />
    <glyph glyph-name="agrave" unicode="&#xe0;" horiz-adv-x="500" 
d="M160 45q61 0 113 46.5t65 108.5l11 50h-68q-216 0 -216 -123q0 -38 26 -60t69 -22zM297 0l19 89q-71 -104 -179 -104q-68 0 -110 37.5t-42 96.5q0 84 71.5 134t230.5 50h73l2 10q13 65 -11 99.5t-81 34.5q-38 0 -75 -25t-64 -69l-64 32q73 122 210 122q90 0 135.5 -55.5
t25.5 -150.5l-64 -301h-77zM328 566h-62l-85 128h99z" />
    <glyph glyph-name="aacute" unicode="&#xe1;" horiz-adv-x="500" 
d="M160 45q61 0 113 46.5t65 108.5l11 50h-68q-216 0 -216 -123q0 -38 26 -60t69 -22zM297 0l19 89q-71 -104 -179 -104q-68 0 -110 37.5t-42 96.5q0 84 71.5 134t230.5 50h73l2 10q13 65 -11 99.5t-81 34.5q-38 0 -75 -25t-64 -69l-64 32q73 122 210 122q90 0 135.5 -55.5
t25.5 -150.5l-64 -301h-77zM268 566l97 128h110l-141 -128h-66z" />
    <glyph glyph-name="acircumflex" unicode="&#xe2;" horiz-adv-x="500" 
d="M160 45q61 0 113 46.5t65 108.5l11 50h-68q-216 0 -216 -123q0 -38 26 -60t69 -22zM297 0l19 89q-71 -104 -179 -104q-68 0 -110 37.5t-42 96.5q0 84 71.5 134t230.5 50h73l2 10q13 65 -11 99.5t-81 34.5q-38 0 -75 -25t-64 -69l-64 32q73 122 210 122q90 0 135.5 -55.5
t25.5 -150.5l-64 -301h-77zM235 570h-79l140 121h74l80 -121h-71l-54 69z" />
    <glyph glyph-name="atilde" unicode="&#xe3;" horiz-adv-x="500" 
d="M160 45q61 0 113 46.5t65 108.5l11 50h-68q-216 0 -216 -123q0 -38 26 -60t69 -22zM297 0l19 89q-71 -104 -179 -104q-68 0 -110 37.5t-42 96.5q0 84 71.5 134t230.5 50h73l2 10q13 65 -11 99.5t-81 34.5q-38 0 -75 -25t-64 -69l-64 32q73 122 210 122q90 0 135.5 -55.5
t25.5 -150.5l-64 -301h-77zM488 659q-23 -40 -55 -63.5t-58 -23.5q-35 0 -70 25l-15 11q-26 20 -40 20q-26 0 -64 -54l-41 28q23 40 55 63.5t58 23.5q35 0 70 -25l15 -11q26 -20 40 -20q26 0 64 54z" />
    <glyph glyph-name="adieresis" unicode="&#xe4;" horiz-adv-x="500" 
d="M160 45q61 0 113 46.5t65 108.5l11 50h-68q-216 0 -216 -123q0 -38 26 -60t69 -22zM297 0l19 89q-71 -104 -179 -104q-68 0 -110 37.5t-42 96.5q0 84 71.5 134t230.5 50h73l2 10q13 65 -11 99.5t-81 34.5q-38 0 -75 -25t-64 -69l-64 32q73 122 210 122q90 0 135.5 -55.5
t25.5 -150.5l-64 -301h-77zM264 584h-86l20 94h86zM434 584h-86l20 94h86z" />
    <glyph glyph-name="aring" unicode="&#xe5;" horiz-adv-x="500" 
d="M160 45q61 0 113 46.5t65 108.5l11 50h-68q-216 0 -216 -123q0 -38 26 -60t69 -22zM297 0l19 89q-71 -104 -179 -104q-68 0 -110 37.5t-42 96.5q0 84 71.5 134t230.5 50h73l2 10q13 65 -11 99.5t-81 34.5q-38 0 -75 -25t-64 -69l-64 32q73 122 210 122q90 0 135.5 -55.5
t25.5 -150.5l-64 -301h-77zM311 542q-43 0 -70 26t-27 69q0 44 33.5 77.5t79.5 33.5q43 0 70 -26t27 -69q0 -44 -33.5 -77.5t-79.5 -33.5zM311 587q28 0 46 19.5t18 46.5q0 23 -13 36.5t-35 13.5q-28 0 -46 -19.5t-18 -46.5q0 -23 13 -36.5t35 -13.5z" />
    <glyph glyph-name="ae" unicode="&#xe6;" horiz-adv-x="863" 
d="M501 397q-40 -40 -62 -102h297q2 18 2 25q0 127 -124 127q-63 0 -113 -50zM554 -15q-71 0 -121 32t-71 89q-31 -54 -90.5 -87.5t-128.5 -33.5q-73 0 -115.5 37t-42.5 97q0 83 68.5 127.5t233.5 44.5h70l5 22q13 65 -11 99.5t-81 34.5q-38 0 -75 -25t-64 -69l-64 32
q73 122 210 122q122 0 149 -102q76 102 190 102q84 0 140 -50.5t56 -134.5q0 -31 -10 -84h-377q-4 -20 -4 -45q0 -73 35 -110.5t102 -37.5q42 0 87 28t80 79l61 -35q-42 -64 -103.5 -98t-128.5 -34zM160 45q61 0 113 46.5t65 108.5l8 38h-65q-117 0 -166.5 -28.5
t-49.5 -82.5q0 -38 26 -60t69 -22z" />
    <glyph glyph-name="ccedilla" unicode="&#xe7;" horiz-adv-x="520" 
d="M174 -209q-55 0 -97 22l20 44q37 -17 77 -17q57 0 57 34q0 12 -10 20.5t-28 8.5q-19 0 -37 -6l-32 22l53 69q-71 13 -115.5 69.5t-44.5 138.5q0 120 77.5 215.5t196.5 95.5q80 0 130 -44t64 -124l-76 -9q-19 117 -121 117q-62 0 -112 -50q-37 -38 -58.5 -93t-21.5 -111
q0 -69 33 -108.5t89 -39.5q97 0 164 132l62 -30q-32 -73 -87 -115t-126 -46l-25 -38h7q39 0 60.5 -20t21.5 -51q0 -39 -34 -62.5t-87 -23.5z" />
    <glyph glyph-name="egrave" unicode="&#xe8;" horiz-adv-x="538" 
d="M229 -15q-96 0 -154 57.5t-58 153.5q0 120 77.5 215.5t196.5 95.5q84 0 140 -50.5t56 -134.5q0 -31 -10 -86h-378q-3 -21 -3 -43q0 -73 35 -110.5t102 -37.5q42 0 87 28t80 79l61 -35q-42 -64 -103.5 -98t-128.5 -34zM176 397q-41 -41 -63 -104h298q2 20 2 27
q0 127 -124 127q-63 0 -113 -50zM338 566h-62l-85 128h99z" />
    <glyph glyph-name="eacute" unicode="&#xe9;" horiz-adv-x="538" 
d="M229 -15q-96 0 -154 57.5t-58 153.5q0 120 77.5 215.5t196.5 95.5q84 0 140 -50.5t56 -134.5q0 -31 -10 -86h-378q-3 -21 -3 -43q0 -73 35 -110.5t102 -37.5q42 0 87 28t80 79l61 -35q-42 -64 -103.5 -98t-128.5 -34zM176 397q-41 -41 -63 -104h298q2 20 2 27
q0 127 -124 127q-63 0 -113 -50zM278 566l97 128h110l-141 -128h-66z" />
    <glyph glyph-name="ecircumflex" unicode="&#xea;" horiz-adv-x="538" 
d="M229 -15q-96 0 -154 57.5t-58 153.5q0 120 77.5 215.5t196.5 95.5q84 0 140 -50.5t56 -134.5q0 -31 -10 -86h-378q-3 -21 -3 -43q0 -73 35 -110.5t102 -37.5q42 0 87 28t80 79l61 -35q-42 -64 -103.5 -98t-128.5 -34zM176 397q-41 -41 -63 -104h298q2 20 2 27
q0 127 -124 127q-63 0 -113 -50zM245 570h-79l140 121h74l80 -121h-71l-54 69z" />
    <glyph glyph-name="edieresis" unicode="&#xeb;" horiz-adv-x="538" 
d="M229 -15q-96 0 -154 57.5t-58 153.5q0 120 77.5 215.5t196.5 95.5q84 0 140 -50.5t56 -134.5q0 -31 -10 -86h-378q-3 -21 -3 -43q0 -73 35 -110.5t102 -37.5q42 0 87 28t80 79l61 -35q-42 -64 -103.5 -98t-128.5 -34zM176 397q-41 -41 -63 -104h298q2 20 2 27
q0 127 -124 127q-63 0 -113 -50zM274 584h-86l20 94h86zM444 584h-86l20 94h86z" />
    <glyph glyph-name="igrave" unicode="&#xec;" horiz-adv-x="215" 
d="M77 0h-79l105 492h79zM184 566h-62l-85 128h99z" />
    <glyph glyph-name="iacute" unicode="&#xed;" horiz-adv-x="215" 
d="M77 0h-79l105 492h79zM124 566l97 128h110l-141 -128h-66z" />
    <glyph glyph-name="icircumflex" unicode="&#xee;" horiz-adv-x="215" 
d="M77 0h-79l105 492h79zM91 570h-79l140 121h74l80 -121h-71l-54 69z" />
    <glyph glyph-name="idieresis" unicode="&#xef;" horiz-adv-x="215" 
d="M77 0h-79l105 492h79zM120 584h-86l20 94h86zM290 584h-86l20 94h86z" />
    <glyph glyph-name="eth" unicode="&#xf0;" horiz-adv-x="552" 
d="M226 -15q-92 0 -150 58.5t-58 152.5q0 77 28.5 146.5t88.5 117t139 47.5q87 0 137 -75q-24 71 -73 152l-141 -43l-6 53l118 36q-30 44 -51 70h84q21 -26 36 -49l97 30l6 -53l-73 -22q93 -152 93 -298q0 -134 -78 -228.5t-197 -94.5zM97 193q0 -70 34.5 -109t97.5 -39
t115 52q35 35 56.5 87.5t21.5 97.5q0 78 -39.5 121.5t-104.5 43.5q-57 0 -104 -47q-36 -36 -56.5 -91t-20.5 -116z" />
    <glyph glyph-name="ntilde" unicode="&#xf1;" horiz-adv-x="536" 
d="M72 0h-79l105 492h79l-21 -97q74 112 181 112q77 0 117 -51.5t22 -136.5l-68 -319h-79l66 312q28 132 -86 132q-60 0 -113.5 -57.5t-70.5 -135.5zM512 659q-23 -40 -55 -63.5t-58 -23.5q-35 0 -70 25l-15 11q-26 20 -40 20q-26 0 -64 -54l-41 28q23 40 55 63.5t58 23.5
q35 0 70 -25l15 -11q26 -20 40 -20q26 0 64 54z" />
    <glyph glyph-name="ograve" unicode="&#xf2;" horiz-adv-x="552" 
d="M500 296q0 -77 -33 -147.5t-97.5 -117t-144.5 -46.5q-92 0 -150 58.5t-58 152.5q0 77 33 147.5t97.5 117t144.5 46.5q92 0 150 -58.5t58 -152.5zM96 193q0 -70 34.5 -109t97.5 -39q61 0 113 50q37 37 58.5 92.5t21.5 111.5q0 70 -34.5 109t-97.5 39q-61 0 -113 -50
q-37 -37 -58.5 -92.5t-21.5 -111.5zM342 566h-62l-85 128h99z" />
    <glyph glyph-name="oacute" unicode="&#xf3;" horiz-adv-x="552" 
d="M500 296q0 -77 -33 -147.5t-97.5 -117t-144.5 -46.5q-92 0 -150 58.5t-58 152.5q0 77 33 147.5t97.5 117t144.5 46.5q92 0 150 -58.5t58 -152.5zM96 193q0 -70 34.5 -109t97.5 -39q61 0 113 50q37 37 58.5 92.5t21.5 111.5q0 70 -34.5 109t-97.5 39q-61 0 -113 -50
q-37 -37 -58.5 -92.5t-21.5 -111.5zM282 566l97 128h110l-141 -128h-66z" />
    <glyph glyph-name="ocircumflex" unicode="&#xf4;" horiz-adv-x="552" 
d="M500 296q0 -77 -33 -147.5t-97.5 -117t-144.5 -46.5q-92 0 -150 58.5t-58 152.5q0 77 33 147.5t97.5 117t144.5 46.5q92 0 150 -58.5t58 -152.5zM96 193q0 -70 34.5 -109t97.5 -39q61 0 113 50q37 37 58.5 92.5t21.5 111.5q0 70 -34.5 109t-97.5 39q-61 0 -113 -50
q-37 -37 -58.5 -92.5t-21.5 -111.5zM249 570h-79l140 121h74l80 -121h-71l-54 69z" />
    <glyph glyph-name="otilde" unicode="&#xf5;" horiz-adv-x="552" 
d="M500 296q0 -77 -33 -147.5t-97.5 -117t-144.5 -46.5q-92 0 -150 58.5t-58 152.5q0 77 33 147.5t97.5 117t144.5 46.5q92 0 150 -58.5t58 -152.5zM96 193q0 -70 34.5 -109t97.5 -39q61 0 113 50q37 37 58.5 92.5t21.5 111.5q0 70 -34.5 109t-97.5 39q-61 0 -113 -50
q-37 -37 -58.5 -92.5t-21.5 -111.5zM502 659q-23 -40 -55 -63.5t-58 -23.5q-35 0 -70 25l-15 11q-26 20 -40 20q-26 0 -64 -54l-41 28q23 40 55 63.5t58 23.5q35 0 70 -25l15 -11q26 -20 40 -20q26 0 64 54z" />
    <glyph glyph-name="odieresis" unicode="&#xf6;" horiz-adv-x="552" 
d="M500 296q0 -77 -33 -147.5t-97.5 -117t-144.5 -46.5q-92 0 -150 58.5t-58 152.5q0 77 33 147.5t97.5 117t144.5 46.5q92 0 150 -58.5t58 -152.5zM96 193q0 -70 34.5 -109t97.5 -39q61 0 113 50q37 37 58.5 92.5t21.5 111.5q0 70 -34.5 109t-97.5 39q-61 0 -113 -50
q-37 -37 -58.5 -92.5t-21.5 -111.5zM278 584h-86l20 94h86zM448 584h-86l20 94h86z" />
    <glyph glyph-name="divide" unicode="&#xf7;" horiz-adv-x="561" 
d="M267 449l23 106h76l-23 -106h-76zM492 309h-431l12 59h431zM274 122h-76l22 106h76z" />
    <glyph glyph-name="oslash" unicode="&#xf8;" horiz-adv-x="552" 
d="M96 193q0 -35 10 -67l276 287q-34 34 -93 34q-61 0 -113 -50q-37 -37 -58.5 -92.5t-21.5 -111.5zM228 45q61 0 113 50q37 37 58.5 92.5t21.5 111.5q0 35 -10 67l-276 -287q34 -34 93 -34zM225 -15q-80 0 -136 46l-64 -66l-39 36l67 70q-36 52 -36 125q0 77 33 147.5
t97.5 117t144.5 46.5t136 -46l64 66l39 -36l-67 -70q36 -52 36 -125q0 -77 -33 -147.5t-97.5 -117t-144.5 -46.5z" />
    <glyph glyph-name="ugrave" unicode="&#xf9;" horiz-adv-x="534" 
d="M322 0l21 97q-74 -112 -180 -112q-76 0 -116 51.5t-22 136.5l68 319h79l-66 -312q-28 -132 85 -132q59 0 112.5 57.5t70.5 135.5l53 251h79l-105 -492h-79zM338 566h-62l-85 128h99z" />
    <glyph glyph-name="uacute" unicode="&#xfa;" horiz-adv-x="534" 
d="M322 0l21 97q-74 -112 -180 -112q-76 0 -116 51.5t-22 136.5l68 319h79l-66 -312q-28 -132 85 -132q59 0 112.5 57.5t70.5 135.5l53 251h79l-105 -492h-79zM278 566l97 128h110l-141 -128h-66z" />
    <glyph glyph-name="ucircumflex" unicode="&#xfb;" horiz-adv-x="534" 
d="M322 0l21 97q-74 -112 -180 -112q-76 0 -116 51.5t-22 136.5l68 319h79l-66 -312q-28 -132 85 -132q59 0 112.5 57.5t70.5 135.5l53 251h79l-105 -492h-79zM245 570h-79l140 121h74l80 -121h-71l-54 69z" />
    <glyph glyph-name="udieresis" unicode="&#xfc;" horiz-adv-x="534" 
d="M322 0l21 97q-74 -112 -180 -112q-76 0 -116 51.5t-22 136.5l68 319h79l-66 -312q-28 -132 85 -132q59 0 112.5 57.5t70.5 135.5l53 251h79l-105 -492h-79zM275 584h-86l20 94h86zM445 584h-86l20 94h86z" />
    <glyph glyph-name="yacute" unicode="&#xfd;" horiz-adv-x="481" 
d="M-13 -198q-35 0 -54 4l13 62q23 -3 49 -3q43 0 63.5 13t45.5 57l31 54l-81 503h79l60 -408l223 408h81l-319 -570q-38 -69 -80 -94.5t-111 -25.5zM262 566l97 128h110l-141 -128h-66z" />
    <glyph glyph-name="thorn" unicode="&#xfe;" horiz-adv-x="572" 
d="M261 45q57 0 104 47q36 36 56.5 91t20.5 116q0 69 -35 108.5t-97 39.5q-63 0 -115 -52q-36 -36 -57 -86.5t-21 -98.5q0 -78 39.5 -121.5t104.5 -43.5zM265 -15q-60 0 -104.5 36.5t-62.5 93.5l-66 -305h-79l189 890h79l-62 -291q33 46 79 72t96 26q77 0 132 -59t55 -152
q0 -77 -28.5 -146.5t-88.5 -117t-139 -47.5z" />
    <glyph glyph-name="ydieresis" unicode="&#xff;" horiz-adv-x="481" 
d="M-13 -198q-35 0 -54 4l13 62q23 -3 49 -3q43 0 63.5 13t45.5 57l31 54l-81 503h79l60 -408l223 408h81l-319 -570q-38 -69 -80 -94.5t-111 -25.5zM258 584h-86l20 94h86zM428 584h-86l20 94h86z" />
    <glyph glyph-name="Amacron" unicode="&#x100;" horiz-adv-x="634" 
d="M424 282l-47 333l-188 -333h235zM463 0l-30 212h-283l-120 -212h-85l404 700h93l107 -700h-86zM293 790l14 66h256l-14 -66h-256z" />
    <glyph glyph-name="amacron" unicode="&#x101;" horiz-adv-x="500" 
d="M160 45q61 0 113 46.5t65 108.5l11 50h-68q-216 0 -216 -123q0 -38 26 -60t69 -22zM297 0l19 89q-71 -104 -179 -104q-68 0 -110 37.5t-42 96.5q0 84 71.5 134t230.5 50h73l2 10q13 65 -11 99.5t-81 34.5q-38 0 -75 -25t-64 -69l-64 32q73 122 210 122q90 0 135.5 -55.5
t25.5 -150.5l-64 -301h-77zM181 598l14 66h256l-14 -66h-256z" />
    <glyph glyph-name="Abreve" unicode="&#x102;" horiz-adv-x="634" 
d="M424 282l-47 333l-188 -333h235zM463 0l-30 212h-283l-120 -212h-85l404 700h93l107 -700h-86zM566 865q-54 -103 -156 -103q-95 0 -120 103l56 19q12 -34 27.5 -47t39.5 -13q55 0 93 60z" />
    <glyph glyph-name="abreve" unicode="&#x103;" horiz-adv-x="500" 
d="M160 45q61 0 113 46.5t65 108.5l11 50h-68q-216 0 -216 -123q0 -38 26 -60t69 -22zM297 0l19 89q-71 -104 -179 -104q-68 0 -110 37.5t-42 96.5q0 84 71.5 134t230.5 50h73l2 10q13 65 -11 99.5t-81 34.5q-38 0 -75 -25t-64 -69l-64 32q73 122 210 122q90 0 135.5 -55.5
t25.5 -150.5l-64 -301h-77zM454 676q-51 -109 -151 -109q-49 0 -81.5 28.5t-43.5 80.5l59 19q13 -36 29.5 -51t42.5 -15q56 0 88 66z" />
    <glyph glyph-name="Aogonek" unicode="&#x104;" horiz-adv-x="634" 
d="M424 282l-47 333l-188 -333h235zM492 0h-29l-30 212h-283l-120 -212h-85l404 700h93l107 -700l-61 -55q-43 -38 -43 -62q0 -21 22 -21q16 0 35 8l15 -45q-34 -20 -71 -20q-36 0 -55.5 18.5t-19.5 45.5q0 46 74 98z" />
    <glyph glyph-name="aogonek" unicode="&#x105;" horiz-adv-x="500" 
d="M160 45q61 0 113 46.5t65 108.5l11 50h-68q-216 0 -216 -123q0 -38 26 -60t69 -22zM317 0h-20l19 89q-71 -104 -179 -104q-68 0 -110 37.5t-42 96.5q0 84 71.5 134t230.5 50h73l2 10q13 65 -11 99.5t-81 34.5q-38 0 -75 -25t-64 -69l-64 32q73 122 210 122
q90 0 135.5 -55.5t25.5 -150.5l-64 -301l-61 -55q-43 -38 -43 -62q0 -21 22 -21q16 0 35 8l15 -45q-34 -20 -71 -20q-36 0 -55.5 18.5t-19.5 45.5q0 46 74 98z" />
    <glyph glyph-name="Cacute" unicode="&#x106;" horiz-adv-x="642" 
d="M579 204q-44 -107 -118 -163t-169 -56q-121 0 -186 78t-65 211q0 56 14 116.5t44 118.5t70.5 104t99 74t124.5 28q93 0 153 -57t79 -164l-80 -11q-14 81 -53.5 123t-100.5 42q-81 0 -146 -65q-55 -56 -87 -142.5t-32 -169.5q0 -102 44.5 -160.5t123.5 -58.5
q139 0 216 180zM387 766l91 112h106l-128 -112h-69z" />
    <glyph glyph-name="cacute" unicode="&#x107;" horiz-adv-x="520" 
d="M444 147q-34 -77 -93.5 -119.5t-135.5 -42.5q-85 0 -141.5 59t-56.5 152q0 120 77.5 215.5t196.5 95.5q80 0 130 -44t64 -124l-76 -9q-19 117 -121 117q-62 0 -112 -50q-37 -38 -58.5 -93t-21.5 -111q0 -69 33 -108.5t89 -39.5q97 0 164 132zM285 566l97 128h110
l-141 -128h-66z" />
    <glyph glyph-name="Cdotaccent" unicode="&#x10a;" horiz-adv-x="642" 
d="M579 204q-44 -107 -118 -163t-169 -56q-121 0 -186 78t-65 211q0 56 14 116.5t44 118.5t70.5 104t99 74t124.5 28q93 0 153 -57t79 -164l-80 -11q-14 81 -53.5 123t-100.5 42q-81 0 -146 -65q-55 -56 -87 -142.5t-32 -169.5q0 -102 44.5 -160.5t123.5 -58.5
q139 0 216 180zM471 771h-96l22 104h96z" />
    <glyph glyph-name="cdotaccent" unicode="&#x10b;" horiz-adv-x="520" 
d="M444 147q-34 -77 -93.5 -119.5t-135.5 -42.5q-85 0 -141.5 59t-56.5 152q0 120 77.5 215.5t196.5 95.5q80 0 130 -44t64 -124l-76 -9q-19 117 -121 117q-62 0 -112 -50q-37 -38 -58.5 -93t-21.5 -111q0 -69 33 -108.5t89 -39.5q97 0 164 132zM370 579h-96l22 104h96z" />
    <glyph glyph-name="Ccaron" unicode="&#x10c;" horiz-adv-x="642" 
d="M579 204q-44 -107 -118 -163t-169 -56q-121 0 -186 78t-65 211q0 56 14 116.5t44 118.5t70.5 104t99 74t124.5 28q93 0 153 -57t79 -164l-80 -11q-14 81 -53.5 123t-100.5 42q-81 0 -146 -65q-55 -56 -87 -142.5t-32 -169.5q0 -102 44.5 -160.5t123.5 -58.5
q139 0 216 180zM372 765l-86 115h69l60 -65l84 65h81l-134 -115h-74z" />
    <glyph glyph-name="ccaron" unicode="&#x10d;" horiz-adv-x="520" 
d="M444 147q-34 -77 -93.5 -119.5t-135.5 -42.5q-85 0 -141.5 59t-56.5 152q0 120 77.5 215.5t196.5 95.5q80 0 130 -44t64 -124l-76 -9q-19 117 -121 117q-62 0 -112 -50q-37 -38 -58.5 -93t-21.5 -111q0 -69 33 -108.5t89 -39.5q97 0 164 132zM266 570l-80 121h71l54 -69
l90 69h79l-140 -121h-74z" />
    <glyph glyph-name="Dcaron" unicode="&#x10e;" horiz-adv-x="681" 
d="M3 0l149 700h205q149 0 221 -73t72 -196q0 -85 -25.5 -161.5t-73 -137t-123.5 -96.5t-170 -36h-255zM100 68h163q120 0 199 79q103 102 103 287q0 198 -217 198h-128zM365 765l-86 115h69l60 -65l84 65h81l-134 -115h-74z" />
    <glyph glyph-name="dcaron" unicode="&#x10f;" horiz-adv-x="573" 
d="M605 537l58 72h-43l19 91h102l-19 -91l-66 -72h-51zM227 45q63 0 115 52q36 36 57 86.5t21 98.5q0 78 -39.5 121.5t-104.5 43.5q-57 0 -104 -47q-36 -36 -56.5 -91t-20.5 -116q0 -69 35 -108.5t97 -39.5zM361 0l18 84q-70 -99 -176 -99q-77 0 -132 59t-55 152
q0 77 28.5 146.5t88.5 117t139 47.5q60 0 105 -37t63 -95l70 325h79l-149 -700h-79z" />
    <glyph glyph-name="Dcroat" unicode="&#x110;" horiz-adv-x="681" 
d="M258 0h-255l70 327h-69l13 64h69l66 309h205q149 0 221 -73t72 -196q0 -85 -25.5 -161.5t-73 -137t-123.5 -96.5t-170 -36zM100 68h163q120 0 199 79q103 102 103 287q0 198 -217 198h-128l-51 -241h167l-13 -64h-168z" />
    <glyph glyph-name="dcroat" unicode="&#x111;" horiz-adv-x="573" 
d="M227 45q63 0 115 52q36 36 57 86.5t21 98.5q0 78 -39.5 121.5t-104.5 43.5q-57 0 -104 -47q-36 -36 -56.5 -91t-20.5 -116q0 -69 35 -108.5t97 -39.5zM379 84q-70 -99 -176 -99q-77 0 -132 59t-55 152q0 77 28.5 146.5t88.5 117t139 47.5q60 0 105 -37t63 -95l40 187
h-119l12 55h119l18 83h79l-18 -83h64l-12 -55h-63l-120 -562h-79z" />
    <glyph glyph-name="Emacron" unicode="&#x112;" 
d="M469 69l-15 -69h-451l149 700h451l-15 -69h-368l-50 -238h323l-15 -68h-323l-54 -256h368zM269 790l14 66h256l-14 -66h-256z" />
    <glyph glyph-name="emacron" unicode="&#x113;" horiz-adv-x="538" 
d="M229 -15q-96 0 -154 57.5t-58 153.5q0 120 77.5 215.5t196.5 95.5q84 0 140 -50.5t56 -134.5q0 -31 -10 -86h-378q-3 -21 -3 -43q0 -73 35 -110.5t102 -37.5q42 0 87 28t80 79l61 -35q-42 -64 -103.5 -98t-128.5 -34zM176 397q-41 -41 -63 -104h298q2 20 2 27
q0 127 -124 127q-63 0 -113 -50zM191 598l14 66h256l-14 -66h-256z" />
    <glyph glyph-name="Ebreve" unicode="&#x114;" 
d="M469 69l-15 -69h-451l149 700h451l-15 -69h-368l-50 -238h323l-15 -68h-323l-54 -256h368zM542 865q-54 -103 -156 -103q-95 0 -120 103l56 19q12 -34 27.5 -47t39.5 -13q55 0 93 60z" />
    <glyph glyph-name="ebreve" unicode="&#x115;" horiz-adv-x="538" 
d="M229 -15q-96 0 -154 57.5t-58 153.5q0 120 77.5 215.5t196.5 95.5q84 0 140 -50.5t56 -134.5q0 -31 -10 -86h-378q-3 -21 -3 -43q0 -73 35 -110.5t102 -37.5q42 0 87 28t80 79l61 -35q-42 -64 -103.5 -98t-128.5 -34zM176 397q-41 -41 -63 -104h298q2 20 2 27
q0 127 -124 127q-63 0 -113 -50zM464 676q-51 -109 -151 -109q-49 0 -81.5 28.5t-43.5 80.5l59 19q13 -36 29.5 -51t42.5 -15q56 0 88 66z" />
    <glyph glyph-name="Edotaccent" unicode="&#x116;" 
d="M469 69l-15 -69h-451l149 700h451l-15 -69h-368l-50 -238h323l-15 -68h-323l-54 -256h368zM441 771h-96l22 104h96z" />
    <glyph glyph-name="edotaccent" unicode="&#x117;" horiz-adv-x="538" 
d="M229 -15q-96 0 -154 57.5t-58 153.5q0 120 77.5 215.5t196.5 95.5q84 0 140 -50.5t56 -134.5q0 -31 -10 -86h-378q-3 -21 -3 -43q0 -73 35 -110.5t102 -37.5q42 0 87 28t80 79l61 -35q-42 -64 -103.5 -98t-128.5 -34zM176 397q-41 -41 -63 -104h298q2 20 2 27
q0 127 -124 127q-63 0 -113 -50zM363 579h-96l22 104h96z" />
    <glyph glyph-name="Eogonek" unicode="&#x118;" 
d="M397 0h-394l149 700h451l-15 -69h-368l-50 -238h323l-15 -68h-323l-54 -256h368l-15 -69l-61 -55q-43 -38 -43 -62q0 -21 22 -21q16 0 35 8l15 -45q-34 -20 -71 -20q-36 0 -55.5 18.5t-19.5 45.5q0 46 74 98z" />
    <glyph glyph-name="eogonek" unicode="&#x119;" horiz-adv-x="538" 
d="M167 -195q-36 0 -55.5 18.5t-19.5 45.5q0 46 74 98l29 20q-82 11 -130 66.5t-48 142.5q0 120 77.5 215.5t196.5 95.5q84 0 140 -50.5t56 -134.5q0 -31 -10 -86h-378q-3 -21 -3 -43q0 -73 35 -110.5t102 -37.5q42 0 87 28t80 79l61 -35q-38 -57 -92 -91t-114 -40l-46 -41
q-43 -38 -43 -62q0 -21 22 -21q16 0 35 8l15 -45q-34 -20 -71 -20zM176 397q-41 -41 -63 -104h298q2 20 2 27q0 127 -124 127q-63 0 -113 -50z" />
    <glyph glyph-name="Ecaron" unicode="&#x11a;" 
d="M469 69l-15 -69h-451l149 700h451l-15 -69h-368l-50 -238h323l-15 -68h-323l-54 -256h368zM342 765l-86 115h69l60 -65l84 65h81l-134 -115h-74z" />
    <glyph glyph-name="ecaron" unicode="&#x11b;" horiz-adv-x="538" 
d="M229 -15q-96 0 -154 57.5t-58 153.5q0 120 77.5 215.5t196.5 95.5q84 0 140 -50.5t56 -134.5q0 -31 -10 -86h-378q-3 -21 -3 -43q0 -73 35 -110.5t102 -37.5q42 0 87 28t80 79l61 -35q-42 -64 -103.5 -98t-128.5 -34zM176 397q-41 -41 -63 -104h298q2 20 2 27
q0 127 -124 127q-63 0 -113 -50zM259 570l-80 121h71l54 -69l90 69h79l-140 -121h-74z" />
    <glyph glyph-name="Gbreve" unicode="&#x11e;" horiz-adv-x="684" 
d="M481 0l23 107q-84 -122 -217 -122q-115 0 -181 79.5t-66 209.5q0 56 14.5 116.5t45 118.5t73 104t103 74t129.5 28q94 0 157 -56.5t80 -150.5l-77 -13q-30 153 -163 153q-91 0 -162 -71q-54 -54 -84.5 -137.5t-30.5 -168.5q0 -101 45.5 -160t130.5 -59q75 0 139 55
t87 157l4 18h-205l14 67h289l-74 -349h-74zM580 865q-54 -103 -156 -103q-95 0 -120 103l56 19q12 -34 27.5 -47t39.5 -13q55 0 93 60z" />
    <glyph glyph-name="gbreve" unicode="&#x11f;" horiz-adv-x="509" 
d="M232 219q61 0 101 40q38 38 38 90q0 47 -30.5 74t-84.5 27q-61 0 -101 -40q-38 -38 -38 -90q0 -47 30.5 -74t84.5 -27zM415 -44q0 -76 -71 -118.5t-190 -42.5q-110 0 -169 36.5t-59 95.5q0 99 130 124q-38 21 -38 62q0 62 93 80q-70 45 -70 128q0 72 63 129t157 57
q74 0 125 -37q41 77 140 77h2l-13 -63q-67 -1 -98 -45q30 -37 30 -91q0 -72 -63 -129t-157 -57q-30 0 -57 6q-75 -14 -75 -46q0 -16 12 -22.5t46 -7.5q141 -4 201 -37q61 -34 61 -99zM160 -145q80 0 128.5 24.5t48.5 63.5q0 77 -199 77q-64 0 -98 -24.5t-34 -63.5
q0 -36 38.5 -56.5t115.5 -20.5zM463 676q-51 -109 -151 -109q-49 0 -81.5 28.5t-43.5 80.5l59 19q13 -36 29.5 -51t42.5 -15q56 0 88 66z" />
    <glyph glyph-name="Gdotaccent" unicode="&#x120;" horiz-adv-x="684" 
d="M481 0l23 107q-84 -122 -217 -122q-115 0 -181 79.5t-66 209.5q0 56 14.5 116.5t45 118.5t73 104t103 74t129.5 28q94 0 157 -56.5t80 -150.5l-77 -13q-30 153 -163 153q-91 0 -162 -71q-54 -54 -84.5 -137.5t-30.5 -168.5q0 -101 45.5 -160t130.5 -59q75 0 139 55
t87 157l4 18h-205l14 67h289l-74 -349h-74zM479 771h-96l22 104h96z" />
    <glyph glyph-name="gdotaccent" unicode="&#x121;" horiz-adv-x="509" 
d="M232 219q61 0 101 40q38 38 38 90q0 47 -30.5 74t-84.5 27q-61 0 -101 -40q-38 -38 -38 -90q0 -47 30.5 -74t84.5 -27zM415 -44q0 -76 -71 -118.5t-190 -42.5q-110 0 -169 36.5t-59 95.5q0 99 130 124q-38 21 -38 62q0 62 93 80q-70 45 -70 128q0 72 63 129t157 57
q74 0 125 -37q41 77 140 77h2l-13 -63q-67 -1 -98 -45q30 -37 30 -91q0 -72 -63 -129t-157 -57q-30 0 -57 6q-75 -14 -75 -46q0 -16 12 -22.5t46 -7.5q141 -4 201 -37q61 -34 61 -99zM160 -145q80 0 128.5 24.5t48.5 63.5q0 77 -199 77q-64 0 -98 -24.5t-34 -63.5
q0 -36 38.5 -56.5t115.5 -20.5zM362 579h-96l22 104h96z" />
    <glyph glyph-name="uni0122" unicode="&#x122;" horiz-adv-x="684" 
d="M481 0l23 107q-84 -122 -217 -122q-115 0 -181 79.5t-66 209.5q0 56 14.5 116.5t45 118.5t73 104t103 74t129.5 28q94 0 157 -56.5t80 -150.5l-77 -13q-30 153 -163 153q-91 0 -162 -71q-54 -54 -84.5 -137.5t-30.5 -168.5q0 -101 45.5 -160t130.5 -59q75 0 139 55
t87 157l4 18h-205l14 67h289l-74 -349h-74zM197 -208l58 72h-43l19 91h102l-19 -91l-66 -72h-51z" />
    <glyph glyph-name="uni0123" unicode="&#x123;" horiz-adv-x="509" 
d="M385 735l-58 -72h43l-19 -91h-102l19 91l66 72h51zM232 219q61 0 101 40q38 38 38 90q0 47 -30.5 74t-84.5 27q-61 0 -101 -40q-38 -38 -38 -90q0 -47 30.5 -74t84.5 -27zM415 -44q0 -76 -71 -118.5t-190 -42.5q-110 0 -169 36.5t-59 95.5q0 99 130 124q-38 21 -38 62
q0 62 93 80q-70 45 -70 128q0 72 63 129t157 57q74 0 125 -37q41 77 140 77h2l-13 -63q-67 -1 -98 -45q30 -37 30 -91q0 -72 -63 -129t-157 -57q-30 0 -57 6q-75 -14 -75 -46q0 -16 12 -22.5t46 -7.5q141 -4 201 -37q61 -34 61 -99zM160 -145q80 0 128.5 24.5t48.5 63.5
q0 77 -199 77q-64 0 -98 -24.5t-34 -63.5q0 -36 38.5 -56.5t115.5 -20.5z" />
    <glyph glyph-name="Hbar" unicode="&#x126;" horiz-adv-x="673" 
d="M174 392h351l21 98h-351zM160 322l-69 -322h-83l104 490h-75l14 64h75l31 146h83l-31 -146h351l31 146h83l-31 -146h75l-14 -64h-75l-104 -490h-83l69 322h-351z" />
    <glyph glyph-name="hbar" unicode="&#x127;" horiz-adv-x="536" 
d="M125 251l-53 -251h-79l120 562h-65l12 55h64l18 83h79l-18 -83h119l-12 -55h-118l-36 -168q74 113 181 113q77 0 117 -51.5t22 -136.5l-68 -319h-79l66 312q28 132 -86 132q-60 0 -113.5 -57.5t-70.5 -135.5z" />
    <glyph glyph-name="Itilde" unicode="&#x128;" horiz-adv-x="237" 
d="M7 0l149 700h83l-149 -700h-83zM395 851q-23 -40 -55 -63.5t-58 -23.5q-35 0 -70 25l-15 11q-26 20 -40 20q-26 0 -64 -54l-41 28q23 40 55 63.5t58 23.5q35 0 70 -25l15 -11q26 -20 40 -20q26 0 64 54z" />
    <glyph glyph-name="itilde" unicode="&#x129;" horiz-adv-x="215" 
d="M77 0h-79l105 492h79zM344 659q-23 -40 -55 -63.5t-58 -23.5q-35 0 -70 25l-15 11q-26 20 -40 20q-26 0 -64 -54l-41 28q23 40 55 63.5t58 23.5q35 0 70 -25l15 -11q26 -20 40 -20q26 0 64 54z" />
    <glyph glyph-name="Imacron" unicode="&#x12a;" horiz-adv-x="237" 
d="M7 0l149 700h83l-149 -700h-83zM89 790l14 66h256l-14 -66h-256z" />
    <glyph glyph-name="imacron" unicode="&#x12b;" horiz-adv-x="215" 
d="M77 0h-79l105 492h79zM37 598l14 66h256l-14 -66h-256z" />
    <glyph glyph-name="Ibreve" unicode="&#x12c;" horiz-adv-x="237" 
d="M7 0l149 700h83l-149 -700h-83zM362 865q-54 -103 -156 -103q-95 0 -120 103l56 19q12 -34 27.5 -47t39.5 -13q55 0 93 60z" />
    <glyph glyph-name="ibreve" unicode="&#x12d;" horiz-adv-x="215" 
d="M77 0h-79l105 492h79zM310 676q-51 -109 -151 -109q-49 0 -81.5 28.5t-43.5 80.5l59 19q13 -36 29.5 -51t42.5 -15q56 0 88 66z" />
    <glyph glyph-name="Iogonek" unicode="&#x12e;" horiz-adv-x="237" 
d="M33 0h-26l149 700h83l-149 -700l-61 -55q-43 -38 -43 -62q0 -21 22 -21q16 0 35 8l15 -45q-34 -20 -71 -20q-36 0 -55.5 18.5t-19.5 45.5q0 46 74 98z" />
    <glyph glyph-name="iogonek" unicode="&#x12f;" horiz-adv-x="215" 
d="M200 579h-79l22 104h79zM20 0h-22l105 492h79l-105 -492l-61 -55q-43 -38 -43 -62q0 -21 22 -21q16 0 35 8l15 -45q-34 -20 -71 -20q-36 0 -55.5 18.5t-19.5 45.5q0 46 74 98z" />
    <glyph glyph-name="Idotaccent" unicode="&#x130;" horiz-adv-x="237" 
d="M7 0l149 700h83l-149 -700h-83zM261 771h-96l22 104h96z" />
    <glyph glyph-name="dotlessi" unicode="&#x131;" horiz-adv-x="215" 
d="M77 0h-79l105 492h79z" />
    <glyph glyph-name="IJ" unicode="&#x132;" horiz-adv-x="654" 
d="M7 0l149 700h83l-149 -700h-83zM336 -14q-87 0 -148 59l44 59q56 -48 109 -48q98 0 123 119l112 525h83l-113 -530q-19 -93 -75 -138.5t-135 -45.5z" />
    <glyph glyph-name="ij" unicode="&#x133;" horiz-adv-x="430" 
d="M200 579h-79l22 104h79zM77 0h-79l105 492h79zM415 579h-79l22 104h79zM103 -196q-25 0 -44 3l13 59q18 -2 37 -2q41 0 62 19t31 64l116 545h79l-114 -532q-17 -79 -59 -117.5t-121 -38.5z" />
    <glyph glyph-name="uni0136" unicode="&#x136;" horiz-adv-x="642" 
d="M449 0l-148 356l-175 -167l-40 -189h-83l149 700h83l-85 -401l415 401h99l-300 -288l176 -412h-91zM164 -208l58 72h-43l19 91h102l-19 -91l-66 -72h-51z" />
    <glyph glyph-name="uni0137" unicode="&#x137;" horiz-adv-x="508" 
d="M72 0h-79l149 700h79l-98 -461l282 253h94l-215 -192l134 -300h-86l-108 251l-121 -106zM97 -208l58 72h-43l19 91h102l-19 -91l-66 -72h-51z" />
    <glyph glyph-name="Lacute" unicode="&#x139;" horiz-adv-x="554" 
d="M3 0l149 700h83l-134 -631h354l-15 -69h-437zM176 766l91 112h106l-128 -112h-69z" />
    <glyph glyph-name="lacute" unicode="&#x13a;" horiz-adv-x="215" 
d="M77 0h-79l149 700h79zM168 774l97 128h110l-141 -128h-66z" />
    <glyph glyph-name="uni013B" unicode="&#x13b;" horiz-adv-x="554" 
d="M3 0l149 700h83l-134 -631h354l-15 -69h-437zM135 -208l58 72h-43l19 91h102l-19 -91l-66 -72h-51z" />
    <glyph glyph-name="uni013C" unicode="&#x13c;" horiz-adv-x="215" 
d="M77 0h-79l149 700h79zM-57 -208l58 72h-43l19 91h102l-19 -91l-66 -72h-51z" />
    <glyph glyph-name="Lcaron" unicode="&#x13d;" horiz-adv-x="554" 
d="M3 0l149 700h83l-134 -631h354l-15 -69h-437zM396 537l58 72h-43l19 91h102l-19 -91l-66 -72h-51z" />
    <glyph glyph-name="lcaron" unicode="&#x13e;" horiz-adv-x="215" 
d="M242 537l58 72h-43l19 91h102l-19 -91l-66 -72h-51zM77 0h-79l149 700h79z" />
    <glyph glyph-name="Ldot" unicode="&#x13f;" horiz-adv-x="554" 
d="M3 0l149 700h83l-134 -631h354l-15 -69h-437zM421 298h-96l22 104h96z" />
    <glyph glyph-name="ldot" unicode="&#x140;" horiz-adv-x="328" 
d="M77 0h-79l149 700h79zM296 298h-96l22 104h96z" />
    <glyph glyph-name="Lslash" unicode="&#x141;" horiz-adv-x="554" 
d="M440 0h-437l53 247l-73 -29l15 69l72 29l82 384h83l-74 -347l245 98l-15 -69l-244 -98l-46 -215h354z" />
    <glyph glyph-name="lslash" unicode="&#x142;" horiz-adv-x="261" 
d="M100 0h-79l73 344l-91 -41l17 74l90 41l60 282h79l-52 -242l91 41l-16 -74l-90 -41z" />
    <glyph glyph-name="Nacute" unicode="&#x143;" horiz-adv-x="670" 
d="M80 0h-77l149 700h96l225 -591l126 591h77l-149 -700h-94l-227 596zM400 766l91 112h106l-128 -112h-69z" />
    <glyph glyph-name="nacute" unicode="&#x144;" horiz-adv-x="536" 
d="M72 0h-79l105 492h79l-21 -97q74 112 181 112q77 0 117 -51.5t22 -136.5l-68 -319h-79l66 312q28 132 -86 132q-60 0 -113.5 -57.5t-70.5 -135.5zM292 566l97 128h110l-141 -128h-66z" />
    <glyph glyph-name="uni0145" unicode="&#x145;" horiz-adv-x="670" 
d="M80 0h-77l149 700h96l225 -591l126 591h77l-149 -700h-94l-227 596zM177 -208l58 72h-43l19 91h102l-19 -91l-66 -72h-51z" />
    <glyph glyph-name="uni0146" unicode="&#x146;" horiz-adv-x="536" 
d="M72 0h-79l105 492h79l-21 -97q74 112 181 112q77 0 117 -51.5t22 -136.5l-68 -319h-79l66 312q28 132 -86 132q-60 0 -113.5 -57.5t-70.5 -135.5zM111 -208l58 72h-43l19 91h102l-19 -91l-66 -72h-51z" />
    <glyph glyph-name="Ncaron" unicode="&#x147;" horiz-adv-x="670" 
d="M80 0h-77l149 700h96l225 -591l126 591h77l-149 -700h-94l-227 596zM385 765l-86 115h69l60 -65l84 65h81l-134 -115h-74z" />
    <glyph glyph-name="ncaron" unicode="&#x148;" horiz-adv-x="536" 
d="M72 0h-79l105 492h79l-21 -97q74 112 181 112q77 0 117 -51.5t22 -136.5l-68 -319h-79l66 312q28 132 -86 132q-60 0 -113.5 -57.5t-70.5 -135.5zM273 570l-80 121h71l54 -69l90 69h79l-140 -121h-74z" />
    <glyph glyph-name="Eng" unicode="&#x14a;" horiz-adv-x="670" 
d="M311 -196q-36 0 -69 11l14 66q32 -7 61 -7q50 0 78.5 23.5t44.5 84.5l-234 614l-126 -596h-77l149 700h96l225 -591l126 591h77l-152 -712q-40 -184 -213 -184z" />
    <glyph glyph-name="eng" unicode="&#x14b;" horiz-adv-x="536" 
d="M219 -196q-25 0 -44 3l13 59q18 -2 37 -2q41 0 62 19t31 64l77 365q28 132 -86 132q-60 0 -113.5 -57.5t-70.5 -135.5l-53 -251h-79l105 492h79l-21 -97q74 112 181 112q77 0 117 -52t22 -136l-77 -359q-17 -79 -59 -117.5t-121 -38.5z" />
    <glyph glyph-name="Omacron" unicode="&#x14c;" horiz-adv-x="700" 
d="M669 426q0 -56 -14.5 -116.5t-44.5 -118.5t-72 -104t-102.5 -74t-130.5 -28q-130 0 -197.5 77.5t-67.5 211.5q0 56 14.5 116.5t44.5 118.5t72 104t102.5 74t130.5 28q130 0 197.5 -77.5t67.5 -211.5zM125 271q0 -104 46 -161.5t137 -57.5t159 70q55 55 86 139.5t31 167.5
q0 104 -46 161.5t-137 57.5t-159 -70q-55 -55 -86 -139.5t-31 -167.5zM320 790l14 66h256l-14 -66h-256z" />
    <glyph glyph-name="omacron" unicode="&#x14d;" horiz-adv-x="552" 
d="M500 296q0 -77 -33 -147.5t-97.5 -117t-144.5 -46.5q-92 0 -150 58.5t-58 152.5q0 77 33 147.5t97.5 117t144.5 46.5q92 0 150 -58.5t58 -152.5zM96 193q0 -70 34.5 -109t97.5 -39q61 0 113 50q37 37 58.5 92.5t21.5 111.5q0 70 -34.5 109t-97.5 39q-61 0 -113 -50
q-37 -37 -58.5 -92.5t-21.5 -111.5zM195 598l14 66h256l-14 -66h-256z" />
    <glyph glyph-name="Obreve" unicode="&#x14e;" horiz-adv-x="700" 
d="M669 426q0 -56 -14.5 -116.5t-44.5 -118.5t-72 -104t-102.5 -74t-130.5 -28q-130 0 -197.5 77.5t-67.5 211.5q0 56 14.5 116.5t44.5 118.5t72 104t102.5 74t130.5 28q130 0 197.5 -77.5t67.5 -211.5zM125 271q0 -104 46 -161.5t137 -57.5t159 70q55 55 86 139.5t31 167.5
q0 104 -46 161.5t-137 57.5t-159 -70q-55 -55 -86 -139.5t-31 -167.5zM593 865q-54 -103 -156 -103q-95 0 -120 103l56 19q12 -34 27.5 -47t39.5 -13q55 0 93 60z" />
    <glyph glyph-name="obreve" unicode="&#x14f;" horiz-adv-x="552" 
d="M500 296q0 -77 -33 -147.5t-97.5 -117t-144.5 -46.5q-92 0 -150 58.5t-58 152.5q0 77 33 147.5t97.5 117t144.5 46.5q92 0 150 -58.5t58 -152.5zM96 193q0 -70 34.5 -109t97.5 -39q61 0 113 50q37 37 58.5 92.5t21.5 111.5q0 70 -34.5 109t-97.5 39q-61 0 -113 -50
q-37 -37 -58.5 -92.5t-21.5 -111.5zM468 676q-51 -109 -151 -109q-49 0 -81.5 28.5t-43.5 80.5l59 19q13 -36 29.5 -51t42.5 -15q56 0 88 66z" />
    <glyph glyph-name="Ohungarumlaut" unicode="&#x150;" horiz-adv-x="700" 
d="M669 426q0 -56 -14.5 -116.5t-44.5 -118.5t-72 -104t-102.5 -74t-130.5 -28q-130 0 -197.5 77.5t-67.5 211.5q0 56 14.5 116.5t44.5 118.5t72 104t102.5 74t130.5 28q130 0 197.5 -77.5t67.5 -211.5zM125 271q0 -104 46 -161.5t137 -57.5t159 70q55 55 86 139.5t31 167.5
q0 104 -46 161.5t-137 57.5t-159 -70q-55 -55 -86 -139.5t-31 -167.5zM471 766l67 112h95l-99 -112h-63zM330 766l67 112h95l-99 -112h-63z" />
    <glyph glyph-name="ohungarumlaut" unicode="&#x151;" horiz-adv-x="552" 
d="M500 296q0 -77 -33 -147.5t-97.5 -117t-144.5 -46.5q-92 0 -150 58.5t-58 152.5q0 77 33 147.5t97.5 117t144.5 46.5q92 0 150 -58.5t58 -152.5zM96 193q0 -70 34.5 -109t97.5 -39q61 0 113 50q37 37 58.5 92.5t21.5 111.5q0 70 -34.5 109t-97.5 39q-61 0 -113 -50
q-37 -37 -58.5 -92.5t-21.5 -111.5zM193 566l101 128h92l-128 -128h-65zM334 566l101 128h92l-128 -128h-65z" />
    <glyph glyph-name="OE" unicode="&#x152;" horiz-adv-x="988" 
d="M342 68h97l120 564h-132q-120 0 -199 -79q-103 -102 -103 -287q0 -198 217 -198zM866 69l-15 -69h-518q-149 0 -221 73t-72 196q0 85 25.5 161.5t73 137t123.5 96.5t170 36h568l-15 -69h-343l-50 -238h298l-15 -68h-298l-54 -256h343z" />
    <glyph glyph-name="oe" unicode="&#x153;" horiz-adv-x="933" 
d="M624 -15q-70 0 -118.5 32.5t-69.5 90.5q-35 -57 -89.5 -90t-121.5 -33q-92 0 -150 58.5t-58 152.5q0 77 33 147.5t97.5 117t144.5 46.5q66 0 114.5 -33t68.5 -90q79 123 211 123q84 0 140 -50.5t56 -134.5q0 -31 -10 -86h-378q-3 -21 -3 -43q0 -73 35 -110.5t102 -37.5
q42 0 87 28t80 79l61 -35q-42 -64 -103.5 -98t-128.5 -34zM96 193q0 -70 34.5 -109t97.5 -39q61 0 113 50q37 37 58.5 92.5t21.5 111.5q0 70 -34.5 109t-97.5 39q-61 0 -113 -50q-37 -37 -58.5 -92.5t-21.5 -111.5zM571 397q-41 -41 -63 -104h298q2 20 2 27q0 127 -124 127
q-63 0 -113 -50z" />
    <glyph glyph-name="Racute" unicode="&#x154;" horiz-adv-x="626" 
d="M221 633l-56 -262h174q85 0 132 40.5t47 106.5q0 54 -34 84.5t-97 30.5h-166zM434 0l-121 304h-162l-65 -304h-83l149 700h246q100 0 153.5 -49t53.5 -129q0 -88 -56 -142.5t-154 -69.5l126 -310h-87zM358 766l91 112h106l-128 -112h-69z" />
    <glyph glyph-name="racute" unicode="&#x155;" horiz-adv-x="367" 
d="M72 0h-79l105 492h79l-24 -110q66 116 198 116q9 0 17 -2l-15 -73q-16 2 -28 2q-76 0 -129.5 -48t-72.5 -138zM226 566l97 128h110l-141 -128h-66z" />
    <glyph glyph-name="uni0156" unicode="&#x156;" horiz-adv-x="626" 
d="M221 633l-56 -262h174q85 0 132 40.5t47 106.5q0 54 -34 84.5t-97 30.5h-166zM434 0l-121 304h-162l-65 -304h-83l149 700h246q100 0 153.5 -49t53.5 -129q0 -88 -56 -142.5t-154 -69.5l126 -310h-87zM150 -208l58 72h-43l19 91h102l-19 -91l-66 -72h-51z" />
    <glyph glyph-name="uni0157" unicode="&#x157;" horiz-adv-x="367" 
d="M72 0h-79l105 492h79l-24 -110q66 116 198 116q9 0 17 -2l-15 -73q-16 2 -28 2q-76 0 -129.5 -48t-72.5 -138zM-58 -208l58 72h-43l19 91h102l-19 -91l-66 -72h-51z" />
    <glyph glyph-name="Rcaron" unicode="&#x158;" horiz-adv-x="626" 
d="M221 633l-56 -262h174q85 0 132 40.5t47 106.5q0 54 -34 84.5t-97 30.5h-166zM434 0l-121 304h-162l-65 -304h-83l149 700h246q100 0 153.5 -49t53.5 -129q0 -88 -56 -142.5t-154 -69.5l126 -310h-87zM343 765l-86 115h69l60 -65l84 65h81l-134 -115h-74z" />
    <glyph glyph-name="rcaron" unicode="&#x159;" horiz-adv-x="367" 
d="M72 0h-79l105 492h79l-24 -110q66 116 198 116q9 0 17 -2l-15 -73q-16 2 -28 2q-76 0 -129.5 -48t-72.5 -138zM207 570l-80 121h71l54 -69l90 69h79l-140 -121h-74z" />
    <glyph glyph-name="Sacute" unicode="&#x15a;" horiz-adv-x="610" 
d="M532 190q0 -92 -70 -148.5t-182 -56.5q-113 0 -184 60t-89 163l81 16q14 -83 66.5 -127.5t132.5 -44.5q71 0 115 35.5t44 87.5q0 42 -25.5 70.5t-95.5 60.5l-73 33q-78 35 -111.5 78.5t-33.5 106.5q0 80 64.5 135.5t175.5 55.5q92 0 153.5 -50t81.5 -142l-77 -16
q-14 68 -56 104.5t-104 36.5q-73 0 -113.5 -33.5t-40.5 -83.5q0 -39 22 -66.5t73 -50.5l82 -36q91 -40 127.5 -84.5t36.5 -103.5zM348 766l91 112h106l-128 -112h-69z" />
    <glyph glyph-name="sacute" unicode="&#x15b;" horiz-adv-x="489" 
d="M409 126q0 -61 -56.5 -101t-137.5 -40q-94 0 -154 43t-73 117l73 20q27 -120 159 -120q47 0 78.5 21.5t31.5 52.5q0 27 -18 44t-69 36l-69 26q-113 43 -113 133q0 63 50.5 106t136.5 43q74 0 125.5 -38t67.5 -107l-72 -18q-26 103 -127 103q-46 0 -75 -21.5t-29 -52.5
q0 -27 14.5 -44t54.5 -32l62 -24q79 -30 109.5 -63t30.5 -84zM256 566l97 128h110l-141 -128h-66z" />
    <glyph glyph-name="Scedilla" unicode="&#x15e;" horiz-adv-x="610" 
d="M225 -209q-55 0 -97 22l20 44q37 -17 77 -17q57 0 57 34q0 12 -10 20.5t-28 8.5q-19 0 -37 -6l-32 22l53 70q-92 13 -149 70.5t-72 148.5l81 16q14 -83 66.5 -127.5t132.5 -44.5q71 0 115 35.5t44 87.5q0 42 -25.5 70.5t-95.5 60.5l-73 33q-78 35 -111.5 78.5
t-33.5 106.5q0 80 64.5 135.5t175.5 55.5q92 0 153.5 -50t81.5 -142l-77 -16q-14 68 -56 104.5t-104 36.5q-73 0 -113.5 -33.5t-40.5 -83.5q0 -39 22 -66.5t73 -50.5l82 -36q91 -40 127.5 -84.5t36.5 -103.5q0 -91 -69.5 -148t-180.5 -57l-25 -37h7q39 0 60.5 -20t21.5 -51
q0 -39 -34 -62.5t-87 -23.5z" />
    <glyph glyph-name="scedilla" unicode="&#x15f;" horiz-adv-x="489" 
d="M160 -209q-55 0 -97 22l20 44q37 -17 77 -17q57 0 57 34q0 12 -10 20.5t-28 8.5q-19 0 -37 -6l-32 22l53 70q-72 11 -118 52t-57 104l73 20q27 -120 159 -120q47 0 78.5 21.5t31.5 52.5q0 27 -18 44t-69 36l-69 26q-113 43 -113 133q0 63 50.5 106t136.5 43
q74 0 125.5 -38t67.5 -107l-72 -18q-26 103 -127 103q-46 0 -75 -21.5t-29 -52.5q0 -27 14.5 -44t54.5 -32l62 -24q79 -30 109.5 -63t30.5 -84q0 -61 -56 -101t-136 -40l-25 -37h7q39 0 60.5 -20t21.5 -51q0 -39 -34 -62.5t-87 -23.5z" />
    <glyph glyph-name="Scaron" unicode="&#x160;" horiz-adv-x="610" 
d="M532 190q0 -92 -70 -148.5t-182 -56.5q-113 0 -184 60t-89 163l81 16q14 -83 66.5 -127.5t132.5 -44.5q71 0 115 35.5t44 87.5q0 42 -25.5 70.5t-95.5 60.5l-73 33q-78 35 -111.5 78.5t-33.5 106.5q0 80 64.5 135.5t175.5 55.5q92 0 153.5 -50t81.5 -142l-77 -16
q-14 68 -56 104.5t-104 36.5q-73 0 -113.5 -33.5t-40.5 -83.5q0 -39 22 -66.5t73 -50.5l82 -36q91 -40 127.5 -84.5t36.5 -103.5zM333 765l-86 115h69l60 -65l84 65h81l-134 -115h-74z" />
    <glyph glyph-name="scaron" unicode="&#x161;" horiz-adv-x="489" 
d="M409 126q0 -61 -56.5 -101t-137.5 -40q-94 0 -154 43t-73 117l73 20q27 -120 159 -120q47 0 78.5 21.5t31.5 52.5q0 27 -18 44t-69 36l-69 26q-113 43 -113 133q0 63 50.5 106t136.5 43q74 0 125.5 -38t67.5 -107l-72 -18q-26 103 -127 103q-46 0 -75 -21.5t-29 -52.5
q0 -27 14.5 -44t54.5 -32l62 -24q79 -30 109.5 -63t30.5 -84zM237 570l-80 121h71l54 -69l90 69h79l-140 -121h-74z" />
    <glyph glyph-name="Tcaron" unicode="&#x164;" horiz-adv-x="551" 
d="M599 631h-218l-134 -631h-83l134 631h-218l15 69h519zM319 765l-86 115h69l60 -65l84 65h81l-134 -115h-74z" />
    <glyph glyph-name="tcaron" unicode="&#x165;" horiz-adv-x="363" 
d="M159 -5q-64 0 -90 37.5t-12 104.5l63 296h-78l13 59h78l31 147h78l-31 -147h149l-13 -59h-149l-65 -303q-8 -38 3.5 -55.5t42.5 -17.5q30 0 89 8l-13 -62q-53 -8 -96 -8zM285 555l58 72h-43l19 91h102l-19 -91l-66 -72h-51z" />
    <glyph glyph-name="Tbar" unicode="&#x166;" horiz-adv-x="551" 
d="M445 332h-127l-71 -332h-83l71 332h-127l13 64h127l50 235h-218l15 69h519l-15 -69h-218l-50 -235h127z" />
    <glyph glyph-name="tbar" unicode="&#x167;" horiz-adv-x="363" 
d="M255 3q-53 -8 -96 -8q-64 0 -90 37.5t-12 104.5l33 155h-78l13 59h78l17 82h-78l13 59h78l31 147h78l-31 -147h149l-13 -59h-149l-18 -82h150l-13 -59h-149l-35 -162q-8 -38 3.5 -55.5t42.5 -17.5q30 0 89 8z" />
    <glyph glyph-name="Utilde" unicode="&#x168;" horiz-adv-x="659" 
d="M568 250q-30 -139 -104.5 -202t-191.5 -63q-120 0 -181.5 70.5t-34.5 195.5l96 449h83l-96 -451q-20 -97 17.5 -145.5t121.5 -48.5q167 0 209 194l96 451h81zM603 851q-23 -40 -55 -63.5t-58 -23.5q-35 0 -70 25l-15 11q-26 20 -40 20q-26 0 -64 -54l-41 28
q23 40 55 63.5t58 23.5q35 0 70 -25l15 -11q26 -20 40 -20q26 0 64 54z" />
    <glyph glyph-name="utilde" unicode="&#x169;" horiz-adv-x="534" 
d="M322 0l21 97q-74 -112 -180 -112q-76 0 -116 51.5t-22 136.5l68 319h79l-66 -312q-28 -132 85 -132q59 0 112.5 57.5t70.5 135.5l53 251h79l-105 -492h-79zM498 659q-23 -40 -55 -63.5t-58 -23.5q-35 0 -70 25l-15 11q-26 20 -40 20q-26 0 -64 -54l-41 28q23 40 55 63.5
t58 23.5q35 0 70 -25l15 -11q26 -20 40 -20q26 0 64 54z" />
    <glyph glyph-name="Umacron" unicode="&#x16a;" horiz-adv-x="659" 
d="M568 250q-30 -139 -104.5 -202t-191.5 -63q-120 0 -181.5 70.5t-34.5 195.5l96 449h83l-96 -451q-20 -97 17.5 -145.5t121.5 -48.5q167 0 209 194l96 451h81zM296 790l14 66h256l-14 -66h-256z" />
    <glyph glyph-name="umacron" unicode="&#x16b;" horiz-adv-x="534" 
d="M322 0l21 97q-74 -112 -180 -112q-76 0 -116 51.5t-22 136.5l68 319h79l-66 -312q-28 -132 85 -132q59 0 112.5 57.5t70.5 135.5l53 251h79l-105 -492h-79zM192 598l14 66h256l-14 -66h-256z" />
    <glyph glyph-name="Ubreve" unicode="&#x16c;" horiz-adv-x="659" 
d="M568 250q-30 -139 -104.5 -202t-191.5 -63q-120 0 -181.5 70.5t-34.5 195.5l96 449h83l-96 -451q-20 -97 17.5 -145.5t121.5 -48.5q167 0 209 194l96 451h81zM569 865q-54 -103 -156 -103q-95 0 -120 103l56 19q12 -34 27.5 -47t39.5 -13q55 0 93 60z" />
    <glyph glyph-name="ubreve" unicode="&#x16d;" horiz-adv-x="534" 
d="M322 0l21 97q-74 -112 -180 -112q-76 0 -116 51.5t-22 136.5l68 319h79l-66 -312q-28 -132 85 -132q59 0 112.5 57.5t70.5 135.5l53 251h79l-105 -492h-79zM465 676q-51 -109 -151 -109q-49 0 -81.5 28.5t-43.5 80.5l59 19q13 -36 29.5 -51t42.5 -15q56 0 88 66z" />
    <glyph glyph-name="Uring" unicode="&#x16e;" horiz-adv-x="659" 
d="M568 250q-30 -139 -104.5 -202t-191.5 -63q-120 0 -181.5 70.5t-34.5 195.5l96 449h83l-96 -451q-20 -97 17.5 -145.5t121.5 -48.5q167 0 209 194l96 451h81zM420 750q-43 0 -70 26t-27 69q0 44 33.5 77.5t79.5 33.5q43 0 70 -26t27 -69q0 -44 -33.5 -77.5t-79.5 -33.5z
M420 795q28 0 46 19.5t18 46.5q0 23 -13 36.5t-35 13.5q-28 0 -46 -19.5t-18 -46.5q0 -23 13 -36.5t35 -13.5z" />
    <glyph glyph-name="uring" unicode="&#x16f;" horiz-adv-x="534" 
d="M322 0l21 97q-74 -112 -180 -112q-76 0 -116 51.5t-22 136.5l68 319h79l-66 -312q-28 -132 85 -132q59 0 112.5 57.5t70.5 135.5l53 251h79l-105 -492h-79zM322 542q-43 0 -70 26t-27 69q0 44 33.5 77.5t79.5 33.5q43 0 70 -26t27 -69q0 -44 -33.5 -77.5t-79.5 -33.5z
M322 587q28 0 46 19.5t18 46.5q0 23 -13 36.5t-35 13.5q-28 0 -46 -19.5t-18 -46.5q0 -23 13 -36.5t35 -13.5z" />
    <glyph glyph-name="Uhungarumlaut" unicode="&#x170;" horiz-adv-x="659" 
d="M568 250q-30 -139 -104.5 -202t-191.5 -63q-120 0 -181.5 70.5t-34.5 195.5l96 449h83l-96 -451q-20 -97 17.5 -145.5t121.5 -48.5q167 0 209 194l96 451h81zM448 766l67 112h95l-99 -112h-63zM307 766l67 112h95l-99 -112h-63z" />
    <glyph glyph-name="uhungarumlaut" unicode="&#x171;" horiz-adv-x="534" 
d="M322 0l21 97q-74 -112 -180 -112q-76 0 -116 51.5t-22 136.5l68 319h79l-66 -312q-28 -132 85 -132q59 0 112.5 57.5t70.5 135.5l53 251h79l-105 -492h-79zM189 566l101 128h92l-128 -128h-65zM330 566l101 128h92l-128 -128h-65z" />
    <glyph glyph-name="Uogonek" unicode="&#x172;" horiz-adv-x="659" 
d="M211 -195q-36 0 -55.5 18.5t-19.5 45.5q0 46 74 98l28 20q-105 10 -156 79t-26 185l96 449h83l-96 -451q-20 -97 17.5 -145.5t121.5 -48.5q167 0 209 194l96 451h81l-96 -450q-54 -251 -270 -264l-45 -41q-43 -38 -43 -62q0 -21 22 -21q16 0 35 8l15 -45q-34 -20 -71 -20
z" />
    <glyph glyph-name="uogonek" unicode="&#x173;" horiz-adv-x="534" 
d="M344 0h-22l21 97q-74 -112 -180 -112q-76 0 -116 51.5t-22 136.5l68 319h79l-66 -312q-28 -132 85 -132q59 0 112.5 57.5t70.5 135.5l53 251h79l-105 -492l-61 -55q-43 -38 -43 -62q0 -21 22 -21q16 0 35 8l15 -45q-34 -20 -71 -20q-36 0 -55.5 18.5t-19.5 45.5
q0 46 74 98z" />
    <glyph glyph-name="Wcircumflex" unicode="&#x174;" horiz-adv-x="923" 
d="M549 0l-26 610l-286 -610h-108l-21 700h82l13 -611l289 611h98l29 -615l275 615h79l-319 -700h-105zM491 765h-81l134 115h74l86 -115h-69l-60 65z" />
    <glyph glyph-name="wcircumflex" unicode="&#x175;" horiz-adv-x="742" 
d="M417 0l-27 421l-206 -421h-98l-22 492h76l13 -419l205 419h97l27 -421l192 421h74l-232 -492h-99zM357 570h-79l140 121h74l80 -121h-71l-54 69z" />
    <glyph glyph-name="Ycircumflex" unicode="&#x176;" horiz-adv-x="582" 
d="M262 0h-83l50 234l-135 466h83l107 -385l272 385h90l-334 -466zM311 765h-81l134 115h74l86 -115h-69l-60 65z" />
    <glyph glyph-name="ycircumflex" unicode="&#x177;" horiz-adv-x="481" 
d="M-13 -198q-35 0 -54 4l13 62q23 -3 49 -3q43 0 63.5 13t45.5 57l31 54l-81 503h79l60 -408l223 408h81l-319 -570q-38 -69 -80 -94.5t-111 -25.5zM229 570h-79l140 121h74l80 -121h-71l-54 69z" />
    <glyph glyph-name="Ydieresis" unicode="&#x178;" horiz-adv-x="582" 
d="M262 0h-83l50 234l-135 466h83l107 -385l272 385h90l-334 -466zM509 776h-86l20 94h86zM339 776h-86l20 94h86z" />
    <glyph glyph-name="Zacute" unicode="&#x179;" horiz-adv-x="547" 
d="M-39 0l16 75l493 556h-366l15 69h464l-16 -75l-493 -556h387l-15 -69h-485zM321 766l91 112h106l-128 -112h-69z" />
    <glyph glyph-name="zacute" unicode="&#x17a;" horiz-adv-x="460" 
d="M351 0h-382l13 59l356 374h-265l13 59h364l-13 -59l-356 -374h283zM243 566l97 128h110l-141 -128h-66z" />
    <glyph glyph-name="Zdotaccent" unicode="&#x17b;" horiz-adv-x="547" 
d="M-39 0l16 75l493 556h-366l15 69h464l-16 -75l-493 -556h387l-15 -69h-485zM405 771h-96l22 104h96z" />
    <glyph glyph-name="zdotaccent" unicode="&#x17c;" horiz-adv-x="460" 
d="M351 0h-382l13 59l356 374h-265l13 59h364l-13 -59l-356 -374h283zM328 579h-96l22 104h96z" />
    <glyph glyph-name="Zcaron" unicode="&#x17d;" horiz-adv-x="547" 
d="M-39 0l16 75l493 556h-366l15 69h464l-16 -75l-493 -556h387l-15 -69h-485zM306 765l-86 115h69l60 -65l84 65h81l-134 -115h-74z" />
    <glyph glyph-name="zcaron" unicode="&#x17e;" horiz-adv-x="460" 
d="M351 0h-382l13 59l356 374h-265l13 59h364l-13 -59l-356 -374h283zM224 570l-80 121h71l54 -69l90 69h79l-140 -121h-74z" />
    <glyph glyph-name="florin" unicode="&#x192;" horiz-adv-x="469" 
d="M-1 -15q-29 0 -48 3l24 61q20 -2 29 -2q36 0 56 15.5t35 53.5l104 268h-83l24 62h83l34 88q30 76 74.5 111.5t115.5 35.5q47 0 71 -6l-23 -61q-25 5 -51 5q-43 0 -67.5 -21t-44.5 -74l-30 -78h121l-24 -62h-122l-107 -276q-26 -68 -64.5 -95.5t-106.5 -27.5z" />
    <glyph glyph-name="AEacute" unicode="&#x1fc;" horiz-adv-x="1005" 
d="M502 631l-258 -349h234l74 349h-50zM418 0l45 212h-270l-157 -212h-91l521 700h552l-15 -69h-368l-50 -238h323l-15 -68h-323l-54 -256h368l-15 -69h-451zM588 766l91 112h106l-128 -112h-69z" />
    <glyph glyph-name="aeacute" unicode="&#x1fd;" horiz-adv-x="863" 
d="M501 397q-40 -40 -62 -102h297q2 18 2 25q0 127 -124 127q-63 0 -113 -50zM554 -15q-71 0 -121 32t-71 89q-31 -54 -90.5 -87.5t-128.5 -33.5q-73 0 -115.5 37t-42.5 97q0 83 68.5 127.5t233.5 44.5h70l5 22q13 65 -11 99.5t-81 34.5q-38 0 -75 -25t-64 -69l-64 32
q73 122 210 122q122 0 149 -102q76 102 190 102q84 0 140 -50.5t56 -134.5q0 -31 -10 -84h-377q-4 -20 -4 -45q0 -73 35 -110.5t102 -37.5q42 0 87 28t80 79l61 -35q-42 -64 -103.5 -98t-128.5 -34zM160 45q61 0 113 46.5t65 108.5l8 38h-65q-117 0 -166.5 -28.5
t-49.5 -82.5q0 -38 26 -60t69 -22zM432 566l97 128h110l-141 -128h-66z" />
    <glyph glyph-name="uni0218" unicode="&#x218;" horiz-adv-x="610" 
d="M532 190q0 -92 -70 -148.5t-182 -56.5q-113 0 -184 60t-89 163l81 16q14 -83 66.5 -127.5t132.5 -44.5q71 0 115 35.5t44 87.5q0 42 -25.5 70.5t-95.5 60.5l-73 33q-78 35 -111.5 78.5t-33.5 106.5q0 80 64.5 135.5t175.5 55.5q92 0 153.5 -50t81.5 -142l-77 -16
q-14 68 -56 104.5t-104 36.5q-73 0 -113.5 -33.5t-40.5 -83.5q0 -39 22 -66.5t73 -50.5l82 -36q91 -40 127.5 -84.5t36.5 -103.5zM163 -208l58 72h-43l19 91h102l-19 -91l-66 -72h-51z" />
    <glyph glyph-name="uni0219" unicode="&#x219;" horiz-adv-x="489" 
d="M409 126q0 -61 -56.5 -101t-137.5 -40q-94 0 -154 43t-73 117l73 20q27 -120 159 -120q47 0 78.5 21.5t31.5 52.5q0 27 -18 44t-69 36l-69 26q-113 43 -113 133q0 63 50.5 106t136.5 43q74 0 125.5 -38t67.5 -107l-72 -18q-26 103 -127 103q-46 0 -75 -21.5t-29 -52.5
q0 -27 14.5 -44t54.5 -32l62 -24q79 -30 109.5 -63t30.5 -84zM90 -208l58 72h-43l19 91h102l-19 -91l-66 -72h-51z" />
    <glyph glyph-name="uni021A" unicode="&#x21a;" horiz-adv-x="551" 
d="M599 631h-218l-134 -631h-83l134 631h-218l15 69h519zM111 -208l58 72h-43l19 91h102l-19 -91l-66 -72h-51z" />
    <glyph glyph-name="uni021B" unicode="&#x21b;" horiz-adv-x="363" 
d="M159 -5q-64 0 -90 37.5t-12 104.5l63 296h-78l13 59h78l31 147h78l-31 -147h149l-13 -59h-149l-65 -303q-8 -38 3.5 -55.5t42.5 -17.5q30 0 89 8l-13 -62q-53 -8 -96 -8zM49 -208l58 72h-43l19 91h102l-19 -91l-66 -72h-51z" />
    <glyph glyph-name="uni0237" unicode="&#x237;" horiz-adv-x="215" 
d="M-112 -196q-24 0 -44 3l13 59q18 -2 37 -2q41 0 62 19t31 64l116 545h79l-114 -532q-17 -79 -59 -117.5t-121 -38.5z" />
    <glyph glyph-name="circumflex" unicode="&#x2c6;" horiz-adv-x="552" 
d="M255 570h-79l140 121h74l80 -121h-71l-54 69z" />
    <glyph glyph-name="caron" unicode="&#x2c7;" horiz-adv-x="552" 
d="M281 570l-80 121h71l54 -69l90 69h79l-140 -121h-74z" />
    <glyph glyph-name="breve" unicode="&#x2d8;" horiz-adv-x="552" 
d="M480 676q-51 -109 -151 -109q-49 0 -81.5 28.5t-43.5 80.5l59 19q13 -36 29.5 -51t42.5 -15q56 0 88 66z" />
    <glyph glyph-name="dotaccent" unicode="&#x2d9;" horiz-adv-x="552" 
d="M361 579h-96l22 104h96z" />
    <glyph glyph-name="ring" unicode="&#x2da;" horiz-adv-x="552" 
d="M322 542q-43 0 -70 26t-27 69q0 44 33.5 77.5t79.5 33.5q43 0 70 -26t27 -69q0 -44 -33.5 -77.5t-79.5 -33.5zM322 587q28 0 46 19.5t18 46.5q0 23 -13 36.5t-35 13.5q-28 0 -46 -19.5t-18 -46.5q0 -23 13 -36.5t35 -13.5z" />
    <glyph glyph-name="ogonek" unicode="&#x2db;" horiz-adv-x="552" 
d="M230 -175q-34 -20 -71 -20q-36 0 -55.5 18.5t-19.5 45.5q0 46 74 98l47 33h57l-61 -55q-43 -38 -43 -62q0 -21 22 -21q16 0 35 8z" />
    <glyph glyph-name="tilde" unicode="&#x2dc;" horiz-adv-x="552" 
d="M511 659q-23 -40 -55 -63.5t-58 -23.5q-35 0 -70 25l-15 11q-26 20 -40 20q-26 0 -64 -54l-41 28q23 40 55 63.5t58 23.5q35 0 70 -25l15 -11q26 -20 40 -20q26 0 64 54z" />
    <glyph glyph-name="hungarumlaut" unicode="&#x2dd;" horiz-adv-x="552" 
d="M210 566l101 128h92l-128 -128h-65zM351 566l101 128h92l-128 -128h-65z" />
    <glyph glyph-name="Wgrave" unicode="&#x1e80;" horiz-adv-x="923" 
d="M549 0l-26 610l-286 -610h-108l-21 700h82l13 -611l289 611h98l29 -615l275 615h79l-319 -700h-105zM582 766h-59l-84 112h100z" />
    <glyph glyph-name="wgrave" unicode="&#x1e81;" horiz-adv-x="742" 
d="M417 0l-27 421l-206 -421h-98l-22 492h76l13 -419l205 419h97l27 -421l192 421h74l-232 -492h-99zM450 566h-62l-85 128h99z" />
    <glyph glyph-name="Wacute" unicode="&#x1e82;" horiz-adv-x="923" 
d="M549 0l-26 610l-286 -610h-108l-21 700h82l13 -611l289 611h98l29 -615l275 615h79l-319 -700h-105zM524 766l91 112h106l-128 -112h-69z" />
    <glyph glyph-name="wacute" unicode="&#x1e83;" horiz-adv-x="742" 
d="M417 0l-27 421l-206 -421h-98l-22 492h76l13 -419l205 419h97l27 -421l192 421h74l-232 -492h-99zM390 566l97 128h110l-141 -128h-66z" />
    <glyph glyph-name="Wdieresis" unicode="&#x1e84;" horiz-adv-x="923" 
d="M549 0l-26 610l-286 -610h-108l-21 700h82l13 -611l289 611h98l29 -615l275 615h79l-319 -700h-105zM689 776h-86l20 94h86zM519 776h-86l20 94h86z" />
    <glyph glyph-name="wdieresis" unicode="&#x1e85;" horiz-adv-x="742" 
d="M417 0l-27 421l-206 -421h-98l-22 492h76l13 -419l205 419h97l27 -421l192 421h74l-232 -492h-99zM386 584h-86l20 94h86zM556 584h-86l20 94h86z" />
    <glyph glyph-name="uni1EBC" unicode="&#x1ebc;" 
d="M469 69l-15 -69h-451l149 700h451l-15 -69h-368l-50 -238h323l-15 -68h-323l-54 -256h368zM575 851q-23 -40 -55 -63.5t-58 -23.5q-35 0 -70 25l-15 11q-26 20 -40 20q-26 0 -64 -54l-41 28q23 40 55 63.5t58 23.5q35 0 70 -25l15 -11q26 -20 40 -20q26 0 64 54z" />
    <glyph glyph-name="uni1EBD" unicode="&#x1ebd;" horiz-adv-x="538" 
d="M229 -15q-96 0 -154 57.5t-58 153.5q0 120 77.5 215.5t196.5 95.5q84 0 140 -50.5t56 -134.5q0 -31 -10 -86h-378q-3 -21 -3 -43q0 -73 35 -110.5t102 -37.5q42 0 87 28t80 79l61 -35q-42 -64 -103.5 -98t-128.5 -34zM176 397q-41 -41 -63 -104h298q2 20 2 27
q0 127 -124 127q-63 0 -113 -50zM498 659q-23 -40 -55 -63.5t-58 -23.5q-35 0 -70 25l-15 11q-26 20 -40 20q-26 0 -64 -54l-41 28q23 40 55 63.5t58 23.5q35 0 70 -25l15 -11q26 -20 40 -20q26 0 64 54z" />
    <glyph glyph-name="Ygrave" unicode="&#x1ef2;" horiz-adv-x="582" 
d="M262 0h-83l50 234l-135 466h83l107 -385l272 385h90l-334 -466zM402 766h-59l-84 112h100z" />
    <glyph glyph-name="ygrave" unicode="&#x1ef3;" horiz-adv-x="481" 
d="M-13 -198q-35 0 -54 4l13 62q23 -3 49 -3q43 0 63.5 13t45.5 57l31 54l-81 503h79l60 -408l223 408h81l-319 -570q-38 -69 -80 -94.5t-111 -25.5zM322 566h-62l-85 128h99z" />
    <glyph glyph-name="uni1EF8" unicode="&#x1ef8;" horiz-adv-x="582" 
d="M262 0h-83l50 234l-135 466h83l107 -385l272 385h90l-334 -466zM562 851q-23 -40 -55 -63.5t-58 -23.5q-35 0 -70 25l-15 11q-26 20 -40 20q-26 0 -64 -54l-41 28q23 40 55 63.5t58 23.5q35 0 70 -25l15 -11q26 -20 40 -20q26 0 64 54z" />
    <glyph glyph-name="uni1EF9" unicode="&#x1ef9;" horiz-adv-x="481" 
d="M-13 -198q-35 0 -54 4l13 62q23 -3 49 -3q43 0 63.5 13t45.5 57l31 54l-81 503h79l60 -408l223 408h81l-319 -570q-38 -69 -80 -94.5t-111 -25.5zM482 659q-23 -40 -55 -63.5t-58 -23.5q-35 0 -70 25l-15 11q-26 20 -40 20q-26 0 -64 -54l-41 28q23 40 55 63.5t58 23.5
q35 0 70 -25l15 -11q26 -20 40 -20q26 0 64 54z" />
    <glyph glyph-name="uni2009" unicode="&#x2009;" horiz-adv-x="94" 
 />
    <glyph glyph-name="endash" unicode="&#x2013;" horiz-adv-x="579" 
d="M43 323l15 71h491l-15 -71h-491z" />
    <glyph glyph-name="emdash" unicode="&#x2014;" horiz-adv-x="781" 
d="M43 323l15 71h693l-15 -71h-693z" />
    <glyph glyph-name="quoteleft" unicode="&#x2018;" horiz-adv-x="240" 
d="M101 479l23 110l74 111h53l-69 -111h44l-23 -110h-102z" />
    <glyph glyph-name="quoteright" unicode="&#x2019;" horiz-adv-x="240" 
d="M100 479l69 111h-44l23 110h102l-23 -110l-74 -111h-53z" />
    <glyph glyph-name="quotesinglbase" unicode="&#x201a;" horiz-adv-x="240" 
d="M-26 -111l69 111h-44l23 110h102l-23 -110l-74 -111h-53z" />
    <glyph glyph-name="quotedblleft" unicode="&#x201c;" horiz-adv-x="402" 
d="M101 479l23 110l74 111h53l-69 -111h44l-23 -110h-102zM263 479l23 110l74 111h53l-69 -111h44l-23 -110h-102z" />
    <glyph glyph-name="quotedblright" unicode="&#x201d;" horiz-adv-x="402" 
d="M100 479l69 111h-44l23 110h102l-23 -110l-74 -111h-53zM262 479l69 111h-44l23 110h102l-23 -110l-74 -111h-53z" />
    <glyph glyph-name="quotedblbase" unicode="&#x201e;" horiz-adv-x="402" 
d="M-26 -111l69 111h-44l23 110h102l-23 -110l-74 -111h-53zM136 -111l69 111h-44l23 110h102l-23 -110l-74 -111h-53z" />
    <glyph glyph-name="dagger" unicode="&#x2020;" horiz-adv-x="406" 
d="M127 139l76 359h-118l13 61h118l30 141h72l-30 -141h118l-13 -61h-118l-76 -359h-72z" />
    <glyph glyph-name="daggerdbl" unicode="&#x2021;" horiz-adv-x="407" 
d="M127 139l30 141h-118l13 61h118l33 157h-118l13 61h118l30 141h72l-30 -141h118l-13 -61h-118l-33 -157h118l-13 -61h-118l-30 -141h-72z" />
    <glyph glyph-name="bullet" unicode="&#x2022;" horiz-adv-x="396" 
d="M199 187q-67 0 -110.5 43.5t-43.5 110.5t43.5 110.5t110.5 43.5t110.5 -43.5t43.5 -110.5t-43.5 -110.5t-110.5 -43.5z" />
    <glyph glyph-name="ellipsis" unicode="&#x2026;" horiz-adv-x="644" 
d="M-1 0l23 110h102l-23 -110h-102zM201 0l23 110h102l-23 -110h-102zM403 0l23 110h102l-23 -110h-102z" />
    <glyph glyph-name="perthousand" unicode="&#x2030;" horiz-adv-x="1196" 
d="M210 308q-68 0 -108.5 41.5t-40.5 112.5q0 78 53 148.5t138 70.5q68 0 108.5 -41.5t40.5 -112.5q0 -78 -53 -148.5t-138 -70.5zM100 0l543 666h74l-543 -666h-74zM213 368q35 0 64 29q50 50 50 132q0 92 -78 92q-35 0 -64 -29q-50 -50 -50 -132q0 -92 78 -92zM946 -15
q-68 0 -108.5 41.5t-40.5 112.5q0 78 53 148.5t138 70.5q68 0 108.5 -41.5t40.5 -112.5q0 -78 -53 -148.5t-138 -70.5zM565 -15q-68 0 -108.5 41.5t-40.5 112.5q0 78 53 148.5t138 70.5q68 0 108.5 -41.5t40.5 -112.5q0 -78 -53 -148.5t-138 -70.5zM949 45q35 0 64 29
q50 50 50 132q0 92 -78 92q-35 0 -64 -29q-50 -50 -50 -132q0 -92 78 -92zM568 45q35 0 64 29q50 50 50 132q0 92 -78 92q-35 0 -64 -29q-50 -50 -50 -132q0 -92 78 -92z" />
    <glyph glyph-name="guilsinglleft" unicode="&#x2039;" horiz-adv-x="298" 
d="M190 96h-75l-87 182l163 182h86l-172 -189z" />
    <glyph glyph-name="guilsinglright" unicode="&#x203a;" horiz-adv-x="298" 
d="M85 96h-86l172 189l-85 175h75l87 -182z" />
    <glyph glyph-name="fraction" unicode="&#x2044;" horiz-adv-x="475" 
d="M-90 0l578 700h76l-578 -700h-76z" />
    <glyph glyph-name="uni20A9" unicode="&#x20a9;" horiz-adv-x="905" 
d="M506 421l-1 150l-65 -150h66zM227 92l115 263h-117zM508 0l-2 355h-94l-153 -355h-104l-5 355h-114l14 66h99l-4 245h79l1 -245h146l107 245h94l3 -245h145l106 245h78l-108 -245h97l-14 -66h-112l-157 -355h-102zM578 92l114 263h-117z" />
    <glyph glyph-name="Euro" unicode="&#x20ac;" horiz-adv-x="617" 
d="M551 168q-87 -183 -247 -183q-100 0 -160.5 65t-64.5 182h-86l14 66h74q4 37 12 74h-70l14 66h76q41 110 120 176.5t172 66.5q83 0 138 -50.5t70 -140.5l-79 -10q-15 71 -46.5 103.5t-86.5 32.5q-70 0 -127 -59q-47 -45 -76 -119h197l-14 -66h-204q-9 -34 -12 -74h200
l-14 -66h-189q2 -88 40 -135t106 -47q106 0 175 143z" />
    <glyph glyph-name="uni2120" unicode="&#x2120;" horiz-adv-x="712" 
d="M394 418h-50l60 282h76l19 -225l117 225h82l-60 -282h-53l48 224l-115 -224h-56l-20 226zM210 410q-47 0 -79.5 23.5t-40.5 64.5l51 11q12 -54 71 -54q25 0 39 10t14 25q0 23 -36 38l-34 14q-66 27 -66 80q0 36 29.5 61t77.5 25q88 0 105 -78l-49 -11q-14 44 -56 44
q-24 0 -37.5 -10t-13.5 -26q0 -23 29 -34l34 -13q74 -28 74 -84q0 -37 -32 -61.5t-80 -24.5z" />
    <glyph glyph-name="trademark" unicode="&#x2122;" horiz-adv-x="679" 
d="M333 656h-82l-51 -238h-52l51 238h-83l9 44h217zM361 418h-50l60 282h76l19 -225l117 225h82l-60 -282h-53l48 224l-115 -224h-56l-20 226z" />
    <glyph glyph-name="uni2190" unicode="&#x2190;" horiz-adv-x="720" 
d="M144 385h561v-70h-561l224 -183l-43 -52l-320 270l320 270l43 -52z" />
    <glyph glyph-name="uni2191" unicode="&#x2191;" horiz-adv-x="720" 
d="M395 561v-561h-70v561l-183 -224l-52 43l270 320l270 -320l-52 -43z" />
    <glyph glyph-name="uni2192" unicode="&#x2192;" horiz-adv-x="720" 
d="M576 315h-561v70h561l-224 183l43 52l320 -270l-320 -270l-43 52z" />
    <glyph glyph-name="uni2193" unicode="&#x2193;" horiz-adv-x="720" 
d="M325 139v561h70v-561l183 224l52 -43l-270 -320l-270 320l52 43z" />
    <glyph glyph-name="uni2196" unicode="&#x2196;" horiz-adv-x="720" 
d="M573 88l-397 396l29 -287l-67 -7l-36 417l418 -35l-7 -67l-287 29l396 -397z" />
    <glyph glyph-name="uni2197" unicode="&#x2197;" horiz-adv-x="720" 
d="M544 484l-397 -396l-49 49l396 397l-287 -29l-7 67l418 35l-36 -417l-67 7z" />
    <glyph glyph-name="uni2198" unicode="&#x2198;" horiz-adv-x="720" 
d="M147 612l397 -396l-29 287l67 7l36 -417l-418 35l7 67l287 -29l-396 397z" />
    <glyph glyph-name="uni2199" unicode="&#x2199;" horiz-adv-x="720" 
d="M176 216l397 396l49 -49l-396 -397l287 29l7 -67l-418 -35l36 417l67 -7z" />
    <glyph glyph-name="minus" unicode="&#x2212;" horiz-adv-x="561" 
d="M66 309l12 59h421l-12 -59h-421z" />
    <glyph glyph-name="approxequal" unicode="&#x2248;" horiz-adv-x="561" 
d="M537 465q-34 -47 -73.5 -74t-72.5 -27q-45 0 -91 31l-40 26q-29 20 -52 20q-48 0 -105 -72l-35 30q34 47 73.5 74t72.5 27q44 0 91 -31l40 -26q29 -20 52 -20q48 0 105 72zM496 274q-34 -47 -73.5 -74t-72.5 -27q-44 0 -91 31l-40 26q-29 20 -52 20q-48 0 -105 -72
l-35 30q34 47 73.5 74t72.5 27q45 0 91 -31l40 -26q29 -20 52 -20q48 0 105 72z" />
    <glyph glyph-name="notequal" unicode="&#x2260;" horiz-adv-x="561" 
d="M460 207h-224l-84 -141h-62l84 141h-125l13 60h147l85 143h-202l13 60h224l84 141h62l-84 -141h125l-13 -60h-147l-85 -143h202z" />
    <glyph glyph-name="lessequal" unicode="&#x2264;" horiz-adv-x="561" 
d="M464 178l-391 188l13 61l471 188l-16 -73l-385 -148l322 -148zM11 74l12 60h431l-12 -60h-431z" />
    <glyph glyph-name="greaterequal" unicode="&#x2265;" horiz-adv-x="561" 
d="M33 178l16 73l385 148l-322 148l14 68l391 -188l-13 -61zM11 74l12 60h431l-12 -60h-431z" />
    <glyph glyph-name="uni24C5" unicode="&#x24c5;" horiz-adv-x="828" 
d="M423 -15h-10q-153 0 -256.5 103.5t-103.5 256.5v10q0 153 103.5 256.5t256.5 103.5h10q153 0 256.5 -103.5t103.5 -256.5v-10q0 -153 -103.5 -256.5t-256.5 -103.5zM118 346q0 -127 85 -213.5t211 -86.5h8q126 0 211 86.5t85 213.5v8q0 127 -85 213.5t-211 86.5h-8
q-126 0 -211 -86.5t-85 -213.5v-8zM362 480v-136h65q84 0 84 68t-84 68h-65zM425 281h-63v-124h-76v386h139q81 0 124 -35t43 -96t-43 -96t-124 -35z" />
    <glyph glyph-name="f_i" unicode="&#xfb01;" horiz-adv-x="551" 
d="M333 433h-134l-92 -433h-79l92 433h-78l13 59h77l15 70q15 74 59.5 110t127.5 36q32 0 56 -6l-12 -59q-25 5 -50 5q-43 0 -67 -19.5t-34 -63.5l-16 -73h135zM536 579h-79l22 104h79zM413 0h-79l105 492h79z" />
    <glyph glyph-name="f_l" unicode="&#xfb02;" horiz-adv-x="551" 
d="M333 433h-134l-92 -433h-79l92 433h-78l13 59h77l15 70q15 74 59.5 110t127.5 36q32 0 56 -6l-12 -59q-25 5 -50 5q-43 0 -67 -19.5t-34 -63.5l-16 -73h135zM413 0h-79l149 700h79z" />
    <glyph glyph-name="space_uni0326" horiz-adv-x="552" 
d="M129 -208l58 72h-43l19 91h102l-19 -91l-66 -72h-51z" />
    <glyph glyph-name="acute.uc" horiz-adv-x="700" 
d="M393 766l91 112h106l-128 -112h-69z" />
    <glyph glyph-name="grave.uc" horiz-adv-x="700" 
d="M462 766h-59l-84 112h100z" />
    <glyph glyph-name="hungarumlaut.uc" horiz-adv-x="710" 
d="M461 766l67 112h95l-99 -112h-63zM320 766l67 112h95l-99 -112h-63z" />
    <glyph glyph-name="circumflex.uc" horiz-adv-x="700" 
d="M362 765h-81l134 115h74l86 -115h-69l-60 65z" />
    <glyph glyph-name="caron.uc" horiz-adv-x="700" 
d="M397 765l-86 115h69l60 -65l84 65h81l-134 -115h-74z" />
    <glyph glyph-name="breve.uc" horiz-adv-x="700" 
d="M594 865q-54 -103 -156 -103q-95 0 -120 103l56 19q12 -34 27.5 -47t39.5 -13q55 0 93 60z" />
    <glyph glyph-name="tilde.uc" horiz-adv-x="700" 
d="M605 851q-23 -40 -55 -63.5t-58 -23.5q-35 0 -70 25l-15 11q-26 20 -40 20q-26 0 -64 -54l-41 28q23 40 55 63.5t58 23.5q35 0 70 -25l15 -11q26 -20 40 -20q26 0 64 54z" />
    <glyph glyph-name="macron.uc" horiz-adv-x="700" 
d="M296 790l14 66h256l-14 -66h-256z" />
    <glyph glyph-name="dieresis.uc" horiz-adv-x="700" 
d="M541 776h-86l20 94h86zM371 776h-86l20 94h86z" />
    <glyph glyph-name="dotaccent.uc" horiz-adv-x="700" 
d="M468 771h-96l22 104h96z" />
    <glyph glyph-name="ring.uc" horiz-adv-x="700" 
d="M432 750q-43 0 -70 26t-27 69q0 44 33.5 77.5t79.5 33.5q43 0 70 -26t27 -69q0 -44 -33.5 -77.5t-79.5 -33.5zM432 795q28 0 46 19.5t18 46.5q0 23 -13 36.5t-35 13.5q-28 0 -46 -19.5t-18 -46.5q0 -23 13 -36.5t35 -13.5z" />
    <glyph glyph-name="ordfeminine.uc" horiz-adv-x="410" 
d="M292 482l-22 148l-84 -148h106zM314 327l-14 94h-149l-54 -94h-70l220 373h74l62 -373h-69z" />
    <glyph glyph-name="ordmasculine.uc" horiz-adv-x="452" 
d="M447 553q0 -94 -61 -164t-146 -70q-73 0 -114 45.5t-41 116.5q0 94 61 164t146 70q73 0 114 -45.5t41 -116.5zM156 479q0 -52 22.5 -79.5t62.5 -27.5q43 0 79 36q56 56 56 147q0 52 -22.5 79.5t-62.5 27.5q-43 0 -79 -36q-56 -56 -56 -147z" />
    <glyph glyph-name="zero.uc" horiz-adv-x="659" 
d="M628 439q0 -192 -100 -323t-247 -131q-110 0 -175 74t-65 202q0 192 100 323t247 131q110 0 175 -74t65 -202zM126 258q0 -101 41.5 -153.5t116.5 -52.5q78 0 143 65q53 53 84.5 139t31.5 186q0 101 -41.5 153.5t-116.5 52.5q-78 0 -143 -65q-53 -53 -84.5 -139
t-31.5 -186z" />
    <glyph glyph-name="one.uc" horiz-adv-x="454" 
d="M-29 0l15 69h150l115 539q-86 -46 -163 -59l14 66q82 23 188 85h64l-135 -631h151l-15 -69h-384z" />
    <glyph glyph-name="two.uc" horiz-adv-x="537" 
d="M417 0h-448l14 67l273 215q110 87 150 141.5t40 108.5q0 50 -30.5 83t-84.5 33q-120 0 -202 -169l-69 26q42 98 115.5 154t156.5 56q95 0 147.5 -53t52.5 -132q0 -69 -47 -132t-177 -165l-211 -164h335z" />
    <glyph glyph-name="three.uc" horiz-adv-x="547" 
d="M237 -15q-96 0 -161 53t-85 156l81 25q18 -82 62 -124.5t108 -42.5q75 0 120.5 43t45.5 112q0 52 -35 84t-106 32h-56l14 68h46q88 0 136.5 38t48.5 101q0 51 -34 84.5t-94 33.5q-127 0 -189 -157l-70 25q35 93 102 146t162 53q93 0 151 -53.5t58 -127.5
q0 -66 -45.5 -113t-123.5 -64q59 -16 89 -59t30 -94q0 -93 -71 -156t-184 -63z" />
    <glyph glyph-name="four.uc" horiz-adv-x="571" 
d="M301 0l34 162h-364l13 57l448 481h101l-100 -470h89l-15 -68h-89l-34 -162h-83zM350 230l78 370l-344 -370h266z" />
    <glyph glyph-name="five.uc" horiz-adv-x="566" 
d="M248 -15q-95 0 -160 50.5t-83 144.5l81 22q38 -150 165 -150q73 0 124 59.5t51 145.5q0 60 -34 98.5t-89 38.5q-48 0 -87 -21t-90 -70l-72 20l98 377h410l-15 -69h-336l-67 -252q80 82 179 82q81 0 135 -58.5t54 -147.5q0 -112 -75 -191t-189 -79z" />
    <glyph glyph-name="six.uc" horiz-adv-x="604" 
d="M550 250q0 -112 -78.5 -188.5t-201.5 -76.5q-103 0 -168 72t-65 205q0 117 44 220.5t123 168t174 64.5q145 0 207 -153l-75 -31q-42 117 -135 117q-90 0 -156 -87t-89 -217q37 55 92.5 86.5t122.5 31.5q91 0 148 -63.5t57 -148.5zM274 52q83 0 136 55.5t53 142.5
q0 59 -39 102t-99 43q-85 0 -142.5 -56t-57.5 -136q0 -64 42.5 -107.5t106.5 -43.5z" />
    <glyph glyph-name="seven.uc" horiz-adv-x="491" 
d="M151 0h-87q119 375 393 631h-386l15 69h472l-15 -70q-156 -142 -246 -294t-146 -336z" />
    <glyph glyph-name="eight.uc" horiz-adv-x="584" 
d="M247 -15q-119 0 -184.5 54t-65.5 137q0 69 49.5 121t146.5 72q-50 22 -78 64.5t-28 87.5q0 83 69 138.5t187 55.5q106 0 169 -52t63 -132q0 -51 -45.5 -100.5t-122.5 -68.5q58 -23 89 -68t31 -94q0 -95 -77.5 -155t-202.5 -60zM319 395q73 0 123 37t50 94q0 53 -39 87.5
t-112 34.5q-84 0 -128.5 -35.5t-44.5 -92.5q0 -54 39 -89.5t112 -35.5zM251 52q86 0 139.5 40t53.5 104q0 58 -46 97t-123 39q-86 0 -140 -44.5t-54 -106.5q0 -56 45.5 -92.5t124.5 -36.5z" />
    <glyph glyph-name="nine.uc" horiz-adv-x="604" 
d="M284 311q90 0 147.5 54t57.5 131q0 62 -42 107t-107 45q-87 0 -138 -56t-51 -139q0 -60 37 -101t96 -41zM235 -15q-162 0 -224 166l75 31q49 -130 156 -130q83 0 151.5 83.5t90.5 225.5q-36 -56 -92 -86.5t-118 -30.5q-93 0 -151.5 59t-58.5 147q0 108 77.5 186.5
t201.5 78.5q105 0 169.5 -70.5t64.5 -202.5q0 -190 -100 -323.5t-242 -133.5z" />
    <glyph glyph-name="parenleft.uc" horiz-adv-x="345" 
d="M144 -60q-43 63 -67.5 143.5t-24.5 155.5q0 152 73 289.5t194 231.5h79q-126 -103 -195 -241.5t-69 -284.5t86 -294h-76z" />
    <glyph glyph-name="parenright.uc" horiz-adv-x="345" 
d="M-44 -60q126 103 195 241.5t69 284.5t-86 294h76q43 -63 67.5 -143.5t24.5 -155.5q0 -152 -73 -289.5t-194 -231.5h-79z" />
    <glyph glyph-name="bracketleft.uc" horiz-adv-x="380" 
d="M18 -60l175 820h218l-14 -66h-137l-147 -688h137l-14 -66h-218z" />
    <glyph glyph-name="bracketright.uc" horiz-adv-x="380" 
d="M196 -60h-218l14 66h137l147 688h-137l14 66h218z" />
    <glyph glyph-name="braceleft.uc" horiz-adv-x="426" 
d="M215 -60q-77 0 -104.5 39.5t-9.5 122.5l32 151q9 43 -1.5 57.5t-45.5 14.5h-48l15 69h43q40 0 57 16t27 64l29 137q17 80 59 114.5t116 34.5h73l-14 -66h-60q-45 0 -64 -18.5t-31 -74.5l-26 -122q-11 -51 -30.5 -79t-54.5 -41q55 -23 35 -118l-31 -148q-10 -52 0 -69.5
t51 -17.5h64l-14 -66h-67z" />
    <glyph glyph-name="braceright.uc" horiz-adv-x="426" 
d="M-22 -60l14 66h60q45 0 64 18.5t31 74.5l30 141q11 51 30.5 79t54.5 41q-55 23 -35 118l27 129q10 52 0 69.5t-51 17.5h-64l14 66h67q77 0 104.5 -39.5t9.5 -122.5l-28 -132q-9 -43 1.5 -57.5t45.5 -14.5h48l-15 -69h-43q-40 0 -57 -16t-27 -64l-33 -156
q-17 -80 -59 -114.5t-116 -34.5h-73z" />
    <glyph glyph-name="guilsinglleft.uc" horiz-adv-x="298" 
d="M205 166h-75l-87 182l163 182h86l-172 -189z" />
    <glyph glyph-name="guilsinglright.uc" horiz-adv-x="298" 
d="M100 166h-86l172 189l-85 175h75l87 -182z" />
    <glyph glyph-name="guillemotleft.uc" horiz-adv-x="458" 
d="M360 166h-75l-84 175l171 189h86l-180 -196zM205 166h-75l-87 182l163 182h86l-172 -189z" />
    <glyph glyph-name="guillemotright.uc" horiz-adv-x="458" 
d="M94 166h-86l180 196l-82 168h75l84 -175zM260 166h-86l172 189l-85 175h75l87 -182z" />
    <glyph glyph-name="numbersign.uc" horiz-adv-x="569" 
d="M387 442h-130l-66 -184h130zM29 0l72 199h-109l22 59h108l66 184h-108l21 59h108l72 199h69l-72 -199h130l72 199h69l-72 -199h108l-21 -59h-108l-66 -184h108l-22 -59h-107l-72 -199h-69l72 199h-130l-72 -199h-69z" />
    <glyph glyph-name="percent.uc" horiz-adv-x="861" 
d="M224 323q-71 0 -113.5 44t-42.5 118q0 51 22 102.5t69.5 89.5t108.5 38q71 0 113.5 -44t42.5 -118q0 -51 -22 -102.5t-69.5 -89.5t-108.5 -38zM108 0l578 700h76l-578 -700h-76zM226 385q36 0 68 32q25 24 39 62.5t14 75.5q0 48 -21 73t-60 25q-36 0 -68 -32
q-25 -24 -39 -62.5t-14 -75.5q0 -48 21 -73t60 -25zM602 -15q-71 0 -113.5 44t-42.5 118q0 51 22 102.5t69.5 89.5t108.5 38q71 0 113.5 -44t42.5 -118q0 -51 -22 -102.5t-69.5 -89.5t-108.5 -38zM604 47q36 0 68 32q25 24 39 62.5t14 75.5q0 48 -21 73t-60 25
q-36 0 -68 -32q-25 -24 -39 -62.5t-14 -75.5q0 -48 21 -73t60 -25z" />
    <glyph glyph-name="perthousand.uc" horiz-adv-x="1261" 
d="M224 323q-71 0 -113.5 44t-42.5 118q0 51 22 102.5t69.5 89.5t108.5 38q71 0 113.5 -44t42.5 -118q0 -51 -22 -102.5t-69.5 -89.5t-108.5 -38zM108 0l578 700h76l-578 -700h-76zM226 385q36 0 68 32q25 24 39 62.5t14 75.5q0 48 -21 73t-60 25q-36 0 -68 -32
q-25 -24 -39 -62.5t-14 -75.5q0 -48 21 -73t60 -25zM1002 -15q-71 0 -113.5 44t-42.5 118q0 51 22 102.5t69.5 89.5t108.5 38q71 0 113.5 -44t42.5 -118q0 -51 -22 -102.5t-69.5 -89.5t-108.5 -38zM602 -15q-71 0 -113.5 44t-42.5 118q0 51 22 102.5t69.5 89.5t108.5 38
q71 0 113.5 -44t42.5 -118q0 -51 -22 -102.5t-69.5 -89.5t-108.5 -38zM1004 47q36 0 68 32q25 24 39 62.5t14 75.5q0 48 -21 73t-60 25q-36 0 -68 -32q-25 -24 -39 -62.5t-14 -75.5q0 -48 21 -73t60 -25zM604 47q36 0 68 32q25 24 39 62.5t14 75.5q0 48 -21 73t-60 25
q-36 0 -68 -32q-25 -24 -39 -62.5t-14 -75.5q0 -48 21 -73t60 -25z" />
    <glyph glyph-name="slash.uc" horiz-adv-x="444" 
d="M-65 -80l502 860h81l-502 -860h-81z" />
    <glyph glyph-name="backslash.uc" horiz-adv-x="445" 
d="M335 -80h-72l-144 860h72z" />
    <glyph glyph-name="bar.uc" horiz-adv-x="315" 
d="M33 -80l183 860h75l-183 -860h-75z" />
    <glyph glyph-name="brokenbar.uc" horiz-adv-x="315" 
d="M142 431l74 349h75l-74 -349h-75zM33 -80l74 349h75l-74 -349h-75z" />
    <glyph glyph-name="at.uc" horiz-adv-x="839" 
d="M415 -14q-171 0 -262.5 78.5t-91.5 230.5q0 110 51.5 205.5t147.5 155t215 59.5q151 0 236 -77.5t85 -209.5q0 -128 -64 -207.5t-149 -79.5q-38 0 -63.5 19.5t-29.5 57.5q-20 -33 -54 -55t-69 -22q-58 0 -94.5 44t-36.5 118q0 99 56 168t136 69q35 0 62 -23t37 -60l15 71
h79l-53 -252q-16 -74 32 -74q44 0 86 64.5t42 161.5q0 109 -66 169.5t-187 60.5q-149 0 -247.5 -107.5t-98.5 -255.5q0 -124 74 -187t212 -63q59 0 143 19l9 -58q-83 -20 -152 -20zM385 201q38 0 70 32q54 54 54 146q0 50 -19 75.5t-51 25.5q-38 0 -70 -32q-54 -54 -54 -146
q0 -50 19 -75.5t51 -25.5z" />
    <glyph glyph-name="section.uc" horiz-adv-x="610" 
d="M355 156q21 -12 38 -29q60 36 60 77q0 25 -14 44t-53 41l-163 93q-21 12 -42 31q-59 -32 -59 -75q0 -48 61 -83zM209 -174q-93 0 -156 58t-75 157l77 13q10 -77 53.5 -119t104.5 -42q66 0 105.5 29.5t39.5 77.5q0 53 -67 92l-162 94q-95 54 -95 131q0 43 31 80.5t84 57.5
q-21 39 -21 89q0 71 60.5 121t159.5 50q95 0 152.5 -54t73.5 -152l-75 -11q-13 73 -53 111.5t-102 38.5q-60 0 -95 -27.5t-35 -71.5q0 -63 69 -102l152 -87q57 -32 81 -64.5t24 -72.5q0 -90 -114 -138q19 -34 19 -75q0 -77 -67 -130.5t-169 -53.5z" />
    <glyph glyph-name="paragraph.uc" horiz-adv-x="728" 
d="M630 631h-111l-168 -790h-83l69 326h-1q-288 0 -288 226q0 132 93 219.5t259 87.5h328l-183 -859h-83z" />
    <glyph glyph-name="exclamdown.uc" horiz-adv-x="305" 
d="M179 700h103l-23 -110h-103zM154 502h69l-92 -502h-99z" />
    <glyph glyph-name="questiondown.uc" horiz-adv-x="538" 
d="M312 700h103l-23 -110h-103zM362 502l-31 -146h-17q-103 0 -161.5 -46t-58.5 -133q0 -58 30.5 -93t85.5 -35q115 0 179 163l68 -23q-34 -94 -99 -149t-150 -55q-93 0 -144.5 53t-51.5 137q0 101 71.5 166t179.5 74l18 87h81z" />
    <glyph glyph-name="plus.uc" horiz-adv-x="561" 
d="M500 315h-192l-42 -195h-61l42 195h-192l12 60h192l42 196h61l-42 -196h192z" />
    <glyph glyph-name="minus.uc" horiz-adv-x="561" 
d="M67 315l12 59h421l-12 -59h-421z" />
    <glyph glyph-name="plusminus.uc" horiz-adv-x="561" 
d="M507 382h-185l-35 -166h-61l35 166h-185l13 60h185l35 167h61l-35 -167h185zM17 106l13 60h431l-13 -60h-431z" />
    <glyph glyph-name="divide.uc" horiz-adv-x="561" 
d="M268 455l23 106h76l-23 -106h-76zM493 315h-431l12 59h431zM275 128h-76l22 106h76z" />
    <glyph glyph-name="multiply.uc" horiz-adv-x="561" 
d="M408 141l-131 162l-202 -165l-37 45l203 165l-130 162l48 40l130 -162l203 165l36 -45l-202 -165l130 -162z" />
    <glyph glyph-name="equal.uc" horiz-adv-x="561" 
d="M93 416l13 60h411l-13 -60h-411zM50 213l13 60h411l-13 -60h-411z" />
    <glyph glyph-name="less.uc" horiz-adv-x="561" 
d="M442 105l-395 209l13 61l484 209l-17 -73l-402 -170l330 -171z" />
    <glyph glyph-name="greater.uc" horiz-adv-x="561" 
d="M22 105l17 73l402 170l-330 171l13 65l395 -209l-13 -61z" />
    <glyph glyph-name="lessequal.uc" horiz-adv-x="561" 
d="M465 184l-391 188l13 61l471 188l-16 -73l-385 -148l322 -148zM12 80l12 60h431l-12 -60h-431z" />
    <glyph glyph-name="greaterequal.uc" horiz-adv-x="561" 
d="M34 184l16 73l385 148l-322 148l14 68l391 -188l-13 -61zM12 80l12 60h431l-12 -60h-431z" />
    <glyph glyph-name="approxequal.uc" horiz-adv-x="561" 
d="M538 471q-34 -47 -73.5 -74t-72.5 -27q-44 0 -91 31l-40 26q-29 20 -52 20q-48 0 -105 -72l-35 30q34 47 73.5 74t72.5 27q45 0 91 -31l40 -26q29 -20 52 -20q48 0 105 72zM497 280q-34 -47 -73.5 -74t-72.5 -27q-45 0 -91 31l-40 26q-29 20 -52 20q-48 0 -105 -72
l-35 30q34 47 73.5 74t72.5 27q44 0 91 -31l40 -26q29 -20 52 -20q48 0 105 72z" />
    <glyph glyph-name="notequal.uc" horiz-adv-x="561" 
d="M461 213h-224l-84 -141h-62l84 141h-125l13 60h147l85 143h-202l13 60h224l84 141h62l-84 -141h125l-13 -60h-147l-85 -143h202z" />
    <glyph glyph-name="dollar.uc" horiz-adv-x="587" 
d="M282 409l5 -2l52 241q-68 -1 -107.5 -34.5t-39.5 -86.5q0 -42 20.5 -69t69.5 -49zM431 177q0 36 -23.5 65t-80.5 56l-52 -246q72 1 114 35t42 90zM265 -15h-5l-23 -110h-63l25 117q-74 17 -123.5 72.5t-65.5 141.5l79 17q28 -135 124 -163l57 264l-24 11
q-138 61 -138 186q0 83 64 138.5t172 55.5h9l23 109h63l-25 -119q61 -19 103 -67t55 -116l-77 -16q-18 100 -96 131l-54 -256l9 -4q88 -39 125.5 -86t37.5 -108q0 -89 -70 -143.5t-182 -54.5z" />
    <glyph glyph-name="cent.uc" horiz-adv-x="518" 
d="M96 193q0 -56 22.5 -93t61.5 -49l84 394q-49 -9 -88 -48q-37 -38 -58.5 -93t-21.5 -111zM444 147q-32 -74 -88 -116t-128 -46l-22 -104h-62l23 109q-67 16 -108.5 71.5t-41.5 134.5q0 74 31.5 143t92 116.5t135.5 51.5l23 104h62l-23 -108q60 -12 97.5 -54t49.5 -110
l-76 -9q-15 94 -84 112l-84 -395q81 14 141 130z" />
    <glyph glyph-name="sterling.uc" horiz-adv-x="565" 
d="M469 69l-15 -69h-483l14 64q67 24 111.5 78t44.5 112q0 15 -4 43h-103l15 68h69q-24 72 -24 120q0 96 68 163t178 67q89 0 147.5 -57t77.5 -149l-75 -21q-15 77 -53.5 118.5t-97.5 41.5q-76 0 -120 -45t-44 -116q0 -41 27 -122h207l-15 -68h-172q4 -28 4 -42
q0 -50 -32.5 -102t-87.5 -84h363z" />
    <glyph glyph-name="yen.uc" horiz-adv-x="582" 
d="M468 105h-184l-22 -105h-83l22 105h-185l15 69h185l17 78h-185l14 69h156l-124 379h84l114 -355l265 355h89l-286 -379h154l-14 -69h-184l-17 -78h184z" />
    <glyph glyph-name="uni20A9.uc" horiz-adv-x="942" 
d="M532 442l-1 162l-70 -162h71zM238 99l120 275h-122zM534 0l-2 374h-100l-161 -374h-108l-6 374h-119l15 68h103l-4 258h82l2 -258h152l113 258h99l3 -258h154l111 258h79l-114 -258h103l-15 -68h-118l-165 -374h-104zM608 97l119 277h-123z" />
    <glyph glyph-name="Euro.uc" horiz-adv-x="645" 
d="M578 176q-85 -191 -264 -191q-102 0 -164 71t-64 188h-89l14 68h78q3 37 13 80h-74l15 68h79q44 118 129 186.5t180 68.5q89 0 144.5 -52t68.5 -146l-80 -10q-10 71 -46.5 106t-90.5 35q-78 0 -144 -66q-50 -51 -76 -122h210l-15 -68h-216q-8 -33 -13 -80h212l-14 -68
h-200q2 -91 43 -141.5t104 -50.5q122 0 190 150z" />
    <glyph glyph-name="degree.uc" horiz-adv-x="424" 
d="M261 405q-64 0 -109.5 45.5t-45.5 109.5t45.5 109.5t109.5 45.5t109.5 -45.5t45.5 -109.5t-45.5 -109.5t-109.5 -45.5zM261 460q42 0 68.5 28.5t26.5 71.5t-26.5 71.5t-68.5 28.5t-68.5 -28.5t-26.5 -71.5t26.5 -71.5t68.5 -28.5z" />
    <glyph glyph-name="space.tab" horiz-adv-x="295" 
 />
    <glyph glyph-name="zero.tab" 
d="M568 430q0 -107 -36 -206.5t-111.5 -169t-173.5 -69.5q-99 0 -161 68t-62 183q0 107 36 206.5t111.5 169t173.5 69.5q99 0 161 -68t62 -183zM107 233q0 -88 39 -135.5t104 -47.5q68 0 123 55q53 54 82.5 144.5t29.5 183.5q0 88 -39 135.5t-104 47.5q-68 0 -123 -55
q-53 -54 -82.5 -144.5t-29.5 -183.5z" />
    <glyph glyph-name="one.tab" 
d="M32 0l14 66h158l109 512q-82 -42 -170 -57l13 64q103 28 195 81h62l-128 -600h158l-14 -66h-397z" />
    <glyph glyph-name="two.tab" 
d="M440 0h-432l14 65l276 208q96 72 130.5 124t34.5 108q0 49 -32 80t-84 31q-116 0 -188 -162l-67 25q37 94 105.5 148t151.5 54q90 0 143.5 -52.5t53.5 -125.5t-42 -135t-147 -139l-223 -163h320z" />
    <glyph glyph-name="three.tab" 
d="M260 -15q-96 0 -159.5 53t-80.5 148l72 22q35 -158 172 -158q71 0 113 38.5t42 106.5q0 112 -132 112h-54l14 63h44q85 0 129.5 35.5t44.5 97.5q0 50 -34 81.5t-96 31.5q-57 0 -102.5 -39.5t-69.5 -110.5l-67 24q25 83 91.5 137t152.5 54q97 0 153.5 -53.5t56.5 -126.5
q0 -55 -43.5 -101t-114.5 -62q54 -16 82 -56.5t28 -89.5q0 -88 -69 -147.5t-173 -59.5z" />
    <glyph glyph-name="four.tab" 
d="M303 0l32 153h-340l12 57l422 456h98l-96 -450h86l-13 -63h-86l-33 -153h-82zM349 216l74 349l-323 -349h249z" />
    <glyph glyph-name="five.tab" 
d="M254 -15q-94 0 -154.5 50t-76.5 138l77 21q30 -144 159 -144q70 0 118.5 53t48.5 141q0 59 -31.5 94.5t-88.5 35.5q-46 0 -85 -20.5t-82 -65.5l-71 19l94 359h395l-14 -66h-324l-64 -242q76 81 169 81q86 0 136.5 -54.5t50.5 -142.5q0 -110 -76 -183.5t-181 -73.5z" />
    <glyph glyph-name="six.tab" 
d="M527 240q0 -107 -75 -181t-187 -74q-99 0 -159 65t-60 187q0 111 39 211.5t114.5 166.5t170.5 66q73 0 121 -40t70 -109l-74 -23q-34 107 -121 107q-78 0 -139 -73.5t-87 -209.5q35 51 85.5 79t103.5 28q87 0 142.5 -59t55.5 -141zM267 50q79 0 127.5 53t48.5 139
q0 56 -36.5 94.5t-95.5 38.5q-77 0 -130 -53t-53 -130q0 -63 39.5 -102.5t99.5 -39.5z" />
    <glyph glyph-name="seven.tab" 
d="M220 0h-87q112 362 363 600h-373l14 66h455l-15 -69q-134 -125 -219 -267t-138 -330z" />
    <glyph glyph-name="eight.tab" 
d="M252 -15q-107 0 -173 53t-66 133q0 63 48.5 113.5t135.5 65.5q-49 23 -75 60.5t-26 80.5q0 77 66.5 133.5t172.5 56.5q107 0 163.5 -50t56.5 -125q0 -57 -45.5 -101.5t-113.5 -59.5q52 -22 84.5 -65t32.5 -90q0 -87 -71 -146t-190 -59zM320 377q69 0 111.5 37t42.5 95
q0 48 -37 77.5t-104 29.5q-69 0 -113.5 -37.5t-44.5 -93.5q0 -49 39 -78.5t106 -29.5zM257 50q79 0 127 39.5t48 96.5q0 56 -42.5 92.5t-118.5 36.5q-81 0 -128.5 -40.5t-47.5 -98.5q0 -54 43.5 -90t118.5 -36z" />
    <glyph glyph-name="nine.tab" 
d="M281 298q80 0 133 48.5t53 120.5q0 65 -41.5 107t-106.5 42q-74 0 -121 -52.5t-47 -130.5q0 -63 36 -99t94 -36zM226 -15q-167 0 -210 161l76 24q33 -120 138 -120q78 0 139.5 76.5t87.5 214.5q-32 -51 -81 -79.5t-106 -28.5q-89 0 -146 55t-57 148q0 98 72 171.5
t183 73.5q102 0 164.5 -64.5t62.5 -184.5q0 -186 -94 -316.5t-229 -130.5z" />
    <glyph glyph-name="parenleft.tab" horiz-adv-x="413" 
d="M247 -132h-79q-95 146 -95 331q0 140 76.5 294.5t208.5 266.5h79q-143 -132 -212.5 -281t-69.5 -284q0 -180 92 -327z" />
    <glyph glyph-name="parenright.tab" horiz-adv-x="413" 
d="M47 -132h-79q143 132 212.5 281t69.5 284q0 180 -92 327h79q95 -146 95 -331q0 -140 -76.5 -294.5t-208.5 -266.5z" />
    <glyph glyph-name="bracketleft.tab" horiz-adv-x="413" 
d="M19 -132l190 892h218l-14 -66h-137l-162 -760h137l-14 -66h-218z" />
    <glyph glyph-name="bracketright.tab" horiz-adv-x="413" 
d="M-22 -132l14 66h137l162 760h-137l14 66h218l-190 -892h-218z" />
    <glyph glyph-name="braceleft.tab" horiz-adv-x="413" 
d="M193 -132q-77 0 -104.5 39.5t-9.5 122.5l41 191q9 43 -1 57.5t-46 14.5h-49l15 69h44q40 0 57 16t27 64l36 169q17 80 59 114.5t116 34.5h72l-14 -66h-59q-45 0 -64 -18.5t-31 -74.5l-33 -154q-11 -51 -30.5 -79t-54.5 -41q55 -23 35 -118l-40 -188q-11 -52 -0.5 -69.5
t51.5 -17.5h64l-14 -66h-67z" />
    <glyph glyph-name="braceright.tab" horiz-adv-x="413" 
d="M-44 -132l14 66h59q45 0 64 18.5t31 74.5l38 181q20 97 85 120q-57 23 -35 118l35 161q11 52 0.5 69.5t-51.5 17.5h-64l14 66h67q77 0 104.5 -39.5t9.5 -122.5l-36 -164q-9 -43 1 -57.5t46 -14.5h49l-15 -69h-44q-40 0 -57 -16t-27 -64l-41 -196q-17 -80 -59 -114.5
t-116 -34.5h-72z" />
    <glyph glyph-name="numbersign.tab" 
d="M389 420h-123l-62 -174h123zM48 0l68 188h-103l21 58h103l62 174h-103l22 58h102l68 188h67l-68 -188h123l68 188h67l-68 -188h103l-22 -58h-102l-62 -174h102l-21 -58h-102l-68 -188h-67l68 188h-123l-68 -188h-67z" />
    <glyph glyph-name="percent.tab" horiz-adv-x="830" 
d="M217 308q-68 0 -108.5 41.5t-40.5 112.5q0 78 53 148.5t138 70.5q68 0 108.5 -41.5t40.5 -112.5q0 -78 -53 -148.5t-138 -70.5zM107 0l543 666h74l-543 -666h-74zM220 368q35 0 64 29q50 50 50 132q0 92 -78 92q-35 0 -64 -29q-50 -50 -50 -132q0 -92 78 -92zM572 -15
q-68 0 -108.5 41.5t-40.5 112.5q0 78 53 148.5t138 70.5q68 0 108.5 -41.5t40.5 -112.5q0 -78 -53 -148.5t-138 -70.5zM575 45q35 0 64 29q50 50 50 132q0 92 -78 92q-35 0 -64 -29q-50 -50 -50 -132q0 -92 78 -92z" />
    <glyph glyph-name="perthousand.tab" horiz-adv-x="1212" 
d="M218 308q-68 0 -108.5 41.5t-40.5 112.5q0 78 53 148.5t138 70.5q68 0 108.5 -41.5t40.5 -112.5q0 -78 -53 -148.5t-138 -70.5zM108 0l543 666h74l-543 -666h-74zM221 368q35 0 64 29q50 50 50 132q0 92 -78 92q-35 0 -64 -29q-50 -50 -50 -132q0 -92 78 -92zM954 -15
q-68 0 -108.5 41.5t-40.5 112.5q0 78 53 148.5t138 70.5q68 0 108.5 -41.5t40.5 -112.5q0 -78 -53 -148.5t-138 -70.5zM573 -15q-68 0 -108.5 41.5t-40.5 112.5q0 78 53 148.5t138 70.5q68 0 108.5 -41.5t40.5 -112.5q0 -78 -53 -148.5t-138 -70.5zM957 45q35 0 64 29
q50 50 50 132q0 92 -78 92q-35 0 -64 -29q-50 -50 -50 -132q0 -92 78 -92zM576 45q35 0 64 29q50 50 50 132q0 92 -78 92q-35 0 -64 -29q-50 -50 -50 -132q0 -92 78 -92z" />
    <glyph glyph-name="period.tab" horiz-adv-x="295" 
d="M129 0h-102l23 110h102z" />
    <glyph glyph-name="comma.tab" horiz-adv-x="295" 
d="M-3 -135l76 135h-46l23 110h102l-23 -110l-81 -135h-51z" />
    <glyph glyph-name="colon.tab" horiz-adv-x="295" 
d="M93 312l24 110h102l-24 -110h-102zM27 0l23 110h102l-23 -110h-102z" />
    <glyph glyph-name="semicolon.tab" horiz-adv-x="295" 
d="M93 312l24 110h102l-24 -110h-102zM-3 -135l76 135h-46l23 110h102l-23 -110l-81 -135h-51z" />
    <glyph glyph-name="plus.tab" 
d="M514 309h-192l-42 -195h-61l42 195h-192l12 60h192l42 196h61l-42 -196h192z" />
    <glyph glyph-name="minus.tab" 
d="M81 309l12 59h421l-12 -59h-421z" />
    <glyph glyph-name="plusminus.tab" 
d="M521 376h-185l-35 -166h-61l35 166h-185l13 60h185l35 167h61l-35 -167h185zM31 100l13 60h431l-13 -60h-431z" />
    <glyph glyph-name="divide.tab" 
d="M282 449l23 106h76l-23 -106h-76zM507 309h-431l12 59h431zM289 122h-76l22 106h76z" />
    <glyph glyph-name="multiply.tab" 
d="M422 135l-131 162l-202 -165l-37 45l203 165l-130 162l48 40l130 -162l203 165l36 -45l-202 -165l130 -162z" />
    <glyph glyph-name="equal.tab" 
d="M107 410l13 60h411l-13 -60h-411zM64 207l13 60h411l-13 -60h-411z" />
    <glyph glyph-name="less.tab" 
d="M456 99l-395 209l13 61l484 209l-17 -73l-402 -170l330 -171z" />
    <glyph glyph-name="greater.tab" 
d="M36 99l17 73l402 170l-330 171l13 65l395 -209l-13 -61z" />
    <glyph glyph-name="lessequal.tab" 
d="M479 178l-391 188l13 61l471 188l-16 -73l-385 -148l322 -148zM26 74l12 60h431l-12 -60h-431z" />
    <glyph glyph-name="greaterequal.tab" 
d="M48 178l16 73l385 148l-322 148l14 68l391 -188l-13 -61zM26 74l12 60h431l-12 -60h-431z" />
    <glyph glyph-name="approxequal.tab" 
d="M552 465q-34 -47 -73.5 -74t-72.5 -27q-44 0 -91 31l-40 26q-29 20 -52 20q-48 0 -105 -72l-35 30q34 47 73.5 74t72.5 27q45 0 91 -31l40 -26q29 -20 52 -20q48 0 105 72zM511 274q-34 -47 -73.5 -74t-72.5 -27q-45 0 -91 31l-40 26q-29 20 -52 20q-48 0 -105 -72
l-35 30q34 47 73.5 74t72.5 27q44 0 91 -31l40 -26q29 -20 52 -20q48 0 105 72z" />
    <glyph glyph-name="notequal.tab" 
d="M475 207h-224l-84 -141h-62l84 141h-125l13 60h147l85 143h-202l13 60h224l84 141h62l-84 -141h125l-13 -60h-147l-85 -143h202z" />
    <glyph glyph-name="dollar.tab" 
d="M280 395l4 -2l48 223q-65 -1 -99 -32.5t-34 -84.5q0 -70 81 -104zM415 175q0 34 -20 60t-71 50l-50 -235q63 3 102 36.5t39 88.5zM238 -119h-62l23 110q-73 16 -120 69t-58 135l78 17q18 -128 114 -155l54 253l-29 13q-122 54 -122 174q0 79 60.5 131.5t162.5 52.5h7
l22 104h62l-24 -113q58 -17 96.5 -62.5t51.5 -112.5l-75 -15q-22 98 -87 124l-51 -237l16 -7q79 -34 111.5 -80t32.5 -109q0 -81 -70.5 -134.5t-170.5 -53.5z" />
    <glyph glyph-name="cent.tab" 
d="M132 193q0 -56 22.5 -93t61.5 -49l84 394q-49 -9 -88 -48q-37 -38 -58.5 -93t-21.5 -111zM480 147q-32 -74 -88 -116t-128 -46l-22 -104h-62l23 109q-67 16 -108.5 71.5t-41.5 134.5q0 74 31.5 143t92 116.5t135.5 51.5l23 104h62l-23 -108q60 -12 97.5 -54t49.5 -110
l-76 -9q-15 94 -84 112l-84 -395q81 14 141 130z" />
    <glyph glyph-name="sterling.tab" 
d="M472 66l-14 -66h-464l13 62q64 23 106.5 77t42.5 114q0 14 -3 29h-99l14 66h65q-22 68 -22 106q0 95 68 161t173 66q84 0 139.5 -52.5t72.5 -144.5l-73 -20q-30 152 -143 152q-70 0 -114 -44.5t-44 -115.5q0 -38 26 -108h199l-14 -66h-166q2 -18 2 -27
q0 -55 -31.5 -104.5t-85.5 -84.5h352z" />
    <glyph glyph-name="yen.tab" 
d="M463 100h-177l-21 -100h-81l21 100h-177l14 66h177l16 74h-177l14 66h149l-119 360h80l109 -339l254 339h87l-272 -360h147l-14 -66h-177l-16 -74h177z" />
    <glyph glyph-name="uni20A9.tab" 
d="M333 421l9 126l-44 -126h35zM126 126l83 229h-67zM302 0l26 355h-54l-125 -355h-104l20 355h-60l14 66h50l14 245h81l-17 -245h86l89 245h94l-16 -245h87l87 245h76l-90 -245h49l-14 -66h-60l-131 -355h-102zM382 126l81 229h-67z" />
    <glyph glyph-name="Euro.tab" 
d="M528 168q-87 -183 -237 -183q-96 0 -154 65t-61 182h-81l14 66h69q4 37 12 74h-65l14 66h70q40 110 117 176.5t166 66.5q79 0 131 -50.5t67 -140.5l-79 -10q-15 72 -44 104t-79 32q-63 0 -118 -55q-46 -45 -77 -123h189l-14 -66h-195q-8 -38 -11 -74h190l-14 -66h-179
q2 -88 37 -135t99 -47q96 0 165 143z" />
    <glyph glyph-name="florin.tab" 
d="M60 -15q-28 0 -48 3l24 61q20 -2 29 -2q36 0 56 15.5t35 53.5l104 268h-83l24 62h83l34 88q30 76 74.5 111.5t115.5 35.5q47 0 71 -6l-23 -61q-25 5 -51 5q-43 0 -67.5 -21t-44.5 -74l-30 -78h121l-24 -62h-122l-107 -276q-26 -68 -64.5 -95.5t-106.5 -27.5z" />
    <glyph glyph-name="section.tab" 
d="M334 153q27 -14 44 -30q55 31 55 74q0 44 -60 76l-157 87q-28 15 -46 33q-55 -30 -55 -75t61 -78zM206 -167q-93 0 -155 53.5t-76 150.5l75 14q11 -72 53.5 -112.5t105.5 -40.5q61 0 97.5 28.5t36.5 70.5q0 53 -59 85l-150 83q-105 57 -105 135q0 42 29 77.5t81 54.5
q-21 38 -21 78q0 71 58.5 121t159.5 50q84 0 144 -53t74 -138l-75 -16q-34 142 -147 142q-60 0 -94.5 -28.5t-34.5 -72.5q0 -52 59 -83l153 -84q103 -55 103 -130q0 -41 -28.5 -78t-77.5 -57q17 -32 17 -70q0 -74 -64.5 -127t-158.5 -53z" />
    <glyph glyph-name="zero.uctab" 
d="M573 439q0 -193 -92.5 -323.5t-232.5 -130.5q-104 0 -163 73.5t-59 202.5q0 193 92.5 323.5t232.5 130.5q104 0 163 -73.5t59 -202.5zM111 258q0 -206 140 -206q68 0 124 56q52 52 82.5 140.5t30.5 193.5q0 206 -140 206q-68 0 -124 -56q-52 -52 -82.5 -140.5
t-30.5 -193.5z" />
    <glyph glyph-name="one.uctab" 
d="M29 0l15 69h160l115 540q-33 -18 -85 -36t-88 -24l14 66q102 29 198 85h64l-135 -631h161l-15 -69h-404z" />
    <glyph glyph-name="two.uctab" 
d="M444 0h-448l14 67l273 215q110 87 150 141.5t40 108.5q0 50 -30.5 83t-84.5 33q-120 0 -202 -169l-69 26q42 98 115.5 154t156.5 56q95 0 147.5 -53t52.5 -132q0 -69 -47 -132t-177 -165l-211 -164h335z" />
    <glyph glyph-name="three.uctab" 
d="M258 -15q-96 0 -161 53t-85 156l81 25q18 -82 62 -124.5t108 -42.5q75 0 120.5 43t45.5 112q0 52 -35 84t-106 32h-56l14 68h46q88 0 136.5 38t48.5 101q0 51 -34 84.5t-94 33.5q-127 0 -189 -157l-70 25q35 93 102 146t162 53q93 0 151 -53.5t58 -127.5
q0 -66 -45.5 -113t-123.5 -64q59 -16 89 -59t30 -94q0 -93 -71 -156t-184 -63z" />
    <glyph glyph-name="four.uctab" 
d="M310 0l34 162h-364l13 57l448 481h101l-100 -470h89l-15 -68h-89l-34 -162h-83zM359 230l78 370l-344 -370h266z" />
    <glyph glyph-name="five.uctab" 
d="M260 -15q-95 0 -160 50.5t-83 144.5l81 22q38 -150 165 -150q73 0 124 59.5t51 145.5q0 60 -34 98.5t-89 38.5q-48 0 -87 -21t-90 -70l-72 20l98 377h410l-15 -69h-336l-67 -252q80 82 179 82q81 0 135 -58.5t54 -147.5q0 -112 -75 -191t-189 -79z" />
    <glyph glyph-name="six.uctab" 
d="M533 250q0 -112 -75 -188.5t-192 -76.5q-101 0 -163.5 71.5t-62.5 205.5q0 117 42.5 220.5t119.5 168t169 64.5q135 0 197 -153l-75 -31q-42 117 -125 117q-86 0 -149 -86.5t-86 -216.5q77 117 205 117q88 0 141.5 -63.5t53.5 -148.5zM270 52q77 0 126.5 55.5t49.5 142.5
q0 59 -35.5 102t-92.5 43q-81 0 -135.5 -56t-54.5 -136q0 -65 40 -108t102 -43z" />
    <glyph glyph-name="seven.uctab" 
d="M200 0h-87q119 375 393 631h-386l15 69h472l-15 -70q-156 -142 -246 -294t-146 -336z" />
    <glyph glyph-name="eight.uctab" 
d="M250 -15q-115 0 -177.5 53.5t-62.5 137.5q0 69 49.5 121t146.5 72q-50 22 -78 64.5t-28 87.5q0 83 65.5 138.5t180.5 55.5q102 0 162 -52t60 -132q0 -51 -45.5 -100.5t-122.5 -68.5q58 -23 89 -68t31 -94q0 -95 -74.5 -155t-195.5 -60zM322 395q69 0 116 37t47 94
q0 53 -36 87.5t-105 34.5q-80 0 -121.5 -35.5t-41.5 -92.5q0 -54 36 -89.5t105 -35.5zM254 52q82 0 132.5 40t50.5 104q0 58 -43 97t-116 39q-82 0 -133 -44.5t-51 -106.5q0 -56 42.5 -92.5t117.5 -36.5z" />
    <glyph glyph-name="nine.uctab" 
d="M277 311q86 0 140.5 54t54.5 131q0 62 -39 107t-100 45q-83 0 -131 -56t-48 -139q0 -60 34 -101t89 -41zM228 -15q-152 0 -214 166l75 31q49 -130 146 -130q79 0 145 83.5t87 225.5q-35 -56 -88 -86.5t-112 -30.5q-89 0 -144.5 59t-55.5 147q0 108 74 186.5t195 78.5
q101 0 162.5 -70.5t61.5 -202.5q0 -125 -44 -230t-120.5 -166t-167.5 -61z" />
    <glyph glyph-name="parenleft.uctab" horiz-adv-x="413" 
d="M178 -60q-43 63 -67.5 143.5t-24.5 155.5q0 152 73 289.5t194 231.5h79q-126 -103 -195 -241.5t-69 -284.5t86 -294h-76z" />
    <glyph glyph-name="parenright.uctab" horiz-adv-x="413" 
d="M-10 -60q126 103 195 241.5t69 284.5t-86 294h76q43 -63 67.5 -143.5t24.5 -155.5q0 -152 -73 -289.5t-194 -231.5h-79z" />
    <glyph glyph-name="bracketleft.uctab" horiz-adv-x="413" 
d="M35 -60l175 820h218l-14 -66h-137l-147 -688h137l-14 -66h-218z" />
    <glyph glyph-name="bracketright.uctab" horiz-adv-x="413" 
d="M213 -60h-218l14 66h137l147 688h-137l14 66h218z" />
    <glyph glyph-name="braceleft.uctab" horiz-adv-x="413" 
d="M209 -60q-77 0 -104.5 39.5t-9.5 122.5l32 151q9 43 -1.5 57.5t-45.5 14.5h-48l15 69h43q40 0 57 16t27 64l29 137q17 80 59 114.5t116 34.5h73l-14 -66h-60q-45 0 -64 -18.5t-31 -74.5l-26 -122q-11 -51 -30.5 -79t-54.5 -41q55 -23 35 -118l-31 -148q-10 -52 0 -69.5
t51 -17.5h64l-14 -66h-67z" />
    <glyph glyph-name="braceright.uctab" horiz-adv-x="413" 
d="M-28 -60l14 66h60q45 0 64 18.5t31 74.5l30 141q11 51 30.5 79t54.5 41q-55 23 -35 118l27 129q10 52 0 69.5t-51 17.5h-64l14 66h67q77 0 104.5 -39.5t9.5 -122.5l-28 -132q-9 -43 1.5 -57.5t45.5 -14.5h48l-15 -69h-43q-40 0 -57 -16t-27 -64l-33 -156
q-17 -80 -59 -114.5t-116 -34.5h-73z" />
    <glyph glyph-name="numbersign.uctab" 
d="M398 442h-130l-66 -184h130zM40 0l72 199h-109l22 59h108l66 184h-108l21 59h108l72 199h69l-72 -199h130l72 199h69l-72 -199h108l-21 -59h-108l-66 -184h108l-22 -59h-107l-72 -199h-69l72 199h-130l-72 -199h-69z" />
    <glyph glyph-name="percent.uctab" horiz-adv-x="830" 
d="M209 323q-69 0 -108.5 43.5t-39.5 118.5q0 83 52.5 156.5t139.5 73.5q69 0 108.5 -43.5t39.5 -118.5q0 -83 -52.5 -156.5t-139.5 -73.5zM97 0l571 700h74l-571 -700h-74zM211 383q33 0 61 28q25 25 40 65.5t15 78.5q0 48 -20 74t-56 26q-33 0 -61 -28q-25 -25 -40 -65.5
t-15 -78.5q0 -48 20 -74t56 -26zM586 -15q-69 0 -108.5 43.5t-39.5 118.5q0 83 52.5 156.5t139.5 73.5q69 0 108.5 -43.5t39.5 -118.5q0 -83 -52.5 -156.5t-139.5 -73.5zM588 45q33 0 61 28q25 25 40 65.5t15 78.5q0 48 -20 74t-56 26q-33 0 -61 -28q-25 -25 -40 -65.5
t-15 -78.5q0 -48 20 -74t56 -26z" />
    <glyph glyph-name="perthousand.uctab" horiz-adv-x="1212" 
d="M209 323q-69 0 -108.5 43.5t-39.5 118.5q0 83 52.5 156.5t139.5 73.5q69 0 108.5 -43.5t39.5 -118.5q0 -83 -52.5 -156.5t-139.5 -73.5zM97 0l571 700h74l-571 -700h-74zM211 383q33 0 61 28q25 25 40 65.5t15 78.5q0 48 -20 74t-56 26q-33 0 -61 -28q-25 -25 -40 -65.5
t-15 -78.5q0 -48 20 -74t56 -26zM968 -15q-69 0 -108.5 43.5t-39.5 118.5q0 83 52.5 156.5t139.5 73.5q69 0 108.5 -43.5t39.5 -118.5q0 -83 -52.5 -156.5t-139.5 -73.5zM586 -15q-69 0 -108.5 43.5t-39.5 118.5q0 83 52.5 156.5t139.5 73.5q69 0 108.5 -43.5t39.5 -118.5
q0 -83 -52.5 -156.5t-139.5 -73.5zM970 45q33 0 61 28q25 25 40 65.5t15 78.5q0 48 -20 74t-56 26q-33 0 -61 -28q-25 -25 -40 -65.5t-15 -78.5q0 -48 20 -74t56 -26zM588 45q33 0 61 28q25 25 40 65.5t15 78.5q0 48 -20 74t-56 26q-33 0 -61 -28q-25 -25 -40 -65.5
t-15 -78.5q0 -48 20 -74t56 -26z" />
    <glyph glyph-name="plus.uctab" 
d="M515 315h-192l-42 -195h-61l42 195h-192l12 60h192l42 196h61l-42 -196h192z" />
    <glyph glyph-name="minus.uctab" 
d="M82 315l12 59h421l-12 -59h-421z" />
    <glyph glyph-name="plusminus.uctab" 
d="M522 382h-185l-35 -166h-61l35 166h-185l13 60h185l35 167h61l-35 -167h185zM32 106l13 60h431l-13 -60h-431z" />
    <glyph glyph-name="divide.uctab" 
d="M283 455l23 106h76l-23 -106h-76zM508 315h-431l12 59h431zM290 128h-76l22 106h76z" />
    <glyph glyph-name="multiply.uctab" 
d="M423 141l-131 162l-202 -165l-37 45l203 165l-130 162l48 40l130 -162l203 165l36 -45l-202 -165l130 -162z" />
    <glyph glyph-name="equal.uctab" 
d="M108 416l13 60h411l-13 -60h-411zM65 213l13 60h411l-13 -60h-411z" />
    <glyph glyph-name="less.uctab" 
d="M457 105l-395 209l13 61l484 209l-17 -73l-402 -170l330 -171z" />
    <glyph glyph-name="greater.uctab" 
d="M37 105l17 73l402 170l-330 171l13 65l395 -209l-13 -61z" />
    <glyph glyph-name="lessequal.uctab" 
d="M480 184l-391 188l13 61l471 188l-16 -73l-385 -148l322 -148zM27 80l12 60h431l-12 -60h-431z" />
    <glyph glyph-name="greaterequal.uctab" 
d="M49 184l16 73l385 148l-322 148l14 68l391 -188l-13 -61zM27 80l12 60h431l-12 -60h-431z" />
    <glyph glyph-name="approxequal.uctab" 
d="M553 471q-34 -47 -73.5 -74t-72.5 -27q-45 0 -91 31l-40 26q-29 20 -52 20q-48 0 -105 -72l-35 30q34 47 73.5 74t72.5 27q44 0 91 -31l40 -26q29 -20 52 -20q48 0 105 72zM512 280q-34 -47 -73.5 -74t-72.5 -27q-44 0 -91 31l-40 26q-29 20 -52 20q-48 0 -105 -72
l-35 30q34 47 73.5 74t72.5 27q45 0 91 -31l40 -26q29 -20 52 -20q48 0 105 72z" />
    <glyph glyph-name="notequal.uctab" 
d="M476 213h-224l-84 -141h-62l84 141h-125l13 60h147l85 143h-202l13 60h224l84 141h62l-84 -141h125l-13 -60h-147l-85 -143h202z" />
    <glyph glyph-name="dollar.uctab" 
d="M284 409l5 -2l52 241q-68 -1 -107.5 -34.5t-39.5 -86.5q0 -42 20.5 -69t69.5 -49zM433 177q0 36 -23.5 65t-80.5 56l-52 -246q72 1 114 35t42 90zM267 -15h-5l-23 -110h-63l25 117q-74 17 -123.5 72.5t-65.5 141.5l79 17q28 -135 124 -163l57 264l-24 11
q-138 61 -138 186q0 83 64 138.5t172 55.5h9l23 109h63l-25 -119q61 -19 103 -67t55 -116l-77 -16q-18 100 -96 131l-54 -256l9 -4q88 -39 125.5 -86t37.5 -108q0 -89 -70 -143.5t-182 -54.5z" />
    <glyph glyph-name="cent.uctab" 
d="M132 193q0 -56 22.5 -93t61.5 -49l84 394q-49 -9 -88 -48q-37 -38 -58.5 -93t-21.5 -111zM480 147q-32 -74 -88 -116t-128 -46l-22 -104h-62l23 109q-67 16 -108.5 71.5t-41.5 134.5q0 74 31.5 143t92 116.5t135.5 51.5l23 104h62l-23 -108q60 -12 97.5 -54t49.5 -110
l-76 -9q-15 94 -84 112l-84 -395q81 14 141 130z" />
    <glyph glyph-name="sterling.uctab" 
d="M482 69l-15 -69h-483l14 64q67 24 111.5 78t44.5 112q0 15 -4 43h-103l15 68h69q-24 72 -24 120q0 96 68 163t178 67q89 0 147.5 -57t77.5 -149l-75 -21q-15 77 -53.5 118.5t-97.5 41.5q-76 0 -120 -45t-44 -116q0 -41 27 -122h207l-15 -68h-172q4 -28 4 -42
q0 -50 -32.5 -102t-87.5 -84h363z" />
    <glyph glyph-name="yen.uctab" 
d="M472 105h-184l-22 -105h-83l22 105h-185l15 69h185l17 78h-185l14 69h157l-120 379h84l109 -353l260 353h89l-282 -379h155l-14 -69h-184l-17 -78h184z" />
    <glyph glyph-name="uni20A9.uctab" 
d="M337 442l11 133l-44 -133h33zM133 143l80 231h-61zM297 0l33 374h-49l-126 -374h-106l26 374h-66l15 68h55l18 258h81l-21 -258h80l90 258h96l-20 -258h80l89 258h80l-92 -258h54l-15 -68h-63l-134 -374h-105zM380 143l80 231h-62z" />
    <glyph glyph-name="Euro.uctab" 
d="M531 176q-85 -191 -244 -191q-98 0 -157 70.5t-61 188.5h-74l14 68h63q3 43 12 80h-58l15 68h63q43 117 125.5 186t174.5 69q81 0 130.5 -52t62.5 -146l-80 -10q-20 141 -117 141q-72 0 -134 -62q-49 -49 -78 -126h202l-15 -68h-207q-7 -37 -12 -80h202l-14 -68h-190
q2 -91 40 -141.5t97 -50.5q102 0 170 150z" />
    <glyph glyph-name="section.uctab" 
d="M341 156q25 -16 38 -29q60 35 60 77q0 25 -14 43.5t-53 41.5l-155 93q-21 12 -41 32q-60 -31 -60 -76q0 -46 61 -83zM199 -174q-91 0 -153 58t-74 157l77 13q10 -77 52.5 -119t101.5 -42q64 0 102.5 29.5t38.5 77.5q0 51 -67 92l-154 94q-95 58 -95 131q0 44 31 81t85 58
q-22 39 -22 88q0 71 59.5 121t156.5 50q93 0 149.5 -54t72.5 -152l-75 -11q-13 73 -52 111.5t-99 38.5q-58 0 -92 -27.5t-34 -71.5q0 -61 69 -102l144 -87q57 -34 81 -66t24 -71q0 -92 -115 -138q20 -35 20 -75q0 -77 -66 -130.5t-166 -53.5z" />
    <glyph glyph-name="zero.num" horiz-adv-x="395" 
d="M416 545q0 -84 -56 -158.5t-146 -74.5q-72 0 -115 44t-43 119q0 84 56 158.5t146 74.5q72 0 115 -44t43 -119zM126 473q0 -106 90 -106q38 0 71 33q27 26 43 66t16 81q0 106 -90 106q-38 0 -71 -33q-27 -26 -43 -66t-16 -81z" />
    <glyph glyph-name="one.num" horiz-adv-x="277" 
d="M20 320l12 58h89l51 246q-50 -21 -94 -29l13 58q52 16 113 47h52l-68 -322h86l-12 -58h-242z" />
    <glyph glyph-name="two.num" horiz-adv-x="323" 
d="M299 320h-280l13 62l166 107q53 34 73 58.5t20 51.5q0 24 -16.5 39t-47.5 15q-63 0 -103 -83l-56 21q22 54 66.5 85.5t96.5 31.5q59 0 94 -30.5t35 -74.5q0 -43 -28 -78.5t-108 -82.5l-108 -64h195z" />
    <glyph glyph-name="three.num" horiz-adv-x="333" 
d="M182 312q-58 0 -98 31t-52 92l65 18q19 -86 88 -86q39 0 63 18.5t24 48.5q0 52 -70 52h-44l12 55h34q49 0 71 18t22 43q0 23 -18.5 37t-49.5 14q-68 0 -100 -72l-55 20q19 49 62 78t97 29q63 0 98.5 -28t35.5 -75q0 -29 -24.5 -53.5t-69.5 -35.5q68 -19 68 -81
q0 -53 -47 -88t-112 -35z" />
    <glyph glyph-name="four.num" horiz-adv-x="348" 
d="M215 320l18 84h-215l11 52l254 244h80l-51 -238h52l-12 -58h-52l-18 -84h-67zM245 462l35 164l-171 -164h136z" />
    <glyph glyph-name="five.num" horiz-adv-x="341" 
d="M185 312q-58 0 -98 29.5t-48 83.5l65 13q15 -71 84 -71q42 0 67 25.5t25 62.5q0 28 -16.5 46.5t-46.5 18.5q-51 0 -93 -42l-61 12l56 210h258l-13 -58h-203l-29 -112q47 45 102 45q53 0 86 -32t33 -85q0 -64 -49.5 -105t-118.5 -41z" />
    <glyph glyph-name="six.num" horiz-adv-x="362" 
d="M374 460q0 -62 -50 -105t-121 -43q-67 0 -108.5 41.5t-41.5 119.5q0 94 59.5 164.5t141.5 70.5q99 0 135 -91l-61 -20q-23 56 -77 56q-41 0 -75.5 -36t-50.5 -107q47 62 122 62q53 0 90 -33.5t37 -78.5zM206 367q42 0 69 25t27 60q0 29 -20.5 47t-57.5 18
q-44 0 -72.5 -21.5t-28.5 -54.5q0 -31 23.5 -52.5t59.5 -21.5z" />
    <glyph glyph-name="seven.num" horiz-adv-x="296" 
d="M145 320h-73q68 195 211 318h-215l13 62h291l-14 -65q-84 -60 -131.5 -134.5t-81.5 -180.5z" />
    <glyph glyph-name="eight.num" horiz-adv-x="354" 
d="M190 312q-71 0 -114.5 29t-43.5 75q0 77 104 102q-55 28 -55 79q0 47 44 79t112 32q69 0 108 -28t39 -68q0 -32 -27 -60t-71 -39q76 -24 76 -85q0 -51 -48 -83.5t-124 -32.5zM225 542q42 0 68 16.5t26 44.5q0 22 -22 37t-61 15q-44 0 -68 -16t-24 -39q0 -25 22 -41.5
t59 -16.5zM192 365q47 0 75 17t28 45q0 23 -26 42t-67 19q-46 0 -74.5 -18.5t-28.5 -43.5q0 -28 24.5 -44.5t68.5 -16.5z" />
    <glyph glyph-name="nine.num" horiz-adv-x="368" 
d="M215 510q44 0 73.5 19.5t29.5 50.5q0 32 -23 52.5t-59 20.5q-43 0 -69 -22t-26 -54q0 -30 19.5 -48.5t54.5 -18.5zM184 312q-106 0 -140 96l61 21q22 -62 82 -62q97 0 129 148q-21 -27 -53 -43.5t-65 -16.5q-57 0 -93 32t-36 85q0 54 47.5 95t120.5 41q69 0 110 -42
t41 -114q0 -106 -61 -173t-143 -67z" />
    <glyph glyph-name="zero.den" horiz-adv-x="395" 
d="M348 225q0 -84 -56 -158.5t-146 -74.5q-72 0 -115 44t-43 119q0 84 56 158.5t146 74.5q72 0 115 -44t43 -119zM58 153q0 -106 90 -106q38 0 71 33q27 26 43 66t16 81q0 106 -90 106q-38 0 -71 -33q-27 -26 -43 -66t-16 -81z" />
    <glyph glyph-name="one.den" horiz-adv-x="277" 
d="M-48 0l12 58h89l51 246q-50 -21 -94 -29l13 58q52 16 113 47h52l-68 -322h86l-12 -58h-242z" />
    <glyph glyph-name="two.den" horiz-adv-x="323" 
d="M231 0h-280l13 62l166 107q53 34 73 58.5t20 51.5q0 24 -16.5 39t-47.5 15q-63 0 -103 -83l-56 21q22 54 66.5 85.5t96.5 31.5q59 0 94 -30.5t35 -74.5q0 -43 -28 -78.5t-108 -82.5l-108 -64h195z" />
    <glyph glyph-name="three.den" horiz-adv-x="333" 
d="M114 -8q-58 0 -98 31t-52 92l65 18q19 -86 88 -86q39 0 63 18.5t24 48.5q0 52 -70 52h-44l12 55h34q49 0 71 18t22 43q0 23 -18.5 37t-49.5 14q-68 0 -100 -72l-55 20q19 49 62 78t97 29q63 0 98.5 -28t35.5 -75q0 -29 -24.5 -53.5t-69.5 -35.5q68 -19 68 -81
q0 -53 -47 -88t-112 -35z" />
    <glyph glyph-name="four.den" horiz-adv-x="348" 
d="M147 0l18 84h-215l11 52l254 244h80l-51 -238h52l-12 -58h-52l-18 -84h-67zM177 142l35 164l-171 -164h136z" />
    <glyph glyph-name="five.den" horiz-adv-x="341" 
d="M117 -8q-58 0 -98 29.5t-48 83.5l65 13q15 -71 84 -71q42 0 67 25.5t25 62.5q0 28 -16.5 46.5t-46.5 18.5q-51 0 -93 -42l-61 12l56 210h258l-13 -58h-203l-29 -112q47 45 102 45q53 0 86 -32t33 -85q0 -64 -49.5 -105t-118.5 -41z" />
    <glyph glyph-name="six.den" horiz-adv-x="362" 
d="M306 140q0 -62 -50 -105t-121 -43q-67 0 -108.5 41.5t-41.5 119.5q0 94 59.5 164.5t141.5 70.5q99 0 135 -91l-61 -20q-23 56 -77 56q-41 0 -75.5 -36t-50.5 -107q47 62 122 62q53 0 90 -33.5t37 -78.5zM138 47q42 0 69 25t27 60q0 29 -20.5 47t-57.5 18
q-44 0 -72.5 -21.5t-28.5 -54.5q0 -31 23.5 -52.5t59.5 -21.5z" />
    <glyph glyph-name="seven.den" horiz-adv-x="296" 
d="M77 0h-73q68 195 211 318h-215l13 62h291l-14 -65q-84 -60 -131.5 -134.5t-81.5 -180.5z" />
    <glyph glyph-name="eight.den" horiz-adv-x="354" 
d="M122 -8q-71 0 -114.5 29t-43.5 75q0 77 104 102q-55 28 -55 79q0 47 44 79t112 32q69 0 108 -28t39 -68q0 -32 -27 -60t-71 -39q76 -24 76 -85q0 -51 -48 -83.5t-124 -32.5zM157 222q42 0 68 16.5t26 44.5q0 22 -22 37t-61 15q-44 0 -68 -16t-24 -39q0 -25 22 -41.5
t59 -16.5zM124 45q47 0 75 17t28 45q0 23 -26 42t-67 19q-46 0 -74.5 -18.5t-28.5 -43.5q0 -28 24.5 -44.5t68.5 -16.5z" />
    <glyph glyph-name="nine.den" horiz-adv-x="368" 
d="M147 190q44 0 73.5 19.5t29.5 50.5q0 32 -23 52.5t-59 20.5q-43 0 -69 -22t-26 -54q0 -30 19.5 -48.5t54.5 -18.5zM116 -8q-106 0 -140 96l61 21q22 -62 82 -62q97 0 129 148q-21 -27 -53 -43.5t-65 -16.5q-57 0 -93 32t-36 85q0 54 47.5 95t120.5 41q69 0 110 -42
t41 -114q0 -106 -61 -173t-143 -67z" />
    <glyph glyph-name="zero.sup" horiz-adv-x="435" 
d="M449 605q0 -84 -56 -158.5t-146 -74.5q-72 0 -115 44t-43 119q0 84 56 158.5t146 74.5q72 0 115 -44t43 -119zM159 533q0 -106 90 -106q38 0 71 33q27 26 43 66t16 81q0 106 -90 106q-38 0 -71 -33q-27 -26 -43 -66t-16 -81z" />
    <glyph glyph-name="one.sup" horiz-adv-x="317" 
d="M53 380l12 58h89l51 246q-50 -21 -94 -29l13 58q52 16 113 47h52l-68 -322h86l-12 -58h-242z" />
    <glyph glyph-name="two.sup" horiz-adv-x="363" 
d="M332 380h-280l13 62l166 107q53 34 73 58.5t20 51.5q0 24 -16.5 39t-47.5 15q-63 0 -103 -83l-56 21q22 54 66.5 85.5t96.5 31.5q59 0 94 -30.5t35 -74.5q0 -43 -28 -78.5t-108 -82.5l-108 -64h195z" />
    <glyph glyph-name="three.sup" horiz-adv-x="373" 
d="M215 372q-58 0 -98 31t-52 92l65 18q19 -86 88 -86q39 0 63 18.5t24 48.5q0 52 -70 52h-44l12 55h34q49 0 71 18t22 43q0 23 -18.5 37t-49.5 14q-68 0 -100 -72l-55 20q19 49 62 78t97 29q63 0 98.5 -28t35.5 -75q0 -29 -24.5 -53.5t-69.5 -35.5q68 -19 68 -81
q0 -53 -47 -88t-112 -35z" />
    <glyph glyph-name="four.sup" horiz-adv-x="388" 
d="M248 380l18 84h-215l11 52l254 244h80l-51 -238h52l-12 -58h-52l-18 -84h-67zM278 522l35 164l-171 -164h136z" />
    <glyph glyph-name="five.sup" horiz-adv-x="381" 
d="M218 372q-58 0 -98 29.5t-48 83.5l65 13q15 -71 84 -71q42 0 67 25.5t25 62.5q0 28 -16.5 46.5t-46.5 18.5q-51 0 -93 -42l-61 12l56 210h258l-13 -58h-203l-29 -112q47 45 102 45q53 0 86 -32t33 -85q0 -64 -49.5 -105t-118.5 -41z" />
    <glyph glyph-name="six.sup" horiz-adv-x="402" 
d="M407 520q0 -62 -50 -105t-121 -43q-67 0 -108.5 41.5t-41.5 119.5q0 94 59.5 164.5t141.5 70.5q99 0 135 -91l-61 -20q-23 56 -77 56q-41 0 -75.5 -36t-50.5 -107q47 62 122 62q53 0 90 -33.5t37 -78.5zM239 427q42 0 69 25t27 60q0 29 -20.5 47t-57.5 18
q-44 0 -72.5 -21.5t-28.5 -54.5q0 -31 23.5 -52.5t59.5 -21.5z" />
    <glyph glyph-name="seven.sup" horiz-adv-x="336" 
d="M178 380h-73q68 195 211 318h-215l13 62h291l-14 -65q-84 -60 -131.5 -134.5t-81.5 -180.5z" />
    <glyph glyph-name="eight.sup" horiz-adv-x="394" 
d="M223 372q-71 0 -114.5 29t-43.5 75q0 77 104 102q-55 28 -55 79q0 47 44 79t112 32q69 0 108 -28t39 -68q0 -32 -27 -60t-71 -39q76 -24 76 -85q0 -51 -48 -83.5t-124 -32.5zM258 602q42 0 68 16.5t26 44.5q0 22 -22 37t-61 15q-44 0 -68 -16t-24 -39q0 -25 22 -41.5
t59 -16.5zM225 425q47 0 75 17t28 45q0 23 -26 42t-67 19q-47 0 -75 -18.5t-28 -43.5q0 -28 24.5 -44.5t68.5 -16.5z" />
    <glyph glyph-name="nine.sup" horiz-adv-x="408" 
d="M248 570q44 0 73.5 19.5t29.5 50.5q0 32 -23 52.5t-59 20.5q-43 0 -69 -22t-26 -54q0 -30 19.5 -48.5t54.5 -18.5zM217 372q-106 0 -140 96l61 21q22 -62 82 -62q97 0 129 148q-21 -27 -53 -43.5t-65 -16.5q-57 0 -93 32t-36 85q0 54 47.5 95t120.5 41q69 0 110 -42
t41 -114q0 -106 -61 -173t-143 -67z" />
    <glyph glyph-name="zero.sub" horiz-adv-x="435" 
d="M355 165q0 -84 -56 -158.5t-146 -74.5q-72 0 -115 44t-43 119q0 84 56 158.5t146 74.5q72 0 115 -44t43 -119zM65 93q0 -106 90 -106q38 0 71 33q27 26 43 66t16 81q0 106 -90 106q-38 0 -71 -33q-27 -26 -43 -66t-16 -81z" />
    <glyph glyph-name="one.sub" horiz-adv-x="317" 
d="M-41 -60l12 58h89l51 246q-50 -21 -94 -29l13 58q52 16 113 47h52l-68 -322h86l-12 -58h-242z" />
    <glyph glyph-name="two.sub" horiz-adv-x="363" 
d="M238 -60h-280l13 62l166 107q53 34 73 58.5t20 51.5q0 24 -16.5 39t-47.5 15q-63 0 -103 -83l-56 21q22 54 66.5 85.5t96.5 31.5q59 0 94 -30.5t35 -74.5q0 -43 -28 -78.5t-108 -82.5l-108 -64h195z" />
    <glyph glyph-name="three.sub" horiz-adv-x="373" 
d="M121 -68q-58 0 -98 31t-52 92l65 18q19 -86 88 -86q39 0 63 18.5t24 48.5q0 52 -70 52h-44l12 55h34q49 0 71 18t22 43q0 23 -18.5 37t-49.5 14q-68 0 -100 -72l-55 20q19 49 62 78t97 29q63 0 98.5 -28t35.5 -75q0 -29 -24.5 -53.5t-69.5 -35.5q68 -19 68 -81
q0 -53 -47 -88t-112 -35z" />
    <glyph glyph-name="four.sub" horiz-adv-x="388" 
d="M154 -60l18 84h-215l11 52l254 244h80l-51 -238h52l-12 -58h-52l-18 -84h-67zM184 82l35 164l-171 -164h136z" />
    <glyph glyph-name="five.sub" horiz-adv-x="381" 
d="M124 -68q-58 0 -98 29.5t-48 83.5l65 13q15 -71 84 -71q42 0 67 25.5t25 62.5q0 28 -16.5 46.5t-46.5 18.5q-51 0 -93 -42l-61 12l56 210h258l-13 -58h-203l-29 -112q47 45 102 45q53 0 86 -32t33 -85q0 -64 -49.5 -105t-118.5 -41z" />
    <glyph glyph-name="six.sub" horiz-adv-x="402" 
d="M313 80q0 -62 -50 -105t-121 -43q-67 0 -108.5 41.5t-41.5 119.5q0 94 59.5 164.5t141.5 70.5q99 0 135 -91l-61 -20q-23 56 -77 56q-41 0 -75.5 -36t-50.5 -107q47 62 122 62q53 0 90 -33.5t37 -78.5zM145 -13q42 0 69 25t27 60q0 29 -20.5 47t-57.5 18
q-44 0 -72.5 -21.5t-28.5 -54.5q0 -31 23.5 -52.5t59.5 -21.5z" />
    <glyph glyph-name="seven.sub" horiz-adv-x="336" 
d="M84 -60h-73q68 195 211 318h-215l13 62h291l-14 -65q-84 -60 -131.5 -134.5t-81.5 -180.5z" />
    <glyph glyph-name="eight.sub" horiz-adv-x="394" 
d="M129 -68q-71 0 -114.5 29t-43.5 75q0 77 104 102q-55 28 -55 79q0 47 44 79t112 32q69 0 108 -28t39 -68q0 -32 -27 -60t-71 -39q76 -24 76 -85q0 -51 -48 -83.5t-124 -32.5zM164 162q42 0 68 16.5t26 44.5q0 22 -22 37t-61 15q-44 0 -68 -16t-24 -39q0 -25 22 -41.5
t59 -16.5zM131 -15q47 0 75 17t28 45q0 23 -26 42t-67 19q-47 0 -75 -18.5t-28 -43.5q0 -28 24.5 -44.5t68.5 -16.5z" />
    <glyph glyph-name="nine.sub" horiz-adv-x="408" 
d="M154 130q44 0 73.5 19.5t29.5 50.5q0 32 -23 52.5t-59 20.5q-43 0 -69 -22t-26 -54q0 -30 19.5 -48.5t54.5 -18.5zM123 -68q-106 0 -140 96l61 21q22 -62 82 -62q97 0 129 148q-21 -27 -53 -43.5t-65 -16.5q-57 0 -93 32t-36 85q0 54 47.5 95t120.5 41q69 0 110 -42
t41 -114q0 -106 -61 -173t-143 -67z" />
    </font>
</defs>
</svg>
