<?xml version="1.0" standalone="no"?>
<!DOCTYPE svg PUBLIC "-//W3C//DTD SVG 1.1//EN" "http://www.w3.org/Graphics/SVG/1.1/DTD/svg11.dtd" >
<svg>
<metadata>
Created by FontForge 20090622 at Tue Aug  4 18:33:29 2015
 By deploy user
Copyright &#194;&#172;&#194;&#169; 2014 Commercial Type.
</metadata>
<defs>
<font id="DuplicateSlab-Bold" horiz-adv-x="600" >
  <font-face 
    font-family="Duplicate Slab Bold"
    font-weight="700"
    font-stretch="normal"
    units-per-em="1000"
    panose-1="0 0 0 0 0 0 0 0 0 0"
    ascent="854"
    descent="-146"
    x-height="490"
    cap-height="639"
    bbox="-231 -187 1201 1007"
    underline-thickness="30"
    underline-position="-104"
    unicode-range="U+0020-U+FB04"
  />
<missing-glyph horiz-adv-x="493" 
 />
    <glyph glyph-name="f_b" unicode="fb" horiz-adv-x="916" 
d="M341 554v119h198v-289q14 47 55 82.5t104 35.5q93 0 145 -68.5t52 -179.5v-1q0 -125 -56 -194.5t-148 -69.5q-129 0 -164 132q-1 -36 -7.5 -66.5t-12.5 -42.5l-6 -12h-166v111h46v443h-40zM15 383v107h55v31q0 78 41.5 118t109.5 40q60 0 88 -23v-87q-1 0 -14 0.5
t-16 0.5q-51 0 -51 -47v-33h102v-107h-102v-272h71v-111h-284v111h55v272h-55zM639 95q45 0 70.5 37.5t25.5 107.5v31q0 55 -25 86.5t-71 31.5q-44 0 -72 -34t-28 -93v-19q0 -73 27.5 -110.5t72.5 -37.5z" />
    <glyph glyph-name="f_f_b" unicode="ffb" horiz-adv-x="1211" 
d="M15 383v107h55v16q0 84 48.5 126.5t123.5 42.5q65 0 94 -25v-87q-30 3 -40 3q-37 0 -52.5 -11t-15.5 -39v-26h137v31q0 78 41 118t109 40q59 0 89 -23v-87q-1 0 -14 0.5t-16 0.5q-51 0 -51 -47v-33h102v-107h-102v-272h71v-111h-277v111h48v272h-137v-272h53v-111h-266
v111h55v272h-55zM636 554v119h198v-289q14 47 54.5 82.5t103.5 35.5q94 0 146 -68t52 -180v-1q0 -125 -56.5 -194.5t-148.5 -69.5q-128 0 -163 132q-1 -36 -7.5 -66.5t-12.5 -42.5l-6 -12h-166v111h46v443h-40zM934 95q44 0 70 37.5t26 107.5v31q0 55 -25 86.5t-71 31.5
q-44 0 -72 -34t-28 -93v-19q0 -73 27.5 -110.5t72.5 -37.5z" />
    <glyph glyph-name="f_f_h" unicode="ffh" horiz-adv-x="1216" 
d="M15 383v107h55v16q0 84 48.5 126.5t123.5 42.5q65 0 94 -25v-87q-30 3 -40 3q-37 0 -52.5 -11t-15.5 -39v-26h137v31q0 78 41 118t109 40q59 0 89 -23v-87q-1 0 -14 0.5t-16 0.5q-51 0 -51 -47v-33h102v-107h-102v-272h71v-111h-277v111h48v272h-137v-272h53v-111h-266
v111h55v272h-55zM1201 0h-261v111h58v194q0 80 -70 80q-42 0 -67.5 -33t-26.5 -93v-148h59v-111h-263v111h46v443h-40v119h198v-298q17 60 59.5 93.5t106.5 33.5q74 0 115.5 -44.5t41.5 -132.5v-214h44v-111z" />
    <glyph glyph-name="f_f_j" unicode="ffj" horiz-adv-x="866" 
d="M15 383v107h55v16q0 84 48.5 126.5t123.5 42.5q65 0 94 -25v-87q-30 3 -40 3q-37 0 -52.5 -11t-15.5 -39v-26h137v21q0 84 47.5 126.5t120.5 42.5q57 0 90 -24v-88q-15 3 -37 3q-35 0 -49 -11t-14 -39v-31h295v-478q0 -84 -43.5 -126t-114.5 -42q-72 0 -99 22v85
q18 -3 38 -3q30 0 45 11.5t15 42.5v381h-136v-272h69v-111h-275v111h48v272h-137v-272h53v-111h-266v111h55v272h-55zM737 522q-35 0 -60 25t-25 59q0 35 25 60.5t60 25.5q34 0 59 -25.5t25 -60.5q0 -34 -24.5 -59t-59.5 -25z" />
    <glyph glyph-name="f_f_k" unicode="ffk" horiz-adv-x="1159" 
d="M15 383v107h55v16q0 84 48.5 126.5t123.5 42.5q65 0 94 -25v-87q-30 3 -40 3q-37 0 -52.5 -11t-15.5 -39v-26h137v31q0 78 41 118t109 40q59 0 89 -23v-87q-1 0 -14 0.5t-16 0.5q-51 0 -51 -47v-33h102v-107h-102v-272h71v-111h-277v111h48v272h-137v-272h53v-111h-266
v111h55v272h-55zM979 0l-145 241v-130h46v-111h-250v111h46v443h-40v119h198v-410l158 227h138v-132h-80l-65 -89l100 -158h59v-111h-165z" />
    <glyph glyph-name="f_h" unicode="fh" horiz-adv-x="921" 
d="M645 0v111h58v194q0 80 -69 80q-43 0 -68.5 -33t-26.5 -93v-148h59v-111h-263v111h46v443h-40v119h198v-298q17 60 60 93.5t107 33.5q74 0 115 -45t41 -132v-214h44v-111h-261zM15 383v107h55v31q0 78 41.5 118t109.5 40q60 0 88 -23v-87q-1 0 -14 0.5t-16 0.5
q-51 0 -51 -47v-33h102v-107h-102v-272h71v-111h-284v111h55v272h-55z" />
    <glyph glyph-name="f_j" unicode="fj" horiz-adv-x="574" 
d="M15 383v107h55v21q0 84 47.5 126.5t120.5 42.5q59 0 90 -24v-88q-15 3 -37 3q-35 0 -49 -11t-14 -39v-31h298v-478q0 -84 -43 -126t-114 -42q-72 0 -99 22v85q18 -3 37 -3q31 0 46 11.5t15 42.5v381h-140v-272h71v-111h-284v111h55v272h-55zM445 522q-35 0 -59.5 25
t-24.5 59q0 35 25 60.5t59 25.5t59 -25.5t25 -60.5q0 -34 -24.5 -59t-59.5 -25z" />
    <glyph glyph-name="f_k" unicode="fk" horiz-adv-x="865" 
d="M684 0l-145 241v-130h46v-111h-250v111h46v443h-40v119h198v-410l159 227h138v-132h-81l-65 -89l101 -158h59v-111h-166zM15 383v107h55v31q0 78 41.5 118t109.5 40q60 0 88 -23v-87q-1 0 -14 0.5t-16 0.5q-51 0 -51 -47v-33h102v-107h-102v-272h71v-111h-284v111h55v272
h-55z" />
    <glyph glyph-name="f_f" unicode="ff" horiz-adv-x="655" 
d="M15 383v107h55v16q0 84 48.5 126.5t123.5 42.5q65 0 94 -25v-87q-30 3 -40 3q-37 0 -52.5 -11t-15.5 -39v-26h137v14q0 89 48.5 132.5t123.5 43.5q73 0 102 -27v-87q-20 5 -49 5q-37 0 -52 -11.5t-15 -41.5v-28h116v-107h-116v-272h71v-111h-277v111h48v272h-137v-272h53
v-111h-266v111h55v272h-55z" />
    <glyph glyph-name="f_i" unicode="fi" horiz-adv-x="590" 
d="M15 383v107h55v21q0 84 47.5 126.5t120.5 42.5q59 0 90 -24v-88q-15 3 -37 3q-35 0 -49 -11t-14 -39v-31h298v-379h49v-111h-258v111h51v272h-140v-272h54v-111h-267v111h55v272h-55zM445 522q-35 0 -59.5 25t-24.5 59q0 35 25 60.5t59 25.5t59 -25.5t25 -60.5
q0 -34 -24.5 -59t-59.5 -25z" />
    <glyph glyph-name="f_l" unicode="fl" horiz-adv-x="607" 
d="M15 383v107h55v31q0 78 41.5 118t109.5 40q60 0 88 -23v-87q-1 0 -14 0.5t-16 0.5q-51 0 -51 -47v-33h102v-107h-102v-272h67v-111h-280v111h55v272h-55zM341 554v119h201v-562h49v-111h-261v111h53v443h-42z" />
    <glyph glyph-name="f_f_i" unicode="ffi" horiz-adv-x="882" 
d="M15 383v107h55v16q0 84 48.5 126.5t123.5 42.5q65 0 94 -25v-87q-30 3 -40 3q-37 0 -52.5 -11t-15.5 -39v-26h137v21q0 84 47.5 126.5t120.5 42.5q57 0 90 -24v-88q-15 3 -37 3q-35 0 -49 -11t-14 -39v-31h295v-379h49v-111h-256v111h48v272h-136v-272h52v-111h-258v111
h48v272h-137v-272h53v-111h-266v111h55v272h-55zM737 522q-35 0 -60 25t-25 59q0 35 25 60.5t60 25.5q34 0 59 -25.5t25 -60.5q0 -34 -24.5 -59t-59.5 -25z" />
    <glyph glyph-name="f_f_l" unicode="ffl" horiz-adv-x="902" 
d="M15 383v107h55v16q0 84 48.5 126.5t123.5 42.5q65 0 94 -25v-87q-30 3 -40 3q-37 0 -52.5 -11t-15.5 -39v-26h137v31q0 78 41 118t109 40q59 0 89 -23v-87q-1 0 -14 0.5t-16 0.5q-51 0 -51 -47v-33h102v-107h-102v-272h66v-111h-272v111h48v272h-137v-272h53v-111h-266
v111h55v272h-55zM636 554v119h200v-562h50v-111h-261v111h53v443h-42z" />
    <glyph glyph-name=".notdef" horiz-adv-x="493" 
 />
    <glyph glyph-name=".null" horiz-adv-x="0" 
 />
    <glyph glyph-name="nonmarkingreturn" horiz-adv-x="333" 
 />
    <glyph glyph-name="space" unicode=" " horiz-adv-x="171" 
 />
    <glyph glyph-name="exclam" unicode="!" horiz-adv-x="258" 
d="M220 657l-45 -443h-92l-45 443h182zM128 -10q-36 0 -63 26.5t-27 63.5t27 64t63 27q38 0 65 -27t27 -64t-27 -63.5t-65 -26.5z" />
    <glyph glyph-name="quotedbl" unicode="&#x22;" horiz-adv-x="368" 
d="M149 410h-104l-19 229h142zM323 410h-105l-18 229h142z" />
    <glyph glyph-name="numbersign" unicode="#" horiz-adv-x="507" 
d="M440 639l-24 -150h65v-120h-85l-13 -82h67v-120h-86l-27 -167h-102l27 167h-69l-27 -167h-102l27 167h-65v120h84l13 82h-67v120h87l24 150h102l-24 -150h69l24 150h102zM225 369l-13 -82h69l13 82h-69z" />
    <glyph glyph-name="dollar" unicode="$" horiz-adv-x="521" 
d="M475 465h-117v72l-37 6l-22 -156q93 -19 128 -39q79 -47 79 -153q0 -103 -70.5 -156.5t-185.5 -53.5h-7l-13 -92h-70l13 98q-100 13 -148 61v130h119v-83q20 -6 43 -9l23 163q-63 13 -98 33q-81 47 -81 164q0 101 68 152t167 51h1l9 65h70l-10 -70q97 -15 139 -55v-128z
M306 230q-15 6 -28 8l-21 -152q97 6 97 80q0 27 -10.5 41t-37.5 23zM217 407q7 -4 14 -5l20 143q-81 -5 -81 -77q0 -46 47 -61z" />
    <glyph glyph-name="percent" unicode="%" horiz-adv-x="712" 
d="M139 505v-37q0 -42 11 -58.5t33 -16.5q23 0 34 16.5t11 58.5v37q0 36 -10.5 51t-34.5 15q-23 0 -33.5 -15.5t-10.5 -50.5zM691 154q0 -78 -45.5 -122.5t-117.5 -44.5q-71 0 -116.5 44.5t-45.5 122.5v8q0 74 45.5 118.5t116.5 44.5q72 0 117.5 -44t45.5 -119v-8zM484 139
q0 -41 11 -57.5t33 -16.5q24 0 34.5 16t10.5 58v38q0 36 -10.5 50.5t-34.5 14.5q-23 0 -33.5 -15t-10.5 -50v-38zM183 315q-70 0 -116 45t-46 123v8q0 74 45.5 118t116.5 44q72 0 117.5 -44t45.5 -118v-8q0 -78 -45.5 -123t-117.5 -45zM620 639l-440 -639h-88l440 639h88z
" />
    <glyph glyph-name="ampersand" unicode="&#x26;" horiz-adv-x="636" 
d="M243 -11q-106 0 -165.5 49.5t-59.5 132.5q0 123 152 184q-54 56 -54 126q0 75 54.5 123t143.5 48q88 0 137 -42.5t49 -115.5q0 -53 -33 -89t-100 -65l80 -93q23 53 38 115h125q-39 -122 -89 -201l43 -50h53v-111h-155l-41 49q-81 -60 -178 -60zM274 91q47 0 85 31
l-133 158q-47 -34 -47 -99q0 -39 24 -64.5t71 -25.5zM266 487q0 -55 54 -101q49 38 49 101q0 29 -14 46.5t-36 17.5t-37.5 -16.5t-15.5 -47.5z" />
    <glyph glyph-name="quotesingle" unicode="'" horiz-adv-x="202" 
d="M158 410h-113l-19 229h150z" />
    <glyph glyph-name="parenleft" unicode="(" horiz-adv-x="316" 
d="M181 317v-51q0 -217 125 -359v-5h-118q-23 21 -46 50.5t-49 75.5t-42.5 111t-16.5 136v33q0 88 30 169.5t61 124t63 71.5h118v-5q-53 -59 -89 -153.5t-36 -197.5z" />
    <glyph glyph-name="parenright" unicode=")" horiz-adv-x="316" 
d="M135 258v51q0 217 -125 359v5h118q23 -21 46 -50.5t49 -75.5t42.5 -111t16.5 -136v-33q0 -88 -30 -169.5t-61 -124t-63 -71.5h-118v5q53 59 89 153.5t36 197.5z" />
    <glyph glyph-name="asterisk" unicode="*" horiz-adv-x="354" 
d="M75 373l-52 88l107 30l-107 27l52 87l77 -75l-30 109h110l-29 -106l76 72l52 -87l-109 -27l109 -30l-52 -88l-77 76l30 -109h-110l31 112z" />
    <glyph glyph-name="plus" unicode="+" horiz-adv-x="463" 
d="M294 517v-142h132v-120h-132v-142h-124v142h-133v120h133v142h124z" />
    <glyph glyph-name="comma" unicode="," horiz-adv-x="259" 
d="M23 -74q41 99 41 196q0 29 -4 49h152q2 -16 2 -29q0 -66 -19.5 -116t-61.5 -100h-110z" />
    <glyph glyph-name="hyphen" unicode="-" horiz-adv-x="315" 
d="M43 205v128h229v-128h-229z" />
    <glyph glyph-name="period" unicode="." horiz-adv-x="259" 
d="M129 -10q-38 0 -65.5 27.5t-27.5 65.5q0 39 27.5 67t65.5 28t65.5 -28t27.5 -67q0 -38 -27.5 -65.5t-65.5 -27.5z" />
    <glyph glyph-name="slash" unicode="/" horiz-adv-x="363" 
d="M353 673l-234 -771h-125l234 771h125z" />
    <glyph glyph-name="zero" unicode="0" horiz-adv-x="623" 
d="M312 -15q-125 0 -206 85t-81 246v15q0 152 78.5 237t208.5 85t208 -85t78 -237v-15q0 -162 -80 -246.5t-206 -84.5zM312 103q58 0 88 41t30 141v86q0 158 -118 158q-119 0 -119 -158v-86q0 -100 30.5 -141t88.5 -41z" />
    <glyph glyph-name="one" unicode="1" horiz-adv-x="418" 
d="M43 0v111h105v393l-126 -132h-3v152l113 115h177v-528h90v-111h-356z" />
    <glyph glyph-name="two" unicode="2" horiz-adv-x="492" 
d="M21 0v154q144 83 208 147.5t64 131.5q0 90 -101 90q-86 0 -160 -51v101q68 80 200 80q103 0 165.5 -51t62.5 -161q0 -201 -345 -327v-1h226v65h126v-178h-446z" />
    <glyph glyph-name="three" unicode="3" horiz-adv-x="508" 
d="M240 653q98 0 160.5 -44t62.5 -127q0 -64 -41.5 -103.5t-125.5 -48.5v-3q188 -15 188 -155q0 -90 -67 -136t-187 -46q-146 0 -208 74v104q69 -57 184 -57q109 0 109 83q0 81 -113 81h-70v104h68q99 0 99 73q0 70 -102 70q-85 0 -153 -42v100q62 73 196 73z" />
    <glyph glyph-name="four" unicode="4" horiz-adv-x="552" 
d="M261 639h197v-354h74v-109h-74v-65h74v-111h-303v111h70v65h-278v135zM299 516l-170 -231h170v231z" />
    <glyph glyph-name="five" unicode="5" horiz-adv-x="513" 
d="M232 -10q-144 0 -202 68v101q74 -48 167 -48q118 0 118 95t-136 95q-67 0 -119 -21h-9v359h409v-179h-131v59h-157v-137q46 12 86 12q110 0 168 -51.5t58 -148.5q0 -95 -67 -149.5t-185 -54.5z" />
    <glyph glyph-name="six" unicode="6" horiz-adv-x="577" 
d="M489 639v-10q-106 -54 -182.5 -129t-102.5 -163q43 83 143 83q96 0 152 -54.5t56 -146.5v-5q0 -107 -71 -168t-189 -61q-121 0 -195.5 69t-74.5 190v20q0 68 25.5 131.5t66 110.5t78.5 79t76 54h218zM290 321q-47 0 -72 -26t-25 -73v-23q0 -49 25.5 -78.5t73.5 -29.5
q94 0 94 107v22q0 101 -96 101z" />
    <glyph glyph-name="seven" unicode="7" horiz-adv-x="500" 
d="M148 427h-131v212h460v-163l-218 -476h-167l236 512h-180v-85z" />
    <glyph glyph-name="eight" unicode="8" horiz-adv-x="553" 
d="M277 -14q-114 0 -184.5 50t-70.5 138v8q0 57 36 96.5t104 57.5q-118 37 -118 140v5q0 78 62.5 124.5t170.5 46.5q106 0 168.5 -46t62.5 -124v-6q0 -102 -118 -140q67 -17 103.5 -56.5t36.5 -96.5v-8q0 -89 -70.5 -139t-182.5 -50zM277 90q89 0 89 94v22q0 90 -89 90
q-90 0 -90 -90v-22q0 -94 90 -94zM277 376q79 0 79 79v15q0 34 -21 55t-58 21q-38 0 -58.5 -20.5t-20.5 -55.5v-15q0 -79 79 -79z" />
    <glyph glyph-name="nine" unicode="9" horiz-adv-x="577" 
d="M92 0v10q96 50 172.5 124t104.5 159q-46 -76 -147 -76q-91 0 -145.5 56t-54.5 151v4q0 104 73 165t189 61q125 0 196.5 -67t71.5 -199v-16q0 -64 -24.5 -126.5t-62.5 -110t-76.5 -81.5t-73.5 -54h-223zM286 316q47 0 72.5 25.5t25.5 72.5v26q0 49 -25.5 78.5t-73.5 29.5
q-95 0 -95 -106v-22q0 -104 96 -104z" />
    <glyph glyph-name="colon" unicode=":" horiz-adv-x="263" 
d="M131 -10q-38 0 -65.5 27.5t-27.5 65.5q0 39 27.5 67t65.5 28t65.5 -28t27.5 -67q0 -38 -27.5 -65.5t-65.5 -27.5zM131 293q-38 0 -65.5 27.5t-27.5 65.5q0 39 27.5 67t65.5 28t65.5 -28t27.5 -67q0 -38 -27.5 -65.5t-65.5 -27.5z" />
    <glyph glyph-name="semicolon" unicode=";" horiz-adv-x="273" 
d="M25 -74q41 99 41 196q0 29 -4 49h152q2 -16 2 -29q0 -66 -19.5 -116t-61.5 -100h-110zM142 293q-38 0 -65.5 27.5t-27.5 65.5q0 39 27.5 67t65.5 28t65.5 -28t27.5 -67q0 -38 -27.5 -65.5t-65.5 -27.5z" />
    <glyph glyph-name="less" unicode="&#x3c;" horiz-adv-x="472" 
d="M44 389l384 148v-122l-263 -99l263 -100v-123l-384 148v148z" />
    <glyph glyph-name="equal" unicode="=" horiz-adv-x="512" 
d="M49 267h414v-111h-414v111zM49 454h414v-112h-414v112z" />
    <glyph glyph-name="greater" unicode="&#x3e;" horiz-adv-x="472" 
d="M428 241l-384 -148v122l262 100l-262 99v123l384 -148v-148z" />
    <glyph glyph-name="question" unicode="?" horiz-adv-x="422" 
d="M243 487q0 69 -73 69q-5 0 -15 -0.5t-14 -0.5v-75h-121v125q23 26 71 44.5t113 18.5q87 0 142.5 -42.5t55.5 -124.5q0 -47 -17.5 -83t-43 -57.5t-50.5 -40t-42.5 -42t-17.5 -52.5v-12h-117v42q0 35 13.5 64t32 49t37.5 37.5t32.5 38t13.5 42.5zM272 80q0 -37 -27 -63.5
t-65 -26.5q-37 0 -64 26.5t-27 63.5t27 64t63 27q38 0 65.5 -27t27.5 -64z" />
    <glyph glyph-name="at" unicode="@" horiz-adv-x="857" 
d="M402 133q31 0 54 24.5t31 72.5l2 13q8 56 -10 81.5t-52 25.5t-57.5 -35t-23.5 -109q0 -73 56 -73zM455 652q166 0 272.5 -92.5t106.5 -247.5q0 -131 -52.5 -203t-148.5 -72q-59 0 -94.5 24t-44.5 64q-34 -91 -128 -91q-74 0 -114 48.5t-40 127.5q0 104 53 174t136 70
q47 0 75.5 -26t35.5 -70q4 23 13.5 44t16.5 31l7 10h109l-41 -252q-8 -37 -1 -57t34 -20q43 0 68 51t25 146q0 132 -79 193.5t-212 61.5q-149 0 -240.5 -95t-91.5 -251q0 -145 80.5 -221.5t235.5 -76.5t259 74v-79q-37 -31 -105.5 -53.5t-155.5 -22.5q-184 0 -296.5 100.5
t-112.5 275.5q0 131 60.5 232t157.5 152t212 51z" />
    <glyph glyph-name="A" unicode="A" horiz-adv-x="669" 
d="M16 0v111h38l167 528h233l162 -528h37v-111h-280v111h72l-22 73h-209l-21 -73h68v-111h-245zM319 543l-74 -252h147z" />
    <glyph glyph-name="B" unicode="B" horiz-adv-x="592" 
d="M19 520v119h291q235 0 235 -168q0 -69 -39 -104.5t-120 -44.5v-3q93 -6 138.5 -40t45.5 -101q0 -87 -59.5 -132.5t-204.5 -45.5h-287v111h51v409h-51zM227 109h74q65 0 87.5 18.5t22.5 59.5t-25.5 59.5t-86.5 18.5h-72v-156zM227 364h72q92 0 92 79q0 76 -85 76h-79v-155
z" />
    <glyph glyph-name="C" unicode="C" horiz-adv-x="589" 
d="M409 430v94q-35 5 -66 5q-150 0 -150 -179v-42q0 -205 161 -205q34 0 67 6v94h134v-143q-26 -30 -82 -52.5t-132 -22.5q-148 0 -233.5 89t-85.5 250v2q0 150 82.5 238.5t225.5 88.5q77 0 134.5 -21t85.5 -49v-153h-141z" />
    <glyph glyph-name="D" unicode="D" horiz-adv-x="651" 
d="M19 520v119h306q143 0 223 -79.5t80 -234.5v-2q0 -167 -85 -245t-236 -78h-288v111h51v409h-51zM231 115h65q90 0 127 46t37 141v52q0 80 -32 118t-112 38h-85v-395z" />
    <glyph glyph-name="E" unicode="E" horiz-adv-x="559" 
d="M397 430v83h-166v-143h209v-115h-209v-145h172v89h132v-199h-516v111h51v409h-51v119h510v-209h-132z" />
    <glyph glyph-name="F" unicode="F" horiz-adv-x="547" 
d="M393 432v78h-162v-159h229v-122h-229v-118h85v-111h-297v111h51v409h-51v119h508v-207h-134z" />
    <glyph glyph-name="G" unicode="G" horiz-adv-x="622" 
d="M325 230v120h258v-278q-35 -36 -99.5 -61.5t-147.5 -25.5q-144 0 -229 88.5t-85 249.5v2q0 149 88.5 238.5t236.5 89.5q149 0 216 -63v-160h-140v93q-32 6 -67 6q-77 0 -121 -48t-44 -139v-30q0 -110 40.5 -158.5t119.5 -48.5q37 0 77 8v117h-103z" />
    <glyph glyph-name="H" unicode="H" horiz-adv-x="687" 
d="M389 0v111h67v151h-225v-151h67v-111h-279v111h51v409h-51v119h279v-119h-67v-133h225v133h-67v119h279v-119h-51v-409h51v-111h-279z" />
    <glyph glyph-name="I" unicode="I" horiz-adv-x="310" 
d="M19 520v119h272v-119h-55v-409h55v-111h-272v111h55v409h-55z" />
    <glyph glyph-name="J" unicode="J" horiz-adv-x="405" 
d="M112 520v119h274v-119h-46v-327q0 -96 -49.5 -150.5t-147.5 -54.5q-87 0 -126 35v106q41 -15 86 -15q75 0 75 79v327h-66z" />
    <glyph glyph-name="K" unicode="K" horiz-adv-x="639" 
d="M338 0v111h56l-163 193v-193h59v-111h-271v111h51v409h-51v119h271v-119h-59v-186l190 186h-83v119h280v-119h-45l-185 -180l195 -229h39v-111h-284z" />
    <glyph glyph-name="L" unicode="L" horiz-adv-x="539" 
d="M19 520v119h290v-119h-77v-397h154v90h134v-213h-501v111h52v409h-52z" />
    <glyph glyph-name="M" unicode="M" horiz-adv-x="839" 
d="M550 0v111h61v399l-136 -510h-146l-134 501v-390h60v-111h-236v111h51v409h-51v119h285l116 -443l117 443h283v-119h-50v-409h50v-111h-270z" />
    <glyph glyph-name="N" unicode="N" horiz-adv-x="697" 
d="M431 520v119h248v-119h-50v-520h-206l-223 488v-377h81v-111h-262v111h51v409h-51v119h281l199 -449v330h-68z" />
    <glyph glyph-name="O" unicode="O" horiz-adv-x="676" 
d="M338 103q148 0 148 200v47q0 86 -37 132.5t-111 46.5q-147 0 -147 -179v-47q0 -200 147 -200zM338 -15q-137 0 -226.5 87.5t-89.5 248.5v2q0 150 85.5 240t230.5 90t230.5 -90t85.5 -240v-2q0 -161 -89 -248.5t-227 -87.5z" />
    <glyph glyph-name="P" unicode="P" horiz-adv-x="586" 
d="M19 520v119h301q247 0 247 -215q0 -216 -251 -216h-85v-97h85v-111h-297v111h51v409h-51zM231 321h68q60 0 85 24t25 75q0 50 -23.5 73t-77.5 23h-77v-195z" />
    <glyph glyph-name="Q" unicode="Q" horiz-adv-x="677" 
d="M338 -15q-137 0 -226.5 87.5t-89.5 248.5v2q0 150 85.5 240t230.5 90t230.5 -90t85.5 -240v-2q0 -167 -98 -258l21 -30h80v-111h-156v2l-4 -2l-55 78q-48 -15 -104 -15zM338 102q21 0 31 2l-71 101h157l14 -20q17 46 17 118v47q0 86 -37 132.5t-111 46.5
q-147 0 -147 -179v-47q0 -201 147 -201z" />
    <glyph glyph-name="R" unicode="R" horiz-adv-x="611" 
d="M416 0l-185 277v-166h57v-111h-269v111h51v409h-51v119h305q120 0 183.5 -48.5t63.5 -142.5q0 -72 -39.5 -118t-115.5 -61l109 -158h70v-111h-179zM231 337h76q55 0 78 21.5t23 69.5t-23 68t-73 20h-81v-179z" />
    <glyph glyph-name="S" unicode="S" horiz-adv-x="533" 
d="M340 451v78q-44 6 -65 6q-98 0 -98 -68q0 -41 44 -56q14 -5 95 -22.5t115 -37.5q79 -47 79 -156q0 -104 -67.5 -157t-182.5 -53q-81 0 -142.5 19t-91.5 49v142h137v-89q47 -9 82 -9q106 0 106 76q0 40 -49 56q-12 5 -84.5 21.5t-107.5 36.5q-80 44 -80 163q0 101 68 152
t166 51q72 0 128 -17t84 -45v-140h-136z" />
    <glyph glyph-name="T" unicode="T" horiz-adv-x="614" 
d="M466 414v103h-78v-406h65v-111h-292v111h65v406h-78v-103h-128v225h574v-225h-128z" />
    <glyph glyph-name="U" unicode="U" horiz-adv-x="687" 
d="M395 520v119h274v-119h-45v-245q0 -152 -70 -221t-210 -69t-210.5 69.5t-70.5 221.5v244h-45v119h274v-119h-67v-269q0 -73 26 -107.5t93 -34.5q66 0 92.5 34.5t26.5 106.5v270h-68z" />
    <glyph glyph-name="V" unicode="V" horiz-adv-x="677" 
d="M411 520v119h250v-119h-41l-166 -520h-236l-163 520h-39v119h279v-119h-70l127 -433l129 433h-70z" />
    <glyph glyph-name="W" unicode="W" horiz-adv-x="921" 
d="M563 0l-103 440l-96 -440h-199l-115 520h-34v119h274v-119h-73l68 -362l110 481h167l112 -481l69 362h-74v119h236v-119h-34l-114 -520h-194z" />
    <glyph glyph-name="X" unicode="X" horiz-adv-x="658" 
d="M343 0v111h64l-101 148l-102 -148h66v-111h-253v111h43l149 214l-136 195h-42v119h289v-119h-59l89 -131l91 131h-59v119h243v-119h-40l-137 -191l149 -218h43v-111h-297z" />
    <glyph glyph-name="Y" unicode="Y" horiz-adv-x="604" 
d="M16 520v119h273v-119h-60l95 -173l93 173h-58v119h230v-119h-40l-163 -293v-116h66v-111h-293v111h66v111l-170 298h-39z" />
    <glyph glyph-name="Z" unicode="Z" horiz-adv-x="560" 
d="M43 430v209h492v-151l-351 -379h218v90h134v-199h-514v143l342 376h-187v-89h-134z" />
    <glyph glyph-name="bracketleft" unicode="[" horiz-adv-x="360" 
d="M58 -98v771h281v-108h-142v-559h142v-104h-281z" />
    <glyph glyph-name="backslash" unicode="\" horiz-adv-x="363" 
d="M10 673h125l234 -771h-125z" />
    <glyph glyph-name="bracketright" unicode="]" horiz-adv-x="360" 
d="M301 -98h-281v104h143v559h-143v108h281v-771z" />
    <glyph glyph-name="asciicircum" unicode="^" horiz-adv-x="437" 
d="M409 414h-111l-79 123l-80 -123h-111l102 225h177z" />
    <glyph glyph-name="underscore" unicode="_" horiz-adv-x="367" 
d="M-8 -142v95h383v-95h-383z" />
    <glyph glyph-name="grave" unicode="`" horiz-adv-x="400" 
d="M165 539l-126 148h179l44 -148h-97z" />
    <glyph glyph-name="a" unicode="a" horiz-adv-x="519" 
d="M47 316v115q66 71 199 71q112 0 162 -53t50 -155v-158q0 -34 31 -34q6 0 16 2v-93q-26 -20 -80 -20t-85 24.5t-36 68.5q-32 -97 -146 -97q-63 0 -101.5 34.5t-38.5 93.5v1q0 30 10.5 53.5t25.5 38t43 27t50 18.5t59 15q52 13 73 25t21 34v3q0 66 -84 66q-22 0 -41 -3v-77
h-128zM231 74q30 0 49.5 26t19.5 73v71q-17 -17 -57 -38q-35 -15 -50 -30.5t-15 -42.5v-5q0 -25 14 -39.5t39 -14.5z" />
    <glyph glyph-name="b" unicode="b" horiz-adv-x="597" 
d="M15 554v119h205v-289q13 47 54 82.5t104 35.5q93 0 145.5 -68.5t52.5 -179.5v-1q0 -125 -56.5 -194.5t-148.5 -69.5q-127 0 -164 132q-1 -36 -7.5 -66.5t-12.5 -42.5l-6 -12h-166v111h46v443h-46zM320 95q44 0 70 37.5t26 107.5v31q0 55 -25 86.5t-71 31.5q-44 0 -72 -34
t-28 -93v-19q0 -73 27.5 -110.5t72.5 -37.5z" />
    <glyph glyph-name="c" unicode="c" horiz-adv-x="469" 
d="M311 317v75q-5 0 -15 0.5t-15 0.5q-103 0 -103 -126v-24q0 -74 31 -105.5t96 -31.5q67 0 137 35v-91q-20 -26 -64.5 -44t-108.5 -18q-113 0 -181.5 68t-68.5 190v1q0 121 72.5 188t173.5 67q127 0 173 -50v-135h-127z" />
    <glyph glyph-name="d" unicode="d" horiz-adv-x="597" 
d="M409 0q-25 49 -27 112q-42 -123 -165 -123q-92 0 -144 70.5t-52 185.5v1q0 121 57 188t148 67q62 0 99 -32t52 -80v165h-64v119h223v-562h45v-111h-172zM277 98q44 0 72 37.5t28 98.5v18q0 70 -27 105t-73 35q-44 0 -70 -33t-26 -93v-33q0 -63 25 -99t71 -36z" />
    <glyph glyph-name="e" unicode="e" horiz-adv-x="504" 
d="M277 -11q-124 0 -191 65.5t-67 190.5v1q0 119 69 187.5t176 68.5q106 0 163.5 -57t57.5 -150q0 -43 -16 -81h-290q4 -61 38 -83.5t104 -22.5q82 0 140 29v-84q-18 -26 -67.5 -45t-116.5 -19zM267 403q-84 0 -88 -118h164v10q0 108 -76 108z" />
    <glyph glyph-name="f" unicode="f" horiz-adv-x="361" 
d="M15 383v107h55v14q0 89 48.5 132.5t123.5 43.5q73 0 103 -27v-87q-22 5 -49 5q-37 0 -52.5 -11.5t-15.5 -41.5v-28h117v-107h-117v-272h71v-111h-284v111h55v272h-55z" />
    <glyph glyph-name="g" unicode="g" horiz-adv-x="596" 
d="M254 -155q-144 0 -197 59v112q69 -52 168 -52q151 0 151 131v35q-34 -93 -157 -93q-96 0 -147.5 60t-51.5 168v1q0 107 57 171t148 64q65 0 102.5 -26t61.5 -82q4 24 12.5 48t14.5 37l6 12h159v-132h-46v-250q0 -263 -281 -263zM276 129q45 0 72.5 34.5t27.5 95.5v11
q0 57 -27.5 89.5t-71.5 32.5t-70.5 -31.5t-26.5 -84.5v-18q0 -62 25 -95.5t71 -33.5z" />
    <glyph glyph-name="h" unicode="h" horiz-adv-x="602" 
d="M326 0v111h57v194q0 80 -69 80q-43 0 -68.5 -33t-25.5 -93v-148h59v-111h-264v111h46v443h-46v119h205v-298q17 60 59.5 93.5t106.5 33.5q74 0 115 -45t41 -132v-214h45v-111h-261z" />
    <glyph glyph-name="i" unicode="i" horiz-adv-x="287" 
d="M15 358v132h208v-379h49v-111h-257v111h50v247h-50zM142 522q-34 0 -59 25t-25 59q0 35 25 60.5t59 25.5t59 -25.5t25 -60.5q0 -34 -25 -59t-59 -25z" />
    <glyph glyph-name="j" unicode="j" horiz-adv-x="271" 
d="M15 358v132h208v-478q0 -84 -43 -126t-114 -42q-72 0 -99 22v85q18 -3 37 -3q31 0 46 11.5t15 42.5v356h-50zM142 522q-34 0 -59 25t-25 59q0 35 25 60.5t59 25.5t59 -25.5t25 -60.5q0 -34 -25 -59t-59 -25z" />
    <glyph glyph-name="k" unicode="k" horiz-adv-x="545" 
d="M365 0l-145 241v-130h45v-111h-250v111h46v443h-46v119h205v-410l158 227h138v-132h-81l-65 -89l101 -158h59v-111h-165z" />
    <glyph glyph-name="l" unicode="l" horiz-adv-x="289" 
d="M15 554v119h209v-562h49v-111h-258v111h50v443h-50z" />
    <glyph glyph-name="m" unicode="m" horiz-adv-x="889" 
d="M314 0v111h52v194q0 41 -14 60.5t-46 19.5q-40 0 -63 -32.5t-23 -93.5v-148h53v-111h-258v111h46v247h-46v132h174q27 -49 27 -113v-6q18 60 59.5 95.5t101.5 35.5q120 0 135 -135q21 65 65.5 100t104.5 35q68 0 108 -45t40 -132v-214h44v-111h-257v111h54v194
q0 41 -14 60.5t-46 19.5q-41 0 -63.5 -32.5t-22.5 -93.5v-148h52v-111h-263z" />
    <glyph glyph-name="n" unicode="n" horiz-adv-x="602" 
d="M326 0v111h57v194q0 80 -69 80q-43 0 -68.5 -33t-25.5 -93v-148h59v-111h-264v111h46v247h-46v132h174q27 -49 27 -113v-8q17 62 60.5 97.5t109.5 35.5q74 0 115 -45t41 -132v-214h45v-111h-261z" />
    <glyph glyph-name="o" unicode="o" horiz-adv-x="549" 
d="M274 90q96 0 96 145v36q0 62 -26 94.5t-70 32.5t-69.5 -32t-25.5 -95v-36q0 -145 95 -145zM274 -11q-108 0 -181.5 65t-73.5 196v2q0 117 71 183.5t184 66.5t184.5 -66.5t71.5 -182.5v-2q0 -68 -21 -119.5t-57.5 -82t-81.5 -45.5t-96 -15z" />
    <glyph glyph-name="p" unicode="p" horiz-adv-x="597" 
d="M15 358v132h174q27 -53 27 -117v-5q11 56 54 95t108 39q93 0 145.5 -68.5t52.5 -179.5v-1q0 -125 -56.5 -194.5t-148.5 -69.5q-61 0 -99.5 30t-51.5 82v-145h59v-102h-264v102h46v402h-46zM321 96q95 0 95 145v31q0 54 -25 85.5t-70 31.5t-73 -33.5t-28 -92.5v-18
q0 -76 27.5 -112.5t73.5 -36.5z" />
    <glyph glyph-name="q" unicode="q" horiz-adv-x="597" 
d="M318 -146v102h59v147q-14 -49 -54 -81.5t-106 -32.5q-91 0 -143.5 71.5t-52.5 185.5v1q0 121 56.5 187.5t147.5 66.5q65 0 102.5 -27.5t62.5 -84.5q4 25 12 50t14 38l7 13h158v-132h-45v-402h45v-102h-263zM277 98q44 0 72 38t28 98v18q0 70 -27 105t-73 35
q-44 0 -70 -32.5t-26 -92.5v-33q0 -63 25 -99.5t71 -36.5z" />
    <glyph glyph-name="r" unicode="r" horiz-adv-x="417" 
d="M15 358v132h174q27 -56 27 -133v-23q29 163 134 163q33 0 47 -26v-127q-90 4 -133.5 -29t-43.5 -121v-83h71v-111h-276v111h46v247h-46z" />
    <glyph glyph-name="s" unicode="s" horiz-adv-x="436" 
d="M274 348v54q-26 3 -51 3q-73 0 -73 -48q0 -29 30 -36q6 -2 75 -12t97 -27q65 -36 65 -122q0 -85 -55.5 -129.5t-155.5 -44.5q-126 0 -187 52v108h124v-56q24 -4 56 -4q81 0 81 49q0 26 -33 37q-7 2 -67.5 11.5t-90.5 25.5q-67 36 -67 126q0 87 57 127t146 40
q57 0 103 -13t68 -32v-109h-122z" />
    <glyph glyph-name="t" unicode="t" horiz-adv-x="396" 
d="M240 -13q-70 0 -117 37t-47 120v237h-61v88q59 6 84 39t44 111h91v-129h138v-109h-138v-200q0 -42 18.5 -60t60.5 -18q31 0 59 11v-76q-35 -51 -132 -51z" />
    <glyph glyph-name="u" unicode="u" horiz-adv-x="598" 
d="M313 358v132h224v-379h46v-111h-174q-24 54 -24 110v5q-18 -60 -59.5 -93.5t-103.5 -33.5q-162 0 -162 183v187h-45v132h203v-306q0 -87 69 -87q43 0 67.5 34t24.5 99v128h-66z" />
    <glyph glyph-name="v" unicode="v" horiz-adv-x="565" 
d="M322 358v132h230v-132h-45l-128 -358h-190l-132 358h-44v132h262v-132h-56l84 -254l79 254h-60z" />
    <glyph glyph-name="w" unicode="w" horiz-adv-x="783" 
d="M466 0l-69 328l-69 -328h-191l-81 358h-43v132h247v-125h-55l49 -255l78 380h155l85 -380l44 255h-57v125h211v-132h-42l-77 -358h-185z" />
    <glyph glyph-name="x" unicode="x" horiz-adv-x="559" 
d="M270 0v101h69l-89 96l-90 -96h70v-101h-214v111h32l117 124l-104 123h-46v132h271v-122h-52l76 -91l72 91h-55v122h216v-132h-50l-100 -120l117 -127h33v-111h-273z" />
    <glyph glyph-name="y" unicode="y" horiz-adv-x="564" 
d="M322 358v132h229v-132h-47l-130 -352q-28 -84 -74 -123t-121 -39q-73 0 -117 37v92q42 -14 87 -14q75 0 96 50l4 11h-58l-131 338h-47v132h263v-132h-60l86 -236l79 236h-59z" />
    <glyph glyph-name="z" unicode="z" horiz-adv-x="475" 
d="M33 329v161h417v-144l-297 -255h178v80h124v-171h-435v144l287 247h-153v-62h-121z" />
    <glyph glyph-name="braceleft" unicode="{" horiz-adv-x="327" 
d="M103 291v-3q75 -8 108.5 -41t33.5 -78q0 -27 -10 -72.5t-10 -67.5q0 -42 14.5 -66t51.5 -56v-5h-115q-42 11 -70 42t-28 78q0 33 18 83t18 68q0 49 -92 56v121q92 7 92 56q0 18 -18 66t-18 81q0 47 28 77.5t70 42.5h115v-5q-37 -32 -51.5 -56t-14.5 -66q0 -22 10 -66
t10 -72q0 -44 -33 -76.5t-109 -40.5z" />
    <glyph glyph-name="bar" unicode="|" horiz-adv-x="243" 
d="M184 673v-771h-118v771h118z" />
    <glyph glyph-name="braceright" unicode="}" horiz-adv-x="327" 
d="M224 288v3q-76 8 -109 40.5t-33 76.5q0 28 10 72t10 66q0 42 -14.5 66t-51.5 56v5h115q42 -12 70 -42.5t28 -77.5q0 -33 -18 -81t-18 -66q0 -49 92 -56v-121q-92 -7 -92 -56q0 -18 18 -68t18 -83q0 -47 -28 -78t-70 -42h-115v5q37 32 51.5 56t14.5 66q0 22 -10 67.5
t-10 72.5q0 45 33.5 78t108.5 41z" />
    <glyph glyph-name="asciitilde" unicode="~" horiz-adv-x="371" 
d="M45 199q-23 61 -0.5 111t78.5 50q32 0 68 -19t45 -19q14 0 19 8.5t7 31.5h63q23 -62 1.5 -111.5t-76.5 -49.5q-31 0 -67.5 19t-47.5 19q-24 0 -27 -40h-63z" />
    <glyph glyph-name="uni00A0" unicode="&#xa0;" horiz-adv-x="171" 
 />
    <glyph glyph-name="exclamdown" unicode="&#xa1;" horiz-adv-x="258" 
d="M38 -161l45 443h92l45 -443h-182zM130 506q36 0 63 -26.5t27 -63.5t-27 -64t-63 -27q-38 0 -65 27t-27 64t27 63.5t65 26.5z" />
    <glyph glyph-name="cent" unicode="&#xa2;" horiz-adv-x="478" 
d="M354 327v67l-25 3l-42 -300h19q69 0 148 38v-81q-19 -27 -66.5 -46.5t-114.5 -19.5h-2l-13 -95h-67l14 103q-85 18 -135.5 83.5t-50.5 166.5v1q0 120 74.5 187.5t175.5 67.5h7l10 72h68l-11 -77q76 -12 107 -46v-124h-96zM170 243q0 -101 52 -130l39 282
q-91 -14 -91 -127v-25z" />
    <glyph glyph-name="sterling" unicode="&#xa3;" horiz-adv-x="524" 
d="M28 265v97h56v72q0 99 60 159t165 60q68 0 117 -18t69 -46v-145h-128v89q-24 2 -37 2q-89 0 -89 -109v-64h153v-97h-154q-6 -53 -36.5 -86t-86.5 -55v-1h246v59h133v-182h-474v161q31 16 46 38.5t16 65.5h-56z" />
    <glyph glyph-name="yen" unicode="&#xa5;" horiz-adv-x="558" 
d="M495 341v-68h-139v-43h139v-68h-139v-51h69v-111h-292v111h69v51h-138v68h138v43h-138v68h102l-114 180h-36v118h252v-118h-47l74 -129l73 129h-47v118h222v-118h-37l-115 -180h104z" />
    <glyph glyph-name="brokenbar" unicode="&#xa6;" horiz-adv-x="250" 
d="M66 257h118v-355h-118v355zM184 673v-339h-118v339h118z" />
    <glyph glyph-name="section" unicode="&#xa7;" horiz-adv-x="518" 
d="M435 605v-104h-121v51q-28 2 -43 2q-73 0 -73 -43q0 -26 31 -37q6 -2 89 -19.5t116 -35.5q60 -33 60 -99q0 -51 -30.5 -82.5t-87.5 -38.5q76 -35 76 -113q0 -80 -52 -122.5t-143 -42.5q-137 0 -195 52v106h124v-52q15 -2 47 -2q41 0 57.5 11t16.5 34q0 20 -36 32
q-11 3 -48.5 10t-75.5 17.5t-63 24.5q-60 33 -60 103q0 52 30.5 79.5t87.5 38.5q-76 31 -76 119q0 76 54 117t141 41q125 0 174 -47zM305 238q57 0 57 41q0 27 -38 38q-85 22 -124 22q-25 0 -40 -11t-15 -29q0 -26 32 -37q20 -8 59.5 -16t68.5 -8z" />
    <glyph glyph-name="dieresis" unicode="&#xa8;" horiz-adv-x="394" 
d="M96 529q-33 0 -56.5 22.5t-23.5 54.5t23.5 55t56.5 23q32 0 56 -23t24 -55q0 -31 -24 -54t-56 -23zM298 529q-32 0 -56 23t-24 54q0 32 24 55t56 23q33 0 56.5 -23t23.5 -55t-23.5 -54.5t-56.5 -22.5z" />
    <glyph glyph-name="copyright" unicode="&#xa9;" horiz-adv-x="734" 
d="M367 -14q-141 0 -238 97t-97 234q0 138 97 236t238 98q143 0 239 -97.5t96 -236.5q0 -138 -96 -234.5t-239 -96.5zM367 41q116 0 195 81t79 195q0 115 -79 197t-195 82q-115 0 -194.5 -82.5t-79.5 -196.5t79.5 -195t194.5 -81zM381 142q-82 0 -130 48t-48 135v2
q0 80 47 128.5t124 48.5q79 0 117 -36v-91h-86v44q-6 1 -17 1q-67 0 -67 -77v-33q0 -93 71 -93h20v41h83v-80q-36 -38 -114 -38z" />
    <glyph glyph-name="ordfeminine" unicode="&#xaa;" horiz-adv-x="392" 
d="M38 512v84q49 52 149 52q84 0 121 -38.5t37 -113.5v-109q0 -23 22 -23q3 0 6.5 0.5t4.5 0.5v-71q-20 -15 -62 -15q-41 0 -64 18.5t-27 48.5q-24 -68 -106 -68q-46 0 -74 24.5t-28 66.5v1q0 27 10 46t31.5 31t41.5 18.5t53 13.5q38 10 53 18t15 23v2q0 45 -58 45
q-11 0 -27 -2v-53h-98zM177 345q20 0 32 17t12 49v51q-11 -12 -37 -26q-22 -11 -31.5 -21.5t-9.5 -29.5v-4q0 -17 9 -26.5t25 -9.5z" />
    <glyph glyph-name="guillemotleft" unicode="&#xab;" horiz-adv-x="381" 
d="M100 408h114l-89 -165l89 -167h-114l-85 166zM366 408l-89 -165l89 -167h-114l-85 166l85 166h114z" />
    <glyph glyph-name="registered" unicode="&#xae;" horiz-adv-x="373" 
d="M187 324q-69 0 -117 47.5t-48 114.5t48 114.5t117 47.5q70 0 117 -47.5t47 -114.5q0 -68 -47 -115t-117 -47zM187 360q55 0 89.5 36t34.5 90t-35 91t-89 37t-89.5 -37.5t-35.5 -90.5q0 -54 35.5 -90t89.5 -36zM210 411l-36 60v-60h-50v158h70q64 0 64 -49q0 -36 -33 -46
l40 -63h-55zM174 496h11q13 0 18 4.5t5 15.5q0 18 -21 18h-13v-38z" />
    <glyph glyph-name="macron" unicode="&#xaf;" horiz-adv-x="400" 
d="M65 550v94h271v-94h-271z" />
    <glyph glyph-name="degree" unicode="&#xb0;" horiz-adv-x="359" 
d="M25 496q0 64 44 108.5t109 44.5q66 0 111 -44.5t45 -108.5q0 -63 -45 -108t-111 -45q-65 0 -109 44.5t-44 108.5zM110 496q0 -35 19 -56t49 -21q32 0 51 21t19 56q0 33 -19.5 55t-50.5 22q-29 0 -48.5 -22t-19.5 -55z" />
    <glyph glyph-name="plusminus" unicode="&#xb1;" horiz-adv-x="476" 
d="M294 531v-120h132v-120h-132v-120h-124v120h-133v120h133v120h124zM37 0v120h389v-120h-389z" />
    <glyph glyph-name="acute" unicode="&#xb4;" horiz-adv-x="400" 
d="M140 539l47 148h178l-133 -148h-92z" />
    <glyph glyph-name="paragraph" unicode="&#xb6;" horiz-adv-x="541" 
d="M318 -98h-105v370h-5q-88 0 -136 48.5t-48 137.5q0 85 47 133t130 48h321v-119h-50v-618h-105v618h-49v-618z" />
    <glyph glyph-name="periodcentered" unicode="&#xb7;" horiz-adv-x="259" 
d="M129 226q-38 0 -65.5 27.5t-27.5 65.5q0 39 27.5 67t65.5 28t65.5 -28t27.5 -67q0 -38 -27.5 -65.5t-65.5 -27.5z" />
    <glyph glyph-name="cedilla" unicode="&#xb8;" horiz-adv-x="400" 
d="M143 0h69v-37q88 -6 88 -73q0 -38 -28 -57.5t-75 -19.5q-55 0 -78 21v48q23 -9 49 -9q37 0 37 22q0 24 -62 25v80z" />
    <glyph glyph-name="ordmasculine" unicode="&#xba;" horiz-adv-x="414" 
d="M206 355q64 0 64 100v26q0 44 -17 66t-47 22q-29 0 -46 -22t-17 -66v-26q0 -100 63 -100zM206 279q-80 0 -134 46t-54 141v2q0 85 52.5 132.5t135.5 47.5q84 0 137 -47.5t53 -131.5v-2q0 -95 -54.5 -141.5t-135.5 -46.5z" />
    <glyph glyph-name="guillemotright" unicode="&#xbb;" horiz-adv-x="381" 
d="M281 76h-114l89 166l-89 166h114l85 -165zM15 76l89 166l-89 166h114l85 -165l-85 -167h-114z" />
    <glyph glyph-name="onequarter" unicode="&#xbc;" horiz-adv-x="784" 
d="M588 386h137v-205h43v-71h-43v-37h43v-73h-200v73h43v37h-177v87zM34 264v77h61v215l-76 -74h-2v103l70 65h127v-309h53v-77h-233zM694 639l-494 -639h-96l494 639h96zM611 302l-98 -121h98v121z" />
    <glyph glyph-name="onehalf" unicode="&#xbd;" horiz-adv-x="808" 
d="M498 0v116q92 46 127.5 74.5t35.5 63.5q0 48 -59 48q-51 0 -97 -29v70q45 51 132 51q68 0 108 -30.5t40 -95.5q0 -117 -225 -182v-1h139v30h89v-115h-290zM34 264v77h61v215l-76 -74h-2v103l70 65h127v-309h53v-77h-233zM691 639l-494 -639h-96l494 639h96z" />
    <glyph glyph-name="threequarters" unicode="&#xbe;" horiz-adv-x="795" 
d="M598 386h137v-205h43v-71h-43v-37h43v-73h-200v73h43v37h-177v87zM160 658q65 0 105.5 -25t40.5 -77q0 -82 -112 -94v-2q125 -7 125 -94q0 -54 -44 -81t-124 -27q-95 0 -134 45v70q44 -32 114 -32q63 0 63 43q0 41 -65 41h-40v70h39q56 0 56 37q0 35 -59 35
q-50 0 -92 -22v67q39 46 127 46zM705 639l-494 -639h-96l494 639h96zM621 302l-98 -121h98v121z" />
    <glyph glyph-name="questiondown" unicode="&#xbf;" horiz-adv-x="422" 
d="M179 9q0 -69 73 -69q5 0 14.5 0.5t14.5 0.5v75h121v-125q-23 -26 -71 -44.5t-113 -18.5q-87 0 -142.5 42.5t-55.5 124.5q0 47 17.5 83t43 57.5t50.5 40t42.5 42t17.5 52.5v12h117v-42q0 -35 -13.5 -64t-32 -49t-37.5 -37.5t-32.5 -38t-13.5 -42.5zM150 416q0 37 27 63.5
t65 26.5q37 0 64 -26.5t27 -63.5t-27 -64t-63 -27q-38 0 -65.5 27t-27.5 64z" />
    <glyph glyph-name="Agrave" unicode="&#xc0;" horiz-adv-x="669" 
d="M16 0v111h38l167 528h233l162 -528h37v-111h-280v111h72l-22 73h-209l-21 -73h68v-111h-245zM319 543l-74 -252h147zM295 682l-119 118h185l33 -118h-99z" />
    <glyph glyph-name="Aacute" unicode="&#xc1;" horiz-adv-x="669" 
d="M16 0v111h38l167 528h233l162 -528h37v-111h-280v111h72l-22 73h-209l-21 -73h68v-111h-245zM319 543l-74 -252h147zM280 682l33 118h185l-119 -118h-99z" />
    <glyph glyph-name="Acircumflex" unicode="&#xc2;" horiz-adv-x="669" 
d="M16 0v111h38l167 528h233l162 -528h37v-111h-280v111h72l-22 73h-209l-21 -73h68v-111h-245zM496 682h-97l-62 44l-62 -44h-97l79 118h160zM319 543l-74 -252h147z" />
    <glyph glyph-name="Atilde" unicode="&#xc3;" horiz-adv-x="669" 
d="M16 0v111h38l167 528h233l162 -528h37v-111h-280v111h72l-22 73h-209l-21 -73h68v-111h-245zM190 677q-18 55 4 99t75 44q33 0 75.5 -16.5t52.5 -16.5q14 0 19.5 8t7.5 29h62q18 -55 -3.5 -99t-72.5 -44q-32 0 -75.5 16.5t-55.5 16.5q-14 0 -19.5 -8t-7.5 -29h-62z
M319 543l-74 -252h147z" />
    <glyph glyph-name="Adieresis" unicode="&#xc4;" horiz-adv-x="669" 
d="M16 0v111h38l167 528h233l162 -528h37v-111h-280v111h72l-22 73h-209l-21 -73h68v-111h-245zM443 666q-33 0 -56.5 22.5t-23.5 54.5t23.5 55t56.5 23q32 0 56 -23t24 -55q0 -31 -24 -54t-56 -23zM232 666q-32 0 -56 23t-24 54q0 32 24 55t56 23q33 0 56.5 -23t23.5 -55
t-23.5 -54.5t-56.5 -22.5zM319 543l-74 -252h147z" />
    <glyph glyph-name="Aring" unicode="&#xc5;" horiz-adv-x="669" 
d="M16 0v111h38l167 528h233l162 -528h37v-111h-280v111h72l-22 73h-209l-21 -73h68v-111h-245zM336 658q-46 0 -77 31t-31 76t31.5 76.5t76.5 31.5q46 0 77.5 -31.5t31.5 -76.5q0 -44 -31.5 -75.5t-77.5 -31.5zM319 543l-74 -252h147zM336 721q18 0 30.5 12t12.5 32
t-12.5 32.5t-30.5 12.5t-29.5 -12.5t-11.5 -32.5t11.5 -32t29.5 -12z" />
    <glyph glyph-name="AE" unicode="&#xc6;" horiz-adv-x="869" 
d="M707 430v82h-149v-142h192v-115h-192v-145h155v89h132v-199h-498v111h50v71h-180l-26 -71h65v-111h-240v111h35l156 409h-60v119h692v-209h-132zM346 526l-88 -235h139v235h-51z" />
    <glyph glyph-name="Ccedilla" unicode="&#xc7;" horiz-adv-x="589" 
d="M341 -15h-9v-22q88 -6 88 -73q0 -38 -28 -57.5t-75 -19.5q-55 0 -78 21v48q23 -9 49 -9q37 0 37 22q0 24 -62 25v72q-114 22 -177.5 107.5t-63.5 224.5v2q0 150 82.5 238.5t225.5 88.5q77 0 134.5 -21t85.5 -49v-153h-141v94q-35 5 -66 5q-150 0 -150 -179v-42
q0 -205 161 -205q34 0 67 6v94h134v-143q-26 -30 -82 -52.5t-132 -22.5z" />
    <glyph glyph-name="Egrave" unicode="&#xc8;" horiz-adv-x="559" 
d="M397 430v83h-166v-143h209v-115h-209v-145h172v89h132v-199h-516v111h51v409h-51v119h510v-209h-132zM249 682l-119 118h185l33 -118h-99z" />
    <glyph glyph-name="Eacute" unicode="&#xc9;" horiz-adv-x="559" 
d="M397 430v83h-166v-143h209v-115h-209v-145h172v89h132v-199h-516v111h51v409h-51v119h510v-209h-132zM231 682l33 118h185l-119 -118h-99z" />
    <glyph glyph-name="Ecircumflex" unicode="&#xca;" horiz-adv-x="559" 
d="M397 430v83h-166v-143h209v-115h-209v-145h172v89h132v-199h-516v111h51v409h-51v119h510v-209h-132zM450 682h-97l-62 44l-62 -44h-97l79 118h160z" />
    <glyph glyph-name="Edieresis" unicode="&#xcb;" horiz-adv-x="559" 
d="M397 430v83h-166v-143h209v-115h-209v-145h172v89h132v-199h-516v111h51v409h-51v119h510v-209h-132zM396 666q-33 0 -56.5 22.5t-23.5 54.5t23.5 55t56.5 23q32 0 56 -23t24 -55q0 -31 -24 -54t-56 -23zM185 666q-32 0 -56 23t-24 54q0 32 24 55t56 23q33 0 56.5 -23
t23.5 -55t-23.5 -54.5t-56.5 -22.5z" />
    <glyph glyph-name="Igrave" unicode="&#xcc;" horiz-adv-x="310" 
d="M19 520v119h272v-119h-55v-409h55v-111h-272v111h55v409h-55zM112 682l-119 118h185l33 -118h-99z" />
    <glyph glyph-name="Iacute" unicode="&#xcd;" horiz-adv-x="310" 
d="M19 520v119h272v-119h-55v-409h55v-111h-272v111h55v409h-55zM97 682l33 118h185l-119 -118h-99z" />
    <glyph glyph-name="Icircumflex" unicode="&#xce;" horiz-adv-x="310" 
d="M19 520v119h272v-119h-55v-409h55v-111h-272v111h55v409h-55zM313 682h-97l-62 44l-62 -44h-97l79 118h160z" />
    <glyph glyph-name="Idieresis" unicode="&#xcf;" horiz-adv-x="310" 
d="M19 520v119h272v-119h-55v-409h55v-111h-272v111h55v409h-55zM260 666q-33 0 -56.5 22.5t-23.5 54.5t23.5 55t56.5 23q32 0 56 -23t24 -55q0 -31 -24 -54t-56 -23zM49 666q-32 0 -56 23t-24 54q0 32 24 55t56 23q33 0 56.5 -23t23.5 -55t-23.5 -54.5t-56.5 -22.5z" />
    <glyph glyph-name="Eth" unicode="&#xd0;" horiz-adv-x="651" 
d="M15 261v111h55v148h-51v119h306q143 0 223 -79.5t80 -234.5v-2q0 -167 -85 -245t-236 -78h-288v111h51v150h-55zM227 115h69q90 0 127 46t37 141v52q0 80 -32 118t-112 38h-89v-138h130v-111h-130v-146z" />
    <glyph glyph-name="Ntilde" unicode="&#xd1;" horiz-adv-x="697" 
d="M431 520v119h248v-119h-50v-520h-206l-223 488v-377h81v-111h-262v111h51v409h-51v119h281l199 -449v330h-68zM219 677q-18 55 4 99t75 44q33 0 75.5 -16.5t52.5 -16.5q14 0 19.5 8t7.5 29h62q18 -55 -3.5 -99t-72.5 -44q-32 0 -75.5 16.5t-55.5 16.5q-14 0 -19.5 -8
t-7.5 -29h-62z" />
    <glyph glyph-name="Ograve" unicode="&#xd2;" horiz-adv-x="676" 
d="M296 682l-119 118h185l33 -118h-99zM338 103q148 0 148 200v47q0 86 -37 132.5t-111 46.5q-147 0 -147 -179v-47q0 -200 147 -200zM338 -15q-137 0 -226.5 87.5t-89.5 248.5v2q0 150 85.5 240t230.5 90t230.5 -90t85.5 -240v-2q0 -161 -89 -248.5t-227 -87.5z" />
    <glyph glyph-name="Oacute" unicode="&#xd3;" horiz-adv-x="676" 
d="M281 682l33 118h185l-119 -118h-99zM338 103q148 0 148 200v47q0 86 -37 132.5t-111 46.5q-147 0 -147 -179v-47q0 -200 147 -200zM338 -15q-137 0 -226.5 87.5t-89.5 248.5v2q0 150 85.5 240t230.5 90t230.5 -90t85.5 -240v-2q0 -161 -89 -248.5t-227 -87.5z" />
    <glyph glyph-name="Ocircumflex" unicode="&#xd4;" horiz-adv-x="676" 
d="M497 682h-97l-62 44l-62 -44h-97l79 118h160zM338 103q148 0 148 200v47q0 86 -37 132.5t-111 46.5q-147 0 -147 -179v-47q0 -200 147 -200zM338 -15q-137 0 -226.5 87.5t-89.5 248.5v2q0 150 85.5 240t230.5 90t230.5 -90t85.5 -240v-2q0 -161 -89 -248.5t-227 -87.5z
" />
    <glyph glyph-name="Otilde" unicode="&#xd5;" horiz-adv-x="676" 
d="M190 677q-18 55 4 99t75 44q33 0 75.5 -16.5t52.5 -16.5q14 0 19.5 8t7.5 29h62q18 -55 -3.5 -99t-72.5 -44q-32 0 -75.5 16.5t-55.5 16.5q-14 0 -19.5 -8t-7.5 -29h-62zM338 103q148 0 148 200v47q0 86 -37 132.5t-111 46.5q-147 0 -147 -179v-47q0 -200 147 -200z
M338 -15q-137 0 -226.5 87.5t-89.5 248.5v2q0 150 85.5 240t230.5 90t230.5 -90t85.5 -240v-2q0 -161 -89 -248.5t-227 -87.5z" />
    <glyph glyph-name="Odieresis" unicode="&#xd6;" horiz-adv-x="676" 
d="M233 666q-32 0 -56 23t-24 54q0 32 24 55t56 23q33 0 56.5 -23t23.5 -55t-23.5 -54.5t-56.5 -22.5zM444 666q-33 0 -56.5 22.5t-23.5 54.5t23.5 55t56.5 23q32 0 56 -23t24 -55q0 -31 -24 -54t-56 -23zM338 103q148 0 148 200v47q0 86 -37 132.5t-111 46.5
q-147 0 -147 -179v-47q0 -200 147 -200zM338 -15q-137 0 -226.5 87.5t-89.5 248.5v2q0 150 85.5 240t230.5 90t230.5 -90t85.5 -240v-2q0 -161 -89 -248.5t-227 -87.5z" />
    <glyph glyph-name="multiply" unicode="&#xd7;" horiz-adv-x="462" 
d="M38 189l111 112l-114 115l82 82l114 -115l111 112l82 -82l-111 -112l115 -115l-82 -82l-115 115l-111 -112z" />
    <glyph glyph-name="Oslash" unicode="&#xd8;" horiz-adv-x="676" 
d="M339 -15q-103 0 -182 50l-43 -54h-92l80 101q-80 90 -80 239v2q0 150 86 240t231 90q103 0 179 -48l41 51h92l-78 -98q81 -89 81 -235v-2q0 -162 -88.5 -249t-226.5 -87zM339 103q150 0 150 200v47q0 50 -11 89l-242 -305q34 -31 103 -31zM188 303q0 -61 10 -100l239 300
q-35 26 -98 26q-75 0 -113 -47t-38 -132v-47z" />
    <glyph glyph-name="Ugrave" unicode="&#xd9;" horiz-adv-x="687" 
d="M395 520v119h274v-119h-45v-245q0 -152 -70 -221t-210 -69t-210.5 69.5t-70.5 221.5v244h-45v119h274v-119h-67v-269q0 -73 26 -107.5t93 -34.5q66 0 92.5 34.5t26.5 106.5v270h-68zM302 682l-119 118h185l33 -118h-99z" />
    <glyph glyph-name="Uacute" unicode="&#xda;" horiz-adv-x="687" 
d="M395 520v119h274v-119h-45v-245q0 -152 -70 -221t-210 -69t-210.5 69.5t-70.5 221.5v244h-45v119h274v-119h-67v-269q0 -73 26 -107.5t93 -34.5q66 0 92.5 34.5t26.5 106.5v270h-68zM287 682l33 118h185l-119 -118h-99z" />
    <glyph glyph-name="Ucircumflex" unicode="&#xdb;" horiz-adv-x="687" 
d="M395 520v119h274v-119h-45v-245q0 -152 -70 -221t-210 -69t-210.5 69.5t-70.5 221.5v244h-45v119h274v-119h-67v-269q0 -73 26 -107.5t93 -34.5q66 0 92.5 34.5t26.5 106.5v270h-68zM503 682h-97l-62 44l-62 -44h-97l79 118h160z" />
    <glyph glyph-name="Udieresis" unicode="&#xdc;" horiz-adv-x="687" 
d="M395 520v119h274v-119h-45v-245q0 -152 -70 -221t-210 -69t-210.5 69.5t-70.5 221.5v244h-45v119h274v-119h-67v-269q0 -73 26 -107.5t93 -34.5q66 0 92.5 34.5t26.5 106.5v270h-68zM449 666q-33 0 -56.5 22.5t-23.5 54.5t23.5 55t56.5 23q32 0 56 -23t24 -55
q0 -31 -24 -54t-56 -23zM238 666q-32 0 -56 23t-24 54q0 32 24 55t56 23q33 0 56.5 -23t23.5 -55t-23.5 -54.5t-56.5 -22.5z" />
    <glyph glyph-name="Yacute" unicode="&#xdd;" horiz-adv-x="604" 
d="M16 520v119h273v-119h-60l95 -173l93 173h-58v119h230v-119h-40l-163 -293v-116h66v-111h-293v111h66v111l-170 298h-39zM270 682l33 118h185l-119 -118h-99z" />
    <glyph glyph-name="Thorn" unicode="&#xde;" horiz-adv-x="587" 
d="M19 520v119h296v-112h-84v-41h145q92 0 141.5 -43.5t49.5 -124.5q0 -79 -51.5 -124t-143.5 -45h-141v-45h84v-104h-296v111h51v409h-51zM231 251h107q71 0 71 60q0 55 -65 55h-113v-115z" />
    <glyph glyph-name="germandbls" unicode="&#xdf;" horiz-adv-x="626" 
d="M15 383v107h55q7 91 76 140.5t182 49.5q103 0 161 -39.5t58 -111.5q0 -35 -22 -66t-48.5 -48t-48.5 -34t-22 -28q0 -4 1 -6.5t3 -5t4 -4.5t6.5 -4t7 -3.5t8.5 -4t9 -3.5q89 -36 99 -42q67 -39 67 -131q0 -80 -47.5 -121.5t-140.5 -41.5q-105 0 -157 47v110h122v-58
q7 -1 24 -1q57 0 57 47q0 27 -33 43q-8 3 -41 14t-54 20q-72 32 -72 111q0 31 20.5 60.5t44.5 48t44.5 43t20.5 46.5q0 57 -76 57q-95 0 -95 -113v-447h-9v-14h-204v111h55v272h-55z" />
    <glyph glyph-name="agrave" unicode="&#xe0;" horiz-adv-x="519" 
d="M47 316v115q66 71 199 71q112 0 162 -53t50 -155v-158q0 -34 31 -34q6 0 16 2v-93q-26 -20 -80 -20t-85 24.5t-36 68.5q-32 -97 -146 -97q-63 0 -101.5 34.5t-38.5 93.5v1q0 30 10.5 53.5t25.5 38t43 27t50 18.5t59 15q52 13 73 25t21 34v3q0 66 -84 66q-22 0 -41 -3v-77
h-128zM218 539l-126 148h179l44 -148h-97zM231 74q30 0 49.5 26t19.5 73v71q-17 -17 -57 -38q-35 -15 -50 -30.5t-15 -42.5v-5q0 -25 14 -39.5t39 -14.5z" />
    <glyph glyph-name="aacute" unicode="&#xe1;" horiz-adv-x="519" 
d="M47 316v115q66 71 199 71q112 0 162 -53t50 -155v-158q0 -34 31 -34q6 0 16 2v-93q-26 -20 -80 -20t-85 24.5t-36 68.5q-32 -97 -146 -97q-63 0 -101.5 34.5t-38.5 93.5v1q0 30 10.5 53.5t25.5 38t43 27t50 18.5t59 15q52 13 73 25t21 34v3q0 66 -84 66q-22 0 -41 -3v-77
h-128zM191 539l47 148h178l-133 -148h-92zM231 74q30 0 49.5 26t19.5 73v71q-17 -17 -57 -38q-35 -15 -50 -30.5t-15 -42.5v-5q0 -25 14 -39.5t39 -14.5z" />
    <glyph glyph-name="acircumflex" unicode="&#xe2;" horiz-adv-x="519" 
d="M47 316v115q66 71 199 71q112 0 162 -53t50 -155v-158q0 -34 31 -34q6 0 16 2v-93q-26 -20 -80 -20t-85 24.5t-36 68.5q-32 -97 -146 -97q-63 0 -101.5 34.5t-38.5 93.5v1q0 30 10.5 53.5t25.5 38t43 27t50 18.5t59 15q52 13 73 25t21 34v3q0 66 -84 66q-22 0 -41 -3v-77
h-128zM93 539l85 148h150l85 -148h-98l-62 63l-62 -63h-98zM231 74q30 0 49.5 26t19.5 73v71q-17 -17 -57 -38q-35 -15 -50 -30.5t-15 -42.5v-5q0 -25 14 -39.5t39 -14.5z" />
    <glyph glyph-name="atilde" unicode="&#xe3;" horiz-adv-x="519" 
d="M47 316v115q66 71 199 71q112 0 162 -53t50 -155v-158q0 -34 31 -34q6 0 16 2v-93q-26 -20 -80 -20t-85 24.5t-36 68.5q-32 -97 -146 -97q-63 0 -101.5 34.5t-38.5 93.5v1q0 30 10.5 53.5t25.5 38t43 27t50 18.5t59 15q52 13 73 25t21 34v3q0 66 -84 66q-22 0 -41 -3v-77
h-128zM108 545q-19 55 1.5 100t76.5 45q33 0 71 -16.5t48 -16.5q14 0 19.5 8t7.5 29h62q18 -55 -1.5 -100t-74.5 -45q-31 0 -71 16.5t-51 16.5q-13 0 -18.5 -8t-7.5 -29h-62zM231 74q30 0 49.5 26t19.5 73v71q-17 -17 -57 -38q-35 -15 -50 -30.5t-15 -42.5v-5
q0 -25 14 -39.5t39 -14.5z" />
    <glyph glyph-name="adieresis" unicode="&#xe4;" horiz-adv-x="519" 
d="M47 316v115q66 71 199 71q112 0 162 -53t50 -155v-158q0 -34 31 -34q6 0 16 2v-93q-26 -20 -80 -20t-85 24.5t-36 68.5q-32 -97 -146 -97q-63 0 -101.5 34.5t-38.5 93.5v1q0 30 10.5 53.5t25.5 38t43 27t50 18.5t59 15q52 13 73 25t21 34v3q0 66 -84 66q-22 0 -41 -3v-77
h-128zM152 529q-33 0 -56.5 22.5t-23.5 54.5t23.5 55t56.5 23q32 0 56 -23t24 -55q0 -31 -24 -54t-56 -23zM354 529q-32 0 -56 23t-24 54q0 32 24 55t56 23q33 0 56.5 -23t23.5 -55t-23.5 -54.5t-56.5 -22.5zM231 74q30 0 49.5 26t19.5 73v71q-17 -17 -57 -38
q-35 -15 -50 -30.5t-15 -42.5v-5q0 -25 14 -39.5t39 -14.5z" />
    <glyph glyph-name="aring" unicode="&#xe5;" horiz-adv-x="519" 
d="M47 316v115q66 71 199 71q112 0 162 -53t50 -155v-158q0 -34 31 -34q6 0 16 2v-93q-26 -20 -80 -20t-85 24.5t-36 68.5q-32 -97 -146 -97q-63 0 -101.5 34.5t-38.5 93.5v1q0 30 10.5 53.5t25.5 38t43 27t50 18.5t59 15q52 13 73 25t21 34v3q0 66 -84 66q-22 0 -41 -3v-77
h-128zM251 531q-46 0 -77 31t-31 76q0 44 31.5 75.5t76.5 31.5q46 0 77.5 -31.5t31.5 -75.5q0 -45 -31.5 -76t-77.5 -31zM231 74q30 0 49.5 26t19.5 73v71q-17 -17 -57 -38q-35 -15 -50 -30.5t-15 -42.5v-5q0 -25 14 -39.5t39 -14.5zM251 591q18 0 30.5 13t12.5 34
q0 20 -12.5 33.5t-30.5 13.5q-17 0 -29.5 -13.5t-12.5 -33.5q0 -21 12 -34t30 -13z" />
    <glyph glyph-name="ae" unicode="&#xe6;" horiz-adv-x="783" 
d="M168 -13q-70 0 -110 34.5t-40 96.5v1q0 36 13.5 61.5t43 42.5t56 25.5t72.5 19.5q53 13 73.5 25t20.5 34v3q0 66 -84 66q-21 0 -41 -3v-77h-128v115q66 71 196 71q114 0 155 -66q55 66 153 66q102 0 159 -57t57 -150q0 -40 -15 -81h-291q4 -61 38.5 -83.5t103.5 -22.5
q82 0 140 29v-84q-18 -26 -67 -45t-116 -19q-167 0 -223 110q-32 -112 -166 -112zM547 403q-85 0 -89 -118h164v10q0 108 -75 108zM231 74q30 0 49.5 26t19.5 73v71q-17 -17 -57 -38q-35 -15 -50 -30.5t-15 -42.5v-5q0 -25 14 -39.5t39 -14.5z" />
    <glyph glyph-name="ccedilla" unicode="&#xe7;" horiz-adv-x="469" 
d="M269 -12h-14v-25q88 -6 88 -73q0 -38 -28 -57.5t-75 -19.5q-55 0 -78 21v48q22 -9 49 -9q37 0 37 22q0 24 -62 25v79q-78 22 -122.5 85.5t-44.5 161.5v1q0 121 72.5 188t173.5 67q127 0 173 -50v-135h-127v75q-5 0 -15 0.5t-15 0.5q-103 0 -103 -126v-24q0 -74 31 -105.5
t96 -31.5q67 0 137 35v-91q-20 -26 -64.5 -44t-108.5 -18z" />
    <glyph glyph-name="egrave" unicode="&#xe8;" horiz-adv-x="504" 
d="M277 -11q-124 0 -191 65.5t-67 190.5v1q0 119 69 187.5t176 68.5q106 0 163.5 -57t57.5 -150q0 -43 -16 -81h-290q4 -61 38 -83.5t104 -22.5q82 0 140 29v-84q-18 -26 -67.5 -45t-116.5 -19zM232 539l-126 148h179l44 -148h-97zM267 403q-84 0 -88 -118h164v10
q0 108 -76 108z" />
    <glyph glyph-name="eacute" unicode="&#xe9;" horiz-adv-x="504" 
d="M277 -11q-124 0 -191 65.5t-67 190.5v1q0 119 69 187.5t176 68.5q106 0 163.5 -57t57.5 -150q0 -43 -16 -81h-290q4 -61 38 -83.5t104 -22.5q82 0 140 29v-84q-18 -26 -67.5 -45t-116.5 -19zM206 539l47 148h178l-133 -148h-92zM267 403q-84 0 -88 -118h164v10
q0 108 -76 108z" />
    <glyph glyph-name="ecircumflex" unicode="&#xea;" horiz-adv-x="504" 
d="M277 -11q-124 0 -191 65.5t-67 190.5v1q0 119 69 187.5t176 68.5q106 0 163.5 -57t57.5 -150q0 -43 -16 -81h-290q4 -61 38 -83.5t104 -22.5q82 0 140 29v-84q-18 -26 -67.5 -45t-116.5 -19zM105 539l85 148h150l85 -148h-98l-62 63l-62 -63h-98zM267 403q-84 0 -88 -118
h164v10q0 108 -76 108z" />
    <glyph glyph-name="edieresis" unicode="&#xeb;" horiz-adv-x="504" 
d="M277 -11q-124 0 -191 65.5t-67 190.5v1q0 119 69 187.5t176 68.5q106 0 163.5 -57t57.5 -150q0 -43 -16 -81h-290q4 -61 38 -83.5t104 -22.5q82 0 140 29v-84q-18 -26 -67.5 -45t-116.5 -19zM163 529q-33 0 -56.5 22.5t-23.5 54.5t23.5 55t56.5 23q32 0 56 -23t24 -55
q0 -31 -24 -54t-56 -23zM365 529q-32 0 -56 23t-24 54q0 32 24 55t56 23q33 0 56.5 -23t23.5 -55t-23.5 -54.5t-56.5 -22.5zM267 403q-84 0 -88 -118h164v10q0 108 -76 108z" />
    <glyph glyph-name="igrave" unicode="&#xec;" horiz-adv-x="287" 
d="M15 358v132h208v-379h49v-111h-257v111h50v247h-50zM100 539l-126 148h179l44 -148h-97z" />
    <glyph glyph-name="iacute" unicode="&#xed;" horiz-adv-x="287" 
d="M15 358v132h208v-379h49v-111h-257v111h50v247h-50zM75 539l47 148h178l-133 -148h-92z" />
    <glyph glyph-name="icircumflex" unicode="&#xee;" horiz-adv-x="287" 
d="M15 358v132h208v-379h49v-111h-257v111h50v247h-50zM-25 539l85 148h150l85 -148h-98l-62 63l-62 -63h-98z" />
    <glyph glyph-name="idieresis" unicode="&#xef;" horiz-adv-x="287" 
d="M15 358v132h208v-379h49v-111h-257v111h50v247h-50zM228 529q-32 0 -56 23t-24 54q0 32 24 55t56 23q33 0 57 -23t24 -55q0 -31 -24 -54t-57 -23zM42 529q-33 0 -56.5 22.5t-23.5 54.5t23.5 55t56.5 23t56.5 -23t23.5 -55t-23.5 -54.5t-56.5 -22.5z" />
    <glyph glyph-name="eth" unicode="&#xf0;" horiz-adv-x="552" 
d="M82 502l-21 61l116 33q-54 38 -119 72v5h215q32 -17 56 -35l107 31l21 -61l-69 -20q142 -138 142 -315v-22q0 -131 -74 -196.5t-182 -65.5t-181.5 65t-73.5 196v2q0 113 54 174t136 61q77 0 128 -63l1 1q-33 61 -99 121zM274 90q96 0 96 145v36q0 62 -26 94.5t-70 32.5
t-69.5 -32t-25.5 -95v-36q0 -145 95 -145z" />
    <glyph glyph-name="ntilde" unicode="&#xf1;" horiz-adv-x="602" 
d="M326 0v111h57v194q0 80 -69 80q-43 0 -68.5 -33t-25.5 -93v-148h59v-111h-264v111h46v247h-46v132h174q27 -49 27 -113v-8q17 62 60.5 97.5t109.5 35.5q74 0 115 -45t41 -132v-214h45v-111h-261zM153 545q-19 55 1.5 100t76.5 45q33 0 71 -16.5t48 -16.5q14 0 19.5 8
t7.5 29h62q18 -55 -1.5 -100t-74.5 -45q-31 0 -71 16.5t-51 16.5q-13 0 -18.5 -8t-7.5 -29h-62z" />
    <glyph glyph-name="ograve" unicode="&#xf2;" horiz-adv-x="549" 
d="M274 90q96 0 96 145v36q0 62 -26 94.5t-70 32.5t-69.5 -32t-25.5 -95v-36q0 -145 95 -145zM274 -11q-108 0 -181.5 65t-73.5 196v2q0 117 71 183.5t184 66.5t184.5 -66.5t71.5 -182.5v-2q0 -68 -21 -119.5t-57.5 -82t-81.5 -45.5t-96 -15zM240 539l-126 148h179l44 -148
h-97z" />
    <glyph glyph-name="oacute" unicode="&#xf3;" horiz-adv-x="549" 
d="M215 539l47 148h178l-133 -148h-92zM274 90q96 0 96 145v36q0 62 -26 94.5t-70 32.5t-69.5 -32t-25.5 -95v-36q0 -145 95 -145zM274 -11q-108 0 -181.5 65t-73.5 196v2q0 117 71 183.5t184 66.5t184.5 -66.5t71.5 -182.5v-2q0 -68 -21 -119.5t-57.5 -82t-81.5 -45.5
t-96 -15z" />
    <glyph glyph-name="ocircumflex" unicode="&#xf4;" horiz-adv-x="549" 
d="M115 539l85 148h150l85 -148h-98l-62 63l-62 -63h-98zM274 90q96 0 96 145v36q0 62 -26 94.5t-70 32.5t-69.5 -32t-25.5 -95v-36q0 -145 95 -145zM274 -11q-108 0 -181.5 65t-73.5 196v2q0 117 71 183.5t184 66.5t184.5 -66.5t71.5 -182.5v-2q0 -68 -21 -119.5t-57.5 -82
t-81.5 -45.5t-96 -15z" />
    <glyph glyph-name="otilde" unicode="&#xf5;" horiz-adv-x="549" 
d="M274 90q96 0 96 145v36q0 62 -26 94.5t-70 32.5t-69.5 -32t-25.5 -95v-36q0 -145 95 -145zM274 -11q-108 0 -181.5 65t-73.5 196v2q0 117 71 183.5t184 66.5t184.5 -66.5t71.5 -182.5v-2q0 -68 -21 -119.5t-57.5 -82t-81.5 -45.5t-96 -15zM132 545q-19 55 1.5 100
t76.5 45q33 0 71 -16.5t48 -16.5q14 0 19.5 8t7.5 29h62q18 -55 -1.5 -100t-74.5 -45q-31 0 -71 16.5t-51 16.5q-13 0 -18.5 -8t-7.5 -29h-62z" />
    <glyph glyph-name="odieresis" unicode="&#xf6;" horiz-adv-x="549" 
d="M174 529q-33 0 -56.5 22.5t-23.5 54.5t23.5 55t56.5 23q32 0 56 -23t24 -55q0 -31 -24 -54t-56 -23zM376 529q-32 0 -56 23t-24 54q0 32 24 55t56 23q33 0 56.5 -23t23.5 -55t-23.5 -54.5t-56.5 -22.5zM274 90q96 0 96 145v36q0 62 -26 94.5t-70 32.5t-69.5 -32
t-25.5 -95v-36q0 -145 95 -145zM274 -11q-108 0 -181.5 65t-73.5 196v2q0 117 71 183.5t184 66.5t184.5 -66.5t71.5 -182.5v-2q0 -68 -21 -119.5t-57.5 -82t-81.5 -45.5t-96 -15z" />
    <glyph glyph-name="divide" unicode="&#xf7;" horiz-adv-x="476" 
d="M43 372h390v-120h-390v120zM242 62q-32 0 -55 23t-23 55q0 33 23 56.5t55 23.5t55 -23.5t23 -56.5q0 -32 -23 -55t-55 -23zM242 404q-32 0 -55 23.5t-23 55.5t23 55.5t55 23.5t55 -23.5t23 -55.5t-23 -55.5t-55 -23.5z" />
    <glyph glyph-name="oslash" unicode="&#xf8;" horiz-adv-x="549" 
d="M274 -11q-81 0 -142 35l-35 -43h-78l66 80q-66 68 -66 189v2q0 117 71 183.5t184 66.5q82 0 144 -37l31 37h78l-61 -74q64 -67 64 -175v-2q0 -68 -21 -119.5t-57.5 -82t-81.5 -45.5t-96 -15zM176 235q0 -35 3 -60l165 200q-24 24 -70 24q-44 0 -71 -33t-27 -95v-36z
M274 88q99 0 99 147v36q0 23 -3 42l-166 -202q22 -23 70 -23z" />
    <glyph glyph-name="ugrave" unicode="&#xf9;" horiz-adv-x="598" 
d="M409 0q-24 54 -24 110v5q-18 -60 -59.5 -93.5t-103.5 -33.5q-162 0 -162 183v187h-45v132h203v-306q0 -87 69 -87q43 0 67.5 34t24.5 99v128h-66v132h224v-379h46v-111h-174zM257 539l-126 148h179l44 -148h-97z" />
    <glyph glyph-name="uacute" unicode="&#xfa;" horiz-adv-x="598" 
d="M409 0q-24 54 -24 110v5q-18 -60 -59.5 -93.5t-103.5 -33.5q-162 0 -162 183v187h-45v132h203v-306q0 -87 69 -87q43 0 67.5 34t24.5 99v128h-66v132h224v-379h46v-111h-174zM231 539l47 148h178l-133 -148h-92z" />
    <glyph glyph-name="ucircumflex" unicode="&#xfb;" horiz-adv-x="598" 
d="M313 358v132h224v-379h46v-111h-174q-24 54 -24 110v5q-18 -60 -59.5 -93.5t-103.5 -33.5q-162 0 -162 183v187h-45v132h203v-306q0 -87 69 -87q43 0 67.5 34t24.5 99v128h-66zM132 539l85 148h150l85 -148h-98l-62 63l-62 -63h-98z" />
    <glyph glyph-name="udieresis" unicode="&#xfc;" horiz-adv-x="598" 
d="M313 358v132h224v-379h46v-111h-174q-24 54 -24 110v5q-18 -60 -59.5 -93.5t-103.5 -33.5q-162 0 -162 183v187h-45v132h203v-306q0 -87 69 -87q43 0 67.5 34t24.5 99v128h-66zM191 529q-33 0 -56.5 22.5t-23.5 54.5t23.5 55t56.5 23q32 0 56 -23t24 -55q0 -31 -24 -54
t-56 -23zM393 529q-32 0 -56 23t-24 54q0 32 24 55t56 23q33 0 56.5 -23t23.5 -55t-23.5 -54.5t-56.5 -22.5z" />
    <glyph glyph-name="yacute" unicode="&#xfd;" horiz-adv-x="564" 
d="M322 358v132h229v-132h-47l-130 -352q-28 -84 -74 -123t-121 -39q-73 0 -117 37v92q42 -14 87 -14q75 0 96 50l4 11h-58l-131 338h-47v132h263v-132h-60l86 -236l79 236h-59zM241 539l47 148h178l-133 -148h-92z" />
    <glyph glyph-name="thorn" unicode="&#xfe;" horiz-adv-x="592" 
d="M367 -11q-61 0 -100 30.5t-52 81.5v-145h59v-102h-263v102h46v598h-46v119h204v-289q14 47 55 82.5t104 35.5q93 0 145 -68.5t52 -179.5v-1q0 -125 -56 -194.5t-148 -69.5zM315 95q45 0 70.5 37.5t25.5 107.5v31q0 55 -25 86.5t-71 31.5q-44 0 -72 -34t-28 -93v-19
q0 -73 27.5 -110.5t72.5 -37.5z" />
    <glyph glyph-name="ydieresis" unicode="&#xff;" horiz-adv-x="564" 
d="M322 358v132h229v-132h-47l-130 -352q-28 -84 -74 -123t-121 -39q-73 0 -117 37v92q42 -14 87 -14q75 0 96 50l4 11h-58l-131 338h-47v132h263v-132h-60l86 -236l79 236h-59zM200 529q-33 0 -56.5 22.5t-23.5 54.5t23.5 55t56.5 23q32 0 56 -23t24 -55q0 -31 -24 -54
t-56 -23zM402 529q-32 0 -56 23t-24 54q0 32 24 55t56 23q33 0 56.5 -23t23.5 -55t-23.5 -54.5t-56.5 -22.5z" />
    <glyph glyph-name="Amacron" unicode="&#x100;" horiz-adv-x="669" 
d="M16 0v111h38l167 528h233l162 -528h37v-111h-280v111h72l-22 73h-209l-21 -73h68v-111h-245zM198 692v94h278v-94h-278zM319 543l-74 -252h147z" />
    <glyph glyph-name="amacron" unicode="&#x101;" horiz-adv-x="519" 
d="M47 316v115q66 71 199 71q112 0 162 -53t50 -155v-158q0 -34 31 -34q6 0 16 2v-93q-26 -20 -80 -20t-85 24.5t-36 68.5q-32 -97 -146 -97q-63 0 -101.5 34.5t-38.5 93.5v1q0 30 10.5 53.5t25.5 38t43 27t50 18.5t59 15q52 13 73 25t21 34v3q0 66 -84 66q-22 0 -41 -3v-77
h-128zM118 550v94h271v-94h-271zM231 74q30 0 49.5 26t19.5 73v71q-17 -17 -57 -38q-35 -15 -50 -30.5t-15 -42.5v-5q0 -25 14 -39.5t39 -14.5z" />
    <glyph glyph-name="Abreve" unicode="&#x102;" horiz-adv-x="669" 
d="M16 0v111h38l167 528h233l162 -528h37v-111h-280v111h72l-22 73h-209l-21 -73h68v-111h-245zM382 805h86q4 -57 -29.5 -97t-104.5 -40q-70 0 -103 40t-29 97h85q0 -19 12 -31.5t35 -12.5q25 0 37 12.5t11 31.5zM319 543l-74 -252h147z" />
    <glyph glyph-name="abreve" unicode="&#x103;" horiz-adv-x="519" 
d="M47 316v115q66 71 199 71q112 0 162 -53t50 -155v-158q0 -34 31 -34q6 0 16 2v-93q-26 -20 -80 -20t-85 24.5t-36 68.5q-32 -97 -146 -97q-63 0 -101.5 34.5t-38.5 93.5v1q0 30 10.5 53.5t25.5 38t43 27t50 18.5t59 15q52 13 73 25t21 34v3q0 66 -84 66q-22 0 -41 -3v-77
h-128zM301 680h87q5 -58 -29.5 -100.5t-106.5 -42.5q-71 0 -105.5 42.5t-28.5 100.5h86q-1 -22 11.5 -36.5t36.5 -14.5q25 0 37.5 14.5t11.5 36.5zM231 74q30 0 49.5 26t19.5 73v71q-17 -17 -57 -38q-35 -15 -50 -30.5t-15 -42.5v-5q0 -25 14 -39.5t39 -14.5z" />
    <glyph glyph-name="Aogonek" unicode="&#x104;" horiz-adv-x="669" 
d="M16 0v111h38l167 528h233l162 -528h37v-105q-56 -26 -56 -62q0 -23 23 -23q15 0 24 6v-61q-18 -21 -74 -21q-45 0 -71 19t-26 52q0 54 71 84h-171v111h72l-22 73h-209l-21 -73h68v-111h-245zM319 543l-74 -252h147z" />
    <glyph glyph-name="aogonek" unicode="&#x105;" horiz-adv-x="519" 
d="M47 316v115q66 71 199 71q112 0 162 -53t50 -155v-158q0 -34 31 -34q6 0 16 2v-93q-62 -33 -62 -67q0 -24 24 -24q13 0 25 6v-60q-16 -21 -73 -21q-45 0 -71 19t-26 52q0 54 72 77q-82 13 -90 91q-32 -97 -146 -97q-63 0 -101.5 34.5t-38.5 93.5v1q0 30 10.5 53.5
t25.5 38t43 27t50 18.5t59 15q52 13 73 25t21 34v3q0 66 -84 66q-22 0 -41 -3v-77h-128zM231 74q30 0 49.5 26t19.5 73v71q-17 -17 -57 -38q-35 -15 -50 -30.5t-15 -42.5v-5q0 -25 14 -39.5t39 -14.5z" />
    <glyph glyph-name="Cacute" unicode="&#x106;" horiz-adv-x="589" 
d="M409 430v94q-35 5 -66 5q-150 0 -150 -179v-42q0 -205 161 -205q34 0 67 6v94h134v-143q-26 -30 -82 -52.5t-132 -22.5q-148 0 -233.5 89t-85.5 250v2q0 150 82.5 238.5t225.5 88.5q77 0 134.5 -21t85.5 -49v-153h-141zM268 682l33 118h185l-119 -118h-99z" />
    <glyph glyph-name="cacute" unicode="&#x107;" horiz-adv-x="469" 
d="M311 317v75q-5 0 -15 0.5t-15 0.5q-103 0 -103 -126v-24q0 -74 31 -105.5t96 -31.5q67 0 137 35v-91q-20 -26 -64.5 -44t-108.5 -18q-113 0 -181.5 68t-68.5 190v1q0 121 72.5 188t173.5 67q127 0 173 -50v-135h-127zM204 539l47 148h178l-133 -148h-92z" />
    <glyph glyph-name="Ccircumflex" unicode="&#x108;" horiz-adv-x="589" 
d="M409 430v94q-35 5 -66 5q-150 0 -150 -179v-42q0 -205 161 -205q34 0 67 6v94h134v-143q-26 -30 -82 -52.5t-132 -22.5q-148 0 -233.5 89t-85.5 250v2q0 150 82.5 238.5t225.5 88.5q77 0 134.5 -21t85.5 -49v-153h-141zM484 682h-97l-62 44l-62 -44h-97l79 118h160z" />
    <glyph glyph-name="ccircumflex" unicode="&#x109;" horiz-adv-x="469" 
d="M311 317v75q-5 0 -15 0.5t-15 0.5q-103 0 -103 -126v-24q0 -74 31 -105.5t96 -31.5q67 0 137 35v-91q-20 -26 -64.5 -44t-108.5 -18q-113 0 -181.5 68t-68.5 190v1q0 121 72.5 188t173.5 67q127 0 173 -50v-135h-127zM104 539l85 148h150l85 -148h-98l-62 63l-62 -63h-98
z" />
    <glyph glyph-name="Cdotaccent" unicode="&#x10a;" horiz-adv-x="589" 
d="M409 430v94q-35 5 -66 5q-150 0 -150 -179v-42q0 -205 161 -205q34 0 67 6v94h134v-143q-26 -30 -82 -52.5t-132 -22.5q-148 0 -233.5 89t-85.5 250v2q0 150 82.5 238.5t225.5 88.5q77 0 134.5 -21t85.5 -49v-153h-141zM325 676q-35 0 -59.5 24t-24.5 58q0 35 24.5 59.5
t59.5 24.5q36 0 60 -24.5t24 -59.5t-24 -58.5t-60 -23.5z" />
    <glyph glyph-name="cdotaccent" unicode="&#x10b;" horiz-adv-x="469" 
d="M311 317v75q-5 0 -15 0.5t-15 0.5q-103 0 -103 -126v-24q0 -74 31 -105.5t96 -31.5q67 0 137 35v-91q-20 -26 -64.5 -44t-108.5 -18q-113 0 -181.5 68t-68.5 190v1q0 121 72.5 188t173.5 67q127 0 173 -50v-135h-127zM264 531q-35 0 -59.5 24t-24.5 58q0 35 24.5 59.5
t59.5 24.5q36 0 60 -24.5t24 -59.5t-24 -58.5t-60 -23.5z" />
    <glyph glyph-name="Ccaron" unicode="&#x10c;" horiz-adv-x="589" 
d="M409 430v94q-35 5 -66 5q-150 0 -150 -179v-42q0 -205 161 -205q34 0 67 6v94h134v-143q-26 -30 -82 -52.5t-132 -22.5q-148 0 -233.5 89t-85.5 250v2q0 150 82.5 238.5t225.5 88.5q77 0 134.5 -21t85.5 -49v-153h-141zM166 800h97l62 -44l62 44h97l-79 -118h-160z" />
    <glyph glyph-name="ccaron" unicode="&#x10d;" horiz-adv-x="469" 
d="M311 317v75q-5 0 -15 0.5t-15 0.5q-103 0 -103 -126v-24q0 -74 31 -105.5t96 -31.5q67 0 137 35v-91q-20 -26 -64.5 -44t-108.5 -18q-113 0 -181.5 68t-68.5 190v1q0 121 72.5 188t173.5 67q127 0 173 -50v-135h-127zM107 687h98l62 -63l62 63h98l-85 -148h-150z" />
    <glyph glyph-name="Dcaron" unicode="&#x10e;" horiz-adv-x="651" 
d="M19 520v119h306q143 0 223 -79.5t80 -234.5v-2q0 -167 -85 -245t-236 -78h-288v111h51v409h-51zM231 115h65q90 0 127 46t37 141v52q0 80 -32 118t-112 38h-85v-395zM150 800h97l62 -44l62 44h97l-79 -118h-160z" />
    <glyph glyph-name="dcaron" unicode="&#x10f;" horiz-adv-x="597" 
d="M313 554v119h223v-562h45v-111h-172q-25 49 -27 112q-42 -123 -165 -123q-92 0 -144 70.5t-52 185.5v1q0 121 57 188t148 67q62 0 99 -32t52 -80v165h-64zM277 98q44 0 72 37.5t28 98.5v18q0 70 -27 105t-73 35q-44 0 -70 -33t-26 -93v-33q0 -63 25 -99t71 -36zM560 527
l4 146h113l-40 -146h-77z" />
    <glyph glyph-name="Dcroat" unicode="&#x110;" horiz-adv-x="651" 
d="M15 261v111h55v148h-51v119h306q143 0 223 -79.5t80 -234.5v-2q0 -167 -85 -245t-236 -78h-288v111h51v150h-55zM227 115h69q90 0 127 46t37 141v52q0 80 -32 118t-112 38h-89v-138h130v-111h-130v-146z" />
    <glyph glyph-name="dcroat" unicode="&#x111;" horiz-adv-x="597" 
d="M217 -11q-92 0 -144 70.5t-52 185.5v1q0 121 57 188t148 67q62 0 99 -32t52 -80v155h-142v70h142v59h159v-59h57v-70h-57v-433h45v-111h-172q-25 49 -27 112q-42 -123 -165 -123zM277 98q44 0 72 37.5t28 98.5v18q0 70 -27 105t-73 35q-44 0 -70 -33t-26 -93v-33
q0 -63 25 -99t71 -36z" />
    <glyph glyph-name="Emacron" unicode="&#x112;" horiz-adv-x="559" 
d="M397 430v83h-166v-143h209v-115h-209v-145h172v89h132v-199h-516v111h51v409h-51v119h510v-209h-132zM150 692v94h278v-94h-278z" />
    <glyph glyph-name="emacron" unicode="&#x113;" horiz-adv-x="504" 
d="M277 -11q-124 0 -191 65.5t-67 190.5v1q0 119 69 187.5t176 68.5q106 0 163.5 -57t57.5 -150q0 -43 -16 -81h-290q4 -61 38 -83.5t104 -22.5q82 0 140 29v-84q-18 -26 -67.5 -45t-116.5 -19zM129 550v94h271v-94h-271zM267 403q-84 0 -88 -118h164v10q0 108 -76 108z" />
    <glyph glyph-name="Ebreve" unicode="&#x114;" horiz-adv-x="559" 
d="M397 430v83h-166v-143h209v-115h-209v-145h172v89h132v-199h-516v111h51v409h-51v119h510v-209h-132zM338 805h86q4 -57 -29.5 -97t-104.5 -40q-70 0 -103 40t-29 97h85q0 -19 12 -31.5t35 -12.5q25 0 37 12.5t11 31.5z" />
    <glyph glyph-name="ebreve" unicode="&#x115;" horiz-adv-x="504" 
d="M277 -11q-124 0 -191 65.5t-67 190.5v1q0 119 69 187.5t176 68.5q106 0 163.5 -57t57.5 -150q0 -43 -16 -81h-290q4 -61 38 -83.5t104 -22.5q82 0 140 29v-84q-18 -26 -67.5 -45t-116.5 -19zM314 680h87q5 -58 -29.5 -100.5t-106.5 -42.5q-71 0 -105.5 42.5t-28.5 100.5
h86q-1 -22 11.5 -36.5t36.5 -14.5q25 0 37.5 14.5t11.5 36.5zM267 403q-84 0 -88 -118h164v10q0 108 -76 108z" />
    <glyph glyph-name="Edotaccent" unicode="&#x116;" horiz-adv-x="559" 
d="M397 430v83h-166v-143h209v-115h-209v-145h172v89h132v-199h-516v111h51v409h-51v119h510v-209h-132zM291 676q-35 0 -59.5 24t-24.5 58q0 35 24.5 59.5t59.5 24.5q36 0 60 -24.5t24 -59.5t-24 -58.5t-60 -23.5z" />
    <glyph glyph-name="edotaccent" unicode="&#x117;" horiz-adv-x="504" 
d="M277 -11q-124 0 -191 65.5t-67 190.5v1q0 119 69 187.5t176 68.5q106 0 163.5 -57t57.5 -150q0 -43 -16 -81h-290q4 -61 38 -83.5t104 -22.5q82 0 140 29v-84q-18 -26 -67.5 -45t-116.5 -19zM265 531q-35 0 -59.5 24t-24.5 58q0 35 24.5 59.5t59.5 24.5q36 0 60 -24.5
t24 -59.5t-24 -58.5t-60 -23.5zM267 403q-84 0 -88 -118h164v10q0 108 -76 108z" />
    <glyph glyph-name="Eogonek" unicode="&#x118;" horiz-adv-x="559" 
d="M397 430v83h-166v-143h209v-115h-209v-145h172v89h132v-199h-63q-43 -25 -43 -56q0 -23 23 -23q15 0 24 6v-61q-18 -21 -74 -21q-45 0 -71 19t-26 52q0 54 69 84h-355v111h51v409h-51v119h510v-209h-132z" />
    <glyph glyph-name="eogonek" unicode="&#x119;" horiz-adv-x="504" 
d="M469 214h-290q4 -61 38 -83.5t104 -22.5q82 0 140 29v-84q-8 -12 -33.5 -31.5t-44 -39.5t-18.5 -38q0 -24 24 -24q11 0 25 6v-60q-17 -21 -73 -21q-45 0 -71.5 19.5t-26.5 51.5q0 50 65 74q-9 -1 -31 -1q-124 0 -191 65.5t-67 190.5v1q0 119 69 187.5t176 68.5
q106 0 163.5 -57t57.5 -150q0 -43 -16 -81zM267 403q-84 0 -88 -118h164v10q0 108 -76 108z" />
    <glyph glyph-name="Ecaron" unicode="&#x11a;" horiz-adv-x="559" 
d="M397 430v83h-166v-143h209v-115h-209v-145h172v89h132v-199h-516v111h51v409h-51v119h510v-209h-132zM132 800h97l62 -44l62 44h97l-79 -118h-160z" />
    <glyph glyph-name="ecaron" unicode="&#x11b;" horiz-adv-x="504" 
d="M277 -11q-124 0 -191 65.5t-67 190.5v1q0 119 69 187.5t176 68.5q106 0 163.5 -57t57.5 -150q0 -43 -16 -81h-290q4 -61 38 -83.5t104 -22.5q82 0 140 29v-84q-18 -26 -67.5 -45t-116.5 -19zM105 687h98l62 -63l62 63h98l-85 -148h-150zM267 403q-84 0 -88 -118h164v10
q0 108 -76 108z" />
    <glyph glyph-name="Gcircumflex" unicode="&#x11c;" horiz-adv-x="622" 
d="M325 230v120h258v-278q-35 -36 -99.5 -61.5t-147.5 -25.5q-144 0 -229 88.5t-85 249.5v2q0 149 88.5 238.5t236.5 89.5q149 0 216 -63v-160h-140v93q-32 6 -67 6q-77 0 -121 -48t-44 -139v-30q0 -110 40.5 -158.5t119.5 -48.5q37 0 77 8v117h-103zM490 682h-97l-62 44
l-62 -44h-97l79 118h160z" />
    <glyph glyph-name="gcircumflex" unicode="&#x11d;" horiz-adv-x="596" 
d="M254 -155q-144 0 -197 59v112q69 -52 168 -52q151 0 151 131v35q-34 -93 -157 -93q-96 0 -147.5 60t-51.5 168v1q0 107 57 171t148 64q65 0 102.5 -26t61.5 -82q4 24 12.5 48t14.5 37l6 12h159v-132h-46v-250q0 -263 -281 -263zM276 129q45 0 72.5 34.5t27.5 95.5v11
q0 57 -27.5 89.5t-71.5 32.5t-70.5 -31.5t-26.5 -84.5v-18q0 -62 25 -95.5t71 -33.5zM136 539l85 148h150l85 -148h-98l-62 63l-62 -63h-98z" />
    <glyph glyph-name="Gbreve" unicode="&#x11e;" horiz-adv-x="622" 
d="M325 230v120h258v-278q-35 -36 -99.5 -61.5t-147.5 -25.5q-144 0 -229 88.5t-85 249.5v2q0 149 88.5 238.5t236.5 89.5q149 0 216 -63v-160h-140v93q-32 6 -67 6q-77 0 -121 -48t-44 -139v-30q0 -110 40.5 -158.5t119.5 -48.5q37 0 77 8v117h-103zM378 805h86
q4 -57 -29.5 -97t-104.5 -40q-70 0 -103 40t-29 97h85q0 -19 12 -31.5t35 -12.5q25 0 37 12.5t11 31.5z" />
    <glyph glyph-name="gbreve" unicode="&#x11f;" horiz-adv-x="596" 
d="M254 -155q-144 0 -197 59v112q69 -52 168 -52q151 0 151 131v35q-34 -93 -157 -93q-96 0 -147.5 60t-51.5 168v1q0 107 57 171t148 64q65 0 102.5 -26t61.5 -82q4 24 12.5 48t14.5 37l6 12h159v-132h-46v-250q0 -263 -281 -263zM276 129q45 0 72.5 34.5t27.5 95.5v11
q0 57 -27.5 89.5t-71.5 32.5t-70.5 -31.5t-26.5 -84.5v-18q0 -62 25 -95.5t71 -33.5zM336 680h87q5 -58 -29.5 -100.5t-106.5 -42.5q-71 0 -105.5 42.5t-28.5 100.5h86q-1 -22 11.5 -36.5t36.5 -14.5q25 0 37.5 14.5t11.5 36.5z" />
    <glyph glyph-name="Gdotaccent" unicode="&#x120;" horiz-adv-x="622" 
d="M325 230v120h258v-278q-35 -36 -99.5 -61.5t-147.5 -25.5q-144 0 -229 88.5t-85 249.5v2q0 149 88.5 238.5t236.5 89.5q149 0 216 -63v-160h-140v93q-32 6 -67 6q-77 0 -121 -48t-44 -139v-30q0 -110 40.5 -158.5t119.5 -48.5q37 0 77 8v117h-103zM331 676
q-35 0 -59.5 24t-24.5 58q0 35 24.5 59.5t59.5 24.5q36 0 60 -24.5t24 -59.5t-24 -58.5t-60 -23.5z" />
    <glyph glyph-name="gdotaccent" unicode="&#x121;" horiz-adv-x="596" 
d="M254 -155q-144 0 -197 59v112q69 -52 168 -52q151 0 151 131v35q-34 -93 -157 -93q-96 0 -147.5 60t-51.5 168v1q0 107 57 171t148 64q65 0 102.5 -26t61.5 -82q4 24 12.5 48t14.5 37l6 12h159v-132h-46v-250q0 -263 -281 -263zM276 129q45 0 72.5 34.5t27.5 95.5v11
q0 57 -27.5 89.5t-71.5 32.5t-70.5 -31.5t-26.5 -84.5v-18q0 -62 25 -95.5t71 -33.5zM296 531q-35 0 -59.5 24t-24.5 58q0 35 24.5 59.5t59.5 24.5q36 0 60 -24.5t24 -59.5t-24 -58.5t-60 -23.5z" />
    <glyph glyph-name="Gcommaaccent" unicode="&#x122;" horiz-adv-x="622" 
d="M325 230v120h258v-278q-35 -36 -99.5 -61.5t-147.5 -25.5q-144 0 -229 88.5t-85 249.5v2q0 149 88.5 238.5t236.5 89.5q149 0 216 -63v-160h-140v93q-32 6 -67 6q-77 0 -121 -48t-44 -139v-30q0 -110 40.5 -158.5t119.5 -48.5q37 0 77 8v117h-103zM340 -176h-93
q20 41 20 86q0 26 -6 46h130q5 -15 5 -28q0 -64 -56 -104z" />
    <glyph glyph-name="gcommaaccent" unicode="&#x123;" horiz-adv-x="596" 
d="M254 -155q-144 0 -197 59v112q69 -52 168 -52q151 0 151 131v35q-34 -93 -157 -93q-96 0 -147.5 60t-51.5 168v1q0 107 57 171t148 64q65 0 102.5 -26t61.5 -82q4 24 12.5 48t14.5 37l6 12h159v-132h-46v-250q0 -263 -281 -263zM276 129q45 0 72.5 34.5t27.5 95.5v11
q0 57 -27.5 89.5t-71.5 32.5t-70.5 -31.5t-26.5 -84.5v-18q0 -62 25 -95.5t71 -33.5zM284 683h93q-20 -41 -20 -86q0 -27 6 -46h-130q-5 15 -5 28q0 64 56 104z" />
    <glyph glyph-name="Hcircumflex" unicode="&#x124;" horiz-adv-x="687" 
d="M389 0v111h67v151h-225v-151h67v-111h-279v111h51v409h-51v119h279v-119h-67v-133h225v133h-67v119h279v-119h-51v-409h51v-111h-279zM502 682h-97l-62 44l-62 -44h-97l79 118h160z" />
    <glyph glyph-name="hcircumflex" unicode="&#x125;" horiz-adv-x="602" 
d="M326 0v111h57v194q0 80 -69 80q-43 0 -68.5 -33t-25.5 -93v-148h59v-111h-264v111h46v443h-46v119h205v-298q17 60 59.5 93.5t106.5 33.5q74 0 115 -45t41 -132v-214h45v-111h-261zM460 705h-97l-62 44l-62 -44h-97l79 118h160z" />
    <glyph glyph-name="Hbar" unicode="&#x126;" horiz-adv-x="687" 
d="M389 0v111h67v138h-225v-138h67v-111h-279v111h51v303h-65v68h65v45h-51v112h279v-112h-67v-45h225v45h-67v112h279v-112h-51v-45h65v-68h-65v-303h51v-111h-279zM231 357h225v57h-225v-57z" />
    <glyph glyph-name="hbar" unicode="&#x127;" horiz-adv-x="602" 
d="M-1 544v70h62v59h159v-59h138v-70h-138v-169q17 60 59.5 93.5t106.5 33.5q74 0 115 -45t41 -132v-214h45v-111h-261v111h57v194q0 80 -69 80q-43 0 -68.5 -33t-25.5 -93v-148h59v-111h-264v111h46v433h-62z" />
    <glyph glyph-name="Itilde" unicode="&#x128;" horiz-adv-x="310" 
d="M19 520v119h272v-119h-55v-409h55v-111h-272v111h55v409h-55zM7 677q-18 55 4 99t75 44q33 0 75.5 -16.5t52.5 -16.5q14 0 19.5 8t7.5 29h62q18 -55 -3.5 -99t-72.5 -44q-32 0 -75.5 16.5t-55.5 16.5q-14 0 -19.5 -8t-7.5 -29h-62z" />
    <glyph glyph-name="itilde" unicode="&#x129;" horiz-adv-x="287" 
d="M15 358v132h208v-379h49v-111h-257v111h50v247h-50zM-11 545q-19 55 1.5 100t76.5 45q33 0 71 -16.5t48 -16.5q14 0 19.5 8t7.5 29h62q18 -55 -1.5 -100t-74.5 -45q-31 0 -71 16.5t-51 16.5q-13 0 -18.5 -8t-7.5 -29h-62z" />
    <glyph glyph-name="Imacron" unicode="&#x12a;" horiz-adv-x="310" 
d="M19 520v119h272v-119h-55v-409h55v-111h-272v111h55v409h-55zM15 692v94h278v-94h-278z" />
    <glyph glyph-name="imacron" unicode="&#x12b;" horiz-adv-x="287" 
d="M15 358v132h208v-379h49v-111h-257v111h50v247h-50zM12 550v94h233v-94h-233z" />
    <glyph glyph-name="Ibreve" unicode="&#x12c;" horiz-adv-x="310" 
d="M19 520v119h272v-119h-55v-409h55v-111h-272v111h55v409h-55zM201 805h86q4 -57 -29.5 -97t-104.5 -40q-70 0 -103 40t-29 97h85q0 -19 12 -31.5t35 -12.5q25 0 37 12.5t11 31.5z" />
    <glyph glyph-name="ibreve" unicode="&#x12d;" horiz-adv-x="287" 
d="M15 358v132h208v-379h49v-111h-257v111h50v247h-50zM183 680h87q5 -58 -29.5 -100.5t-106.5 -42.5q-71 0 -105.5 42.5t-28.5 100.5h86q-1 -22 11.5 -36.5t36.5 -14.5q25 0 37.5 14.5t11.5 36.5z" />
    <glyph glyph-name="Iogonek" unicode="&#x12e;" horiz-adv-x="310" 
d="M19 520v119h272v-119h-55v-409h55v-111h-52q-37 -25 -37 -55q0 -24 23 -24q15 0 24 6v-61q-16 -21 -73 -21q-46 0 -72 19t-26 52q0 53 64 84h-123v111h55v409h-55z" />
    <glyph glyph-name="iogonek" unicode="&#x12f;" horiz-adv-x="287" 
d="M15 358v132h208v-379h49v-111h-35q-40 -27 -40 -56q0 -24 24 -24q13 0 25 6v-60q-16 -21 -73 -21q-45 0 -71 19t-26 52q0 59 86 84h-147v111h50v247h-50zM142 522q-34 0 -59 25t-25 59q0 35 25 60.5t59 25.5t59 -25.5t25 -60.5q0 -34 -25 -59t-59 -25z" />
    <glyph glyph-name="Idotaccent" unicode="&#x130;" horiz-adv-x="310" 
d="M19 520v119h272v-119h-55v-409h55v-111h-272v111h55v409h-55zM154 676q-35 0 -59.5 24t-24.5 58q0 35 24.5 59.5t59.5 24.5q36 0 60 -24.5t24 -59.5t-24 -58.5t-60 -23.5z" />
    <glyph glyph-name="dotlessi" unicode="&#x131;" horiz-adv-x="287" 
d="M15 358v132h208v-379h49v-111h-257v111h50v247h-50z" />
    <glyph glyph-name="IJ" unicode="&#x132;" horiz-adv-x="696" 
d="M403 520v119h274v-119h-46v-328q0 -97 -46 -151t-142 -54q-81 0 -120 35v105q38 -14 80 -14q67 0 67 79v328h-67zM19 520v119h272v-119h-55v-409h53v-111h-270v111h55v409h-55z" />
    <glyph glyph-name="ij" unicode="&#x133;" horiz-adv-x="537" 
d="M282 358v132h208v-478q0 -84 -43 -126t-114 -42q-72 0 -99 22v85q18 -3 37 -3q31 0 46 11.5t15 42.5v356h-50zM16 358v132h208v-379h49v-111h-257v111h50v247h-50zM143 522q-35 0 -59.5 25t-24.5 59q0 35 25 60.5t59 25.5t59 -25.5t25 -60.5q0 -34 -24.5 -59t-59.5 -25z
M409 522q-35 0 -59.5 25t-24.5 59q0 35 25 60.5t59 25.5t59 -25.5t25 -60.5q0 -34 -24.5 -59t-59.5 -25z" />
    <glyph glyph-name="Jcircumflex" unicode="&#x134;" horiz-adv-x="405" 
d="M112 520v119h274v-119h-46v-327q0 -96 -49.5 -150.5t-147.5 -54.5q-87 0 -126 35v106q41 -15 86 -15q75 0 75 79v327h-66zM408 682h-97l-62 44l-62 -44h-97l79 118h160z" />
    <glyph glyph-name="jcircumflex" unicode="&#x135;" horiz-adv-x="271" 
d="M15 358v132h208v-478q0 -84 -43 -126t-114 -42q-72 0 -99 22v85q18 -3 37 -3q31 0 46 11.5t15 42.5v356h-50zM-25 539l85 148h150l85 -148h-98l-62 63l-62 -63h-98z" />
    <glyph glyph-name="Kcommaaccent" unicode="&#x136;" horiz-adv-x="639" 
d="M338 0v111h56l-163 193v-193h59v-111h-271v111h51v409h-51v119h271v-119h-59v-186l190 186h-83v119h280v-119h-45l-185 -180l195 -229h39v-111h-284zM320 -176h-93q20 41 20 86q0 26 -6 46h130q5 -15 5 -28q0 -64 -56 -104z" />
    <glyph glyph-name="kcommaaccent" unicode="&#x137;" horiz-adv-x="545" 
d="M365 0l-145 241v-130h45v-111h-250v111h46v443h-46v119h205v-410l158 227h138v-132h-81l-65 -89l101 -158h59v-111h-165zM295 -176h-93q20 41 20 86q0 26 -6 46h130q5 -15 5 -28q0 -64 -56 -104z" />
    <glyph glyph-name="Lacute" unicode="&#x139;" horiz-adv-x="539" 
d="M19 520v119h290v-119h-77v-397h154v90h134v-213h-501v111h52v409h-52zM96 682l33 118h185l-119 -118h-99z" />
    <glyph glyph-name="lacute" unicode="&#x13a;" horiz-adv-x="289" 
d="M15 554v119h209v-562h49v-111h-258v111h50v443h-50zM87 705l33 118h185l-119 -118h-99z" />
    <glyph glyph-name="Lcommaaccent" unicode="&#x13b;" horiz-adv-x="539" 
d="M19 520v119h290v-119h-77v-397h154v90h134v-213h-501v111h52v409h-52zM280 -176h-93q20 41 20 86q0 26 -6 46h130q5 -15 5 -28q0 -64 -56 -104z" />
    <glyph glyph-name="lcommaaccent" unicode="&#x13c;" horiz-adv-x="289" 
d="M15 554v119h209v-562h49v-111h-258v111h50v443h-50zM153 -176h-93q20 41 20 86q0 26 -6 46h130q5 -15 5 -28q0 -64 -56 -104z" />
    <glyph glyph-name="Lcaron" unicode="&#x13d;" horiz-adv-x="539" 
d="M19 520v119h290v-119h-77v-397h154v90h134v-213h-501v111h52v409h-52zM336 493l4 146h113l-40 -146h-77z" />
    <glyph glyph-name="lcaron" unicode="&#x13e;" horiz-adv-x="289" 
d="M15 554v119h209v-562h49v-111h-258v111h50v443h-50zM248 527l4 146h113l-40 -146h-77z" />
    <glyph glyph-name="Ldot" unicode="&#x13f;" horiz-adv-x="539" 
d="M19 0v111h52v409h-52v119h290v-119h-77v-397h154v76h134v-199h-501zM446 262q-36 0 -62 25.5t-26 61.5q0 37 26 63.5t62 26.5t61.5 -26.5t25.5 -63.5q0 -36 -25.5 -61.5t-61.5 -25.5z" />
    <glyph glyph-name="ldot" unicode="&#x140;" horiz-adv-x="402" 
d="M16 554v119h209v-562h49v-111h-258v111h50v443h-50zM344 251q-35 0 -60.5 25.5t-25.5 61.5t25.5 62t60.5 26q36 0 61.5 -26t25.5 -62t-25.5 -61.5t-61.5 -25.5z" />
    <glyph glyph-name="Lslash" unicode="&#x141;" horiz-adv-x="539" 
d="M19 520v119h290v-119h-77v-162l188 84v-86l-188 -84v-149h154v90h134v-213h-501v111h52v90l-54 -24v86l54 24v233h-52z" />
    <glyph glyph-name="lslash" unicode="&#x142;" horiz-adv-x="289" 
d="M16 554v119h209v-213l48 31v-95l-48 -31v-254h49v-111h-258v111h50v152l-51 -32v95l51 32v196h-50z" />
    <glyph glyph-name="Nacute" unicode="&#x143;" horiz-adv-x="697" 
d="M431 520v119h248v-119h-50v-520h-206l-223 488v-377h81v-111h-262v111h51v409h-51v119h281l199 -449v330h-68zM309 682l33 118h185l-119 -118h-99z" />
    <glyph glyph-name="nacute" unicode="&#x144;" horiz-adv-x="602" 
d="M326 0v111h57v194q0 80 -69 80q-43 0 -68.5 -33t-25.5 -93v-148h59v-111h-264v111h46v247h-46v132h174q27 -49 27 -113v-8q17 62 60.5 97.5t109.5 35.5q74 0 115 -45t41 -132v-214h45v-111h-261zM236 539l47 148h178l-133 -148h-92z" />
    <glyph glyph-name="Ncommaaccent" unicode="&#x145;" horiz-adv-x="697" 
d="M431 520v119h248v-119h-50v-520h-206l-223 488v-377h81v-111h-262v111h51v409h-51v119h281l199 -449v330h-68zM358 -176h-93q20 41 20 86q0 26 -6 46h130q5 -15 5 -28q0 -64 -56 -104z" />
    <glyph glyph-name="ncommaaccent" unicode="&#x146;" horiz-adv-x="602" 
d="M326 0v111h57v194q0 80 -69 80q-43 0 -68.5 -33t-25.5 -93v-148h59v-111h-264v111h46v247h-46v132h174q27 -49 27 -113v-8q17 62 60.5 97.5t109.5 35.5q74 0 115 -45t41 -132v-214h45v-111h-261zM305 -176h-93q20 41 20 86q0 26 -6 46h130q5 -15 5 -28q0 -64 -56 -104z
" />
    <glyph glyph-name="Ncaron" unicode="&#x147;" horiz-adv-x="697" 
d="M431 520v119h248v-119h-50v-520h-206l-223 488v-377h81v-111h-262v111h51v409h-51v119h281l199 -449v330h-68zM207 800h97l62 -44l62 44h97l-79 -118h-160z" />
    <glyph glyph-name="ncaron" unicode="&#x148;" horiz-adv-x="602" 
d="M326 0v111h57v194q0 80 -69 80q-43 0 -68.5 -33t-25.5 -93v-148h59v-111h-264v111h46v247h-46v132h174q27 -49 27 -113v-8q17 62 60.5 97.5t109.5 35.5q74 0 115 -45t41 -132v-214h45v-111h-261zM136 687h98l62 -63l62 63h98l-85 -148h-150z" />
    <glyph glyph-name="napostrophe" unicode="&#x149;" horiz-adv-x="703" 
d="M428 0v111h57v194q0 80 -69 80q-43 0 -68.5 -33t-25.5 -93v-148h59v-111h-264v111h46v247h-46v132h174q27 -49 27 -113v-8q17 62 60.5 97.5t109.5 35.5q74 0 115 -45t41 -132v-214h45v-111h-261zM-69 410q35 90 35 184q0 28 -4 45h141q2 -14 2 -29q0 -60 -17.5 -106
t-54.5 -94h-102z" />
    <glyph glyph-name="Eng" unicode="&#x14a;" horiz-adv-x="698" 
d="M19 520v119h281l199 -449v330h-68v119h248v-119h-50v-482q0 -92 -45 -140.5t-132 -48.5q-83 0 -120 33v96q33 -13 75 -13q74 0 82 53h-74l-215 470v-377h81v-111h-262v111h51v409h-51z" />
    <glyph glyph-name="eng" unicode="&#x14b;" horiz-adv-x="587" 
d="M15 358v132h174q27 -49 27 -113v-8q17 62 60.5 97.5t109.5 35.5q74 0 115 -45t41 -132v-306q0 -89 -44 -132t-116 -43q-77 0 -102 22v85q15 -3 32 -3q36 0 53.5 13.5t17.5 50.5v293q0 80 -69 80q-43 0 -68.5 -33t-25.5 -93v-148h59v-111h-264v111h46v247h-46z" />
    <glyph glyph-name="Omacron" unicode="&#x14c;" horiz-adv-x="676" 
d="M199 692v94h278v-94h-278zM338 103q148 0 148 200v47q0 86 -37 132.5t-111 46.5q-147 0 -147 -179v-47q0 -200 147 -200zM338 -15q-137 0 -226.5 87.5t-89.5 248.5v2q0 150 85.5 240t230.5 90t230.5 -90t85.5 -240v-2q0 -161 -89 -248.5t-227 -87.5z" />
    <glyph glyph-name="omacron" unicode="&#x14d;" horiz-adv-x="549" 
d="M140 550v94h271v-94h-271zM274 90q96 0 96 145v36q0 62 -26 94.5t-70 32.5t-69.5 -32t-25.5 -95v-36q0 -145 95 -145zM274 -11q-108 0 -181.5 65t-73.5 196v2q0 117 71 183.5t184 66.5t184.5 -66.5t71.5 -182.5v-2q0 -68 -21 -119.5t-57.5 -82t-81.5 -45.5t-96 -15z" />
    <glyph glyph-name="Obreve" unicode="&#x14e;" horiz-adv-x="676" 
d="M338 -15q-137 0 -226.5 87.5t-89.5 248.5v2q0 150 85.5 240t230.5 90t230.5 -90t85.5 -240v-2q0 -161 -89 -248.5t-227 -87.5zM338 103q148 0 148 200v47q0 86 -37 132.5t-111 46.5q-147 0 -147 -179v-47q0 -200 147 -200zM385 805h86q4 -57 -29.5 -97t-104.5 -40
q-70 0 -103 40t-29 97h85q0 -19 12 -31.5t35 -12.5q25 0 37 12.5t11 31.5z" />
    <glyph glyph-name="obreve" unicode="&#x14f;" horiz-adv-x="549" 
d="M274 -11q-108 0 -181.5 65t-73.5 196v2q0 117 71 183.5t184 66.5t184.5 -66.5t71.5 -182.5v-2q0 -68 -21 -119.5t-57.5 -82t-81.5 -45.5t-96 -15zM274 90q96 0 96 145v36q0 62 -26 94.5t-70 32.5t-69.5 -32t-25.5 -95v-36q0 -145 95 -145zM323 680h87q5 -58 -29.5 -100.5
t-106.5 -42.5q-71 0 -105.5 42.5t-28.5 100.5h86q-1 -22 11.5 -36.5t36.5 -14.5q25 0 37.5 14.5t11.5 36.5z" />
    <glyph glyph-name="Ohungarumlaut" unicode="&#x150;" horiz-adv-x="676" 
d="M191 682l37 118h147l-79 -118h-105zM361 682l38 118h146l-79 -118h-105zM338 103q148 0 148 200v47q0 86 -37 132.5t-111 46.5q-147 0 -147 -179v-47q0 -200 147 -200zM338 -15q-137 0 -226.5 87.5t-89.5 248.5v2q0 150 85.5 240t230.5 90t230.5 -90t85.5 -240v-2
q0 -161 -89 -248.5t-227 -87.5z" />
    <glyph glyph-name="ohungarumlaut" unicode="&#x151;" horiz-adv-x="549" 
d="M132 539l51 148h141l-88 -148h-104zM304 539l51 148h141l-88 -148h-104zM274 90q96 0 96 145v36q0 62 -26 94.5t-70 32.5t-69.5 -32t-25.5 -95v-36q0 -145 95 -145zM274 -11q-108 0 -181.5 65t-73.5 196v2q0 117 71 183.5t184 66.5t184.5 -66.5t71.5 -182.5v-2
q0 -68 -21 -119.5t-57.5 -82t-81.5 -45.5t-96 -15z" />
    <glyph glyph-name="OE" unicode="&#x152;" horiz-adv-x="861" 
d="M330 0q-308 0 -308 323v2q0 155 78 234.5t220 79.5h511v-209h-132v82h-143v-142h186v-115h-186v-145h149v89h132v-199h-507zM184 302q0 -96 34 -141.5t123 -45.5h54v395h-65q-80 0 -113 -38t-33 -118v-52z" />
    <glyph glyph-name="oe" unicode="&#x153;" horiz-adv-x="851" 
d="M635 -11q-141 0 -191 103q-56 -103 -181 -103q-102 0 -173.5 65.5t-71.5 195.5v2q0 117 69 183.5t176 66.5q126 0 182 -101q51 101 176 101q99 0 154.5 -57.5t55.5 -149.5q0 -45 -15 -81h-294q4 -59 40 -82.5t106 -23.5q82 0 140 29v-84q-19 -26 -66 -45t-107 -19z
M272 90q94 0 94 145v36q0 62 -25.5 94.5t-68.5 32.5t-68.5 -32t-25.5 -95v-36q0 -145 94 -145zM613 403q-41 0 -65 -29.5t-26 -88.5h168v10q0 108 -77 108z" />
    <glyph glyph-name="Racute" unicode="&#x154;" horiz-adv-x="611" 
d="M416 0l-185 277v-166h57v-111h-269v111h51v409h-51v119h305q120 0 183.5 -48.5t63.5 -142.5q0 -72 -39.5 -118t-115.5 -61l109 -158h70v-111h-179zM231 337h76q55 0 78 21.5t23 69.5t-23 68t-73 20h-81v-179zM241 682l33 118h185l-119 -118h-99z" />
    <glyph glyph-name="racute" unicode="&#x155;" horiz-adv-x="417" 
d="M15 358v132h174q27 -56 27 -133v-23q29 163 134 163q33 0 47 -26v-127q-90 4 -133.5 -29t-43.5 -121v-83h71v-111h-276v111h46v247h-46zM167 539l47 148h178l-133 -148h-92z" />
    <glyph glyph-name="Rcommaaccent" unicode="&#x156;" horiz-adv-x="611" 
d="M416 0l-185 277v-166h57v-111h-269v111h51v409h-51v119h305q120 0 183.5 -48.5t63.5 -142.5q0 -72 -39.5 -118t-115.5 -61l109 -158h70v-111h-179zM231 337h76q55 0 78 21.5t23 69.5t-23 68t-73 20h-81v-179zM326 -176h-93q20 41 20 86q0 26 -6 46h130q5 -15 5 -28
q0 -64 -56 -104z" />
    <glyph glyph-name="rcommaaccent" unicode="&#x157;" horiz-adv-x="417" 
d="M15 358v132h174q27 -56 27 -133v-23q29 163 134 163q33 0 47 -26v-127q-90 4 -133.5 -29t-43.5 -121v-83h71v-111h-276v111h46v247h-46zM149 -176h-93q20 41 20 86q0 26 -6 46h130q5 -15 5 -28q0 -64 -56 -104z" />
    <glyph glyph-name="Rcaron" unicode="&#x158;" horiz-adv-x="611" 
d="M19 520v119h305q120 0 183.5 -48.5t63.5 -142.5q0 -72 -39.5 -118t-115.5 -61l109 -158h70v-111h-179l-185 277v-166h57v-111h-269v111h51v409h-51zM231 337h76q55 0 78 21.5t23 69.5t-23 68t-73 20h-81v-179zM136 800h97l62 -44l62 44h97l-79 -118h-160z" />
    <glyph glyph-name="rcaron" unicode="&#x159;" horiz-adv-x="417" 
d="M15 358v132h174q27 -56 27 -133v-23q29 163 134 163q33 0 47 -26v-127q-90 4 -133.5 -29t-43.5 -121v-83h71v-111h-276v111h46v247h-46zM67 687h98l62 -63l62 63h98l-85 -148h-150z" />
    <glyph glyph-name="Sacute" unicode="&#x15a;" horiz-adv-x="533" 
d="M340 451v78q-44 6 -65 6q-98 0 -98 -68q0 -41 44 -56q14 -5 95 -22.5t115 -37.5q79 -47 79 -156q0 -104 -67.5 -157t-182.5 -53q-81 0 -142.5 19t-91.5 49v142h137v-89q47 -9 82 -9q106 0 106 76q0 40 -49 56q-12 5 -84.5 21.5t-107.5 36.5q-80 44 -80 163q0 101 68 152
t166 51q72 0 128 -17t84 -45v-140h-136zM210 682l33 118h185l-119 -118h-99z" />
    <glyph glyph-name="sacute" unicode="&#x15b;" horiz-adv-x="436" 
d="M274 348v54q-26 3 -51 3q-73 0 -73 -48q0 -29 30 -36q6 -2 75 -12t97 -27q65 -36 65 -122q0 -85 -55.5 -129.5t-155.5 -44.5q-126 0 -187 52v108h124v-56q24 -4 56 -4q81 0 81 49q0 26 -33 37q-7 2 -67.5 11.5t-90.5 25.5q-67 36 -67 126q0 87 57 127t146 40
q57 0 103 -13t68 -32v-109h-122zM158 539l47 148h178l-133 -148h-92z" />
    <glyph glyph-name="Scircumflex" unicode="&#x15c;" horiz-adv-x="533" 
d="M340 451v78q-44 6 -65 6q-98 0 -98 -68q0 -41 44 -56q14 -5 95 -22.5t115 -37.5q79 -47 79 -156q0 -104 -67.5 -157t-182.5 -53q-81 0 -142.5 19t-91.5 49v142h137v-89q47 -9 82 -9q106 0 106 76q0 40 -49 56q-12 5 -84.5 21.5t-107.5 36.5q-80 44 -80 163q0 101 68 152
t166 51q72 0 128 -17t84 -45v-140h-136zM426 682h-97l-62 44l-62 -44h-97l79 118h160z" />
    <glyph glyph-name="scircumflex" unicode="&#x15d;" horiz-adv-x="436" 
d="M274 348v54q-26 3 -51 3q-73 0 -73 -48q0 -29 30 -36q6 -2 75 -12t97 -27q65 -36 65 -122q0 -85 -55.5 -129.5t-155.5 -44.5q-126 0 -187 52v108h124v-56q24 -4 56 -4q81 0 81 49q0 26 -33 37q-7 2 -67.5 11.5t-90.5 25.5q-67 36 -67 126q0 87 57 127t146 40
q57 0 103 -13t68 -32v-109h-122zM60 539l85 148h150l85 -148h-98l-62 63l-62 -63h-98z" />
    <glyph glyph-name="Scedilla" unicode="&#x15e;" horiz-adv-x="533" 
d="M340 451v78q-44 6 -65 6q-98 0 -98 -68q0 -41 44 -56q14 -5 95 -22.5t115 -37.5q79 -47 79 -156q0 -103 -66 -155.5t-179 -54.5v-22q88 -6 88 -73q0 -38 -28 -57.5t-75 -19.5q-53 0 -78 21v48q22 -9 50 -9q37 0 37 22q0 24 -62 25v69q-120 13 -171 64v142h137v-89
q47 -9 82 -9q106 0 106 76q0 40 -49 56q-12 5 -84.5 21.5t-107.5 36.5q-80 44 -80 163q0 101 68 152t166 51q72 0 128 -17t84 -45v-140h-136z" />
    <glyph glyph-name="scedilla" unicode="&#x15f;" horiz-adv-x="436" 
d="M274 348v54q-26 3 -51 3q-73 0 -73 -48q0 -29 30 -36q6 -2 75 -12t97 -27q65 -36 65 -122q0 -82 -52 -126.5t-145 -47.5v-23q88 -6 88 -73q0 -38 -28.5 -57.5t-75.5 -19.5q-53 0 -78 21v48q22 -9 50 -9q37 0 37 22q0 24 -62 25v69q-88 10 -132 49v108h124v-56
q24 -4 56 -4q81 0 81 49q0 26 -33 37q-7 2 -67.5 11.5t-90.5 25.5q-67 36 -67 126q0 87 57 127t146 40q57 0 103 -13t68 -32v-109h-122z" />
    <glyph glyph-name="Scaron" unicode="&#x160;" horiz-adv-x="533" 
d="M340 451v78q-44 6 -65 6q-98 0 -98 -68q0 -41 44 -56q14 -5 95 -22.5t115 -37.5q79 -47 79 -156q0 -104 -67.5 -157t-182.5 -53q-81 0 -142.5 19t-91.5 49v142h137v-89q47 -9 82 -9q106 0 106 76q0 40 -49 56q-12 5 -84.5 21.5t-107.5 36.5q-80 44 -80 163q0 101 68 152
t166 51q72 0 128 -17t84 -45v-140h-136zM108 800h97l62 -44l62 44h97l-79 -118h-160z" />
    <glyph glyph-name="scaron" unicode="&#x161;" horiz-adv-x="436" 
d="M274 348v54q-26 3 -51 3q-73 0 -73 -48q0 -29 30 -36q6 -2 75 -12t97 -27q65 -36 65 -122q0 -85 -55.5 -129.5t-155.5 -44.5q-126 0 -187 52v108h124v-56q24 -4 56 -4q81 0 81 49q0 26 -33 37q-7 2 -67.5 11.5t-90.5 25.5q-67 36 -67 126q0 87 57 127t146 40
q57 0 103 -13t68 -32v-109h-122zM60 687h98l62 -63l62 63h98l-85 -148h-150z" />
    <glyph glyph-name="Tcommaaccent" unicode="&#x162;" horiz-adv-x="614" 
d="M466 414v103h-78v-406h65v-111h-292v111h65v406h-78v-103h-128v225h574v-225h-128zM316 -176h-93q20 41 20 86q0 26 -6 46h130q5 -15 5 -28q0 -64 -56 -104z" />
    <glyph glyph-name="tcommaaccent" unicode="&#x163;" horiz-adv-x="396" 
d="M230 -176h-93q20 41 20 86q0 26 -6 46h130q5 -15 5 -28q0 -64 -56 -104zM240 -13q-70 0 -117 37t-47 120v237h-61v88q59 6 84 39t44 111h91v-129h138v-109h-138v-200q0 -42 18.5 -60t60.5 -18q31 0 59 11v-76q-35 -51 -132 -51z" />
    <glyph glyph-name="Tcaron" unicode="&#x164;" horiz-adv-x="614" 
d="M466 414v103h-78v-406h65v-111h-292v111h65v406h-78v-103h-128v225h574v-225h-128zM148 800h97l62 -44l62 44h97l-79 -118h-160z" />
    <glyph glyph-name="tcaron" unicode="&#x165;" horiz-adv-x="396" 
d="M272 527l4 146h113l-40 -146h-77zM240 -13q-70 0 -117 37t-47 120v237h-61v88q59 6 84 39t44 111h91v-129h138v-109h-138v-200q0 -42 18.5 -60t60.5 -18q31 0 59 11v-76q-35 -51 -132 -51z" />
    <glyph glyph-name="Tbar" unicode="&#x166;" horiz-adv-x="614" 
d="M466 414v103h-78v-164h126v-100h-126v-142h65v-111h-292v111h65v142h-126v100h126v164h-78v-103h-128v225h574v-225h-128z" />
    <glyph glyph-name="tbar" unicode="&#x167;" horiz-adv-x="400" 
d="M240 -13q-70 0 -117 37t-47 120v92h-59v83h59v62h-61v88q59 6 84 39t44 111h91v-129h138v-109h-138v-62h140v-83h-140v-55q0 -42 18.5 -60t60.5 -18q31 0 59 11v-76q-35 -51 -132 -51z" />
    <glyph glyph-name="Utilde" unicode="&#x168;" horiz-adv-x="687" 
d="M395 520v119h274v-119h-45v-245q0 -152 -70 -221t-210 -69t-210.5 69.5t-70.5 221.5v244h-45v119h274v-119h-67v-269q0 -73 26 -107.5t93 -34.5q66 0 92.5 34.5t26.5 106.5v270h-68zM196 677q-18 55 4 99t75 44q33 0 75.5 -16.5t52.5 -16.5q14 0 19.5 8t7.5 29h62
q18 -55 -3.5 -99t-72.5 -44q-32 0 -75.5 16.5t-55.5 16.5q-14 0 -19.5 -8t-7.5 -29h-62z" />
    <glyph glyph-name="utilde" unicode="&#x169;" horiz-adv-x="598" 
d="M409 0q-24 54 -24 110v5q-18 -60 -59.5 -93.5t-103.5 -33.5q-162 0 -162 183v187h-45v132h203v-306q0 -87 69 -87q43 0 67.5 34t24.5 99v128h-66v132h224v-379h46v-111h-174zM149 545q-19 55 1.5 100t76.5 45q33 0 71 -16.5t48 -16.5q14 0 19.5 8t7.5 29h62
q18 -55 -1.5 -100t-74.5 -45q-31 0 -71 16.5t-51 16.5q-13 0 -18.5 -8t-7.5 -29h-62z" />
    <glyph glyph-name="Umacron" unicode="&#x16a;" horiz-adv-x="687" 
d="M395 520v119h274v-119h-45v-245q0 -152 -70 -221t-210 -69t-210.5 69.5t-70.5 221.5v244h-45v119h274v-119h-67v-269q0 -73 26 -107.5t93 -34.5q66 0 92.5 34.5t26.5 106.5v270h-68zM205 692v94h278v-94h-278z" />
    <glyph glyph-name="umacron" unicode="&#x16b;" horiz-adv-x="598" 
d="M313 358v132h224v-379h46v-111h-174q-24 54 -24 110v5q-18 -60 -59.5 -93.5t-103.5 -33.5q-162 0 -162 183v187h-45v132h203v-306q0 -87 69 -87q43 0 67.5 34t24.5 99v128h-66zM157 550v94h271v-94h-271z" />
    <glyph glyph-name="Ubreve" unicode="&#x16c;" horiz-adv-x="687" 
d="M395 520v119h274v-119h-45v-245q0 -152 -70 -221t-210 -69t-210.5 69.5t-70.5 221.5v244h-45v119h274v-119h-67v-269q0 -73 26 -107.5t93 -34.5q66 0 92.5 34.5t26.5 106.5v270h-68zM391 805h86q4 -57 -29.5 -97t-104.5 -40q-70 0 -103 40t-29 97h85q0 -19 12 -31.5
t35 -12.5q25 0 37 12.5t11 31.5z" />
    <glyph glyph-name="ubreve" unicode="&#x16d;" horiz-adv-x="598" 
d="M409 0q-24 54 -24 110v5q-18 -60 -59.5 -93.5t-103.5 -33.5q-162 0 -162 183v187h-45v132h203v-306q0 -87 69 -87q43 0 67.5 34t24.5 99v128h-66v132h224v-379h46v-111h-174zM340 680h87q5 -58 -29.5 -100.5t-106.5 -42.5q-71 0 -105.5 42.5t-28.5 100.5h86
q-1 -22 11.5 -36.5t36.5 -14.5q25 0 37.5 14.5t11.5 36.5z" />
    <glyph glyph-name="Uring" unicode="&#x16e;" horiz-adv-x="687" 
d="M395 520v119h274v-119h-45v-245q0 -152 -70 -221t-210 -69t-210.5 69.5t-70.5 221.5v244h-45v119h274v-119h-67v-269q0 -73 26 -107.5t93 -34.5q66 0 92.5 34.5t26.5 106.5v270h-68zM343 652q-45 0 -76.5 31t-31.5 76t31.5 76.5t76.5 31.5t77 -31.5t32 -76.5
q0 -44 -31.5 -75.5t-77.5 -31.5zM343 715q18 0 30.5 12t12.5 32t-12.5 32.5t-30.5 12.5t-29.5 -12.5t-11.5 -32.5t11.5 -32t29.5 -12z" />
    <glyph glyph-name="uring" unicode="&#x16f;" horiz-adv-x="598" 
d="M409 0q-24 54 -24 110v5q-18 -60 -59.5 -93.5t-103.5 -33.5q-162 0 -162 183v187h-45v132h203v-306q0 -87 69 -87q43 0 67.5 34t24.5 99v128h-66v132h224v-379h46v-111h-174zM291 531q-46 0 -77 31t-31 76q0 44 31.5 75.5t76.5 31.5q46 0 77.5 -31.5t31.5 -75.5
q0 -45 -31.5 -76t-77.5 -31zM291 591q18 0 30.5 13t12.5 34q0 20 -12.5 33.5t-30.5 13.5q-17 0 -29.5 -13.5t-12.5 -33.5q0 -21 12 -34t30 -13z" />
    <glyph glyph-name="Uhungarumlaut" unicode="&#x170;" horiz-adv-x="687" 
d="M395 520v119h274v-119h-45v-245q0 -152 -70 -221t-210 -69t-210.5 69.5t-70.5 221.5v244h-45v119h274v-119h-67v-269q0 -73 26 -107.5t93 -34.5q66 0 92.5 34.5t26.5 106.5v270h-68zM197 682l37 118h147l-79 -118h-105zM367 682l38 118h146l-79 -118h-105z" />
    <glyph glyph-name="uhungarumlaut" unicode="&#x171;" horiz-adv-x="598" 
d="M313 358v132h224v-379h46v-111h-174q-24 54 -24 110v5q-18 -60 -59.5 -93.5t-103.5 -33.5q-162 0 -162 183v187h-45v132h203v-306q0 -87 69 -87q43 0 67.5 34t24.5 99v128h-66zM321 539l51 148h141l-88 -148h-104zM149 539l51 148h141l-88 -148h-104z" />
    <glyph glyph-name="Uogonek" unicode="&#x172;" horiz-adv-x="687" 
d="M18 520v119h274v-119h-67v-269q0 -73 26 -107.5t93 -34.5q66 0 92.5 34.5t26.5 106.5v270h-68v119h274v-119h-45v-245q0 -197 -124 -259q-40 -19 -60 -35t-20 -37q0 -23 23 -23q15 0 24 6v-61q-17 -21 -74 -21q-45 0 -71 19t-26 51q0 47 55 70h-10q-138 0 -208 69.5
t-70 221.5v244h-45z" />
    <glyph glyph-name="uogonek" unicode="&#x173;" horiz-adv-x="598" 
d="M583 0h-92q-46 -26 -46 -56q0 -24 24 -24q13 0 25 6v-60q-16 -21 -73 -21q-45 0 -71 19t-26 52q0 28 23 51t60 37q-22 48 -22 106v5q-18 -60 -59.5 -93.5t-103.5 -33.5q-162 0 -162 183v187h-45v132h203v-306q0 -87 69 -87q43 0 67.5 34t24.5 99v128h-66v132h224v-379h46
v-111z" />
    <glyph glyph-name="Wcircumflex" unicode="&#x174;" horiz-adv-x="921" 
d="M563 0l-103 440l-96 -440h-199l-115 520h-34v119h274v-119h-73l68 -362l110 481h167l112 -481l69 362h-74v119h236v-119h-34l-114 -520h-194zM639 682h-97l-62 44l-62 -44h-97l79 118h160z" />
    <glyph glyph-name="wcircumflex" unicode="&#x175;" horiz-adv-x="783" 
d="M466 0l-69 328l-69 -328h-191l-81 358h-43v132h247v-125h-55l49 -255l78 380h155l85 -380l44 255h-57v125h211v-132h-42l-77 -358h-185zM250 539l85 148h150l85 -148h-98l-62 63l-62 -63h-98z" />
    <glyph glyph-name="Ycircumflex" unicode="&#x176;" horiz-adv-x="604" 
d="M16 520v119h273v-119h-60l95 -173l93 173h-58v119h230v-119h-40l-163 -293v-116h66v-111h-293v111h66v111l-170 298h-39zM483 682h-97l-62 44l-62 -44h-97l79 118h160z" />
    <glyph glyph-name="ycircumflex" unicode="&#x177;" horiz-adv-x="564" 
d="M322 358v132h229v-132h-47l-130 -352q-28 -84 -74 -123t-121 -39q-73 0 -117 37v92q42 -14 87 -14q75 0 96 50l4 11h-58l-131 338h-47v132h263v-132h-60l86 -236l79 236h-59zM137 539l85 148h150l85 -148h-98l-62 63l-62 -63h-98z" />
    <glyph glyph-name="Ydieresis" unicode="&#x178;" horiz-adv-x="604" 
d="M16 520v119h273v-119h-60l95 -173l93 173h-58v119h230v-119h-40l-163 -293v-116h66v-111h-293v111h66v111l-170 298h-39zM430 666q-33 0 -56.5 22.5t-23.5 54.5t23.5 55t56.5 23q32 0 56 -23t24 -55q0 -31 -24 -54t-56 -23zM219 666q-32 0 -56 23t-24 54q0 32 24 55
t56 23q33 0 56.5 -23t23.5 -55t-23.5 -54.5t-56.5 -22.5z" />
    <glyph glyph-name="Zacute" unicode="&#x179;" horiz-adv-x="560" 
d="M43 430v209h492v-151l-351 -379h218v90h134v-199h-514v143l342 376h-187v-89h-134zM230 682l33 118h185l-119 -118h-99z" />
    <glyph glyph-name="zacute" unicode="&#x17a;" horiz-adv-x="475" 
d="M33 329v161h417v-144l-297 -255h178v80h124v-171h-435v144l287 247h-153v-62h-121zM188 539l47 148h178l-133 -148h-92z" />
    <glyph glyph-name="Zdotaccent" unicode="&#x17b;" horiz-adv-x="560" 
d="M43 430v209h492v-151l-351 -379h218v90h134v-199h-514v143l342 376h-187v-89h-134zM287 676q-35 0 -59.5 24t-24.5 58q0 35 24.5 59.5t59.5 24.5q36 0 60 -24.5t24 -59.5t-24 -58.5t-60 -23.5z" />
    <glyph glyph-name="zdotaccent" unicode="&#x17c;" horiz-adv-x="475" 
d="M33 329v161h417v-144l-297 -255h178v80h124v-171h-435v144l287 247h-153v-62h-121zM247 531q-35 0 -59.5 24t-24.5 58q0 35 24.5 59.5t59.5 24.5q36 0 60 -24.5t24 -59.5t-24 -58.5t-60 -23.5z" />
    <glyph glyph-name="Zcaron" unicode="&#x17d;" horiz-adv-x="560" 
d="M43 430v209h492v-151l-351 -379h218v90h134v-199h-514v143l342 376h-187v-89h-134zM128 800h97l62 -44l62 44h97l-79 -118h-160z" />
    <glyph glyph-name="zcaron" unicode="&#x17e;" horiz-adv-x="475" 
d="M33 329v161h417v-144l-297 -255h178v80h124v-171h-435v144l287 247h-153v-62h-121zM83 687h98l62 -63l62 63h98l-85 -148h-150z" />
    <glyph glyph-name="florin" unicode="&#x192;" horiz-adv-x="417" 
d="M20 414h81l8 80q9 92 58 139t128 47q67 0 98 -27v-96q-18 5 -45 5q-38 0 -57 -16.5t-23 -57.5l-8 -74h123v-113h-134l-43 -447h-159l43 447h-70v113z" />
    <glyph glyph-name="Aringacute" unicode="&#x1fa;" horiz-adv-x="669" 
d="M16 0v111h38l167 528h233l162 -528h37v-111h-280v111h72l-22 73h-209l-21 -73h68v-111h-245zM336 656q-46 0 -77 31t-31 76t31.5 76.5t76.5 31.5q46 0 77.5 -31.5t31.5 -76.5q0 -44 -31.5 -75.5t-77.5 -31.5zM319 543l-74 -252h147zM280 889l33 118h185l-119 -118h-99z
M336 719q18 0 30.5 12t12.5 32t-12.5 32.5t-30.5 12.5t-29.5 -12.5t-11.5 -32.5t11.5 -32t29.5 -12z" />
    <glyph glyph-name="aringacute" unicode="&#x1fb;" horiz-adv-x="519" 
d="M47 316v115q66 71 199 71q112 0 162 -53t50 -155v-158q0 -34 31 -34q6 0 16 2v-93q-26 -20 -80 -20t-85 24.5t-36 68.5q-32 -97 -146 -97q-63 0 -101.5 34.5t-38.5 93.5v1q0 30 10.5 53.5t25.5 38t43 27t50 18.5t59 15q52 13 73 25t21 34v3q0 66 -84 66q-22 0 -41 -3v-77
h-128zM253 526q-46 0 -77 31t-31 76t31.5 76t76.5 31q46 0 77.5 -31.5t31.5 -75.5q0 -45 -31.5 -76t-77.5 -31zM196 762l33 118h185l-119 -118h-99zM231 74q30 0 49.5 26t19.5 73v71q-17 -17 -57 -38q-35 -15 -50 -30.5t-15 -42.5v-5q0 -25 14 -39.5t39 -14.5zM253 586
q18 0 30.5 13t12.5 34q0 20 -12.5 33.5t-30.5 13.5q-17 0 -29.5 -13.5t-12.5 -33.5q0 -21 12 -34t30 -13z" />
    <glyph glyph-name="AEacute" unicode="&#x1fc;" horiz-adv-x="869" 
d="M147 520v119h692v-209h-132v82h-149v-142h192v-115h-192v-145h155v89h132v-199h-498v111h50v71h-180l-26 -71h65v-111h-240v111h35l156 409h-60zM346 526l-88 -235h139v235h-51zM465 682l33 118h185l-119 -118h-99z" />
    <glyph glyph-name="aeacute" unicode="&#x1fd;" horiz-adv-x="783" 
d="M168 -13q-70 0 -110 34.5t-40 96.5v1q0 36 13.5 61.5t43 42.5t56 25.5t72.5 19.5q53 13 73.5 25t20.5 34v3q0 66 -84 66q-21 0 -41 -3v-77h-128v115q66 71 196 71q114 0 155 -66q55 66 153 66q102 0 159 -57t57 -150q0 -40 -15 -81h-291q4 -61 38.5 -83.5t103.5 -22.5
q82 0 140 29v-84q-18 -26 -67 -45t-116 -19q-167 0 -223 110q-32 -112 -166 -112zM337 539l47 148h178l-133 -148h-92zM547 403q-85 0 -89 -118h164v10q0 108 -75 108zM231 74q30 0 49.5 26t19.5 73v71q-17 -17 -57 -38q-35 -15 -50 -30.5t-15 -42.5v-5q0 -25 14 -39.5
t39 -14.5z" />
    <glyph glyph-name="Oslashacute" unicode="&#x1fe;" horiz-adv-x="676" 
d="M339 -15q-103 0 -182 50l-43 -54h-92l80 101q-80 90 -80 239v2q0 150 86 240t231 90q103 0 179 -48l41 51h92l-78 -98q81 -89 81 -235v-2q0 -162 -88.5 -249t-226.5 -87zM339 103q150 0 150 200v47q0 50 -11 89l-242 -305q34 -31 103 -31zM188 303q0 -61 10 -100l239 300
q-35 26 -98 26q-75 0 -113 -47t-38 -132v-47zM281 682l33 118h185l-119 -118h-99z" />
    <glyph glyph-name="oslashacute" unicode="&#x1ff;" horiz-adv-x="549" 
d="M274 -11q-81 0 -142 35l-35 -43h-78l66 80q-66 68 -66 189v2q0 117 71 183.5t184 66.5q82 0 144 -37l31 37h78l-61 -74q64 -67 64 -175v-2q0 -68 -21 -119.5t-57.5 -82t-81.5 -45.5t-96 -15zM214 539l47 148h178l-133 -148h-92zM176 235q0 -35 3 -60l165 200
q-24 24 -70 24q-44 0 -71 -33t-27 -95v-36zM274 88q99 0 99 147v36q0 23 -3 42l-166 -202q22 -23 70 -23z" />
    <glyph glyph-name="Scommaaccent" unicode="&#x218;" horiz-adv-x="533" 
d="M340 451v78q-44 6 -65 6q-98 0 -98 -68q0 -41 44 -56q14 -5 95 -22.5t115 -37.5q79 -47 79 -156q0 -104 -67.5 -157t-182.5 -53q-81 0 -142.5 19t-91.5 49v142h137v-89q47 -9 82 -9q106 0 106 76q0 40 -49 56q-12 5 -84.5 21.5t-107.5 36.5q-80 44 -80 163q0 101 68 152
t166 51q72 0 128 -17t84 -45v-140h-136zM265 -176h-93q20 41 20 86q0 26 -6 46h130q5 -15 5 -28q0 -64 -56 -104z" />
    <glyph glyph-name="scommaaccent" unicode="&#x219;" horiz-adv-x="436" 
d="M274 348v54q-26 3 -51 3q-73 0 -73 -48q0 -29 30 -36q6 -2 75 -12t97 -27q65 -36 65 -122q0 -85 -55.5 -129.5t-155.5 -44.5q-126 0 -187 52v108h124v-56q24 -4 56 -4q81 0 81 49q0 26 -33 37q-7 2 -67.5 11.5t-90.5 25.5q-67 36 -67 126q0 87 57 127t146 40
q57 0 103 -13t68 -32v-109h-122zM224 -176h-93q20 41 20 86q0 26 -6 46h130q5 -15 5 -28q0 -64 -56 -104z" />
    <glyph glyph-name="uni021A" unicode="&#x21a;" horiz-adv-x="614" 
d="M466 414v103h-78v-406h65v-111h-292v111h65v406h-78v-103h-128v225h574v-225h-128zM316 -176h-93q20 41 20 86q0 26 -6 46h130q5 -15 5 -28q0 -64 -56 -104z" />
    <glyph glyph-name="uni021B" unicode="&#x21b;" horiz-adv-x="396" 
d="M230 -176h-93q20 41 20 86q0 26 -6 46h130q5 -15 5 -28q0 -64 -56 -104zM240 -13q-70 0 -117 37t-47 120v237h-61v88q59 6 84 39t44 111h91v-129h138v-109h-138v-200q0 -42 18.5 -60t60.5 -18q31 0 59 11v-76q-35 -51 -132 -51z" />
    <glyph glyph-name="uni0237" unicode="&#x237;" horiz-adv-x="271" 
d="M15 358v132h208v-478q0 -84 -43 -126t-114 -42q-72 0 -99 22v85q18 -3 37 -3q31 0 46 11.5t15 42.5v356h-50z" />
    <glyph glyph-name="circumflex" unicode="&#x2c6;" horiz-adv-x="400" 
d="M40 539l85 148h150l85 -148h-98l-62 63l-62 -63h-98z" />
    <glyph glyph-name="caron" unicode="&#x2c7;" horiz-adv-x="400" 
d="M40 687h98l62 -63l62 63h98l-85 -148h-150z" />
    <glyph glyph-name="breve" unicode="&#x2d8;" horiz-adv-x="400" 
d="M248 680h87q5 -58 -29.5 -100.5t-106.5 -42.5q-71 0 -105.5 42.5t-28.5 100.5h86q-1 -22 11.5 -36.5t36.5 -14.5q25 0 37.5 14.5t11.5 36.5z" />
    <glyph glyph-name="dotaccent" unicode="&#x2d9;" horiz-adv-x="400" 
d="M200 531q-35 0 -59.5 24t-24.5 58q0 35 24.5 59.5t59.5 24.5q36 0 60 -24.5t24 -59.5t-24 -58.5t-60 -23.5z" />
    <glyph glyph-name="ring" unicode="&#x2da;" horiz-adv-x="394" 
d="M197 591q18 0 30.5 13t12.5 34q0 20 -12.5 33.5t-30.5 13.5q-17 0 -29.5 -13.5t-12.5 -33.5q0 -21 12 -34t30 -13zM197 531q-46 0 -77 31t-31 76q0 44 31.5 75.5t76.5 31.5q46 0 77.5 -31.5t31.5 -75.5q0 -45 -31.5 -76t-77.5 -31z" />
    <glyph glyph-name="ogonek" unicode="&#x2db;" horiz-adv-x="400" 
d="M206 -155q-45 0 -71 19t-26 52q0 61 97 84h70q-46 -26 -46 -56q0 -24 24 -24q13 0 25 6v-60q-16 -21 -73 -21z" />
    <glyph glyph-name="tilde" unicode="&#x2dc;" horiz-adv-x="400" 
d="M57 545q-19 55 1.5 100t76.5 45q33 0 71 -16.5t48 -16.5q14 0 19.5 8t7.5 29h62q18 -55 -1.5 -100t-74.5 -45q-31 0 -71 16.5t-51 16.5q-13 0 -18.5 -8t-7.5 -29h-62z" />
    <glyph glyph-name="hungarumlaut" unicode="&#x2dd;" horiz-adv-x="400" 
d="M57 539l51 148h141l-88 -148h-104zM229 539l51 148h141l-88 -148h-104z" />
    <glyph glyph-name="Wgrave" unicode="&#x1e80;" horiz-adv-x="921" 
d="M563 0l-103 440l-96 -440h-199l-115 520h-34v119h274v-119h-73l68 -362l110 481h167l112 -481l69 362h-74v119h236v-119h-34l-114 -520h-194zM438 682l-119 118h185l33 -118h-99z" />
    <glyph glyph-name="wgrave" unicode="&#x1e81;" horiz-adv-x="783" 
d="M466 0l-69 328l-69 -328h-191l-81 358h-43v132h247v-125h-55l49 -255l78 380h155l85 -380l44 255h-57v125h211v-132h-42l-77 -358h-185zM375 539l-126 148h179l44 -148h-97z" />
    <glyph glyph-name="Wacute" unicode="&#x1e82;" horiz-adv-x="921" 
d="M563 0l-103 440l-96 -440h-199l-115 520h-34v119h274v-119h-73l68 -362l110 481h167l112 -481l69 362h-74v119h236v-119h-34l-114 -520h-194zM423 682l33 118h185l-119 -118h-99z" />
    <glyph glyph-name="wacute" unicode="&#x1e83;" horiz-adv-x="783" 
d="M466 0l-69 328l-69 -328h-191l-81 358h-43v132h247v-125h-55l49 -255l78 380h155l85 -380l44 255h-57v125h211v-132h-42l-77 -358h-185zM350 539l47 148h178l-133 -148h-92z" />
    <glyph glyph-name="Wdieresis" unicode="&#x1e84;" horiz-adv-x="921" 
d="M563 0l-103 440l-96 -440h-199l-115 520h-34v119h274v-119h-73l68 -362l110 481h167l112 -481l69 362h-74v119h236v-119h-34l-114 -520h-194zM585 666q-33 0 -56.5 22.5t-23.5 54.5t23.5 55t56.5 23q32 0 56 -23t24 -55q0 -31 -24 -54t-56 -23zM374 666q-32 0 -56 23
t-24 54q0 32 24 55t56 23q33 0 56.5 -23t23.5 -55t-23.5 -54.5t-56.5 -22.5z" />
    <glyph glyph-name="wdieresis" unicode="&#x1e85;" horiz-adv-x="783" 
d="M466 0l-69 328l-69 -328h-191l-81 358h-43v132h247v-125h-55l49 -255l78 380h155l85 -380l44 255h-57v125h211v-132h-42l-77 -358h-185zM308 529q-33 0 -56.5 22.5t-23.5 54.5t23.5 55t56.5 23q32 0 56 -23t24 -55q0 -31 -24 -54t-56 -23zM510 529q-32 0 -56 23t-24 54
q0 32 24 55t56 23q33 0 56.5 -23t23.5 -55t-23.5 -54.5t-56.5 -22.5z" />
    <glyph glyph-name="Ygrave" unicode="&#x1ef2;" horiz-adv-x="604" 
d="M16 520v119h273v-119h-60l95 -173l93 173h-58v119h230v-119h-40l-163 -293v-116h66v-111h-293v111h66v111l-170 298h-39zM282 682l-119 118h185l33 -118h-99z" />
    <glyph glyph-name="ygrave" unicode="&#x1ef3;" horiz-adv-x="564" 
d="M322 358v132h229v-132h-47l-130 -352q-28 -84 -74 -123t-121 -39q-73 0 -117 37v92q42 -14 87 -14q75 0 96 50l4 11h-58l-131 338h-47v132h263v-132h-60l86 -236l79 236h-59zM267 539l-126 148h179l44 -148h-97z" />
    <glyph glyph-name="uni2009" unicode="&#x2009;" horiz-adv-x="70" 
 />
    <glyph glyph-name="endash" unicode="&#x2013;" horiz-adv-x="591" 
d="M43 222v95h505v-95h-505z" />
    <glyph glyph-name="emdash" unicode="&#x2014;" horiz-adv-x="977" 
d="M43 222v95h891v-95h-891z" />
    <glyph glyph-name="quoteleft" unicode="&#x2018;" horiz-adv-x="231" 
d="M37 410q-2 14 -2 28q0 110 72 201h103q-36 -92 -36 -184q0 -19 4 -45h-141z" />
    <glyph glyph-name="quoteright" unicode="&#x2019;" horiz-adv-x="231" 
d="M22 410q35 90 35 184q0 28 -4 45h141q2 -14 2 -29q0 -60 -17.5 -106t-54.5 -94h-102z" />
    <glyph glyph-name="quotesinglbase" unicode="&#x201a;" horiz-adv-x="221" 
d="M118 -70h-102q36 94 36 184q0 18 -4 46h140q3 -12 3 -29q0 -61 -17.5 -107.5t-55.5 -93.5z" />
    <glyph glyph-name="quotedblleft" unicode="&#x201c;" horiz-adv-x="418" 
d="M37 410q-2 14 -2 28q0 110 72 201h103q-36 -92 -36 -184q0 -19 4 -45h-141zM224 410q-2 14 -2 28q0 109 71 201h103q-35 -90 -35 -184q0 -28 4 -45h-141z" />
    <glyph glyph-name="quotedblright" unicode="&#x201d;" horiz-adv-x="418" 
d="M22 410q35 90 35 184q0 28 -4 45h141q2 -14 2 -29q0 -60 -17.5 -106t-54.5 -94h-102zM207 410q36 88 36 184q0 26 -3 45h140q2 -14 2 -29q0 -110 -71 -200h-104z" />
    <glyph glyph-name="quotedblbase" unicode="&#x201e;" horiz-adv-x="418" 
d="M124 -70h-102q35 91 35 184q0 27 -4 46h141q2 -16 2 -29q0 -110 -72 -201zM311 -70h-104q36 90 36 184q0 25 -3 46h140q2 -16 2 -29q0 -111 -71 -201z" />
    <glyph glyph-name="dagger" unicode="&#x2020;" horiz-adv-x="398" 
d="M136 -98v439h-107v113h107v185h126v-185h107v-113h-107v-439h-126z" />
    <glyph glyph-name="daggerdbl" unicode="&#x2021;" horiz-adv-x="398" 
d="M369 341h-107v-141h107v-113h-107v-185h-126v185h-107v113h107v141h-107v113h107v185h126v-185h107v-113z" />
    <glyph glyph-name="bullet" unicode="&#x2022;" horiz-adv-x="354" 
d="M177 144q-57 0 -100 41.5t-43 99.5q0 57 43 99.5t100 42.5q60 0 101.5 -42t41.5 -100q0 -59 -41.5 -100t-101.5 -41z" />
    <glyph glyph-name="ellipsis" unicode="&#x2026;" horiz-adv-x="743" 
d="M613 -10q-38 0 -65.5 27.5t-27.5 65.5q0 39 27.5 67t65.5 28t65.5 -28t27.5 -67q0 -38 -27.5 -65.5t-65.5 -27.5zM371 -10q-38 0 -65.5 27.5t-27.5 65.5q0 39 27.5 67t65.5 28t65.5 -28t27.5 -67q0 -38 -27.5 -65.5t-65.5 -27.5zM129 -10q-38 0 -65.5 27.5t-27.5 65.5
q0 39 27.5 67t65.5 28t65.5 -28t27.5 -67q0 -38 -27.5 -65.5t-65.5 -27.5z" />
    <glyph glyph-name="perthousand" unicode="&#x2030;" horiz-adv-x="1064" 
d="M880 -14q-71 0 -117 45t-46 123v8q0 74 46 118t117 44q72 0 117.5 -44t45.5 -118v-8q0 -78 -45.5 -123t-117.5 -45zM880 64q23 0 34 16.5t11 57.5v38q0 35 -10.5 50t-34.5 15t-34.5 -15t-10.5 -50v-38q0 -74 45 -74zM92 -1l440 639h88l-440 -639h-88zM528 64
q23 0 34 16.5t11 57.5v38q0 36 -10.5 50.5t-34.5 14.5q-23 0 -33.5 -15t-10.5 -50v-38q0 -41 11 -57.5t33 -16.5zM183 315q-71 0 -116.5 44.5t-45.5 122.5v8q0 74 45.5 118t116.5 44q72 0 117.5 -44t45.5 -118v-8q0 -78 -45.5 -122.5t-117.5 -44.5zM528 -14q-70 0 -116 45
t-46 123v8q0 74 45.5 118t116.5 44q72 0 117.5 -44t45.5 -118v-8q0 -78 -45.5 -123t-117.5 -45zM183 393q24 0 34.5 16t10.5 58v37q0 36 -10.5 51t-34.5 15q-23 0 -33.5 -15.5t-10.5 -50.5v-37q0 -41 11 -57.5t33 -16.5z" />
    <glyph glyph-name="uni2032" unicode="&#x2032;" horiz-adv-x="217" 
d="M132 416h-105l16 223h148z" />
    <glyph glyph-name="uni2033" unicode="&#x2033;" horiz-adv-x="399" 
d="M132 416h-105l16 223h148zM315 416h-106l17 223h148z" />
    <glyph glyph-name="guilsinglleft" unicode="&#x2039;" horiz-adv-x="237" 
d="M100 412h122l-89 -166l89 -167h-122l-85 166z" />
    <glyph glyph-name="guilsinglright" unicode="&#x203a;" horiz-adv-x="237" 
d="M15 79l89 166l-89 167h121l86 -166l-86 -167h-121z" />
    <glyph glyph-name="fraction" unicode="&#x2044;" horiz-adv-x="128" 
d="M359 639l-494 -639h-96l494 639h96z" />
    <glyph glyph-name="Euro" unicode="&#x20ac;" horiz-adv-x="567" 
d="M354 -15q-111 0 -186 62t-93 177h-59v68h54v2v42h-54v68h57q14 113 90.5 181t187.5 68q125 0 182 -64v-138h-131v79q-11 1 -34 1q-60 0 -94 -33.5t-40 -93.5h174v-68h-175v-44h175v-68h-171q21 -119 153 -119q92 0 150 44v-97q-57 -67 -186 -67z" />
    <glyph glyph-name="trademark" unicode="&#x2122;" horiz-adv-x="639" 
d="M278 581v58h136l30 -122l30 122h148v-58h-20v-130h20v-55h-119v55h18v128l-46 -183h-66l-45 179v-124h18v-55h-104v55h20v130h-20zM200 541v36h-20v-126h24v-55h-129v55h24v126h-21v-36h-60v98h242v-98h-60z" />
    <glyph glyph-name="onethird" unicode="&#x2153;" horiz-adv-x="812" 
d="M634 394q65 0 105.5 -25t40.5 -77q0 -82 -112 -94v-2q125 -7 125 -94q0 -54 -44 -81t-124 -27q-95 0 -134 45v70q44 -32 114 -32q63 0 63 43q0 41 -65 41h-40v70h39q56 0 56 37q0 35 -59 35q-50 0 -92 -22v67q39 46 127 46zM34 264v77h61v215l-76 -74h-2v103l70 65h127
v-309h53v-77h-233zM689 639l-494 -639h-96l494 639h96z" />
    <glyph glyph-name="twothirds" unicode="&#x2154;" horiz-adv-x="852" 
d="M16 264v116q92 46 127.5 74.5t35.5 63.5q0 48 -59 48q-51 0 -97 -29v70q45 51 132 51q68 0 108 -30.5t40 -95.5q0 -117 -225 -182v-1h139v30h89v-115h-290zM674 394q65 0 105.5 -25t40.5 -77q0 -82 -112 -94v-2q125 -7 125 -94q0 -54 -44 -81t-124 -27q-95 0 -134 45v70
q44 -32 114 -32q63 0 63 43q0 41 -65 41h-40v70h39q56 0 56 37q0 35 -59 35q-50 0 -92 -22v67q39 46 127 46zM731 639l-494 -639h-96l494 639h96z" />
    <glyph glyph-name="oneeighth" unicode="&#x215b;" horiz-adv-x="841" 
d="M649 -9q-77 0 -124 30t-47 84v5q0 71 91 92q-77 21 -77 84v3q0 48 41.5 76t115.5 28q73 0 115 -28t42 -75v-4q0 -63 -79 -84q93 -22 93 -91v-5q0 -54 -47 -84.5t-124 -30.5zM34 264v77h61v215l-76 -74h-2v103l70 65h127v-309h53v-77h-233zM692 639l-494 -639h-96l494 639
h96zM649 61q47 0 47 51v14q0 50 -47 50t-47 -50v-14q0 -51 47 -51zM649 228q41 0 41 43v9q0 41 -41 41t-41 -41v-9q0 -43 41 -43z" />
    <glyph glyph-name="threeeighths" unicode="&#x215c;" horiz-adv-x="850" 
d="M658 -9q-77 0 -124 30t-47 84v5q0 71 91 92q-77 21 -77 84v3q0 48 41.5 76t115.5 28q73 0 115 -28t42 -75v-4q0 -63 -79 -84q93 -22 93 -91v-5q0 -54 -47 -84.5t-124 -30.5zM160 658q65 0 105.5 -25t40.5 -77q0 -82 -112 -94v-2q125 -7 125 -94q0 -54 -44 -81t-124 -27
q-95 0 -134 45v70q44 -32 114 -32q63 0 63 43q0 41 -65 41h-40v70h39q56 0 56 37q0 35 -59 35q-50 0 -92 -22v67q39 46 127 46zM703 639l-494 -639h-96l494 639h96zM658 61q47 0 47 51v14q0 50 -47 50t-47 -50v-14q0 -51 47 -51zM658 228q41 0 41 43v9q0 41 -41 41t-41 -41
v-9q0 -43 41 -43z" />
    <glyph glyph-name="fiveeighths" unicode="&#x215d;" horiz-adv-x="857" 
d="M665 -9q-77 0 -124 30t-47 84v5q0 71 91 92q-77 21 -77 84v3q0 48 41.5 76t115.5 28q73 0 115 -28t42 -75v-4q0 -63 -79 -84q93 -22 93 -91v-5q0 -54 -47 -84.5t-124 -30.5zM157 258q-97 0 -133 42v69q46 -28 104 -28q68 0 68 49q0 50 -81 50q-38 0 -72 -10h-5v220h268
v-115h-96v30h-86v-69q24 6 51 6q145 0 145 -120q0 -59 -43 -91.5t-120 -32.5zM704 639l-494 -639h-96l494 639h96zM665 61q47 0 47 51v14q0 50 -47 50t-47 -50v-14q0 -51 47 -51zM665 228q41 0 41 43v9q0 41 -41 41t-41 -41v-9q0 -43 41 -43z" />
    <glyph glyph-name="seveneighths" unicode="&#x215e;" horiz-adv-x="817" 
d="M626 -9q-77 0 -124 30t-47 84v5q0 71 91 92q-77 21 -77 84v3q0 48 41.5 76t115.5 28q73 0 115 -28t42 -75v-4q0 -63 -79 -84q93 -22 93 -91v-5q0 -54 -47 -84.5t-124 -30.5zM110 512h-93v138h300v-112l-139 -274h-122l150 297h-96v-49zM648 639l-494 -639h-96l494 639h96
zM626 61q47 0 47 51v14q0 50 -47 50t-47 -50v-14q0 -51 47 -51zM626 228q41 0 41 43v9q0 41 -41 41t-41 -41v-9q0 -43 41 -43z" />
    <glyph glyph-name="minus" unicode="&#x2212;" horiz-adv-x="463" 
d="M37 375h389v-120h-389v120z" />
    <glyph glyph-name="approxequal" unicode="&#x2248;" horiz-adv-x="506" 
d="M41 109q0 162 113 162q40 0 107 -16.5t85 -16.5q31 0 34 45h87q0 -162 -107 -162q-32 0 -102.5 16.5t-95.5 16.5q-32 0 -35 -45h-86zM41 314q0 162 113 162q40 0 107 -16.5t85 -16.5q31 0 34 45h87q0 -162 -107 -162q-32 0 -102.5 16.5t-95.5 16.5q-32 0 -35 -45h-86z
" />
    <glyph glyph-name="notequal" unicode="&#x2260;" horiz-adv-x="512" 
d="M411 536l-39 -82h91v-112h-143l-35 -75h178v-111h-230l-42 -90h-90l42 90h-94v111h146l35 75h-181v112h233l39 82h90z" />
    <glyph glyph-name="lessequal" unicode="&#x2264;" horiz-adv-x="472" 
d="M44 434l384 137v-123l-252 -89l252 -88v-124l-384 137v150zM44 0v117h384v-117h-384z" />
    <glyph glyph-name="greaterequal" unicode="&#x2265;" horiz-adv-x="472" 
d="M428 434v-150l-384 -137v123l252 89l-252 89v123zM428 0h-384v117h384v-117z" />
    <glyph glyph-name="uni24C5" unicode="&#x24c5;" horiz-adv-x="734" 
d="M367 -14q-141 0 -238 97t-97 234q0 138 97 236t238 98q143 0 239 -97.5t96 -236.5q0 -138 -96 -234.5t-239 -96.5zM367 41q116 0 195 81t79 195q0 115 -79 197t-195 82q-115 0 -194.5 -82.5t-79.5 -196.5t79.5 -195t194.5 -81zM222 418v73h168q144 0 144 -115
q0 -116 -142 -116h-36v-42h40v-68h-174v68h27v200h-27zM356 330h24q27 0 38 10t11 32q0 41 -46 41h-27v-83z" />
    <glyph glyph-name="f_t" unicode="&#xe22f;" horiz-adv-x="685" 
d="M15 383v107h55v14q0 89 48.5 132.5t123.5 43.5q73 0 103 -27v-87q-22 5 -49 5q-37 0 -52.5 -11.5t-15.5 -41.5v-28h131q28 14 43.5 43.5t28.5 85.5h92v-129h138v-109h-138v-200q0 -42 18 -60t59 -18q31 0 61 11v-76q-35 -51 -132 -51q-71 0 -117.5 37t-46.5 120v239h-137
v-272h71v-111h-284v111h55v272h-55z" />
    <glyph glyph-name="f_f_t" unicode="&#xe230;" horiz-adv-x="980" 
d="M281 0h-266v111h55v272h-55v107h55v16q0 84 48.5 126.5t123.5 42.5q65 0 94 -25v-87q-30 3 -40 3q-37 0 -52.5 -11t-15.5 -39v-26h137v14q0 89 48.5 132.5t123.5 43.5q73 0 102 -27v-87q-20 5 -49 5q-37 0 -52 -11.5t-15 -41.5v-28h131q28 14 43.5 43.5t28.5 85.5h92
v-129h138v-109h-138v-200q0 -42 17.5 -60t58.5 -18q33 0 61 11v-76q-35 -51 -131 -51q-71 0 -117.5 37t-46.5 120v239h-137v-272h71v-111h-277v111h48v272h-137v-272h53v-111z" />
    <glyph glyph-name="zero.tab" unicode="&#xe44f;" 
d="M300 -15q-121 0 -191.5 80t-70.5 237v43q0 149 68.5 228.5t193.5 79.5t193 -79.5t68 -228.5v-43q0 -158 -69.5 -237.5t-191.5 -79.5zM300 103q47 0 70.5 37t23.5 130v115q0 75 -23 109.5t-71 34.5q-49 0 -72 -34.5t-23 -109.5v-115q0 -92 24 -129.5t71 -37.5z" />
    <glyph glyph-name="one.tab" unicode="&#xe450;" 
d="M95 0v111h141v393l-143 -139h-3v152l130 122h177v-528h125v-111h-427z" />
    <glyph glyph-name="two.tab" unicode="&#xe451;" 
d="M71 0v154q145 83 208.5 147.5t63.5 131.5q0 90 -101 90q-84 0 -160 -51v101q70 80 201 80q103 0 165.5 -51t62.5 -162q0 -200 -345 -326v-1h226v65h126v-178h-447z" />
    <glyph glyph-name="three.tab" unicode="&#xe452;" 
d="M284 653q99 0 161.5 -43.5t62.5 -127.5q0 -63 -42 -103t-125 -49v-3q188 -15 188 -157q0 -86 -67 -133t-183 -47q-148 0 -213 75v105q72 -58 182 -58q53 0 82.5 21t29.5 61q0 81 -113 81h-70v104h67q100 0 100 71t-103 71q-84 0 -152 -42v101q64 73 195 73z" />
    <glyph glyph-name="four.tab" unicode="&#xe453;" 
d="M279 639h197v-354h75v-109h-75v-65h75v-111h-303v111h69v65h-270v135zM317 516l-165 -231h165v231z" />
    <glyph glyph-name="five.tab" unicode="&#xe454;" 
d="M503 460h-130v59h-158v-137q46 12 86 12q110 0 168 -51.5t58 -148.5q0 -95 -67 -149.5t-185 -54.5q-144 0 -202 68v101q76 -48 167 -48q119 0 119 95t-137 95q-66 0 -119 -21h-9v359h409v-179z" />
    <glyph glyph-name="six.tab" unicode="&#xe455;" 
d="M502 639v-10q-107 -56 -183.5 -130t-99.5 -159q44 80 141 80q92 0 146.5 -54.5t54.5 -146.5v-5q0 -107 -68 -168t-183 -61q-123 0 -196 69.5t-73 192.5v20q0 68 24.5 131.5t64.5 109.5t78 77.5t76 53.5h218zM303 321q-88 0 -93 -90v-31q0 -50 23.5 -79.5t71.5 -29.5
q91 0 91 108v20q0 102 -93 102z" />
    <glyph glyph-name="seven.tab" unicode="&#xe456;" 
d="M188 427h-131v212h474v-163l-230 -476h-167l248 512h-194v-85z" />
    <glyph glyph-name="eight.tab" unicode="&#xe457;" 
d="M300 -14q-114 0 -184.5 50t-70.5 138v8q0 57 36 96.5t103 57.5q-117 37 -117 140v5q0 78 62.5 124.5t170.5 46.5q107 0 170 -46.5t63 -123.5v-6q0 -102 -119 -140q68 -17 104.5 -56.5t36.5 -96.5v-8q0 -89 -71 -139t-184 -50zM300 90q91 0 91 94v22q0 44 -24 67t-67 23
q-90 0 -90 -90v-22q0 -94 90 -94zM300 376q80 0 80 79v15q0 35 -21 55.5t-59 20.5t-59 -20.5t-21 -55.5v-15q0 -79 80 -79z" />
    <glyph glyph-name="nine.tab" unicode="&#xe458;" 
d="M101 0v10q103 56 179.5 129.5t100.5 157.5q-45 -80 -150 -80q-88 0 -140.5 55t-52.5 150v5q0 105 70 166t182 61q123 0 195.5 -66.5t72.5 -195.5v-16q0 -67 -21.5 -129.5t-58 -109t-73 -79.5t-76.5 -58h-228zM296 316q89 0 94 89v35q0 49 -25 78.5t-70 29.5
q-91 0 -91 -109v-17q0 -106 92 -106z" />
    <glyph glyph-name="cent.tab" unicode="&#xe459;" 
d="M324 -107h-68l14 103q-85 18 -135 83.5t-50 166.5v1q0 120 74.5 187.5t175.5 67.5h7l10 72h67l-11 -77q77 -12 108 -46v-124h-97v67l-25 3l-42 -300h19q72 0 148 38v-81q-19 -27 -66.5 -46.5t-114.5 -19.5h-1zM235 243q0 -101 52 -130l40 282q-92 -14 -92 -127v-25z" />
    <glyph glyph-name="dollar.tab" unicode="&#xe45a;" 
d="M265 -107h-70l13 98q-100 13 -148 61v130h118v-83q21 -6 44 -9l23 163q-61 13 -98 33q-81 46 -81 164q0 101 68 152t166 51h2l9 65h69l-10 -70q98 -14 140 -55v-128h-118v72l-37 6l-21 -156q93 -19 128 -39q78 -48 78 -153q0 -103 -70.5 -156.5t-184.5 -53.5h-7zM341 230
q-15 6 -28 8l-21 -152q97 6 97 80q0 27 -10.5 41t-37.5 23zM251 407q10 -4 15 -5l20 143q-81 -5 -81 -77q0 -46 46 -61z" />
    <glyph glyph-name="Euro.tab" unicode="&#xe45b;" 
d="M420 451v79q-11 1 -34 1q-60 0 -94 -33.5t-40 -93.5h174v-68h-175v-44h175v-68h-171q21 -119 153 -119q91 0 150 44v-97q-57 -67 -187 -67q-111 0 -186 62t-93 177h-56v68h51v2v42h-51v68h54q14 113 91 181t188 68q126 0 181 -64v-138h-130z" />
    <glyph glyph-name="Q.alt" unicode="&#xe490;" horiz-adv-x="676" 
d="M544 0l-35 29q-74 -44 -171 -44q-137 0 -226.5 87.5t-89.5 248.5v2q0 150 85.5 240t230.5 90t230.5 -90t85.5 -240v-2q0 -125 -59 -210h72v-111h-115v3zM338 102q42 0 71 13l-104 90h161l8 -7q12 39 12 95v57q0 86 -37 132.5t-111 46.5q-147 0 -147 -179v-47
q0 -201 147 -201z" />
    <glyph glyph-name="a.alt" unicode="&#xe4c0;" horiz-adv-x="518" 
d="M328 0q-21 34 -24 84q-32 -97 -143 -97q-64 0 -103.5 34.5t-39.5 95.5v1q0 35 13.5 61t35.5 43t60.5 30.5t77 21t95.5 15.5v22q0 45 -18.5 65t-66.5 20q-21 0 -39 -3v-77h-128v119q70 67 200 67q210 0 210 -216v-175h44v-111h-174zM230 77q31 0 50.5 26t19.5 73v50
q-67 -13 -94.5 -32t-27.5 -55v-5q0 -27 14 -42t38 -15z" />
    <glyph glyph-name="g.alt" unicode="&#xe4c6;" horiz-adv-x="531" 
d="M261 -160q-251 0 -251 114v1q0 60 115 77q-76 18 -76 80q0 66 98 92q-106 25 -106 142v1q0 75 61 115t147 40q68 0 107 -12h159v-109h-64q17 -23 17 -56v-1q0 -73 -57.5 -107.5t-148.5 -34.5h-56q-35 0 -35 -20q0 -7 4.5 -11t11.5 -5.5t21 -2.5l138 -5q86 -3 128.5 -35.5
t42.5 -98.5v-1q0 -163 -256 -163zM250 -61q116 0 116 42v1q0 31 -50 33l-106 4q-27 1 -42 -9.5t-15 -26.5v-1q0 -23 22 -33t75 -10zM256 262q69 0 69 71v15q0 64 -69 64q-70 0 -70 -64v-15q0 -71 70 -71z" />
    <glyph glyph-name="x.alt" unicode="&#xe4d7;" horiz-adv-x="523" 
d="M353 0l-98 182l-99 -182h-141v111h47l87 136l-66 111h-65v132h165l87 -174l87 174h148v-132h-65l-61 -108l83 -139h45v-111h-154z" />
    <glyph glyph-name="y.alt" unicode="&#xe4d8;" horiz-adv-x="564" 
d="M322 358v132h229v-132h-47l-153 -402h59v-102h-286v102h103l28 73h-66l-129 329h-47v132h263v-132h-59l83 -225l81 225h-59z" />
    <glyph glyph-name="a.alt1" unicode="&#xe4e0;" horiz-adv-x="588" 
d="M573 0h-173q-24 41 -27 105q-22 -54 -58.5 -85t-101.5 -31q-88 0 -140 71.5t-52 185.5v1q0 121 56 187.5t145 66.5q62 0 98.5 -27.5t61.5 -84.5q4 25 12 50t14 38l6 13h113v-379h46v-111zM272 98q42 0 69 38t27 98v18q0 70 -26 105t-69 35t-67.5 -32.5t-24.5 -92.5v-33
q0 -63 24 -99.5t67 -36.5z" />
    <glyph glyph-name="idotaccent" horiz-adv-x="287" 
d="M15 358v132h208v-379h49v-111h-257v111h50v247h-50zM142 522q-34 0 -59 25t-25 59q0 35 25 60.5t59 25.5t59 -25.5t25 -60.5q0 -34 -25 -59t-59 -25z" />
    <glyph glyph-name="space_uni0326" horiz-adv-x="400" 
d="M209 -176h-93q20 41 20 86q0 26 -6 46h130q5 -15 5 -28q0 -64 -56 -104z" />
    <glyph glyph-name="space.tab" horiz-adv-x="300" 
 />
    <glyph glyph-name="sterling.tab" 
d="M407 444v89q-24 2 -37 2q-89 0 -89 -109v-64h153v-97h-154q-6 -53 -36.5 -86t-86.5 -55v-1h246v59h133v-182h-474v161q31 16 46 38.5t16 65.5h-56v97h56v72q0 99 60 159t165 60q68 0 117 -18t69 -46v-145h-128z" />
    <glyph glyph-name="yen.tab" 
d="M86 228h139v43h-139v68h102l-113 182h-39v118h255v-118h-47l73 -131l73 131h-48v118h225v-118h-40l-115 -182h105v-68h-138v-43h138v-69h-138v-48h69v-111h-292v111h69v48h-139v69z" />
    <glyph glyph-name="florin.tab" 
d="M97 414h95l8 80q9 92 58 139t128 47q73 0 105 -28v-96q-22 6 -52 6q-38 0 -57 -16.5t-23 -57.5l-7 -74h129v-112h-140l-44 -448h-159l43 448h-84v112z" />
    <glyph glyph-name="percent.tab" horiz-adv-x="700" 
d="M521 -13q-65 0 -107.5 44.5t-42.5 122.5v8q0 74 42 118.5t108 44.5q67 0 109 -44t42 -119v-8q0 -78 -42 -122.5t-109 -44.5zM178 315q-65 0 -107.5 45t-42.5 123v8q0 74 42 118t108 44q67 0 109 -44t42 -118v-8q0 -78 -42 -123t-109 -45zM86 0l440 639h87l-440 -639h-87z
M178 390q22 0 32 16.5t10 58.5v43q0 36 -9.5 50.5t-32.5 14.5q-21 0 -30.5 -14.5t-9.5 -50.5v-43q0 -42 9.5 -58.5t30.5 -16.5zM521 62q22 0 31.5 16t9.5 58v43q0 36 -9.5 51t-31.5 15t-31.5 -15t-9.5 -51v-43q0 -74 41 -74z" />
    <glyph glyph-name="perthousand.tab" horiz-adv-x="1000" 
d="M504 59q21 0 30 16.5t9 58.5v48q0 36 -8.5 51t-30.5 15t-31 -15t-9 -51v-48q0 -42 9.5 -58.5t30.5 -16.5zM177 388q20 0 29.5 16t9.5 58v49q0 36 -9 50.5t-30 14.5q-22 0 -31.5 -14.5t-9.5 -50.5v-49q0 -42 10 -58t31 -16zM824 -13q-65 0 -106.5 44.5t-41.5 122.5v8
q0 74 41.5 118.5t106.5 44.5q66 0 107 -44t41 -119v-8q0 -78 -41 -122.5t-107 -44.5zM175 315q-64 0 -105.5 45t-41.5 123v8q0 74 41.5 118t105.5 44q66 0 107.5 -44t41.5 -118v-8q0 -78 -41.5 -123t-107.5 -45zM824 59q21 0 30 16.5t9 58.5v48q0 36 -8.5 51t-30.5 15
t-31 -14.5t-9 -51.5v-48q0 -42 9.5 -58.5t30.5 -16.5zM504 -13q-65 0 -106.5 44.5t-41.5 122.5v8q0 74 41.5 118.5t106.5 44.5q66 0 107 -44t41 -119v-8q0 -78 -41 -122.5t-107 -44.5zM76 0l440 639h87l-440 -639h-87z" />
    <glyph glyph-name="plus.tab" 
d="M362 537v-162h153v-120h-153v-162h-124v162h-153v120h153v162h124z" />
    <glyph glyph-name="minus.tab" 
d="M85 375h430v-120h-430v120z" />
    <glyph glyph-name="plusminus.tab" 
d="M356 551v-130h152v-120h-152v-130h-124v130h-153v120h153v130h124zM79 0v120h429v-120h-429z" />
    <glyph glyph-name="multiply.tab" 
d="M89 169l130 132l-133 135l82 82l133 -135l130 132l83 -82l-131 -132l134 -135l-82 -82l-134 134l-130 -131z" />
    <glyph glyph-name="divide.tab" 
d="M85 372h430v-120h-430v120zM299 62q-31 0 -54 23t-23 55t23 55.5t54 23.5q32 0 55 -23.5t23 -55.5t-23 -55t-55 -23zM299 405q-31 0 -54 23t-23 55q0 33 23 56.5t54 23.5q32 0 55 -23.5t23 -56.5q0 -32 -23 -55t-55 -23z" />
    <glyph glyph-name="equal.tab" 
d="M83 267h434v-111h-434v111zM83 454h434v-112h-434v112z" />
    <glyph glyph-name="notequal.tab" 
d="M455 536l-39 -82h104v-112h-156l-35 -75h191v-111h-243l-42 -90h-90l42 90h-107v111h159l35 75h-194v112h246l39 82h90z" />
    <glyph glyph-name="approxequal.tab" 
d="M69 109q0 162 113 162q40 0 125.5 -16.5t103.5 -16.5q31 0 34 45h87q0 -162 -107 -162q-32 0 -120.5 16.5t-113.5 16.5q-32 0 -35 -45h-87zM69 314q0 162 113 162q40 0 125.5 -16.5t103.5 -16.5q31 0 34 45h87q0 -162 -107 -162q-32 0 -120.5 16.5t-113.5 16.5
q-32 0 -35 -45h-87z" />
    <glyph glyph-name="less.tab" 
d="M88 389l424 158v-122l-299 -109l299 -110v-123l-424 158v148z" />
    <glyph glyph-name="greater.tab" 
d="M512 241l-424 -158v122l298 110l-298 109v123l424 -158v-148z" />
    <glyph glyph-name="lessequal.tab" 
d="M88 434l424 137v-123l-278 -89l278 -88v-124l-424 137v150zM88 0v117h424v-117h-424z" />
    <glyph glyph-name="greaterequal.tab" 
d="M512 434v-150l-424 -137v123l278 89l-278 89v123zM512 0h-424v117h424v-117z" />
    <glyph glyph-name="period.tab" horiz-adv-x="300" 
d="M155 -10q-38 0 -65.5 27.5t-27.5 65.5q0 39 27.5 67t65.5 28t65.5 -28t27.5 -67q0 -38 -27.5 -65.5t-65.5 -27.5z" />
    <glyph glyph-name="comma.tab" horiz-adv-x="300" 
d="M155 -74h-110q41 103 41 196q0 29 -4 49h151q3 -12 3 -29q0 -66 -19.5 -116t-61.5 -100z" />
    <glyph glyph-name="colon.tab" horiz-adv-x="300" 
d="M149 293q-38 0 -65 27.5t-27 65.5q0 39 27 67t65 28q39 0 66.5 -28t27.5 -67q0 -38 -27.5 -65.5t-66.5 -27.5zM149 -10q-38 0 -65 27.5t-27 65.5q0 39 27 67t65 28q39 0 66.5 -28t27.5 -67q0 -38 -27.5 -65.5t-66.5 -27.5z" />
    <glyph glyph-name="semicolon.tab" horiz-adv-x="300" 
d="M150 293q-38 0 -65.5 27.5t-27.5 65.5q0 39 27.5 67t65.5 28t65.5 -28t27.5 -67q0 -38 -27.5 -65.5t-65.5 -27.5zM144 -74h-110q41 103 41 196q0 19 -4 49h151q3 -12 3 -29q0 -66 -19.5 -116t-61.5 -100z" />
    <glyph glyph-name="parenleft.tab" horiz-adv-x="300" 
d="M187 317v-51q0 -215 111 -359v-5h-114q-144 147 -144 373v33q0 68 15 129.5t39 107t45.5 75.5t44.5 53h114v-5q-50 -63 -80.5 -155t-30.5 -196z" />
    <glyph glyph-name="parenright.tab" horiz-adv-x="300" 
d="M113 266v51q0 104 -30.5 196t-80.5 155v5h114q23 -23 44.5 -53t45.5 -75.5t39 -107t15 -129.5v-33q0 -226 -144 -373h-114v5q111 144 111 359z" />
    <glyph glyph-name="bracketleft.tab" horiz-adv-x="300" 
d="M55 -98v771h232v-108h-94v-559h94v-104h-232z" />
    <glyph glyph-name="bracketright.tab" horiz-adv-x="300" 
d="M245 673v-771h-232v104h94v559h-94v108h232z" />
    <glyph glyph-name="braceleft.tab" horiz-adv-x="300" 
d="M101 291v-3q75 -8 108.5 -41t33.5 -78q0 -27 -10 -72.5t-10 -67.5q0 -42 14.5 -66t51.5 -56v-5h-114q-41 11 -69 42.5t-28 77.5q0 33 17.5 83t17.5 68q0 49 -92 56v121q92 7 92 56q0 18 -17.5 66t-17.5 81q0 46 28 77t69 43h114v-5q-37 -32 -51.5 -56t-14.5 -66
q0 -22 10 -66t10 -72q0 -44 -33 -76.5t-109 -40.5z" />
    <glyph glyph-name="braceright.tab" horiz-adv-x="300" 
d="M199 288v3q-76 8 -109 40.5t-33 76.5q0 28 10 72t10 66q0 42 -14.5 66t-51.5 56v5h114q41 -12 69 -43t28 -77q0 -33 -17.5 -81t-17.5 -66q0 -49 92 -56v-121q-92 -7 -92 -56q0 -18 17.5 -68t17.5 -83q0 -46 -28 -77.5t-69 -42.5h-114v5q37 32 51.5 56t14.5 66
q0 22 -10 67.5t-10 72.5q0 45 33.5 78t108.5 41z" />
    <glyph glyph-name="zero.num" horiz-adv-x="419" 
d="M211 255q-80 0 -135 51.5t-55 147.5v9q0 89 52.5 142t137.5 53q83 0 135 -53t52 -142v-9q0 -96 -53.5 -147.5t-133.5 -51.5zM211 336q32 0 47 21.5t15 78.5v50q0 47 -14.5 67t-47.5 20q-34 0 -49.5 -20t-15.5 -67v-50q0 -56 16 -78t49 -22z" />
    <glyph glyph-name="one.num" horiz-adv-x="283" 
d="M34 264v77h61v215l-76 -74h-2v103l70 65h127v-309h53v-77h-233z" />
    <glyph glyph-name="two.num" horiz-adv-x="325" 
d="M16 264v116q92 46 127.5 74.5t35.5 63.5q0 48 -59 48q-51 0 -97 -29v70q45 51 132 51q68 0 108 -30.5t40 -95.5q0 -117 -225 -182v-1h139v30h89v-115h-290z" />
    <glyph glyph-name="three.num" horiz-adv-x="338" 
d="M160 658q65 0 105.5 -25t40.5 -77q0 -82 -112 -94v-2q125 -7 125 -94q0 -54 -44 -81t-124 -27q-95 0 -134 45v70q44 -32 114 -32q63 0 63 43q0 41 -65 41h-40v70h39q56 0 56 37q0 35 -59 35q-50 0 -92 -22v67q39 46 127 46z" />
    <glyph glyph-name="four.num" horiz-adv-x="366" 
d="M170 650h137v-205h43v-71h-43v-37h43v-73h-200v73h43v37h-177v87zM193 566l-98 -121h98v121z" />
    <glyph glyph-name="five.num" horiz-adv-x="343" 
d="M157 258q-97 0 -133 42v69q46 -28 104 -28q68 0 68 49q0 50 -81 50q-38 0 -72 -10h-5v220h268v-115h-96v30h-86v-69q24 6 51 6q145 0 145 -120q0 -59 -43 -91.5t-120 -32.5z" />
    <glyph glyph-name="six.num" horiz-adv-x="392" 
d="M325 650v-8q-139 -71 -172 -171q30 48 88 48t94 -31.5t36 -87.5v-3q0 -67 -47.5 -104.5t-124.5 -37.5q-78 0 -127.5 42.5t-49.5 117.5v11q0 74 47 132.5t102 91.5h154zM196 453q-51 0 -51 -54v-15q0 -25 13.5 -41t38.5 -16q51 0 51 58v15q0 53 -52 53z" />
    <glyph glyph-name="seven.num" horiz-adv-x="336" 
d="M110 512h-93v138h300v-112l-139 -274h-122l150 297h-96v-49z" />
    <glyph glyph-name="eight.num" horiz-adv-x="384" 
d="M192 255q-77 0 -124 30t-47 84v5q0 71 91 92q-77 21 -77 84v3q0 48 41.5 76t115.5 28q73 0 115 -28t42 -75v-4q0 -63 -79 -84q93 -22 93 -91v-5q0 -54 -47 -84.5t-124 -30.5zM192 325q47 0 47 51v14q0 50 -47 50t-47 -50v-14q0 -51 47 -51zM192 492q41 0 41 43v9
q0 41 -41 41t-41 -41v-9q0 -43 41 -43z" />
    <glyph glyph-name="nine.num" horiz-adv-x="392" 
d="M64 264v7q60 32 108 76t66 94q-29 -47 -93 -47q-54 0 -89 33t-35 90v3q0 63 48.5 101t119.5 38q86 0 134 -41t48 -124v-10q0 -70 -48.5 -131t-100.5 -89h-158zM197 460q51 0 51 53v16q0 26 -13.5 41.5t-38.5 15.5q-52 0 -52 -56v-15q0 -55 53 -55z" />
    <glyph glyph-name="zero.den" horiz-adv-x="419" 
d="M211 -9q-80 0 -135 51.5t-55 147.5v9q0 89 52.5 142t137.5 53q83 0 135 -53t52 -142v-9q0 -96 -53.5 -147.5t-133.5 -51.5zM211 72q32 0 47 21.5t15 78.5v50q0 47 -14.5 67t-47.5 20q-34 0 -49.5 -20t-15.5 -67v-50q0 -56 16 -78t49 -22z" />
    <glyph glyph-name="one.den" horiz-adv-x="283" 
d="M34 0v77h61v215l-76 -74h-2v103l70 65h127v-309h53v-77h-233z" />
    <glyph glyph-name="two.den" horiz-adv-x="325" 
d="M16 0v116q92 46 127.5 74.5t35.5 63.5q0 48 -59 48q-51 0 -97 -29v70q45 51 132 51q68 0 108 -30.5t40 -95.5q0 -117 -225 -182v-1h139v30h89v-115h-290z" />
    <glyph glyph-name="three.den" horiz-adv-x="338" 
d="M160 394q65 0 105.5 -25t40.5 -77q0 -82 -112 -94v-2q125 -7 125 -94q0 -54 -44 -81t-124 -27q-95 0 -134 45v70q44 -32 114 -32q63 0 63 43q0 41 -65 41h-40v70h39q56 0 56 37q0 35 -59 35q-50 0 -92 -22v67q39 46 127 46z" />
    <glyph glyph-name="four.den" horiz-adv-x="366" 
d="M170 386h137v-205h43v-71h-43v-37h43v-73h-200v73h43v37h-177v87zM193 302l-98 -121h98v121z" />
    <glyph glyph-name="five.den" horiz-adv-x="343" 
d="M157 -6q-97 0 -133 42v69q46 -28 104 -28q68 0 68 49q0 50 -81 50q-38 0 -72 -10h-5v220h268v-115h-96v30h-86v-69q24 6 51 6q145 0 145 -120q0 -59 -43 -91.5t-120 -32.5z" />
    <glyph glyph-name="six.den" horiz-adv-x="392" 
d="M325 386v-8q-139 -71 -172 -171q30 48 88 48t94 -31.5t36 -87.5v-3q0 -67 -47.5 -104.5t-124.5 -37.5q-78 0 -127.5 42.5t-49.5 117.5v11q0 74 47 132.5t102 91.5h154zM196 189q-51 0 -51 -54v-15q0 -25 13.5 -41t38.5 -16q51 0 51 58v15q0 53 -52 53z" />
    <glyph glyph-name="seven.den" horiz-adv-x="336" 
d="M110 248h-93v138h300v-112l-139 -274h-122l150 297h-96v-49z" />
    <glyph glyph-name="eight.den" horiz-adv-x="384" 
d="M192 -9q-77 0 -124 30t-47 84v5q0 71 91 92q-77 21 -77 84v3q0 48 41.5 76t115.5 28q73 0 115 -28t42 -75v-4q0 -63 -79 -84q93 -22 93 -91v-5q0 -54 -47 -84.5t-124 -30.5zM192 61q47 0 47 51v14q0 50 -47 50t-47 -50v-14q0 -51 47 -51zM192 228q41 0 41 43v9
q0 41 -41 41t-41 -41v-9q0 -43 41 -43z" />
    <glyph glyph-name="nine.den" horiz-adv-x="392" 
d="M64 0v7q60 32 108.5 76t66.5 94q-30 -47 -94 -47q-54 0 -89 33t-35 90v3q0 63 48.5 101t119.5 38q86 0 134 -41t48 -124v-10q0 -70 -48.5 -131t-100.5 -89h-158zM197 196q51 0 51 53v16q0 26 -13.5 41.5t-38.5 15.5q-52 0 -52 -56v-15q0 -55 53 -55z" />
    <glyph glyph-name="zero.sub" horiz-adv-x="419" 
d="M211 -78q-80 0 -135 51.5t-55 147.5v9q0 90 52.5 142.5t137.5 52.5q83 0 135 -53t52 -142v-9q0 -96 -53.5 -147.5t-133.5 -51.5zM211 3q32 0 47 21.5t15 78.5v50q0 47 -14.5 67t-47.5 20q-34 0 -49.5 -20t-15.5 -67v-50q0 -56 16 -78t49 -22z" />
    <glyph glyph-name="one.sub" horiz-adv-x="283" 
d="M34 -69v77h61v215l-76 -74h-2v103l70 65h127v-309h53v-77h-233z" />
    <glyph glyph-name="two.sub" horiz-adv-x="325" 
d="M16 -69v116q92 46 127.5 74.5t35.5 63.5q0 48 -59 48q-51 0 -97 -29v70q45 51 132 51q68 0 108 -30.5t40 -95.5q0 -117 -225 -182v-1h139v30h89v-115h-290z" />
    <glyph glyph-name="three.sub" horiz-adv-x="338" 
d="M160 325q65 0 105.5 -25t40.5 -77q0 -82 -112 -94v-2q125 -7 125 -94q0 -54 -44 -81t-124 -27q-95 0 -134 45v70q44 -32 114 -32q63 0 63 43q0 41 -65 41h-40v70h39q56 0 56 37q0 35 -59 35q-50 0 -92 -22v67q39 46 127 46z" />
    <glyph glyph-name="four.sub" horiz-adv-x="366" 
d="M170 317h137v-205h43v-71h-43v-37h43v-73h-200v73h43v37h-177v87zM193 233l-98 -121h98v121z" />
    <glyph glyph-name="five.sub" horiz-adv-x="343" 
d="M157 -75q-97 0 -133 42v69q46 -28 104 -28q68 0 68 49q0 50 -81 50q-38 0 -72 -10h-5v220h268v-115h-96v30h-86v-69q24 6 51 6q145 0 145 -120q0 -59 -43 -91.5t-120 -32.5z" />
    <glyph glyph-name="six.sub" horiz-adv-x="392" 
d="M325 317v-8q-139 -71 -172 -171q30 48 88 48t94 -31.5t36 -87.5v-3q0 -67 -47.5 -104.5t-124.5 -37.5q-78 0 -127.5 42.5t-49.5 117.5v11q0 74 47 132.5t102 91.5h154zM196 120q-51 0 -51 -54v-15q0 -25 13.5 -41t38.5 -16q51 0 51 58v15q0 53 -52 53z" />
    <glyph glyph-name="seven.sub" horiz-adv-x="336" 
d="M110 179h-93v138h300v-112l-139 -274h-122l150 297h-96v-49z" />
    <glyph glyph-name="eight.sub" horiz-adv-x="384" 
d="M192 -78q-77 0 -124 30t-47 84v5q0 71 91 92q-77 21 -77 84v3q0 48 41.5 76t115.5 28q73 0 115 -28t42 -75v-4q0 -63 -79 -84q93 -22 93 -91v-5q0 -54 -47 -84.5t-124 -30.5zM192 -8q47 0 47 51v14q0 50 -47 50t-47 -50v-14q0 -51 47 -51zM192 159q41 0 41 43v9
q0 41 -41 41t-41 -41v-9q0 -43 41 -43z" />
    <glyph glyph-name="nine.sub" horiz-adv-x="392" 
d="M64 -69v7q60 32 108.5 76t66.5 94q-30 -47 -94 -47q-54 0 -89 33t-35 90v3q0 63 48.5 101t119.5 38q86 0 134 -41t48 -124v-10q0 -70 -48.5 -131t-100.5 -89h-158zM197 127q51 0 51 53v16q0 26 -13.5 41.5t-38.5 15.5q-52 0 -52 -56v-15q0 -55 53 -55z" />
    <glyph glyph-name="plus.sub" horiz-adv-x="317" 
d="M203 246v-92h90v-80h-90v-92h-88v92h-91v80h91v92h88z" />
    <glyph glyph-name="minus.sub" horiz-adv-x="317" 
d="M24 154h269v-80h-269v80z" />
    <glyph glyph-name="zero.sup" horiz-adv-x="419" 
d="M211 306q-80 0 -135 51.5t-55 147.5v9q0 90 52.5 142.5t137.5 52.5q83 0 135 -53t52 -142v-9q0 -96 -53.5 -147.5t-133.5 -51.5zM211 387q32 0 47 21.5t15 78.5v50q0 47 -14.5 67t-47.5 20q-34 0 -49.5 -20t-15.5 -67v-50q0 -56 16 -78t49 -22z" />
    <glyph glyph-name="one.sup" horiz-adv-x="283" 
d="M34 315v77h61v215l-76 -74h-2v103l70 65h127v-309h53v-77h-233z" />
    <glyph glyph-name="two.sup" horiz-adv-x="325" 
d="M16 315v116q92 46 127.5 74.5t35.5 63.5q0 48 -59 48q-51 0 -97 -29v70q45 51 132 51q68 0 108 -30.5t40 -95.5q0 -117 -225 -182v-1h139v30h89v-115h-290z" />
    <glyph glyph-name="three.sup" horiz-adv-x="338" 
d="M160 709q65 0 105.5 -25t40.5 -77q0 -82 -112 -94v-2q125 -7 125 -94q0 -54 -44 -81t-124 -27q-95 0 -134 45v70q44 -32 114 -32q63 0 63 43q0 41 -65 41h-40v70h39q56 0 56 37q0 35 -59 35q-50 0 -92 -22v67q39 46 127 46z" />
    <glyph glyph-name="four.sup" horiz-adv-x="366" 
d="M170 701h137v-205h43v-71h-43v-37h43v-73h-200v73h43v37h-177v87zM193 617l-98 -121h98v121z" />
    <glyph glyph-name="five.sup" horiz-adv-x="343" 
d="M157 309q-97 0 -133 42v69q46 -28 104 -28q68 0 68 49q0 50 -81 50q-38 0 -72 -10h-5v220h268v-115h-96v30h-86v-69q24 6 51 6q145 0 145 -120q0 -59 -43 -91.5t-120 -32.5z" />
    <glyph glyph-name="six.sup" horiz-adv-x="392" 
d="M325 701v-8q-139 -71 -172 -171q30 48 88 48t94 -31.5t36 -87.5v-3q0 -67 -47.5 -104.5t-124.5 -37.5q-78 0 -127.5 42.5t-49.5 117.5v11q0 74 47 132.5t102 91.5h154zM196 504q-51 0 -51 -54v-15q0 -25 13.5 -41t38.5 -16q51 0 51 58v15q0 53 -52 53z" />
    <glyph glyph-name="seven.sup" horiz-adv-x="336" 
d="M110 563h-93v138h300v-112l-139 -274h-122l150 297h-96v-49z" />
    <glyph glyph-name="eight.sup" horiz-adv-x="384" 
d="M192 306q-77 0 -124 30t-47 84v5q0 71 91 92q-77 21 -77 84v3q0 48 41.5 76t115.5 28q73 0 115 -28t42 -75v-4q0 -63 -79 -84q93 -22 93 -91v-5q0 -54 -47 -84.5t-124 -30.5zM192 376q47 0 47 51v14q0 50 -47 50t-47 -50v-14q0 -51 47 -51zM192 543q41 0 41 43v9
q0 41 -41 41t-41 -41v-9q0 -43 41 -43z" />
    <glyph glyph-name="nine.sup" horiz-adv-x="392" 
d="M64 315v7q60 32 108.5 76t66.5 94q-30 -47 -94 -47q-54 0 -89 33t-35 90v3q0 63 48.5 101t119.5 38q86 0 134 -41t48 -124v-10q0 -70 -48.5 -131t-100.5 -89h-158zM197 511q51 0 51 53v16q0 26 -13.5 41.5t-38.5 15.5q-52 0 -52 -56v-15q0 -55 53 -55z" />
    <glyph glyph-name="plus.sup" horiz-adv-x="317" 
d="M203 639v-92h90v-80h-90v-92h-88v92h-91v80h91v92h88z" />
    <glyph glyph-name="minus.sup" horiz-adv-x="317" 
d="M24 547h269v-80h-269v80z" />
    <glyph glyph-name="ae.alt" horiz-adv-x="783" 
d="M176 316h-128v119q70 67 190 67q111 0 157 -65q56 65 151 65q104 0 161 -57t57 -150q0 -40 -15 -81h-291q4 -61 38.5 -83.5t103.5 -22.5q82 0 140 29v-84q-18 -26 -67 -45t-116 -19q-164 0 -224 108q-34 -110 -166 -110q-69 0 -109 35.5t-40 94.5v2q0 35 13.5 61t35.5 43
t60.5 30t76.5 20.5t96 15.5v22q0 45 -18.5 65t-66.5 20q-21 0 -39 -3v-77zM547 403q-85 0 -89 -118h164v10q0 108 -75 108zM178 139v-6q0 -27 14 -41.5t39 -14.5q30 0 49.5 26t19.5 73v50q-67 -13 -94.5 -32t-27.5 -55z" />
    <glyph glyph-name="aacute.alt" horiz-adv-x="518" 
d="M328 0q-21 34 -24 84q-32 -97 -143 -97q-64 0 -103.5 34.5t-39.5 95.5v1q0 35 13.5 61t35.5 43t60.5 30.5t77 21t95.5 15.5v22q0 45 -18.5 65t-66.5 20q-21 0 -39 -3v-77h-128v119q70 67 200 67q210 0 210 -216v-175h44v-111h-174zM188 539l47 148h178l-133 -148h-92z
M230 77q31 0 50.5 26t19.5 73v50q-67 -13 -94.5 -32t-27.5 -55v-5q0 -27 14 -42t38 -15z" />
    <glyph glyph-name="aacute.alt1" horiz-adv-x="588" 
d="M573 0h-173q-24 41 -27 105q-22 -54 -58.5 -85t-101.5 -31q-88 0 -140 71.5t-52 185.5v1q0 121 56 187.5t145 66.5q62 0 98.5 -27.5t61.5 -84.5q4 25 12 50t14 38l6 13h113v-379h46v-111zM272 98q42 0 69 38t27 98v18q0 70 -26 105t-69 35t-67.5 -32.5t-24.5 -92.5v-33
q0 -63 24 -99.5t67 -36.5zM225 539l47 148h178l-133 -148h-92z" />
    <glyph glyph-name="abreve.alt" horiz-adv-x="518" 
d="M48 316v119q70 67 200 67q210 0 210 -216v-175h44v-111h-174q-21 34 -24 84q-32 -97 -143 -97q-64 0 -103.5 34.5t-39.5 95.5v1q0 35 13.5 61t35.5 43t60.5 30.5t77 21t95.5 15.5v22q0 45 -18.5 65t-66.5 20q-21 0 -39 -3v-77h-128zM299 680h87q5 -58 -29.5 -100.5
t-106.5 -42.5q-71 0 -105.5 42.5t-28.5 100.5h86q-1 -22 11.5 -36.5t36.5 -14.5q25 0 37.5 14.5t11.5 36.5zM230 77q31 0 50.5 26t19.5 73v50q-67 -13 -94.5 -32t-27.5 -55v-5q0 -27 14 -42t38 -15z" />
    <glyph glyph-name="abreve.alt1" horiz-adv-x="588" 
d="M400 0q-24 41 -27 105q-22 -54 -58.5 -85t-101.5 -31q-88 0 -140 71.5t-52 185.5v1q0 121 56 187.5t145 66.5q62 0 98.5 -27.5t61.5 -84.5q4 25 12 50t14 38l6 13h113v-379h46v-111h-173zM272 98q42 0 69 38t27 98v18q0 70 -26 105t-69 35t-67.5 -32.5t-24.5 -92.5v-33
q0 -63 24 -99.5t67 -36.5zM337 680h87q5 -58 -29.5 -100.5t-106.5 -42.5q-71 0 -105.5 42.5t-28.5 100.5h86q-1 -22 11.5 -36.5t36.5 -14.5q25 0 37.5 14.5t11.5 36.5z" />
    <glyph glyph-name="acircumflex.alt" horiz-adv-x="518" 
d="M328 0q-21 34 -24 84q-32 -97 -143 -97q-64 0 -103.5 34.5t-39.5 95.5v1q0 35 13.5 61t35.5 43t60.5 30.5t77 21t95.5 15.5v22q0 45 -18.5 65t-66.5 20q-21 0 -39 -3v-77h-128v119q70 67 200 67q210 0 210 -216v-175h44v-111h-174zM91 539l85 148h150l85 -148h-98l-62 63
l-62 -63h-98zM230 77q31 0 50.5 26t19.5 73v50q-67 -13 -94.5 -32t-27.5 -55v-5q0 -27 14 -42t38 -15z" />
    <glyph glyph-name="acircumflex.alt1" horiz-adv-x="588" 
d="M400 0q-24 41 -27 105q-22 -54 -58.5 -85t-101.5 -31q-88 0 -140 71.5t-52 185.5v1q0 121 56 187.5t145 66.5q62 0 98.5 -27.5t61.5 -84.5q4 25 12 50t14 38l6 13h113v-379h46v-111h-173zM272 98q42 0 69 38t27 98v18q0 70 -26 105t-69 35t-67.5 -32.5t-24.5 -92.5v-33
q0 -63 24 -99.5t67 -36.5zM129 539l85 148h150l85 -148h-98l-62 63l-62 -63h-98z" />
    <glyph glyph-name="adieresis.alt" horiz-adv-x="518" 
d="M48 316v119q70 67 200 67q210 0 210 -216v-175h44v-111h-174q-21 34 -24 84q-32 -97 -143 -97q-64 0 -103.5 34.5t-39.5 95.5v1q0 35 13.5 61t35.5 43t60.5 30.5t77 21t95.5 15.5v22q0 45 -18.5 65t-66.5 20q-21 0 -39 -3v-77h-128zM149 529q-33 0 -56.5 22.5t-23.5 54.5
t23.5 55t56.5 23q32 0 56 -23t24 -55q0 -31 -24 -54t-56 -23zM351 529q-32 0 -56 23t-24 54q0 32 24 55t56 23q33 0 56.5 -23t23.5 -55t-23.5 -54.5t-56.5 -22.5zM230 77q31 0 50.5 26t19.5 73v50q-67 -13 -94.5 -32t-27.5 -55v-5q0 -27 14 -42t38 -15z" />
    <glyph glyph-name="adieresis.alt1" horiz-adv-x="588" 
d="M573 0h-173q-24 41 -27 105q-22 -54 -58.5 -85t-101.5 -31q-88 0 -140 71.5t-52 185.5v1q0 121 56 187.5t145 66.5q62 0 98.5 -27.5t61.5 -84.5q4 25 12 50t14 38l6 13h113v-379h46v-111zM272 98q42 0 69 38t27 98v18q0 70 -26 105t-69 35t-67.5 -32.5t-24.5 -92.5v-33
q0 -63 24 -99.5t67 -36.5zM188 529q-33 0 -56.5 22.5t-23.5 54.5t23.5 55t56.5 23q32 0 56 -23t24 -55q0 -31 -24 -54t-56 -23zM390 529q-32 0 -56 23t-24 54q0 32 24 55t56 23q33 0 56.5 -23t23.5 -55t-23.5 -54.5t-56.5 -22.5z" />
    <glyph glyph-name="agrave.alt" horiz-adv-x="518" 
d="M328 0q-21 34 -24 84q-32 -97 -143 -97q-64 0 -103.5 34.5t-39.5 95.5v1q0 35 13.5 61t35.5 43t60.5 30.5t77 21t95.5 15.5v22q0 45 -18.5 65t-66.5 20q-21 0 -39 -3v-77h-128v119q70 67 200 67q210 0 210 -216v-175h44v-111h-174zM216 539l-126 148h179l44 -148h-97z
M230 77q31 0 50.5 26t19.5 73v50q-67 -13 -94.5 -32t-27.5 -55v-5q0 -27 14 -42t38 -15z" />
    <glyph glyph-name="agrave.alt1" horiz-adv-x="588" 
d="M400 0q-24 41 -27 105q-22 -54 -58.5 -85t-101.5 -31q-88 0 -140 71.5t-52 185.5v1q0 121 56 187.5t145 66.5q62 0 98.5 -27.5t61.5 -84.5q4 25 12 50t14 38l6 13h113v-379h46v-111h-173zM272 98q42 0 69 38t27 98v18q0 70 -26 105t-69 35t-67.5 -32.5t-24.5 -92.5v-33
q0 -63 24 -99.5t67 -36.5zM254 539l-126 148h179l44 -148h-97z" />
    <glyph glyph-name="amacron.alt" horiz-adv-x="518" 
d="M328 0q-21 34 -24 84q-32 -97 -143 -97q-64 0 -103.5 34.5t-39.5 95.5v1q0 35 13.5 61t35.5 43t60.5 30.5t77 21t95.5 15.5v22q0 45 -18.5 65t-66.5 20q-21 0 -39 -3v-77h-128v119q70 67 200 67q210 0 210 -216v-175h44v-111h-174zM116 550v94h271v-94h-271zM230 77
q31 0 50.5 26t19.5 73v50q-67 -13 -94.5 -32t-27.5 -55v-5q0 -27 14 -42t38 -15z" />
    <glyph glyph-name="amacron.alt1" horiz-adv-x="588" 
d="M400 0q-24 41 -27 105q-22 -54 -58.5 -85t-101.5 -31q-88 0 -140 71.5t-52 185.5v1q0 121 56 187.5t145 66.5q62 0 98.5 -27.5t61.5 -84.5q4 25 12 50t14 38l6 13h113v-379h46v-111h-173zM272 98q42 0 69 38t27 98v18q0 70 -26 105t-69 35t-67.5 -32.5t-24.5 -92.5v-33
q0 -63 24 -99.5t67 -36.5zM154 550v94h271v-94h-271z" />
    <glyph glyph-name="aogonek.alt" horiz-adv-x="518" 
d="M48 316v119q70 67 200 67q210 0 210 -216v-175h44v-111h-92q-45 -26 -45 -56q0 -24 24 -24q11 0 25 6v-60q-17 -21 -73 -21q-45 0 -71.5 19.5t-26.5 51.5q0 27 22.5 50t59.5 38q-19 34 -21 80q-32 -97 -143 -97q-64 0 -103.5 34.5t-39.5 95.5v1q0 35 13.5 61t35.5 43
t60.5 30.5t77 21t95.5 15.5v22q0 45 -18.5 65t-66.5 20q-21 0 -39 -3v-77h-128zM230 77q31 0 50.5 26t19.5 73v50q-67 -13 -94.5 -32t-27.5 -55v-5q0 -27 14 -42t38 -15z" />
    <glyph glyph-name="aogonek.alt1" horiz-adv-x="588" 
d="M573 111v-111h-89q-46 -26 -46 -56q0 -24 25 -24q12 0 24 6v-60q-16 -21 -72 -21q-46 0 -72 19t-26 52q0 27 22 50t59 37q-23 46 -25 102q-22 -54 -58.5 -85t-101.5 -31q-88 0 -140 71.5t-52 185.5v1q0 121 56 187.5t145 66.5q62 0 98.5 -27.5t61.5 -84.5q4 25 12 50
t14 38l6 13h113v-379h46zM272 98q42 0 69 38t27 98v18q0 70 -26 105t-69 35t-67.5 -32.5t-24.5 -92.5v-33q0 -63 24 -99.5t67 -36.5z" />
    <glyph glyph-name="aring.alt" horiz-adv-x="518" 
d="M328 0q-21 34 -24 84q-32 -97 -143 -97q-64 0 -103.5 34.5t-39.5 95.5v1q0 35 13.5 61t35.5 43t60.5 30.5t77 21t95.5 15.5v22q0 45 -18.5 65t-66.5 20q-21 0 -39 -3v-77h-128v119q70 67 200 67q210 0 210 -216v-175h44v-111h-174zM250 531q-46 0 -77 31t-31 76
q0 44 31 75.5t77 31.5t77.5 -31.5t31.5 -75.5q0 -45 -31.5 -76t-77.5 -31zM230 77q31 0 50.5 26t19.5 73v50q-67 -13 -94.5 -32t-27.5 -55v-5q0 -27 14 -42t38 -15zM250 591q18 0 30.5 13t12.5 34q0 20 -12.5 33.5t-30.5 13.5q-17 0 -29.5 -13.5t-12.5 -33.5q0 -21 12 -34
t30 -13z" />
    <glyph glyph-name="aring.alt1" horiz-adv-x="588" 
d="M573 0h-173q-24 41 -27 105q-22 -54 -58.5 -85t-101.5 -31q-88 0 -140 71.5t-52 185.5v1q0 121 56 187.5t145 66.5q62 0 98.5 -27.5t61.5 -84.5q4 25 12 50t14 38l6 13h113v-379h46v-111zM272 98q42 0 69 38t27 98v18q0 70 -26 105t-69 35t-67.5 -32.5t-24.5 -92.5v-33
q0 -63 24 -99.5t67 -36.5zM288 531q-46 0 -77 31t-31 76q0 44 31 75.5t77 31.5t77.5 -31.5t31.5 -75.5q0 -45 -31.5 -76t-77.5 -31zM288 591q18 0 30.5 13t12.5 34q0 20 -12.5 33.5t-30.5 13.5q-17 0 -29.5 -13.5t-12.5 -33.5q0 -21 12 -34t30 -13z" />
    <glyph glyph-name="aringacute.alt" horiz-adv-x="518" 
d="M328 0q-21 34 -24 84q-32 -97 -143 -97q-64 0 -103.5 34.5t-39.5 95.5v1q0 35 13.5 61t35.5 43t60.5 30.5t77 21t95.5 15.5v22q0 45 -18.5 65t-66.5 20q-21 0 -39 -3v-77h-128v119q70 67 200 67q210 0 210 -216v-175h44v-111h-174zM251 526q-46 0 -77 31t-31 76t31.5 76
t76.5 31q46 0 77.5 -31.5t31.5 -75.5q0 -45 -31.5 -76t-77.5 -31zM195 762l33 118h185l-119 -118h-99zM230 77q31 0 50.5 26t19.5 73v50q-67 -13 -94.5 -32t-27.5 -55v-5q0 -27 14 -42t38 -15zM251 586q18 0 30.5 13t12.5 34q0 20 -12.5 33.5t-30.5 13.5q-17 0 -29.5 -13.5
t-12.5 -33.5q0 -21 12 -34t30 -13z" />
    <glyph glyph-name="aringacute.alt1" horiz-adv-x="588" 
d="M400 0q-24 41 -27 105q-22 -54 -58.5 -85t-101.5 -31q-88 0 -140 71.5t-52 185.5v1q0 121 56 187.5t145 66.5q62 0 98.5 -27.5t61.5 -84.5q4 25 12 50t14 38l6 13h113v-379h46v-111h-173zM272 98q42 0 69 38t27 98v18q0 70 -26 105t-69 35t-67.5 -32.5t-24.5 -92.5v-33
q0 -63 24 -99.5t67 -36.5zM284 526q-46 0 -77 31t-31 76t31 76t77 31t77.5 -31.5t31.5 -75.5q0 -45 -31.5 -76t-77.5 -31zM227 762l33 118h185l-119 -118h-99zM284 586q18 0 30.5 13t12.5 34q0 20 -12.5 33.5t-30.5 13.5q-17 0 -29.5 -13.5t-12.5 -33.5q0 -21 12 -34t30 -13
z" />
    <glyph glyph-name="atilde.alt" horiz-adv-x="518" 
d="M48 316v119q70 67 200 67q210 0 210 -216v-175h44v-111h-174q-21 34 -24 84q-32 -97 -143 -97q-64 0 -103.5 34.5t-39.5 95.5v1q0 35 13.5 61t35.5 43t60.5 30.5t77 21t95.5 15.5v22q0 45 -18.5 65t-66.5 20q-21 0 -39 -3v-77h-128zM108 545q-19 55 1.5 100t76.5 45
q33 0 71 -16.5t48 -16.5q14 0 19.5 8t7.5 29h62q18 -55 -1.5 -100t-74.5 -45q-31 0 -71 16.5t-51 16.5q-13 0 -18.5 -8t-7.5 -29h-62zM230 77q31 0 50.5 26t19.5 73v50q-67 -13 -94.5 -32t-27.5 -55v-5q0 -27 14 -42t38 -15z" />
    <glyph glyph-name="atilde.alt1" horiz-adv-x="588" 
d="M573 0h-173q-24 41 -27 105q-22 -54 -58.5 -85t-101.5 -31q-88 0 -140 71.5t-52 185.5v1q0 121 56 187.5t145 66.5q62 0 98.5 -27.5t61.5 -84.5q4 25 12 50t14 38l6 13h113v-379h46v-111zM272 98q42 0 69 38t27 98v18q0 70 -26 105t-69 35t-67.5 -32.5t-24.5 -92.5v-33
q0 -63 24 -99.5t67 -36.5zM146 545q-19 55 1.5 100t76.5 45q33 0 71 -16.5t48 -16.5q14 0 19.5 8t7.5 29h62q18 -55 -1.5 -100t-74.5 -45q-31 0 -71 16.5t-51 16.5q-13 0 -18.5 -8t-7.5 -29h-62z" />
    <glyph glyph-name="aeacute.alt" horiz-adv-x="783" 
d="M176 316h-128v119q70 67 190 67q111 0 157 -65q56 65 151 65q104 0 161 -57t57 -150q0 -40 -15 -81h-291q4 -61 38.5 -83.5t103.5 -22.5q82 0 140 29v-84q-18 -26 -67 -45t-116 -19q-164 0 -224 108q-34 -110 -166 -110q-69 0 -109 35.5t-40 94.5v2q0 35 13.5 61t35.5 43
t60.5 30t76.5 20.5t96 15.5v22q0 45 -18.5 65t-66.5 20q-21 0 -39 -3v-77zM337 539l47 148h178l-133 -148h-92zM547 403q-85 0 -89 -118h164v10q0 108 -75 108zM178 139v-6q0 -27 14 -41.5t39 -14.5q30 0 49.5 26t19.5 73v50q-67 -13 -94.5 -32t-27.5 -55z" />
    <glyph glyph-name="gbreve.alt" horiz-adv-x="531" 
d="M261 -160q-251 0 -251 114v1q0 60 115 77q-76 18 -76 80q0 66 98 92q-106 25 -106 142v1q0 75 61 115t147 40q68 0 107 -12h159v-109h-64q17 -23 17 -56v-1q0 -73 -57.5 -107.5t-148.5 -34.5h-56q-35 0 -35 -20q0 -7 4.5 -11t11.5 -5.5t21 -2.5l138 -5q86 -3 128.5 -35.5
t42.5 -98.5v-1q0 -163 -256 -163zM319 680h87q5 -58 -29.5 -100.5t-106.5 -42.5q-71 0 -105.5 42.5t-28.5 100.5h86q-1 -22 11.5 -36.5t36.5 -14.5q25 0 37.5 14.5t11.5 36.5zM256 262q69 0 69 71v15q0 64 -69 64q-70 0 -70 -64v-15q0 -71 70 -71zM250 -61q116 0 116 42v1
q0 31 -50 33l-106 4q-27 1 -42 -9.5t-15 -26.5v-1q0 -23 22 -33t75 -10z" />
    <glyph glyph-name="gcircumflex.alt" horiz-adv-x="531" 
d="M111 539l85 148h150l85 -148h-98l-62 63l-62 -63h-98zM261 -160q-251 0 -251 114v1q0 60 115 77q-76 18 -76 80q0 66 98 92q-106 25 -106 142v1q0 75 61 115t147 40q68 0 107 -12h159v-109h-64q17 -23 17 -56v-1q0 -73 -57.5 -107.5t-148.5 -34.5h-56q-35 0 -35 -20
q0 -7 4.5 -11t11.5 -5.5t21 -2.5l138 -5q86 -3 128.5 -35.5t42.5 -98.5v-1q0 -163 -256 -163zM250 -61q116 0 116 42v1q0 31 -50 33l-106 4q-27 1 -42 -9.5t-15 -26.5v-1q0 -23 22 -33t75 -10zM256 262q69 0 69 71v15q0 64 -69 64q-70 0 -70 -64v-15q0 -71 70 -71z" />
    <glyph glyph-name="gcommaaccent.alt" horiz-adv-x="531" 
d="M259 683h93q-20 -41 -20 -86q0 -27 6 -46h-130q-5 15 -5 28q0 64 56 104zM261 -160q-251 0 -251 114v1q0 60 115 77q-76 18 -76 80q0 66 98 92q-106 25 -106 142v1q0 75 61 115t147 40q68 0 107 -12h159v-109h-64q17 -23 17 -56v-1q0 -73 -57.5 -107.5t-148.5 -34.5h-56
q-35 0 -35 -20q0 -7 4.5 -11t11.5 -5.5t21 -2.5l138 -5q86 -3 128.5 -35.5t42.5 -98.5v-1q0 -163 -256 -163zM250 -61q116 0 116 42v1q0 31 -50 33l-106 4q-27 1 -42 -9.5t-15 -26.5v-1q0 -23 22 -33t75 -10zM256 262q69 0 69 71v15q0 64 -69 64q-70 0 -70 -64v-15
q0 -71 70 -71z" />
    <glyph glyph-name="gdotaccent.alt" horiz-adv-x="531" 
d="M261 -160q-251 0 -251 114v1q0 60 115 77q-76 18 -76 80q0 66 98 92q-106 25 -106 142v1q0 75 61 115t147 40q68 0 107 -12h159v-109h-64q17 -23 17 -56v-1q0 -73 -57.5 -107.5t-148.5 -34.5h-56q-35 0 -35 -20q0 -7 4.5 -11t11.5 -5.5t21 -2.5l138 -5q86 -3 128.5 -35.5
t42.5 -98.5v-1q0 -163 -256 -163zM250 -61q116 0 116 42v1q0 31 -50 33l-106 4q-27 1 -42 -9.5t-15 -26.5v-1q0 -23 22 -33t75 -10zM256 262q69 0 69 71v15q0 64 -69 64q-70 0 -70 -64v-15q0 -71 70 -71zM271 531q-35 0 -59.5 24t-24.5 58q0 35 24.5 59.5t59.5 24.5
q36 0 60 -24.5t24 -59.5t-24 -58.5t-60 -23.5z" />
    <glyph glyph-name="yacute.alt" horiz-adv-x="564" 
d="M322 358v132h229v-132h-47l-153 -402h59v-102h-286v102h103l28 73h-66l-129 329h-47v132h263v-132h-59l83 -225l81 225h-59zM238 539l47 148h178l-133 -148h-92z" />
    <glyph glyph-name="ycircumflex.alt" horiz-adv-x="564" 
d="M322 358v132h229v-132h-47l-153 -402h59v-102h-286v102h103l28 73h-66l-129 329h-47v132h263v-132h-59l83 -225l81 225h-59zM138 539l85 148h150l85 -148h-98l-62 63l-62 -63h-98z" />
    <glyph glyph-name="ydieresis.alt" horiz-adv-x="564" 
d="M322 358v132h229v-132h-47l-153 -402h59v-102h-286v102h103l28 73h-66l-129 329h-47v132h263v-132h-59l83 -225l81 225h-59zM197 529q-33 0 -56.5 22.5t-23.5 54.5t23.5 55t56.5 23q32 0 56 -23t24 -55q0 -31 -24 -54t-56 -23zM399 529q-32 0 -56 23t-24 54q0 32 24 55
t56 23q33 0 56.5 -23t23.5 -55t-23.5 -54.5t-56.5 -22.5z" />
    <glyph glyph-name="ygrave.alt" horiz-adv-x="564" 
d="M322 358v132h229v-132h-47l-153 -402h59v-102h-286v102h103l28 73h-66l-129 329h-47v132h263v-132h-59l83 -225l81 225h-59zM263 539l-126 148h179l44 -148h-97z" />
    <glyph glyph-name="f_b.alt" horiz-adv-x="914" 
d="M333 0v111h46v562h158v-289q13 47 54 82.5t104 35.5q93 0 145.5 -68.5t52.5 -179.5v-1q0 -125 -56.5 -194.5t-148.5 -69.5q-128 0 -163 132q-1 -36 -7.5 -66.5t-12.5 -42.5l-6 -12h-166zM297 0h-282v111h55v272h-55v107h55v14q0 88 47 132t117 44q66 0 95 -24v-88
q-14 3 -40 3q-33 0 -47 -12t-14 -41v-28h101v-107h-101v-272h69v-111zM637 95q44 0 70 37.5t26 107.5v31q0 55 -25 86.5t-71 31.5q-44 0 -72 -34t-28 -93v-19q0 -73 27.5 -110.5t72.5 -37.5z" />
    <glyph glyph-name="f_f_b.alt" horiz-adv-x="1205" 
d="M15 383v107h55v16q0 84 48.5 126.5t123.5 42.5q65 0 94 -25v-87q-30 3 -40 3q-37 0 -52.5 -11t-15.5 -39v-26h137v14q0 88 47 132t118 44q65 0 94 -24v-88q-13 3 -40 3q-34 0 -47.5 -12t-13.5 -41v-28h101v-107h-101v-272h69v-111h-275v111h48v272h-137v-272h53v-111
h-266v111h55v272h-55zM627 0v111h46v562h158v-289q14 47 55 82.5t104 35.5q93 0 145.5 -68.5t52.5 -179.5v-1q0 -125 -56.5 -194.5t-148.5 -69.5q-127 0 -164 132q-1 -36 -7.5 -66.5t-12.5 -42.5l-6 -12h-166zM932 95q44 0 70 37.5t26 107.5v31q0 55 -25 86.5t-71 31.5
q-45 0 -73 -34t-28 -93v-19q0 -72 28 -110t73 -38z" />
    <glyph glyph-name="f_f_h.alt" horiz-adv-x="1214" 
d="M15 383v107h55v16q0 84 48.5 126.5t123.5 42.5q65 0 94 -25v-87q-30 3 -40 3q-37 0 -52.5 -11t-15.5 -39v-26h137v14q0 88 47 132t118 44q65 0 94 -24v-88q-13 3 -40 3q-34 0 -47.5 -12t-13.5 -41v-28h101v-107h-101v-272h69v-111h-275v111h48v272h-137v-272h53v-111
h-266v111h55v272h-55zM627 0v111h46v562h158v-298q18 60 60.5 93.5t106.5 33.5q74 0 115 -45t41 -132v-214h45v-111h-261v111h57v194q0 80 -69 80q-43 0 -68.5 -33t-26.5 -93v-148h60v-111h-264z" />
    <glyph glyph-name="f_f_k.alt" horiz-adv-x="1157" 
d="M15 383v107h55v16q0 84 48.5 126.5t123.5 42.5q65 0 94 -25v-87q-30 3 -40 3q-37 0 -52.5 -11t-15.5 -39v-26h137v14q0 88 47 132t118 44q65 0 94 -24v-88q-13 3 -40 3q-34 0 -47.5 -12t-13.5 -41v-28h101v-107h-101v-272h69v-111h-275v111h48v272h-137v-272h53v-111
h-266v111h55v272h-55zM976 0l-145 243v-132h46v-111h-250v111h46v562h158v-412l159 229h138v-132h-81l-65 -89l101 -158h59v-111h-166z" />
    <glyph glyph-name="f_f_l.alt" horiz-adv-x="897" 
d="M15 383v107h55v16q0 84 48.5 126.5t123.5 42.5q65 0 94 -25v-87q-30 3 -40 3q-37 0 -52.5 -11t-15.5 -39v-26h137v14q0 88 47 132t118 44q65 0 94 -24v-88q-13 3 -40 3q-34 0 -47.5 -12t-13.5 -41v-28h101v-107h-101v-272h62v-111h-268v111h48v272h-137v-272h53v-111
h-266v111h55v272h-55zM621 0v111h52v562h158v-562h50v-111h-260z" />
    <glyph glyph-name="f_h.alt" horiz-adv-x="919" 
d="M643 0v111h58v194q0 80 -70 80q-43 0 -68 -33t-26 -93v-148h59v-111h-263v111h46v562h158v-298q17 60 59.5 93.5t106.5 33.5q74 0 115.5 -44.5t41.5 -132.5v-214h44v-111h-261zM15 0v111h55v272h-55v107h55v14q0 88 47 132t117 44q66 0 95 -24v-88q-14 3 -40 3
q-33 0 -47 -12t-14 -41v-28h101v-107h-101v-272h69v-111h-282z" />
    <glyph glyph-name="f_k.alt" horiz-adv-x="863" 
d="M682 0l-145 241v-130h46v-111h-250v111h46v562h158v-410l158 227h138v-132h-80l-65 -89l100 -158h59v-111h-165zM15 0v111h55v272h-55v107h55v14q0 88 47 132t117 44q66 0 95 -24v-88q-14 3 -40 3q-33 0 -47 -12t-14 -41v-28h101v-107h-101v-272h69v-111h-282z" />
    <glyph glyph-name="f_l.alt" horiz-adv-x="602" 
d="M15 383v107h55v14q0 88 47 132t117 44q66 0 95 -24v-88q-14 3 -40 3q-33 0 -47 -12t-14 -41v-28h101v-107h-101v-272h64v-111h-277v111h55v272h-55zM328 0v111h51v562h158v-562h50v-111h-259z" />
    <glyph glyph-name="space_uni0326.alt" horiz-adv-x="400" 
d="M188 683h93q-20 -41 -20 -86q0 -27 6 -46h-130q-5 15 -5 28q0 64 56 104z" />
    <glyph glyph-name="six.alt" horiz-adv-x="583" 
d="M355 529q-77 0 -118.5 -49t-41.5 -147v-15q42 97 164 97q96 0 148.5 -57t52.5 -146v-5q0 -98 -68.5 -160t-190.5 -62q-132 0 -203.5 80t-71.5 219v41q0 157 84.5 242.5t219.5 85.5q133 0 185 -64v-99q-67 39 -160 39zM298 315q-47 0 -74 -24t-29 -68v-15q0 -120 103 -120
q96 0 96 111v13q0 103 -96 103z" />
    <glyph glyph-name="nine.alt" horiz-adv-x="583" 
d="M225 107q162 0 162 183v19q-41 -91 -154 -91q-99 0 -154.5 58.5t-55.5 149.5v5q0 100 68.5 161t190.5 61q132 0 203 -77.5t71 -216.5v-42q0 -169 -80 -250.5t-224 -81.5q-138 0 -190 63v98q68 -41 163 -39zM283 318q47 0 75 24t29 67v19q0 120 -104 120q-96 0 -96 -113
v-15q0 -102 96 -102z" />
    <glyph glyph-name="ordfeminine.alt" horiz-adv-x="385" 
d="M38 511v89q56 49 147 49q83 0 119.5 -41t36.5 -119v-118h30v-84h-132q-16 23 -18 58q-24 -67 -102 -67q-46 0 -74.5 24t-28.5 69v1q0 58 48.5 82.5t152.5 39.5v15q0 31 -12.5 45.5t-45.5 14.5q-9 0 -23 -2v-56h-98zM174 346q43 0 43 66v35q-40 -8 -58 -21t-18 -38v-4
q0 -18 9 -28t24 -10z" />
    <glyph glyph-name="ordfeminine.alt1" horiz-adv-x="435" 
d="M420 287h-130q-18 28 -20 73q-18 -38 -42.5 -59.5t-71.5 -21.5q-64 0 -101 50.5t-37 131.5v3q0 88 40 136.5t105 48.5q44 0 70 -19t44 -60q4 17 10 34.5t11 26.5l4 9h88v-269h30v-84zM203 363q28 0 45.5 26t17.5 67v13q0 96 -62 96q-29 0 -45 -23t-16 -64v-23
q0 -43 15.5 -67.5t44.5 -24.5z" />
    <glyph glyph-name="braceleft.alt" horiz-adv-x="349" 
d="M236 525q0 -17 6 -56.5t6 -60.5q0 -46 -31.5 -74.5t-109.5 -42.5v-3q77 -14 109 -42.5t32 -74.5q0 -20 -6 -62.5t-6 -61.5q0 -21 11 -31t38 -10h44v-104h-76q-82 0 -120.5 33.5t-38.5 89.5q0 26 10 75.5t10 70.5q0 26 -20.5 40t-71.5 18v121q51 4 71.5 18t20.5 40
q0 21 -10 68.5t-10 73.5q0 56 38.5 89.5t119.5 33.5h77v-108h-44q-27 0 -38 -9.5t-11 -30.5z" />
    <glyph glyph-name="braceright.alt" horiz-adv-x="349" 
d="M110 525q0 21 -11 30.5t-38 9.5h-44v108h77q81 0 119.5 -33.5t38.5 -89.5q0 -26 -10 -73.5t-10 -68.5q0 -26 20.5 -40t71.5 -18v-121q-51 -4 -71.5 -18t-20.5 -40q0 -21 10 -70.5t10 -75.5q0 -56 -38.5 -89.5t-120.5 -33.5h-76v104h44q27 0 38 10t11 31q0 19 -6 61.5
t-6 62.5q0 46 32 74.5t109 42.5v3q-78 14 -109.5 42.5t-31.5 74.5q0 21 6 60.5t6 56.5z" />
    <glyph glyph-name="registered.alt" horiz-adv-x="734" 
d="M367 -14q-141 0 -238 97t-97 234q0 138 97 236t238 98q143 0 239 -97.5t96 -236.5q0 -138 -96 -234.5t-239 -96.5zM367 41q116 0 195 81t79 195q0 115 -79 197t-195 82q-115 0 -194.5 -82.5t-79.5 -196.5t79.5 -195t194.5 -81zM209 422v73h172q67 0 103 -26.5t36 -76.5
q0 -73 -65 -92l54 -78h27v-68h-100v1l-3 -1l-92 143v-75h22v-68h-154v68h27v200h-27zM341 333h29q46 0 46 43q0 41 -43 41h-32v-84z" />
    <glyph glyph-name="caron.alt" horiz-adv-x="400" 
d="M162 527l4 146h113l-40 -146h-77z" />
    <glyph glyph-name="questiondown.uc" horiz-adv-x="422" 
d="M179 163q0 -69 73 -69q19 0 29 1v75h121v-125q-23 -26 -71 -44.5t-113 -18.5q-87 0 -142.5 42.5t-55.5 124.5q0 47 17.5 83t43 57.5t50.5 40t42.5 42t17.5 52.5v12h117v-42q0 -35 -13.5 -64t-32 -49t-37.5 -37.5t-32.5 -38t-13.5 -42.5zM150 570q0 37 27 63.5t65 26.5
q37 0 64 -26.5t27 -63.5t-27 -64t-63 -27q-38 0 -65.5 27t-27.5 64z" />
    <glyph glyph-name="exclamdown.uc" horiz-adv-x="258" 
d="M38 -7l45 443h92l45 -443h-182zM130 660q36 0 63 -26.5t27 -63.5t-27 -64t-63 -27q-38 0 -65 27t-27 64t27 63.5t65 26.5z" />
    <glyph glyph-name="hyphen.uc" horiz-adv-x="315" 
d="M43 255v128h229v-128h-229z" />
    <glyph glyph-name="endash.uc" horiz-adv-x="591" 
d="M43 269v95h505v-95h-505z" />
    <glyph glyph-name="emdash.uc" horiz-adv-x="977" 
d="M43 269v95h891v-95h-891z" />
    <glyph glyph-name="guilsinglleft.uc" horiz-adv-x="237" 
d="M100 465h122l-89 -165l89 -167h-122l-85 166z" />
    <glyph glyph-name="guilsinglright.uc" horiz-adv-x="237" 
d="M15 133l89 166l-89 166h121l86 -165l-86 -167h-121z" />
    <glyph glyph-name="guillemotleft.uc" horiz-adv-x="381" 
d="M100 462h114l-89 -166l89 -167h-114l-85 166zM366 462l-89 -166l89 -167h-114l-85 166l85 167h114z" />
    <glyph glyph-name="guillemotright.uc" horiz-adv-x="381" 
d="M281 129h-114l89 166l-89 167h114l85 -166zM15 129l89 166l-89 167h114l85 -166l-85 -167h-114z" />
    <glyph glyph-name="parenleft.uc" horiz-adv-x="316" 
d="M181 327v-32q0 -207 125 -349v-5h-118q-24 22 -46 49t-49 72t-43 108t-16 134v14q0 67 16 128.5t43 105.5t49 72t46 49h118v-5q-55 -60 -90 -148t-35 -193z" />
    <glyph glyph-name="parenright.uc" horiz-adv-x="316" 
d="M135 287v32q0 207 -125 349v5h118q24 -22 46 -49t49 -72t43 -108t16 -134v-14q0 -67 -16 -128.5t-43 -105.5t-49 -72t-46 -49h-118v5q55 60 90 148t35 193z" />
    <glyph glyph-name="bracketleft.uc" horiz-adv-x="360" 
d="M58 -58v731h281v-108h-142v-519h142v-104h-281z" />
    <glyph glyph-name="bracketright.uc" horiz-adv-x="360" 
d="M301 673v-731h-281v104h143v519h-143v108h281z" />
    <glyph glyph-name="braceleft.uc" horiz-adv-x="327" 
d="M103 311v-3q75 -8 108.5 -41t33.5 -77q0 -27 -10 -67.5t-10 -61.5q0 -36 14.5 -59t51.5 -55v-5h-115q-41 11 -69.5 41t-28.5 71q0 32 18 77t18 63q0 48 -92 55v121q92 7 92 55q0 18 -18 61t-18 75q0 42 28.5 71.5t69.5 40.5h115v-5q-37 -32 -51.5 -55t-14.5 -59
q0 -21 10 -60.5t10 -66.5q0 -44 -33 -76t-109 -40z" />
    <glyph glyph-name="braceright.uc" horiz-adv-x="327" 
d="M224 308v3q-76 8 -109 40t-33 76q0 27 10 66.5t10 60.5q0 36 -14.5 59t-51.5 55v5h115q41 -11 69.5 -40.5t28.5 -71.5q0 -32 -18 -75t-18 -61q0 -48 92 -55v-121q-92 -7 -92 -55q0 -18 18 -63t18 -77q0 -41 -28.5 -71t-69.5 -41h-115v5q37 32 51.5 55t14.5 59
q0 21 -10 61.5t-10 67.5q0 44 33.5 77t108.5 41z" />
    <glyph glyph-name="slash.uc" horiz-adv-x="363" 
d="M353 673l-223 -732h-125l223 732h125z" />
    <glyph glyph-name="backslash.uc" horiz-adv-x="363" 
d="M10 673h125l222 -732h-125z" />
    <glyph glyph-name="bar.uc" horiz-adv-x="250" 
d="M184 673v-732h-118v732h118z" />
    <glyph glyph-name="at.uc" horiz-adv-x="820" 
d="M385 198q29 0 50 22.5t27 67.5l2 11q8 51 -8.5 74.5t-47.5 23.5q-32 0 -53 -32t-21 -100q0 -67 51 -67zM435 687q159 0 260.5 -84.5t101.5 -235.5q0 -127 -51.5 -195.5t-143.5 -68.5q-57 0 -91 23t-42 61q-32 -86 -118 -86q-72 0 -109.5 45.5t-37.5 121.5q0 99 50 165
t129 66q44 0 69.5 -24t33.5 -65q4 21 13 40.5t15 28.5l7 9h107l-40 -238q-8 -33 -2 -53t32 -20q41 0 65 50t24 139q0 121 -75.5 180t-199.5 59q-141 0 -227.5 -90t-86.5 -238q0 -136 76.5 -208.5t222.5 -72.5q149 0 245 70v-76q-34 -29 -99 -50.5t-148 -21.5q-178 0 -284 95
t-106 261q0 187 119 300t291 113z" />
    <glyph glyph-name="grave.uc" horiz-adv-x="400" 
d="M158 682l-119 118h185l33 -118h-99z" />
    <glyph glyph-name="dieresis.uc" horiz-adv-x="394" 
d="M91 666q-32 0 -56 23t-24 54q0 32 24 55t56 23q33 0 56.5 -23t23.5 -55t-23.5 -54.5t-56.5 -22.5zM302 666q-33 0 -56.5 22.5t-23.5 54.5t23.5 55t56.5 23q32 0 56 -23t24 -55q0 -31 -24 -54t-56 -23z" />
    <glyph glyph-name="macron.uc" horiz-adv-x="400" 
d="M61 692v94h278v-94h-278z" />
    <glyph glyph-name="acute.uc" horiz-adv-x="400" 
d="M143 682l33 118h185l-119 -118h-99z" />
    <glyph glyph-name="circumflex.uc" horiz-adv-x="400" 
d="M359 682h-97l-62 44l-62 -44h-97l79 118h160z" />
    <glyph glyph-name="caron.uc" horiz-adv-x="400" 
d="M41 800h97l62 -44l62 44h97l-79 -118h-160z" />
    <glyph glyph-name="breve.uc" horiz-adv-x="400" 
d="M247 805h86q4 -57 -29.5 -97t-104.5 -40q-70 0 -103 40t-29 97h85q0 -19 12 -31.5t35 -12.5q25 0 37 12.5t11 31.5z" />
    <glyph glyph-name="dotaccent.uc" horiz-adv-x="400" 
d="M200 676q-35 0 -59.5 24t-24.5 58q0 35 24.5 59.5t59.5 24.5q36 0 60 -24.5t24 -59.5t-24 -58.5t-60 -23.5z" />
    <glyph glyph-name="ring.uc" horiz-adv-x="394" 
d="M197 721q18 0 30.5 12t12.5 32t-12.5 32.5t-30.5 12.5t-29.5 -12.5t-11.5 -32.5t11.5 -32t29.5 -12zM197 658q-45 0 -76.5 31t-31.5 76t31.5 76.5t76.5 31.5t77 -31.5t32 -76.5q0 -44 -31.5 -75.5t-77.5 -31.5z" />
    <glyph glyph-name="tilde.uc" horiz-adv-x="400" 
d="M52 677q-18 55 4 99t75 44q33 0 75.5 -16.5t52.5 -16.5q14 0 19.5 8t7.5 29h62q18 -55 -3.5 -99t-72.5 -44q-32 0 -75.5 16.5t-55.5 16.5q-14 0 -19.5 -8t-7.5 -29h-62z" />
    <glyph glyph-name="hungarumlaut.uc" horiz-adv-x="400" 
d="M53 682l37 118h147l-79 -118h-105zM223 682l38 118h146l-79 -118h-105z" />
    <glyph glyph-name="Cacute.pl" horiz-adv-x="589" 
d="M409 430v94q-35 5 -66 5q-150 0 -150 -179v-42q0 -205 161 -205q34 0 67 6v94h134v-143q-26 -30 -82 -52.5t-132 -22.5q-148 0 -233.5 89t-85.5 250v2q0 150 82.5 238.5t225.5 88.5q77 0 134.5 -21t85.5 -49v-153h-141zM272 682l13 118h162l-80 -118h-95z" />
    <glyph glyph-name="Nacute.pl" horiz-adv-x="697" 
d="M431 520v119h248v-119h-50v-520h-206l-223 488v-377h81v-111h-262v111h51v409h-51v119h281l199 -449v330h-68zM313 682l13 118h162l-80 -118h-95z" />
    <glyph glyph-name="Oacute.pl" horiz-adv-x="676" 
d="M285 682l13 118h162l-80 -118h-95zM338 103q148 0 148 200v47q0 86 -37 132.5t-111 46.5q-147 0 -147 -179v-47q0 -200 147 -200zM338 -15q-137 0 -226.5 87.5t-89.5 248.5v2q0 150 85.5 240t230.5 90t230.5 -90t85.5 -240v-2q0 -161 -89 -248.5t-227 -87.5z" />
    <glyph glyph-name="Sacute.pl" horiz-adv-x="526" 
d="M340 451v78q-44 6 -65 6q-98 0 -98 -68q0 -41 44 -56q14 -5 95 -22.5t115 -37.5q79 -47 79 -156q0 -104 -67.5 -157t-182.5 -53q-81 0 -142.5 19t-91.5 49v142h137v-89q47 -9 82 -9q106 0 106 76q0 40 -49 56q-12 5 -84.5 21.5t-107.5 36.5q-80 44 -80 163q0 101 68 152
t166 51q72 0 128 -17t84 -45v-140h-136zM214 682l13 118h162l-80 -118h-95z" />
    <glyph glyph-name="Zacute.pl" horiz-adv-x="560" 
d="M43 430v209h492v-151l-351 -379h218v90h134v-199h-514v143l342 376h-187v-89h-134zM234 682l13 118h162l-80 -118h-95z" />
    <glyph glyph-name="acute.pl" horiz-adv-x="400" 
d="M145 539l13 148h163l-81 -148h-95z" />
    <glyph glyph-name="acute.ucpl" horiz-adv-x="400" 
d="M147 682l13 118h162l-80 -118h-95z" />
    <glyph glyph-name="braceleft.ucalt" horiz-adv-x="349" 
d="M236 526q0 -16 6 -52t6 -56q0 -39 -32 -66t-109 -41v-3q77 -14 109 -40.5t32 -66.5q0 -20 -6 -58.5t-6 -56.5q0 -21 11 -30.5t38 -9.5h44v-104h-76q-82 0 -120.5 31t-38.5 84q0 25 10 69t10 65q0 52 -92 58v121q92 6 92 58q0 20 -10 62.5t-10 67.5q0 53 38.5 84t119.5 31
h77v-108h-44q-27 0 -38 -9t-11 -30z" />
    <glyph glyph-name="braceright.ucalt" horiz-adv-x="349" 
d="M110 526q0 21 -11 30t-38 9h-44v108h77q81 0 119.5 -31t38.5 -84q0 -25 -10 -67.5t-10 -62.5q0 -52 92 -58v-121q-92 -6 -92 -58q0 -21 10 -65t10 -69q0 -53 -38.5 -84t-120.5 -31h-76v104h44q27 0 38 9.5t11 30.5q0 18 -6 56.5t-6 58.5q0 40 32 66.5t109 40.5v3
q-77 14 -109 41t-32 66q0 20 6 56t6 52z" />
    <glyph glyph-name="cacute.pl" horiz-adv-x="469" 
d="M311 317v75q-5 0 -15 0.5t-15 0.5q-103 0 -103 -126v-24q0 -74 31 -105.5t96 -31.5q67 0 137 35v-91q-20 -26 -64.5 -44t-108.5 -18q-113 0 -181.5 68t-68.5 190v1q0 121 72.5 188t173.5 67q127 0 173 -50v-135h-127zM209 539l13 148h163l-81 -148h-95z" />
    <glyph glyph-name="f.short" horiz-adv-x="335" 
d="M15 490h55v14q0 87 46 131.5t117 44.5q63 0 89 -24v-88q-14 3 -36 3q-30 0 -44 -12.5t-14 -40.5v-28h94v-107h-94v-272h67v-111h-280v111h55v272h-55v107z" />
    <glyph glyph-name="f_f.short" horiz-adv-x="629" 
d="M15 383v107h55v16q0 84 48.5 126.5t123.5 42.5q65 0 94 -25v-87q-30 3 -40 3q-37 0 -52.5 -11t-15.5 -39v-26h137v14q0 87 45.5 131.5t116.5 44.5q63 0 89 -24v-88q-12 3 -35 3q-30 0 -44 -12.5t-14 -40.5v-28h93v-107h-93v-272h66v-111h-272v111h48v272h-137v-272h53
v-111h-266v111h55v272h-55z" />
    <glyph glyph-name="nacute.pl" horiz-adv-x="602" 
d="M326 0v111h57v194q0 80 -69 80q-43 0 -68.5 -33t-25.5 -93v-148h59v-111h-264v111h46v247h-46v132h174q27 -49 27 -113v-8q17 62 60.5 97.5t109.5 35.5q74 0 115 -45t41 -132v-214h45v-111h-261zM241 539l13 148h163l-81 -148h-95z" />
    <glyph glyph-name="nine.denalt" horiz-adv-x="385" 
d="M142 74q98 0 98 100v10q-25 -52 -91 -52q-62 0 -96 34.5t-34 90.5v3q0 60 44 97t124 37q88 0 132.5 -47.5t44.5 -131.5v-23q0 -98 -52.5 -149.5t-145.5 -51.5t-125 40v66q40 -23 101 -23zM188 199q49 0 52 47v15q0 62 -52 62q-50 0 -50 -60v-10q0 -54 50 -54z" />
    <glyph glyph-name="nine.numalt" horiz-adv-x="385" 
d="M142 338q98 0 98 100v10q-25 -52 -91 -52q-62 0 -96 34.5t-34 90.5v3q0 60 44 97t124 37q88 0 132.5 -47.5t44.5 -131.5v-23q0 -98 -52.5 -149.5t-145.5 -51.5t-125 40v66q40 -23 101 -23zM188 463q49 0 52 47v15q0 62 -52 62q-50 0 -50 -60v-10q0 -54 50 -54z" />
    <glyph glyph-name="nine.subalt" horiz-adv-x="385" 
d="M142 5q98 0 98 100v10q-25 -52 -91 -52q-62 0 -96 34.5t-34 90.5v3q0 60 44 97t124 37q88 0 132.5 -47.5t44.5 -131.5v-23q0 -98 -52.5 -149.5t-145.5 -51.5t-125 40v66q40 -23 101 -23zM188 130q49 0 52 47v15q0 62 -52 62q-50 0 -50 -60v-10q0 -54 50 -54z" />
    <glyph glyph-name="nine.supalt" horiz-adv-x="385" 
d="M142 389q98 0 98 100v10q-25 -52 -91 -52q-62 0 -96 34.5t-34 90.5v3q0 60 44 97t124 37q88 0 132.5 -47.5t44.5 -131.5v-23q0 -98 -52.5 -149.5t-145.5 -51.5t-125 40v66q40 -23 101 -23zM188 514q49 0 52 47v15q0 62 -52 62q-50 0 -50 -60v-10q0 -54 50 -54z" />
    <glyph glyph-name="nine.tabalt" 
d="M235 106q151 0 151 183v18q-39 -87 -144 -87q-97 0 -149 57.5t-52 148.5v5q0 100 65 161t185 61q128 0 196.5 -77.5t68.5 -216.5v-42q0 -165 -76.5 -248.5t-213.5 -83.5q-142 0 -194 63v96q65 -38 163 -38zM292 317q44 0 68.5 23.5t25.5 67.5v18q0 121 -94 121
q-87 0 -87 -113v-15q0 -102 87 -102z" />
    <glyph glyph-name="oacute.pl" horiz-adv-x="549" 
d="M274 90q96 0 96 145v36q0 62 -26 94.5t-70 32.5t-69.5 -32t-25.5 -95v-36q0 -145 95 -145zM274 -11q-108 0 -181.5 65t-73.5 196v2q0 117 71 183.5t184 66.5t184.5 -66.5t71.5 -182.5v-2q0 -68 -21 -119.5t-57.5 -82t-81.5 -45.5t-96 -15zM220 539l13 148h163l-81 -148
h-95z" />
    <glyph glyph-name="sacute.pl" horiz-adv-x="436" 
d="M274 348v54q-26 3 -51 3q-73 0 -73 -48q0 -29 30 -36q6 -2 75 -12t97 -27q65 -36 65 -122q0 -85 -55.5 -129.5t-155.5 -44.5q-126 0 -187 52v108h124v-56q24 -4 56 -4q81 0 81 49q0 26 -33 37q-7 2 -67.5 11.5t-90.5 25.5q-67 36 -67 126q0 87 57 127t146 40
q57 0 103 -13t68 -32v-109h-122zM165 539l13 148h163l-81 -148h-95z" />
    <glyph glyph-name="six.denalt" horiz-adv-x="385" 
d="M240 309q-96 0 -96 -108v-9q25 58 101 58q58 0 90 -33.5t32 -88.5v-3q0 -59 -44 -96.5t-125 -37.5q-87 0 -131.5 50t-44.5 134v21q0 92 54.5 145t141.5 53q89 0 121 -41v-67q-40 23 -99 23zM197 182q-50 0 -53 -47v-13q0 -62 52 -62q50 0 50 59v8q0 55 -49 55z" />
    <glyph glyph-name="six.numalt" horiz-adv-x="385" 
d="M240 573q-96 0 -96 -108v-9q25 58 101 58q58 0 90 -33.5t32 -88.5v-3q0 -59 -44 -96.5t-125 -37.5q-87 0 -131.5 50t-44.5 134v21q0 92 54.5 145t141.5 53q89 0 121 -41v-67q-40 23 -99 23zM197 446q-50 0 -53 -47v-13q0 -62 52 -62q50 0 50 59v8q0 55 -49 55z" />
    <glyph glyph-name="six.subalt" horiz-adv-x="385" 
d="M240 240q-96 0 -96 -108v-9q25 58 101 58q58 0 90 -33.5t32 -88.5v-3q0 -59 -44 -96.5t-125 -37.5q-87 0 -131.5 50t-44.5 134v21q0 92 54.5 145t141.5 53q89 0 121 -41v-67q-40 23 -99 23zM197 113q-50 0 -53 -47v-13q0 -62 52 -62q50 0 50 59v8q0 55 -49 55z" />
    <glyph glyph-name="six.supalt" horiz-adv-x="385" 
d="M240 624q-96 0 -96 -108v-9q25 58 101 58q58 0 90 -33.5t32 -88.5v-3q0 -59 -44 -96.5t-125 -37.5q-87 0 -131.5 50t-44.5 134v21q0 92 54.5 145t141.5 53q89 0 121 -41v-67q-40 23 -99 23zM197 497q-50 0 -53 -47v-13q0 -62 52 -62q50 0 50 59v8q0 55 -49 55z" />
    <glyph glyph-name="six.tabalt" 
d="M364 529q-151 0 -151 -196v-13q40 95 155 95q92 0 141.5 -56.5t49.5 -146.5v-5q0 -99 -65 -160.5t-184 -61.5q-128 0 -197 80t-69 219v41q0 157 81.5 242.5t212.5 85.5q128 0 180 -64v-99q-67 39 -154 39zM307 315q-89 0 -94 -87v-20q0 -61 22.5 -90.5t71.5 -29.5
t68 27.5t19 83.5v13q0 50 -19 76.5t-68 26.5z" />
    <glyph glyph-name="zacute.pl" horiz-adv-x="475" 
d="M33 329v161h417v-144l-297 -255h178v80h124v-171h-435v144l287 247h-153v-62h-121zM188 539l13 148h163l-81 -148h-95z" />
    </font>
</defs>
</svg>
