<?xml version="1.0" standalone="no"?>
<!DOCTYPE svg PUBLIC "-//W3C//DTD SVG 1.1//EN" "http://www.w3.org/Graphics/SVG/1.1/DTD/svg11.dtd" >
<svg>
<metadata>
Created by FontForge 20090622 at Tue Aug  4 18:38:52 2015
 By deploy user
Copyright &#194;&#172;&#194;&#169; 2014 Commercial Type.
</metadata>
<defs>
<font id="DuplicateSlab-Regular" horiz-adv-x="600" >
  <font-face 
    font-family="Duplicate Slab Regular"
    font-weight="400"
    font-stretch="normal"
    units-per-em="1000"
    panose-1="0 0 0 0 0 0 0 0 0 0"
    ascent="854"
    descent="-146"
    x-height="479"
    cap-height="639"
    bbox="-210 -187 1145 968"
    underline-thickness="30"
    underline-position="-104"
    unicode-range="U+0020-U+FB04"
  />
<missing-glyph horiz-adv-x="500" 
 />
    <glyph glyph-name="f_b" unicode="fb" horiz-adv-x="901" 
d="M342 606v67h146v-316q17 61 65 97.5t118 36.5q91 0 143 -66.5t52 -176.5v-1q0 -123 -57 -190.5t-145 -67.5q-68 0 -113.5 33.5t-63.5 93.5q-1 -39 -6 -68t-9 -38l-4 -10h-126v63h62v543h-62zM645 51q64 0 99.5 45.5t35.5 137.5v36q0 73 -35 113.5t-100 40.5t-111 -43.5
t-46 -118.5v-20q0 -95 45 -143t112 -48zM28 417v62h72v61q0 68 36 103t84 35q56 0 79 -23v-45h-41q-36 0 -55 -14.5t-19 -50.5v-66h136v-62h-136v-354h102v-63h-258v63h72v354h-72z" />
    <glyph glyph-name="f_f_b" unicode="ffb" horiz-adv-x="1174" 
d="M615 606v67h146v-316q17 61 65 97.5t118 36.5q91 0 143 -66.5t52 -176.5v-1q0 -123 -57 -190.5t-145 -67.5q-68 0 -113.5 33.5t-63.5 93.5q-1 -39 -6 -68t-9 -38l-4 -10h-126v63h62v543h-62zM28 417v62h72v49q0 77 42 112t89 35q58 0 86 -28v-41q-24 2 -50 2
q-48 0 -65.5 -16t-17.5 -56v-57h189v61q0 68 36 103t84 35q56 0 79 -23v-45h-41q-36 0 -55 -14.5t-19 -50.5v-66h136v-62h-136v-354h102v-63h-253v63h67v354h-189v-354h66v-63h-222v63h72v354h-72zM918 51q64 0 99.5 45.5t35.5 137.5v36q0 73 -35 113.5t-100 40.5
t-111 -43.5t-46 -118.5v-20q0 -95 45 -143t112 -48z" />
    <glyph glyph-name="f_f_h" unicode="ffh" horiz-adv-x="1173" 
d="M28 417v62h72v49q0 77 42 112t89 35q58 0 86 -28v-41q-24 2 -50 2q-48 0 -65.5 -16t-17.5 -56v-57h189v61q0 68 36 103t84 35q56 0 79 -23v-45h-41q-36 0 -55 -14.5t-19 -50.5v-66h136v-62h-136v-354h102v-63h-253v63h67v354h-189v-354h66v-63h-222v63h72v354h-72z
M1145 0h-214v63h73v277q0 81 -94 81q-64 0 -105.5 -41.5t-43.5 -114.5v-202h76v-63h-222v63h62v543h-62v67h146v-325q12 67 60 105t112 38q72 0 113.5 -42t41.5 -122v-264h57v-63z" />
    <glyph glyph-name="f_f_j" unicode="ffj" horiz-adv-x="804" 
d="M28 417v62h72v49q0 77 42 112t89 35q58 0 86 -28v-41q-24 2 -50 2q-48 0 -65.5 -16t-17.5 -56v-57h189v54q0 77 40 112t86 35q56 0 84 -28v-41q-24 2 -48 2q-46 0 -62 -16t-16 -56v-62h273v-512q0 -63 -31 -91.5t-80 -28.5q-55 0 -80 23v43q12 -1 44 -1q37 0 50 9t13 41
v455h-189v-354h92v-63h-243v63h67v354h-189v-354h66v-63h-222v63h72v354h-72zM682 551q-23 0 -39 16t-16 38q0 23 16.5 39t38.5 16t38.5 -16t16.5 -39q0 -22 -16 -38t-39 -16z" />
    <glyph glyph-name="f_f_k" unicode="ffk" horiz-adv-x="1105" 
d="M28 417v62h72v49q0 77 42 112t89 35q58 0 86 -28v-41q-24 2 -50 2q-48 0 -65.5 -16t-17.5 -56v-57h189v61q0 68 36 103t84 35q56 0 79 -23v-45h-41q-36 0 -55 -14.5t-19 -50.5v-66h136v-62h-136v-354h102v-63h-253v63h67v354h-189v-354h66v-63h-222v63h72v354h-72zM962 0
l-201 244v-181h78v-63h-224v63h62v543h-62v67h146v-414l192 220h101v-73h-78l-129 -148l162 -195h68v-63h-115z" />
    <glyph glyph-name="f_h" unicode="fh" horiz-adv-x="900" 
d="M658 0v63h73v277q0 81 -94 81q-64 0 -105.5 -41.5t-43.5 -114.5v-202h76v-63h-222v63h62v543h-62v67h146v-325q12 67 60 105t112 38q72 0 113.5 -42t41.5 -122v-264h57v-63h-214zM28 417v62h72v61q0 68 36 103t84 35q56 0 79 -23v-45h-41q-36 0 -55 -14.5t-19 -50.5v-66
h136v-62h-136v-354h102v-63h-258v63h72v354h-72z" />
    <glyph glyph-name="f_j" unicode="fj" horiz-adv-x="541" 
d="M28 417v62h72v54q0 77 40 112t86 35q56 0 84 -28v-41q-24 2 -48 2q-46 0 -62 -16t-16 -56v-62h283v-512q0 -63 -31 -91.5t-80 -28.5q-55 0 -80 23v43q12 -1 44 -1q37 0 50 9t13 41v455h-199v-354h96v-63h-252v63h72v354h-72zM419 551q-23 0 -39 16t-16 38q0 23 16 39
t39 16t39 -16t16 -39q0 -22 -16 -38t-39 -16z" />
    <glyph glyph-name="f_k" unicode="fk" horiz-adv-x="832" 
d="M689 0l-201 244v-181h78v-63h-224v63h62v543h-62v67h146v-414l192 220h101v-73h-78l-129 -148l162 -195h68v-63h-115zM28 417v62h72v61q0 68 36 103t84 35q56 0 79 -23v-45h-41q-36 0 -55 -14.5t-19 -50.5v-66h136v-62h-136v-354h102v-63h-258v63h72v354h-72z" />
    <glyph glyph-name="f_f" unicode="ff" horiz-adv-x="623" 
d="M28 417v62h72v49q0 77 42 112t89 35q58 0 86 -28v-41q-24 2 -50 2q-48 0 -65.5 -16t-17.5 -56v-57h189v54q0 77 42 112t89 35q61 0 89 -28v-41q-24 2 -53 2q-48 0 -65.5 -16t-17.5 -56v-62h136v-62h-136v-354h96v-63h-247v63h67v354h-189v-354h66v-63h-222v63h72v354h-72
z" />
    <glyph glyph-name="f_i" unicode="fi" horiz-adv-x="561" 
d="M28 417v62h72v54q0 77 40 112t86 35q56 0 84 -28v-41q-24 2 -48 2q-46 0 -62 -16t-16 -56v-62h283v-416h66v-63h-222v63h72v354h-199v-354h71v-63h-227v63h72v354h-72zM419 551q-23 0 -39 16t-16 38q0 23 16 39t39 16t39 -16t16 -39q0 -22 -16 -38t-39 -16z" />
    <glyph glyph-name="f_l" unicode="fl" horiz-adv-x="590" 
d="M28 417v62h72v61q0 68 36 103t84 35q56 0 79 -23v-45h-41q-36 0 -55 -14.5t-19 -50.5v-66h136v-62h-136v-354h93v-63h-249v63h72v354h-72zM342 606v67h154v-610h66v-63h-229v63h79v543h-70z" />
    <glyph glyph-name="f_f_i" unicode="ffi" horiz-adv-x="824" 
d="M28 417v62h72v49q0 77 42 112t89 35q58 0 86 -28v-41q-24 2 -50 2q-48 0 -65.5 -16t-17.5 -56v-57h189v54q0 77 40 112t86 35q56 0 84 -28v-41q-24 2 -48 2q-46 0 -62 -16t-16 -56v-62h273v-416h66v-63h-216v63h66v354h-189v-354h67v-63h-218v63h67v354h-189v-354h66v-63
h-222v63h72v354h-72zM682 551q-23 0 -39 16t-16 38q0 23 16.5 39t38.5 16t38.5 -16t16.5 -39q0 -22 -16 -38t-39 -16z" />
    <glyph glyph-name="f_f_l" unicode="ffl" horiz-adv-x="863" 
d="M28 417v62h72v49q0 77 42 112t89 35q58 0 86 -28v-41q-24 2 -50 2q-48 0 -65.5 -16t-17.5 -56v-57h189v61q0 68 36 103t84 35q56 0 79 -23v-45h-41q-36 0 -55 -14.5t-19 -50.5v-66h136v-62h-136v-354h93v-63h-244v63h67v354h-189v-354h66v-63h-222v63h72v354h-72z
M615 606v67h154v-610h66v-63h-229v63h79v543h-70z" />
    <glyph glyph-name=".notdef" horiz-adv-x="500" 
 />
    <glyph glyph-name=".null" horiz-adv-x="0" 
 />
    <glyph glyph-name="nonmarkingreturn" horiz-adv-x="333" 
 />
    <glyph glyph-name="space" unicode=" " horiz-adv-x="180" 
 />
    <glyph glyph-name="exclam" unicode="!" horiz-adv-x="238" 
d="M167 660l-17 -489h-64l-17 489h98zM119 -7q-24 0 -41.5 17t-17.5 41t18 41.5t41 17.5q25 0 42 -17.5t17 -41.5t-17 -41t-42 -17z" />
    <glyph glyph-name="quotedbl" unicode="&#x22;" horiz-adv-x="327" 
d="M122 441h-60l-17 198h94zM265 441h-60l-17 198h94z" />
    <glyph glyph-name="numbersign" unicode="#" horiz-adv-x="486" 
d="M405 639l-29 -180h77v-75h-89l-18 -112h76v-75h-88l-32 -197h-67l32 197h-90l-32 -197h-67l32 197h-77v75h89l18 112h-77v75h89l29 180h67l-29 -180h90l29 180h67zM207 384l-18 -112h90l18 112h-90z" />
    <glyph glyph-name="dollar" unicode="$" horiz-adv-x="496" 
d="M442 482h-74v85q-38 10 -57 12l-21 -223q89 -18 121 -41q63 -46 63 -137q0 -95 -62 -144t-152 -49h-4l-8 -92h-59l9 97q-92 13 -143 63v122h74v-97q31 -14 75 -22l22 237q-55 13 -80 27q-83 45 -83 148q0 88 56.5 135t139.5 50l6 65h59l-7 -68q81 -10 125 -47v-121z
M363 250q-20 16 -80 30l-21 -228q58 2 93.5 32t35.5 90q0 54 -28 76zM185 389q19 -12 48 -20l19 212q-107 -10 -107 -112q0 -57 40 -80z" />
    <glyph glyph-name="percent" unicode="%" horiz-adv-x="663" 
d="M108 512v-34q0 -96 64 -96t64 96v34q0 83 -64 83t-64 -83zM631 148q0 -80 -39.5 -120.5t-100.5 -40.5q-59 0 -99.5 41t-40.5 120v8q0 73 39 114.5t101 41.5q63 0 101.5 -41.5t38.5 -114.5v-8zM427 137q0 -96 64 -96t64 96v34q0 83 -64 83t-64 -83v-34zM172 328
q-59 0 -99.5 41t-40.5 120v8q0 73 39 114.5t101 41.5q63 0 101.5 -41.5t38.5 -114.5v-8q0 -80 -39.5 -120.5t-100.5 -40.5zM587 639l-440 -639h-68l440 639h68z" />
    <glyph glyph-name="ampersand" unicode="&#x26;" horiz-adv-x="597" 
d="M223 -11q-90 0 -141.5 47.5t-51.5 119.5q0 70 36.5 110t110.5 76q-61 73 -61 154q0 67 41.5 111.5t113.5 44.5t113 -40.5t41 -106.5q0 -57 -34.5 -98t-100.5 -76l118 -143q35 71 59 174h81q-45 -155 -92 -232l54 -67h52v-63h-106l-51 63q-72 -74 -182 -74zM226 55
q80 0 135 62l-144 179q-55 -28 -77.5 -57.5t-22.5 -78.5q0 -48 29 -76.5t80 -28.5zM197 497q0 -59 58 -126q87 52 87 131q0 34 -18.5 57t-52.5 23q-33 0 -53.5 -23t-20.5 -62z" />
    <glyph glyph-name="quotesingle" unicode="'" horiz-adv-x="184" 
d="M122 441h-60l-17 198h94z" />
    <glyph glyph-name="parenleft" unicode="(" horiz-adv-x="298" 
d="M127 317v-51q0 -114 40.5 -205.5t105.5 -153.5v-5h-76q-23 21 -46 50.5t-49 75.5t-42.5 111t-16.5 136v33q0 88 30 169.5t61 124t63 71.5h76v-5q-62 -58 -104 -153.5t-42 -197.5z" />
    <glyph glyph-name="parenright" unicode=")" horiz-adv-x="298" 
d="M171 258v51q0 114 -40.5 205.5t-105.5 153.5v5h76q23 -21 46 -50.5t49 -75.5t42.5 -111t16.5 -136v-33q0 -88 -30 -169.5t-61 -124t-63 -71.5h-76v5q62 58 104 153.5t42 197.5z" />
    <glyph glyph-name="asterisk" unicode="*" horiz-adv-x="345" 
d="M69 399l-33 58l91 42l-91 39l33 57l79 -57l-11 101h71l-10 -99l78 55l33 -57l-93 -39l93 -42l-33 -58l-79 58l11 -101h-71l11 103z" />
    <glyph glyph-name="plus" unicode="+" horiz-adv-x="476" 
d="M276 513v-162h151v-72h-151v-163h-76v163h-151v72h151v162h76z" />
    <glyph glyph-name="comma" unicode="," horiz-adv-x="234" 
d="M43 -112q33 80 33 154q0 32 -6 61h94q3 -21 3 -40q0 -96 -74 -175h-50z" />
    <glyph glyph-name="hyphen" unicode="-" horiz-adv-x="293" 
d="M55 232v74h183v-74h-183z" />
    <glyph glyph-name="period" unicode="." horiz-adv-x="234" 
d="M117 -7q-24 0 -41.5 17t-17.5 41t18 41.5t41 17.5q25 0 42 -17.5t17 -41.5t-17 -41t-42 -17z" />
    <glyph glyph-name="slash" unicode="/" horiz-adv-x="327" 
d="M303 673l-220 -771h-76l220 771h76z" />
    <glyph glyph-name="zero" unicode="0" horiz-adv-x="590" 
d="M295 -15q-109 0 -181.5 80t-72.5 240v43q0 147 69.5 226t184.5 79t184.5 -79t69.5 -226v-43q0 -161 -72 -240.5t-182 -79.5zM295 56q76 0 121.5 56.5t45.5 173.5v91q0 94 -44.5 147.5t-122.5 53.5t-122.5 -53.5t-44.5 -147.5v-91q0 -117 45.5 -173.5t121.5 -56.5z" />
    <glyph glyph-name="one" unicode="1" horiz-adv-x="406" 
d="M48 0v63h128v497l-138 -158h-3v96l118 141h110v-576h108v-63h-323z" />
    <glyph glyph-name="two" unicode="2" horiz-adv-x="486" 
d="M32 0v103q162 108 238 191t76 164q0 120 -125 120q-93 0 -176 -61v66q66 70 181 70q93 0 150 -47.5t57 -149.5q0 -100 -86.5 -190t-257.5 -194v-1h282v75h74v-146h-413z" />
    <glyph glyph-name="three" unicode="3" horiz-adv-x="488" 
d="M222 653q88 0 146 -47.5t58 -122.5q0 -63 -35.5 -102t-102.5 -48v-3q76 -8 119 -51t43 -115q0 -80 -60 -127t-162 -47q-134 0 -203 73v66q75 -67 198 -67q69 0 104.5 31t35.5 88q0 115 -148 115h-85v69h85q126 0 126 107q0 52 -33 79t-94 27q-93 0 -169 -56v65
q64 66 177 66z" />
    <glyph glyph-name="four" unicode="4" horiz-adv-x="533" 
d="M277 639h130v-390h89v-70h-89v-116h89v-63h-259v63h83v116h-286v96zM320 582l-223 -333h223v333z" />
    <glyph glyph-name="five" unicode="5" horiz-adv-x="491" 
d="M215 -10q-51 0 -89 10.5t-55 21.5t-37 30v66q38 -28 76 -42t100 -14q71 0 112 34t41 98q0 68 -34.5 99.5t-114.5 31.5q-78 0 -151 -34h-8v348h368v-150h-74v75h-215v-188q45 15 97 15q112 0 165.5 -56t53.5 -146q0 -88 -63.5 -143.5t-171.5 -55.5z" />
    <glyph glyph-name="six" unicode="6" horiz-adv-x="546" 
d="M457 639v-5q-120 -56 -207.5 -135t-112.5 -174q46 83 158 83q101 0 157.5 -59t56.5 -148v-5q0 -95 -60.5 -153t-166.5 -58q-109 0 -175 66.5t-66 177.5v18q0 63 21 121t51 99t70.5 77.5t73 57.5t64.5 37h136zM280 345q-66 0 -108 -34.5t-44 -89.5v-25q0 -66 41.5 -105
t112.5 -39q69 0 104.5 38.5t35.5 103.5v8q0 62 -34.5 102.5t-107.5 40.5z" />
    <glyph glyph-name="seven" unicode="7" horiz-adv-x="471" 
d="M94 473h-74v166h418v-104l-214 -535h-88l229 565h-271v-92z" />
    <glyph glyph-name="eight" unicode="8" horiz-adv-x="517" 
d="M259 -14q-93 0 -157.5 51t-64.5 136v8q0 59 36 101t100 59q-53 16 -84.5 52.5t-31.5 90.5v5q0 71 56.5 117t145.5 46q88 0 144.5 -45.5t56.5 -116.5v-6q0 -53 -31.5 -89.5t-84.5 -53.5q63 -17 99.5 -58.5t36.5 -100.5v-8q0 -86 -64 -137t-157 -51zM259 55q61 0 97 29.5
t36 90.5v16q0 55 -35.5 87.5t-97.5 32.5t-98 -32.5t-36 -87.5v-16q0 -61 36 -90.5t98 -29.5zM259 367q55 0 87 26.5t32 78.5v15q0 42 -32 69.5t-87 27.5q-56 0 -88 -27.5t-32 -69.5v-15q0 -52 32 -78.5t88 -26.5z" />
    <glyph glyph-name="nine" unicode="9" horiz-adv-x="546" 
d="M124 0v5q98 44 177 124.5t106 174.5q-47 -79 -156 -79q-101 0 -157.5 58.5t-56.5 148.5v5q0 98 60.5 157.5t166.5 59.5q111 0 176 -64t65 -180v-18q0 -71 -26 -138.5t-66.5 -117t-78.5 -82.5t-74 -54h-136zM266 288q68 0 110 36t42 93v24q0 66 -41.5 106t-112.5 40
q-69 0 -104.5 -39t-35.5 -105v-8q0 -63 34.5 -105t107.5 -42z" />
    <glyph glyph-name="colon" unicode=":" horiz-adv-x="234" 
d="M117 -7q-24 0 -41.5 17t-17.5 41t18 41.5t41 17.5q25 0 42 -17.5t17 -41.5t-17 -41t-42 -17zM117 303q-24 0 -41.5 17t-17.5 41t18 41.5t41 17.5q25 0 42 -17.5t17 -41.5t-17 -41t-42 -17z" />
    <glyph glyph-name="semicolon" unicode=";" horiz-adv-x="234" 
d="M43 -112q33 80 33 154q0 32 -6 61h94q3 -21 3 -40q0 -96 -74 -175h-50zM117 303q-24 0 -41.5 17t-17.5 41t18 41.5t41 17.5q25 0 42 -17.5t17 -41.5t-17 -41t-42 -17z" />
    <glyph glyph-name="less" unicode="&#x3c;" horiz-adv-x="472" 
d="M50 364l372 160v-77l-306 -132l306 -131v-78l-372 160v98z" />
    <glyph glyph-name="equal" unicode="=" horiz-adv-x="512" 
d="M55 261h402v-72h-402v72zM55 441h402v-72h-402v72z" />
    <glyph glyph-name="greater" unicode="&#x3e;" horiz-adv-x="472" 
d="M422 266l-372 -160v77l305 131l-305 132v78l372 -160v-98z" />
    <glyph glyph-name="question" unicode="?" horiz-adv-x="395" 
d="M277 497q0 105 -111 105q-33 0 -66 -9v-90h-72v112q52 52 152 52q78 0 129.5 -42.5t51.5 -124.5q0 -46 -18 -81t-44 -57l-52 -42t-44 -47t-18 -62v-40h-69v51q0 41 16.5 74.5t40 55.5l47.5 42.5t40.5 46.5t16.5 56zM217 51q0 -24 -17 -41t-42 -17q-24 0 -41.5 17
t-17.5 41t18 41.5t41 17.5q25 0 42 -17.5t17 -41.5z" />
    <glyph glyph-name="at" unicode="@" horiz-adv-x="860" 
d="M394 92q45 0 83 38.5t47 100.5l2 14q10 74 -20 111t-79 37t-84 -49t-35 -151q0 -46 22 -73.5t64 -27.5zM457 652q161 0 265.5 -91.5t104.5 -246.5q0 -129 -52 -205t-137 -76q-55 0 -85.5 27.5t-33.5 71.5q-16 -49 -53.5 -76.5t-85.5 -27.5q-74 0 -114.5 49t-40.5 130
q0 105 55 180.5t148 75.5q52 0 82 -32t36 -81q3 23 11 48.5t15 39.5l7 14h65l-44 -271q-8 -49 2.5 -70t42.5 -21q51 0 84 58.5t33 167.5q0 73 -24 127t-67.5 85.5t-98 46.5t-120.5 15q-151 0 -249 -103t-98 -269q0 -153 87 -236.5t243 -83.5q72 0 145.5 23t114.5 55v-55
q-39 -33 -111 -56.5t-154 -23.5q-174 0 -283 100.5t-109 275.5q0 197 122.5 316t296.5 119z" />
    <glyph glyph-name="A" unicode="A" horiz-adv-x="651" 
d="M409 0v63h80l-39 126h-255l-40 -126h82v-63h-212v63h48l186 576h134l185 -576h48v-63h-217zM323 598l-105 -336h209z" />
    <glyph glyph-name="B" unicode="B" horiz-adv-x="588" 
d="M35 572v67h289q91 0 143.5 -43t52.5 -125q0 -139 -140 -154v-3q77 -5 120 -40t43 -97q0 -87 -50 -132t-173 -45h-285v63h66v509h-66zM188 69h121q85 0 116 24.5t31 81.5q0 59 -34 81t-115 22h-119v-209zM188 351h119q66 0 97 26t31 83q0 56 -30 80.5t-91 24.5h-126v-214z
" />
    <glyph glyph-name="C" unicode="C" horiz-adv-x="586" 
d="M456 473v85q-57 20 -119 20q-105 0 -155.5 -60t-50.5 -167v-40q0 -125 54 -190t161 -65q58 0 120 26v98h74v-119q-28 -32 -80 -54t-120 -22q-135 0 -216.5 89.5t-81.5 249.5v2q0 151 75.5 239t213.5 88t199 -67v-113h-74z" />
    <glyph glyph-name="D" unicode="D" horiz-adv-x="650" 
d="M35 572v67h303q136 0 203 -81t67 -227v-2q0 -160 -72.5 -244.5t-216.5 -84.5h-284v63h66v509h-66zM188 69h120q112 0 161.5 62.5t49.5 183.5v40q0 103 -42 156.5t-149 53.5h-140v-496z" />
    <glyph glyph-name="E" unicode="E" horiz-adv-x="570" 
d="M443 473v92h-255v-212h259v-71h-259v-212h265v96h74v-166h-492v63h66v509h-66v67h482v-166h-74z" />
    <glyph glyph-name="F" unicode="F" horiz-adv-x="557" 
d="M448 473v92h-260v-231h273v-73h-273v-198h97v-63h-250v63h66v509h-66v67h487v-166h-74z" />
    <glyph glyph-name="G" unicode="G" horiz-adv-x="618" 
d="M354 258v67h209v-261q-77 -79 -217 -79q-135 0 -219.5 88t-84.5 249v2q0 148 84 238.5t219 90.5q128 0 192 -62v-118h-72v87q-58 18 -111 18q-105 0 -164 -60.5t-59 -168.5v-40q0 -123 56.5 -187.5t164.5 -64.5q66 0 124 25v176h-122z" />
    <glyph glyph-name="H" unicode="H" horiz-adv-x="696" 
d="M425 0v63h83v226h-320v-226h83v-63h-236v63h66v509h-66v67h236v-67h-83v-210h320v210h-83v67h236v-67h-66v-509h66v-63h-236z" />
    <glyph glyph-name="I" unicode="I" horiz-adv-x="303" 
d="M35 572v67h233v-67h-73v-509h73v-63h-233v63h73v509h-73z" />
    <glyph glyph-name="J" unicode="J" horiz-adv-x="394" 
d="M126 572v67h233v-67h-60v-416q0 -79 -40.5 -122.5t-122.5 -43.5q-73 0 -109 31v55q43 -15 94 -15q91 0 91 101v410h-86z" />
    <glyph glyph-name="K" unicode="K" horiz-adv-x="623" 
d="M357 0v63h78l-247 267v-267h83v-63h-236v63h66v509h-66v67h236v-67h-83v-236l244 236h-75v67h222v-67h-51l-242 -234l255 -275h52v-63h-236z" />
    <glyph glyph-name="L" unicode="L" horiz-adv-x="547" 
d="M35 572v67h241v-67h-88v-502h250v96h74v-166h-477v63h66v509h-66z" />
    <glyph glyph-name="M" unicode="M" horiz-adv-x="842" 
d="M571 0v63h83v495l-189 -558h-95l-188 554v-491h83v-63h-230v63h66v509h-66v67h202l184 -560l187 560h199v-67h-66v-509h66v-63h-236z" />
    <glyph glyph-name="N" unicode="N" horiz-adv-x="702" 
d="M441 572v67h230v-67h-66v-572h-129l-294 571v-508h83v-63h-230v63h66v509h-66v67h205l284 -561v494h-83z" />
    <glyph glyph-name="O" unicode="O" horiz-adv-x="672" 
d="M336 56q205 0 205 246v52q0 103 -51 163.5t-154 60.5t-154 -60.5t-51 -163.5v-52q0 -246 205 -246zM336 -15q-132 0 -213 86.5t-81 249.5v2q0 152 77 241t217 89t217 -89t77 -241v-2q0 -163 -80.5 -249.5t-213.5 -86.5z" />
    <glyph glyph-name="P" unicode="P" horiz-adv-x="565" 
d="M35 572v67h293q102 0 154 -53t52 -148q0 -97 -57.5 -148t-165.5 -51h-123v-176h97v-63h-250v63h66v509h-66zM188 309h113q80 0 114 33t34 97q0 61 -30.5 93.5t-100.5 32.5h-130v-256z" />
    <glyph glyph-name="Q" unicode="Q" horiz-adv-x="674" 
d="M336 -15q-132 0 -213 86.5t-81 249.5v2q0 152 77 241t217 89t217 -89t77 -241v-2q0 -197 -119 -284l47 -59h78v-63h-122l-68 88q-51 -18 -110 -18zM336 54q35 0 65 6l-111 143h93l86 -112q74 57 74 211v52q0 103 -52 163.5t-155 60.5t-155 -60.5t-52 -163.5v-52
q0 -248 207 -248z" />
    <glyph glyph-name="R" unicode="R" horiz-adv-x="584" 
d="M444 0l-256 299v-236h83v-63h-236v63h66v509h-66v67h282q101 0 153.5 -49.5t52.5 -135.5q0 -85 -53 -128.5t-147 -43.5h-19l188 -219h67v-63h-115zM188 339h115q73 0 102.5 28t29.5 89q0 55 -29 82t-99 27h-119v-226z" />
    <glyph glyph-name="S" unicode="S" horiz-adv-x="528" 
d="M370 473v89q-53 16 -92 16q-62 0 -100 -23t-38 -86q0 -55 40 -78q31 -18 119.5 -34t121.5 -40q61 -45 61 -139q0 -96 -62.5 -144.5t-156.5 -48.5q-140 0 -213 63v132h74v-97q61 -27 132 -27q65 0 104 28t39 90q0 52 -28 74q-22 17 -113 36t-119 34q-81 44 -81 150
q0 91 61 138t151 47q117 0 174 -50v-130h-74z" />
    <glyph glyph-name="T" unicode="T" horiz-adv-x="611" 
d="M494 443v122h-145v-502h83v-63h-253v63h83v502h-145v-122h-79v196h535v-196h-79z" />
    <glyph glyph-name="U" unicode="U" horiz-adv-x="690" 
d="M428 572v67h230v-67h-60v-328q0 -140 -66 -199.5t-187 -59.5q-253 0 -253 260v327h-60v67h230v-67h-83v-346q0 -92 41 -132t125 -40t125 39.5t41 131.5v347h-83z" />
    <glyph glyph-name="V" unicode="V" horiz-adv-x="665" 
d="M428 572v67h212v-67h-49l-192 -572h-134l-191 572h-49v67h217v-67h-80l173 -531l173 531h-80z" />
    <glyph glyph-name="W" unicode="W" horiz-adv-x="910" 
d="M587 0l-131 536l-131 -536h-131l-123 572h-46v67h217v-67h-82l104 -520l144 587h102l142 -587l106 520h-85v67h212v-67h-46l-122 -572h-130z" />
    <glyph glyph-name="X" unicode="X" horiz-adv-x="640" 
d="M398 0v63h59l-138 220l-141 -220h69v-63h-217v63h57l177 269l-162 240h-56v67h217v-67h-63l125 -188l120 188h-67v67h212v-67h-55l-158 -236l177 -273h56v-63h-212z" />
    <glyph glyph-name="Y" unicode="Y" horiz-adv-x="596" 
d="M25 572v67h217v-67h-75l134 -256l137 256h-79v67h212v-67h-49l-180 -325v-184h83v-63h-253v63h83v183l-181 326h-49z" />
    <glyph glyph-name="Z" unicode="Z" horiz-adv-x="556" 
d="M65 473v166h450v-98l-393 -471h315v96h74v-166h-470v98l388 466h-290v-91h-74z" />
    <glyph glyph-name="bracketleft" unicode="[" horiz-adv-x="363" 
d="M77 -98v771h246v-68h-167v-639h167v-64h-246z" />
    <glyph glyph-name="backslash" unicode="\" horiz-adv-x="327" 
d="M24 673h76l220 -771h-76z" />
    <glyph glyph-name="bracketright" unicode="]" horiz-adv-x="363" 
d="M286 -98h-246v64h167v639h-167v68h246v-771z" />
    <glyph glyph-name="asciicircum" unicode="^" horiz-adv-x="412" 
d="M367 435h-69l-92 149l-92 -149h-69l109 204h104z" />
    <glyph glyph-name="underscore" unicode="_" horiz-adv-x="367" 
d="M-8 -134v60h383v-60h-383z" />
    <glyph glyph-name="grave" unicode="`" horiz-adv-x="400" 
d="M180 539l-119 134h119l57 -134h-57z" />
    <glyph glyph-name="a" unicode="a" horiz-adv-x="498" 
d="M65 338v96q57 57 165 57q177 0 179 -178v-209q0 -26 9 -37.5t35 -11.5q13 0 21 1v-49q-21 -11 -54 -11q-89 0 -95 98q-28 -107 -151 -107q-64 0 -103 34t-39 93v1q0 30 12 53.5t26.5 37t46 25.5t51 17.5t60.5 14.5q57 13 77 29.5t20 49.5v2q0 38 -27 62t-80 24
q-38 0 -77 -14v-78h-76zM204 45q48 0 84.5 38t36.5 103v71q-24 -21 -90 -44q-74 -26 -95.5 -40t-21.5 -48v-5q0 -75 86 -75z" />
    <glyph glyph-name="b" unicode="b" horiz-adv-x="587" 
d="M28 606v67h146v-316q17 61 65 97.5t118 36.5q91 0 143 -66.5t52 -176.5v-1q0 -123 -57 -190.5t-145 -67.5q-68 0 -113.5 33.5t-63.5 93.5q-1 -39 -6 -68t-9 -38l-4 -10h-126v63h62v543h-62zM331 51q64 0 99.5 45.5t35.5 137.5v36q0 73 -35 113.5t-100 40.5t-111 -43.5
t-46 -118.5v-20q0 -95 45 -143t112 -48z" />
    <glyph glyph-name="c" unicode="c" horiz-adv-x="465" 
d="M341 344v78q-38 9 -74 9q-64 0 -106.5 -41t-42.5 -122v-36q0 -177 156 -177q73 0 150 49v-62q-19 -20 -60.5 -36.5t-98.5 -16.5q-106 0 -169.5 67.5t-63.5 185.5v1q0 65 20 114.5t54 77.5t73.5 42t83.5 14q106 0 153 -45v-102h-75z" />
    <glyph glyph-name="d" unicode="d" horiz-adv-x="587" 
d="M335 606v67h162v-610h62v-63h-126q-20 57 -20 120q-17 -62 -62.5 -97t-112.5 -35q-93 0 -148 72t-55 192v1q0 112 58.5 174.5t144.5 62.5q136 0 175 -126v242h-78zM256 50q65 0 111 48t46 130v18q0 89 -45 133t-112 44q-135 0 -135 -157v-36q0 -84 35.5 -132t99.5 -48z
" />
    <glyph glyph-name="e" unicode="e" horiz-adv-x="487" 
d="M276 -11q-113 0 -178.5 65t-65.5 187v1q0 112 62 180.5t162 68.5t148.5 -58t48.5 -144q0 -37 -7 -69h-328q2 -89 43.5 -127t124.5 -38q97 0 154 39v-54q-16 -21 -60 -36t-104 -15zM256 430q-61 0 -99 -42t-39 -115h259v10q0 73 -33 110t-88 37z" />
    <glyph glyph-name="f" unicode="f" horiz-adv-x="350" 
d="M28 417v62h72v54q0 77 42 112t89 35q61 0 89 -28v-41q-24 2 -53 2q-48 0 -65.5 -16t-17.5 -56v-62h136v-62h-136v-354h96v-63h-252v63h72v354h-72z" />
    <glyph glyph-name="g" unicode="g" horiz-adv-x="584" 
d="M255 -155q-132 0 -181 60v68q68 -60 173 -60q75 0 119 38.5t44 118.5v71q-35 -119 -177 -119q-95 0 -148 64.5t-53 174.5v1q0 103 58.5 165.5t145.5 62.5q140 0 174 -115q1 24 6 50t10 40l4 14h126v-73h-62v-330q0 -114 -65.5 -172.5t-173.5 -58.5zM251 83q66 0 112.5 42
t46.5 116v16q0 80 -44.5 123t-110.5 43q-64 0 -100.5 -38t-36.5 -112v-32q0 -76 34 -117t99 -41z" />
    <glyph glyph-name="h" unicode="h" horiz-adv-x="586" 
d="M344 0v63h73v277q0 81 -94 81q-64 0 -105.5 -41.5t-43.5 -114.5v-202h76v-63h-222v63h62v543h-62v67h146v-325q12 67 60 105t112 38q72 0 113.5 -42t41.5 -122v-264h57v-63h-214z" />
    <glyph glyph-name="i" unicode="i" horiz-adv-x="272" 
d="M28 406v73h150v-416h66v-63h-216v63h66v343h-66zM130 551q-23 0 -39 16t-16 38q0 23 16.5 39t38.5 16t38.5 -16t16.5 -39q0 -22 -16 -38t-39 -16z" />
    <glyph glyph-name="j" unicode="j" horiz-adv-x="252" 
d="M28 406v73h150v-512q0 -63 -31 -91.5t-80 -28.5q-55 0 -80 23v43q12 -1 44 -1q37 0 50 9t13 41v444h-66zM130 551q-23 0 -39 16t-16 38q0 23 16.5 39t38.5 16t38.5 -16t16.5 -39q0 -22 -16 -38t-39 -16z" />
    <glyph glyph-name="k" unicode="k" horiz-adv-x="518" 
d="M375 0l-201 244v-181h78v-63h-224v63h62v543h-62v67h146v-414l192 220h101v-73h-78l-129 -148l162 -195h68v-63h-115z" />
    <glyph glyph-name="l" unicode="l" horiz-adv-x="272" 
d="M28 606v67h150v-610h66v-63h-216v63h66v543h-66z" />
    <glyph glyph-name="m" unicode="m" horiz-adv-x="869" 
d="M322 0v63h73v277q0 42 -19 61.5t-62 19.5q-62 0 -100 -41t-40 -115v-202h76v-63h-222v63h62v343h-62v73h126q20 -57 20 -117v-9q12 65 57 101.5t104 36.5q64 0 99 -37.5t36 -110.5q12 70 60 109t110 39q68 0 106 -42t38 -122v-264h57v-63h-214v63h73v277q0 42 -19 61.5
t-62 19.5q-64 0 -101.5 -41t-38.5 -115v-202h73v-63h-230z" />
    <glyph glyph-name="n" unicode="n" horiz-adv-x="586" 
d="M344 0v63h73v277q0 81 -94 81q-64 0 -105.5 -41.5t-43.5 -114.5v-202h76v-63h-222v63h62v343h-62v73h126q20 -57 20 -117v-14q12 67 60 105t112 38q72 0 113.5 -42t41.5 -122v-264h57v-63h-214z" />
    <glyph glyph-name="o" unicode="o" horiz-adv-x="534" 
d="M267 49q68 0 108.5 44.5t40.5 138.5v38q0 74 -40.5 117t-108.5 43t-108.5 -43t-40.5 -117v-38q0 -94 40.5 -138.5t108.5 -44.5zM267 -11q-102 0 -168.5 66t-66.5 190v1q0 111 64.5 178t170.5 67t170.5 -66.5t64.5 -177.5v-1q0 -125 -66.5 -191t-168.5 -66z" />
    <glyph glyph-name="p" unicode="p" horiz-adv-x="587" 
d="M28 406v73h126q20 -57 20 -117v-5q17 61 65 97.5t118 36.5q91 0 143 -66.5t52 -176.5v-1q0 -123 -57 -190.5t-145 -67.5q-68 0 -113 33t-63 92v-201h76v-59h-222v59h62v493h-62zM331 51q64 0 99.5 45.5t35.5 137.5v36q0 73 -35 113.5t-100 40.5t-111 -43.5t-46 -118.5
v-20q0 -95 45 -143t112 -48z" />
    <glyph glyph-name="q" unicode="q" horiz-adv-x="587" 
d="M337 -146v59h76v207q-17 -62 -62.5 -97t-112.5 -35q-93 0 -148 72t-55 192v1q0 112 58.5 174.5t144.5 62.5q136 0 175 -127q0 27 5 56t10 45l5 15h126v-73h-62v-493h62v-59h-222zM256 50q65 0 111 48t46 130v18q0 89 -45 133t-112 44q-135 0 -135 -157v-36
q0 -84 35.5 -132t99.5 -48z" />
    <glyph glyph-name="r" unicode="r" horiz-adv-x="381" 
d="M28 406v73h126q20 -57 20 -117v-32q13 77 50.5 116.5t80.5 39.5q32 0 46 -19v-63q-90 0 -133.5 -44t-43.5 -155v-142h88v-63h-234v63h62v343h-62z" />
    <glyph glyph-name="s" unicode="s" horiz-adv-x="418" 
d="M282 358v66q-33 7 -59 7q-105 0 -105 -75q0 -42 32 -57q24 -11 87 -21.5t90 -29.5q56 -37 56 -113q0 -70 -50 -108t-129 -38q-103 0 -172 50v96h75v-74q37 -13 87 -13q110 0 110 83q0 39 -25 55q-18 11 -81.5 23t-87.5 24q-35 17 -51.5 43.5t-16.5 72.5q0 70 47.5 106
t126.5 36q91 0 141 -36v-97h-75z" />
    <glyph glyph-name="t" unicode="t" horiz-adv-x="378" 
d="M246 -13q-40 0 -70.5 11.5t-53 45.5t-22.5 89v279h-72v50q30 1 47.5 8.5t27.5 25.5t14.5 41.5t10.5 64.5q1 11 2 17h54v-140h154v-67h-154v-273q0 -48 19.5 -67t58.5 -19q42 0 84 16v-42q-25 -40 -100 -40z" />
    <glyph glyph-name="u" unicode="u" horiz-adv-x="583" 
d="M429 0q-20 57 -20 117v6q-12 -63 -57.5 -99t-104.5 -36q-77 0 -119.5 45.5t-42.5 139.5v233h-57v73h141v-319q0 -55 23.5 -80.5t72.5 -25.5q63 0 103.5 43.5t40.5 114.5v194h-76v73h160v-416h62v-63h-126z" />
    <glyph glyph-name="v" unicode="v" horiz-adv-x="561" 
d="M328 406v73h213v-73h-52l-149 -406h-113l-155 406h-52v73h214v-73h-72l126 -349l119 349h-79z" />
    <glyph glyph-name="w" unicode="w" horiz-adv-x="765" 
d="M478 0l-95 370l-92 -370h-116l-109 406h-46v73h214v-73h-84l87 -349l106 422h83l112 -422l82 349h-88v73h213v-73h-45l-105 -406h-117z" />
    <glyph glyph-name="x" unicode="x" horiz-adv-x="548" 
d="M306 0v59h73l-112 143l-114 -143h83v-59h-207v63h43l144 179l-126 164h-62v73h212v-69h-54l96 -125l92 125h-60v69h206v-73h-66l-122 -161l144 -182h43v-63h-213z" />
    <glyph glyph-name="y" unicode="y" horiz-adv-x="554" 
d="M325 406v73h209v-73h-53l-151 -412q-30 -83 -65 -116.5t-96 -33.5q-70 0 -100 34v46q44 -14 87 -14q74 0 98 64l10 26h-38l-154 406h-52v73h214v-73h-74l124 -348l119 348h-78z" />
    <glyph glyph-name="z" unicode="z" horiz-adv-x="464" 
d="M43 338v141h383v-82l-313 -333h245v91h72v-155h-400v82l312 332h-227v-76h-72z" />
    <glyph glyph-name="braceleft" unicode="{" horiz-adv-x="303" 
d="M84 291v-3q116 -20 116 -111q0 -27 -12 -77t-12 -71q0 -43 16.5 -67t60.5 -55v-5h-73q-33 12 -60.5 43.5t-27.5 76.5q0 28 17.5 82t17.5 77q0 26 -22.5 46t-74.5 23v79q52 3 74.5 23t22.5 46q0 23 -17.5 75t-17.5 80q0 46 27 77t61 43h73v-5q-44 -31 -60.5 -55t-16.5 -67
q0 -22 12 -69t12 -75q0 -90 -116 -111z" />
    <glyph glyph-name="bar" unicode="|" horiz-adv-x="236" 
d="M156 673v-771h-76v771h76z" />
    <glyph glyph-name="braceright" unicode="}" horiz-adv-x="303" 
d="M219 288v3q-116 21 -116 111q0 28 12 75t12 69q0 43 -16.5 67t-60.5 55v5h73q34 -12 61 -43t27 -77q0 -28 -17.5 -80t-17.5 -75q0 -26 22.5 -46t74.5 -23v-79q-52 -3 -74.5 -23t-22.5 -46q0 -23 17.5 -77t17.5 -82q0 -45 -27.5 -76.5t-60.5 -43.5h-73v5q44 31 60.5 55
t16.5 67q0 21 -12 71t-12 77q0 91 116 111z" />
    <glyph glyph-name="asciitilde" unicode="~" horiz-adv-x="370" 
d="M55 221q-8 48 11 81.5t63 33.5q31 0 63.5 -18.5t44.5 -18.5q15 0 20.5 9.5t7.5 32.5h47q8 -48 -9 -81.5t-60 -33.5q-24 0 -59 18.5t-53 18.5q-26 0 -29 -42h-47z" />
    <glyph glyph-name="uni00A0" unicode="&#xa0;" horiz-adv-x="180" 
 />
    <glyph glyph-name="exclamdown" unicode="&#xa1;" horiz-adv-x="238" 
d="M71 -173l17 489h64l17 -489h-98zM119 494q24 0 41.5 -17t17.5 -41t-18 -41.5t-41 -17.5q-25 0 -42 17.5t-17 41.5t17 41t42 17z" />
    <glyph glyph-name="cent" unicode="&#xa2;" horiz-adv-x="457" 
d="M349 350v71q-26 6 -42 8l-40 -375h9q79 0 150 45v-54q-17 -23 -59.5 -39.5t-101.5 -16.5h-5l-10 -96h-59l11 104q-78 20 -123 85.5t-45 159.5v1q0 118 65 181.5t156 66.5l9 83h59l-9 -86q74 -8 104 -45v-93h-69zM120 232q0 -133 89 -167l39 365q-56 -7 -92 -48.5
t-36 -113.5v-36z" />
    <glyph glyph-name="sterling" unicode="&#xa3;" horiz-adv-x="491" 
d="M50 289v66h51v95q0 95 55.5 149t141.5 54q104 0 149 -61v-99h-74v77q-31 11 -69 11q-120 0 -120 -140v-86h165v-66h-165v-36q0 -126 -109 -181v-1h303v75h74v-146h-422v110q37 23 54 53t17 81v45h-51z" />
    <glyph glyph-name="yen" unicode="&#xa5;" horiz-adv-x="543" 
d="M483 318v-59h-168v-63h168v-59h-168v-74h83v-63h-253v63h83v74h-168v59h168v63h-168v59h151l-141 258h-45v63h215v-63h-81l116 -219l115 219h-84v63h212v-63h-46l-141 -258h152z" />
    <glyph glyph-name="brokenbar" unicode="&#xa6;" horiz-adv-x="236" 
d="M80 266h76v-364h-76v364zM156 673v-347h-76v347h76z" />
    <glyph glyph-name="section" unicode="&#xa7;" horiz-adv-x="506" 
d="M401 611v-93h-72v63q-33 7 -61 7q-105 0 -105 -74q0 -40 32 -55q26 -12 96.5 -27t111.5 -33q30 -13 47.5 -39.5t17.5 -60.5q0 -90 -100 -119q57 -35 57 -112q0 -70 -48.5 -108t-125.5 -38q-102 0 -169 54v92h72v-71q39 -12 88 -12q103 0 103 78q0 40 -30 56
q-14 7 -93.5 22.5t-114.5 33.5q-70 34 -70 109q0 89 105 113q-56 33 -56 112q0 69 48.5 105.5t125.5 36.5q92 0 141 -40zM314 206q31 0 54 19.5t23 52.5q0 25 -10.5 39t-36.5 22q-107 34 -150 34q-33 0 -59 -20t-26 -53q0 -39 40 -58q31 -14 80 -25t85 -11z" />
    <glyph glyph-name="dieresis" unicode="&#xa8;" horiz-adv-x="400" 
d="M114 551q-22 0 -37.5 15t-15.5 37q0 21 15.5 36.5t37.5 15.5q21 0 36.5 -15.5t15.5 -36.5q0 -22 -15.5 -37t-36.5 -15zM286 551q-21 0 -36.5 15t-15.5 37q0 21 15.5 36.5t36.5 15.5q22 0 37.5 -15.5t15.5 -36.5q0 -22 -15.5 -37t-37.5 -15z" />
    <glyph glyph-name="copyright" unicode="&#xa9;" horiz-adv-x="744" 
d="M372 -14q-142 0 -238.5 97t-96.5 234q0 138 97 236t238 98q143 0 239 -97.5t96 -236.5q0 -138 -96 -234.5t-239 -96.5zM372 33q119 0 200.5 83.5t81.5 200.5q0 118 -81.5 202.5t-200.5 84.5q-118 0 -200 -85t-82 -202t82 -200.5t200 -83.5zM382 130q-79 0 -126 51.5
t-47 142.5v2q0 86 44.5 136t123.5 50q68 0 106 -38v-70h-67v47q-18 2 -28 2q-105 0 -105 -112v-26q0 -130 110 -130q14 0 29 3v56h67v-73q-37 -41 -107 -41z" />
    <glyph glyph-name="ordfeminine" unicode="&#xaa;" horiz-adv-x="360" 
d="M48 536v70q41 41 119 41q128 0 128 -127v-136q0 -17 6 -24.5t23 -7.5q9 0 13 1v-41q-15 -9 -41 -9q-63 0 -70 67q-20 -72 -103 -72q-44 0 -70.5 23.5t-26.5 63.5v1q0 21 8 37t18 25.5t31 18t35 12.5t41 10q39 9 53 19.5t14 31.5v2q0 24 -17.5 40t-52.5 16q-20 0 -50 -8
v-54h-58zM150 343q31 0 53.5 24.5t22.5 65.5v49q-16 -14 -56 -29q-45 -17 -59 -26.5t-14 -31.5v-4q0 -48 53 -48z" />
    <glyph glyph-name="guillemotleft" unicode="&#xab;" horiz-adv-x="362" 
d="M115 406h82l-92 -160l92 -161h-82l-89 160zM335 406l-92 -160l92 -161h-82l-89 160l89 161h82z" />
    <glyph glyph-name="registered" unicode="&#xae;" horiz-adv-x="363" 
d="M182 348q-64 0 -108 43.5t-44 105.5q0 61 44 105.5t108 44.5t107.5 -44t43.5 -106t-43 -105.5t-108 -43.5zM182 377q52 0 85 34.5t33 85.5t-33 86t-85 35q-51 0 -85 -35t-34 -86t34 -85.5t85 -34.5zM211 426l-47 59v-59h-36v150h58q58 0 58 -45q0 -38 -42 -43l50 -62h-41
zM164 506h19q25 0 25 23q0 21 -24 21h-20v-44z" />
    <glyph glyph-name="macron" unicode="&#xaf;" horiz-adv-x="400" 
d="M82 562v66h236v-66h-236z" />
    <glyph glyph-name="degree" unicode="&#xb0;" horiz-adv-x="358" 
d="M35 506q0 60 41 101.5t102 41.5t103 -41.5t42 -101.5t-42 -101.5t-103 -41.5t-102 41.5t-41 101.5zM102 506q0 -39 21.5 -62.5t54.5 -23.5q34 0 56 23.5t22 62.5q0 37 -22 62t-56 25q-32 0 -54 -25t-22 -62z" />
    <glyph glyph-name="plusminus" unicode="&#xb1;" horiz-adv-x="476" 
d="M276 513v-147h151v-72h-151v-148h-76v148h-151v72h151v147h76zM49 0v72h378v-72h-378z" />
    <glyph glyph-name="acute" unicode="&#xb4;" horiz-adv-x="400" 
d="M163 539l57 134h119l-119 -134h-57z" />
    <glyph glyph-name="paragraph" unicode="&#xb6;" horiz-adv-x="523" 
d="M295 -98h-77v389h-4q-88 0 -134.5 45.5t-46.5 130.5q0 81 45.5 126.5t128.5 45.5h281v-67h-66v-670h-77v670h-50v-670z" />
    <glyph glyph-name="periodcentered" unicode="&#xb7;" horiz-adv-x="234" 
d="M117 243q-24 0 -41.5 17t-17.5 41t18 41.5t41 17.5q25 0 42 -17.5t17 -41.5t-17 -41t-42 -17z" />
    <glyph glyph-name="cedilla" unicode="&#xb8;" horiz-adv-x="400" 
d="M148 0h54v-39q83 -8 83 -76q0 -34 -25 -53t-69 -19q-49 0 -69 20v40q25 -10 49 -10q44 0 44 27q0 33 -67 34v76z" />
    <glyph glyph-name="ordmasculine" unicode="&#xba;" horiz-adv-x="382" 
d="M191 347q94 0 94 121v25q0 50 -25.5 78t-68.5 28t-68.5 -28t-25.5 -78v-25q0 -121 94 -121zM191 299q-71 0 -118 45.5t-47 131.5v1q0 77 45.5 123.5t119.5 46.5t119.5 -46t45.5 -123v-1q0 -87 -47 -132.5t-118 -45.5z" />
    <glyph glyph-name="guillemotright" unicode="&#xbb;" horiz-adv-x="362" 
d="M247 85h-82l92 160l-92 161h82l89 -160zM27 85l92 160l-92 161h82l89 -160l-89 -161h-82z" />
    <glyph glyph-name="onequarter" unicode="&#xbc;" horiz-adv-x="697" 
d="M531 376h91v-222h49v-50h-49v-55h49v-49h-163v49h47v55h-167v65zM636 639l-483 -639h-65l483 639h65zM35 263v48h70v268l-78 -87h-1v70l68 77h80v-328h59v-48h-198zM555 326l-120 -172h120v172z" />
    <glyph glyph-name="onehalf" unicode="&#xbd;" horiz-adv-x="739" 
d="M460 0v72q92 59 134.5 103t42.5 87q0 64 -70 64q-51 0 -100 -33v47q42 44 112 44q57 0 91.5 -29t34.5 -91q0 -59 -51 -109.5t-151 -102.5v-1h152v42h56v-93h-251zM635 639l-483 -639h-65l483 639h65zM35 263v48h70v268l-78 -87h-1v70l68 77h80v-328h59v-48h-198z" />
    <glyph glyph-name="threequarters" unicode="&#xbe;" horiz-adv-x="733" 
d="M567 376h91v-222h49v-50h-49v-55h49v-49h-163v49h47v55h-167v65zM143 647q55 0 90 -27t35 -73q0 -37 -22 -60.5t-66 -28.5v-2q101 -9 101 -95q0 -49 -37 -76.5t-101 -27.5q-81 0 -121 44v47q46 -37 113 -37q76 0 76 62q0 59 -79 59h-46v49h45q68 0 68 54t-69 54
q-52 0 -95 -29v46q37 41 108 41zM663 639l-483 -639h-65l483 639h65zM591 326l-120 -172h120v172z" />
    <glyph glyph-name="questiondown" unicode="&#xbf;" horiz-adv-x="395" 
d="M118 -10q0 -105 111 -105q31 0 66 9v90h72v-112q-52 -52 -152 -52q-78 0 -129.5 42.5t-51.5 124.5q0 46 18 81t44 57l52 42t44 47t18 62v40h69v-51q0 -41 -16.5 -74.5t-40.5 -55.5l-47.5 -42.5t-40 -46.5t-16.5 -56zM178 436q0 24 17 41t42 17q24 0 41.5 -17t17.5 -41
t-18 -41.5t-41 -17.5q-25 0 -42 17.5t-17 41.5z" />
    <glyph glyph-name="Agrave" unicode="&#xc0;" horiz-adv-x="651" 
d="M409 0v63h80l-39 126h-255l-40 -126h82v-63h-212v63h48l186 576h134l185 -576h48v-63h-217zM323 598l-105 -336h209zM304 685l-109 111h121l45 -111h-57z" />
    <glyph glyph-name="Aacute" unicode="&#xc1;" horiz-adv-x="651" 
d="M409 0v63h80l-39 126h-255l-40 -126h82v-63h-212v63h48l186 576h134l185 -576h48v-63h-217zM323 598l-105 -336h209zM287 685l45 111h121l-109 -111h-57z" />
    <glyph glyph-name="Acircumflex" unicode="&#xc2;" horiz-adv-x="651" 
d="M409 0v63h80l-39 126h-255l-40 -126h82v-63h-212v63h48l186 576h134l185 -576h48v-63h-217zM323 598l-105 -336h209zM461 685h-62l-75 53l-75 -53h-62l84 111h106z" />
    <glyph glyph-name="Atilde" unicode="&#xc3;" horiz-adv-x="651" 
d="M409 0v63h80l-39 126h-255l-40 -126h82v-63h-212v63h48l186 576h134l185 -576h48v-63h-217zM323 598l-105 -336h209zM193 686q-8 45 9 77.5t60 32.5q32 0 72 -17t53 -17q15 0 19 8t6 30h43q8 -45 -7.5 -77.5t-56.5 -32.5q-25 0 -67.5 17t-61.5 17q-14 0 -19 -8t-7 -30
h-43z" />
    <glyph glyph-name="Adieresis" unicode="&#xc4;" horiz-adv-x="651" 
d="M409 0v63h80l-39 126h-255l-40 -126h82v-63h-212v63h48l186 576h134l185 -576h48v-63h-217zM323 598l-105 -336h209zM416 671q-21 0 -36.5 15t-15.5 37q0 21 15.5 36.5t36.5 15.5q22 0 37.5 -15.5t15.5 -36.5q0 -22 -15.5 -37t-37.5 -15zM233 671q-22 0 -37.5 15
t-15.5 37q0 21 15.5 36.5t37.5 15.5q21 0 36.5 -15.5t15.5 -36.5q0 -22 -15.5 -37t-36.5 -15z" />
    <glyph glyph-name="Aring" unicode="&#xc5;" horiz-adv-x="651" 
d="M409 0v63h80l-39 126h-255l-40 -126h82v-63h-212v63h48l186 576h134l185 -576h48v-63h-217zM323 598l-105 -336h209zM324 664q-39 0 -65 26t-26 64t26 64.5t65 26.5t65.5 -26.5t26.5 -64.5t-26.5 -64t-65.5 -26zM324 705q20 0 33 13.5t13 35.5t-13 36t-33 14
q-19 0 -32 -14t-13 -36t13 -35.5t32 -13.5z" />
    <glyph glyph-name="AE" unicode="&#xc6;" horiz-adv-x="866" 
d="M218 572v67h595v-166h-74v91h-229v-211h233v-71h-233v-211h239v95h74v-166h-466v63h66v126h-218l-55 -126h83v-63h-208v63h45l221 509h-73zM367 564l-131 -302h187v302h-56z" />
    <glyph glyph-name="Ccedilla" unicode="&#xc7;" horiz-adv-x="586" 
d="M340 -15q-14 0 -20 1v-25q83 -8 83 -76q0 -34 -25 -53t-69 -19q-49 0 -69 20v40q25 -10 49 -10q44 0 44 27q0 33 -67 34v69q-104 22 -164 108.5t-60 222.5v2q0 151 75.5 239t213.5 88t199 -67v-113h-74v85q-57 20 -119 20q-105 0 -155.5 -60t-50.5 -167v-40
q0 -125 54 -190t161 -65q58 0 120 26v98h74v-119q-28 -32 -80 -54t-120 -22z" />
    <glyph glyph-name="Egrave" unicode="&#xc8;" horiz-adv-x="570" 
d="M443 473v92h-255v-212h259v-71h-259v-212h265v96h74v-166h-492v63h66v509h-66v67h482v-166h-74zM279 685l-109 111h121l45 -111h-57z" />
    <glyph glyph-name="Eacute" unicode="&#xc9;" horiz-adv-x="570" 
d="M443 473v92h-255v-212h259v-71h-259v-212h265v96h74v-166h-492v63h66v509h-66v67h482v-166h-74zM254 685l45 111h121l-109 -111h-57z" />
    <glyph glyph-name="Ecircumflex" unicode="&#xca;" horiz-adv-x="570" 
d="M443 473v92h-255v-212h259v-71h-259v-212h265v96h74v-166h-492v63h66v509h-66v67h482v-166h-74zM436 685h-62l-75 53l-75 -53h-62l84 111h106z" />
    <glyph glyph-name="Edieresis" unicode="&#xcb;" horiz-adv-x="570" 
d="M443 473v92h-255v-212h259v-71h-259v-212h265v96h74v-166h-492v63h66v509h-66v67h482v-166h-74zM391 671q-21 0 -36.5 15t-15.5 37q0 21 15.5 36.5t36.5 15.5q22 0 37.5 -15.5t15.5 -36.5q0 -22 -15.5 -37t-37.5 -15zM208 671q-22 0 -37.5 15t-15.5 37q0 21 15.5 36.5
t37.5 15.5q21 0 36.5 -15.5t15.5 -36.5q0 -22 -15.5 -37t-36.5 -15z" />
    <glyph glyph-name="Igrave" unicode="&#xcc;" horiz-adv-x="303" 
d="M35 572v67h233v-67h-73v-509h73v-63h-233v63h73v509h-73zM131 685l-109 111h121l45 -111h-57z" />
    <glyph glyph-name="Iacute" unicode="&#xcd;" horiz-adv-x="303" 
d="M35 572v67h233v-67h-73v-509h73v-63h-233v63h73v509h-73zM114 685l45 111h121l-109 -111h-57z" />
    <glyph glyph-name="Icircumflex" unicode="&#xce;" horiz-adv-x="303" 
d="M35 572v67h233v-67h-73v-509h73v-63h-233v63h73v509h-73zM288 685h-62l-75 53l-75 -53h-62l84 111h106z" />
    <glyph glyph-name="Idieresis" unicode="&#xcf;" horiz-adv-x="303" 
d="M35 572v67h233v-67h-73v-509h73v-63h-233v63h73v509h-73zM243 671q-21 0 -36.5 15t-15.5 37q0 21 15.5 36.5t36.5 15.5q22 0 37.5 -15.5t15.5 -36.5q0 -22 -15.5 -37t-37.5 -15zM60 671q-22 0 -37.5 15t-15.5 37q0 21 15.5 36.5t37.5 15.5q21 0 36.5 -15.5t15.5 -36.5
q0 -22 -15.5 -37t-36.5 -15z" />
    <glyph glyph-name="Eth" unicode="&#xd0;" horiz-adv-x="650" 
d="M30 284v68h71v220h-66v67h303q136 0 203 -81t67 -227v-2q0 -160 -72.5 -244.5t-216.5 -84.5h-284v63h66v221h-71zM188 69h120q112 0 161.5 62.5t49.5 183.5v40q0 103 -42 156.5t-149 53.5h-140v-213h171v-68h-171v-215z" />
    <glyph glyph-name="Ntilde" unicode="&#xd1;" horiz-adv-x="702" 
d="M441 572v67h230v-67h-66v-572h-129l-294 571v-508h83v-63h-230v63h66v509h-66v67h205l284 -561v494h-83zM231 686q-8 45 9 77.5t60 32.5q32 0 72 -17t53 -17q15 0 19 8t6 30h43q8 -45 -7.5 -77.5t-56.5 -32.5q-25 0 -67.5 17t-61.5 17q-14 0 -19 -8t-7 -30h-43z" />
    <glyph glyph-name="Ograve" unicode="&#xd2;" horiz-adv-x="672" 
d="M336 56q205 0 205 246v52q0 103 -51 163.5t-154 60.5t-154 -60.5t-51 -163.5v-52q0 -246 205 -246zM336 -15q-132 0 -213 86.5t-81 249.5v2q0 152 77 241t217 89t217 -89t77 -241v-2q0 -163 -80.5 -249.5t-213.5 -86.5zM316 685l-109 111h121l45 -111h-57z" />
    <glyph glyph-name="Oacute" unicode="&#xd3;" horiz-adv-x="672" 
d="M336 56q205 0 205 246v52q0 103 -51 163.5t-154 60.5t-154 -60.5t-51 -163.5v-52q0 -246 205 -246zM336 -15q-132 0 -213 86.5t-81 249.5v2q0 152 77 241t217 89t217 -89t77 -241v-2q0 -163 -80.5 -249.5t-213.5 -86.5zM299 685l45 111h121l-109 -111h-57z" />
    <glyph glyph-name="Ocircumflex" unicode="&#xd4;" horiz-adv-x="672" 
d="M336 56q205 0 205 246v52q0 103 -51 163.5t-154 60.5t-154 -60.5t-51 -163.5v-52q0 -246 205 -246zM336 -15q-132 0 -213 86.5t-81 249.5v2q0 152 77 241t217 89t217 -89t77 -241v-2q0 -163 -80.5 -249.5t-213.5 -86.5zM473 685h-62l-75 53l-75 -53h-62l84 111h106z" />
    <glyph glyph-name="Otilde" unicode="&#xd5;" horiz-adv-x="672" 
d="M336 56q205 0 205 246v52q0 103 -51 163.5t-154 60.5t-154 -60.5t-51 -163.5v-52q0 -246 205 -246zM336 -15q-132 0 -213 86.5t-81 249.5v2q0 152 77 241t217 89t217 -89t77 -241v-2q0 -163 -80.5 -249.5t-213.5 -86.5zM205 686q-8 45 9 77.5t60 32.5q32 0 72 -17t53 -17
q15 0 19 8t6 30h43q8 -45 -7.5 -77.5t-56.5 -32.5q-25 0 -67.5 17t-61.5 17q-14 0 -19 -8t-7 -30h-43z" />
    <glyph glyph-name="Odieresis" unicode="&#xd6;" horiz-adv-x="672" 
d="M336 56q205 0 205 246v52q0 103 -51 163.5t-154 60.5t-154 -60.5t-51 -163.5v-52q0 -246 205 -246zM336 -15q-132 0 -213 86.5t-81 249.5v2q0 152 77 241t217 89t217 -89t77 -241v-2q0 -163 -80.5 -249.5t-213.5 -86.5zM245 671q-22 0 -37.5 15t-15.5 37q0 21 15.5 36.5
t37.5 15.5q21 0 36.5 -15.5t15.5 -36.5q0 -22 -15.5 -37t-36.5 -15zM428 671q-21 0 -36.5 15t-15.5 37q0 21 15.5 36.5t36.5 15.5q22 0 37.5 -15.5t15.5 -36.5q0 -22 -15.5 -37t-37.5 -15z" />
    <glyph glyph-name="multiply" unicode="&#xd7;" horiz-adv-x="454" 
d="M50 181l127 127l-127 127l50 50l127 -127l127 127l50 -50l-127 -127l127 -127l-50 -50l-127 127l-127 -127z" />
    <glyph glyph-name="Oslash" unicode="&#xd8;" horiz-adv-x="672" 
d="M336 -15q-108 0 -181 57l-47 -61h-80l82 105v1q-68 87 -68 234v2q0 152 77 241t217 89q104 0 175 -51l42 54h80l-76 -98q73 -87 73 -235v-2q0 -163 -80.5 -249.5t-213.5 -86.5zM336 56q206 0 206 246v52q0 94 -31 145l-315 -405q48 -38 140 -38zM130 302q0 -101 26 -156
l311 399q-49 33 -131 33q-103 0 -154.5 -60.5t-51.5 -163.5v-52z" />
    <glyph glyph-name="Ugrave" unicode="&#xd9;" horiz-adv-x="690" 
d="M428 572v67h230v-67h-60v-328q0 -140 -66 -199.5t-187 -59.5q-253 0 -253 260v327h-60v67h230v-67h-83v-346q0 -92 41 -132t125 -40t125 39.5t41 131.5v347h-83zM325 685l-109 111h121l45 -111h-57z" />
    <glyph glyph-name="Uacute" unicode="&#xda;" horiz-adv-x="690" 
d="M428 572v67h230v-67h-60v-328q0 -140 -66 -199.5t-187 -59.5q-253 0 -253 260v327h-60v67h230v-67h-83v-346q0 -92 41 -132t125 -40t125 39.5t41 131.5v347h-83zM308 685l45 111h121l-109 -111h-57z" />
    <glyph glyph-name="Ucircumflex" unicode="&#xdb;" horiz-adv-x="690" 
d="M428 572v67h230v-67h-60v-328q0 -140 -66 -199.5t-187 -59.5q-253 0 -253 260v327h-60v67h230v-67h-83v-346q0 -92 41 -132t125 -40t125 39.5t41 131.5v347h-83zM482 685h-62l-75 53l-75 -53h-62l84 111h106z" />
    <glyph glyph-name="Udieresis" unicode="&#xdc;" horiz-adv-x="690" 
d="M428 572v67h230v-67h-60v-328q0 -140 -66 -199.5t-187 -59.5q-253 0 -253 260v327h-60v67h230v-67h-83v-346q0 -92 41 -132t125 -40t125 39.5t41 131.5v347h-83zM437 671q-21 0 -36.5 15t-15.5 37q0 21 15.5 36.5t36.5 15.5q22 0 37.5 -15.5t15.5 -36.5q0 -22 -15.5 -37
t-37.5 -15zM254 671q-22 0 -37.5 15t-15.5 37q0 21 15.5 36.5t37.5 15.5q21 0 36.5 -15.5t15.5 -36.5q0 -22 -15.5 -37t-36.5 -15z" />
    <glyph glyph-name="Yacute" unicode="&#xdd;" horiz-adv-x="596" 
d="M25 572v67h217v-67h-75l134 -256l137 256h-79v67h212v-67h-49l-180 -325v-184h83v-63h-253v63h83v183l-181 326h-49zM273 685l45 111h121l-109 -111h-57z" />
    <glyph glyph-name="Thorn" unicode="&#xde;" horiz-adv-x="567" 
d="M35 572v67h248v-67h-95v-78h157q89 0 139 -47t50 -125q0 -83 -55.5 -126.5t-150.5 -43.5h-140v-89h95v-63h-248v63h66v509h-66zM188 222h130q130 0 130 101q0 97 -113 97h-147v-198z" />
    <glyph glyph-name="germandbls" unicode="&#xdf;" horiz-adv-x="577" 
d="M28 417v62h72v2q0 99 57.5 149t150.5 50q31 0 59 -6.5t55.5 -21t44 -43.5t16.5 -70q0 -27 -15 -53.5t-37 -46.5t-44 -37t-37 -32.5t-15 -27.5q0 -15 7 -23.5t26 -16.5q13 -6 54 -21t53 -22q76 -41 76 -124q0 -72 -42 -109t-121 -37q-86 0 -140 45v101h74v-74q26 -6 57 -6
q41 0 67 19t26 57q0 40 -35 60q-12 7 -28 13.5l-40 16l-41 16.5q-70 30 -70 93q0 30 22.5 59t49 48.5t49 48.5t22.5 59q0 33 -25 53t-70 20q-59 0 -90.5 -35.5t-31.5 -102.5v-480h-156v63h72v354h-72z" />
    <glyph glyph-name="agrave" unicode="&#xe0;" horiz-adv-x="498" 
d="M65 338v96q57 57 165 57q177 0 179 -178v-209q0 -26 9 -37.5t35 -11.5q13 0 21 1v-49q-21 -11 -54 -11q-89 0 -95 98q-28 -107 -151 -107q-64 0 -103 34t-39 93v1q0 30 12 53.5t26.5 37t46 25.5t51 17.5t60.5 14.5q57 13 77 29.5t20 49.5v2q0 38 -27 62t-80 24
q-38 0 -77 -14v-78h-76zM204 45q48 0 84.5 38t36.5 103v71q-24 -21 -90 -44q-74 -26 -95.5 -40t-21.5 -48v-5q0 -75 86 -75zM218 539l-119 134h119l57 -134h-57z" />
    <glyph glyph-name="aacute" unicode="&#xe1;" horiz-adv-x="498" 
d="M65 338v96q57 57 165 57q177 0 179 -178v-209q0 -26 9 -37.5t35 -11.5q13 0 21 1v-49q-21 -11 -54 -11q-89 0 -95 98q-28 -107 -151 -107q-64 0 -103 34t-39 93v1q0 30 12 53.5t26.5 37t46 25.5t51 17.5t60.5 14.5q57 13 77 29.5t20 49.5v2q0 38 -27 62t-80 24
q-38 0 -77 -14v-78h-76zM204 45q48 0 84.5 38t36.5 103v71q-24 -21 -90 -44q-74 -26 -95.5 -40t-21.5 -48v-5q0 -75 86 -75zM193 539l57 134h119l-119 -134h-57z" />
    <glyph glyph-name="acircumflex" unicode="&#xe2;" horiz-adv-x="498" 
d="M65 338v96q57 57 165 57q177 0 179 -178v-209q0 -26 9 -37.5t35 -11.5q13 0 21 1v-49q-21 -11 -54 -11q-89 0 -95 98q-28 -107 -151 -107q-64 0 -103 34t-39 93v1q0 30 12 53.5t26.5 37t46 25.5t51 17.5t60.5 14.5q57 13 77 29.5t20 49.5v2q0 38 -27 62t-80 24
q-38 0 -77 -14v-78h-76zM204 45q48 0 84.5 38t36.5 103v71q-24 -21 -90 -44q-74 -26 -95.5 -40t-21.5 -48v-5q0 -75 86 -75zM98 539l88 134h104l88 -134h-61l-79 77l-79 -77h-61z" />
    <glyph glyph-name="atilde" unicode="&#xe3;" horiz-adv-x="498" 
d="M65 338v96q57 57 165 57q177 0 179 -178v-209q0 -26 9 -37.5t35 -11.5q13 0 21 1v-49q-21 -11 -54 -11q-89 0 -95 98q-28 -107 -151 -107q-64 0 -103 34t-39 93v1q0 30 12 53.5t26.5 37t46 25.5t51 17.5t60.5 14.5q57 13 77 29.5t20 49.5v2q0 38 -27 62t-80 24
q-38 0 -77 -14v-78h-76zM204 45q48 0 84.5 38t36.5 103v71q-24 -21 -90 -44q-74 -26 -95.5 -40t-21.5 -48v-5q0 -75 86 -75zM104 559q-8 46 8 78t59 32q30 0 66 -17t47 -17q15 0 19 8t6 30h43q8 -46 -6.5 -78t-55.5 -32q-23 0 -61.5 17t-55.5 17q-14 0 -19 -8t-7 -30h-43z
" />
    <glyph glyph-name="adieresis" unicode="&#xe4;" horiz-adv-x="498" 
d="M65 338v96q57 57 165 57q177 0 179 -178v-209q0 -26 9 -37.5t35 -11.5q13 0 21 1v-49q-21 -11 -54 -11q-89 0 -95 98q-28 -107 -151 -107q-64 0 -103 34t-39 93v1q0 30 12 53.5t26.5 37t46 25.5t51 17.5t60.5 14.5q57 13 77 29.5t20 49.5v2q0 38 -27 62t-80 24
q-38 0 -77 -14v-78h-76zM204 45q48 0 84.5 38t36.5 103v71q-24 -21 -90 -44q-74 -26 -95.5 -40t-21.5 -48v-5q0 -75 86 -75zM152 551q-22 0 -37.5 15t-15.5 37q0 21 15.5 36.5t37.5 15.5q21 0 36.5 -15.5t15.5 -36.5q0 -22 -15.5 -37t-36.5 -15zM324 551q-21 0 -36.5 15
t-15.5 37q0 21 15.5 36.5t36.5 15.5q22 0 37.5 -15.5t15.5 -36.5q0 -22 -15.5 -37t-37.5 -15z" />
    <glyph glyph-name="aring" unicode="&#xe5;" horiz-adv-x="498" 
d="M65 338v96q57 57 165 57q177 0 179 -178v-209q0 -26 9 -37.5t35 -11.5q13 0 21 1v-49q-21 -11 -54 -11q-89 0 -95 98q-28 -107 -151 -107q-64 0 -103 34t-39 93v1q0 30 12 53.5t26.5 37t46 25.5t51 17.5t60.5 14.5q57 13 77 29.5t20 49.5v2q0 38 -27 62t-80 24
q-38 0 -77 -14v-78h-76zM204 45q48 0 84.5 38t36.5 103v71q-24 -21 -90 -44q-74 -26 -95.5 -40t-21.5 -48v-5q0 -75 86 -75zM234 544q-39 0 -65 26t-26 64t26 64.5t65 26.5t65.5 -26.5t26.5 -64.5t-26.5 -64t-65.5 -26zM234 585q20 0 33 13.5t13 35.5t-13 36t-33 14
q-19 0 -32 -14t-13 -36t13 -35.5t32 -13.5z" />
    <glyph glyph-name="ae" unicode="&#xe6;" horiz-adv-x="779" 
d="M183 -13q-70 0 -110.5 34t-40.5 93v1q0 30 12 53.5t26.5 37t46 25.5t51 17.5t60.5 14.5q57 13 77 29.5t20 49.5v2q0 38 -27 62t-80 24q-38 0 -77 -14v-78h-76v96q57 57 165 57q118 0 150 -87q56 87 168 87q100 0 148.5 -58t48.5 -144q0 -37 -7 -69h-328q2 -89 43.5 -127
t124.5 -38q97 0 154 39v-54q-16 -21 -60 -36t-104 -15q-81 0 -138.5 35t-84.5 101q-22 -138 -162 -138zM548 430q-61 0 -99 -42t-39 -115h259v10q0 73 -33 110t-88 37zM204 45q48 0 84.5 38t36.5 103v71q-24 -21 -90 -44q-74 -26 -95.5 -40t-21.5 -48v-5q0 -75 86 -75z" />
    <glyph glyph-name="ccedilla" unicode="&#xe7;" horiz-adv-x="465" 
d="M265 -11h-13v-28q83 -8 83 -76q0 -34 -25 -53t-69 -19q-49 0 -69 20v40q25 -10 49 -10q44 0 44 27q0 33 -67 34v73q-78 20 -122 83.5t-44 161.5v1q0 65 20 114.5t54 77.5t73.5 42t83.5 14q106 0 153 -45v-102h-75v78q-38 9 -74 9q-64 0 -106.5 -41t-42.5 -122v-36
q0 -177 156 -177q73 0 150 49v-62q-19 -20 -60.5 -36.5t-98.5 -16.5z" />
    <glyph glyph-name="egrave" unicode="&#xe8;" horiz-adv-x="487" 
d="M276 -11q-113 0 -178.5 65t-65.5 187v1q0 112 62 180.5t162 68.5t148.5 -58t48.5 -144q0 -37 -7 -69h-328q2 -89 43.5 -127t124.5 -38q97 0 154 39v-54q-16 -21 -60 -36t-104 -15zM256 430q-61 0 -99 -42t-39 -115h259v10q0 73 -33 110t-88 37zM242 539l-119 134h119
l57 -134h-57z" />
    <glyph glyph-name="eacute" unicode="&#xe9;" horiz-adv-x="487" 
d="M276 -11q-113 0 -178.5 65t-65.5 187v1q0 112 62 180.5t162 68.5t148.5 -58t48.5 -144q0 -37 -7 -69h-328q2 -89 43.5 -127t124.5 -38q97 0 154 39v-54q-16 -21 -60 -36t-104 -15zM256 430q-61 0 -99 -42t-39 -115h259v10q0 73 -33 110t-88 37zM221 539l57 134h119
l-119 -134h-57z" />
    <glyph glyph-name="ecircumflex" unicode="&#xea;" horiz-adv-x="487" 
d="M276 -11q-113 0 -178.5 65t-65.5 187v1q0 112 62 180.5t162 68.5t148.5 -58t48.5 -144q0 -37 -7 -69h-328q2 -89 43.5 -127t124.5 -38q97 0 154 39v-54q-16 -21 -60 -36t-104 -15zM256 430q-61 0 -99 -42t-39 -115h259v10q0 73 -33 110t-88 37zM114 539l88 134h104
l88 -134h-61l-79 77l-79 -77h-61z" />
    <glyph glyph-name="edieresis" unicode="&#xeb;" horiz-adv-x="487" 
d="M276 -11q-113 0 -178.5 65t-65.5 187v1q0 112 62 180.5t162 68.5t148.5 -58t48.5 -144q0 -37 -7 -69h-328q2 -89 43.5 -127t124.5 -38q97 0 154 39v-54q-16 -21 -60 -36t-104 -15zM256 430q-61 0 -99 -42t-39 -115h259v10q0 73 -33 110t-88 37zM167 551q-22 0 -37.5 15
t-15.5 37q0 21 15.5 36.5t37.5 15.5q21 0 36.5 -15.5t15.5 -36.5q0 -22 -15.5 -37t-36.5 -15zM339 551q-21 0 -36.5 15t-15.5 37q0 21 15.5 36.5t36.5 15.5q22 0 37.5 -15.5t15.5 -36.5q0 -22 -15.5 -37t-37.5 -15z" />
    <glyph glyph-name="igrave" unicode="&#xec;" horiz-adv-x="272" 
d="M28 406v73h150v-416h66v-63h-216v63h66v343h-66zM100 539l-119 134h119l57 -134h-57z" />
    <glyph glyph-name="iacute" unicode="&#xed;" horiz-adv-x="272" 
d="M28 406v73h150v-416h66v-63h-216v63h66v343h-66zM83 539l57 134h119l-119 -134h-57z" />
    <glyph glyph-name="icircumflex" unicode="&#xee;" horiz-adv-x="272" 
d="M28 406v73h150v-416h66v-63h-216v63h66v343h-66zM-20 539l88 134h104l88 -134h-61l-79 77l-79 -77h-61z" />
    <glyph glyph-name="idieresis" unicode="&#xef;" horiz-adv-x="272" 
d="M28 406v73h150v-416h66v-63h-216v63h66v343h-66zM196 551q-21 0 -36.5 15t-15.5 37q0 21 15.5 36.5t36.5 15.5q22 0 37.5 -15.5t15.5 -36.5q0 -22 -15.5 -37t-37.5 -15zM47 551q-22 0 -37.5 15t-15.5 37q0 21 15.5 36.5t37.5 15.5q21 0 36.5 -15.5t15.5 -36.5
q0 -22 -15.5 -37t-36.5 -15z" />
    <glyph glyph-name="eth" unicode="&#xf0;" horiz-adv-x="538" 
d="M111 510l-23 46l117 45q-52 35 -120 67v5h128q36 -20 70 -42l96 37l23 -46l-71 -28q171 -141 171 -329v-19q0 -124 -67 -190.5t-168 -66.5t-168 66t-67 190v1q0 108 60.5 174t146.5 66q83 0 140 -64l1 1q-43 76 -126 142zM267 49q67 0 108 44.5t41 138.5v38q0 74 -41 117
t-108 43t-108 -43t-41 -117v-38q0 -94 41 -138.5t108 -44.5z" />
    <glyph glyph-name="ntilde" unicode="&#xf1;" horiz-adv-x="586" 
d="M344 0v63h73v277q0 81 -94 81q-64 0 -105.5 -41.5t-43.5 -114.5v-202h76v-63h-222v63h62v343h-62v73h126q20 -57 20 -117v-14q12 67 60 105t112 38q72 0 113.5 -42t41.5 -122v-264h57v-63h-214zM158 559q-8 46 8 78t59 32q30 0 66 -17t47 -17q15 0 19 8t6 30h43
q8 -46 -6.5 -78t-55.5 -32q-23 0 -61.5 17t-55.5 17q-14 0 -19 -8t-7 -30h-43z" />
    <glyph glyph-name="ograve" unicode="&#xf2;" horiz-adv-x="534" 
d="M267 49q68 0 108.5 44.5t40.5 138.5v38q0 74 -40.5 117t-108.5 43t-108.5 -43t-40.5 -117v-38q0 -94 40.5 -138.5t108.5 -44.5zM267 -11q-102 0 -168.5 66t-66.5 190v1q0 111 64.5 178t170.5 67t170.5 -66.5t64.5 -177.5v-1q0 -125 -66.5 -191t-168.5 -66zM247 539
l-119 134h119l57 -134h-57z" />
    <glyph glyph-name="oacute" unicode="&#xf3;" horiz-adv-x="534" 
d="M267 49q68 0 108.5 44.5t40.5 138.5v38q0 74 -40.5 117t-108.5 43t-108.5 -43t-40.5 -117v-38q0 -94 40.5 -138.5t108.5 -44.5zM267 -11q-102 0 -168.5 66t-66.5 190v1q0 111 64.5 178t170.5 67t170.5 -66.5t64.5 -177.5v-1q0 -125 -66.5 -191t-168.5 -66zM230 539
l57 134h119l-119 -134h-57z" />
    <glyph glyph-name="ocircumflex" unicode="&#xf4;" horiz-adv-x="534" 
d="M267 49q68 0 108.5 44.5t40.5 138.5v38q0 74 -40.5 117t-108.5 43t-108.5 -43t-40.5 -117v-38q0 -94 40.5 -138.5t108.5 -44.5zM267 -11q-102 0 -168.5 66t-66.5 190v1q0 111 64.5 178t170.5 67t170.5 -66.5t64.5 -177.5v-1q0 -125 -66.5 -191t-168.5 -66zM127 539
l88 134h104l88 -134h-61l-79 77l-79 -77h-61z" />
    <glyph glyph-name="otilde" unicode="&#xf5;" horiz-adv-x="534" 
d="M267 49q68 0 108.5 44.5t40.5 138.5v38q0 74 -40.5 117t-108.5 43t-108.5 -43t-40.5 -117v-38q0 -94 40.5 -138.5t108.5 -44.5zM267 -11q-102 0 -168.5 66t-66.5 190v1q0 111 64.5 178t170.5 67t170.5 -66.5t64.5 -177.5v-1q0 -125 -66.5 -191t-168.5 -66zM142 559
q-8 46 8 78t59 32q30 0 66 -17t47 -17q15 0 19 8t6 30h43q8 -46 -6.5 -78t-55.5 -32q-23 0 -61.5 17t-55.5 17q-14 0 -19 -8t-7 -30h-43z" />
    <glyph glyph-name="odieresis" unicode="&#xf6;" horiz-adv-x="534" 
d="M267 49q68 0 108.5 44.5t40.5 138.5v38q0 74 -40.5 117t-108.5 43t-108.5 -43t-40.5 -117v-38q0 -94 40.5 -138.5t108.5 -44.5zM267 -11q-102 0 -168.5 66t-66.5 190v1q0 111 64.5 178t170.5 67t170.5 -66.5t64.5 -177.5v-1q0 -125 -66.5 -191t-168.5 -66zM181 551
q-22 0 -37.5 15t-15.5 37q0 21 15.5 36.5t37.5 15.5q21 0 36.5 -15.5t15.5 -36.5q0 -22 -15.5 -37t-36.5 -15zM353 551q-21 0 -36.5 15t-15.5 37q0 21 15.5 36.5t36.5 15.5q22 0 37.5 -15.5t15.5 -36.5q0 -22 -15.5 -37t-37.5 -15z" />
    <glyph glyph-name="divide" unicode="&#xf7;" horiz-adv-x="476" 
d="M49 351h378v-72h-378v72zM238 102q-24 0 -41.5 17t-17.5 41t18 41.5t41 17.5q25 0 42 -17.5t17 -41.5t-17 -41t-42 -17zM238 410q-24 0 -41.5 17t-17.5 41t18 41.5t41 17.5q25 0 42 -17.5t17 -41.5t-17 -41t-42 -17z" />
    <glyph glyph-name="oslash" unicode="&#xf8;" horiz-adv-x="534" 
d="M267 -11q-77 0 -135 38l-36 -46h-66l62 80q-60 68 -60 184v1q0 111 64.5 178t170.5 67q78 0 133 -37l36 46h66l-62 -79q62 -65 62 -174v-1q0 -125 -66.5 -191t-168.5 -66zM267 49q68 0 108.5 44.5t40.5 138.5v38q0 57 -20 94l-225 -287q35 -28 96 -28zM118 232
q0 -70 20 -113l223 285q-38 26 -94 26q-68 0 -108.5 -43t-40.5 -117v-38z" />
    <glyph glyph-name="ugrave" unicode="&#xf9;" horiz-adv-x="583" 
d="M429 0q-20 57 -20 117v6q-12 -63 -57.5 -99t-104.5 -36q-77 0 -119.5 45.5t-42.5 139.5v233h-57v73h141v-319q0 -55 23.5 -80.5t72.5 -25.5q63 0 103.5 43.5t40.5 114.5v194h-76v73h160v-416h62v-63h-126zM260 539l-119 134h119l57 -134h-57z" />
    <glyph glyph-name="uacute" unicode="&#xfa;" horiz-adv-x="583" 
d="M429 0q-20 57 -20 117v6q-12 -63 -57.5 -99t-104.5 -36q-77 0 -119.5 45.5t-42.5 139.5v233h-57v73h141v-319q0 -55 23.5 -80.5t72.5 -25.5q63 0 103.5 43.5t40.5 114.5v194h-76v73h160v-416h62v-63h-126zM240 539l57 134h119l-119 -134h-57z" />
    <glyph glyph-name="ucircumflex" unicode="&#xfb;" horiz-adv-x="583" 
d="M333 406v73h160v-416h62v-63h-126q-20 57 -20 117v6q-12 -63 -57.5 -99t-104.5 -36q-77 0 -119.5 45.5t-42.5 139.5v233h-57v73h141v-319q0 -55 23.5 -80.5t72.5 -25.5q63 0 103.5 43.5t40.5 114.5v194h-76zM140 539l88 134h104l88 -134h-61l-79 77l-79 -77h-61z" />
    <glyph glyph-name="udieresis" unicode="&#xfc;" horiz-adv-x="583" 
d="M429 0q-20 57 -20 117v6q-12 -63 -57.5 -99t-104.5 -36q-77 0 -119.5 45.5t-42.5 139.5v233h-57v73h141v-319q0 -55 23.5 -80.5t72.5 -25.5q63 0 103.5 43.5t40.5 114.5v194h-76v73h160v-416h62v-63h-126zM194 551q-22 0 -37.5 15t-15.5 37q0 21 15.5 36.5t37.5 15.5
q21 0 36.5 -15.5t15.5 -36.5q0 -22 -15.5 -37t-36.5 -15zM366 551q-21 0 -36.5 15t-15.5 37q0 21 15.5 36.5t36.5 15.5q22 0 37.5 -15.5t15.5 -36.5q0 -22 -15.5 -37t-37.5 -15z" />
    <glyph glyph-name="yacute" unicode="&#xfd;" horiz-adv-x="554" 
d="M325 406v73h209v-73h-53l-151 -412q-30 -83 -65 -116.5t-96 -33.5q-70 0 -100 34v46q44 -14 87 -14q74 0 98 64l10 26h-38l-154 406h-52v73h214v-73h-74l124 -348l119 348h-78zM242 539l57 134h119l-119 -134h-57z" />
    <glyph glyph-name="thorn" unicode="&#xfe;" horiz-adv-x="572" 
d="M335 -11q-68 0 -113 33t-63 92v-201h76v-59h-222v59h62v693h-62v67h146v-316q17 61 65 97.5t118 36.5q91 0 143 -66.5t52 -176.5v-1q0 -123 -57 -190.5t-145 -67.5zM316 51q64 0 99.5 45.5t35.5 137.5v36q0 73 -35 113.5t-100 40.5t-111 -43.5t-46 -118.5v-20
q0 -95 45 -143t112 -48z" />
    <glyph glyph-name="ydieresis" unicode="&#xff;" horiz-adv-x="554" 
d="M325 406v73h209v-73h-53l-151 -412q-30 -83 -65 -116.5t-96 -33.5q-70 0 -100 34v46q44 -14 87 -14q74 0 98 64l10 26h-38l-154 406h-52v73h214v-73h-74l124 -348l119 348h-78zM365 551q-21 0 -36.5 15t-15.5 37q0 21 15.5 36.5t36.5 15.5q22 0 37.5 -15.5t15.5 -36.5
q0 -22 -15.5 -37t-37.5 -15zM193 551q-22 0 -37.5 15t-15.5 37q0 21 15.5 36.5t37.5 15.5q21 0 36.5 -15.5t15.5 -36.5q0 -22 -15.5 -37t-36.5 -15z" />
    <glyph glyph-name="Amacron" unicode="&#x100;" horiz-adv-x="651" 
d="M409 0v63h80l-39 126h-255l-40 -126h82v-63h-212v63h48l186 576h134l185 -576h48v-63h-217zM323 598l-105 -336h209zM206 699v66h236v-66h-236z" />
    <glyph glyph-name="amacron" unicode="&#x101;" horiz-adv-x="498" 
d="M65 338v96q57 57 165 57q177 0 179 -178v-209q0 -26 9 -37.5t35 -11.5q13 0 21 1v-49q-21 -11 -54 -11q-89 0 -95 98q-28 -107 -151 -107q-64 0 -103 34t-39 93v1q0 30 12 53.5t26.5 37t46 25.5t51 17.5t60.5 14.5q57 13 77 29.5t20 49.5v2q0 38 -27 62t-80 24
q-38 0 -77 -14v-78h-76zM204 45q48 0 84.5 38t36.5 103v71q-24 -21 -90 -44q-74 -26 -95.5 -40t-21.5 -48v-5q0 -75 86 -75zM120 562v66h236v-66h-236z" />
    <glyph glyph-name="Abreve" unicode="&#x102;" horiz-adv-x="651" 
d="M409 0v63h80l-39 126h-255l-40 -126h82v-63h-212v63h48l186 576h134l185 -576h48v-63h-217zM323 598l-105 -336h209zM383 790h50q2 -47 -24 -81.5t-85 -34.5t-85 34t-24 82h50q2 -51 59 -51t59 51z" />
    <glyph glyph-name="abreve" unicode="&#x103;" horiz-adv-x="498" 
d="M65 338v96q57 57 165 57q177 0 179 -178v-209q0 -26 9 -37.5t35 -11.5q13 0 21 1v-49q-21 -11 -54 -11q-89 0 -95 98q-28 -107 -151 -107q-64 0 -103 34t-39 93v1q0 30 12 53.5t26.5 37t46 25.5t51 17.5t60.5 14.5q57 13 77 29.5t20 49.5v2q0 38 -27 62t-80 24
q-38 0 -77 -14v-78h-76zM204 45q48 0 84.5 38t36.5 103v71q-24 -21 -90 -44q-74 -26 -95.5 -40t-21.5 -48v-5q0 -75 86 -75zM300 673h54q4 -53 -26 -94.5t-91 -41.5q-60 0 -90 41t-26 95h54q-1 -31 14.5 -51t47.5 -20q34 0 49 20t14 51z" />
    <glyph glyph-name="Aogonek" unicode="&#x104;" horiz-adv-x="651" 
d="M569 -155q-40 0 -61.5 19.5t-21.5 52.5q0 47 59 83h-136v63h80l-39 126h-255l-40 -126h82v-63h-212v63h48l186 576h134l185 -576h48v-56q-32 -16 -48 -39.5t-16 -39.5q0 -25 30 -25q16 0 30 7v-47q-14 -18 -53 -18zM323 598l-105 -336h209z" />
    <glyph glyph-name="aogonek" unicode="&#x105;" horiz-adv-x="498" 
d="M65 338v96q57 57 165 57q177 0 179 -178v-209q0 -26 9 -37.5t35 -11.5q13 0 21 1v-49q-78 -35 -78 -78q0 -29 34 -29q16 0 34 8v-45q-14 -18 -51 -18q-41 0 -62 18.5t-21 51.5q0 29 20.5 50t52.5 32q-73 8 -78 97q-28 -107 -151 -107q-64 0 -103 34t-39 93v1
q0 30 12 53.5t26.5 37t46 25.5t51 17.5t60.5 14.5q57 13 77 29.5t20 49.5v2q0 38 -27 62t-80 24q-38 0 -77 -14v-78h-76zM204 45q48 0 84.5 38t36.5 103v71q-24 -21 -90 -44q-74 -26 -95.5 -40t-21.5 -48v-5q0 -75 86 -75z" />
    <glyph glyph-name="Cacute" unicode="&#x106;" horiz-adv-x="586" 
d="M456 473v85q-57 20 -119 20q-105 0 -155.5 -60t-50.5 -167v-40q0 -125 54 -190t161 -65q58 0 120 26v98h74v-119q-28 -32 -80 -54t-120 -22q-135 0 -216.5 89.5t-81.5 249.5v2q0 151 75.5 239t213.5 88t199 -67v-113h-74zM289 685l45 111h121l-109 -111h-57z" />
    <glyph glyph-name="cacute" unicode="&#x107;" horiz-adv-x="465" 
d="M341 344v78q-38 9 -74 9q-64 0 -106.5 -41t-42.5 -122v-36q0 -177 156 -177q73 0 150 49v-62q-19 -20 -60.5 -36.5t-98.5 -16.5q-106 0 -169.5 67.5t-63.5 185.5v1q0 65 20 114.5t54 77.5t73.5 42t83.5 14q106 0 153 -45v-102h-75zM221 539l57 134h119l-119 -134h-57z
" />
    <glyph glyph-name="Ccircumflex" unicode="&#x108;" horiz-adv-x="586" 
d="M456 473v85q-57 20 -119 20q-105 0 -155.5 -60t-50.5 -167v-40q0 -125 54 -190t161 -65q58 0 120 26v98h74v-119q-28 -32 -80 -54t-120 -22q-135 0 -216.5 89.5t-81.5 249.5v2q0 151 75.5 239t213.5 88t199 -67v-113h-74zM463 685h-62l-75 53l-75 -53h-62l84 111h106z
" />
    <glyph glyph-name="ccircumflex" unicode="&#x109;" horiz-adv-x="465" 
d="M341 344v78q-38 9 -74 9q-64 0 -106.5 -41t-42.5 -122v-36q0 -177 156 -177q73 0 150 49v-62q-19 -20 -60.5 -36.5t-98.5 -16.5q-106 0 -169.5 67.5t-63.5 185.5v1q0 65 20 114.5t54 77.5t73.5 42t83.5 14q106 0 153 -45v-102h-75zM118 539l88 134h104l88 -134h-61
l-79 77l-79 -77h-61z" />
    <glyph glyph-name="Cdotaccent" unicode="&#x10a;" horiz-adv-x="586" 
d="M456 473v85q-57 20 -119 20q-105 0 -155.5 -60t-50.5 -167v-40q0 -125 54 -190t161 -65q58 0 120 26v98h74v-119q-28 -32 -80 -54t-120 -22q-135 0 -216.5 89.5t-81.5 249.5v2q0 151 75.5 239t213.5 88t199 -67v-113h-74zM326 682q-23 0 -39 16t-16 38t16.5 38.5
t38.5 16.5t38.5 -16.5t16.5 -38.5t-16 -38t-39 -16z" />
    <glyph glyph-name="cdotaccent" unicode="&#x10b;" horiz-adv-x="465" 
d="M341 344v78q-38 9 -74 9q-64 0 -106.5 -41t-42.5 -122v-36q0 -177 156 -177q73 0 150 49v-62q-19 -20 -60.5 -36.5t-98.5 -16.5q-106 0 -169.5 67.5t-63.5 185.5v1q0 65 20 114.5t54 77.5t73.5 42t83.5 14q106 0 153 -45v-102h-75zM258 551q-23 0 -39 16t-16 38
q0 23 16.5 39t38.5 16t38.5 -16t16.5 -39q0 -22 -16 -38t-39 -16z" />
    <glyph glyph-name="Ccaron" unicode="&#x10c;" horiz-adv-x="586" 
d="M456 473v85q-57 20 -119 20q-105 0 -155.5 -60t-50.5 -167v-40q0 -125 54 -190t161 -65q58 0 120 26v98h74v-119q-28 -32 -80 -54t-120 -22q-135 0 -216.5 89.5t-81.5 249.5v2q0 151 75.5 239t213.5 88t199 -67v-113h-74zM189 796h62l75 -53l75 53h62l-84 -111h-106z" />
    <glyph glyph-name="ccaron" unicode="&#x10d;" horiz-adv-x="465" 
d="M341 344v78q-38 9 -74 9q-64 0 -106.5 -41t-42.5 -122v-36q0 -177 156 -177q73 0 150 49v-62q-19 -20 -60.5 -36.5t-98.5 -16.5q-106 0 -169.5 67.5t-63.5 185.5v1q0 65 20 114.5t54 77.5t73.5 42t83.5 14q106 0 153 -45v-102h-75zM118 673h61l79 -77l79 77h61l-88 -134
h-104z" />
    <glyph glyph-name="Dcaron" unicode="&#x10e;" horiz-adv-x="650" 
d="M35 572v67h303q136 0 203 -81t67 -227v-2q0 -160 -72.5 -244.5t-216.5 -84.5h-284v63h66v509h-66zM188 69h120q112 0 161.5 62.5t49.5 183.5v40q0 103 -42 156.5t-149 53.5h-140v-496zM174 796h62l75 -53l75 53h62l-84 -111h-106z" />
    <glyph glyph-name="dcaron" unicode="&#x10f;" horiz-adv-x="587" 
d="M335 606v67h162v-610h62v-63h-126q-20 57 -20 120q-17 -62 -62.5 -97t-112.5 -35q-93 0 -148 72t-55 192v1q0 112 58.5 174.5t144.5 62.5q136 0 175 -126v242h-78zM256 50q65 0 111 48t46 130v18q0 89 -45 133t-112 44q-135 0 -135 -157v-36q0 -84 35.5 -132t99.5 -48z
M533 541l6 132h83l-35 -132h-54z" />
    <glyph glyph-name="Dcroat" unicode="&#x110;" horiz-adv-x="650" 
d="M30 284v68h71v220h-66v67h303q136 0 203 -81t67 -227v-2q0 -160 -72.5 -244.5t-216.5 -84.5h-284v63h66v221h-71zM188 69h120q112 0 161.5 62.5t49.5 183.5v40q0 103 -42 156.5t-149 53.5h-140v-213h171v-68h-171v-215z" />
    <glyph glyph-name="dcroat" unicode="&#x111;" horiz-adv-x="587" 
d="M238 -12q-93 0 -148 72t-55 192v1q0 112 58.5 174.5t144.5 62.5q136 0 175 -126v176h-161v59h161v74h84v-74h69v-59h-69v-477h62v-63h-126q-20 57 -20 120q-17 -62 -62.5 -97t-112.5 -35zM256 50q65 0 111 48t46 130v18q0 89 -45 133t-112 44q-135 0 -135 -157v-36
q0 -84 35.5 -132t99.5 -48z" />
    <glyph glyph-name="Emacron" unicode="&#x112;" horiz-adv-x="570" 
d="M443 473v92h-255v-212h259v-71h-259v-212h265v96h74v-166h-492v63h66v509h-66v67h482v-166h-74zM175 699v66h236v-66h-236z" />
    <glyph glyph-name="emacron" unicode="&#x113;" horiz-adv-x="487" 
d="M276 -11q-113 0 -178.5 65t-65.5 187v1q0 112 62 180.5t162 68.5t148.5 -58t48.5 -144q0 -37 -7 -69h-328q2 -89 43.5 -127t124.5 -38q97 0 154 39v-54q-16 -21 -60 -36t-104 -15zM256 430q-61 0 -99 -42t-39 -115h259v10q0 73 -33 110t-88 37zM135 562v66h236v-66h-236z
" />
    <glyph glyph-name="Ebreve" unicode="&#x114;" horiz-adv-x="570" 
d="M443 473v92h-255v-212h259v-71h-259v-212h265v96h74v-166h-492v63h66v509h-66v67h482v-166h-74zM358 790h50q2 -47 -24 -81.5t-85 -34.5t-85 34t-24 82h50q2 -51 59 -51t59 51z" />
    <glyph glyph-name="ebreve" unicode="&#x115;" horiz-adv-x="487" 
d="M276 -11q-113 0 -178.5 65t-65.5 187v1q0 112 62 180.5t162 68.5t148.5 -58t48.5 -144q0 -37 -7 -69h-328q2 -89 43.5 -127t124.5 -38q97 0 154 39v-54q-16 -21 -60 -36t-104 -15zM256 430q-61 0 -99 -42t-39 -115h259v10q0 73 -33 110t-88 37zM320 673h54
q4 -53 -26 -94.5t-91 -41.5q-60 0 -90 41t-26 95h54q-1 -31 14.5 -51t47.5 -20q34 0 49 20t14 51z" />
    <glyph glyph-name="Edotaccent" unicode="&#x116;" horiz-adv-x="570" 
d="M443 473v92h-255v-212h259v-71h-259v-212h265v96h74v-166h-492v63h66v509h-66v67h482v-166h-74zM299 682q-23 0 -39 16t-16 38t16 38.5t39 16.5t39 -16.5t16 -38.5t-16 -38t-39 -16z" />
    <glyph glyph-name="edotaccent" unicode="&#x117;" horiz-adv-x="487" 
d="M276 -11q-113 0 -178.5 65t-65.5 187v1q0 112 62 180.5t162 68.5t148.5 -58t48.5 -144q0 -37 -7 -69h-328q2 -89 43.5 -127t124.5 -38q97 0 154 39v-54q-16 -21 -60 -36t-104 -15zM256 430q-61 0 -99 -42t-39 -115h259v10q0 73 -33 110t-88 37zM257 551q-23 0 -39 16
t-16 38q0 23 16 39t39 16t39 -16t16 -39q0 -22 -16 -38t-39 -16z" />
    <glyph glyph-name="Eogonek" unicode="&#x118;" horiz-adv-x="570" 
d="M443 473v92h-255v-212h259v-71h-259v-212h265v96h74v-166h-52q-29 -15 -42.5 -35.5t-13.5 -36.5q0 -25 30 -25q16 0 30 7v-47q-14 -18 -53 -18q-40 0 -61.5 19.5t-21.5 52.5q0 48 58 83h-366v63h66v509h-66v67h482v-166h-74z" />
    <glyph glyph-name="eogonek" unicode="&#x119;" horiz-adv-x="487" 
d="M446 220h-328q2 -89 43.5 -127t124.5 -38q97 0 154 39v-54q-6 -10 -35.5 -27.5t-54 -38.5t-24.5 -45q0 -29 34 -29q16 0 34 8v-45q-14 -18 -51 -18q-41 0 -62 18.5t-21 51.5q0 51 58 76q-26 -2 -42 -2q-113 0 -178.5 65t-65.5 187v1q0 112 62 180.5t162 68.5t148.5 -58
t48.5 -144q0 -37 -7 -69zM256 430q-61 0 -99 -42t-39 -115h259v10q0 73 -33 110t-88 37z" />
    <glyph glyph-name="Ecaron" unicode="&#x11a;" horiz-adv-x="570" 
d="M443 473v92h-255v-212h259v-71h-259v-212h265v96h74v-166h-492v63h66v509h-66v67h482v-166h-74zM162 796h62l75 -53l75 53h62l-84 -111h-106z" />
    <glyph glyph-name="ecaron" unicode="&#x11b;" horiz-adv-x="487" 
d="M276 -11q-113 0 -178.5 65t-65.5 187v1q0 112 62 180.5t162 68.5t148.5 -58t48.5 -144q0 -37 -7 -69h-328q2 -89 43.5 -127t124.5 -38q97 0 154 39v-54q-16 -21 -60 -36t-104 -15zM256 430q-61 0 -99 -42t-39 -115h259v10q0 73 -33 110t-88 37zM114 673h61l79 -77l79 77
h61l-88 -134h-104z" />
    <glyph glyph-name="Gcircumflex" unicode="&#x11c;" horiz-adv-x="618" 
d="M354 258v67h209v-261q-77 -79 -217 -79q-135 0 -219.5 88t-84.5 249v2q0 148 84 238.5t219 90.5q128 0 192 -62v-118h-72v87q-58 18 -111 18q-105 0 -164 -60.5t-59 -168.5v-40q0 -123 56.5 -187.5t164.5 -64.5q66 0 124 25v176h-122zM468 685h-62l-75 53l-75 -53h-62
l84 111h106z" />
    <glyph glyph-name="gcircumflex" unicode="&#x11d;" horiz-adv-x="584" 
d="M255 -155q-132 0 -181 60v68q68 -60 173 -60q75 0 119 38.5t44 118.5v71q-35 -119 -177 -119q-95 0 -148 64.5t-53 174.5v1q0 103 58.5 165.5t145.5 62.5q140 0 174 -115q1 24 6 50t10 40l4 14h126v-73h-62v-330q0 -114 -65.5 -172.5t-173.5 -58.5zM251 83q66 0 112.5 42
t46.5 116v16q0 80 -44.5 123t-110.5 43q-64 0 -100.5 -38t-36.5 -112v-32q0 -76 34 -117t99 -41zM136 539l88 134h104l88 -134h-61l-79 77l-79 -77h-61z" />
    <glyph glyph-name="Gbreve" unicode="&#x11e;" horiz-adv-x="618" 
d="M354 258v67h209v-261q-77 -79 -217 -79q-135 0 -219.5 88t-84.5 249v2q0 148 84 238.5t219 90.5q128 0 192 -62v-118h-72v87q-58 18 -111 18q-105 0 -164 -60.5t-59 -168.5v-40q0 -123 56.5 -187.5t164.5 -64.5q66 0 124 25v176h-122zM390 790h50q2 -47 -24 -81.5
t-85 -34.5t-85 34t-24 82h50q2 -51 59 -51t59 51z" />
    <glyph glyph-name="gbreve" unicode="&#x11f;" horiz-adv-x="584" 
d="M255 -155q-132 0 -181 60v68q68 -60 173 -60q75 0 119 38.5t44 118.5v71q-35 -119 -177 -119q-95 0 -148 64.5t-53 174.5v1q0 103 58.5 165.5t145.5 62.5q140 0 174 -115q1 24 6 50t10 40l4 14h126v-73h-62v-330q0 -114 -65.5 -172.5t-173.5 -58.5zM251 83q66 0 112.5 42
t46.5 116v16q0 80 -44.5 123t-110.5 43q-64 0 -100.5 -38t-36.5 -112v-32q0 -76 34 -117t99 -41zM338 673h54q4 -53 -26 -94.5t-91 -41.5q-60 0 -90 41t-26 95h54q-1 -31 14.5 -51t47.5 -20q34 0 49 20t14 51z" />
    <glyph glyph-name="Gdotaccent" unicode="&#x120;" horiz-adv-x="618" 
d="M354 258v67h209v-261q-77 -79 -217 -79q-135 0 -219.5 88t-84.5 249v2q0 148 84 238.5t219 90.5q128 0 192 -62v-118h-72v87q-58 18 -111 18q-105 0 -164 -60.5t-59 -168.5v-40q0 -123 56.5 -187.5t164.5 -64.5q66 0 124 25v176h-122zM331 682q-23 0 -39 16t-16 38
t16 38.5t39 16.5t39 -16.5t16 -38.5t-16 -38t-39 -16z" />
    <glyph glyph-name="gdotaccent" unicode="&#x121;" horiz-adv-x="584" 
d="M255 -155q-132 0 -181 60v68q68 -60 173 -60q75 0 119 38.5t44 118.5v71q-35 -119 -177 -119q-95 0 -148 64.5t-53 174.5v1q0 103 58.5 165.5t145.5 62.5q140 0 174 -115q1 24 6 50t10 40l4 14h126v-73h-62v-330q0 -114 -65.5 -172.5t-173.5 -58.5zM251 83q66 0 112.5 42
t46.5 116v16q0 80 -44.5 123t-110.5 43q-64 0 -100.5 -38t-36.5 -112v-32q0 -76 34 -117t99 -41zM276 551q-23 0 -39 16t-16 38q0 23 16.5 39t38.5 16t38.5 -16t16.5 -39q0 -22 -16 -38t-39 -16z" />
    <glyph glyph-name="Gcommaaccent" unicode="&#x122;" horiz-adv-x="618" 
d="M354 258v67h209v-261q-77 -79 -217 -79q-135 0 -219.5 88t-84.5 249v2q0 148 84 238.5t219 90.5q128 0 192 -62v-118h-72v87q-58 18 -111 18q-105 0 -164 -60.5t-59 -168.5v-40q0 -123 56.5 -187.5t164.5 -64.5q66 0 124 25v176h-122zM325 -179h-54q21 46 21 86
q0 20 -4 44h83q3 -13 3 -24q0 -69 -49 -106z" />
    <glyph glyph-name="gcommaaccent" unicode="&#x123;" horiz-adv-x="584" 
d="M255 -155q-132 0 -181 60v68q68 -60 173 -60q75 0 119 38.5t44 118.5v71q-35 -119 -177 -119q-95 0 -148 64.5t-53 174.5v1q0 103 58.5 165.5t145.5 62.5q140 0 174 -115q1 24 6 50t10 40l4 14h126v-73h-62v-330q0 -114 -65.5 -172.5t-173.5 -58.5zM251 83q66 0 112.5 42
t46.5 116v16q0 80 -44.5 123t-110.5 43q-64 0 -100.5 -38t-36.5 -112v-32q0 -76 34 -117t99 -41zM279 686h54q-21 -46 -21 -86q0 -20 4 -44h-83q-3 13 -3 24q0 69 49 106z" />
    <glyph glyph-name="Hcircumflex" unicode="&#x124;" horiz-adv-x="696" 
d="M425 0v63h83v226h-320v-226h83v-63h-236v63h66v509h-66v67h236v-67h-83v-210h320v210h-83v67h236v-67h-66v-509h66v-63h-236zM485 685h-62l-75 53l-75 -53h-62l84 111h106z" />
    <glyph glyph-name="hcircumflex" unicode="&#x125;" horiz-adv-x="586" 
d="M344 0v63h73v277q0 81 -94 81q-64 0 -105.5 -41.5t-43.5 -114.5v-202h76v-63h-222v63h62v543h-62v67h146v-325q12 67 60 105t112 38q72 0 113.5 -42t41.5 -122v-264h57v-63h-214zM434 715h-62l-75 53l-75 -53h-62l84 111h106z" />
    <glyph glyph-name="Hbar" unicode="&#x126;" horiz-adv-x="696" 
d="M425 0v63h83v226h-320v-226h83v-63h-236v63h66v382h-92v59h92v68h-66v67h236v-67h-83v-68h320v68h-83v67h236v-67h-66v-68h92v-59h-92v-382h66v-63h-236zM188 362h320v83h-320v-83z" />
    <glyph glyph-name="hbar" unicode="&#x127;" horiz-adv-x="586" 
d="M22 540v59h68v74h84v-74h162v-59h-162v-192q12 67 60 105t112 38q72 0 113.5 -42t41.5 -122v-264h57v-63h-214v63h73v277q0 81 -94 81q-64 0 -105.5 -41.5t-43.5 -114.5v-202h76v-63h-222v63h62v477h-68z" />
    <glyph glyph-name="Itilde" unicode="&#x128;" horiz-adv-x="303" 
d="M35 572v67h233v-67h-73v-509h73v-63h-233v63h73v509h-73zM20 686q-8 45 9 77.5t60 32.5q32 0 72 -17t53 -17q15 0 19 8t6 30h43q8 -45 -7.5 -77.5t-56.5 -32.5q-25 0 -67.5 17t-61.5 17q-14 0 -19 -8t-7 -30h-43z" />
    <glyph glyph-name="itilde" unicode="&#x129;" horiz-adv-x="272" 
d="M28 406v73h150v-416h66v-63h-216v63h66v343h-66zM-5 559q-8 46 8 78t59 32q30 0 66 -17t47 -17q15 0 19 8t6 30h43q8 -46 -6.5 -78t-55.5 -32q-23 0 -61.5 17t-55.5 17q-14 0 -19 -8t-7 -30h-43z" />
    <glyph glyph-name="Imacron" unicode="&#x12a;" horiz-adv-x="303" 
d="M35 572v67h233v-67h-73v-509h73v-63h-233v63h73v509h-73zM33 699v66h236v-66h-236z" />
    <glyph glyph-name="imacron" unicode="&#x12b;" horiz-adv-x="272" 
d="M28 406v73h150v-416h66v-63h-216v63h66v343h-66zM18 562v66h201v-66h-201z" />
    <glyph glyph-name="Ibreve" unicode="&#x12c;" horiz-adv-x="303" 
d="M35 572v67h233v-67h-73v-509h73v-63h-233v63h73v509h-73zM210 790h50q2 -47 -24 -81.5t-85 -34.5t-85 34t-24 82h50q2 -51 59 -51t59 51z" />
    <glyph glyph-name="ibreve" unicode="&#x12d;" horiz-adv-x="272" 
d="M28 406v73h150v-416h66v-63h-216v63h66v343h-66zM182 673h54q4 -53 -26 -94.5t-91 -41.5q-60 0 -90 41t-26 95h54q-1 -31 14.5 -51t47.5 -20q34 0 49 20t14 51z" />
    <glyph glyph-name="Iogonek" unicode="&#x12e;" horiz-adv-x="303" 
d="M35 572v67h233v-67h-73v-509h73v-63h-55q-36 -29 -36 -70q0 -27 30 -27q16 0 30 7v-47q-14 -18 -53 -18q-40 0 -61.5 19.5t-21.5 52.5q0 44 47 83h-113v63h73v509h-73z" />
    <glyph glyph-name="iogonek" unicode="&#x12f;" horiz-adv-x="272" 
d="M28 406v73h150v-416h66v-63h-60q-43 -32 -43 -71q0 -29 34 -29q16 0 34 8v-45q-14 -18 -51 -18q-41 0 -62 18.5t-21 51.5q0 26 17 49t41 36h-105v63h66v343h-66zM130 551q-23 0 -39 16t-16 38q0 23 16.5 39t38.5 16t38.5 -16t16.5 -39q0 -22 -16 -38t-39 -16z" />
    <glyph glyph-name="Idotaccent" unicode="&#x130;" horiz-adv-x="303" 
d="M35 572v67h233v-67h-73v-509h73v-63h-233v63h73v509h-73zM151 682q-23 0 -39 16t-16 38t16 38.5t39 16.5t39 -16.5t16 -38.5t-16 -38t-39 -16z" />
    <glyph glyph-name="dotlessi" unicode="&#x131;" horiz-adv-x="272" 
d="M28 406v73h150v-416h66v-63h-216v63h66v343h-66z" />
    <glyph glyph-name="IJ" unicode="&#x132;" horiz-adv-x="681" 
d="M413 572v67h233v-67h-60v-419q0 -79 -39.5 -122.5t-118.5 -43.5q-69 0 -103 29v55q43 -13 88 -13q86 0 86 101v413h-86zM35 572v67h233v-67h-73v-509h73v-63h-233v63h73v509h-73z" />
    <glyph glyph-name="ij" unicode="&#x133;" horiz-adv-x="507" 
d="M283 406v73h150v-512q0 -63 -31 -91.5t-80 -28.5q-55 0 -80 23v43q12 -1 44 -1q37 0 50 9t13 41v444h-66zM28 406v73h150v-416h66v-63h-216v63h66v343h-66zM385 551q-23 0 -39 16t-16 38q0 23 16 39t39 16t39 -16t16 -39q0 -22 -16 -38t-39 -16zM130 551q-23 0 -39 16
t-16 38q0 23 16.5 39t38.5 16t38.5 -16t16.5 -39q0 -22 -16 -38t-39 -16z" />
    <glyph glyph-name="Jcircumflex" unicode="&#x134;" horiz-adv-x="394" 
d="M126 572v67h233v-67h-60v-416q0 -79 -40.5 -122.5t-122.5 -43.5q-73 0 -109 31v55q43 -15 94 -15q91 0 91 101v410h-86zM378 685h-62l-75 53l-75 -53h-62l84 111h106z" />
    <glyph glyph-name="jcircumflex" unicode="&#x135;" horiz-adv-x="252" 
d="M28 406v73h150v-512q0 -63 -31 -91.5t-80 -28.5q-55 0 -80 23v43q12 -1 44 -1q37 0 50 9t13 41v444h-66zM-21 539l88 134h104l88 -134h-61l-79 77l-79 -77h-61z" />
    <glyph glyph-name="Kcommaaccent" unicode="&#x136;" horiz-adv-x="623" 
d="M357 0v63h78l-247 267v-267h83v-63h-236v63h66v509h-66v67h236v-67h-83v-236l244 236h-75v67h222v-67h-51l-242 -234l255 -275h52v-63h-236zM298 -179h-54q21 46 21 86q0 20 -4 44h83q3 -13 3 -24q0 -69 -49 -106z" />
    <glyph glyph-name="kcommaaccent" unicode="&#x137;" horiz-adv-x="518" 
d="M375 0l-201 244v-181h78v-63h-224v63h62v543h-62v67h146v-414l192 220h101v-73h-78l-129 -148l162 -195h68v-63h-115zM253 -179h-54q21 46 21 86q0 20 -4 44h83q3 -13 3 -24q0 -69 -49 -106z" />
    <glyph glyph-name="Lacute" unicode="&#x139;" horiz-adv-x="547" 
d="M35 572v67h241v-67h-88v-502h250v96h74v-166h-477v63h66v509h-66zM108 685l45 111h121l-109 -111h-57z" />
    <glyph glyph-name="lacute" unicode="&#x13a;" horiz-adv-x="272" 
d="M28 606v67h150v-610h66v-63h-216v63h66v543h-66zM99 715l45 111h121l-109 -111h-57z" />
    <glyph glyph-name="Lcommaaccent" unicode="&#x13b;" horiz-adv-x="547" 
d="M35 572v67h241v-67h-88v-502h250v96h74v-166h-477v63h66v509h-66zM279 -179h-54q21 46 21 86q0 20 -4 44h83q3 -13 3 -24q0 -69 -49 -106z" />
    <glyph glyph-name="lcommaaccent" unicode="&#x13c;" horiz-adv-x="272" 
d="M28 606v67h150v-610h66v-63h-216v63h66v543h-66zM130 -179h-54q21 46 21 86q0 20 -4 44h83q3 -13 3 -24q0 -69 -49 -106z" />
    <glyph glyph-name="Lcaron" unicode="&#x13d;" horiz-adv-x="547" 
d="M35 0v63h66v509h-66v67h241v-67h-88v-502h250v96h74v-166h-477zM313 507l6 132h83l-35 -132h-54z" />
    <glyph glyph-name="lcaron" unicode="&#x13e;" horiz-adv-x="272" 
d="M28 606v67h150v-610h66v-63h-216v63h66v543h-66zM214 541l6 132h83l-35 -132h-54z" />
    <glyph glyph-name="Ldot" unicode="&#x13f;" horiz-adv-x="547" 
d="M35 0v63h66v509h-66v67h241v-67h-88v-502h250v96h74v-166h-477zM451 284q-24 0 -41.5 17t-17.5 41t18 41.5t41 17.5q25 0 42 -17.5t17 -41.5t-17 -41t-42 -17z" />
    <glyph glyph-name="ldot" unicode="&#x140;" horiz-adv-x="352" 
d="M28 606v67h150v-610h66v-63h-216v63h66v543h-66zM312 273q-24 0 -41.5 17t-17.5 41t18 41.5t41 17.5q25 0 42 -17.5t17 -41.5t-17 -41t-42 -17z" />
    <glyph glyph-name="Lslash" unicode="&#x141;" horiz-adv-x="547" 
d="M35 572v67h241v-67h-88v-243l203 116v-74l-203 -116v-185h250v96h74v-166h-477v63h66v142l-73 -42v74l73 42v293h-66z" />
    <glyph glyph-name="lslash" unicode="&#x142;" horiz-adv-x="272" 
d="M28 606v67h150v-241l66 48v-72l-66 -48v-297h66v-63h-216v63h66v237l-68 -49v72l68 49v234h-66z" />
    <glyph glyph-name="Nacute" unicode="&#x143;" horiz-adv-x="702" 
d="M441 572v67h230v-67h-66v-572h-129l-294 571v-508h83v-63h-230v63h66v509h-66v67h205l284 -561v494h-83zM325 685l45 111h121l-109 -111h-57z" />
    <glyph glyph-name="nacute" unicode="&#x144;" horiz-adv-x="586" 
d="M344 0v63h73v277q0 81 -94 81q-64 0 -105.5 -41.5t-43.5 -114.5v-202h76v-63h-222v63h62v343h-62v73h126q20 -57 20 -117v-14q12 67 60 105t112 38q72 0 113.5 -42t41.5 -122v-264h57v-63h-214zM246 539l57 134h119l-119 -134h-57z" />
    <glyph glyph-name="Ncommaaccent" unicode="&#x145;" horiz-adv-x="702" 
d="M441 572v67h230v-67h-66v-572h-129l-294 571v-508h83v-63h-230v63h66v509h-66v67h205l284 -561v494h-83zM346 -179h-54q21 46 21 86q0 20 -4 44h83q3 -13 3 -24q0 -69 -49 -106z" />
    <glyph glyph-name="ncommaaccent" unicode="&#x146;" horiz-adv-x="586" 
d="M344 0v63h73v277q0 81 -94 81q-64 0 -105.5 -41.5t-43.5 -114.5v-202h76v-63h-222v63h62v343h-62v73h126q20 -57 20 -117v-14q12 67 60 105t112 38q72 0 113.5 -42t41.5 -122v-264h57v-63h-214zM277 -179h-54q21 46 21 86q0 20 -4 44h83q3 -13 3 -24q0 -69 -49 -106z" />
    <glyph glyph-name="Ncaron" unicode="&#x147;" horiz-adv-x="702" 
d="M441 572v67h230v-67h-66v-572h-129l-294 571v-508h83v-63h-230v63h66v509h-66v67h205l284 -561v494h-83zM225 796h62l75 -53l75 53h62l-84 -111h-106z" />
    <glyph glyph-name="ncaron" unicode="&#x148;" horiz-adv-x="586" 
d="M344 0v63h73v277q0 81 -94 81q-64 0 -105.5 -41.5t-43.5 -114.5v-202h76v-63h-222v63h62v343h-62v73h126q20 -57 20 -117v-14q12 67 60 105t112 38q72 0 113.5 -42t41.5 -122v-264h57v-63h-214zM143 673h61l79 -77l79 77h61l-88 -134h-104z" />
    <glyph glyph-name="napostrophe" unicode="&#x149;" horiz-adv-x="659" 
d="M417 0v63h73v277q0 81 -94 81q-64 0 -105.5 -41.5t-43.5 -114.5v-202h76v-63h-222v63h62v343h-62v73h126q20 -57 20 -117v-14q12 67 60 105t112 38q72 0 113.5 -42t41.5 -122v-264h57v-63h-214zM-48 441q25 71 25 142q0 31 -6 56h91q3 -19 3 -37q0 -88 -62 -161h-51z" />
    <glyph glyph-name="Eng" unicode="&#x14a;" horiz-adv-x="706" 
d="M35 572v67h205l284 -561v494h-83v67h230v-67h-66v-557q0 -79 -40.5 -122.5t-122.5 -43.5q-71 0 -109 32v52q40 -14 91 -14q89 0 98 81h-46l-294 571v-508h83v-63h-230v63h66v509h-66z" />
    <glyph glyph-name="eng" unicode="&#x14b;" horiz-adv-x="568" 
d="M28 406v73h126q20 -57 20 -117v-14q12 67 60 105t112 38q72 0 113.5 -42t41.5 -122v-337q0 -78 -36 -110.5t-90 -32.5q-60 0 -85 23v43q9 -1 23 -1q60 0 82 16t22 67v345q0 81 -94 81q-64 0 -105.5 -41.5t-43.5 -114.5v-202h76v-63h-222v63h62v343h-62z" />
    <glyph glyph-name="Omacron" unicode="&#x14c;" horiz-adv-x="672" 
d="M336 56q205 0 205 246v52q0 103 -51 163.5t-154 60.5t-154 -60.5t-51 -163.5v-52q0 -246 205 -246zM336 -15q-132 0 -213 86.5t-81 249.5v2q0 152 77 241t217 89t217 -89t77 -241v-2q0 -163 -80.5 -249.5t-213.5 -86.5zM218 699v66h236v-66h-236z" />
    <glyph glyph-name="omacron" unicode="&#x14d;" horiz-adv-x="534" 
d="M267 49q68 0 108.5 44.5t40.5 138.5v38q0 74 -40.5 117t-108.5 43t-108.5 -43t-40.5 -117v-38q0 -94 40.5 -138.5t108.5 -44.5zM267 -11q-102 0 -168.5 66t-66.5 190v1q0 111 64.5 178t170.5 67t170.5 -66.5t64.5 -177.5v-1q0 -125 -66.5 -191t-168.5 -66zM149 562v66
h236v-66h-236z" />
    <glyph glyph-name="Obreve" unicode="&#x14e;" horiz-adv-x="672" 
d="M336 -15q-132 0 -213 86.5t-81 249.5v2q0 152 77 241t217 89t217 -89t77 -241v-2q0 -163 -80.5 -249.5t-213.5 -86.5zM336 56q205 0 205 246v52q0 103 -51 163.5t-154 60.5t-154 -60.5t-51 -163.5v-52q0 -246 205 -246zM395 790h50q2 -47 -24 -81.5t-85 -34.5t-85 34
t-24 82h50q2 -51 59 -51t59 51z" />
    <glyph glyph-name="obreve" unicode="&#x14f;" horiz-adv-x="534" 
d="M267 -11q-102 0 -168.5 66t-66.5 190v1q0 111 64.5 178t170.5 67t170.5 -66.5t64.5 -177.5v-1q0 -125 -66.5 -191t-168.5 -66zM267 49q68 0 108.5 44.5t40.5 138.5v38q0 74 -40.5 117t-108.5 43t-108.5 -43t-40.5 -117v-38q0 -94 40.5 -138.5t108.5 -44.5zM329 673h54
q4 -53 -26 -94.5t-91 -41.5q-60 0 -90 41t-26 95h54q-1 -31 14.5 -51t47.5 -20q34 0 49 20t14 51z" />
    <glyph glyph-name="Ohungarumlaut" unicode="&#x150;" horiz-adv-x="672" 
d="M336 56q205 0 205 246v52q0 103 -51 163.5t-154 60.5t-154 -60.5t-51 -163.5v-52q0 -246 205 -246zM336 -15q-132 0 -213 86.5t-81 249.5v2q0 152 77 241t217 89t217 -89t77 -241v-2q0 -163 -80.5 -249.5t-213.5 -86.5zM230 685l39 111h98l-72 -111h-65zM369 685l39 111
h98l-72 -111h-65z" />
    <glyph glyph-name="ohungarumlaut" unicode="&#x151;" horiz-adv-x="534" 
d="M267 49q68 0 108.5 44.5t40.5 138.5v38q0 74 -40.5 117t-108.5 43t-108.5 -43t-40.5 -117v-38q0 -94 40.5 -138.5t108.5 -44.5zM267 -11q-102 0 -168.5 66t-66.5 190v1q0 111 64.5 178t170.5 67t170.5 -66.5t64.5 -177.5v-1q0 -125 -66.5 -191t-168.5 -66zM158 539
l45 134h98l-80 -134h-63zM303 539l45 134h98l-80 -134h-63z" />
    <glyph glyph-name="OE" unicode="&#x152;" horiz-adv-x="851" 
d="M331 0q-144 0 -216.5 84.5t-72.5 244.5v2q0 146 67 227t203 81h486v-166h-74v91h-225v-211h229v-71h-229v-211h235v95h74v-166h-477zM129 315q0 -121 50.5 -183.5t162.5 -62.5h70v496h-90q-108 0 -150.5 -53.5t-42.5 -156.5v-40z" />
    <glyph glyph-name="oe" unicode="&#x153;" horiz-adv-x="859" 
d="M648 -11q-159 0 -202 136q-43 -136 -185 -136q-99 0 -164 66t-65 190v1q0 111 63 178t166 67q144 0 186 -133q44 133 181 133q100 0 148.5 -58t48.5 -144q0 -37 -7 -69h-328q2 -89 43.5 -127t124.5 -38q97 0 154 39v-54q-16 -21 -60 -36t-104 -15zM261 49
q66 0 104.5 44.5t38.5 138.5v38q0 75 -38.5 117.5t-104.5 42.5t-104.5 -42.5t-38.5 -117.5v-38q0 -94 38.5 -138.5t104.5 -44.5zM628 430q-61 0 -99 -42t-39 -115h259v10q0 73 -33 110t-88 37z" />
    <glyph glyph-name="Racute" unicode="&#x154;" horiz-adv-x="584" 
d="M444 0l-256 299v-236h83v-63h-236v63h66v509h-66v67h282q101 0 153.5 -49.5t52.5 -135.5q0 -85 -53 -128.5t-147 -43.5h-19l188 -219h67v-63h-115zM188 339h115q73 0 102.5 28t29.5 89q0 55 -29 82t-99 27h-119v-226zM264 685l45 111h121l-109 -111h-57z" />
    <glyph glyph-name="racute" unicode="&#x155;" horiz-adv-x="381" 
d="M28 406v73h126q20 -57 20 -117v-32q13 77 50.5 116.5t80.5 39.5q32 0 46 -19v-63q-90 0 -133.5 -44t-43.5 -155v-142h88v-63h-234v63h62v343h-62zM169 539l57 134h119l-119 -134h-57z" />
    <glyph glyph-name="Rcommaaccent" unicode="&#x156;" horiz-adv-x="584" 
d="M444 0l-256 299v-236h83v-63h-236v63h66v509h-66v67h282q101 0 153.5 -49.5t52.5 -135.5q0 -85 -53 -128.5t-147 -43.5h-19l188 -219h67v-63h-115zM188 339h115q73 0 102.5 28t29.5 89q0 55 -29 82t-99 27h-119v-226zM301 -179h-54q21 46 21 86q0 20 -4 44h83
q3 -13 3 -24q0 -69 -49 -106z" />
    <glyph glyph-name="rcommaaccent" unicode="&#x157;" horiz-adv-x="381" 
d="M28 406v73h126q20 -57 20 -117v-32q13 77 50.5 116.5t80.5 39.5q32 0 46 -19v-63q-90 0 -133.5 -44t-43.5 -155v-142h88v-63h-234v63h62v343h-62zM126 -179h-54q21 46 21 86q0 20 -4 44h83q3 -13 3 -24q0 -69 -49 -106z" />
    <glyph glyph-name="Rcaron" unicode="&#x158;" horiz-adv-x="584" 
d="M444 0l-256 299v-236h83v-63h-236v63h66v509h-66v67h282q101 0 153.5 -49.5t52.5 -135.5q0 -85 -53 -128.5t-147 -43.5h-19l188 -219h67v-63h-115zM188 339h115q73 0 102.5 28t29.5 89q0 55 -29 82t-99 27h-119v-226zM153 796h62l75 -53l75 53h62l-84 -111h-106z" />
    <glyph glyph-name="rcaron" unicode="&#x159;" horiz-adv-x="381" 
d="M28 406v73h126q20 -57 20 -117v-32q13 77 50.5 116.5t80.5 39.5q32 0 46 -19v-63q-90 0 -133.5 -44t-43.5 -155v-142h88v-63h-234v63h62v343h-62zM66 673h61l79 -77l79 77h61l-88 -134h-104z" />
    <glyph glyph-name="Sacute" unicode="&#x15a;" horiz-adv-x="528" 
d="M370 473v89q-53 16 -92 16q-62 0 -100 -23t-38 -86q0 -55 40 -78q31 -18 119.5 -34t121.5 -40q61 -45 61 -139q0 -96 -62.5 -144.5t-156.5 -48.5q-140 0 -213 63v132h74v-97q61 -27 132 -27q65 0 104 28t39 90q0 52 -28 74q-22 17 -113 36t-119 34q-81 44 -81 150
q0 91 61 138t151 47q117 0 174 -50v-130h-74zM226 685l45 111h121l-109 -111h-57z" />
    <glyph glyph-name="sacute" unicode="&#x15b;" horiz-adv-x="418" 
d="M282 358v66q-33 7 -59 7q-105 0 -105 -75q0 -42 32 -57q24 -11 87 -21.5t90 -29.5q56 -37 56 -113q0 -70 -50 -108t-129 -38q-103 0 -172 50v96h75v-74q37 -13 87 -13q110 0 110 83q0 39 -25 55q-18 11 -81.5 23t-87.5 24q-35 17 -51.5 43.5t-16.5 72.5q0 70 47.5 106
t126.5 36q91 0 141 -36v-97h-75zM167 539l57 134h119l-119 -134h-57z" />
    <glyph glyph-name="Scircumflex" unicode="&#x15c;" horiz-adv-x="528" 
d="M370 473v89q-53 16 -92 16q-62 0 -100 -23t-38 -86q0 -55 40 -78q31 -18 119.5 -34t121.5 -40q61 -45 61 -139q0 -96 -62.5 -144.5t-156.5 -48.5q-140 0 -213 63v132h74v-97q61 -27 132 -27q65 0 104 28t39 90q0 52 -28 74q-22 17 -113 36t-119 34q-81 44 -81 150
q0 91 61 138t151 47q117 0 174 -50v-130h-74zM400 685h-62l-75 53l-75 -53h-62l84 111h106z" />
    <glyph glyph-name="scircumflex" unicode="&#x15d;" horiz-adv-x="418" 
d="M282 358v66q-33 7 -59 7q-105 0 -105 -75q0 -42 32 -57q24 -11 87 -21.5t90 -29.5q56 -37 56 -113q0 -70 -50 -108t-129 -38q-103 0 -172 50v96h75v-74q37 -13 87 -13q110 0 110 83q0 39 -25 55q-18 11 -81.5 23t-87.5 24q-35 17 -51.5 43.5t-16.5 72.5q0 70 47.5 106
t126.5 36q91 0 141 -36v-97h-75zM69 539l88 134h104l88 -134h-61l-79 77l-79 -77h-61z" />
    <glyph glyph-name="Scedilla" unicode="&#x15e;" horiz-adv-x="528" 
d="M263 -15h-2v-24q83 -8 83 -76q0 -34 -25 -53t-69 -19q-49 0 -69 20v40q25 -10 49 -10q44 0 44 27q0 33 -67 34v64q-101 12 -157 60v132h74v-97q61 -27 132 -27q65 0 104 28t39 90q0 52 -28 74q-22 17 -113 36t-119 34q-81 44 -81 150q0 91 61 138t151 47q117 0 174 -50
v-130h-74v89q-53 16 -92 16q-62 0 -100 -23t-38 -86q0 -55 40 -78q31 -18 119.5 -34t121.5 -40q61 -45 61 -139q0 -96 -62.5 -144.5t-156.5 -48.5z" />
    <glyph glyph-name="scedilla" unicode="&#x15f;" horiz-adv-x="418" 
d="M282 358v66q-33 7 -59 7q-105 0 -105 -75q0 -42 32 -57q24 -11 87 -21.5t90 -29.5q56 -37 56 -113q0 -69 -49 -107t-127 -39v-28q83 -8 83 -76q0 -34 -25 -53t-69 -19q-49 0 -69 20v40q25 -10 49 -10q44 0 44 27q0 33 -67 34v68q-68 9 -121 47v96h75v-74q37 -13 87 -13
q110 0 110 83q0 39 -25 55q-18 11 -81.5 23t-87.5 24q-35 17 -51.5 43.5t-16.5 72.5q0 70 47.5 106t126.5 36q91 0 141 -36v-97h-75z" />
    <glyph glyph-name="Scaron" unicode="&#x160;" horiz-adv-x="528" 
d="M370 473v89q-53 16 -92 16q-62 0 -100 -23t-38 -86q0 -55 40 -78q31 -18 119.5 -34t121.5 -40q61 -45 61 -139q0 -96 -62.5 -144.5t-156.5 -48.5q-140 0 -213 63v132h74v-97q61 -27 132 -27q65 0 104 28t39 90q0 52 -28 74q-22 17 -113 36t-119 34q-81 44 -81 150
q0 91 61 138t151 47q117 0 174 -50v-130h-74zM126 796h62l75 -53l75 53h62l-84 -111h-106z" />
    <glyph glyph-name="scaron" unicode="&#x161;" horiz-adv-x="418" 
d="M282 358v66q-33 7 -59 7q-105 0 -105 -75q0 -42 32 -57q24 -11 87 -21.5t90 -29.5q56 -37 56 -113q0 -70 -50 -108t-129 -38q-103 0 -172 50v96h75v-74q37 -13 87 -13q110 0 110 83q0 39 -25 55q-18 11 -81.5 23t-87.5 24q-35 17 -51.5 43.5t-16.5 72.5q0 70 47.5 106
t126.5 36q91 0 141 -36v-97h-75zM69 673h61l79 -77l79 77h61l-88 -134h-104z" />
    <glyph glyph-name="Tcommaaccent" unicode="&#x162;" horiz-adv-x="611" 
d="M494 443v122h-145v-502h83v-63h-253v63h83v502h-145v-122h-79v196h535v-196h-79zM299 -179h-54q21 46 21 86q0 20 -4 44h83q3 -13 3 -24q0 -69 -49 -106z" />
    <glyph glyph-name="tcommaaccent" unicode="&#x163;" horiz-adv-x="378" 
d="M246 -13q-40 0 -70.5 11.5t-53 45.5t-22.5 89v279h-72v50q30 1 47.5 8.5t27.5 25.5t14.5 41.5t10.5 64.5q1 11 2 17h54v-140h154v-67h-154v-273q0 -48 19.5 -67t58.5 -19q42 0 84 16v-42q-25 -40 -100 -40zM215 -179h-54q21 46 21 86q0 20 -4 44h83q3 -13 3 -24
q0 -69 -49 -106z" />
    <glyph glyph-name="Tcaron" unicode="&#x164;" horiz-adv-x="611" 
d="M494 443v122h-145v-502h83v-63h-253v63h83v502h-145v-122h-79v196h535v-196h-79zM168 796h62l75 -53l75 53h62l-84 -111h-106z" />
    <glyph glyph-name="tcaron" unicode="&#x165;" horiz-adv-x="378" 
d="M246 541l6 132h83l-35 -132h-54zM246 -13q-40 0 -70.5 11.5t-53 45.5t-22.5 89v279h-72v50q30 1 47.5 8.5t27.5 25.5t14.5 41.5t10.5 64.5q1 11 2 17h54v-140h154v-67h-154v-273q0 -48 19.5 -67t58.5 -19q42 0 84 16v-42q-25 -40 -100 -40z" />
    <glyph glyph-name="Tbar" unicode="&#x166;" horiz-adv-x="611" 
d="M494 443v122h-145v-197h149v-63h-149v-242h83v-63h-253v63h83v242h-149v63h149v197h-145v-122h-79v196h535v-196h-79z" />
    <glyph glyph-name="tbar" unicode="&#x167;" horiz-adv-x="378" 
d="M246 -13q-40 0 -70.5 11.5t-53 45.5t-22.5 89v125h-72v59h72v95h-72v50q30 1 47.5 8.5t27.5 25.5t14.5 41.5t10.5 64.5q1 11 2 17h54v-140h154v-67h-154v-95h154v-59h-154v-119q0 -48 19.5 -67t58.5 -19q42 0 84 16v-42q-25 -40 -100 -40z" />
    <glyph glyph-name="Utilde" unicode="&#x168;" horiz-adv-x="690" 
d="M428 572v67h230v-67h-60v-328q0 -140 -66 -199.5t-187 -59.5q-253 0 -253 260v327h-60v67h230v-67h-83v-346q0 -92 41 -132t125 -40t125 39.5t41 131.5v347h-83zM214 686q-8 45 9 77.5t60 32.5q32 0 72 -17t53 -17q15 0 19 8t6 30h43q8 -45 -7.5 -77.5t-56.5 -32.5
q-25 0 -67.5 17t-61.5 17q-14 0 -19 -8t-7 -30h-43z" />
    <glyph glyph-name="utilde" unicode="&#x169;" horiz-adv-x="583" 
d="M333 406v73h160v-416h62v-63h-126q-20 57 -20 117v6q-12 -63 -57.5 -99t-104.5 -36q-77 0 -119.5 45.5t-42.5 139.5v233h-57v73h141v-319q0 -55 23.5 -80.5t72.5 -25.5q63 0 103.5 43.5t40.5 114.5v194h-76zM155 559q-8 46 8 78t59 32q30 0 66 -17t47 -17q15 0 19 8t6 30
h43q8 -46 -6.5 -78t-55.5 -32q-23 0 -61.5 17t-55.5 17q-14 0 -19 -8t-7 -30h-43z" />
    <glyph glyph-name="Umacron" unicode="&#x16a;" horiz-adv-x="690" 
d="M428 572v67h230v-67h-60v-328q0 -140 -66 -199.5t-187 -59.5q-253 0 -253 260v327h-60v67h230v-67h-83v-346q0 -92 41 -132t125 -40t125 39.5t41 131.5v347h-83zM227 699v66h236v-66h-236z" />
    <glyph glyph-name="umacron" unicode="&#x16b;" horiz-adv-x="583" 
d="M429 0q-20 57 -20 117v6q-12 -63 -57.5 -99t-104.5 -36q-77 0 -119.5 45.5t-42.5 139.5v233h-57v73h141v-319q0 -55 23.5 -80.5t72.5 -25.5q63 0 103.5 43.5t40.5 114.5v194h-76v73h160v-416h62v-63h-126zM162 562v66h236v-66h-236z" />
    <glyph glyph-name="Ubreve" unicode="&#x16c;" horiz-adv-x="690" 
d="M428 572v67h230v-67h-60v-328q0 -140 -66 -199.5t-187 -59.5q-253 0 -253 260v327h-60v67h230v-67h-83v-346q0 -92 41 -132t125 -40t125 39.5t41 131.5v347h-83zM404 790h50q2 -47 -24 -81.5t-85 -34.5t-85 34t-24 82h50q2 -51 59 -51t59 51z" />
    <glyph glyph-name="ubreve" unicode="&#x16d;" horiz-adv-x="583" 
d="M333 406v73h160v-416h62v-63h-126q-20 57 -20 117v6q-12 -63 -57.5 -99t-104.5 -36q-77 0 -119.5 45.5t-42.5 139.5v233h-57v73h141v-319q0 -55 23.5 -80.5t72.5 -25.5q63 0 103.5 43.5t40.5 114.5v194h-76zM342 673h54q4 -53 -26 -94.5t-91 -41.5q-60 0 -90 41t-26 95
h54q-1 -31 14.5 -51t47.5 -20q34 0 49 20t14 51z" />
    <glyph glyph-name="Uring" unicode="&#x16e;" horiz-adv-x="690" 
d="M428 572v67h230v-67h-60v-328q0 -140 -66 -199.5t-187 -59.5q-253 0 -253 260v327h-60v67h230v-67h-83v-346q0 -92 41 -132t125 -40t125 39.5t41 131.5v347h-83zM345 664q-39 0 -65 26t-26 64t26 64.5t65 26.5t65.5 -26.5t26.5 -64.5t-26.5 -64t-65.5 -26zM345 705
q20 0 33 13.5t13 35.5t-13 36t-33 14q-19 0 -32 -14t-13 -36t13 -35.5t32 -13.5z" />
    <glyph glyph-name="uring" unicode="&#x16f;" horiz-adv-x="583" 
d="M333 406v73h160v-416h62v-63h-126q-20 57 -20 117v6q-12 -63 -57.5 -99t-104.5 -36q-77 0 -119.5 45.5t-42.5 139.5v233h-57v73h141v-319q0 -55 23.5 -80.5t72.5 -25.5q63 0 103.5 43.5t40.5 114.5v194h-76zM280 544q-39 0 -65 26t-26 64t26 64.5t65 26.5t65.5 -26.5
t26.5 -64.5t-26.5 -64t-65.5 -26zM280 585q20 0 33 13.5t13 35.5t-13 36t-33 14q-19 0 -32 -14t-13 -36t13 -35.5t32 -13.5z" />
    <glyph glyph-name="Uhungarumlaut" unicode="&#x170;" horiz-adv-x="690" 
d="M428 572v67h230v-67h-60v-328q0 -140 -66 -199.5t-187 -59.5q-253 0 -253 260v327h-60v67h230v-67h-83v-346q0 -92 41 -132t125 -40t125 39.5t41 131.5v347h-83zM378 685l39 111h98l-72 -111h-65zM239 685l39 111h98l-72 -111h-65z" />
    <glyph glyph-name="uhungarumlaut" unicode="&#x171;" horiz-adv-x="583" 
d="M333 406v73h160v-416h62v-63h-126q-20 57 -20 117v6q-12 -63 -57.5 -99t-104.5 -36q-77 0 -119.5 45.5t-42.5 139.5v233h-57v73h141v-319q0 -55 23.5 -80.5t72.5 -25.5q63 0 103.5 43.5t40.5 114.5v194h-76zM171 539l45 134h98l-80 -134h-63zM316 539l45 134h98l-80 -134
h-63z" />
    <glyph glyph-name="Uogonek" unicode="&#x172;" horiz-adv-x="690" 
d="M32 572v67h230v-67h-83v-346q0 -92 41 -132t125 -40t125 39.5t41 131.5v347h-83v67h230v-67h-60v-328q0 -101 -33 -155t-91 -81q-82 -38 -82 -80q0 -25 30 -25q16 0 30 7v-47q-14 -18 -53 -18q-40 0 -61.5 18.5t-21.5 48.5q0 24 15 44.5t37 29.5q-10 -1 -23 -1
q-253 0 -253 260v327h-60z" />
    <glyph glyph-name="uogonek" unicode="&#x173;" horiz-adv-x="583" 
d="M555 0h-77q-64 -32 -64 -71q0 -29 34 -29q16 0 34 8v-45q-14 -18 -51 -18q-41 0 -62 18.5t-21 51.5q0 30 22 55.5t55 39.5q-16 54 -16 107v6q-12 -63 -57.5 -99t-104.5 -36q-77 0 -119.5 45.5t-42.5 139.5v233h-57v73h141v-319q0 -55 23.5 -80.5t72.5 -25.5
q63 0 103.5 43.5t40.5 114.5v194h-76v73h160v-416h62v-63z" />
    <glyph glyph-name="Wcircumflex" unicode="&#x174;" horiz-adv-x="910" 
d="M587 0l-131 536l-131 -536h-131l-123 572h-46v67h217v-67h-82l104 -520l144 587h102l142 -587l106 520h-85v67h212v-67h-46l-122 -572h-130zM592 685h-62l-75 53l-75 -53h-62l84 111h106z" />
    <glyph glyph-name="wcircumflex" unicode="&#x175;" horiz-adv-x="765" 
d="M478 0l-95 370l-92 -370h-116l-109 406h-46v73h214v-73h-84l87 -349l106 422h83l112 -422l82 349h-88v73h213v-73h-45l-105 -406h-117zM243 539l88 134h104l88 -134h-61l-79 77l-79 -77h-61z" />
    <glyph glyph-name="Ycircumflex" unicode="&#x176;" horiz-adv-x="596" 
d="M25 572v67h217v-67h-75l134 -256l137 256h-79v67h212v-67h-49l-180 -325v-184h83v-63h-253v63h83v183l-181 326h-49zM438 685h-62l-75 53l-75 -53h-62l84 111h106z" />
    <glyph glyph-name="ycircumflex" unicode="&#x177;" horiz-adv-x="554" 
d="M325 406v73h209v-73h-53l-151 -412q-30 -83 -65 -116.5t-96 -33.5q-70 0 -100 34v46q44 -14 87 -14q74 0 98 64l10 26h-38l-154 406h-52v73h214v-73h-74l124 -348l119 348h-78zM139 539l88 134h104l88 -134h-61l-79 77l-79 -77h-61z" />
    <glyph glyph-name="Ydieresis" unicode="&#x178;" horiz-adv-x="596" 
d="M25 572v67h217v-67h-75l134 -256l137 256h-79v67h212v-67h-49l-180 -325v-184h83v-63h-253v63h83v183l-181 326h-49zM393 671q-21 0 -36.5 15t-15.5 37q0 21 15.5 36.5t36.5 15.5q22 0 37.5 -15.5t15.5 -36.5q0 -22 -15.5 -37t-37.5 -15zM210 671q-22 0 -37.5 15
t-15.5 37q0 21 15.5 36.5t37.5 15.5q21 0 36.5 -15.5t15.5 -36.5q0 -22 -15.5 -37t-36.5 -15z" />
    <glyph glyph-name="Zacute" unicode="&#x179;" horiz-adv-x="556" 
d="M65 473v166h450v-98l-393 -471h315v96h74v-166h-470v98l388 466h-290v-91h-74zM252 685l45 111h121l-109 -111h-57z" />
    <glyph glyph-name="zacute" unicode="&#x17a;" horiz-adv-x="464" 
d="M43 338v141h383v-82l-313 -333h245v91h72v-155h-400v82l312 332h-227v-76h-72zM204 539l57 134h119l-119 -134h-57z" />
    <glyph glyph-name="Zdotaccent" unicode="&#x17b;" horiz-adv-x="556" 
d="M65 473v166h450v-98l-393 -471h315v96h74v-166h-470v98l388 466h-290v-91h-74zM289 682q-23 0 -39 16t-16 38t16 38.5t39 16.5t39 -16.5t16 -38.5t-16 -38t-39 -16z" />
    <glyph glyph-name="zdotaccent" unicode="&#x17c;" horiz-adv-x="464" 
d="M43 338v141h383v-82l-313 -333h245v91h72v-155h-400v82l312 332h-227v-76h-72zM241 551q-23 0 -39 16t-16 38q0 23 16 39t39 16t39 -16t16 -39q0 -22 -16 -38t-39 -16z" />
    <glyph glyph-name="Zcaron" unicode="&#x17d;" horiz-adv-x="556" 
d="M65 473v166h450v-98l-393 -471h315v96h74v-166h-470v98l388 466h-290v-91h-74zM152 796h62l75 -53l75 53h62l-84 -111h-106z" />
    <glyph glyph-name="zcaron" unicode="&#x17e;" horiz-adv-x="464" 
d="M43 338v141h383v-82l-313 -333h245v91h72v-155h-400v82l312 332h-227v-76h-72zM101 673h61l79 -77l79 77h61l-88 -134h-104z" />
    <glyph glyph-name="florin" unicode="&#x192;" horiz-adv-x="390" 
d="M25 401h89l13 113q10 85 51 125.5t100 40.5t87 -28v-45q-24 2 -53 2q-51 0 -71.5 -18.5t-25.5 -66.5l-14 -123h129v-66h-137l-55 -481h-87l55 481h-81v66z" />
    <glyph glyph-name="Aringacute" unicode="&#x1fa;" horiz-adv-x="651" 
d="M409 0v63h80l-39 126h-255l-40 -126h82v-63h-212v63h48l186 576h134l185 -576h48v-63h-217zM323 598l-105 -336h209zM324 657q-39 0 -65 26t-26 64t26 64.5t65 26.5t65.5 -26.5t26.5 -64.5t-26.5 -64t-65.5 -26zM287 857l45 111h121l-109 -111h-57zM324 698q20 0 33 13.5
t13 35.5t-13 36t-33 14q-19 0 -32 -14t-13 -36t13 -35.5t32 -13.5z" />
    <glyph glyph-name="aringacute" unicode="&#x1fb;" horiz-adv-x="498" 
d="M65 338v96q57 57 165 57q177 0 179 -178v-209q0 -26 9 -37.5t35 -11.5q13 0 21 1v-49q-21 -11 -54 -11q-89 0 -95 98q-28 -107 -151 -107q-64 0 -103 34t-39 93v1q0 30 12 53.5t26.5 37t46 25.5t51 17.5t60.5 14.5q57 13 77 29.5t20 49.5v2q0 38 -27 62t-80 24
q-38 0 -77 -14v-78h-76zM204 45q48 0 84.5 38t36.5 103v71q-24 -21 -90 -44q-74 -26 -95.5 -40t-21.5 -48v-5q0 -75 86 -75zM238 527q-39 0 -65 26t-26 64t26 64.5t65 26.5t65.5 -26.5t26.5 -64.5t-26.5 -64t-65.5 -26zM201 740l45 111h121l-109 -111h-57zM238 568
q20 0 33 13.5t13 35.5t-13 36t-33 14q-19 0 -32 -14t-13 -36t13 -35.5t32 -13.5z" />
    <glyph glyph-name="AEacute" unicode="&#x1fc;" horiz-adv-x="866" 
d="M739 473v91h-229v-211h233v-71h-233v-211h239v95h74v-166h-466v63h66v126h-218l-55 -126h83v-63h-208v63h45l221 509h-73v67h595v-166h-74zM367 564l-131 -302h187v302h-56zM509 685l45 111h121l-109 -111h-57z" />
    <glyph glyph-name="aeacute" unicode="&#x1fd;" horiz-adv-x="779" 
d="M183 -13q-70 0 -110.5 34t-40.5 93v1q0 30 12 53.5t26.5 37t46 25.5t51 17.5t60.5 14.5q57 13 77 29.5t20 49.5v2q0 38 -27 62t-80 24q-38 0 -77 -14v-78h-76v96q57 57 165 57q118 0 150 -87q56 87 168 87q100 0 148.5 -58t48.5 -144q0 -37 -7 -69h-328q2 -89 43.5 -127
t124.5 -38q97 0 154 39v-54q-16 -21 -60 -36t-104 -15q-81 0 -138.5 35t-84.5 101q-22 -138 -162 -138zM548 430q-61 0 -99 -42t-39 -115h259v10q0 73 -33 110t-88 37zM204 45q48 0 84.5 38t36.5 103v71q-24 -21 -90 -44q-74 -26 -95.5 -40t-21.5 -48v-5q0 -75 86 -75z
M361 539l57 134h119l-119 -134h-57z" />
    <glyph glyph-name="Oslashacute" unicode="&#x1fe;" horiz-adv-x="672" 
d="M336 -15q-108 0 -181 57l-47 -61h-80l82 106q-68 87 -68 234v2q0 152 77 241t217 89q104 0 175 -51l42 54h80l-76 -98q73 -87 73 -235v-2q0 -163 -80.5 -249.5t-213.5 -86.5zM336 56q206 0 206 246v52q0 94 -31 145l-315 -405q48 -38 140 -38zM130 302q0 -101 26 -156
l311 399q-49 33 -131 33q-103 0 -154.5 -60.5t-51.5 -163.5v-52zM299 685l45 111h121l-109 -111h-57z" />
    <glyph glyph-name="oslashacute" unicode="&#x1ff;" horiz-adv-x="534" 
d="M267 -11q-77 0 -135 38l-36 -46h-66l62 80q-60 68 -60 184v1q0 111 64.5 178t170.5 67q78 0 133 -37l36 46h66l-62 -79q62 -65 62 -174v-1q0 -125 -66.5 -191t-168.5 -66zM267 49q68 0 108.5 44.5t40.5 138.5v38q0 57 -20 94l-225 -287q35 -28 96 -28zM118 232
q0 -70 20 -113l223 285q-38 26 -94 26q-68 0 -108.5 -43t-40.5 -117v-38zM230 539l57 134h119l-119 -134h-57z" />
    <glyph glyph-name="Scommaaccent" unicode="&#x218;" horiz-adv-x="528" 
d="M370 473v89q-53 16 -92 16q-62 0 -100 -23t-38 -86q0 -55 40 -78q31 -18 119.5 -34t121.5 -40q61 -45 61 -139q0 -96 -62.5 -144.5t-156.5 -48.5q-140 0 -213 63v132h74v-97q61 -27 132 -27q65 0 104 28t39 90q0 52 -28 74q-22 17 -113 36t-119 34q-81 44 -81 150
q0 91 61 138t151 47q117 0 174 -50v-130h-74zM257 -179h-54q21 46 21 86q0 20 -4 44h83q3 -13 3 -24q0 -69 -49 -106z" />
    <glyph glyph-name="scommaaccent" unicode="&#x219;" horiz-adv-x="418" 
d="M282 358v66q-33 7 -59 7q-105 0 -105 -75q0 -42 32 -57q24 -11 87 -21.5t90 -29.5q56 -37 56 -113q0 -70 -50 -108t-129 -38q-103 0 -172 50v96h75v-74q37 -13 87 -13q110 0 110 83q0 39 -25 55q-18 11 -81.5 23t-87.5 24q-35 17 -51.5 43.5t-16.5 72.5q0 70 47.5 106
t126.5 36q91 0 141 -36v-97h-75zM203 -179h-54q21 46 21 86q0 20 -4 44h83q3 -13 3 -24q0 -69 -49 -106z" />
    <glyph glyph-name="uni021A" unicode="&#x21a;" horiz-adv-x="611" 
d="M494 443v122h-145v-502h83v-63h-253v63h83v502h-145v-122h-79v196h535v-196h-79zM299 -179h-54q21 46 21 86q0 20 -4 44h83q3 -13 3 -24q0 -69 -49 -106z" />
    <glyph glyph-name="uni021B" unicode="&#x21b;" horiz-adv-x="378" 
d="M246 -13q-40 0 -70.5 11.5t-53 45.5t-22.5 89v279h-72v50q30 1 47.5 8.5t27.5 25.5t14.5 41.5t10.5 64.5q1 11 2 17h54v-140h154v-67h-154v-273q0 -48 19.5 -67t58.5 -19q42 0 84 16v-42q-25 -40 -100 -40zM215 -179h-54q21 46 21 86q0 20 -4 44h83q3 -13 3 -24
q0 -69 -49 -106z" />
    <glyph glyph-name="uni0237" unicode="&#x237;" horiz-adv-x="252" 
d="M28 406v73h150v-512q0 -63 -31 -91.5t-80 -28.5q-55 0 -80 23v43q12 -1 44 -1q37 0 50 9t13 41v444h-66z" />
    <glyph glyph-name="circumflex" unicode="&#x2c6;" horiz-adv-x="400" 
d="M60 539l88 134h104l88 -134h-61l-79 77l-79 -77h-61z" />
    <glyph glyph-name="caron" unicode="&#x2c7;" horiz-adv-x="400" 
d="M60 673h61l79 -77l79 77h61l-88 -134h-104z" />
    <glyph glyph-name="breve" unicode="&#x2d8;" horiz-adv-x="400" 
d="M262 673h54q4 -53 -26 -94.5t-91 -41.5q-60 0 -90 41t-26 95h54q-1 -31 14.5 -51t47.5 -20q34 0 49 20t14 51z" />
    <glyph glyph-name="dotaccent" unicode="&#x2d9;" horiz-adv-x="400" 
d="M200 551q-23 0 -39 16t-16 38q0 23 16.5 39t38.5 16t38.5 -16t16.5 -39q0 -22 -16 -38t-39 -16z" />
    <glyph glyph-name="ring" unicode="&#x2da;" horiz-adv-x="400" 
d="M200 585q20 0 33 13.5t13 35.5t-13 36t-33 14q-19 0 -32 -14t-13 -36t13 -35.5t32 -13.5zM200 544q-39 0 -65 26t-26 64t26 64.5t65 26.5t65.5 -26.5t26.5 -64.5t-26.5 -64t-65.5 -26z" />
    <glyph glyph-name="ogonek" unicode="&#x2db;" horiz-adv-x="400" 
d="M214 -155q-41 0 -62 18.5t-21 51.5q0 31 24 53.5t59 31.5h47q-64 -32 -64 -71q0 -29 34 -29q16 0 34 8v-45q-14 -18 -51 -18z" />
    <glyph glyph-name="tilde" unicode="&#x2dc;" horiz-adv-x="400" 
d="M75 559q-8 46 8 78t59 32q30 0 66 -17t47 -17q15 0 19 8t6 30h43q8 -46 -6.5 -78t-55.5 -32q-23 0 -61.5 17t-55.5 17q-14 0 -19 -8t-7 -30h-43z" />
    <glyph glyph-name="hungarumlaut" unicode="&#x2dd;" horiz-adv-x="400" 
d="M91 539l45 134h98l-80 -134h-63zM236 539l45 134h98l-80 -134h-63z" />
    <glyph glyph-name="Wgrave" unicode="&#x1e80;" horiz-adv-x="910" 
d="M587 0l-131 536l-131 -536h-131l-123 572h-46v67h217v-67h-82l104 -520l144 587h102l142 -587l106 520h-85v67h212v-67h-46l-122 -572h-130zM435 685l-109 111h121l45 -111h-57z" />
    <glyph glyph-name="wgrave" unicode="&#x1e81;" horiz-adv-x="765" 
d="M478 0l-95 370l-92 -370h-116l-109 406h-46v73h214v-73h-84l87 -349l106 422h83l112 -422l82 349h-88v73h213v-73h-45l-105 -406h-117zM363 539l-119 134h119l57 -134h-57z" />
    <glyph glyph-name="Wacute" unicode="&#x1e82;" horiz-adv-x="910" 
d="M587 0l-131 536l-131 -536h-131l-123 572h-46v67h217v-67h-82l104 -520l144 587h102l142 -587l106 520h-85v67h212v-67h-46l-122 -572h-130zM418 685l45 111h121l-109 -111h-57z" />
    <glyph glyph-name="wacute" unicode="&#x1e83;" horiz-adv-x="765" 
d="M478 0l-95 370l-92 -370h-116l-109 406h-46v73h214v-73h-84l87 -349l106 422h83l112 -422l82 349h-88v73h213v-73h-45l-105 -406h-117zM346 539l57 134h119l-119 -134h-57z" />
    <glyph glyph-name="Wdieresis" unicode="&#x1e84;" horiz-adv-x="910" 
d="M587 0l-131 536l-131 -536h-131l-123 572h-46v67h217v-67h-82l104 -520l144 587h102l142 -587l106 520h-85v67h212v-67h-46l-122 -572h-130zM364 671q-22 0 -37.5 15t-15.5 37q0 21 15.5 36.5t37.5 15.5q21 0 36.5 -15.5t15.5 -36.5q0 -22 -15.5 -37t-36.5 -15zM547 671
q-21 0 -36.5 15t-15.5 37q0 21 15.5 36.5t36.5 15.5q22 0 37.5 -15.5t15.5 -36.5q0 -22 -15.5 -37t-37.5 -15z" />
    <glyph glyph-name="wdieresis" unicode="&#x1e85;" horiz-adv-x="765" 
d="M478 0l-95 370l-92 -370h-116l-109 406h-46v73h214v-73h-84l87 -349l106 422h83l112 -422l82 349h-88v73h213v-73h-45l-105 -406h-117zM297 551q-22 0 -37.5 15t-15.5 37q0 21 15.5 36.5t37.5 15.5q21 0 36.5 -15.5t15.5 -36.5q0 -22 -15.5 -37t-36.5 -15zM469 551
q-21 0 -36.5 15t-15.5 37q0 21 15.5 36.5t36.5 15.5q22 0 37.5 -15.5t15.5 -36.5q0 -22 -15.5 -37t-37.5 -15z" />
    <glyph glyph-name="Ygrave" unicode="&#x1ef2;" horiz-adv-x="596" 
d="M25 572v67h217v-67h-75l134 -256l137 256h-79v67h212v-67h-49l-180 -325v-184h83v-63h-253v63h83v183l-181 326h-49zM281 685l-109 111h121l45 -111h-57z" />
    <glyph glyph-name="ygrave" unicode="&#x1ef3;" horiz-adv-x="554" 
d="M325 406v73h209v-73h-53l-151 -412q-30 -83 -65 -116.5t-96 -33.5q-70 0 -100 34v46q44 -14 87 -14q74 0 98 64l10 26h-38l-154 406h-52v73h214v-73h-74l124 -348l119 348h-78zM264 539l-119 134h119l57 -134h-57z" />
    <glyph glyph-name="uni2009" unicode="&#x2009;" horiz-adv-x="70" 
 />
    <glyph glyph-name="endash" unicode="&#x2013;" horiz-adv-x="573" 
d="M55 239v60h463v-60h-463z" />
    <glyph glyph-name="emdash" unicode="&#x2014;" horiz-adv-x="943" 
d="M55 239v60h833v-60h-833z" />
    <glyph glyph-name="quoteleft" unicode="&#x2018;" horiz-adv-x="190" 
d="M50 441q-3 19 -3 37q0 88 62 161h51q-25 -71 -25 -142q0 -31 6 -56h-91z" />
    <glyph glyph-name="quoteright" unicode="&#x2019;" horiz-adv-x="190" 
d="M30 441q25 71 25 142q0 31 -6 56h91q3 -19 3 -37q0 -88 -62 -161h-51z" />
    <glyph glyph-name="quotesinglbase" unicode="&#x201a;" horiz-adv-x="190" 
d="M81 -95h-51q25 71 25 142q0 31 -6 56h91q3 -19 3 -37q0 -88 -62 -161z" />
    <glyph glyph-name="quotedblleft" unicode="&#x201c;" horiz-adv-x="340" 
d="M50 441q-3 19 -3 37q0 88 62 161h51q-25 -71 -25 -142q0 -31 6 -56h-91zM200 441q-3 20 -3 37q0 88 62 161h51q-25 -71 -25 -142q0 -31 6 -56h-91z" />
    <glyph glyph-name="quotedblright" unicode="&#x201d;" horiz-adv-x="340" 
d="M30 441q25 71 25 142q0 31 -6 56h91q3 -19 3 -37q0 -88 -62 -161h-51zM180 441q25 71 25 142q0 31 -6 56h91q3 -20 3 -37q0 -88 -62 -161h-51z" />
    <glyph glyph-name="quotedblbase" unicode="&#x201e;" horiz-adv-x="340" 
d="M81 -95h-51q25 71 25 142q0 31 -6 56h91q3 -19 3 -37q0 -88 -62 -161zM231 -95h-51q25 71 25 142q0 31 -6 56h91q3 -19 3 -37q0 -88 -62 -161z" />
    <glyph glyph-name="dagger" unicode="&#x2020;" horiz-adv-x="385" 
d="M154 -98v468h-121v69h121v200h77v-200h121v-69h-121v-468h-77z" />
    <glyph glyph-name="daggerdbl" unicode="&#x2021;" horiz-adv-x="385" 
d="M352 370h-121v-199h121v-69h-121v-200h-77v200h-121v69h121v199h-121v69h121v200h77v-200h121v-69z" />
    <glyph glyph-name="bullet" unicode="&#x2022;" horiz-adv-x="324" 
d="M162 168q-47 0 -82.5 34.5t-35.5 81.5q0 48 35.5 83t82.5 35q49 0 83.5 -35t34.5 -83t-34.5 -82t-83.5 -34z" />
    <glyph glyph-name="ellipsis" unicode="&#x2026;" horiz-adv-x="634" 
d="M517 -7q-24 0 -41.5 17t-17.5 41t18 41.5t41 17.5q25 0 42 -17.5t17 -41.5t-17 -41t-42 -17zM317 -7q-24 0 -41.5 17t-17.5 41t18 41.5t41 17.5q25 0 42 -17.5t17 -41.5t-17 -41t-42 -17zM117 -7q-24 0 -41.5 17t-17.5 41t18 41.5t41 17.5q25 0 42 -17.5t17 -41.5
t-17 -41t-42 -17z" />
    <glyph glyph-name="perthousand" unicode="&#x2030;" horiz-adv-x="983" 
d="M811 -13q-59 0 -99.5 41t-40.5 120v8q0 73 39 114.5t101 41.5q63 0 101.5 -41.5t38.5 -114.5v-8q0 -80 -39.5 -120.5t-100.5 -40.5zM811 41q64 0 64 96v34q0 83 -64 83t-64 -83v-34q0 -96 64 -96zM79 0l440 639h68l-440 -639h-68zM491 41q64 0 64 96v34q0 83 -64 83
t-64 -83v-34q0 -96 64 -96zM172 328q-59 0 -99.5 41t-40.5 120v8q0 73 39 114.5t101 41.5q63 0 101.5 -41.5t38.5 -114.5v-8q0 -80 -39.5 -120.5t-100.5 -40.5zM491 -13q-59 0 -99.5 41t-40.5 120v8q0 73 39 114.5t101 41.5q63 0 101.5 -41.5t38.5 -114.5v-8
q0 -80 -39.5 -120.5t-100.5 -40.5zM172 382q64 0 64 96v34q0 83 -64 83t-64 -83v-34q0 -96 64 -96z" />
    <glyph glyph-name="uni2032" unicode="&#x2032;" horiz-adv-x="199" 
d="M105 441h-61l19 198h94z" />
    <glyph glyph-name="uni2033" unicode="&#x2033;" horiz-adv-x="342" 
d="M105 441h-61l19 198h94zM248 441h-61l19 198h94z" />
    <glyph glyph-name="guilsinglleft" unicode="&#x2039;" horiz-adv-x="224" 
d="M115 406h82l-92 -160l92 -161h-82l-89 160z" />
    <glyph glyph-name="guilsinglright" unicode="&#x203a;" horiz-adv-x="224" 
d="M27 85l92 160l-92 161h82l89 -160l-89 -161h-82z" />
    <glyph glyph-name="fraction" unicode="&#x2044;" horiz-adv-x="128" 
d="M338 639l-483 -639h-65l483 639h65z" />
    <glyph glyph-name="Euro" unicode="&#x20ac;" horiz-adv-x="557" 
d="M353 -15q-108 0 -178.5 65.5t-84.5 187.5h-68v59h65v63h-65v59h69q16 107 84 171t168 63q120 -2 165 -53v-127h-74v95q-38 10 -78 10q-79 0 -125 -42.5t-55 -116.5h215v-59h-217v-63h217v-59h-215q17 -180 190 -180q99 0 157 56v-71q-22 -25 -68 -41.5t-102 -16.5z" />
    <glyph glyph-name="trademark" unicode="&#x2122;" horiz-adv-x="586" 
d="M255 600v39h101l47 -159l46 159h107v-39h-23v-145h23v-37h-95v37h21v145h-1l-55 -182h-51l-55 182v-145h22v-37h-87v37h23v145h-23zM191 560v37h-33v-142h29v-37h-109v37h29v142h-33v-37h-42v79h201v-79h-42z" />
    <glyph glyph-name="onethird" unicode="&#x2153;" horiz-adv-x="752" 
d="M587 384q55 0 90 -27t35 -73q0 -37 -22 -60.5t-66 -28.5v-2q101 -9 101 -95q0 -49 -37 -76.5t-101 -27.5q-81 0 -121 44v47q46 -37 113 -37q76 0 76 62q0 59 -79 59h-46v49h45q68 0 68 54t-69 54q-52 0 -95 -29v46q37 41 108 41zM640 639l-483 -639h-65l483 639h65z
M35 263v48h70v268l-78 -87h-1v70l68 77h80v-328h59v-48h-198z" />
    <glyph glyph-name="twothirds" unicode="&#x2154;" horiz-adv-x="776" 
d="M24 263v72q92 59 134.5 103t42.5 87q0 64 -70 64q-51 0 -100 -33v47q42 44 112 44q57 0 91.5 -29t34.5 -91q0 -59 -51 -109.5t-151 -102.5v-1h152v42h56v-93h-251zM611 384q55 0 90 -27t35 -73q0 -37 -22 -60.5t-66 -28.5v-2q101 -9 101 -95q0 -49 -37 -76.5t-101 -27.5
q-81 0 -121 44v47q46 -37 113 -37q76 0 76 62q0 59 -79 59h-46v49h45q68 0 68 54t-69 54q-52 0 -95 -29v46q37 41 108 41zM671 639l-483 -639h-65l483 639h65z" />
    <glyph glyph-name="oneeighth" unicode="&#x215b;" horiz-adv-x="743" 
d="M579 -8q-60 0 -99 29.5t-39 80.5v4q0 72 82 93q-70 22 -70 84v3q0 43 34.5 70t91.5 27q56 0 90.5 -27t34.5 -70v-3q0 -62 -70 -84q39 -10 60.5 -34t21.5 -58v-4q0 -52 -39 -81.5t-98 -29.5zM633 639l-483 -639h-65l483 639h65zM35 263v48h70v268l-78 -87h-1v70l68 77h80
v-328h59v-48h-198zM579 41q68 0 68 64v10q0 30 -18 47t-50 17t-50 -17t-18 -47v-10q0 -64 68 -64zM579 217q60 0 60 56v9q0 23 -16 37.5t-44 14.5q-29 0 -45 -14.5t-16 -37.5v-9q0 -56 61 -56z" />
    <glyph glyph-name="threeeighths" unicode="&#x215c;" horiz-adv-x="758" 
d="M594 -8q-60 0 -99 29.5t-39 80.5v4q0 72 82 93q-70 22 -70 84v3q0 43 34.5 70t91.5 27q56 0 90.5 -27t34.5 -70v-3q0 -62 -70 -84q39 -10 60.5 -34t21.5 -58v-4q0 -52 -39 -81.5t-98 -29.5zM143 647q55 0 90 -27t35 -73q0 -37 -22 -60.5t-66 -28.5v-2q101 -9 101 -95
q0 -49 -37 -76.5t-101 -27.5q-81 0 -121 44v47q46 -37 113 -37q76 0 76 62q0 59 -79 59h-46v49h45q68 0 68 54t-69 54q-52 0 -95 -29v46q37 41 108 41zM650 639l-483 -639h-65l483 639h65zM594 41q68 0 68 64v10q0 30 -18 47t-50 17t-50 -17t-18 -47v-10q0 -64 68 -64z
M594 217q60 0 60 56v9q0 23 -16 37.5t-44 14.5q-29 0 -45 -14.5t-16 -37.5v-9q0 -56 61 -56z" />
    <glyph glyph-name="fiveeighths" unicode="&#x215d;" horiz-adv-x="765" 
d="M601 -8q-60 0 -99 29.5t-39 80.5v4q0 72 82 93q-70 22 -70 84v3q0 43 34.5 70t91.5 27q56 0 90.5 -27t34.5 -70v-3q0 -62 -70 -84q39 -10 60.5 -34t21.5 -58v-4q0 -52 -39 -81.5t-98 -29.5zM139 257q-74 0 -112 38v47q45 -31 101 -31q83 0 83 69t-85 69q-36 0 -82 -17h-4
v207h226v-95h-57v40h-112v-99q26 8 53 8q65 0 98 -31.5t33 -85.5t-38 -86.5t-104 -32.5zM649 639l-483 -639h-65l483 639h65zM601 41q68 0 68 64v10q0 30 -18 47t-50 17t-50 -17t-18 -47v-10q0 -64 68 -64zM601 217q60 0 60 56v9q0 23 -16 37.5t-44 14.5q-29 0 -45 -14.5
t-16 -37.5v-9q0 -56 61 -56z" />
    <glyph glyph-name="seveneighths" unicode="&#x215e;" horiz-adv-x="718" 
d="M554 -8q-60 0 -99 29.5t-39 80.5v4q0 72 82 93q-70 22 -70 84v3q0 43 34.5 70t91.5 27q56 0 90.5 -27t34.5 -70v-3q0 -62 -70 -84q39 -10 60.5 -34t21.5 -58v-4q0 -52 -39 -81.5t-98 -29.5zM598 639l-483 -639h-65l483 639h65zM77 530h-57v109h255v-76l-127 -300h-70
l136 319h-137v-52zM554 41q68 0 68 64v10q0 30 -18 47t-50 17t-50 -17t-18 -47v-10q0 -64 68 -64zM554 217q60 0 60 56v9q0 23 -16 37.5t-44 14.5q-29 0 -45 -14.5t-16 -37.5v-9q0 -56 61 -56z" />
    <glyph glyph-name="minus" unicode="&#x2212;" horiz-adv-x="476" 
d="M49 351h378v-72h-378v72z" />
    <glyph glyph-name="approxequal" unicode="&#x2248;" horiz-adv-x="512" 
d="M51 147q0 52 24.5 86t74.5 34q40 0 116 -16.5t94 -16.5q31 0 34 45h69q0 -53 -22.5 -86.5t-70.5 -33.5q-32 0 -111 16.5t-104 16.5q-32 0 -35 -45h-69zM51 328q0 52 24.5 86t74.5 34q40 0 116 -16.5t94 -16.5q31 0 34 45h69q0 -53 -22.5 -86.5t-70.5 -33.5
q-32 0 -111 16.5t-104 16.5q-32 0 -35 -45h-69z" />
    <glyph glyph-name="notequal" unicode="&#x2260;" horiz-adv-x="512" 
d="M404 543l-49 -102h102v-72h-136l-51 -108h187v-72h-221l-52 -109h-76l52 109h-105v72h139l51 108h-190v72h224l49 102h76z" />
    <glyph glyph-name="lessequal" unicode="&#x2264;" horiz-adv-x="472" 
d="M50 374l372 150v-77l-302 -122l302 -121v-78l-372 150v98zM50 0v72h372v-72h-372z" />
    <glyph glyph-name="greaterequal" unicode="&#x2265;" horiz-adv-x="472" 
d="M422 374v-98l-372 -150v77l301 121l-301 122v78zM422 0h-372v72h372v-72z" />
    <glyph glyph-name="uni24C5" unicode="&#x24c5;" horiz-adv-x="744" 
d="M372 -14q-142 0 -238.5 97t-96.5 234q0 138 97 236t238 98q143 0 239 -97.5t96 -236.5q0 -138 -96 -234.5t-239 -96.5zM372 33q119 0 200.5 83.5t81.5 200.5q0 118 -81.5 202.5t-200.5 84.5q-118 0 -200 -85t-82 -202t82 -200.5t200 -83.5zM236 447v48h166q61 0 92.5 -30
t31.5 -86q0 -115 -131 -115h-57v-73h42v-46h-144v46h34v256h-34zM338 313h50q39 0 55.5 16.5t16.5 48.5q0 63 -65 63h-57v-128z" />
    <glyph glyph-name="f_t" unicode="&#xe22f;" horiz-adv-x="652" 
d="M28 417v62h72v54q0 77 42 112t89 35q61 0 89 -28v-41q-24 2 -53 2q-48 0 -65.5 -16t-17.5 -56v-62h170q16 8 25.5 28.5t13 38.5t11.5 73h54v-140h154v-67h-154v-273q0 -48 18 -67t53 -19q49 0 91 16v-42q-25 -40 -100 -40q-40 0 -70.5 11.5t-53 45.5t-22.5 89v284h-190
v-354h96v-63h-252v63h72v354h-72z" />
    <glyph glyph-name="f_f_t" unicode="&#xe230;" horiz-adv-x="925" 
d="M250 0h-222v63h72v354h-72v62h72v49q0 77 42 112t89 35q58 0 86 -28v-41q-24 2 -50 2q-48 0 -65.5 -16t-17.5 -56v-57h189v54q0 77 42 112t89 35q61 0 89 -28v-41q-24 2 -53 2q-48 0 -65.5 -16t-17.5 -56v-62h170q16 8 25.5 28.5t13 38.5t11.5 73h54v-140h154v-67h-154
v-273q0 -48 18 -67t53 -19q49 0 91 16v-42q-25 -40 -100 -40q-40 0 -70.5 11.5t-53 45.5t-22.5 89v284h-190v-354h96v-63h-247v63h67v354h-189v-354h66v-63z" />
    <glyph glyph-name="zero.tab" unicode="&#xe44f;" 
d="M300 -15q-100 0 -168 75.5t-68 234.5v63q0 145 65.5 220t170.5 75t170 -75t65 -220v-63q0 -159 -67 -234.5t-168 -75.5zM300 56q148 0 148 220v111q0 93 -38.5 142t-109.5 49t-110 -49t-39 -142v-111q0 -220 149 -220z" />
    <glyph glyph-name="one.tab" unicode="&#xe450;" 
d="M136 0v63h147v497l-152 -169h-3v96l132 152h110v-576h126v-63h-360z" />
    <glyph glyph-name="two.tab" unicode="&#xe451;" 
d="M91 0v103q163 108 238.5 190.5t75.5 163.5q0 121 -125 121q-93 0 -176 -61v66q66 70 181 70q93 0 150 -48t57 -150q0 -99 -86.5 -189t-257.5 -194v-1h282v75h74v-146h-413z" />
    <glyph glyph-name="three.tab" unicode="&#xe452;" 
d="M278 653q88 0 146 -47.5t58 -122.5q0 -63 -35.5 -102t-102.5 -48v-3q76 -8 119 -51t43 -115q0 -80 -60 -127t-162 -47q-134 0 -203 73v66q75 -67 198 -67q69 0 104.5 31t35.5 88q0 115 -148 115h-85v69h85q126 0 126 107q0 52 -33 79t-94 27q-93 0 -169 -56v65
q64 66 177 66z" />
    <glyph glyph-name="four.tab" unicode="&#xe453;" 
d="M310 639h130v-390h89v-70h-89v-116h89v-63h-259v63h83v116h-286v96zM353 582l-223 -333h223v333z" />
    <glyph glyph-name="five.tab" unicode="&#xe454;" 
d="M474 489h-74v75h-215v-188q45 15 97 15q112 0 165.5 -56t53.5 -146q0 -88 -63.5 -143.5t-171.5 -55.5q-51 0 -89 10.5t-55 21.5t-37 30v66q38 -28 76 -42t100 -14q71 0 112 34t41 98q0 68 -34.5 99.5t-114.5 31.5q-78 0 -151 -34h-8v348h368v-150z" />
    <glyph glyph-name="six.tab" unicode="&#xe455;" 
d="M484 639v-5q-120 -56 -207.5 -135t-112.5 -174q46 83 158 83q101 0 157.5 -59t56.5 -148v-5q0 -95 -60.5 -153t-166.5 -58q-109 0 -175 66.5t-66 177.5v18q0 63 21 121t51 99t70.5 77.5t73 57.5t64.5 37h136zM307 345q-66 0 -108 -34.5t-44 -89.5v-25q0 -66 41.5 -105
t112.5 -39q69 0 104.5 38.5t35.5 103.5v8q0 62 -34.5 102.5t-107.5 40.5z" />
    <glyph glyph-name="seven.tab" unicode="&#xe456;" 
d="M141 473h-74v166h446v-104l-246 -535h-88l259 565h-297v-92z" />
    <glyph glyph-name="eight.tab" unicode="&#xe457;" 
d="M300 -14q-95 0 -160 51t-65 136v8q0 60 36.5 101.5t100.5 58.5q-53 17 -85 53.5t-32 89.5v5q0 71 57.5 117t147.5 46t147 -45.5t57 -116.5v-6q0 -53 -32 -89.5t-85 -53.5q64 -17 100.5 -58.5t36.5 -100.5v-8q0 -86 -65 -137t-159 -51zM300 55q63 0 99.5 29.5t36.5 90.5
v16q0 55 -36.5 87.5t-99.5 32.5q-64 0 -100.5 -32.5t-36.5 -87.5v-16q0 -61 36.5 -90.5t100.5 -29.5zM300 367q56 0 89 26.5t33 78.5v15q0 42 -33 69.5t-89 27.5q-57 0 -90 -27.5t-33 -69.5v-15q0 -52 33 -78.5t90 -26.5z" />
    <glyph glyph-name="nine.tab" unicode="&#xe458;" 
d="M151 0v5q98 44 177 124.5t106 174.5q-47 -79 -156 -79q-101 0 -157.5 58.5t-56.5 148.5v5q0 98 60.5 157.5t166.5 59.5q111 0 176 -64t65 -180v-18q0 -71 -26 -138.5t-66.5 -117t-78.5 -82.5t-74 -54h-136zM293 288q68 0 110 36t42 93v24q0 66 -41.5 106t-112.5 40
q-69 0 -104.5 -39t-35.5 -105v-8q0 -63 34.5 -105t107.5 -42z" />
    <glyph glyph-name="cent.tab" unicode="&#xe459;" 
d="M330 -107h-59l11 104q-78 20 -123 85.5t-45 159.5v1q0 118 65 181.5t156 66.5l9 83h59l-9 -86q74 -8 104 -45v-93h-69v71q-26 6 -42 8l-40 -375h9q79 0 150 45v-54q-17 -23 -59.5 -39.5t-101.5 -16.5h-5zM200 232q0 -133 89 -167l39 365q-56 -7 -92 -48.5t-36 -113.5v-36
z" />
    <glyph glyph-name="dollar.tab" unicode="&#xe45a;" 
d="M282 -107h-59l9 97q-92 13 -143 63v122h74v-97q31 -14 75 -22l22 237q-55 13 -80 27q-83 45 -83 148q0 88 56.5 135t139.5 50l6 65h59l-7 -68q81 -10 125 -47v-121h-74v85q-38 10 -57 12l-21 -223q89 -18 121 -41q63 -46 63 -137q0 -95 -62 -144t-152 -49h-4zM397 250
q-20 16 -80 30l-21 -228q58 2 93.5 32t35.5 90q0 54 -28 76zM219 389q19 -12 48 -20l19 212q-107 -10 -107 -112q0 -57 40 -80z" />
    <glyph glyph-name="Euro.tab" unicode="&#xe45b;" 
d="M458 473v95q-38 10 -78 10q-79 0 -125 -42.5t-55 -116.5h215v-59h-217v-63h217v-59h-215q17 -180 190 -180q99 0 157 56v-71q-22 -25 -68 -41.5t-102 -16.5q-108 0 -178.5 65.5t-84.5 187.5h-63v59h60v63h-60v59h64q16 107 84 171t168 63q120 -2 165 -53v-127h-74z" />
    <glyph glyph-name="Q.alt" unicode="&#xe490;" horiz-adv-x="672" 
d="M336 -15q-132 0 -213 86.5t-81 249.5v2q0 152 77 241t217 89t217 -89t77 -241v-2q0 -145 -67 -233l30 -25h75v-62l2 -1h-106l-49 40q-73 -55 -179 -55zM336 54q78 0 125 31l-143 118h106l83 -69q36 61 36 168v52q0 103 -52 163.5t-155 60.5t-155 -60.5t-52 -163.5v-52
q0 -248 207 -248z" />
    <glyph glyph-name="a.alt" unicode="&#xe4c0;" horiz-adv-x="494" 
d="M345 0q-19 43 -20 94q-28 -107 -149 -107q-64 0 -104 34.5t-40 95.5v1q0 79 67 115.5t226 61.5v28q0 107 -107 107q-42 0 -80 -15v-77h-76v94q23 23 67 41t101 18q90 0 134.5 -47t44.5 -131v-250h57v-63h-121zM203 45q48 0 85 38t37 103v60q-123 -20 -165 -45t-42 -73v-5
q0 -78 85 -78z" />
    <glyph glyph-name="g.alt" unicode="&#xe4c6;" horiz-adv-x="515" 
d="M255 -154q-225 0 -225 117v1q0 35 31 59t79 30q-35 9 -47.5 27t-12.5 47q0 55 77 74q-101 24 -101 138v1q0 75 55 113t130 38q49 0 86 -12h160v-68h-83q34 -23 34 -83v-1q0 -43 -16.5 -74t-45.5 -47t-60.5 -23t-68.5 -7h-52q-20 0 -35 -9t-15 -23q0 -27 43 -30l118 -5
q96 -4 137 -34t41 -92v-1q0 -54 -34 -85.5t-80.5 -41t-114.5 -9.5zM241 -91q90 0 125.5 16.5t35.5 52.5v1q0 29 -16.5 42t-52.5 15l-129 6q-38 2 -66.5 -17t-28.5 -47v-1q0 -36 30 -52t102 -16zM247 231q17 0 30 1.5t28.5 7.5t26 16t17.5 28.5t7 44.5v18q0 87 -109 87
t-109 -87v-18q0 -32 9.5 -53t27.5 -30t34 -12t38 -3z" />
    <glyph glyph-name="x.alt" unicode="&#xe4d7;" horiz-adv-x="514" 
d="M35 406v73h116l110 -194l110 194h107v-73h-65l-89 -160l108 -183h53v-63h-105l-123 204l-123 -204h-106v63h59l110 179l-97 164h-65z" />
    <glyph glyph-name="y.alt" unicode="&#xe4d8;" horiz-adv-x="554" 
d="M325 406v73h209v-73h-56l-197 -493h71v-59h-218v59h72l49 127h-35l-146 366h-54v73h214v-73h-71l116 -311l121 311h-75z" />
    <glyph glyph-name="a.alt1" unicode="&#xe4e0;" horiz-adv-x="573" 
d="M545 0h-126l-5.5 17t-9 42.5t-5.5 60.5q-17 -63 -59.5 -97.5t-107.5 -34.5q-90 0 -143.5 72t-53.5 192v1q0 111 58 174t140 63q127 0 166 -127q0 27 5 56t10 45l5 15h64v-416h62v-63zM250 50q61 0 105 48t44 130v18q0 89 -42.5 133t-105.5 44q-130 0 -130 -157v-36
q0 -83 34 -131.5t95 -48.5z" />
    <glyph glyph-name="idotaccent" horiz-adv-x="272" 
d="M28 406v73h150v-416h66v-63h-216v63h66v343h-66zM130 551q-23 0 -39 16t-16 38q0 23 16.5 39t38.5 16t38.5 -16t16.5 -39q0 -22 -16 -38t-39 -16z" />
    <glyph glyph-name="space_uni0326" horiz-adv-x="400" 
d="M194 -179h-54q21 46 21 86q0 20 -4 44h83q3 -13 3 -24q0 -69 -49 -106z" />
    <glyph glyph-name="space.tab" horiz-adv-x="300" 
 />
    <glyph glyph-name="sterling.tab" 
d="M427 493v77q-31 11 -69 11q-120 0 -120 -140v-86h165v-66h-165v-36q0 -126 -109 -181v-1h303v75h74v-146h-422v110q37 23 54 53t17 81v45h-51v66h51v95q0 95 55.5 149t141.5 54q104 0 149 -61v-99h-74z" />
    <glyph glyph-name="yen.tab" 
d="M88 196h168v63h-168v59h151l-141 258h-55v63h225v-63h-81l116 -219l115 219h-84v63h222v-63h-56l-141 -258h152v-59h-168v-63h168v-59h-168v-74h83v-63h-253v63h83v74h-168v59z" />
    <glyph glyph-name="florin.tab" 
d="M130 401h89l13 113q10 85 51 125.5t100 40.5t87 -28v-45q-24 2 -53 2q-51 0 -71.5 -18.5t-25.5 -66.5l-14 -123h129v-64h-137l-55 -483h-87l55 483h-81v64z" />
    <glyph glyph-name="percent.tab" horiz-adv-x="700" 
d="M519 -13q-59 0 -99.5 41t-40.5 120v8q0 73 39 114.5t101 41.5q63 0 101.5 -41.5t38.5 -114.5v-8q0 -80 -39.5 -120.5t-100.5 -40.5zM180 328q-59 0 -99.5 41t-40.5 120v8q0 73 39 114.5t101 41.5q63 0 101.5 -41.5t38.5 -114.5v-8q0 -80 -39.5 -120.5t-100.5 -40.5zM97 0
l440 639h68l-440 -639h-68zM180 382q64 0 64 96v34q0 83 -64 83t-64 -83v-34q0 -96 64 -96zM519 41q64 0 64 96v34q0 83 -64 83t-64 -83v-34q0 -96 64 -96z" />
    <glyph glyph-name="perthousand.tab" horiz-adv-x="1000" 
d="M499 41q64 0 64 96v34q0 83 -64 83t-64 -83v-34q0 -96 64 -96zM180 382q64 0 64 96v34q0 83 -64 83t-64 -83v-34q0 -96 64 -96zM819 -13q-59 0 -99.5 41t-40.5 120v8q0 73 39 114.5t101 41.5q63 0 101.5 -41.5t38.5 -114.5v-8q0 -80 -39.5 -120.5t-100.5 -40.5zM180 328
q-59 0 -99.5 41t-40.5 120v8q0 73 39 114.5t101 41.5q63 0 101.5 -41.5t38.5 -114.5v-8q0 -80 -39.5 -120.5t-100.5 -40.5zM819 41q64 0 64 96v34q0 83 -64 83t-64 -83v-34q0 -96 64 -96zM499 -13q-59 0 -99.5 41t-40.5 120v8q0 73 39 114.5t101 41.5q63 0 101.5 -41.5
t38.5 -114.5v-8q0 -80 -39.5 -120.5t-100.5 -40.5zM87 0l440 639h68l-440 -639h-68z" />
    <glyph glyph-name="plus.tab" 
d="M338 533v-182h171v-72h-171v-183h-76v183h-171v72h171v182h76z" />
    <glyph glyph-name="minus.tab" 
d="M91 351h418v-72h-418v72z" />
    <glyph glyph-name="plusminus.tab" 
d="M338 533v-157h171v-72h-171v-158h-76v158h-171v72h171v157h76zM91 0v72h418v-72h-418z" />
    <glyph glyph-name="multiply.tab" 
d="M106 161l144 147l-144 147l50 50l144 -147l144 147l50 -50l-145 -147l145 -147l-50 -50l-144 146l-144 -146z" />
    <glyph glyph-name="divide.tab" 
d="M91 351h418v-72h-418v72zM300 100q-24 0 -41.5 17t-17.5 41t18 41.5t41 17.5q25 0 42 -17.5t17 -41.5t-17 -41t-42 -17zM300 412q-24 0 -41.5 17t-17.5 41t18 41.5t41 17.5q25 0 42 -17.5t17 -41.5t-17 -41t-42 -17z" />
    <glyph glyph-name="equal.tab" 
d="M89 261h422v-72h-422v72zM89 441h422v-72h-422v72z" />
    <glyph glyph-name="notequal.tab" 
d="M448 543l-49 -102h122v-72h-156l-51 -108h207v-72h-241l-52 -109h-76l52 109h-125v72h159l51 108h-210v72h244l49 102h76z" />
    <glyph glyph-name="approxequal.tab" 
d="M82 147q0 52 24.5 86t74.5 34q40 0 129.5 -16.5t107.5 -16.5q31 0 34 45h69q0 -53 -22.5 -86.5t-70.5 -33.5q-32 0 -124.5 16.5t-117.5 16.5q-32 0 -35 -45h-69zM82 328q0 52 24.5 86t74.5 34q40 0 129.5 -16.5t107.5 -16.5q31 0 34 45h69q0 -53 -22.5 -86.5t-70.5 -33.5
q-32 0 -124.5 16.5t-117.5 16.5q-32 0 -35 -45h-69z" />
    <glyph glyph-name="less.tab" 
d="M94 364l412 170v-77l-343 -142l343 -141v-78l-412 170v98z" />
    <glyph glyph-name="greater.tab" 
d="M506 266l-412 -170v77l343 141l-343 142v78l412 -170v-98z" />
    <glyph glyph-name="lessequal.tab" 
d="M94 374l412 150v-77l-334 -122l334 -121v-78l-412 150v98zM94 0v72h412v-72h-412z" />
    <glyph glyph-name="greaterequal.tab" 
d="M506 374v-98l-412 -150v77l333 121l-333 122v78zM506 0h-412v72h412v-72z" />
    <glyph glyph-name="period.tab" horiz-adv-x="300" 
d="M150 -7q-24 0 -41.5 17t-17.5 41t18 41.5t41 17.5q25 0 42 -17.5t17 -41.5t-17 -41t-42 -17z" />
    <glyph glyph-name="comma.tab" horiz-adv-x="300" 
d="M126 -112h-50q33 80 33 154q0 32 -6 61h94q3 -21 3 -40q0 -96 -74 -175z" />
    <glyph glyph-name="colon.tab" horiz-adv-x="300" 
d="M150 303q-24 0 -41.5 17t-17.5 41t18 41.5t41 17.5q25 0 42 -17.5t17 -41.5t-17 -41t-42 -17zM150 -7q-24 0 -41.5 17t-17.5 41t18 41.5t41 17.5q25 0 42 -17.5t17 -41.5t-17 -41t-42 -17z" />
    <glyph glyph-name="semicolon.tab" horiz-adv-x="300" 
d="M150 303q-24 0 -41.5 17t-17.5 41t18 41.5t41 17.5q25 0 42 -17.5t17 -41.5t-17 -41t-42 -17zM126 -112h-50q33 80 33 154q0 32 -6 61h94q3 -21 3 -40q0 -96 -74 -175z" />
    <glyph glyph-name="parenleft.tab" horiz-adv-x="300" 
d="M132 317v-51q0 -114 40.5 -205.5t105.5 -153.5v-5h-76q-23 21 -46 50.5t-49 75.5t-42.5 111t-16.5 136v33q0 88 30 169.5t61 124t63 71.5h76v-5q-62 -58 -104 -153.5t-42 -197.5z" />
    <glyph glyph-name="parenright.tab" horiz-adv-x="300" 
d="M168 266v51q0 102 -42 197.5t-104 153.5v5h76q32 -29 63 -71.5t61 -124t30 -169.5v-33q0 -71 -16.5 -136t-42.5 -111t-49 -75.5t-46 -50.5h-76v5q65 62 105.5 153.5t40.5 205.5z" />
    <glyph glyph-name="bracketleft.tab" horiz-adv-x="300" 
d="M66 -98v771h206v-68h-127v-639h127v-64h-206z" />
    <glyph glyph-name="bracketright.tab" horiz-adv-x="300" 
d="M234 673v-771h-206v64h127v639h-127v68h206z" />
    <glyph glyph-name="braceleft.tab" horiz-adv-x="300" 
d="M104 291v-3q116 -20 116 -111q0 -27 -12 -77t-12 -71q0 -43 16.5 -67t60.5 -55v-5h-70q-32 12 -59 44t-27 76q0 28 15 82t15 77q0 26 -22.5 46t-74.5 23v79q52 3 74.5 23t22.5 46q0 23 -15 75t-15 80q0 44 27 76t59 44h70v-5q-44 -31 -60.5 -55t-16.5 -67q0 -22 12 -69
t12 -75q0 -90 -116 -111z" />
    <glyph glyph-name="braceright.tab" horiz-adv-x="300" 
d="M196 288v3q-116 21 -116 111q0 28 12 75t12 69q0 43 -16.5 67t-60.5 55v5h70q32 -12 59 -44t27 -76q0 -28 -15 -80t-15 -75q0 -26 22.5 -46t74.5 -23v-79q-52 -3 -74.5 -23t-22.5 -46q0 -23 15 -77t15 -82q0 -44 -27 -76t-59 -44h-70v5q44 31 60.5 55t16.5 67
q0 21 -12 71t-12 77q0 91 116 111z" />
    <glyph glyph-name="zero.num" horiz-adv-x="371" 
d="M186 254q-67 0 -112 48.5t-45 142.5v18q0 87 43 135.5t114 48.5q70 0 113.5 -48.5t43.5 -135.5v-18q0 -94 -45 -142.5t-112 -48.5zM186 307q86 0 86 124v52q0 108 -86 108q-41 0 -64 -27.5t-23 -80.5v-52q0 -124 87 -124z" />
    <glyph glyph-name="one.num" horiz-adv-x="258" 
d="M35 263v48h70v268l-78 -87h-1v70l68 77h80v-328h59v-48h-198z" />
    <glyph glyph-name="two.num" horiz-adv-x="303" 
d="M24 263v72q92 59 134.5 103t42.5 87q0 64 -70 64q-51 0 -100 -33v47q42 44 112 44q57 0 91.5 -29t34.5 -91q0 -59 -51 -109.5t-151 -102.5v-1h152v42h56v-93h-251z" />
    <glyph glyph-name="three.num" horiz-adv-x="308" 
d="M143 647q55 0 90 -27t35 -73q0 -37 -22 -60.5t-66 -28.5v-2q101 -9 101 -95q0 -49 -37 -76.5t-101 -27.5q-81 0 -121 44v47q46 -37 113 -37q76 0 76 62q0 59 -79 59h-46v49h45q68 0 68 54t-69 54q-52 0 -95 -29v46q37 41 108 41z" />
    <glyph glyph-name="four.num" horiz-adv-x="332" 
d="M166 639h91v-222h49v-50h-49v-55h49v-49h-163v49h47v55h-167v65zM190 589l-120 -172h120v172z" />
    <glyph glyph-name="five.num" horiz-adv-x="310" 
d="M139 257q-74 0 -112 38v47q45 -31 101 -31q83 0 83 69t-85 69q-36 0 -82 -17h-4v207h226v-95h-57v40h-112v-99q26 8 53 8q65 0 98 -31.5t33 -85.5t-38 -86.5t-104 -32.5z" />
    <glyph glyph-name="six.num" horiz-adv-x="346" 
d="M285 639v-5q-68 -33 -117.5 -79t-63.5 -100q25 50 91 50q58 0 91.5 -33t33.5 -86v-3q0 -59 -38.5 -94t-103.5 -35q-67 0 -108 39.5t-41 107.5v11q0 43 16.5 82.5t43 67.5t50 46t47.5 31h99zM176 460q-34 0 -55.5 -19t-21.5 -50v-12q0 -35 21 -55.5t57 -20.5q72 0 72 75v8
q0 74 -73 74z" />
    <glyph glyph-name="seven.num" horiz-adv-x="300" 
d="M77 530h-57v109h255v-76l-127 -300h-70l136 319h-137v-52z" />
    <glyph glyph-name="eight.num" horiz-adv-x="329" 
d="M165 255q-60 0 -99 29.5t-39 80.5v4q0 35 21.5 59t60.5 34q-70 22 -70 84v3q0 43 34.5 70t91.5 27q56 0 90.5 -27t34.5 -70v-3q0 -62 -70 -84q39 -10 60.5 -34t21.5 -58v-4q0 -52 -39 -81.5t-98 -29.5zM165 304q68 0 68 64v10q0 30 -18 47t-50 17t-50 -17t-18 -47v-10
q0 -64 68 -64zM165 480q60 0 60 56v9q0 23 -16 37.5t-44 14.5q-29 0 -45 -14.5t-16 -37.5v-9q0 -56 61 -56z" />
    <glyph glyph-name="nine.num" horiz-adv-x="346" 
d="M75 263v4q58 28 104 74t62 100q-26 -47 -91 -47q-57 0 -90 33.5t-33 87.5v2q0 59 39 95t104 36q68 0 108 -38.5t40 -110.5v-11q0 -75 -46.5 -135.5t-96.5 -89.5h-100zM171 439q35 0 56 18.5t21 49.5v15q0 35 -21 55.5t-57 20.5t-54 -20t-18 -55v-8q0 -34 18 -55t55 -21z
" />
    <glyph glyph-name="zero.den" horiz-adv-x="371" 
d="M186 -9q-67 0 -112 48.5t-45 142.5v18q0 87 43 135.5t114 48.5q70 0 113.5 -48.5t43.5 -135.5v-18q0 -94 -45 -142.5t-112 -48.5zM186 44q86 0 86 124v52q0 108 -86 108q-41 0 -64 -27.5t-23 -80.5v-52q0 -124 87 -124z" />
    <glyph glyph-name="one.den" horiz-adv-x="258" 
d="M35 0v48h70v268l-78 -87h-1v70l68 77h80v-328h59v-48h-198z" />
    <glyph glyph-name="two.den" horiz-adv-x="303" 
d="M24 0v72q92 59 134.5 103t42.5 87q0 64 -70 64q-51 0 -100 -33v47q42 44 112 44q57 0 91.5 -29t34.5 -91q0 -59 -51 -109.5t-151 -102.5v-1h152v42h56v-93h-251z" />
    <glyph glyph-name="three.den" horiz-adv-x="308" 
d="M143 384q55 0 90 -27t35 -73q0 -37 -22 -60.5t-66 -28.5v-2q101 -9 101 -95q0 -49 -37 -76.5t-101 -27.5q-81 0 -121 44v47q46 -37 113 -37q76 0 76 62q0 59 -79 59h-46v49h45q68 0 68 54t-69 54q-52 0 -95 -29v46q37 41 108 41z" />
    <glyph glyph-name="four.den" horiz-adv-x="332" 
d="M166 376h91v-222h49v-50h-49v-55h49v-49h-163v49h47v55h-167v65zM190 326l-120 -172h120v172z" />
    <glyph glyph-name="five.den" horiz-adv-x="310" 
d="M139 -6q-74 0 -112 38v47q45 -31 101 -31q83 0 83 69t-85 69q-36 0 -82 -17h-4v207h226v-95h-57v40h-112v-99q26 8 53 8q65 0 98 -31.5t33 -85.5t-38 -86.5t-104 -32.5z" />
    <glyph glyph-name="six.den" horiz-adv-x="346" 
d="M285 376v-5q-68 -33 -117.5 -79t-63.5 -100q25 50 91 50q58 0 91.5 -33t33.5 -86v-3q0 -59 -38.5 -94t-103.5 -35q-67 0 -108 39.5t-41 107.5v11q0 43 16.5 82.5t43 67.5t50 46t47.5 31h99zM176 197q-34 0 -55.5 -19t-21.5 -50v-12q0 -35 21 -55.5t57 -20.5q72 0 72 75v8
q0 74 -73 74z" />
    <glyph glyph-name="seven.den" horiz-adv-x="300" 
d="M77 267h-57v109h255v-76l-127 -300h-70l136 319h-137v-52z" />
    <glyph glyph-name="eight.den" horiz-adv-x="329" 
d="M165 -8q-60 0 -99 29.5t-39 80.5v4q0 72 82 93q-70 22 -70 84v3q0 43 34.5 70t91.5 27q56 0 90.5 -27t34.5 -70v-3q0 -62 -70 -84q39 -10 60.5 -34t21.5 -58v-4q0 -52 -39 -81.5t-98 -29.5zM165 41q68 0 68 64v10q0 30 -18 47t-50 17t-50 -17t-18 -47v-10q0 -64 68 -64z
M165 217q60 0 60 56v9q0 23 -16 37.5t-44 14.5q-29 0 -45 -14.5t-16 -37.5v-9q0 -56 61 -56z" />
    <glyph glyph-name="nine.den" horiz-adv-x="346" 
d="M75 0v4q58 28 104 74t62 100q-26 -47 -91 -47q-57 0 -90 33.5t-33 87.5v2q0 59 39 95t104 36q68 0 108 -38.5t40 -110.5v-11q0 -75 -46.5 -135.5t-96.5 -89.5h-100zM171 176q35 0 56 18.5t21 49.5v15q0 35 -21 55.5t-57 20.5t-54 -20t-18 -55v-8q0 -34 18 -55t55 -21z
" />
    <glyph glyph-name="zero.sub" horiz-adv-x="371" 
d="M186 -99q-67 0 -112 48.5t-45 142.5v18q0 87 43 135.5t114 48.5q70 0 113.5 -48.5t43.5 -135.5v-18q0 -94 -45 -142.5t-112 -48.5zM186 -46q86 0 86 124v52q0 108 -86 108q-41 0 -64 -27.5t-23 -80.5v-52q0 -124 87 -124z" />
    <glyph glyph-name="one.sub" horiz-adv-x="258" 
d="M35 -90v48h70v268l-78 -87h-1v70l68 77h80v-328h59v-48h-198z" />
    <glyph glyph-name="two.sub" horiz-adv-x="303" 
d="M24 -90v72q92 59 134.5 103t42.5 87q0 64 -70 64q-51 0 -100 -33v47q42 44 112 44q57 0 91.5 -29t34.5 -91q0 -59 -51 -109.5t-151 -102.5v-1h152v42h56v-93h-251z" />
    <glyph glyph-name="three.sub" horiz-adv-x="308" 
d="M143 294q55 0 90 -27t35 -73q0 -37 -22 -60.5t-66 -28.5v-2q101 -9 101 -95q0 -49 -37 -76.5t-101 -27.5q-81 0 -121 44v47q46 -37 113 -37q76 0 76 62q0 59 -79 59h-46v49h45q68 0 68 54t-69 54q-52 0 -95 -29v46q37 41 108 41z" />
    <glyph glyph-name="four.sub" horiz-adv-x="332" 
d="M166 286h91v-222h49v-50h-49v-55h49v-49h-163v49h47v55h-167v65zM190 236l-120 -172h120v172z" />
    <glyph glyph-name="five.sub" horiz-adv-x="310" 
d="M139 -96q-74 0 -112 38v47q45 -31 101 -31q83 0 83 69t-85 69q-36 0 -82 -17h-4v207h226v-95h-57v40h-112v-99q26 8 53 8q65 0 98 -31.5t33 -85.5t-38 -86.5t-104 -32.5z" />
    <glyph glyph-name="six.sub" horiz-adv-x="346" 
d="M285 286v-5q-68 -33 -117.5 -79t-63.5 -100q25 50 91 50q58 0 91.5 -33t33.5 -86v-3q0 -59 -38.5 -94t-103.5 -35q-67 0 -108 39.5t-41 107.5v11q0 43 16.5 82.5t43 67.5t50 46t47.5 31h99zM176 107q-34 0 -55.5 -19t-21.5 -50v-12q0 -35 21 -55.5t57 -20.5q72 0 72 75v8
q0 74 -73 74z" />
    <glyph glyph-name="seven.sub" horiz-adv-x="300" 
d="M77 177h-57v109h255v-76l-127 -300h-70l136 319h-137v-52z" />
    <glyph glyph-name="eight.sub" horiz-adv-x="329" 
d="M165 -98q-60 0 -99 29.5t-39 80.5v4q0 72 82 93q-70 22 -70 84v3q0 43 34.5 70t91.5 27q56 0 90.5 -27t34.5 -70v-3q0 -62 -70 -84q39 -10 60.5 -34t21.5 -58v-4q0 -52 -39 -81.5t-98 -29.5zM165 -49q68 0 68 64v10q0 30 -18 47t-50 17t-50 -17t-18 -47v-10q0 -64 68 -64
zM165 127q60 0 60 56v9q0 23 -16 37.5t-44 14.5q-29 0 -45 -14.5t-16 -37.5v-9q0 -56 61 -56z" />
    <glyph glyph-name="nine.sub" horiz-adv-x="346" 
d="M75 -90v4q58 28 104 74t62 100q-26 -47 -91 -47q-57 0 -90 33.5t-33 87.5v2q0 59 39 95t104 36q68 0 108 -38.5t40 -110.5v-11q0 -75 -46.5 -135.5t-96.5 -89.5h-100zM171 86q35 0 56 18.5t21 49.5v15q0 35 -21 55.5t-57 20.5t-54 -20t-18 -55v-8q0 -34 18 -55t55 -21z
" />
    <glyph glyph-name="plus.sub" horiz-adv-x="261" 
d="M157 175v-78h73v-50h-73v-78h-52v78h-73v50h73v78h52z" />
    <glyph glyph-name="minus.sub" horiz-adv-x="261" 
d="M32 97h198v-50h-198v50z" />
    <glyph glyph-name="zero.sup" horiz-adv-x="371" 
d="M186 306q-67 0 -112 48.5t-45 142.5v18q0 87 43 135.5t114 48.5q70 0 113.5 -48.5t43.5 -135.5v-18q0 -94 -45 -142.5t-112 -48.5zM186 359q86 0 86 124v52q0 108 -86 108q-41 0 -64 -27.5t-23 -80.5v-52q0 -124 87 -124z" />
    <glyph glyph-name="one.sup" horiz-adv-x="258" 
d="M35 315v48h70v268l-78 -87h-1v70l68 77h80v-328h59v-48h-198z" />
    <glyph glyph-name="two.sup" horiz-adv-x="303" 
d="M24 315v72q92 59 134.5 103t42.5 87q0 64 -70 64q-51 0 -100 -33v47q42 44 112 44q57 0 91.5 -29t34.5 -91q0 -59 -51 -109.5t-151 -102.5v-1h152v42h56v-93h-251z" />
    <glyph glyph-name="three.sup" horiz-adv-x="308" 
d="M143 699q55 0 90 -27t35 -73q0 -37 -22 -60.5t-66 -28.5v-2q101 -9 101 -95q0 -49 -37 -76.5t-101 -27.5q-81 0 -121 44v47q46 -37 113 -37q76 0 76 62q0 59 -79 59h-46v49h45q68 0 68 54t-69 54q-52 0 -95 -29v46q37 41 108 41z" />
    <glyph glyph-name="four.sup" horiz-adv-x="332" 
d="M166 691h91v-222h49v-50h-49v-55h49v-49h-163v49h47v55h-167v65zM190 641l-120 -172h120v172z" />
    <glyph glyph-name="five.sup" horiz-adv-x="310" 
d="M139 309q-74 0 -112 38v47q45 -31 101 -31q83 0 83 69t-85 69q-36 0 -82 -17h-4v207h226v-95h-57v40h-112v-99q26 8 53 8q65 0 98 -31.5t33 -85.5t-38 -86.5t-104 -32.5z" />
    <glyph glyph-name="six.sup" horiz-adv-x="346" 
d="M285 691v-5q-68 -33 -117.5 -79t-63.5 -100q25 50 91 50q58 0 91.5 -33t33.5 -86v-3q0 -59 -38.5 -94t-103.5 -35q-67 0 -108 39.5t-41 107.5v11q0 43 16.5 82.5t43 67.5t50 46t47.5 31h99zM176 512q-34 0 -55.5 -19t-21.5 -50v-12q0 -35 21 -55.5t57 -20.5q72 0 72 75v8
q0 74 -73 74z" />
    <glyph glyph-name="seven.sup" horiz-adv-x="300" 
d="M77 582h-57v109h255v-76l-127 -300h-70l136 319h-137v-52z" />
    <glyph glyph-name="eight.sup" horiz-adv-x="329" 
d="M165 307q-60 0 -99 29.5t-39 80.5v4q0 35 21.5 59t60.5 34q-70 22 -70 84v3q0 43 34.5 70t91.5 27q56 0 90.5 -27t34.5 -70v-3q0 -62 -70 -84q39 -10 60.5 -34t21.5 -58v-4q0 -52 -39 -81.5t-98 -29.5zM165 356q68 0 68 64v10q0 30 -18 47t-50 17t-50 -17t-18 -47v-10
q0 -64 68 -64zM165 532q60 0 60 56v9q0 23 -16 37.5t-44 14.5q-29 0 -45 -14.5t-16 -37.5v-9q0 -56 61 -56z" />
    <glyph glyph-name="nine.sup" horiz-adv-x="346" 
d="M75 315v4q58 28 104 74t62 100q-26 -47 -91 -47q-57 0 -90 33.5t-33 87.5v2q0 59 39 95t104 36q68 0 108 -38.5t40 -110.5v-11q0 -75 -46.5 -135.5t-96.5 -89.5h-100zM171 491q35 0 56 18.5t21 49.5v15q0 35 -21 55.5t-57 20.5t-54 -20t-18 -55v-8q0 -34 18 -55t55 -21z
" />
    <glyph glyph-name="plus.sup" horiz-adv-x="261" 
d="M157 645v-78h73v-50h-73v-78h-52v78h-73v50h73v78h52z" />
    <glyph glyph-name="minus.sup" horiz-adv-x="261" 
d="M32 567h198v-50h-198v50z" />
    <glyph glyph-name="ae.alt" horiz-adv-x="779" 
d="M138 338h-76v94q23 23 67 41t101 18q118 0 150 -87q56 87 168 87q100 0 148.5 -58t48.5 -144q0 -37 -7 -69h-328q2 -89 43.5 -127t124.5 -38q97 0 154 39v-54q-16 -21 -60 -36t-104 -15q-81 0 -138.5 35t-84.5 102q-24 -139 -164 -139q-70 0 -109.5 34t-39.5 93v4
q0 79 67 115.5t226 61.5v28q0 107 -107 107q-42 0 -80 -15v-77zM548 430q-61 0 -99 -42t-39 -115h259v10q0 73 -33 110t-88 37zM118 128v-8q0 -75 86 -75q48 0 84.5 38t36.5 103v43v12v5q-123 -20 -165 -45t-42 -73z" />
    <glyph glyph-name="aacute.alt" horiz-adv-x="494" 
d="M62 338v94q23 23 67 41t101 18q90 0 134.5 -47t44.5 -131v-250h57v-63h-121q-19 43 -20 94q-28 -107 -149 -107q-64 0 -104 34.5t-40 95.5v1q0 79 67 115.5t226 61.5v28q0 107 -107 107q-42 0 -80 -15v-77h-76zM203 45q48 0 85 38t37 103v60q-123 -20 -165 -45t-42 -73
v-5q0 -78 85 -78zM186 539l57 134h119l-119 -134h-57z" />
    <glyph glyph-name="aacute.alt1" horiz-adv-x="573" 
d="M545 0h-126l-5.5 17t-9 42.5t-5.5 60.5q-17 -63 -59.5 -97.5t-107.5 -34.5q-90 0 -143.5 72t-53.5 192v1q0 111 58 174t140 63q127 0 166 -127q0 27 5 56t10 45l5 15h64v-416h62v-63zM250 50q61 0 105 48t44 130v18q0 89 -42.5 133t-105.5 44q-130 0 -130 -157v-36
q0 -83 34 -131.5t95 -48.5zM226 539l57 134h119l-119 -134h-57z" />
    <glyph glyph-name="abreve.alt" horiz-adv-x="494" 
d="M345 0q-19 43 -20 94q-28 -107 -149 -107q-64 0 -104 34.5t-40 95.5v1q0 79 67 115.5t226 61.5v28q0 107 -107 107q-42 0 -80 -15v-77h-76v94q23 23 67 41t101 18q90 0 134.5 -47t44.5 -131v-250h57v-63h-121zM203 45q48 0 85 38t37 103v60q-123 -20 -165 -45t-42 -73v-5
q0 -78 85 -78zM293 673h54q4 -53 -26 -94.5t-91 -41.5q-60 0 -90 41t-26 95h54q-1 -31 14.5 -51t47.5 -20q34 0 49 20t14 51z" />
    <glyph glyph-name="abreve.alt1" horiz-adv-x="573" 
d="M419 0l-5.5 17t-9 42.5t-5.5 60.5q-17 -63 -59.5 -97.5t-107.5 -34.5q-90 0 -143.5 72t-53.5 192v1q0 111 58 174t140 63q127 0 166 -127q0 27 5 56t10 45l5 15h64v-416h62v-63h-126zM250 50q61 0 105 48t44 130v18q0 89 -42.5 133t-105.5 44q-130 0 -130 -157v-36
q0 -83 34 -131.5t95 -48.5zM339 673h54q4 -53 -26 -94.5t-91 -41.5q-60 0 -90 41t-26 95h54q-1 -31 14.5 -51t47.5 -20q34 0 49 20t14 51z" />
    <glyph glyph-name="acircumflex.alt" horiz-adv-x="494" 
d="M62 338v94q23 23 67 41t101 18q90 0 134.5 -47t44.5 -131v-250h57v-63h-121q-19 43 -20 94q-28 -107 -149 -107q-64 0 -104 34.5t-40 95.5v1q0 79 67 115.5t226 61.5v28q0 107 -107 107q-42 0 -80 -15v-77h-76zM203 45q48 0 85 38t37 103v60q-123 -20 -165 -45t-42 -73
v-5q0 -78 85 -78zM91 539l88 134h104l88 -134h-61l-79 77l-79 -77h-61z" />
    <glyph glyph-name="acircumflex.alt1" horiz-adv-x="573" 
d="M545 0h-126l-5.5 17t-9 42.5t-5.5 60.5q-17 -63 -59.5 -97.5t-107.5 -34.5q-90 0 -143.5 72t-53.5 192v1q0 111 58 174t140 63q127 0 166 -127q0 27 5 56t10 45l5 15h64v-416h62v-63zM250 50q61 0 105 48t44 130v18q0 89 -42.5 133t-105.5 44q-130 0 -130 -157v-36
q0 -83 34 -131.5t95 -48.5zM137 539l88 134h104l88 -134h-61l-79 77l-79 -77h-61z" />
    <glyph glyph-name="adieresis.alt" horiz-adv-x="494" 
d="M345 0q-19 43 -20 94q-28 -107 -149 -107q-64 0 -104 34.5t-40 95.5v1q0 79 67 115.5t226 61.5v28q0 107 -107 107q-42 0 -80 -15v-77h-76v94q23 23 67 41t101 18q90 0 134.5 -47t44.5 -131v-250h57v-63h-121zM203 45q48 0 85 38t37 103v60q-123 -20 -165 -45t-42 -73v-5
q0 -78 85 -78zM145 551q-22 0 -37.5 15t-15.5 37q0 21 15.5 36.5t37.5 15.5q21 0 36.5 -15.5t15.5 -36.5q0 -22 -15.5 -37t-36.5 -15zM317 551q-21 0 -36.5 15t-15.5 37q0 21 15.5 36.5t36.5 15.5q22 0 37.5 -15.5t15.5 -36.5q0 -22 -15.5 -37t-37.5 -15z" />
    <glyph glyph-name="adieresis.alt1" horiz-adv-x="573" 
d="M419 0l-5.5 17t-9 42.5t-5.5 60.5q-17 -63 -59.5 -97.5t-107.5 -34.5q-90 0 -143.5 72t-53.5 192v1q0 111 58 174t140 63q127 0 166 -127q0 27 5 56t10 45l5 15h64v-416h62v-63h-126zM250 50q61 0 105 48t44 130v18q0 89 -42.5 133t-105.5 44q-130 0 -130 -157v-36
q0 -83 34 -131.5t95 -48.5zM191 551q-22 0 -37.5 15t-15.5 37q0 21 15.5 36.5t37.5 15.5q21 0 36.5 -15.5t15.5 -36.5q0 -22 -15.5 -37t-36.5 -15zM363 551q-21 0 -36.5 15t-15.5 37q0 21 15.5 36.5t36.5 15.5q22 0 37.5 -15.5t15.5 -36.5q0 -22 -15.5 -37t-37.5 -15z" />
    <glyph glyph-name="agrave.alt" horiz-adv-x="494" 
d="M345 0q-19 43 -20 94q-28 -107 -149 -107q-64 0 -104 34.5t-40 95.5v1q0 79 67 115.5t226 61.5v28q0 107 -107 107q-42 0 -80 -15v-77h-76v94q23 23 67 41t101 18q90 0 134.5 -47t44.5 -131v-250h57v-63h-121zM203 45q48 0 85 38t37 103v60q-123 -20 -165 -45t-42 -73v-5
q0 -78 85 -78zM211 539l-119 134h119l57 -134h-57z" />
    <glyph glyph-name="agrave.alt1" horiz-adv-x="573" 
d="M545 0h-126l-5.5 17t-9 42.5t-5.5 60.5q-17 -63 -59.5 -97.5t-107.5 -34.5q-90 0 -143.5 72t-53.5 192v1q0 111 58 174t140 63q127 0 166 -127q0 27 5 56t10 45l5 15h64v-416h62v-63zM250 50q61 0 105 48t44 130v18q0 89 -42.5 133t-105.5 44q-130 0 -130 -157v-36
q0 -83 34 -131.5t95 -48.5zM257 539l-119 134h119l57 -134h-57z" />
    <glyph glyph-name="amacron.alt" horiz-adv-x="494" 
d="M62 338v94q23 23 67 41t101 18q90 0 134.5 -47t44.5 -131v-250h57v-63h-121q-19 43 -20 94q-28 -107 -149 -107q-64 0 -104 34.5t-40 95.5v1q0 79 67 115.5t226 61.5v28q0 107 -107 107q-42 0 -80 -15v-77h-76zM203 45q48 0 85 38t37 103v60q-123 -20 -165 -45t-42 -73
v-5q0 -78 85 -78zM113 562v66h236v-66h-236z" />
    <glyph glyph-name="amacron.alt1" horiz-adv-x="573" 
d="M545 0h-126l-5.5 17t-9 42.5t-5.5 60.5q-17 -63 -59.5 -97.5t-107.5 -34.5q-90 0 -143.5 72t-53.5 192v1q0 111 58 174t140 63q127 0 166 -127q0 27 5 56t10 45l5 15h64v-416h62v-63zM250 50q61 0 105 48t44 130v18q0 89 -42.5 133t-105.5 44q-130 0 -130 -157v-36
q0 -83 34 -131.5t95 -48.5zM159 562v66h236v-66h-236z" />
    <glyph glyph-name="aogonek.alt" horiz-adv-x="494" 
d="M62 338v94q23 23 67 41t101 18q90 0 134.5 -47t44.5 -131v-250h57v-63h-69q-64 -32 -64 -71q0 -29 34 -29q16 0 34 8v-45q-14 -18 -51 -18q-41 0 -62 18.5t-21 51.5q0 29 21.5 54t52.5 39q-15 45 -16 86q-28 -107 -149 -107q-64 0 -104 34.5t-40 95.5v1q0 79 67 115.5
t226 61.5v28q0 107 -107 107q-42 0 -80 -15v-77h-76zM203 45q48 0 85 38t37 103v60q-123 -20 -165 -45t-42 -73v-5q0 -78 85 -78z" />
    <glyph glyph-name="aogonek.alt1" horiz-adv-x="573" 
d="M545 63v-63h-77q-64 -32 -64 -71q0 -29 34 -29q16 0 34 8v-45q-14 -18 -51 -18q-41 0 -62 18.5t-21 51.5q0 30 22 55.5t55 39.5q-17 58 -16 110q-17 -63 -59.5 -97.5t-107.5 -34.5q-90 0 -143.5 72t-53.5 192v1q0 111 58 174t140 63q127 0 166 -127q0 27 5 56t10 45l5 15
h64v-416h62zM250 50q61 0 105 48t44 130v18q0 89 -42.5 133t-105.5 44q-130 0 -130 -157v-36q0 -83 34 -131.5t95 -48.5z" />
    <glyph glyph-name="aring.alt" horiz-adv-x="494" 
d="M345 0q-19 43 -20 94q-28 -107 -149 -107q-64 0 -104 34.5t-40 95.5v1q0 79 67 115.5t226 61.5v28q0 107 -107 107q-42 0 -80 -15v-77h-76v94q23 23 67 41t101 18q90 0 134.5 -47t44.5 -131v-250h57v-63h-121zM203 45q48 0 85 38t37 103v60q-123 -20 -165 -45t-42 -73v-5
q0 -78 85 -78zM231 544q-39 0 -65 26t-26 64t26 64.5t65 26.5t65.5 -26.5t26.5 -64.5t-26.5 -64t-65.5 -26zM231 585q20 0 33 13.5t13 35.5t-13 36t-33 14q-19 0 -32 -14t-13 -36t13 -35.5t32 -13.5z" />
    <glyph glyph-name="aring.alt1" horiz-adv-x="573" 
d="M545 0h-126l-5.5 17t-9 42.5t-5.5 60.5q-17 -63 -59.5 -97.5t-107.5 -34.5q-90 0 -143.5 72t-53.5 192v1q0 111 58 174t140 63q127 0 166 -127q0 27 5 56t10 45l5 15h64v-416h62v-63zM250 50q61 0 105 48t44 130v18q0 89 -42.5 133t-105.5 44q-130 0 -130 -157v-36
q0 -83 34 -131.5t95 -48.5zM277 544q-39 0 -65 26t-26 64t26 64.5t65 26.5t65.5 -26.5t26.5 -64.5t-26.5 -64t-65.5 -26zM277 585q20 0 33 13.5t13 35.5t-13 36t-33 14q-19 0 -32 -14t-13 -36t13 -35.5t32 -13.5z" />
    <glyph glyph-name="aringacute.alt" horiz-adv-x="494" 
d="M62 338v94q23 23 67 41t101 18q90 0 134.5 -47t44.5 -131v-250h57v-63h-121q-19 43 -20 94q-28 -107 -149 -107q-64 0 -104 34.5t-40 95.5v1q0 79 67 115.5t226 61.5v28q0 107 -107 107q-42 0 -80 -15v-77h-76zM203 45q48 0 85 38t37 103v60q-123 -20 -165 -45t-42 -73
v-5q0 -78 85 -78zM234 527q-39 0 -65 26t-26 64t26 64.5t65 26.5t65.5 -26.5t26.5 -64.5t-26.5 -64t-65.5 -26zM197 740l45 111h121l-109 -111h-57zM234 568q20 0 33 13.5t13 35.5t-13 36t-33 14q-19 0 -32 -14t-13 -36t13 -35.5t32 -13.5z" />
    <glyph glyph-name="aringacute.alt1" horiz-adv-x="573" 
d="M419 0l-5.5 17t-9 42.5t-5.5 60.5q-17 -63 -59.5 -97.5t-107.5 -34.5q-90 0 -143.5 72t-53.5 192v1q0 111 58 174t140 63q127 0 166 -127q0 27 5 56t10 45l5 15h64v-416h62v-63h-126zM250 50q61 0 105 48t44 130v18q0 89 -42.5 133t-105.5 44q-130 0 -130 -157v-36
q0 -83 34 -131.5t95 -48.5zM262 527q-39 0 -65 26t-26 64t26 64.5t65 26.5t65.5 -26.5t26.5 -64.5t-26.5 -64t-65.5 -26zM225 740l45 111h121l-109 -111h-57zM262 568q20 0 33 13.5t13 35.5t-13 36t-33 14q-19 0 -32 -14t-13 -36t13 -35.5t32 -13.5z" />
    <glyph glyph-name="atilde.alt" horiz-adv-x="494" 
d="M62 338v94q23 23 67 41t101 18q90 0 134.5 -47t44.5 -131v-250h57v-63h-121q-19 43 -20 94q-28 -107 -149 -107q-64 0 -104 34.5t-40 95.5v1q0 79 67 115.5t226 61.5v28q0 107 -107 107q-42 0 -80 -15v-77h-76zM203 45q48 0 85 38t37 103v60q-123 -20 -165 -45t-42 -73
v-5q0 -78 85 -78zM106 559q-8 46 8 78t59 32q30 0 66 -17t47 -17q15 0 19 8t6 30h43q8 -46 -6.5 -78t-55.5 -32q-23 0 -61.5 17t-55.5 17q-14 0 -19 -8t-7 -30h-43z" />
    <glyph glyph-name="atilde.alt1" horiz-adv-x="573" 
d="M419 0l-5.5 17t-9 42.5t-5.5 60.5q-17 -63 -59.5 -97.5t-107.5 -34.5q-90 0 -143.5 72t-53.5 192v1q0 111 58 174t140 63q127 0 166 -127q0 27 5 56t10 45l5 15h64v-416h62v-63h-126zM250 50q61 0 105 48t44 130v18q0 89 -42.5 133t-105.5 44q-130 0 -130 -157v-36
q0 -83 34 -131.5t95 -48.5zM152 559q-8 46 8 78t59 32q30 0 66 -17t47 -17q15 0 19 8t6 30h43q8 -46 -6.5 -78t-55.5 -32q-23 0 -61.5 17t-55.5 17q-14 0 -19 -8t-7 -30h-43z" />
    <glyph glyph-name="aeacute.alt" horiz-adv-x="779" 
d="M138 338h-76v94q23 23 67 41t101 18q118 0 150 -87q56 87 168 87q100 0 148.5 -58t48.5 -144q0 -37 -7 -69h-328q2 -89 43.5 -127t124.5 -38q97 0 154 39v-54q-16 -21 -60 -36t-104 -15q-81 0 -138.5 35t-84.5 102q-24 -139 -164 -139q-70 0 -109.5 34t-39.5 93v4
q0 79 67 115.5t226 61.5v28q0 107 -107 107q-42 0 -80 -15v-77zM548 430q-61 0 -99 -42t-39 -115h259v10q0 73 -33 110t-88 37zM118 128v-8q0 -75 86 -75q48 0 84.5 38t36.5 103v43v12v5q-123 -20 -165 -45t-42 -73zM361 539l57 134h119l-119 -134h-57z" />
    <glyph glyph-name="gbreve.alt" horiz-adv-x="515" 
d="M255 -154q-225 0 -225 117v1q0 35 31 59t79 30q-35 9 -47.5 27t-12.5 47q0 55 77 74q-101 24 -101 138v1q0 75 55 113t130 38q49 0 86 -12h160v-68h-83q34 -23 34 -83v-1q0 -43 -16.5 -74t-45.5 -47t-60.5 -23t-68.5 -7h-52q-20 0 -35 -9t-15 -23q0 -27 43 -30l118 -5
q96 -4 137 -34t41 -92v-1q0 -54 -34 -85.5t-80.5 -41t-114.5 -9.5zM247 231q17 0 30 1.5t28.5 7.5t26 16t17.5 28.5t7 44.5v18q0 87 -109 87t-109 -87v-18q0 -32 9.5 -53t27.5 -30t34 -12t38 -3zM241 -91q90 0 125.5 16.5t35.5 52.5v1q0 29 -16.5 42t-52.5 15l-129 6
q-38 2 -66.5 -17t-28.5 -47v-1q0 -36 30 -52t102 -16zM325 673h54q4 -53 -26 -94.5t-91 -41.5q-60 0 -90 41t-26 95h54q-1 -31 14.5 -51t47.5 -20q34 0 49 20t14 51z" />
    <glyph glyph-name="gcircumflex.alt" horiz-adv-x="515" 
d="M255 -154q-225 0 -225 117v1q0 35 31 59t79 30q-35 9 -47.5 27t-12.5 47q0 55 77 74q-101 24 -101 138v1q0 75 55 113t130 38q49 0 86 -12h160v-68h-83q34 -23 34 -83v-1q0 -43 -16.5 -74t-45.5 -47t-60.5 -23t-68.5 -7h-52q-20 0 -35 -9t-15 -23q0 -27 43 -30l118 -5
q96 -4 137 -34t41 -92v-1q0 -54 -34 -85.5t-80.5 -41t-114.5 -9.5zM241 -91q90 0 125.5 16.5t35.5 52.5v1q0 29 -16.5 42t-52.5 15l-129 6q-38 2 -66.5 -17t-28.5 -47v-1q0 -36 30 -52t102 -16zM247 231q17 0 30 1.5t28.5 7.5t26 16t17.5 28.5t7 44.5v18q0 87 -109 87
t-109 -87v-18q0 -32 9.5 -53t27.5 -30t34 -12t38 -3zM123 539l88 134h104l88 -134h-61l-79 77l-79 -77h-61z" />
    <glyph glyph-name="gcommaaccent.alt" horiz-adv-x="515" 
d="M255 -154q-225 0 -225 117v1q0 35 31 59t79 30q-35 9 -47.5 27t-12.5 47q0 55 77 74q-101 24 -101 138v1q0 75 55 113t130 38q49 0 86 -12h160v-68h-83q34 -23 34 -83v-1q0 -43 -16.5 -74t-45.5 -47t-60.5 -23t-68.5 -7h-52q-20 0 -35 -9t-15 -23q0 -27 43 -30l118 -5
q96 -4 137 -34t41 -92v-1q0 -54 -34 -85.5t-80.5 -41t-114.5 -9.5zM241 -91q90 0 125.5 16.5t35.5 52.5v1q0 29 -16.5 42t-52.5 15l-129 6q-38 2 -66.5 -17t-28.5 -47v-1q0 -36 30 -52t102 -16zM247 231q17 0 30 1.5t28.5 7.5t26 16t17.5 28.5t7 44.5v18q0 87 -109 87
t-109 -87v-18q0 -32 9.5 -53t27.5 -30t34 -12t38 -3zM266 686h54q-21 -46 -21 -86q0 -20 4 -44h-83q-3 13 -3 24q0 69 49 106z" />
    <glyph glyph-name="gdotaccent.alt" horiz-adv-x="515" 
d="M255 -154q-225 0 -225 117v1q0 35 31 59t79 30q-35 9 -47.5 27t-12.5 47q0 55 77 74q-101 24 -101 138v1q0 75 55 113t130 38q49 0 86 -12h160v-68h-83q34 -23 34 -83v-1q0 -43 -16.5 -74t-45.5 -47t-60.5 -23t-68.5 -7h-52q-20 0 -35 -9t-15 -23q0 -27 43 -30l118 -5
q96 -4 137 -34t41 -92v-1q0 -54 -34 -85.5t-80.5 -41t-114.5 -9.5zM241 -91q90 0 125.5 16.5t35.5 52.5v1q0 29 -16.5 42t-52.5 15l-129 6q-38 2 -66.5 -17t-28.5 -47v-1q0 -36 30 -52t102 -16zM247 231q17 0 30 1.5t28.5 7.5t26 16t17.5 28.5t7 44.5v18q0 87 -109 87
t-109 -87v-18q0 -32 9.5 -53t27.5 -30t34 -12t38 -3zM263 551q-23 0 -39 16t-16 38q0 23 16 39t39 16t39 -16t16 -39q0 -22 -16 -38t-39 -16z" />
    <glyph glyph-name="yacute.alt" horiz-adv-x="554" 
d="M325 406v73h209v-73h-56l-197 -493h71v-59h-218v59h72l49 127h-35l-146 366h-54v73h214v-73h-71l116 -311l121 311h-75zM241 539l57 134h119l-119 -134h-57z" />
    <glyph glyph-name="ycircumflex.alt" horiz-adv-x="554" 
d="M325 406v73h209v-73h-56l-197 -493h71v-59h-218v59h72l49 127h-35l-146 366h-54v73h214v-73h-71l116 -311l121 311h-75zM138 539l88 134h104l88 -134h-61l-79 77l-79 -77h-61z" />
    <glyph glyph-name="ydieresis.alt" horiz-adv-x="554" 
d="M325 406v73h209v-73h-56l-197 -493h71v-59h-218v59h72l49 127h-35l-146 366h-54v73h214v-73h-71l116 -311l121 311h-75zM192 551q-22 0 -37.5 15t-15.5 37q0 21 15.5 36.5t37.5 15.5q21 0 36.5 -15.5t15.5 -36.5q0 -22 -15.5 -37t-36.5 -15zM364 551q-21 0 -36.5 15
t-15.5 37q0 21 15.5 36.5t36.5 15.5q22 0 37.5 -15.5t15.5 -36.5q0 -22 -15.5 -37t-37.5 -15z" />
    <glyph glyph-name="ygrave.alt" horiz-adv-x="554" 
d="M325 406v73h209v-73h-56l-197 -493h71v-59h-218v59h72l49 127h-35l-146 366h-54v73h214v-73h-71l116 -311l121 311h-75zM258 539l-119 134h119l57 -134h-57z" />
    <glyph glyph-name="f_b.alt" horiz-adv-x="893" 
d="M334 0v63h62v610h84v-316q17 61 65 97.5t118 36.5q91 0 143 -66.5t52 -176.5v-1q0 -123 -57 -190.5t-145 -67.5q-68 0 -113.5 33.5t-63.5 93.5q-1 -39 -6 -68t-9 -38l-4 -10h-126zM637 51q64 0 99.5 45.5t35.5 137.5v36q0 73 -35 113.5t-100 40.5t-111 -43.5t-46 -118.5
v-20q0 -95 45 -143t112 -48zM278 0h-250v63h72v354h-72v62h72v54q0 41 13.5 71.5t34 46t40.5 22.5t39 7q63 0 91 -28v-41q-24 2 -53 2q-48 0 -64.5 -16t-16.5 -56v-62h134v-62h-134v-354h94v-63z" />
    <glyph glyph-name="f_f_b.alt" horiz-adv-x="1166" 
d="M929 -11q-68 0 -113.5 33.5t-63.5 93.5q-1 -39 -6 -68t-9 -38l-4 -10h-126v63h62v610h84v-316q17 61 65 97.5t118 36.5q91 0 143 -66.5t52 -176.5v-1q0 -123 -57 -190.5t-145 -67.5zM28 417v62h72v49q0 77 42 112t89 35q58 0 86 -28v-41q-24 2 -50 2q-48 0 -65.5 -16
t-17.5 -56v-57h189v54q0 41 13.5 71.5t34 46t40.5 22.5t39 7q63 0 91 -28v-41q-24 2 -53 2q-48 0 -64.5 -16t-16.5 -56v-62h134v-62h-134v-354h94v-63h-245v63h67v354h-189v-354h66v-63h-222v63h72v354h-72zM910 51q64 0 99.5 45.5t35.5 137.5v36q0 73 -35 113.5t-100 40.5
t-111 -43.5t-46 -118.5v-20q0 -95 45 -143t112 -48z" />
    <glyph glyph-name="f_f_h.alt" horiz-adv-x="1165" 
d="M28 417v62h72v49q0 77 42 112t89 35q58 0 86 -28v-41q-24 2 -50 2q-48 0 -65.5 -16t-17.5 -56v-57h189v54q0 41 13.5 71.5t34 46t40.5 22.5t39 7q63 0 91 -28v-41q-24 2 -53 2q-48 0 -64.5 -16t-16.5 -56v-62h134v-62h-134v-354h94v-63h-245v63h67v354h-189v-354h66v-63
h-222v63h72v354h-72zM607 0v63h62v610h84v-325q12 67 60 105t112 38q72 0 113.5 -42t41.5 -122v-264h57v-63h-214v63h73v277q0 81 -94 81q-64 0 -105.5 -41.5t-43.5 -114.5v-202h76v-63h-222z" />
    <glyph glyph-name="f_f_k.alt" horiz-adv-x="1097" 
d="M28 417v62h72v49q0 77 42 112t89 35q58 0 86 -28v-41q-24 2 -50 2q-48 0 -65.5 -16t-17.5 -56v-57h189v54q0 41 13.5 71.5t34 46t40.5 22.5t39 7q63 0 91 -28v-41q-24 2 -53 2q-48 0 -64.5 -16t-16.5 -56v-62h134v-62h-134v-354h94v-63h-245v63h67v354h-189v-354h66v-63
h-222v63h72v354h-72zM954 0l-201 244v-181h78v-63h-224v63h62v610h84v-414l192 220h101v-73h-78l-129 -148l162 -195h68v-63h-115z" />
    <glyph glyph-name="f_f_l.alt" horiz-adv-x="847" 
d="M28 417v62h72v49q0 77 42 112t89 35q58 0 86 -28v-41q-24 2 -50 2q-48 0 -65.5 -16t-17.5 -56v-57h189v54q0 41 13.5 71.5t34 46t40.5 22.5t39 7q63 0 91 -28v-41q-24 2 -53 2q-48 0 -64.5 -16t-16.5 -56v-62h134v-62h-134v-354h85v-63h-236v63h67v354h-189v-354h66v-63
h-222v63h72v354h-72zM598 0v63h71v610h84v-610h66v-63h-221z" />
    <glyph glyph-name="f_h.alt" horiz-adv-x="892" 
d="M650 0v63h73v277q0 81 -94 81q-64 0 -105.5 -41.5t-43.5 -114.5v-202h76v-63h-222v63h62v610h84v-325q12 67 60 105t112 38q72 0 113.5 -42t41.5 -122v-264h57v-63h-214zM28 0v63h72v354h-72v62h72v54q0 41 13.5 71.5t34 46t40.5 22.5t39 7q63 0 91 -28v-41q-24 2 -53 2
q-48 0 -64.5 -16t-16.5 -56v-62h134v-62h-134v-354h94v-63h-250z" />
    <glyph glyph-name="f_k.alt" horiz-adv-x="824" 
d="M681 0l-201 244v-181h78v-63h-224v63h62v610h84v-414l192 220h101v-73h-78l-129 -148l162 -195h68v-63h-115zM28 0v63h72v354h-72v62h72v54q0 41 13.5 71.5t34 46t40.5 22.5t39 7q63 0 91 -28v-41q-24 2 -53 2q-48 0 -64.5 -16t-16.5 -56v-62h134v-62h-134v-354h94v-63
h-250z" />
    <glyph glyph-name="f_l.alt" horiz-adv-x="574" 
d="M28 417v62h72v54q0 41 13.5 71.5t34 46t40.5 22.5t39 7q63 0 91 -28v-41q-24 2 -53 2q-48 0 -64.5 -16t-16.5 -56v-62h134v-62h-134v-354h85v-63h-241v63h72v354h-72zM325 0v63h71v610h84v-610h66v-63h-221z" />
    <glyph glyph-name="space_uni0326.alt" horiz-adv-x="400" 
d="M203 686h54q-21 -46 -21 -86q0 -20 4 -44h-83q-3 13 -3 24q0 69 49 106z" />
    <glyph glyph-name="six.alt" horiz-adv-x="554" 
d="M311 578q-84 0 -133.5 -57.5t-49.5 -184.5v-25q43 108 176 108q98 0 155.5 -62t57.5 -145v-5q0 -101 -62.5 -161.5t-164.5 -60.5q-108 0 -178.5 72.5t-70.5 211.5v53q0 170 75 250.5t195 80.5q102 0 158 -52v-68q-63 45 -158 45zM289 352q-69 0 -114 -31.5t-47 -86.5v-11
q0 -85 44 -128t118 -43q69 0 104.5 40.5t35.5 112.5v8q0 62 -33.5 100.5t-107.5 38.5z" />
    <glyph glyph-name="nine.alt" horiz-adv-x="554" 
d="M245 60q181 0 181 236v31q-42 -108 -176 -108q-99 0 -156 60t-57 148v5q0 102 62.5 161.5t164.5 59.5q108 0 178.5 -72.5t70.5 -211.5v-59q0 -325 -268 -325q-104 0 -160 52v68q63 -45 160 -45zM265 286q69 0 113.5 31t47.5 87v11q0 85 -44 128t-118 43q-70 0 -105 -40
t-35 -112v-8q0 -62 33.5 -101t107.5 -39z" />
    <glyph glyph-name="ordfeminine.alt" horiz-adv-x="355" 
d="M242 307q-14 29 -15 64q-19 -73 -102 -73q-45 0 -72.5 24t-27.5 66v1q0 55 46.5 80t155.5 42v18q0 71 -71 71q-26 0 -50 -8v-54h-60v69q45 42 121 42q128 0 128 -129v-162h38v-51h-91zM149 342q31 0 54.5 25t23.5 68v40q-78 -13 -105 -29.5t-27 -48.5v-3q0 -52 54 -52z
" />
    <glyph glyph-name="ordfeminine.alt1" horiz-adv-x="409" 
d="M386 307h-93q-15 36 -15 81q-26 -89 -115 -89q-62 0 -99 50t-37 132q0 79 40 123t98 44q86 0 114 -86q0 18 4 37.5t8 30.5l4 10h51v-282h40v-51zM181 348q40 0 68 32t28 86v12q0 59 -27 88.5t-68 29.5q-85 0 -85 -105v-24q0 -55 22 -87t62 -32z" />
    <glyph glyph-name="braceleft.alt" horiz-adv-x="336" 
d="M188 546q0 -23 6 -71t6 -69q0 -47 -29 -75t-95 -40v-3q65 -11 94.5 -39t29.5 -76q0 -21 -6 -71t-6 -73q0 -34 13.5 -48.5t47.5 -14.5h47v-64h-55q-67 0 -99.5 29.5t-32.5 80.5q0 28 9 84t9 79q0 29 -22.5 50.5t-74.5 24.5v79q52 3 74.5 24.5t22.5 50.5q0 23 -9 77t-9 82
q0 51 32.5 80.5t99.5 29.5h55v-68h-47q-35 0 -48 -13.5t-13 -45.5z" />
    <glyph glyph-name="braceright.alt" horiz-adv-x="336" 
d="M136 546q0 32 -13 45.5t-48 13.5h-47v68h55q67 0 99.5 -29.5t32.5 -80.5q0 -28 -9 -82t-9 -77q0 -29 22.5 -50.5t74.5 -24.5v-79q-52 -3 -74.5 -24.5t-22.5 -50.5q0 -23 9 -79t9 -84q0 -51 -32.5 -80.5t-99.5 -29.5h-55v64h47q34 0 47.5 14.5t13.5 48.5q0 23 -6 73t-6 71
q0 48 29.5 76t94.5 39v3q-66 12 -95 40t-29 75q0 21 6 69t6 71z" />
    <glyph glyph-name="registered.alt" horiz-adv-x="744" 
d="M372 -14q-142 0 -238.5 97t-96.5 234q0 138 97 236t238 98q143 0 239 -97.5t96 -236.5q0 -138 -96 -234.5t-239 -96.5zM372 33q119 0 200.5 83.5t81.5 200.5q0 118 -81.5 202.5t-200.5 84.5q-118 0 -200 -85t-82 -202t82 -200.5t200 -83.5zM232 449v48h156q57 0 87 -27
t30 -76q0 -44 -25.5 -68.5t-71.5 -27.5l80 -105h32v-42l3 -4h-75l-118 157v-111h32v-46h-130v46h34v256h-34zM330 331h50q34 0 47.5 14t13.5 44q0 28 -13.5 41t-45.5 13h-52v-112z" />
    <glyph glyph-name="caron.alt" horiz-adv-x="400" 
d="M170 541l6 132h83l-35 -132h-54z" />
    <glyph glyph-name="questiondown.uc" horiz-adv-x="395" 
d="M118 153q0 -105 111 -105q31 0 66 9v90h72v-112q-52 -52 -152 -52q-78 0 -129.5 42.5t-51.5 124.5q0 46 18 81t44 57l52 42t44 47t18 62v40h69v-51q0 -41 -16.5 -74.5t-40.5 -55.5l-47.5 -42.5t-40 -46.5t-16.5 -56zM178 599q0 24 17 41t42 17q24 0 41.5 -17t17.5 -41
t-18 -41.5t-41 -17.5q-25 0 -42 17.5t-17 41.5z" />
    <glyph glyph-name="exclamdown.uc" horiz-adv-x="238" 
d="M71 -10l17 489h64l17 -489h-98zM119 657q24 0 41.5 -17t17.5 -41t-18 -41.5t-41 -17.5q-25 0 -42 17.5t-17 41.5t17 41t42 17z" />
    <glyph glyph-name="hyphen.uc" horiz-adv-x="293" 
d="M55 282v74h183v-74h-183z" />
    <glyph glyph-name="endash.uc" horiz-adv-x="573" 
d="M55 279v60h463v-60h-463z" />
    <glyph glyph-name="emdash.uc" horiz-adv-x="943" 
d="M55 279v60h833v-60h-833z" />
    <glyph glyph-name="guilsinglleft.uc" horiz-adv-x="224" 
d="M115 456h82l-92 -160l92 -161h-82l-89 160z" />
    <glyph glyph-name="guilsinglright.uc" horiz-adv-x="224" 
d="M27 135l92 160l-92 161h82l89 -160l-89 -161h-82z" />
    <glyph glyph-name="guillemotleft.uc" horiz-adv-x="362" 
d="M115 456h82l-92 -160l92 -161h-82l-89 160zM335 456l-92 -160l92 -161h-82l-89 160l89 161h82z" />
    <glyph glyph-name="guillemotright.uc" horiz-adv-x="362" 
d="M247 135h-82l92 160l-92 161h82l89 -160zM27 135l92 160l-92 161h82l89 -160l-89 -161h-82z" />
    <glyph glyph-name="parenleft.uc" horiz-adv-x="298" 
d="M127 327v-32q0 -210 146 -349v-5h-76q-24 22 -46 49t-49 72t-43 108t-16 134v14q0 67 16 128.5t43 105.5t49 72t46 49h76v-5q-63 -59 -104.5 -149.5t-41.5 -191.5z" />
    <glyph glyph-name="parenright.uc" horiz-adv-x="298" 
d="M171 287v32q0 210 -146 349v5h76q24 -22 46 -49t49 -72t43 -108t16 -134v-14q0 -67 -16 -128.5t-43 -105.5t-49 -72t-46 -49h-76v5q63 59 104.5 149.5t41.5 191.5z" />
    <glyph glyph-name="bracketleft.uc" horiz-adv-x="363" 
d="M77 -58v731h246v-68h-167v-599h167v-64h-246z" />
    <glyph glyph-name="bracketright.uc" horiz-adv-x="363" 
d="M286 673v-731h-246v64h167v599h-167v68h246z" />
    <glyph glyph-name="braceleft.uc" horiz-adv-x="303" 
d="M84 311v-3q116 -20 116 -107q0 -26 -12 -70.5t-12 -65.5q0 -40 16.5 -63.5t60.5 -54.5v-5h-73q-33 12 -60.5 42.5t-27.5 73.5q0 26 17.5 75.5t17.5 71.5q0 25 -22.5 43.5t-74.5 21.5v79q52 3 74.5 21.5t22.5 43.5q0 22 -17.5 69.5t-17.5 73.5q0 44 27 74t61 42h73v-5
q-44 -31 -60.5 -54.5t-16.5 -63.5q0 -21 12 -63.5t12 -68.5q0 -86 -116 -107z" />
    <glyph glyph-name="braceright.uc" horiz-adv-x="303" 
d="M219 308v3q-116 21 -116 107q0 26 12 68.5t12 63.5q0 40 -16.5 63.5t-60.5 54.5v5h73q34 -12 61 -42t27 -74q0 -26 -17.5 -73.5t-17.5 -69.5q0 -25 22.5 -43.5t74.5 -21.5v-79q-52 -3 -74.5 -21.5t-22.5 -43.5q0 -22 17.5 -71.5t17.5 -75.5q0 -43 -27.5 -73.5
t-60.5 -42.5h-73v5q44 31 60.5 54.5t16.5 63.5q0 21 -12 65.5t-12 70.5q0 87 116 107z" />
    <glyph glyph-name="slash.uc" horiz-adv-x="327" 
d="M303 673l-209 -732h-76l209 732h76z" />
    <glyph glyph-name="backslash.uc" horiz-adv-x="327" 
d="M24 673h76l209 -732h-76z" />
    <glyph glyph-name="bar.uc" horiz-adv-x="236" 
d="M156 673v-732h-76v732h76z" />
    <glyph glyph-name="at.uc" horiz-adv-x="798" 
d="M367 170q40 0 74.5 35t42.5 93l2 12q11 69 -16.5 102t-72.5 33t-76.5 -44.5t-31.5 -137.5q0 -43 20 -68t58 -25zM424 685q149 0 245 -84.5t96 -227.5q0 -119 -47 -188.5t-124 -69.5q-52 0 -81 25.5t-31 65.5q-17 -47 -51 -71.5t-77 -24.5q-70 0 -106 45t-36 121
q0 96 50 165.5t136 69.5q47 0 73 -27.5t34 -70.5q3 19 10.5 41t13.5 34l6 13h61l-41 -250q-7 -44 1.5 -64.5t38.5 -20.5q47 0 77 56t30 152q0 88 -39 146t-100.5 81.5t-143.5 23.5q-137 0 -226.5 -94.5t-89.5 -245.5q0 -140 79.5 -216t221.5 -76q66 0 134 21.5t106 50.5v-54
q-37 -30 -102.5 -51.5t-142.5 -21.5q-161 0 -261 92.5t-100 253.5q0 182 113 291.5t273 109.5z" />
    <glyph glyph-name="grave.uc" horiz-adv-x="400" 
d="M180 685l-109 111h121l45 -111h-57z" />
    <glyph glyph-name="dieresis.uc" horiz-adv-x="400" 
d="M108 671q-22 0 -37.5 15t-15.5 37q0 21 15.5 36.5t37.5 15.5q21 0 36.5 -15.5t15.5 -36.5q0 -22 -15.5 -37t-36.5 -15zM291 671q-21 0 -36.5 15t-15.5 37q0 21 15.5 36.5t36.5 15.5q22 0 37.5 -15.5t15.5 -36.5q0 -22 -15.5 -37t-37.5 -15z" />
    <glyph glyph-name="macron.uc" horiz-adv-x="400" 
d="M82 699v66h236v-66h-236z" />
    <glyph glyph-name="acute.uc" horiz-adv-x="400" 
d="M163 685l45 111h121l-109 -111h-57z" />
    <glyph glyph-name="circumflex.uc" horiz-adv-x="400" 
d="M337 685h-62l-75 53l-75 -53h-62l84 111h106z" />
    <glyph glyph-name="caron.uc" horiz-adv-x="400" 
d="M63 796h62l75 -53l75 53h62l-84 -111h-106z" />
    <glyph glyph-name="breve.uc" horiz-adv-x="400" 
d="M259 790h50q2 -47 -24 -81.5t-85 -34.5t-85 34t-24 82h50q2 -51 59 -51t59 51z" />
    <glyph glyph-name="dotaccent.uc" horiz-adv-x="400" 
d="M200 682q-23 0 -39 16t-16 38t16.5 38.5t38.5 16.5t38.5 -16.5t16.5 -38.5t-16 -38t-39 -16z" />
    <glyph glyph-name="ring.uc" horiz-adv-x="400" 
d="M200 705q20 0 33 13.5t13 35.5t-13 36t-33 14q-19 0 -32 -14t-13 -36t13 -35.5t32 -13.5zM200 664q-39 0 -65 26t-26 64t26 64.5t65 26.5t65.5 -26.5t26.5 -64.5t-26.5 -64t-65.5 -26z" />
    <glyph glyph-name="tilde.uc" horiz-adv-x="400" 
d="M68 686q-8 45 9 77.5t60 32.5q32 0 72 -17t53 -17q15 0 19 8t6 30h43q8 -45 -7.5 -77.5t-56.5 -32.5q-25 0 -67.5 17t-61.5 17q-14 0 -19 -8t-7 -30h-43z" />
    <glyph glyph-name="hungarumlaut.uc" horiz-adv-x="400" 
d="M94 685l39 111h98l-72 -111h-65zM233 685l39 111h98l-72 -111h-65z" />
    <glyph glyph-name="Cacute.pl" horiz-adv-x="586" 
d="M456 473v85q-57 20 -119 20q-105 0 -155.5 -60t-50.5 -167v-40q0 -125 54 -190t161 -65q58 0 120 26v98h74v-119q-28 -32 -80 -54t-120 -22q-135 0 -216.5 89.5t-81.5 249.5v2q0 151 75.5 239t213.5 88t199 -67v-113h-74zM295 685l22 111h104l-71 -111h-55z" />
    <glyph glyph-name="Nacute.pl" horiz-adv-x="702" 
d="M441 572v67h230v-67h-66v-572h-129l-294 571v-508h83v-63h-230v63h66v509h-66v67h205l284 -561v494h-83zM331 685l22 111h104l-71 -111h-55z" />
    <glyph glyph-name="Oacute.pl" horiz-adv-x="672" 
d="M336 56q205 0 205 246v52q0 103 -51 163.5t-154 60.5t-154 -60.5t-51 -163.5v-52q0 -246 205 -246zM336 -15q-132 0 -213 86.5t-81 249.5v2q0 152 77 241t217 89t217 -89t77 -241v-2q0 -163 -80.5 -249.5t-213.5 -86.5zM305 685l22 111h104l-71 -111h-55z" />
    <glyph glyph-name="Sacute.pl" horiz-adv-x="528" 
d="M370 473v89q-53 16 -92 16q-62 0 -100 -23t-38 -86q0 -55 40 -78q31 -18 119.5 -34t121.5 -40q61 -45 61 -139q0 -96 -62.5 -144.5t-156.5 -48.5q-140 0 -213 63v132h74v-97q61 -27 132 -27q65 0 104 28t39 90q0 52 -28 74q-22 17 -113 36t-119 34q-81 44 -81 150
q0 91 61 138t151 47q117 0 174 -50v-130h-74zM232 685l22 111h104l-71 -111h-55z" />
    <glyph glyph-name="Zacute.pl" horiz-adv-x="556" 
d="M65 473v166h450v-98l-393 -471h315v96h74v-166h-470v98l388 466h-290v-91h-74zM258 685l22 111h104l-71 -111h-55z" />
    <glyph glyph-name="acute.pl" horiz-adv-x="400" 
d="M163 539l14 134h108l-67 -134h-55z" />
    <glyph glyph-name="acute.ucpl" horiz-adv-x="400" 
d="M169 685l22 111h104l-71 -111h-55z" />
    <glyph glyph-name="braceleft.ucalt" horiz-adv-x="336" 
d="M188 550q0 -21 6 -65t6 -63q0 -89 -124 -111v-3q65 -11 94.5 -38.5t29.5 -72.5q0 -20 -6 -65.5t-6 -66.5q0 -32 13 -45.5t48 -13.5h47v-64h-55q-67 0 -99.5 29t-32.5 77q0 27 9 78t9 73q0 27 -22.5 47.5t-74.5 23.5v79q52 3 74.5 24t22.5 47q0 21 -9 70.5t-9 76.5
q0 48 32.5 77t99.5 29h55v-68h-47q-35 0 -48 -12.5t-13 -42.5z" />
    <glyph glyph-name="braceright.ucalt" horiz-adv-x="336" 
d="M138 550q0 30 -13 42.5t-48 12.5h-47v68h55q67 0 99.5 -29t32.5 -77q0 -27 -9 -76.5t-9 -70.5q0 -26 22.5 -47t74.5 -24v-79q-52 -3 -74.5 -23.5t-22.5 -47.5q0 -22 9 -73t9 -78q0 -48 -32.5 -77t-99.5 -29h-55v64h47q35 0 48 13.5t13 45.5q0 21 -6 66.5t-6 65.5
q0 45 29.5 72.5t94.5 38.5v3q-124 22 -124 111q0 19 6 63t6 65z" />
    <glyph glyph-name="cacute.pl" horiz-adv-x="465" 
d="M341 344v78q-38 9 -74 9q-64 0 -106.5 -41t-42.5 -122v-36q0 -177 156 -177q73 0 150 49v-62q-19 -20 -60.5 -36.5t-98.5 -16.5q-106 0 -169.5 67.5t-63.5 185.5v1q0 65 20 114.5t54 77.5t73.5 42t83.5 14q106 0 153 -45v-102h-75zM221 539l14 134h108l-67 -134h-55z" />
    <glyph glyph-name="f.short" horiz-adv-x="313" 
d="M28 479h72v54q0 73 38.5 110t83.5 37q51 0 71 -25v-44q-20 2 -36 2q-39 0 -56 -16.5t-17 -55.5v-62h109v-62h-109v-354h96v-63h-252v63h72v354h-72v62z" />
    <glyph glyph-name="f_f.short" horiz-adv-x="586" 
d="M28 417v62h72v49q0 77 42 112t89 35q58 0 86 -28v-41q-24 2 -50 2q-48 0 -65.5 -16t-17.5 -56v-57h189v54q0 73 38.5 110t83.5 37q51 0 71 -25v-44q-20 2 -36 2q-40 0 -56.5 -16.5t-16.5 -55.5v-62h109v-62h-109v-354h96v-63h-247v63h67v354h-189v-354h66v-63h-222v63h72
v354h-72z" />
    <glyph glyph-name="nacute.pl" horiz-adv-x="586" 
d="M344 0v63h73v277q0 81 -94 81q-64 0 -105.5 -41.5t-43.5 -114.5v-202h76v-63h-222v63h62v343h-62v73h126q20 -57 20 -117v-14q12 67 60 105t112 38q72 0 113.5 -42t41.5 -122v-264h57v-63h-214zM246 539l14 134h108l-67 -134h-55z" />
    <glyph glyph-name="nine.denalt" horiz-adv-x="351" 
d="M148 47q102 0 102 126v15q-26 -59 -98 -59q-59 0 -92 35t-33 87v3q0 59 38.5 94.5t102.5 35.5q70 0 111.5 -44t41.5 -126v-30q0 -193 -167 -193q-69 0 -100 33v48q38 -25 94 -25zM169 176q35 0 57.5 17t23.5 47v8q0 44 -21.5 66t-59.5 22q-72 0 -72 -80v-7q0 -73 72 -73z
" />
    <glyph glyph-name="nine.numalt" horiz-adv-x="351" 
d="M148 310q102 0 102 126v15q-26 -59 -98 -59q-59 0 -92 35t-33 87v3q0 59 38.5 94.5t102.5 35.5q70 0 111.5 -44t41.5 -126v-30q0 -193 -167 -193q-69 0 -100 33v48q38 -25 94 -25zM169 439q35 0 57.5 17t23.5 47v8q0 44 -21.5 66t-59.5 22q-72 0 -72 -80v-7q0 -73 72 -73
z" />
    <glyph glyph-name="nine.subalt" horiz-adv-x="351" 
d="M148 -43q102 0 102 126v15q-26 -59 -98 -59q-59 0 -92 35t-33 87v3q0 59 38.5 94.5t102.5 35.5q70 0 111.5 -44t41.5 -126v-30q0 -193 -167 -193q-69 0 -100 33v48q38 -25 94 -25zM169 86q35 0 57.5 17t23.5 47v8q0 44 -21.5 66t-59.5 22q-72 0 -72 -80v-7q0 -73 72 -73z
" />
    <glyph glyph-name="nine.supalt" horiz-adv-x="351" 
d="M148 362q102 0 102 126v15q-26 -59 -98 -59q-59 0 -92 35t-33 87v3q0 59 38.5 94.5t102.5 35.5q70 0 111.5 -44t41.5 -126v-30q0 -193 -167 -193q-69 0 -100 33v48q38 -25 94 -25zM169 491q35 0 57.5 17t23.5 47v8q0 44 -21.5 66t-59.5 22q-72 0 -72 -80v-7q0 -73 72 -73
z" />
    <glyph glyph-name="nine.tabalt" 
d="M273 60q82 0 125.5 54t43.5 182v29q-39 -106 -166 -106q-99 0 -153.5 60t-54.5 148v5q0 102 60 161.5t162 59.5q107 0 173 -72t66 -212v-59q0 -173 -65 -249t-191 -76q-104 0 -160 52v68q63 -45 160 -45zM291 286q70 0 110.5 32.5t40.5 91.5v5q0 171 -152 171
q-135 0 -135 -152v-8q0 -140 136 -140z" />
    <glyph glyph-name="oacute.pl" horiz-adv-x="534" 
d="M267 49q68 0 108.5 44.5t40.5 138.5v38q0 74 -40.5 117t-108.5 43t-108.5 -43t-40.5 -117v-38q0 -94 40.5 -138.5t108.5 -44.5zM267 -11q-102 0 -168.5 66t-66.5 190v1q0 111 64.5 178t170.5 67t170.5 -66.5t64.5 -177.5v-1q0 -125 -66.5 -191t-168.5 -66zM230 539
l14 134h108l-67 -134h-55z" />
    <glyph glyph-name="sacute.pl" horiz-adv-x="418" 
d="M282 358v66q-33 7 -59 7q-105 0 -105 -75q0 -42 32 -57q24 -11 87 -21.5t90 -29.5q56 -37 56 -113q0 -70 -50 -108t-129 -38q-103 0 -172 50v96h75v-74q37 -13 87 -13q110 0 110 83q0 39 -25 55q-18 11 -81.5 23t-87.5 24q-35 17 -51.5 43.5t-16.5 72.5q0 70 47.5 106
t126.5 36q91 0 141 -36v-97h-75zM172 539l14 134h108l-67 -134h-55z" />
    <glyph glyph-name="six.denalt" horiz-adv-x="351" 
d="M204 328q-103 0 -103 -131v-14q25 63 101 63q57 0 89.5 -35.5t32.5 -86.5v-2q0 -59 -38 -95t-103 -36q-69 0 -111 44.5t-42 126.5v28q0 97 46.5 145.5t120.5 48.5q69 0 99 -34v-47q-38 25 -92 25zM182 198q-35 0 -57.5 -17t-23.5 -46v-7q0 -44 22 -66.5t60 -22.5
q71 0 71 80v6q0 73 -72 73z" />
    <glyph glyph-name="six.numalt" horiz-adv-x="351" 
d="M204 591q-103 0 -103 -131v-14q25 63 101 63q57 0 89.5 -35.5t32.5 -86.5v-2q0 -59 -38 -95t-103 -36q-69 0 -111 44.5t-42 126.5v28q0 97 46.5 145.5t120.5 48.5q69 0 99 -34v-47q-37 25 -92 25zM182 461q-35 0 -57.5 -17t-23.5 -46v-7q0 -44 22 -66.5t60 -22.5
q71 0 71 80v6q0 73 -72 73z" />
    <glyph glyph-name="six.subalt" horiz-adv-x="351" 
d="M204 238q-103 0 -103 -131v-14q25 63 101 63q57 0 89.5 -35.5t32.5 -86.5v-2q0 -59 -38 -95t-103 -36q-69 0 -111 44.5t-42 126.5v28q0 97 46.5 145.5t120.5 48.5q69 0 99 -34v-47q-38 25 -92 25zM182 108q-35 0 -57.5 -17t-23.5 -46v-7q0 -44 22 -66.5t60 -22.5
q71 0 71 80v6q0 73 -72 73z" />
    <glyph glyph-name="six.supalt" horiz-adv-x="351" 
d="M204 643q-103 0 -103 -131v-14q25 63 101 63q57 0 89.5 -35.5t32.5 -86.5v-2q0 -59 -38 -95t-103 -36q-69 0 -111 44.5t-42 126.5v28q0 97 46.5 145.5t120.5 48.5q69 0 99 -34v-47q-37 25 -92 25zM182 513q-35 0 -57.5 -17t-23.5 -46v-7q0 -44 22 -66.5t60 -22.5
q71 0 71 80v6q0 73 -72 73z" />
    <glyph glyph-name="six.tabalt" 
d="M332 578q-174 0 -174 -242v-24q39 107 169 107q97 0 150.5 -61.5t53.5 -145.5v-5q0 -102 -58.5 -162t-159.5 -60q-107 0 -174.5 72.5t-67.5 211.5v53q0 171 71 251t190 80q59 0 92 -13.5t60 -38.5v-68q-63 45 -152 45zM312 352q-70 0 -112 -33t-42 -91v-5
q0 -86 40.5 -128.5t114.5 -42.5q131 0 131 153v8q0 139 -132 139z" />
    <glyph glyph-name="zacute.pl" horiz-adv-x="464" 
d="M43 338v141h383v-82l-313 -333h245v91h72v-155h-400v82l312 332h-227v-76h-72zM204 539l14 134h108l-67 -134h-55z" />
    </font>
</defs>
</svg>
